ply
format ascii 1.0
element vertex 75
property float x
property float y
property float z
property float nx
property float ny
property float nz
property uchar diffuse_red
property uchar diffuse_green
property uchar diffuse_blue
end_header
-0.101402 0.0735745 -0.0588799 0 0 0 215 224 244
-0.0403346 0.0741749 -0.0594336 0 0 0 254 254 254
-0.169741 0.0703488 -0.0609283 0 0 0 215 222 240
-0.244539 0.0588578 0.0223702 0 0 0 180 194 183
-0.261346 0.0582804 -0.0129803 0 0 0 253 251 230
-0.268629 0.0231131 -0.0575801 0 0 0 186 190 189
-0.174054 0.0716047 -0.059273 0 0 0 212 221 240
-0.0371233 0.0731316 -0.0597882 0 0 0 254 254 254
-0.264605 0.0495026 -0.0125017 0 0 0 254 254 254
-0.260038 0.0253124 -0.00445965 0 0 0 223 223 103
-0.256233 0.062861 -0.00881094 0 0 0 253 252 253
-0.258141 0.0563606 -0.0349116 0 0 0 67 76 78
-0.268987 0.0231631 -0.0463605 0 0 0 12 13 17
-0.257415 0.0301654 0.000898794 0 0 0 236 233 96
-0.21463 0.0674457 -0.0622167 0 0 0 239 242 245
-0.258904 0.0556349 -0.0350613 0 0 0 67 77 79
-0.244745 0.0514852 -0.0538117 0 0 0 158 177 192
-0.216821 0.066727 -0.0623069 0 0 0 239 241 244
-0.221491 0.070967 -0.0353556 0 0 0 52 19 13
-0.259688 0.0232934 -0.0249958 0 0 0 182 195 173
-0.138785 0.0764427 -0.027647 0 0 0 139 124 104
-0.239545 0.0603357 -0.0496583 0 0 0 88 60 65
-0.14161 0.0777567 -0.0104498 0 0 0 128 123 95
-0.238699 0.065231 -0.00138886 0 0 0 32 31 27
-0.12663 0.0747727 -0.0490504 0 0 0 52 46 42
-0.264303 0.0471925 -0.0302879 0 0 0 68 57 62
-0.07794 0.0799153 0.0154973 0 0 0 126 110 43
-0.140801 0.0721244 -0.0480958 0 0 0 45 39 34
-0.158916 0.0765211 0.0032158 0 0 0 122 101 81
-0.0954923 0.0777515 0.00555175 0 0 0 19 13 16
-0.247953 0.0487902 0.00429311 0 0 0 198 212 118
-0.14352 0.0728045 -0.0539804 0 0 0 43 34 24
-0.252252 0.0430378 0.00648794 0 0 0 228 230 54
-0.149369 0.0766426 0.0273811 0 0 0 124 109 60
-0.25703 0.0265203 -0.0480191 0 0 0 43 48 54
-0.150682 0.0770838 0.023806 0 0 0 128 110 54
-0.203687 0.0685662 -0.0497654 0 0 0 102 38 7
-0.0157595 0.0788432 -0.00118491 0 0 0 41 25 13
-0.241121 0.0662095 -0.0230807 0 0 0 167 135 57
-0.219683 0.0717245 -0.00850669 0 0 0 106 89 81
-0.152869 0.0728454 -0.0464463 0 0 0 105 87 42
-0.0778092 0.0772548 -0.0158982 0 0 0 89 10 9
-0.221152 0.0737696 -0.000442896 0 0 0 123 118 97
-0.020781 0.0799803 -0.021593 0 0 0 44 58 65
-0.141892 0.0750697 -0.0303568 0 0 0 135 129 102
-0.135502 0.079131 -0.00644796 0 0 0 138 134 116
-0.111292 0.0761811 -0.039034 0 0 0 142 142 118
-0.268498 0.0241196 -0.0361082 0 0 0 18 15 11
-0.125679 0.0777334 -0.0249328 0 0 0 126 86 57
-0.13177 0.0793952 0.0155293 0 0 0 49 39 46
-0.142712 0.0794705 0.0210215 0 0 0 123 115 69
-0.168358 0.0783792 0.0206801 0 0 0 125 115 88
-0.251226 0.0387845 -0.059989 0 0 0 207 211 209
-0.0763611 0.0802458 -0.00239484 0 0 0 123 96 9
-0.0529546 0.0762646 -0.0478166 0 0 0 38 46 58
-0.050329 0.0773942 -0.0476146 0 0 0 37 48 62
-0.205102 0.0716782 -0.0217492 0 0 0 67 72 14
-0.252057 0.0433456 0.0208322 0 0 0 78 80 85
-0.0589149 0.0764885 -0.0211301 0 0 0 113 81 2
-0.259525 0.0261097 0.0235285 0 0 0 48 53 51
-0.137555 0.0770938 -0.0372598 0 0 0 127 115 87
-0.0544172 0.0801749 0.00207589 0 0 0 66 15 24
-0.0436306 0.0777874 -0.026153 0 0 0 37 12 14
-0.102052 0.077354 -0.0300365 0 0 0 139 142 110
-0.224205 0.0764913 0.0141358 0 0 0 15 11 12
-0.0633871 0.079774 0.0187024 0 0 0 107 75 4
-0.11091 0.0774422 0.0136857 0 0 0 93 73 32
-0.117681 0.0796077 -0.00597771 0 0 0 134 126 59
-0.181617 0.0739595 -0.0269432 0 0 0 121 94 33
-0.168106 0.0747183 -0.0138344 0 0 0 130 107 64
-0.197715 0.0754496 0.000600928 0 0 0 104 87 63
-0.117542 0.0799566 -0.00838077 0 0 0 136 129 79
-0.0665863 0.0789011 -0.00631497 0 0 0 124 97 7
-0.192798 0.0747555 -0.0164781 0 0 0 128 122 80
-0.242016 0.0627833 0.00570367 0 0 0 23 26 17
