ply
format ascii 1.0
element vertex 80
property float x
property float y
property float z
property float nx
property float ny
property float nz
property uchar diffuse_red
property uchar diffuse_green
property uchar diffuse_blue
end_header
-0.100428 0.0752073 -0.0589344 0 0 0 229 233 239
-0.0444099 0.0749372 -0.0593208 0 0 0 254 254 254
-0.131079 0.0724242 -0.0624202 0 0 0 249 250 249
-0.244823 0.059793 0.0227305 0 0 0 185 195 190
-0.139597 0.0712831 -0.0636459 0 0 0 81 67 75
-0.170314 0.0720894 -0.0611711 0 0 0 219 221 238
-0.268193 0.0235125 -0.0586215 0 0 0 190 192 188
-0.259944 0.028267 -0.0060611 0 0 0 238 245 110
-0.262815 0.0562653 -0.00791043 0 0 0 239 242 216
-0.175385 0.0727408 -0.0608377 0 0 0 217 222 237
-0.269099 0.0244259 -0.0471876 0 0 0 13 13 5
-0.267863 0.0241332 -0.0461396 0 0 0 14 15 12
-0.139549 0.0778431 -0.0266649 0 0 0 136 128 105
-0.218942 0.0671507 -0.0630058 0 0 0 239 240 242
-0.257653 0.0313253 0.000117504 0 0 0 239 235 93
-0.222877 0.0721313 -0.0359453 0 0 0 52 17 17
-0.254925 0.036458 0.00329404 0 0 0 232 214 17
-0.244816 0.0525285 -0.0534435 0 0 0 140 144 164
-0.143879 0.0792394 -0.0107264 0 0 0 137 130 102
-0.239537 0.0615156 -0.05034 0 0 0 92 65 73
-0.264928 0.0492787 -0.0308925 0 0 0 72 61 66
-0.259654 0.056282 -0.0370156 0 0 0 75 78 82
-0.125896 0.0749019 -0.0495421 0 0 0 55 47 30
-0.238826 0.0663384 -0.00206111 0 0 0 35 35 41
-0.158189 0.0781754 0.00297444 0 0 0 124 98 79
-0.24837 0.0483335 0.00330229 0 0 0 220 225 140
-0.142108 0.0744642 -0.0480912 0 0 0 47 38 37
-0.249996 0.0467012 0.00406327 0 0 0 232 226 80
-0.260982 0.0260825 -0.0243878 0 0 0 181 186 182
-0.0803704 0.0812056 0.0140697 0 0 0 131 119 67
-0.0970382 0.0798092 0.00552697 0 0 0 21 19 11
-0.143462 0.0737054 -0.0543465 0 0 0 43 30 14
-0.0803683 0.0752169 -0.0608377 0 0 0 45 49 52
-0.263803 0.0518945 -0.0325184 0 0 0 64 61 68
-0.149313 0.0791455 0.026076 0 0 0 125 112 61
-0.0872498 0.0769204 -0.0446977 0 0 0 41 43 38
-0.150614 0.0795947 0.0225051 0 0 0 129 116 72
-0.257127 0.0277499 -0.0488042 0 0 0 46 51 60
-0.203654 0.0696397 -0.0503241 0 0 0 103 43 11
-0.239455 0.064883 -0.0242372 0 0 0 171 137 53
-0.245594 0.0497357 -0.0619112 0 0 0 215 220 218
-0.152834 0.0737632 -0.0468413 0 0 0 106 87 36
-0.0190664 0.0807455 -0.0214991 0 0 0 33 39 46
-0.189945 0.0715263 -0.0641372 0 0 0 228 235 240
-0.0802243 0.0784021 -0.0159911 0 0 0 92 8 13
-0.254235 0.0679578 -0.0312956 0 0 0 64 70 71
-0.219034 0.0723021 -0.0114032 0 0 0 123 121 98
-0.268124 0.0244862 -0.0371114 0 0 0 19 16 12
-0.224036 0.0760236 0.0023522 0 0 0 91 93 59
-0.142576 0.0766593 -0.0305602 0 0 0 139 133 100
-0.22108 0.0763607 -0.000774819 0 0 0 125 121 91
-0.112855 0.0768315 -0.0393097 0 0 0 147 143 115
-0.237666 0.0616028 -0.062595 0 0 0 223 223 223
-0.134815 0.079391 -0.00807698 0 0 0 142 141 120
-0.125697 0.0785393 -0.0252366 0 0 0 129 89 66
-0.167691 0.0800247 0.0204097 0 0 0 134 127 97
-0.132598 0.0808804 0.0152899 0 0 0 52 41 30
-0.052243 0.0760368 -0.0467658 0 0 0 47 48 51
-0.204532 0.07193 -0.0224591 0 0 0 66 74 3
-0.0588696 0.0772787 -0.0225127 0 0 0 120 80 2
-0.0285266 0.080761 0.00147549 0 0 0 55 51 53
-0.213553 0.0774664 0.021823 0 0 0 38 36 28
-0.137536 0.0779528 -0.0376012 0 0 0 132 121 90
-0.262434 0.0239187 -0.0315728 0 0 0 110 80 70
-0.211473 0.0756618 0.00167672 0 0 0 61 63 3
-0.0535804 0.081611 0.00218268 0 0 0 59 14 14
-0.0418643 0.078784 -0.0274505 0 0 0 30 18 16
-0.102055 0.0780972 -0.0302677 0 0 0 148 147 113
-0.124891 0.0769916 -0.0304951 0 0 0 130 86 48
-0.0437602 0.0769913 -0.0278301 0 0 0 40 13 11
-0.221697 0.076015 0.012332 0 0 0 12 12 15
-0.112458 0.0795584 0.0135907 0 0 0 98 78 28
-0.117678 0.0805384 -0.00745519 0 0 0 140 132 68
-0.253414 0.046172 0.0202482 0 0 0 80 86 83
-0.215715 0.0779339 0.00852974 0 0 0 61 76 18
-0.182278 0.0756965 -0.0272698 0 0 0 123 95 49
-0.0636129 0.0801459 0.019863 0 0 0 111 79 5
-0.241599 0.06306 0.00490915 0 0 0 30 31 20
-0.210614 0.0732275 -0.0087871 0 0 0 88 82 9
-0.0659205 0.0788339 -0.00654169 0 0 0 127 101 4
