ply
format ascii 1.0
element vertex 73
property float x
property float y
property float z
property float nx
property float ny
property float nz
property uchar diffuse_red
property uchar diffuse_green
property uchar diffuse_blue
end_header
-0.102356 0.0745424 -0.0585919 0 0 0 220 226 244
-0.0480044 0.0757111 -0.0576259 0 0 0 254 254 254
-0.170625 0.0710734 -0.0604802 0 0 0 221 222 238
-0.244581 0.0578838 0.0237746 0 0 0 186 194 174
-0.261411 0.0575822 -0.0125988 0 0 0 253 251 217
-0.176345 0.0724352 -0.0599013 0 0 0 217 223 237
-0.268121 0.0217511 -0.0575941 0 0 0 191 192 191
-0.244716 0.0564763 0.0224763 0 0 0 171 183 163
-0.260155 0.0272266 -0.00492928 0 0 0 241 245 103
-0.261992 0.0523129 -0.0363593 0 0 0 72 73 78
-0.268972 0.0226123 -0.0461518 0 0 0 16 14 19
-0.264846 0.047202 -0.0124607 0 0 0 254 254 253
-0.221211 0.0666088 -0.0617713 0 0 0 241 240 242
-0.222447 0.0698233 -0.0351539 0 0 0 55 18 12
-0.139717 0.0769218 -0.0261187 0 0 0 137 129 114
-0.25732 0.0294102 0.00111772 0 0 0 240 237 99
-0.244935 0.0509216 -0.0524268 0 0 0 142 145 169
-0.255334 0.0339659 0.00306354 0 0 0 219 209 7
-0.141759 0.0775887 -0.0102427 0 0 0 136 130 100
-0.239706 0.0599358 -0.049316 0 0 0 93 64 76
-0.259711 0.0544982 -0.0359037 0 0 0 73 79 82
-0.126167 0.0741741 -0.0490813 0 0 0 55 46 31
-0.15759 0.0760859 0.00466447 0 0 0 128 91 54
-0.265439 0.0482871 -0.0296009 0 0 0 71 67 81
-0.238768 0.0645725 -0.0010228 0 0 0 35 29 33
-0.142367 0.0736086 -0.0475442 0 0 0 45 39 37
-0.26147 0.0236498 -0.0246372 0 0 0 172 169 143
-0.0772321 0.0794114 0.0142321 0 0 0 131 118 61
-0.263803 0.0500618 -0.0314017 0 0 0 62 62 64
-0.141544 0.0722391 -0.0540202 0 0 0 45 42 16
-0.0792544 0.0735291 -0.0610137 0 0 0 46 51 54
-0.146257 0.076732 0.0254689 0 0 0 125 109 66
-0.0970465 0.0790802 0.00584955 0 0 0 20 16 16
-0.149011 0.0784658 0.0232067 0 0 0 127 112 71
-0.257034 0.0260328 -0.0478201 0 0 0 46 51 70
-0.203886 0.0683297 -0.0494623 0 0 0 105 49 9
-0.239508 0.0632003 -0.0232008 0 0 0 173 138 39
-0.153081 0.0728219 -0.0462389 0 0 0 106 90 36
-0.0794347 0.0787526 -0.015584 0 0 0 92 7 11
-0.254348 0.0661916 -0.0301665 0 0 0 66 70 73
-0.219073 0.070722 -0.0104482 0 0 0 123 122 104
-0.0203405 0.079388 -0.0191266 0 0 0 57 56 55
-0.222757 0.0729167 0.00204027 0 0 0 100 102 63
-0.267422 0.0217648 -0.0362662 0 0 0 19 14 15
-0.142755 0.0757306 -0.0300023 0 0 0 142 137 111
-0.113085 0.0761613 -0.0389121 0 0 0 148 144 116
-0.125862 0.0777166 -0.0247629 0 0 0 131 89 56
-0.134893 0.0784315 -0.00755074 0 0 0 142 140 120
-0.221865 0.0739815 5.27169e-05 0 0 0 125 123 90
-0.131865 0.0791307 0.0157218 0 0 0 51 41 47
-0.167616 0.0787047 0.0211162 0 0 0 133 128 103
-0.0556136 0.0771183 -0.0476665 0 0 0 41 45 56
-0.25637 0.0278522 -0.0598705 0 0 0 203 207 204
-0.20525 0.071283 -0.0214263 0 0 0 65 73 7
-0.238741 0.0591778 -0.0606593 0 0 0 223 224 222
-0.0597589 0.0776083 -0.0222703 0 0 0 117 82 5
-0.166413 0.0768724 0.023225 0 0 0 132 124 91
-0.258086 0.0292074 0.0243609 0 0 0 48 52 54
-0.137764 0.07709 -0.0370653 0 0 0 132 122 92
-0.0429895 0.0776985 -0.027619 0 0 0 35 17 16
-0.114303 0.0788092 0.022591 0 0 0 107 100 66
-0.0545484 0.0803353 0.00209175 0 0 0 68 12 26
-0.220967 0.0736855 0.0121436 0 0 0 16 9 16
-0.102246 0.0774724 -0.0299239 0 0 0 149 147 113
-0.0642246 0.0804668 0.018814 0 0 0 111 77 4
-0.111 0.0772827 0.0138187 0 0 0 98 76 34
-0.117057 0.0790045 -0.00713919 0 0 0 139 133 68
-0.116991 0.079186 -0.0083418 0 0 0 140 136 80
-0.182431 0.0744559 -0.0265003 0 0 0 123 99 46
-0.26849 0.0243404 0.0130684 0 0 0 42 33 22
-0.0666616 0.0792433 -0.00754577 0 0 0 129 102 4
-0.250528 0.0391413 -0.0595795 0 0 0 213 215 212
-0.249507 0.0414887 -0.0590408 0 0 0 213 217 214
