ply
format ascii 1.0
element vertex 79
property float x
property float y
property float z
property float nx
property float ny
property float nz
property uchar diffuse_red
property uchar diffuse_green
property uchar diffuse_blue
end_header
-0.101821 0.0749278 -0.0591352 0 0 0 223 229 246
-0.0467235 0.0750809 -0.0579987 0 0 0 254 254 254
-0.131542 0.0729955 -0.0624625 0 0 0 249 250 249
-0.143234 0.0703064 -0.0652007 0 0 0 232 238 249
-0.170098 0.0719073 -0.0614553 0 0 0 221 225 240
-0.244617 0.0596311 0.0212989 0 0 0 183 196 183
-0.267148 0.0239927 -0.0588887 0 0 0 190 194 189
-0.17517 0.072554 -0.0611265 0 0 0 219 226 240
-0.259907 0.0591924 -0.0151574 0 0 0 254 253 240
-0.259746 0.0279607 -0.00647551 0 0 0 238 245 100
-0.258751 0.0565712 -0.0361987 0 0 0 69 77 82
-0.219315 0.0677267 -0.0631224 0 0 0 240 241 243
-0.257465 0.0310156 -0.000291905 0 0 0 237 234 101
-0.219775 0.0688465 -0.0650803 0 0 0 240 241 243
-0.268856 0.024147 -0.0476147 0 0 0 14 13 14
-0.1393 0.0778314 -0.0280907 0 0 0 142 124 119
-0.221305 0.0718248 -0.036303 0 0 0 49 19 14
-0.24515 0.0531108 -0.0536129 0 0 0 141 147 167
-0.141514 0.0783881 -0.0110521 0 0 0 136 130 106
-0.260214 0.0552787 -0.0375601 0 0 0 69 78 81
-0.262011 0.0260751 -0.0258967 0 0 0 171 166 141
-0.262995 0.050906 -0.0341471 0 0 0 60 65 63
-0.239322 0.0612648 -0.0507047 0 0 0 93 64 69
-0.265285 0.0487113 -0.0183379 0 0 0 254 254 232
-0.159543 0.0779 0.00264251 0 0 0 130 111 88
-0.125694 0.0747478 -0.049778 0 0 0 54 48 45
-0.251223 0.0463496 0.00469773 0 0 0 228 237 62
-0.238666 0.0660467 -0.002421 0 0 0 34 33 31
-0.248468 0.0506157 0.00222527 0 0 0 230 224 119
-0.141908 0.074295 -0.0483443 0 0 0 47 42 34
-0.0787112 0.0737531 -0.061404 0 0 0 44 48 53
-0.0968975 0.0796325 0.00532497 0 0 0 21 15 11
-0.148517 0.0781714 0.0257545 0 0 0 126 114 60
-0.0789327 0.0793082 0.0162287 0 0 0 131 117 53
-0.143255 0.0735404 -0.0546016 0 0 0 44 36 25
-0.150491 0.0793574 0.0222476 0 0 0 130 118 68
-0.256885 0.0274827 -0.0492161 0 0 0 47 51 42
-0.203447 0.0694196 -0.0506448 0 0 0 105 42 10
-0.275001 0.0233055 -0.0101092 0 0 0 126 128 84
-0.238696 0.0637863 -0.0247584 0 0 0 171 138 31
-0.250692 0.0415189 -0.0618408 0 0 0 210 212 212
-0.239003 0.0598829 -0.063274 0 0 0 221 222 222
-0.152634 0.0735837 -0.047106 0 0 0 108 88 43
-0.0791501 0.0791204 -0.0159928 0 0 0 91 9 10
-0.254046 0.067678 -0.03167 0 0 0 65 67 67
-0.219472 0.0728346 -0.0116025 0 0 0 123 123 111
-0.267892 0.0241995 -0.0375375 0 0 0 19 14 18
-0.142395 0.0764746 -0.0308119 0 0 0 141 135 100
-0.111082 0.0768144 -0.0395146 0 0 0 148 145 123
-0.126215 0.0790771 -0.0253257 0 0 0 132 89 60
-0.13466 0.0791936 -0.00831831 0 0 0 144 141 121
-0.211296 0.0743332 -0.0021768 0 0 0 88 97 5
-0.223287 0.0749383 0.0019035 0 0 0 90 92 70
-0.167565 0.0797746 0.0201349 0 0 0 135 129 103
-0.131778 0.0799457 0.0149711 0 0 0 52 44 55
-0.0527891 0.0766038 -0.0467613 0 0 0 49 49 50
-0.167048 0.0786906 0.0223292 0 0 0 133 125 95
-0.0762936 0.0807205 -0.00272219 0 0 0 126 100 14
-0.204972 0.0724699 -0.0226275 0 0 0 66 74 8
-0.0586979 0.0771589 -0.0226775 0 0 0 117 82 2
-0.137349 0.0777785 -0.0378466 0 0 0 134 119 89
-0.0218493 0.0788803 -0.0179006 0 0 0 54 55 51
-0.0231382 0.0807469 -0.0216383 0 0 0 75 64 54
-0.220889 0.0750824 0.0108322 0 0 0 15 12 16
-0.055867 0.0819154 0.00202662 0 0 0 69 16 12
-0.260019 0.0292452 0.0237095 0 0 0 47 51 54
-0.101876 0.077947 -0.0304763 0 0 0 146 147 119
-0.0627438 0.0793165 0.0196274 0 0 0 112 78 4
-0.0416888 0.078683 -0.0275965 0 0 0 27 18 8
-0.0426358 0.077786 -0.027788 0 0 0 34 16 13
-0.214183 0.0776 0.00826099 0 0 0 24 58 25
-0.117525 0.0803552 -0.00767785 0 0 0 141 133 70
-0.1821 0.075475 -0.0275633 0 0 0 123 99 53
-0.268745 0.0260577 0.0116018 0 0 0 43 33 21
-0.252161 0.0441383 0.0196939 0 0 0 81 82 84
-0.110914 0.0779529 0.013209 0 0 0 98 78 27
-0.11745 0.0805323 -0.00887868 0 0 0 143 135 80
-0.241444 0.06276 0.00454358 0 0 0 28 32 9
-0.168002 0.0754135 -0.0145531 0 0 0 131 114 75
