ply
format ascii 1.0
element vertex 72
property float x
property float y
property float z
property float nx
property float ny
property float nz
property uchar diffuse_red
property uchar diffuse_green
property uchar diffuse_blue
end_header
-0.100342 0.0746209 -0.0589452 0 0 0 228 234 244
-0.0468469 0.0746915 -0.0578516 0 0 0 254 254 254
-0.244644 0.0592222 0.0216825 0 0 0 185 199 181
-0.17022 0.0713473 -0.0611798 0 0 0 221 224 239
-0.175935 0.072743 -0.0606409 0 0 0 217 225 237
-0.267994 0.0225646 -0.058533 0 0 0 186 191 186
-0.260018 0.0258282 -0.00626214 0 0 0 240 236 102
-0.261818 0.0532228 -0.0374514 0 0 0 68 74 75
-0.268903 0.0235004 -0.0471011 0 0 0 14 13 18
-0.139398 0.0774113 -0.0278628 0 0 0 140 130 108
-0.229607 0.0684445 -0.0631889 0 0 0 232 234 235
-0.259528 0.0553985 -0.0369965 0 0 0 73 78 81
-0.222851 0.0711736 -0.0348784 0 0 0 54 20 12
-0.243898 0.0523854 -0.05326 0 0 0 141 159 176
-0.256326 0.0341814 0.00304427 0 0 0 236 226 44
-0.258262 0.0297782 3.36702e-05 0 0 0 248 244 91
-0.142277 0.0787418 -0.0107021 0 0 0 134 129 100
-0.220821 0.0671448 -0.0627238 0 0 0 240 241 240
-0.239421 0.0606471 -0.0503307 0 0 0 93 69 66
-0.238145 0.0647509 -0.00218112 0 0 0 33 31 31
-0.125809 0.0742804 -0.0495539 0 0 0 53 48 31
-0.156638 0.0764486 0.000441354 0 0 0 133 117 83
-0.265628 0.0464159 -0.0171469 0 0 0 254 254 217
-0.247877 0.0494547 0.00145819 0 0 0 242 235 80
-0.250607 0.0495183 0.00244195 0 0 0 233 227 51
-0.142021 0.0738108 -0.0481032 0 0 0 44 38 39
-0.263778 0.046524 -0.0301425 0 0 0 76 75 77
-0.2411 0.0621263 -0.00492249 0 0 0 86 87 3
-0.0779303 0.0803218 0.0140732 0 0 0 129 117 54
-0.143372 0.0730358 -0.0543569 0 0 0 43 33 28
-0.0969659 0.0793676 0.00550646 0 0 0 21 15 10
-0.251343 0.0446024 0.00272056 0 0 0 218 202 23
-0.14606 0.079103 0.0239374 0 0 0 126 111 62
-0.260265 0.0243514 -0.0244586 0 0 0 182 185 178
-0.205083 0.0686397 -0.0652298 0 0 0 239 242 247
-0.147438 0.0793701 0.0215168 0 0 0 127 116 69
-0.256408 0.0259823 -0.0489194 0 0 0 46 49 64
-0.206634 0.0683403 -0.0629535 0 0 0 245 247 248
-0.203556 0.0688486 -0.0503298 0 0 0 106 47 11
-0.220283 0.0728472 -0.00899472 0 0 0 107 90 79
-0.241652 0.0673634 -0.0236046 0 0 0 171 138 57
-0.25023 0.0400054 -0.0616156 0 0 0 210 214 211
-0.166508 0.0774721 0.0236481 0 0 0 131 123 87
-0.0792383 0.0788146 -0.0158268 0 0 0 90 6 13
-0.142494 0.0760423 -0.0305769 0 0 0 140 133 99
-0.131838 0.0796643 0.0151852 0 0 0 51 40 43
-0.113473 0.0769627 -0.0391633 0 0 0 145 145 113
-0.12562 0.0779702 -0.0252563 0 0 0 129 88 65
-0.134741 0.0788388 -0.00809905 0 0 0 142 140 124
-0.267413 0.0227052 -0.0372021 0 0 0 19 16 11
-0.0529036 0.0762402 -0.046613 0 0 0 47 47 54
-0.0245205 0.078818 -0.0164199 0 0 0 63 54 49
-0.20444 0.0711965 -0.0224698 0 0 0 70 73 5
-0.05879 0.0768597 -0.0225253 0 0 0 115 81 6
-0.255932 0.026108 -0.0613718 0 0 0 200 204 202
-0.137457 0.0773318 -0.0376204 0 0 0 131 122 84
-0.258972 0.0311836 0.024581 0 0 0 48 49 50
-0.0544416 0.0803728 0.00197652 0 0 0 68 13 20
-0.0429271 0.075939 -0.027975 0 0 0 40 13 10
-0.102688 0.0782625 -0.0301387 0 0 0 143 145 113
-0.064209 0.0806584 0.0186438 0 0 0 111 78 3
-0.110973 0.0776933 0.013409 0 0 0 97 76 36
-0.25272 0.0445696 0.0202102 0 0 0 81 83 80
-0.0953642 0.0796273 -0.0120945 0 0 0 117 83 6
-0.0657673 0.0786174 -0.00782904 0 0 0 127 102 6
-0.224975 0.0762544 0.0122833 0 0 0 12 12 13
-0.117607 0.0800245 -0.00747859 0 0 0 139 132 64
-0.182194 0.0750008 -0.0272871 0 0 0 124 98 48
-0.24072 0.0630367 0.00506786 0 0 0 53 55 41
-0.267698 0.023822 0.0119239 0 0 0 42 35 8
-0.117533 0.0801981 -0.00868001 0 0 0 140 135 73
-0.193504 0.074447 -0.0182835 0 0 0 130 125 76
