ply
format ascii 1.0
element vertex 73
property float x
property float y
property float z
property float nx
property float ny
property float nz
property uchar diffuse_red
property uchar diffuse_green
property uchar diffuse_blue
end_header
-0.0475247 0.0751469 -0.0577463 0 0 0 254 254 254
-0.101176 0.0737617 -0.0591651 0 0 0 222 227 244
-0.131536 0.0727643 -0.0634521 0 0 0 242 242 246
-0.244017 0.0587613 0.0216254 0 0 0 186 197 190
-0.174597 0.0714922 -0.0610568 0 0 0 214 221 238
-0.261238 0.0592797 -0.0147331 0 0 0 253 253 240
-0.268113 0.0231532 -0.0585555 0 0 0 188 192 187
-0.259302 0.0270519 -0.0061268 0 0 0 239 244 100
-0.258815 0.0564911 -0.0357669 0 0 0 71 77 82
-0.265702 0.0467762 -0.0160783 0 0 0 254 252 229
-0.25753 0.030983 0.000173674 0 0 0 240 235 85
-0.269011 0.024074 -0.0471216 0 0 0 14 13 6
-0.267776 0.0237802 -0.046074 0 0 0 15 15 13
-0.140161 0.0766823 -0.0280463 0 0 0 138 127 101
-0.222782 0.0715628 -0.0348509 0 0 0 51 18 11
-0.26006 0.0567731 -0.0367879 0 0 0 73 78 83
-0.215087 0.0687672 -0.0614813 0 0 0 243 243 245
-0.243907 0.0528792 -0.0532496 0 0 0 142 156 175
-0.125738 0.0743461 -0.04958 0 0 0 54 48 43
-0.239398 0.0611202 -0.0503099 0 0 0 91 68 69
-0.159568 0.0774811 0.00403752 0 0 0 127 102 75
-0.264263 0.0480682 -0.031015 0 0 0 66 61 67
-0.238655 0.0659683 -0.00203404 0 0 0 33 34 36
-0.140608 0.0724746 -0.0484834 0 0 0 45 43 33
-0.0787866 0.079075 0.0150969 0 0 0 131 117 57
-0.252325 0.0438276 0.00578776 0 0 0 230 228 67
-0.261017 0.0244274 -0.0268253 0 0 0 181 184 150
-0.143309 0.0731719 -0.0543744 0 0 0 43 35 13
-0.0946973 0.077161 0.00519239 0 0 0 22 13 11
-0.150936 0.076737 0.0280291 0 0 0 130 120 64
-0.242337 0.0543599 -0.0529373 0 0 0 151 164 182
-0.257285 0.0335733 0.00503851 0 0 0 191 193 57
-0.257035 0.0273803 -0.0487464 0 0 0 45 52 72
-0.0796122 0.0755514 -0.0333445 0 0 0 60 41 41
-0.203504 0.0691935 -0.0503176 0 0 0 102 42 13
-0.238152 0.0628516 -0.0245275 0 0 0 170 137 58
-0.152677 0.073247 -0.0468642 0 0 0 107 87 36
-0.0164932 0.0783322 -0.0233054 0 0 0 29 39 44
-0.221871 0.074762 0.00229672 0 0 0 117 112 85
-0.0791315 0.0786601 -0.0158739 0 0 0 91 10 11
-0.142405 0.0761374 -0.0305902 0 0 0 139 134 105
-0.0214272 0.0792564 -0.0245161 0 0 0 62 60 52
-0.219394 0.072857 -0.0123341 0 0 0 128 121 105
-0.126211 0.0787108 -0.025133 0 0 0 127 89 53
-0.111804 0.0770973 -0.0391796 0 0 0 146 144 123
-0.252262 0.0664845 -0.0304135 0 0 0 66 66 57
-0.268031 0.0241385 -0.0370459 0 0 0 19 17 11
-0.134629 0.0788703 -0.00811259 0 0 0 141 141 117
-0.131709 0.0796485 0.0151712 0 0 0 51 41 33
-0.141304 0.078307 0.0204888 0 0 0 125 120 73
-0.275243 0.0219836 -0.0120439 0 0 0 133 127 82
-0.246098 0.0500234 -0.0605684 0 0 0 216 219 216
-0.16707 0.0771182 0.0212124 0 0 0 132 125 91
-0.113481 0.0784936 0.0220595 0 0 0 103 101 49
-0.237534 0.0611981 -0.062566 0 0 0 222 223 222
-0.204364 0.0715002 -0.0224534 0 0 0 67 74 5
-0.0586943 0.0766427 -0.0225878 0 0 0 116 81 4
-0.214486 0.0722087 -0.0145821 0 0 0 125 116 37
-0.137368 0.07742 -0.0376346 0 0 0 131 121 90
-0.0543187 0.0801012 0.00191694 0 0 0 67 15 21
-0.251934 0.045712 0.0203681 0 0 0 86 87 87
-0.0435882 0.076331 -0.027913 0 0 0 40 13 8
-0.260965 0.0272072 0.0216298 0 0 0 50 57 53
-0.0633331 0.0797247 0.0185201 0 0 0 111 78 3
-0.222709 0.0772336 0.0125336 0 0 0 10 12 14
-0.210437 0.0728138 -0.00877885 0 0 0 84 85 8
-0.102591 0.0782146 -0.0301724 0 0 0 143 147 111
-0.116791 0.079286 -0.00761577 0 0 0 142 131 63
-0.0657344 0.0782166 -0.00661382 0 0 0 129 100 12
-0.18147 0.0744696 -0.0274339 0 0 0 122 99 45
-0.11226 0.0790179 0.013543 0 0 0 99 77 28
-0.116718 0.0794615 -0.00881883 0 0 0 141 134 77
-0.270882 0.0254796 0.0118758 0 0 0 15 13 23
