ply
format ascii 1.0
element vertex 70
property float x
property float y
property float z
property float nx
property float ny
property float nz
property uchar diffuse_red
property uchar diffuse_green
property uchar diffuse_blue
end_header
-0.100893 0.0747637 -0.0595676 0 0 0 220 229 244
-0.0464134 0.0753418 -0.0594143 0 0 0 254 254 254
-0.244149 0.0606229 0.0206421 0 0 0 184 198 181
-0.260748 0.0602534 -0.0148841 0 0 0 252 250 216
-0.175591 0.0744726 -0.0613423 0 0 0 219 224 239
-0.267347 0.025936 -0.0594878 0 0 0 189 194 187
-0.260041 0.0298951 -0.00706058 0 0 0 237 244 102
-0.169888 0.073022 -0.0618645 0 0 0 219 221 238
-0.218546 0.0684543 -0.0638679 0 0 0 239 241 241
-0.218401 0.0687734 -0.0660553 0 0 0 239 240 241
-0.269082 0.0261165 -0.0482181 0 0 0 14 14 13
-0.257749 0.0329369 -0.000874481 0 0 0 239 234 91
-0.267852 0.0258146 -0.0471658 0 0 0 15 13 8
-0.139201 0.0785468 -0.0272521 0 0 0 139 126 115
-0.221946 0.0726637 -0.0369978 0 0 0 54 20 8
-0.244564 0.0540318 -0.0543936 0 0 0 139 143 164
-0.141373 0.0793118 -0.0113978 0 0 0 135 129 100
-0.265514 0.0503727 -0.0168528 0 0 0 254 253 246
-0.25943 0.0579015 -0.0380182 0 0 0 73 80 81
-0.260514 0.0268386 -0.0255446 0 0 0 180 184 181
-0.239227 0.0629789 -0.0512731 0 0 0 92 65 61
-0.12549 0.0754973 -0.0500811 0 0 0 54 46 37
-0.158781 0.0782427 0.00215188 0 0 0 129 111 87
-0.249141 0.0533125 0.00175458 0 0 0 229 221 111
-0.263026 0.0528386 -0.0347632 0 0 0 60 64 64
-0.0778565 0.0807628 0.0149708 0 0 0 129 117 49
-0.264778 0.0509397 -0.0319124 0 0 0 67 64 79
-0.141711 0.0751837 -0.0486867 0 0 0 46 40 39
-0.0967881 0.0801941 0.00508746 0 0 0 20 16 13
-0.143049 0.0744342 -0.0549465 0 0 0 44 34 15
-0.238647 0.0678049 -0.00299282 0 0 0 31 34 31
-0.0784892 0.0740916 -0.0615907 0 0 0 44 49 55
-0.148238 0.0797 0.0219133 0 0 0 127 111 58
-0.257079 0.0293487 -0.0497935 0 0 0 48 51 54
-0.203283 0.0708288 -0.0511334 0 0 0 103 42 9
-0.276252 0.0243213 -0.00873964 0 0 0 134 126 79
-0.23921 0.0663503 -0.0251707 0 0 0 170 138 46
-0.219446 0.0742626 -0.0110554 0 0 0 116 104 98
-0.0789936 0.0795093 -0.0161862 0 0 0 90 9 10
-0.253941 0.0695366 -0.0322811 0 0 0 64 65 77
-0.22221 0.0777669 -0.00168918 0 0 0 122 123 100
-0.0220749 0.0813641 -0.0201749 0 0 0 52 65 47
-0.142222 0.0773854 -0.0311578 0 0 0 140 134 106
-0.112471 0.0773292 -0.0398036 0 0 0 146 144 117
-0.125348 0.0791375 -0.0257757 0 0 0 133 89 55
-0.13452 0.0800619 -0.00864804 0 0 0 143 140 121
-0.132373 0.0815385 0.0147262 0 0 0 52 42 52
-0.267633 0.0252874 -0.0383157 0 0 0 19 15 10
-0.0525798 0.0767371 -0.0468873 0 0 0 49 48 50
-0.166407 0.0789443 0.0229876 0 0 0 132 122 90
-0.0762392 0.0809159 -0.00165675 0 0 0 127 102 32
-0.237879 0.0638753 -0.063299 0 0 0 221 222 223
-0.204241 0.0731307 -0.0232719 0 0 0 66 73 4
-0.0585425 0.0773672 -0.0228186 0 0 0 116 82 3
-0.137823 0.0793666 -0.0380189 0 0 0 132 122 86
-0.0533065 0.0816634 0.00189442 0 0 0 57 12 17
-0.22347 0.0782391 0.0114855 0 0 0 12 12 11
-0.102398 0.0792148 -0.0305791 0 0 0 145 146 115
-0.233942 0.0778456 0.0129932 0 0 0 11 11 11
-0.0434174 0.0769635 -0.0280832 0 0 0 41 14 10
-0.0241721 0.0782588 -0.0399968 0 0 0 55 56 67
-0.112237 0.0800625 0.0130974 0 0 0 99 77 31
-0.252925 0.0468946 0.0191898 0 0 0 81 83 84
-0.0641494 0.0809535 0.0196058 0 0 0 111 80 2
-0.181942 0.0767264 -0.0280056 0 0 0 124 94 53
-0.117377 0.0810786 -0.00796669 0 0 0 140 133 68
-0.0663705 0.0796554 -0.00676764 0 0 0 129 102 12
-0.270396 0.028244 0.0109305 0 0 0 26 20 23
-0.117297 0.0812537 -0.0091675 0 0 0 141 135 77
-0.168524 0.0773145 -0.0148309 0 0 0 130 114 82
