ply
format ascii 1.0
element vertex 75
property float x
property float y
property float z
property float nx
property float ny
property float nz
property uchar diffuse_red
property uchar diffuse_green
property uchar diffuse_blue
end_header
-0.0473065 0.0759152 -0.0579405 0 0 0 254 254 254
-0.10096 0.0751809 -0.0596943 0 0 0 219 226 246
-0.245034 0.0629114 0.0202957 0 0 0 187 198 186
-0.169959 0.0738461 -0.0621431 0 0 0 218 220 238
-0.261463 0.062729 -0.0162449 0 0 0 253 253 235
-0.175102 0.0744033 -0.0606976 0 0 0 216 223 238
-0.268503 0.0266102 -0.0600475 0 0 0 188 191 187
-0.26049 0.0313748 -0.00745129 0 0 0 238 245 100
-0.258942 0.0598733 -0.0372583 0 0 0 70 79 82
-0.258194 0.0344161 -0.0012665 0 0 0 239 235 103
-0.269461 0.0275624 -0.048621 0 0 0 12 14 13
-0.268236 0.0272555 -0.0475653 0 0 0 12 13 13
-0.256735 0.0396573 0.00185858 0 0 0 235 222 37
-0.265099 0.0483824 -0.0168219 0 0 0 253 253 240
-0.139235 0.0794304 -0.0286518 0 0 0 138 128 109
-0.221279 0.0745836 -0.037233 0 0 0 49 18 14
-0.219808 0.0711796 -0.0638131 0 0 0 239 241 242
-0.24397 0.0560488 -0.0546406 0 0 0 145 161 171
-0.260178 0.0601686 -0.0382875 0 0 0 72 78 83
-0.14219 0.0808096 -0.0115079 0 0 0 133 128 107
-0.126251 0.0768058 -0.0500897 0 0 0 53 47 29
-0.248686 0.0554689 0.0014969 0 0 0 193 200 101
-0.23938 0.0642394 -0.0516868 0 0 0 91 61 62
-0.23888 0.0691649 -0.00341566 0 0 0 34 31 34
-0.226053 0.0708972 -0.0648307 0 0 0 233 234 236
-0.159698 0.0797247 0.00313335 0 0 0 130 103 82
-0.264522 0.0515259 -0.0325263 0 0 0 67 63 71
-0.141799 0.0758677 -0.0489064 0 0 0 46 39 36
-0.0780552 0.0812015 0.0148829 0 0 0 129 116 44
-0.252542 0.0489482 0.00354619 0 0 0 230 228 33
-0.14027 0.0737025 -0.0555499 0 0 0 46 43 22
-0.0969678 0.0807246 0.00495818 0 0 0 20 15 8
-0.0869322 0.0775859 -0.0452026 0 0 0 39 43 43
-0.0785562 0.074371 -0.0616655 0 0 0 40 48 54
-0.261667 0.0276984 -0.0271836 0 0 0 171 169 146
-0.148698 0.0800748 0.0251479 0 0 0 126 112 63
-0.148457 0.0805735 0.0216689 0 0 0 126 110 69
-0.257436 0.0307197 -0.0501762 0 0 0 46 50 77
-0.221869 0.0780685 -0.00113718 0 0 0 124 120 109
-0.203391 0.071875 -0.0514827 0 0 0 103 42 11
-0.23771 0.0651696 -0.0260544 0 0 0 171 138 42
-0.206251 0.0717301 -0.0663377 0 0 0 241 245 246
-0.15254 0.0753155 -0.0477167 0 0 0 107 88 30
-0.07913 0.0798883 -0.0162738 0 0 0 91 8 12
-0.26804 0.0267459 -0.0387136 0 0 0 19 16 13
-0.131885 0.0815726 0.0144382 0 0 0 52 35 46
-0.142336 0.0781099 -0.0313834 0 0 0 138 135 102
-0.113257 0.0785712 -0.0398045 0 0 0 145 145 115
-0.253403 0.0714826 -0.0315444 0 0 0 66 58 65
-0.125464 0.0797727 -0.025967 0 0 0 129 88 63
-0.275942 0.0266215 -0.00899612 0 0 0 129 129 88
-0.134669 0.0807883 -0.00886206 0 0 0 141 140 121
-0.0221004 0.081585 -0.0214631 0 0 0 53 65 49
-0.204397 0.0742421 -0.0236284 0 0 0 69 73 5
-0.0763998 0.0813095 -0.0017412 0 0 0 127 101 12
-0.0587663 0.0774261 -0.0215718 0 0 0 117 80 3
-0.13724 0.0793183 -0.0383982 0 0 0 131 121 84
-0.252545 0.0491121 0.0189374 0 0 0 87 87 88
-0.0527542 0.0767075 -0.0456144 0 0 0 45 49 52
-0.260145 0.0374345 0.024485 0 0 0 44 49 55
-0.0527297 0.0812567 0.00177209 0 0 0 56 11 19
-0.0242636 0.0782599 -0.039958 0 0 0 56 58 61
-0.0275515 0.0814386 0.00280956 0 0 0 54 51 58
-0.102503 0.0797028 -0.0307188 0 0 0 143 147 112
-0.0416251 0.0788726 -0.0276987 0 0 0 29 21 16
-0.225121 0.0794772 0.0120705 0 0 0 11 11 10
-0.0543889 0.0755095 -0.0498829 0 0 0 36 36 30
-0.0648972 0.0835358 0.019861 0 0 0 109 76 2
-0.114711 0.0813167 0.0129078 0 0 0 92 76 28
-0.11683 0.0809876 -0.00825377 0 0 0 138 131 68
-0.182067 0.0776946 -0.0283194 0 0 0 123 98 61
-0.116747 0.08116 -0.00945665 0 0 0 140 134 78
-0.241738 0.0659408 0.0035459 0 0 0 29 29 16
-0.270895 0.0298238 0.0105198 0 0 0 23 17 13
-0.0657976 0.0792983 -0.00692891 0 0 0 126 100 20
