ply
format ascii 1.0
element vertex 80
property float x
property float y
property float z
property float nx
property float ny
property float nz
property uchar diffuse_red
property uchar diffuse_green
property uchar diffuse_blue
end_header
-0.100779 0.0749454 -0.0598484 0 0 0 225 229 244
-0.130445 0.0734918 -0.0645365 0 0 0 246 245 248
-0.0421555 0.0751591 -0.0596826 0 0 0 254 254 254
-0.244848 0.0621385 0.020066 0 0 0 187 199 178
-0.169771 0.0733942 -0.0623288 0 0 0 221 225 240
-0.260568 0.062499 -0.0152835 0 0 0 253 252 221
-0.267368 0.0265837 -0.0601617 0 0 0 191 195 189
-0.174837 0.0740988 -0.0620275 0 0 0 217 224 238
-0.13905 0.0722644 -0.0646126 0 0 0 81 72 97
-0.264955 0.051474 -0.0152875 0 0 0 254 254 253
-0.261063 0.0296854 -0.0067953 0 0 0 228 225 94
-0.269133 0.0267816 -0.048897 0 0 0 12 14 19
-0.219612 0.0705714 -0.0640234 0 0 0 239 241 242
-0.267907 0.0264775 -0.047841 0 0 0 12 12 16
-0.13908 0.0790423 -0.0288185 0 0 0 144 124 101
-0.221897 0.0732093 -0.0376017 0 0 0 53 21 13
-0.258702 0.0328861 -0.00169233 0 0 0 249 245 87
-0.143575 0.0803341 -0.0117306 0 0 0 138 132 98
-0.24452 0.0546213 -0.0550376 0 0 0 141 143 165
-0.264276 0.0507444 -0.0327759 0 0 0 65 63 66
-0.256995 0.0356558 0.00106713 0 0 0 242 237 72
-0.125399 0.0757586 -0.0504289 0 0 0 55 49 44
-0.159479 0.0794057 0.00180984 0 0 0 130 110 84
-0.24808 0.0524291 -0.00018657 0 0 0 244 235 86
-0.239166 0.063557 -0.0519127 0 0 0 92 64 68
-0.0771997 0.0802767 0.0146738 0 0 0 131 119 40
-0.260962 0.05712 -0.0390203 0 0 0 72 77 77
-0.263038 0.0535017 -0.0354555 0 0 0 63 63 68
-0.141624 0.0754918 -0.0490777 0 0 0 46 39 37
-0.239346 0.0691127 -0.00246037 0 0 0 38 35 40
-0.142947 0.0747391 -0.0553403 0 0 0 47 36 16
-0.0939064 0.077814 0.00322656 0 0 0 23 16 13
-0.241669 0.0658549 -0.00639321 0 0 0 84 86 2
-0.257117 0.0299785 -0.0504437 0 0 0 48 48 74
-0.249905 0.0732251 -0.0236908 0 0 0 191 209 186
-0.150511 0.0808031 0.0214582 0 0 0 131 116 71
-0.251148 0.046606 0.00201838 0 0 0 224 214 25
-0.261694 0.061036 -0.0102244 0 0 0 254 254 239
-0.203202 0.0713065 -0.051685 0 0 0 106 42 10
-0.250165 0.0430622 -0.0632821 0 0 0 211 213 212
-0.220845 0.0749047 -0.0116868 0 0 0 117 119 92
-0.152364 0.0749043 -0.0478933 0 0 0 108 88 40
-0.0224687 0.0782683 -0.020881 0 0 0 60 57 53
-0.0789823 0.0796784 -0.0164136 0 0 0 91 8 8
-0.112402 0.0775655 -0.0401184 0 0 0 149 145 115
-0.142176 0.0777147 -0.0315527 0 0 0 140 135 108
-0.267713 0.0259596 -0.0389897 0 0 0 23 14 9
-0.134527 0.0803947 -0.00902533 0 0 0 143 142 122
-0.125312 0.0794255 -0.0261272 0 0 0 132 89 56
-0.131756 0.0811644 0.0142769 0 0 0 51 40 55
-0.254055 0.0687752 -0.0343393 0 0 0 70 69 73
-0.0921129 0.0795494 0.020077 0 0 0 130 112 37
-0.253986 0.0700262 -0.0319246 0 0 0 53 54 54
-0.0524042 0.0769852 -0.0483353 0 0 0 42 49 39
-0.204227 0.0736422 -0.0238289 0 0 0 68 76 4
-0.0747239 0.0799061 -0.00332704 0 0 0 127 101 29
-0.0585196 0.0774717 -0.0229887 0 0 0 119 81 4
-0.13708 0.0789464 -0.038564 0 0 0 133 119 86
-0.0509085 0.0813177 0.00174859 0 0 0 50 13 19
-0.223873 0.0790432 0.00431925 0 0 0 56 59 39
-0.237262 0.0669975 -0.0378854 0 0 0 170 143 5
-0.238947 0.0618331 -0.0623237 0 0 0 221 222 222
-0.237682 0.0681335 -0.0398446 0 0 0 167 144 4
-0.0641424 0.0813042 0.0181499 0 0 0 112 77 5
-0.0414693 0.0787931 -0.0278231 0 0 0 28 20 16
-0.112303 0.0803573 0.0127799 0 0 0 102 77 40
-0.199724 0.0787679 -0.00011422 0 0 0 102 84 58
-0.0433815 0.0770198 -0.0282121 0 0 0 39 16 11
-0.0953753 0.0801569 -0.0090867 0 0 0 116 84 1
-0.101646 0.0787303 -0.0310115 0 0 0 146 148 113
-0.253098 0.0475899 0.018531 0 0 0 81 82 87
-0.273403 0.026656 -0.0112298 0 0 0 69 77 55
-0.268833 0.0265883 -0.0254901 0 0 0 29 18 25
-0.199496 0.0792439 -0.00340652 0 0 0 106 90 71
-0.181274 0.0764013 -0.0286577 0 0 0 125 98 89
-0.259255 0.02738 -0.0431016 0 0 0 140 139 158
-0.116606 0.0808239 -0.0096117 0 0 0 142 135 76
-0.193975 0.0773711 -0.0183262 0 0 0 130 126 81
-0.0662962 0.0799831 -0.00822978 0 0 0 128 100 7
-0.168522 0.0777355 -0.0152965 0 0 0 131 114 71
