ply
format ascii 1.0
element vertex 78
property float x
property float y
property float z
property float nx
property float ny
property float nz
property uchar diffuse_red
property uchar diffuse_green
property uchar diffuse_blue
end_header
-0.0988299 0.0742754 -0.0599614 0 0 0 223 229 238
-0.262681 0.0595085 -0.0144217 0 0 0 247 251 226
-0.267788 0.0266975 -0.0596981 0 0 0 186 193 191
-0.170135 0.0733786 -0.0621086 0 0 0 215 221 240
-0.244497 0.0614508 0.0203762 0 0 0 176 191 180
-0.174567 0.0733265 -0.0620021 0 0 0 213 222 242
-0.261369 0.0298389 -0.00634764 0 0 0 220 222 104
-0.257159 0.0658858 -0.0120133 0 0 0 253 252 252
-0.260644 0.0304205 -0.0051015 0 0 0 225 234 110
-0.258817 0.060806 -0.0367483 0 0 0 65 76 81
-0.269529 0.0269078 -0.0484299 0 0 0 11 13 14
-0.258197 0.0337774 -0.00109303 0 0 0 233 232 93
-0.219908 0.0707758 -0.0647881 0 0 0 235 239 242
-0.220642 0.0712695 -0.0623918 0 0 0 235 239 243
-0.244101 0.0554423 -0.0544878 0 0 0 138 155 170
-0.265284 0.050494 -0.0183082 0 0 0 254 253 227
-0.22287 0.0739379 -0.0360213 0 0 0 52 20 14
-0.138696 0.0782841 -0.0288123 0 0 0 137 125 108
-0.263901 0.0544961 -0.0348512 0 0 0 57 63 61
-0.261131 0.058666 -0.0372117 0 0 0 65 75 75
-0.261113 0.0263331 -0.0282533 0 0 0 174 178 148
-0.251778 0.0490469 0.00386955 0 0 0 226 233 66
-0.238733 0.0643699 -0.0513828 0 0 0 94 66 35
-0.141626 0.0796534 -0.0116369 0 0 0 128 121 94
-0.233281 0.069196 -0.0647696 0 0 0 221 226 225
-0.126413 0.0764186 -0.050126 0 0 0 50 46 32
-0.0787327 0.0740741 -0.0617795 0 0 0 39 50 56
-0.141957 0.0754514 -0.0489175 0 0 0 43 36 28
-0.0977567 0.0810876 0.00496303 0 0 0 19 15 8
-0.141099 0.0740257 -0.0553768 0 0 0 43 41 37
-0.0767555 0.0793416 0.0158786 0 0 0 123 110 39
-0.158202 0.0794641 0.00207314 0 0 0 119 90 69
-0.238813 0.0699615 -0.00193721 0 0 0 42 46 18
-0.257154 0.0371069 0.00392753 0 0 0 202 221 72
-0.219456 0.0756486 -0.000117335 0 0 0 122 117 92
-0.257512 0.0300877 -0.0500043 0 0 0 40 45 43
-0.177455 0.0794697 0.0162527 0 0 0 121 96 67
-0.147658 0.0809245 0.0218395 0 0 0 119 104 57
-0.202126 0.0713067 -0.051424 0 0 0 95 38 5
-0.210816 0.0720856 -0.0601948 0 0 0 241 243 244
-0.238942 0.0662342 -0.0256002 0 0 0 166 140 50
-0.251375 0.0748753 -0.0219563 0 0 0 181 180 174
-0.244326 0.0517994 -0.0631699 0 0 0 211 217 221
-0.131164 0.0818 0.0157655 0 0 0 42 38 36
-0.25422 0.0702976 -0.0325711 0 0 0 62 64 69
-0.0778017 0.0782099 -0.0166232 0 0 0 87 9 8
-0.181655 0.0777578 0.0226354 0 0 0 106 90 62
-0.141804 0.0769548 -0.0315435 0 0 0 134 130 103
-0.219573 0.0752349 -0.0134911 0 0 0 124 118 107
-0.134851 0.0802115 -0.00770382 0 0 0 135 133 116
-0.111129 0.0776096 -0.0399999 0 0 0 142 140 118
-0.26809 0.0260928 -0.0385249 0 0 0 17 15 10
-0.25038 0.0445877 -0.061406 0 0 0 206 212 214
-0.167103 0.0807056 0.0193934 0 0 0 125 114 89
-0.125593 0.0793844 -0.0260042 0 0 0 125 86 54
-0.0749574 0.0798194 -0.00330884 0 0 0 121 97 6
-0.0242069 0.0805474 -9.23694e-05 0 0 0 38 44 51
-0.0520857 0.0759729 -0.0472244 0 0 0 45 46 50
-0.205117 0.0744991 -0.023391 0 0 0 68 73 6
-0.0588834 0.077162 -0.0217178 0 0 0 112 78 5
-0.136044 0.0774485 -0.0387375 0 0 0 126 117 90
-0.223813 0.0788106 0.0122628 0 0 0 12 12 10
-0.26053 0.0297714 0.0215236 0 0 0 42 50 50
-0.0544996 0.0808006 0.00151755 0 0 0 66 13 22
-0.0303919 0.0768018 -0.0431486 0 0 0 51 47 56
-0.238869 0.065028 -0.0612002 0 0 0 217 223 226
-0.210707 0.0749488 -0.00880386 0 0 0 95 72 18
-0.102639 0.0793579 -0.0307934 0 0 0 139 140 115
-0.0635944 0.0805449 0.0180791 0 0 0 106 72 3
-0.11624 0.0798983 -0.00841574 0 0 0 133 128 68
-0.182271 0.0770392 -0.027139 0 0 0 121 95 79
-0.113977 0.0815884 0.014233 0 0 0 93 72 26
-0.116159 0.0800713 -0.00962061 0 0 0 134 130 78
-0.0644328 0.0776604 -0.00726931 0 0 0 123 95 8
-0.270871 0.0291602 0.0107134 0 0 0 19 13 11
-0.192807 0.0773995 -0.0180332 0 0 0 129 122 81
-0.168216 0.0768377 -0.0140681 0 0 0 120 99 63
-0.252789 0.0468935 0.0188694 0 0 0 72 79 91
