ply
format ascii 1.0
element vertex 82
property float x
property float y
property float z
property float nx
property float ny
property float nz
property uchar diffuse_red
property uchar diffuse_green
property uchar diffuse_blue
end_header
-0.101962 0.0748397 -0.0587774 0 0 0 223 230 243
-0.0401885 0.0743322 -0.0594123 0 0 0 254 254 254
-0.130949 0.0724867 -0.0634322 0 0 0 244 244 248
-0.0401885 0.0743322 -0.0594123 0 0 0 254 254 254
-0.170257 0.072127 -0.0609294 0 0 0 219 224 239
-0.244701 0.0602533 0.0230914 0 0 0 184 192 173
-0.173853 0.0728231 -0.0606347 0 0 0 214 221 233
-0.26084 0.0590775 -0.0134924 0 0 0 252 250 211
-0.260501 0.0296084 -0.00550162 0 0 0 239 244 102
-0.244846 0.0588398 0.0218006 0 0 0 169 183 160
-0.268313 0.0239202 -0.058167 0 0 0 188 191 187
-0.139547 0.0712017 -0.0634433 0 0 0 82 72 107
-0.259527 0.0579626 -0.0341928 0 0 0 67 75 77
-0.2692 0.0248566 -0.0467334 0 0 0 14 14 19
-0.25793 0.0301807 0.000275188 0 0 0 248 244 87
-0.140888 0.077917 -0.0276717 0 0 0 137 128 108
-0.222852 0.0722526 -0.0345552 0 0 0 53 19 10
-0.213188 0.0685671 -0.0614675 0 0 0 242 243 245
-0.256491 0.0354427 0.00339881 0 0 0 236 228 42
-0.151722 0.0769131 -0.00755214 0 0 0 134 121 96
-0.23935 0.0674072 -0.000538812 0 0 0 39 34 42
-0.250365 0.048311 0.00241823 0 0 0 221 206 4
-0.260392 0.0559741 -0.0367798 0 0 0 71 77 82
-0.125813 0.0747936 -0.0493638 0 0 0 55 48 35
-0.239504 0.0618303 -0.0499888 0 0 0 91 63 65
-0.264915 0.0497217 -0.0304868 0 0 0 69 59 65
-0.157362 0.0775336 0.00308669 0 0 0 127 97 77
-0.0802564 0.0808566 0.0154235 0 0 0 130 120 59
-0.264981 0.0484621 -0.0166234 0 0 0 254 253 244
-0.142025 0.0744189 -0.0478908 0 0 0 43 41 29
-0.263185 0.051623 -0.0333489 0 0 0 60 65 65
-0.253079 0.0442094 0.00383835 0 0 0 214 207 41
-0.260526 0.0256474 -0.0241026 0 0 0 182 184 171
-0.2441 0.0534404 -0.051836 0 0 0 148 162 154
-0.143391 0.0736544 -0.054143 0 0 0 44 32 17
-0.0968648 0.0796879 0.00565864 0 0 0 18 17 9
-0.148442 0.0785166 0.026213 0 0 0 126 113 60
-0.148231 0.0790196 0.0227328 0 0 0 127 111 66
-0.222995 0.0676934 -0.063584 0 0 0 234 236 236
-0.257218 0.0281332 -0.0483716 0 0 0 48 50 54
-0.203592 0.0698203 -0.0500342 0 0 0 103 42 10
-0.237663 0.0627626 -0.0243682 0 0 0 170 137 52
-0.152752 0.0737601 -0.0466255 0 0 0 108 88 36
-0.221904 0.0754935 0.00258787 0 0 0 117 110 78
-0.0181613 0.0803911 0.00182155 0 0 0 41 34 22
-0.0791702 0.0790394 -0.0156994 0 0 0 90 8 14
-0.254153 0.0683601 -0.0309363 0 0 0 65 67 68
-0.26316 0.0578998 -0.0094742 0 0 0 254 254 252
-0.142461 0.0766459 -0.030363 0 0 0 142 136 100
-0.22023 0.0728268 -0.0121973 0 0 0 124 121 96
-0.113448 0.0773988 -0.0389892 0 0 0 146 145 116
-0.166253 0.0785235 0.0216207 0 0 0 133 125 97
-0.268212 0.0249307 -0.0366587 0 0 0 19 16 12
-0.125569 0.0784721 -0.0250649 0 0 0 129 90 66
-0.134661 0.0793873 -0.00789477 0 0 0 142 141 120
-0.219443 0.0735655 -0.0120427 0 0 0 124 123 103
-0.131721 0.0801862 0.0153857 0 0 0 51 42 39
-0.0528149 0.0765097 -0.0478185 0 0 0 40 48 54
-0.238283 0.0625578 -0.0609469 0 0 0 220 222 223
-0.204424 0.0721619 -0.0221721 0 0 0 66 74 4
-0.0587431 0.0769667 -0.0224269 0 0 0 116 81 2
-0.137427 0.0779085 -0.0374129 0 0 0 133 119 90
-0.212756 0.0770122 0.0220354 0 0 0 37 34 27
-0.213935 0.0721055 -0.0144329 0 0 0 128 116 39
-0.261202 0.0242234 -0.0311371 0 0 0 173 179 116
-0.104024 0.0768313 -0.0404763 0 0 0 147 147 123
-0.21055 0.0733481 -0.00740385 0 0 0 88 70 16
-0.0543402 0.080444 0.00207025 0 0 0 67 14 26
-0.220863 0.0757216 0.0114687 0 0 0 16 12 18
-0.0417389 0.0783999 -0.0273897 0 0 0 28 18 15
-0.101936 0.077933 -0.0301264 0 0 0 144 148 115
-0.0640827 0.0807803 0.0187512 0 0 0 113 78 4
-0.0436419 0.0766137 -0.0277637 0 0 0 40 14 6
-0.112275 0.0795086 0.0137431 0 0 0 100 77 34
-0.181527 0.0750723 -0.0271741 0 0 0 123 97 50
-0.251408 0.0458329 0.0195657 0 0 0 85 81 81
-0.025983 0.0792552 -0.0394722 0 0 0 58 58 66
-0.0656896 0.0787594 -0.00772033 0 0 0 128 101 10
-0.241488 0.0634775 0.00526024 0 0 0 28 29 20
-0.270303 0.0269158 0.0134911 0 0 0 25 21 10
-0.116749 0.0799362 -0.00861578 0 0 0 141 135 72
-0.268941 0.0269194 0.0124775 0 0 0 41 34 10
