ply
format ascii 1.0
element vertex 74
property float x
property float y
property float z
property float nx
property float ny
property float nz
property uchar diffuse_red
property uchar diffuse_green
property uchar diffuse_blue
end_header
-0.101259 0.0741502 -0.0589911 0 0 0 220 227 244
-0.0468632 0.0746956 -0.0576873 0 0 0 254 254 254
-0.142738 0.069692 -0.0650302 0 0 0 230 237 248
-0.168772 0.0722384 -0.0611235 0 0 0 231 231 242
-0.262647 0.0587057 -0.00752418 0 0 0 246 244 183
-0.267576 0.0248652 -0.0581752 0 0 0 190 194 190
-0.175323 0.0728837 -0.0607578 0 0 0 215 222 237
-0.245025 0.0593271 0.0215473 0 0 0 170 182 172
-0.260405 0.0275114 -0.00606549 0 0 0 241 236 111
-0.263061 0.0523592 -0.036776 0 0 0 62 65 65
-0.26928 0.0251026 -0.0469018 0 0 0 13 14 18
-0.26482 0.0515495 -0.0131369 0 0 0 254 254 253
-0.268047 0.0248099 -0.0458513 0 0 0 15 15 14
-0.139412 0.0781703 -0.0277683 0 0 0 140 124 102
-0.244625 0.0546278 -0.0529426 0 0 0 143 155 170
-0.222834 0.0726456 -0.035896 0 0 0 54 18 8
-0.260295 0.0576753 -0.0356724 0 0 0 70 77 76
-0.259152 0.0323435 0.000327014 0 0 0 248 245 95
-0.238834 0.0671216 -0.00199101 0 0 0 34 33 30
-0.239535 0.0620299 -0.0502424 0 0 0 90 68 58
-0.125832 0.074868 -0.0494395 0 0 0 55 47 38
-0.26065 0.0259724 -0.0242569 0 0 0 184 188 179
-0.156749 0.0772657 0.00168274 0 0 0 130 111 85
-0.264004 0.048149 -0.0300207 0 0 0 76 74 75
-0.142047 0.0745173 -0.0479977 0 0 0 44 40 28
-0.0772222 0.0801135 0.0141233 0 0 0 130 118 42
-0.097624 0.0808147 0.00448344 0 0 0 19 16 10
-0.0788592 0.0735289 -0.0610737 0 0 0 44 50 52
-0.248723 0.0517775 0.00275858 0 0 0 227 225 109
-0.264099 0.0469395 -0.0161032 0 0 0 254 253 248
-0.140533 0.0723432 -0.0546417 0 0 0 47 39 23
-0.147615 0.0800327 0.0239201 0 0 0 125 107 65
-0.0864642 0.076037 -0.0447415 0 0 0 44 43 27
-0.257291 0.0283593 -0.0485287 0 0 0 45 50 56
-0.203614 0.0699794 -0.0502469 0 0 0 104 41 18
-0.238885 0.0647163 -0.0243133 0 0 0 171 138 51
-0.220339 0.0742403 -0.008937 0 0 0 106 92 78
-0.152777 0.0738755 -0.0467514 0 0 0 107 91 31
-0.0792512 0.0791935 -0.0156982 0 0 0 91 8 10
-0.0209835 0.0795226 -0.0174338 0 0 0 54 56 62
-0.142515 0.0768135 -0.0304797 0 0 0 139 134 101
-0.261819 0.0595663 -0.00841989 0 0 0 254 254 240
-0.275562 0.0232126 -0.0118217 0 0 0 133 127 83
-0.112788 0.0767919 -0.0392089 0 0 0 146 144 114
-0.125631 0.0786415 -0.0251548 0 0 0 129 90 57
-0.267801 0.0243317 -0.0369991 0 0 0 18 17 11
-0.134757 0.0796343 -0.0080067 0 0 0 141 140 119
-0.25352 0.0692182 -0.0300529 0 0 0 65 66 56
-0.222537 0.0757487 -0.00212538 0 0 0 121 118 89
-0.225308 0.0769865 0.00126746 0 0 0 64 75 66
-0.131863 0.0805212 0.0152764 0 0 0 53 39 34
-0.167136 0.0795159 0.0226537 0 0 0 132 123 91
-0.0538613 0.0754398 -0.0466421 0 0 0 46 47 52
-0.23851 0.0611503 -0.0615716 0 0 0 221 223 223
-0.2045 0.0724312 -0.0223959 0 0 0 66 71 4
-0.114272 0.0802186 0.0210534 0 0 0 96 94 54
-0.0750016 0.0793252 -0.00137807 0 0 0 126 100 18
-0.0588129 0.0770715 -0.0223765 0 0 0 116 82 10
-0.259795 0.0298886 0.0232337 0 0 0 49 51 57
-0.139003 0.0779613 -0.0375317 0 0 0 130 120 94
-0.104058 0.0769162 -0.0405163 0 0 0 147 146 123
-0.251732 0.0460177 0.0214946 0 0 0 87 91 89
-0.0544553 0.08064 0.00211566 0 0 0 68 13 20
-0.0434987 0.0782325 -0.0273651 0 0 0 36 15 14
-0.111011 0.0783976 0.0135207 0 0 0 96 76 35
-0.229426 0.0750778 0.0105987 0 0 0 11 11 12
-0.221069 0.0759907 0.0122697 0 0 0 12 11 15
-0.102066 0.0778836 -0.0289382 0 0 0 143 145 112
-0.0634911 0.0803792 0.0187093 0 0 0 111 79 4
-0.182224 0.0760624 -0.027212 0 0 0 123 97 87
-0.0666022 0.0794259 -0.00631626 0 0 0 127 98 10
-0.116843 0.0801603 -0.00869382 0 0 0 141 134 78
-0.116919 0.0799912 -0.00748996 0 0 0 140 131 69
-0.271217 0.0268156 0.0120852 0 0 0 15 13 24
