ply
format ascii 1.0
element vertex 73
property float x
property float y
property float z
property float nx
property float ny
property float nz
property uchar diffuse_red
property uchar diffuse_green
property uchar diffuse_blue
end_header
-0.0454687 0.0733908 -0.0582838 0 0 0 254 254 254
-0.102055 0.0746216 -0.0591771 0 0 0 221 227 245
-0.148246 0.0737723 -0.0654305 0 0 0 249 252 253
-0.244455 0.0590941 0.0209911 0 0 0 187 200 190
-0.170977 0.072432 -0.061408 0 0 0 223 226 239
-0.263539 0.0569854 -0.00842471 0 0 0 239 242 223
-0.266935 0.0230278 -0.059189 0 0 0 191 195 189
-0.175404 0.0723341 -0.0612951 0 0 0 219 225 240
-0.260335 0.0266712 -0.00793899 0 0 0 249 246 109
-0.259053 0.0565914 -0.036443 0 0 0 74 77 80
-0.269179 0.0241215 -0.0477093 0 0 0 15 15 18
-0.260363 0.0567189 -0.0364181 0 0 0 72 77 77
-0.267947 0.0238329 -0.0466564 0 0 0 15 15 12
-0.139589 0.0777362 -0.0282193 0 0 0 141 127 100
-0.244012 0.0530808 -0.0549395 0 0 0 162 173 195
-0.221587 0.0717949 -0.0365557 0 0 0 51 15 21
-0.264534 0.0482447 -0.0153816 0 0 0 254 254 253
-0.219552 0.0675547 -0.0633495 0 0 0 241 243 244
-0.258656 0.0304759 -0.000558159 0 0 0 249 244 82
-0.25647 0.0364878 0.00270882 0 0 0 236 223 14
-0.23851 0.0652396 -0.00172816 0 0 0 41 39 33
-0.25659 0.033046 -0.00783947 0 0 0 217 210 22
-0.239591 0.0611838 -0.0509363 0 0 0 95 64 65
-0.125946 0.0745218 -0.0498644 0 0 0 54 48 45
-0.157801 0.0771319 0.00359737 0 0 0 128 87 75
-0.261849 0.0252791 -0.0261416 0 0 0 173 170 138
-0.142163 0.0740978 -0.0484591 0 0 0 45 40 29
-0.264509 0.0481813 -0.0316779 0 0 0 67 64 57
-0.080604 0.0810813 0.0138521 0 0 0 132 120 66
-0.0972474 0.0796553 0.00526689 0 0 0 21 16 15
-0.140625 0.071939 -0.0551025 0 0 0 45 39 28
-0.250404 0.049352 0.00172157 0 0 0 235 229 54
-0.148683 0.0788632 0.0221252 0 0 0 127 113 65
-0.252255 0.0461411 0.00222168 0 0 0 219 202 24
-0.257201 0.0274331 -0.0493053 0 0 0 49 48 73
-0.203705 0.0692916 -0.0508508 0 0 0 105 44 9
-0.238435 0.0630144 -0.0251566 0 0 0 172 139 52
-0.152893 0.0734071 -0.0472375 0 0 0 108 91 35
-0.222258 0.0750425 0.00167815 0 0 0 121 113 85
-0.0810983 0.0788283 -0.0160775 0 0 0 92 8 11
-0.261265 0.0591368 -0.00797214 0 0 0 254 254 253
-0.221113 0.0731442 -0.0129609 0 0 0 128 122 103
-0.142681 0.0763693 -0.0309392 0 0 0 141 134 106
-0.268234 0.0242253 -0.0376306 0 0 0 21 15 15
-0.112934 0.07649 -0.0396024 0 0 0 149 145 112
-0.131288 0.0808762 0.0150158 0 0 0 48 40 46
-0.168767 0.0791885 0.019778 0 0 0 134 127 101
-0.126508 0.078979 -0.025436 0 0 0 130 89 64
-0.219729 0.0730842 -0.0129367 0 0 0 129 124 113
-0.134985 0.0791952 -0.00844548 0 0 0 143 140 122
-0.204663 0.0717034 -0.0229988 0 0 0 71 74 5
-0.218572 0.0759604 -0.000220221 0 0 0 128 121 63
-0.0589983 0.0769857 -0.0226498 0 0 0 118 81 4
-0.113941 0.0789536 0.0218007 0 0 0 106 100 64
-0.251106 0.0410864 -0.0598174 0 0 0 213 214 213
-0.13762 0.07763 -0.0379711 0 0 0 133 123 88
-0.214206 0.0716361 -0.0152997 0 0 0 129 120 36
-0.210854 0.0729082 -0.00825975 0 0 0 78 72 12
-0.0547107 0.0805416 0.00185647 0 0 0 68 14 27
-0.221255 0.0752973 0.0105627 0 0 0 16 12 21
-0.10287 0.0784864 -0.0303919 0 0 0 144 146 117
-0.197941 0.0764573 -0.00157135 0 0 0 111 94 68
-0.0438736 0.0766683 -0.0279217 0 0 0 39 18 18
-0.112691 0.0794467 0.0132865 0 0 0 97 78 33
-0.0668334 0.0792849 -0.00660395 0 0 0 126 101 10
-0.117849 0.0803375 -0.0077786 0 0 0 139 132 65
-0.043825 0.0812444 0.00235711 0 0 0 29 13 9
-0.182393 0.0754389 -0.0277607 0 0 0 123 98 49
-0.063782 0.0802195 0.0184297 0 0 0 114 80 4
-0.117772 0.0805083 -0.00898018 0 0 0 140 135 76
-0.26866 0.0254555 0.0114074 0 0 0 43 32 7
-0.253133 0.0452973 0.0196015 0 0 0 84 81 85
-0.235074 0.0757833 0.0120588 0 0 0 13 12 12
