ply
format ascii 1.0
element vertex 79
property float x
property float y
property float z
property float nx
property float ny
property float nz
property uchar diffuse_red
property uchar diffuse_green
property uchar diffuse_blue
end_header
-0.101556 0.0748526 -0.0591551 0 0 0 221 227 244
-0.039037 0.0734683 -0.0595857 0 0 0 254 254 254
-0.244763 0.0614165 0.0208811 0 0 0 187 199 180
-0.169847 0.0723614 -0.0617014 0 0 0 219 221 238
-0.263207 0.0563483 -0.0165133 0 0 0 252 252 240
-0.267289 0.025254 -0.0590727 0 0 0 190 194 190
-0.175551 0.0738136 -0.0611973 0 0 0 216 222 239
-0.26032 0.0280049 -0.006941 0 0 0 240 237 113
-0.262483 0.0592009 -0.00848108 0 0 0 246 243 197
-0.258486 0.0595348 -0.0363158 0 0 0 70 77 79
-0.269037 0.0255216 -0.0478069 0 0 0 13 13 19
-0.267809 0.0252284 -0.0467507 0 0 0 15 12 12
-0.258483 0.0321248 -0.00174547 0 0 0 241 236 80
-0.259951 0.0582445 -0.0376688 0 0 0 71 78 80
-0.223755 0.0697101 -0.064215 0 0 0 235 236 236
-0.256102 0.0666057 -0.00805533 0 0 0 254 254 248
-0.139203 0.078169 -0.0270969 0 0 0 139 127 94
-0.221934 0.0721749 -0.0368942 0 0 0 54 20 12
-0.243735 0.0541353 -0.0540162 0 0 0 143 158 173
-0.142925 0.0789895 -0.0113053 0 0 0 137 131 107
-0.260423 0.026575 -0.0262225 0 0 0 189 196 176
-0.239194 0.0623718 -0.051114 0 0 0 93 65 68
-0.254505 0.041059 0.00315288 0 0 0 229 210 34
-0.125464 0.0749474 -0.0498852 0 0 0 53 46 36
-0.157978 0.0788716 0.0024504 0 0 0 127 97 83
-0.264163 0.049753 -0.032911 0 0 0 65 63 63
-0.0771821 0.0800552 0.0151123 0 0 0 129 117 48
-0.141686 0.0746377 -0.0485076 0 0 0 44 40 35
-0.252756 0.0439779 0.00479094 0 0 0 231 225 89
-0.0968295 0.0800864 0.00527891 0 0 0 21 17 11
-0.143016 0.0738389 -0.054763 0 0 0 43 35 18
-0.248387 0.0538442 0.00212891 0 0 0 192 197 100
-0.0798834 0.0748453 -0.0609676 0 0 0 45 49 56
-0.238542 0.0689816 -0.00154762 0 0 0 43 46 37
-0.256738 0.036079 0.00449729 0 0 0 198 216 61
-0.257034 0.0287466 -0.0493932 0 0 0 44 50 54
-0.148891 0.0806016 0.0209501 0 0 0 124 116 74
-0.203254 0.0702378 -0.050993 0 0 0 103 44 13
-0.211327 0.0701445 -0.0599594 0 0 0 245 244 245
-0.23921 0.0659466 -0.0250386 0 0 0 170 136 55
-0.152423 0.0740238 -0.0473028 0 0 0 108 87 34
-0.0790095 0.0792433 -0.0159677 0 0 0 91 9 15
-0.218796 0.073321 -0.0121676 0 0 0 123 119 104
-0.244563 0.0511338 -0.0613809 0 0 0 215 219 218
-0.142219 0.0769759 -0.030997 0 0 0 140 135 109
-0.110873 0.0769868 -0.0395863 0 0 0 148 146 120
-0.22395 0.0757968 0.000207123 0 0 0 73 72 58
-0.125353 0.0787771 -0.0256088 0 0 0 129 90 57
-0.2676 0.0247704 -0.0378965 0 0 0 20 17 14
-0.134545 0.0798311 -0.00849971 0 0 0 143 141 124
-0.253242 0.0696396 -0.0309974 0 0 0 68 65 56
-0.0524708 0.0764219 -0.0479111 0 0 0 42 48 54
-0.131741 0.0807655 0.0147927 0 0 0 51 41 53
-0.185464 0.0790467 0.0207122 0 0 0 110 93 68
-0.0187083 0.0769415 -0.0137928 0 0 0 47 49 55
-0.221645 0.076747 -0.00173526 0 0 0 124 123 95
-0.0761883 0.0809375 -0.00270116 0 0 0 126 100 11
-0.204245 0.0727565 -0.0231515 0 0 0 66 74 4
-0.01979 0.0791542 -0.0202439 0 0 0 58 54 62
-0.0585496 0.0770583 -0.022559 0 0 0 116 82 5
-0.137138 0.0781771 -0.0380242 0 0 0 133 121 91
-0.0211172 0.0752366 -0.0402677 0 0 0 55 59 67
-0.274612 0.0256457 -0.00909028 0 0 0 102 111 81
-0.261477 0.0288205 0.0231277 0 0 0 44 54 43
-0.0566003 0.0825016 0.00347511 0 0 0 69 11 20
-0.252969 0.0468316 0.019456 0 0 0 81 86 84
-0.214889 0.079525 0.0100417 0 0 0 116 95 27
-0.041511 0.0784019 -0.0274282 0 0 0 29 17 12
-0.221543 0.0772421 0.0115245 0 0 0 12 12 17
-0.101692 0.078125 -0.0305243 0 0 0 145 147 113
-0.236902 0.06532 -0.0615474 0 0 0 223 224 224
-0.112288 0.0800108 0.0132714 0 0 0 97 79 32
-0.181309 0.0755568 -0.0280336 0 0 0 126 97 47
-0.116707 0.0801476 -0.00791232 0 0 0 142 130 65
-0.116626 0.0803137 -0.00911625 0 0 0 142 134 75
-0.270933 0.0289997 0.0114072 0 0 0 26 17 6
-0.0647616 0.0831867 0.0201301 0 0 0 109 76 2
-0.0641098 0.0776139 -0.00810723 0 0 0 126 102 11
-0.192487 0.0766878 -0.0187737 0 0 0 131 127 82
