ply
format ascii 1.0
element vertex 77
property float x
property float y
property float z
property float nx
property float ny
property float nz
property uchar diffuse_red
property uchar diffuse_green
property uchar diffuse_blue
end_header
-0.101558 0.0734061 -0.0586498 0 0 0 217 225 245
-0.0479163 0.075262 -0.0574474 0 0 0 254 254 254
-0.169821 0.0700516 -0.0617538 0 0 0 222 229 240
-0.174964 0.0704923 -0.0602454 0 0 0 218 224 240
-0.261364 0.0573402 -0.0125349 0 0 0 252 250 218
-0.26037 0.025395 -0.0050257 0 0 0 241 236 105
-0.268041 0.0213319 -0.0573935 0 0 0 186 191 186
-0.24476 0.0562152 0.0236211 0 0 0 168 170 156
-0.257389 0.0636159 -0.0080885 0 0 0 253 252 253
-0.259554 0.0554281 -0.0333878 0 0 0 65 74 78
-0.268901 0.0222386 -0.0459555 0 0 0 13 12 18
-0.267658 0.0219551 -0.0449131 0 0 0 12 15 13
-0.264844 0.0458372 -0.0158176 0 0 0 254 253 245
-0.141805 0.0774082 -0.027065 0 0 0 137 127 113
-0.244076 0.0512666 -0.0521684 0 0 0 140 156 173
-0.223041 0.0701251 -0.0338446 0 0 0 54 17 18
-0.255129 0.0352333 0.00457285 0 0 0 231 213 29
-0.257828 0.0300865 0.00141381 0 0 0 238 237 97
-0.262595 0.0481935 -0.0327238 0 0 0 59 63 66
-0.239373 0.0650379 0.000216826 0 0 0 39 36 37
-0.126777 0.0744787 -0.048781 0 0 0 54 47 30
-0.239628 0.0595453 -0.0492422 0 0 0 94 64 66
-0.249392 0.0465574 0.00332829 0 0 0 234 226 63
-0.260889 0.0224907 -0.0245992 0 0 0 174 168 139
-0.15966 0.0767465 0.00364223 0 0 0 128 110 85
-0.214032 0.0673823 -0.0605732 0 0 0 244 244 246
-0.142288 0.073212 -0.0474398 0 0 0 46 41 33
-0.080387 0.0802256 0.0156841 0 0 0 131 116 57
-0.0977346 0.0795769 0.00606752 0 0 0 23 15 10
-0.143665 0.0724433 -0.0536888 0 0 0 43 36 21
-0.263472 0.0502015 -0.0182208 0 0 0 254 253 202
-0.0874342 0.0760728 -0.0442977 0 0 0 42 42 43
-0.223229 0.0656149 -0.0628808 0 0 0 237 238 238
-0.148442 0.0772802 0.0255317 0 0 0 125 111 58
-0.149829 0.0775489 0.0231209 0 0 0 129 115 73
-0.256961 0.0256508 -0.0476268 0 0 0 48 50 51
-0.203806 0.0679338 -0.0493906 0 0 0 105 40 12
-0.237713 0.0604536 -0.0236261 0 0 0 170 138 61
-0.153003 0.072432 -0.0461407 0 0 0 110 89 31
-0.222008 0.073312 0.0033009 0 0 0 119 112 80
-0.0793828 0.0784745 -0.0154453 0 0 0 90 7 13
-0.182108 0.0752028 0.0256534 0 0 0 114 99 74
-0.25372 0.0650467 -0.0303086 0 0 0 64 66 69
-0.142012 0.074681 -0.0300644 0 0 0 139 134 103
-0.220353 0.0706896 -0.0114944 0 0 0 127 122 95
-0.113013 0.0757951 -0.0387924 0 0 0 146 144 116
-0.26788 0.0223061 -0.0358838 0 0 0 18 16 10
-0.125803 0.0774082 -0.0246606 0 0 0 129 89 61
-0.134848 0.0781926 -0.00745924 0 0 0 142 141 119
-0.219573 0.0714368 -0.011341 0 0 0 128 122 104
-0.131841 0.0789837 0.0158129 0 0 0 52 36 39
-0.167153 0.0761394 0.0219958 0 0 0 133 125 97
-0.0556062 0.0765198 -0.0462087 0 0 0 47 48 52
-0.258977 0.0280459 0.0265484 0 0 0 46 50 50
-0.0202109 0.0792835 -0.02027 0 0 0 56 59 69
-0.204573 0.0702177 -0.0215218 0 0 0 66 74 4
-0.058956 0.0766404 -0.0222431 0 0 0 116 81 5
-0.212813 0.0748985 0.0227212 0 0 0 43 34 30
-0.137694 0.0767344 -0.0369708 0 0 0 132 120 93
-0.214058 0.0700422 -0.0137517 0 0 0 125 115 38
-0.256805 0.0241828 -0.0604371 0 0 0 199 202 198
-0.0560177 0.0814368 0.00244073 0 0 0 67 15 20
-0.0406209 0.0760395 -0.0493685 0 0 0 50 34 36
-0.22094 0.0735363 0.0121787 0 0 0 16 9 24
-0.210602 0.0714703 -0.00782201 0 0 0 82 86 8
-0.0285299 0.0803465 0.00160583 0 0 0 53 54 52
-0.0642025 0.080323 0.0189588 0 0 0 111 77 4
-0.251741 0.0439891 0.0214771 0 0 0 84 87 88
-0.102895 0.0778305 -0.029649 0 0 0 143 145 111
-0.0419851 0.0782711 -0.0272588 0 0 0 30 17 14
-0.112394 0.078525 0.0141057 0 0 0 98 77 29
-0.117718 0.0794664 -0.006916 0 0 0 139 132 66
-0.181726 0.0733909 -0.0265933 0 0 0 126 97 58
-0.0659449 0.0781436 -0.00623987 0 0 0 125 98 11
-0.197727 0.0749315 -0.000124803 0 0 0 110 95 65
-0.241046 0.0563464 -0.0599635 0 0 0 220 222 222
-0.116945 0.0789416 -0.00823767 0 0 0 140 134 74
