ply
format ascii 1.0
element vertex 74
property float x
property float y
property float z
property float nx
property float ny
property float nz
property uchar diffuse_red
property uchar diffuse_green
property uchar diffuse_blue
end_header
-0.101408 0.0756852 -0.0594931 0 0 0 222 229 245
-0.261362 0.0631628 -0.0152278 0 0 0 252 250 220
-0.169716 0.073887 -0.0621602 0 0 0 220 221 239
-0.268436 0.0270269 -0.0599226 0 0 0 188 192 188
-0.174777 0.0746281 -0.0618637 0 0 0 217 222 239
-0.244328 0.0627387 0.0202084 0 0 0 186 200 183
-0.260438 0.0319881 -0.00734247 0 0 0 238 245 100
-0.0429217 0.0752738 -0.0580167 0 0 0 254 254 254
-0.259132 0.0626336 -0.0357228 0 0 0 67 75 80
-0.269897 0.0289219 -0.0483136 0 0 0 12 15 18
-0.258652 0.0359253 -0.00106408 0 0 0 239 236 88
-0.244593 0.0556684 -0.0547844 0 0 0 138 145 167
-0.265056 0.0528729 -0.0150222 0 0 0 254 254 253
-0.221846 0.0741924 -0.0374429 0 0 0 53 20 10
-0.138992 0.0795013 -0.0286742 0 0 0 138 127 114
-0.256658 0.0402966 0.00193401 0 0 0 235 224 16
-0.260811 0.0289688 -0.0269004 0 0 0 188 196 180
-0.141285 0.0802258 -0.0116525 0 0 0 135 127 102
-0.259999 0.0606475 -0.0383021 0 0 0 73 77 86
-0.239178 0.0645834 -0.0517059 0 0 0 91 63 66
-0.12533 0.0760087 -0.0502642 0 0 0 54 45 24
-0.262598 0.0539126 -0.0353693 0 0 0 60 64 65
-0.26438 0.0520459 -0.0325064 0 0 0 65 64 82
-0.15866 0.0795722 0.000702359 0 0 0 129 112 90
-0.141557 0.0758609 -0.0489149 0 0 0 46 39 28
-0.23869 0.0697147 -0.00345603 0 0 0 34 34 33
-0.0783124 0.0740744 -0.0616281 0 0 0 45 47 39
-0.0763907 0.079848 0.014756 0 0 0 128 117 43
-0.140692 0.0744019 -0.0553659 0 0 0 45 38 34
-0.0967406 0.0807832 0.00495612 0 0 0 19 17 9
-0.147659 0.0799874 0.022736 0 0 0 124 110 66
-0.25736 0.0311377 -0.0500623 0 0 0 46 48 56
-0.148821 0.0818025 0.0205385 0 0 0 126 114 71
-0.203162 0.0720861 -0.0515122 0 0 0 105 43 6
-0.210408 0.0728292 -0.0603324 0 0 0 247 247 247
-0.238643 0.0672877 -0.025776 0 0 0 172 139 56
-0.275262 0.0266833 -0.0111477 0 0 0 126 130 83
-0.152301 0.0753538 -0.0477295 0 0 0 106 87 33
-0.221798 0.0782674 0.000938501 0 0 0 116 111 69
-0.0805336 0.0796361 -0.0163296 0 0 0 92 6 12
-0.253883 0.0714054 -0.0327991 0 0 0 65 68 80
-0.220634 0.0763169 -0.0136923 0 0 0 126 120 101
-0.142097 0.0781805 -0.031402 0 0 0 139 135 100
-0.112323 0.0777808 -0.0399609 0 0 0 145 143 117
-0.125222 0.079804 -0.0259823 0 0 0 129 89 54
-0.134432 0.0809274 -0.00888767 0 0 0 140 139 122
-0.0224835 0.0777818 -0.01938 0 0 0 54 52 46
-0.219251 0.0762337 -0.013663 0 0 0 128 123 108
-0.268486 0.0281425 -0.0384194 0 0 0 20 16 12
-0.132338 0.0825338 0.0144827 0 0 0 52 40 50
-0.167471 0.0823187 0.019382 0 0 0 133 127 100
-0.204778 0.0753736 -0.0235269 0 0 0 65 73 5
-0.0524204 0.076564 -0.0468669 0 0 0 46 50 52
-0.0746355 0.0800571 -0.00317495 0 0 0 126 100 8
-0.0584451 0.0774068 -0.0228201 0 0 0 118 80 2
-0.136991 0.0793399 -0.0384188 0 0 0 131 121 91
-0.252368 0.0499577 0.0179045 0 0 0 84 84 79
-0.214339 0.0754939 -0.0158728 0 0 0 126 116 46
-0.210397 0.0759189 -0.00895455 0 0 0 78 71 19
-0.255702 0.0335505 -0.0619627 0 0 0 203 207 203
-0.0413854 0.0785851 -0.0276582 0 0 0 28 18 14
-0.102345 0.0794583 -0.0294934 0 0 0 143 144 119
-0.0433096 0.0768229 -0.0280381 0 0 0 39 14 10
-0.0541833 0.0809455 0.00169318 0 0 0 69 14 22
-0.0209081 0.075417 -0.041804 0 0 0 47 62 64
-0.220822 0.0785254 0.00982593 0 0 0 15 10 21
-0.116594 0.081063 -0.00826918 0 0 0 139 132 66
-0.116509 0.0812299 -0.00947274 0 0 0 140 134 79
-0.110827 0.0794174 0.0127765 0 0 0 96 77 29
-0.0633164 0.0808137 0.0182351 0 0 0 113 77 3
-0.18183 0.077926 -0.028361 0 0 0 123 98 52
-0.0655688 0.0791899 -0.00690537 0 0 0 126 100 19
-0.270708 0.030851 0.00848107 0 0 0 22 16 29
-0.234709 0.0791012 0.0123255 0 0 0 11 11 11
