ply
format ascii 1.0
element vertex 72
property float x
property float y
property float z
property float nx
property float ny
property float nz
property uchar diffuse_red
property uchar diffuse_green
property uchar diffuse_blue
end_header
-0.101684 0.0751846 -0.0591123 0 0 0 225 229 245
-0.169328 0.0716354 -0.0616413 0 0 0 222 224 240
-0.244531 0.0603526 0.0213196 0 0 0 185 199 184
-0.175041 0.0730519 -0.0611045 0 0 0 217 224 240
-0.26797 0.0240471 -0.0590301 0 0 0 189 192 187
-0.245303 0.0596261 0.0211639 0 0 0 171 183 166
-0.260555 0.0279891 -0.00661632 0 0 0 240 238 109
-0.0465871 0.0751567 -0.0579754 0 0 0 254 254 254
-0.264436 0.0513427 -0.0147076 0 0 0 254 254 253
-0.260208 0.0558998 -0.0364875 0 0 0 70 75 77
-0.269397 0.0258332 -0.0473996 0 0 0 15 13 20
-0.259375 0.0567761 -0.0373853 0 0 0 72 81 80
-0.139229 0.078036 -0.0268898 0 0 0 138 128 118
-0.257473 0.0317807 -0.000272981 0 0 0 238 233 60
-0.220583 0.0716714 -0.0364592 0 0 0 50 21 14
-0.243743 0.0537408 -0.0536427 0 0 0 142 155 171
-0.141367 0.0787725 -0.0110295 0 0 0 137 130 104
-0.260924 0.0252679 -0.0272869 0 0 0 182 185 145
-0.256058 0.0370278 0.00286219 0 0 0 235 224 14
-0.249743 0.0514664 0.00220047 0 0 0 233 229 97
-0.256017 0.0350904 -0.00633483 0 0 0 213 209 30
-0.124874 0.0743665 -0.0499361 0 0 0 53 48 29
-0.23923 0.0619729 -0.0506839 0 0 0 92 67 73
-0.238558 0.0667499 -0.00239993 0 0 0 34 33 29
-0.157162 0.0778129 0.00147523 0 0 0 130 114 85
-0.141773 0.0746829 -0.0483219 0 0 0 46 39 40
-0.0770632 0.0798453 0.0151096 0 0 0 130 119 41
-0.146104 0.0780714 0.0246547 0 0 0 126 110 63
-0.0974615 0.0805639 0.00544083 0 0 0 24 17 13
-0.263606 0.0480561 -0.0316205 0 0 0 65 63 66
-0.260283 0.0588888 -0.00782301 0 0 0 254 254 253
-0.140922 0.0732852 -0.0547881 0 0 0 46 43 34
-0.0785789 0.0739341 -0.061381 0 0 0 45 50 53
-0.26451 0.0470192 -0.02966 0 0 0 79 86 91
-0.256904 0.0282486 -0.0491974 0 0 0 45 52 51
-0.203328 0.0700098 -0.0506232 0 0 0 103 44 13
-0.223615 0.0767096 -9.71363e-05 0 0 0 105 101 95
-0.251708 0.039924 -0.0623619 0 0 0 208 212 212
-0.220146 0.0738005 -0.00821559 0 0 0 103 87 63
-0.238023 0.0636655 -0.0248971 0 0 0 170 135 57
-0.245857 0.051057 -0.0620497 0 0 0 214 219 217
-0.152502 0.0740067 -0.0470837 0 0 0 109 89 46
-0.0806389 0.0791232 -0.0160307 0 0 0 92 6 14
-0.14158 0.0761339 -0.0309438 0 0 0 141 134 101
-0.110939 0.0771005 -0.0394917 0 0 0 147 147 119
-0.125376 0.0786973 -0.0254465 0 0 0 130 90 65
-0.267922 0.025001 -0.037519 0 0 0 20 15 13
-0.13451 0.0795554 -0.00829556 0 0 0 143 142 123
-0.131626 0.0802967 0.0149939 0 0 0 51 40 48
-0.251346 0.0456189 0.019871 0 0 0 85 89 86
-0.052566 0.0768895 -0.0480327 0 0 0 46 47 43
-0.204843 0.0730636 -0.0226058 0 0 0 67 75 5
-0.259437 0.0293014 0.0225726 0 0 0 48 50 54
-0.076139 0.0808903 -0.00269881 0 0 0 126 102 23
-0.0585549 0.0772719 -0.0226541 0 0 0 116 81 3
-0.0208504 0.0784253 -0.0193258 0 0 0 57 58 55
-0.137204 0.0781508 -0.0378239 0 0 0 133 121 78
-0.256144 0.0300239 -0.0612487 0 0 0 203 205 202
-0.0542145 0.0806903 0.00186244 0 0 0 65 13 17
-0.224843 0.0771663 0.013055 0 0 0 12 11 11
-0.0415408 0.0787404 -0.0275729 0 0 0 28 17 22
-0.10173 0.0782023 -0.0304533 0 0 0 146 148 114
-0.229967 0.0749898 0.0135232 0 0 0 11 10 10
-0.0632554 0.0802988 0.0184508 0 0 0 112 80 4
-0.0434407 0.0769527 -0.027956 0 0 0 40 13 9
-0.110768 0.0782354 0.013232 0 0 0 99 77 33
-0.181962 0.0759937 -0.0275411 0 0 0 126 97 57
-0.116673 0.0799523 -0.00776999 0 0 0 140 133 71
-0.268769 0.0268592 0.0116204 0 0 0 40 32 7
-0.116597 0.0801295 -0.00897268 0 0 0 141 135 81
-0.168515 0.0766375 -0.0143985 0 0 0 130 116 83
-0.197667 0.076418 0.00198604 0 0 0 96 82 57
