ply
format ascii 1.0
element vertex 72
property float x
property float y
property float z
property float nx
property float ny
property float nz
property uchar diffuse_red
property uchar diffuse_green
property uchar diffuse_blue
end_header
-0.0467322 0.0747134 -0.0578429 0 0 0 254 254 254
-0.101123 0.074506 -0.0594133 0 0 0 221 227 244
-0.170119 0.0729896 -0.0618409 0 0 0 220 223 240
-0.261121 0.0609197 -0.0149503 0 0 0 252 250 220
-0.244594 0.0615161 0.0206065 0 0 0 185 197 188
-0.175263 0.0735428 -0.0603977 0 0 0 219 225 239
-0.267749 0.0262685 -0.0592908 0 0 0 189 192 188
-0.245373 0.0607937 0.0204536 0 0 0 169 182 169
-0.265218 0.0516115 -0.0156447 0 0 0 254 254 252
-0.257613 0.0680165 -0.0103805 0 0 0 253 252 253
-0.258291 0.0596645 -0.0367055 0 0 0 71 76 77
-0.269507 0.0265457 -0.0480267 0 0 0 14 13 19
-0.140937 0.0787789 -0.0284183 0 0 0 138 127 101
-0.244011 0.0552061 -0.055299 0 0 0 162 172 195
-0.26828 0.0262479 -0.0469694 0 0 0 14 13 11
-0.260372 0.0590901 -0.0368363 0 0 0 72 75 77
-0.222229 0.0730148 -0.0370815 0 0 0 54 16 18
-0.258247 0.0337063 -0.00071562 0 0 0 238 235 97
-0.256801 0.0389693 0.00237817 0 0 0 235 222 27
-0.262073 0.0280079 -0.0286258 0 0 0 187 193 162
-0.219962 0.0701925 -0.0634857 0 0 0 239 241 243
-0.219225 0.0696856 -0.0658835 0 0 0 240 241 242
-0.125737 0.0754028 -0.0499846 0 0 0 53 45 33
-0.239514 0.0632767 -0.0513148 0 0 0 90 65 55
-0.265149 0.0514838 -0.0319118 0 0 0 69 55 67
-0.158283 0.0794677 0.00232023 0 0 0 127 98 74
-0.226206 0.069889 -0.0645003 0 0 0 234 235 237
-0.239018 0.0684884 -0.00307371 0 0 0 35 33 31
-0.25043 0.0531987 0.0026826 0 0 0 220 228 128
-0.140631 0.0736844 -0.0489656 0 0 0 47 41 26
-0.0784131 0.0794833 0.0148758 0 0 0 130 116 59
-0.0971329 0.0804413 0.00520457 0 0 0 17 15 9
-0.140428 0.0729569 -0.0552527 0 0 0 46 40 21
-0.265018 0.0487366 -0.0302719 0 0 0 77 83 89
-0.149286 0.0810068 0.0219866 0 0 0 126 110 69
-0.257489 0.0297228 -0.0496028 0 0 0 48 48 56
-0.203544 0.0710006 -0.0511627 0 0 0 104 49 7
-0.237843 0.0643623 -0.0256887 0 0 0 171 139 57
-0.206407 0.0707609 -0.0660161 0 0 0 245 246 248
-0.152701 0.0745864 -0.0474268 0 0 0 106 84 41
-0.219184 0.0740056 -0.0112706 0 0 0 116 104 86
-0.130501 0.0813368 0.014785 0 0 0 50 38 41
-0.0792969 0.0795228 -0.0160255 0 0 0 89 8 12
-0.224264 0.0766534 1.7137e-05 0 0 0 75 75 55
-0.0208375 0.0798472 -0.0201347 0 0 0 56 60 65
-0.142502 0.0775019 -0.0311122 0 0 0 141 134 104
-0.268587 0.0266781 -0.037946 0 0 0 20 16 16
-0.111841 0.0780984 -0.0395198 0 0 0 147 146 118
-0.125633 0.0792377 -0.025709 0 0 0 130 88 60
-0.252446 0.0689186 -0.0315397 0 0 0 64 65 60
-0.134836 0.080332 -0.0086086 0 0 0 142 142 119
-0.0765676 0.0810364 -0.00150208 0 0 0 125 101 23
-0.204551 0.0735297 -0.0233227 0 0 0 69 72 5
-0.0588399 0.0772553 -0.0225976 0 0 0 115 80 3
-0.137409 0.0786813 -0.038135 0 0 0 131 122 91
-0.114491 0.0808625 0.0205505 0 0 0 97 94 52
-0.0426285 0.0790141 -0.0260225 0 0 0 32 16 16
-0.222457 0.0789009 0.011421 0 0 0 11 11 19
-0.0560635 0.0822015 0.00207543 0 0 0 68 12 19
-0.275338 0.0262578 -0.00609297 0 0 0 117 124 87
-0.0644346 0.0813765 0.0185169 0 0 0 110 79 4
-0.199954 0.0789668 -0.000745366 0 0 0 103 83 59
-0.102672 0.0791953 -0.0304647 0 0 0 143 145 113
-0.112599 0.0804287 0.0131829 0 0 0 99 77 31
-0.275117 0.0267008 -0.00931526 0 0 0 101 111 82
-0.26165 0.0315981 0.0220515 0 0 0 49 51 53
-0.181599 0.0762381 -0.0281844 0 0 0 123 99 43
-0.116998 0.0805781 -0.00800491 0 0 0 140 130 66
-0.259276 0.0637873 -0.0304881 0 0 0 65 53 74
-0.116916 0.0807436 -0.0092088 0 0 0 140 132 77
-0.252876 0.0469452 0.0191753 0 0 0 81 81 86
-0.192781 0.0774155 -0.018935 0 0 0 130 128 85
