ply
format ascii 1.0
element vertex 82
property float x
property float y
property float z
property float nx
property float ny
property float nz
property uchar diffuse_red
property uchar diffuse_green
property uchar diffuse_blue
end_header
-0.102169 0.0749331 -0.0586548 0 0 0 221 229 244
-0.0470661 0.0751835 -0.0578458 0 0 0 254 254 254
-0.169742 0.0712207 -0.0619462 0 0 0 221 227 239
-0.244455 0.059072 0.0225699 0 0 0 184 196 183
-0.174052 0.0724667 -0.0602678 0 0 0 214 221 237
-0.268188 0.0229436 -0.0577734 0 0 0 190 191 188
-0.261536 0.0571448 -0.0130547 0 0 0 252 251 207
-0.256903 0.0627072 -0.00975895 0 0 0 252 252 252
-0.260419 0.0268944 -0.00647633 0 0 0 247 246 113
-0.264753 0.0485096 -0.0136748 0 0 0 254 254 251
-0.253443 0.0341831 -0.0408241 0 0 0 63 64 66
-0.255092 0.0306836 -0.00675059 0 0 0 215 209 32
-0.26904 0.0238017 -0.046331 0 0 0 13 14 18
-0.269615 0.0245156 -0.0450458 0 0 0 13 13 17
-0.139467 0.0776513 -0.0273771 0 0 0 141 123 115
-0.222293 0.0707803 -0.0352803 0 0 0 52 18 11
-0.260815 0.0253752 -0.0235641 0 0 0 181 185 166
-0.244864 0.0519983 -0.0525763 0 0 0 139 139 169
-0.141581 0.07814 -0.0103236 0 0 0 136 128 102
-0.125298 0.0739623 -0.0493439 0 0 0 54 45 37
-0.254889 0.0382641 0.00344695 0 0 0 214 206 2
-0.257128 0.0321254 0.00122673 0 0 0 228 217 53
-0.260177 0.0564836 -0.0358676 0 0 0 72 77 83
-0.239593 0.0609852 -0.0494573 0 0 0 91 67 66
-0.264319 0.0477319 -0.0301216 0 0 0 71 63 81
-0.239427 0.0648563 -0.00131479 0 0 0 30 26 35
-0.157361 0.0768789 0.0034229 0 0 0 127 99 77
-0.248905 0.0467934 0.00401057 0 0 0 237 235 76
-0.142189 0.0741859 -0.0476279 0 0 0 45 39 25
-0.0771288 0.0794461 0.0154361 0 0 0 130 116 47
-0.097588 0.0800957 0.00589167 0 0 0 20 17 10
-0.0790709 0.0738095 -0.0610656 0 0 0 44 49 42
-0.141369 0.0728165 -0.0541043 0 0 0 46 43 29
-0.263206 0.0503613 -0.0317441 0 0 0 62 67 67
-0.146779 0.0780147 0.0254586 0 0 0 125 109 63
-0.257084 0.0271655 -0.0479911 0 0 0 48 50 61
-0.14878 0.0792065 0.0219653 0 0 0 123 115 73
-0.203732 0.0692059 -0.0495803 0 0 0 103 40 13
-0.246231 0.0500776 -0.0608239 0 0 0 214 218 217
-0.238816 0.0634107 -0.0235059 0 0 0 170 139 59
-0.22189 0.0744277 0.00314196 0 0 0 117 110 75
-0.152243 0.0727159 -0.0465168 0 0 0 110 86 39
-0.0792489 0.0790058 -0.0156328 0 0 0 90 8 11
-0.250448 0.0404143 -0.060827 0 0 0 210 213 214
-0.165494 0.078133 0.0244329 0 0 0 134 124 85
-0.0211457 0.0793912 -0.0150331 0 0 0 52 53 59
-0.220252 0.0718654 -0.0116658 0 0 0 126 121 98
-0.1419 0.0755739 -0.030246 0 0 0 140 134 102
-0.125676 0.0782 -0.0248357 0 0 0 130 88 58
-0.112899 0.0765917 -0.0389795 0 0 0 146 146 115
-0.268015 0.0238183 -0.0362596 0 0 0 18 16 9
-0.239196 0.0610498 -0.0605708 0 0 0 220 221 221
-0.134712 0.078948 -0.00762767 0 0 0 144 140 119
-0.21947 0.0726082 -0.0115093 0 0 0 127 122 106
-0.131693 0.0796181 0.0156468 0 0 0 53 42 29
-0.275109 0.0215049 -0.0112378 0 0 0 133 127 80
-0.053934 0.0759574 -0.0480493 0 0 0 43 45 53
-0.0763163 0.0805615 -0.00237343 0 0 0 126 101 11
-0.205095 0.0721484 -0.0215432 0 0 0 65 74 4
-0.0588334 0.077107 -0.0224464 0 0 0 117 81 4
-0.137575 0.0776386 -0.0371445 0 0 0 132 121 90
-0.269931 0.026844 -0.000193377 0 0 0 42 37 7
-0.0543642 0.0804571 0.00205651 0 0 0 69 11 20
-0.210558 0.0724185 -0.00690375 0 0 0 83 70 10
-0.261775 0.022368 -0.0309265 0 0 0 110 65 63
-0.115713 0.0790852 0.0224259 0 0 0 98 77 32
-0.220878 0.074444 0.0130912 0 0 0 16 9 17
-0.223527 0.075948 0.0143057 0 0 0 12 10 9
-0.045137 0.0795422 -0.0259261 0 0 0 39 13 14
-0.102059 0.0778447 -0.029985 0 0 0 143 146 115
-0.114774 0.0800938 0.0213995 0 0 0 99 93 44
-0.0469487 0.0779504 -0.0276012 0 0 0 43 16 14
-0.25198 0.0435715 0.0209517 0 0 0 80 84 82
-0.0399638 0.0804769 -0.0270823 0 0 0 27 31 27
-0.215487 0.0730123 -0.00467458 0 0 0 117 91 5
-0.110836 0.0776703 0.0137531 0 0 0 98 77 30
-0.116874 0.0794344 -0.00720678 0 0 0 140 131 64
-0.182259 0.075214 -0.0266037 0 0 0 124 100 47
-0.249993 0.0438707 0.0233212 0 0 0 87 98 89
-0.168084 0.0751297 -0.013678 0 0 0 129 111 84
-0.116807 0.0796164 -0.00840924 0 0 0 141 134 72
-0.065738 0.0787618 -0.00770394 0 0 0 129 102 7
