ply
format ascii 1.0
element vertex 77
property float x
property float y
property float z
property float nx
property float ny
property float nz
property uchar diffuse_red
property uchar diffuse_green
property uchar diffuse_blue
end_header
-0.0438825 0.073967 -0.0581612 0 0 0 254 254 254
-0.10147 0.0739788 -0.0588517 0 0 0 222 230 246
-0.243993 0.057666 0.0234455 0 0 0 185 192 176
-0.260589 0.0589432 -0.0127176 0 0 0 254 252 222
-0.267314 0.0231312 -0.0576897 0 0 0 191 194 191
-0.170453 0.0714063 -0.0606355 0 0 0 221 223 240
-0.175526 0.0720337 -0.0602793 0 0 0 218 224 240
-0.244702 0.0570926 0.0222301 0 0 0 172 181 165
-0.259855 0.0255442 -0.00668102 0 0 0 248 246 106
-0.25953 0.0563739 -0.0337268 0 0 0 70 74 79
-0.268965 0.0232523 -0.0464068 0 0 0 13 14 6
-0.229841 0.0683748 -0.0624143 0 0 0 231 234 233
-0.267724 0.0229619 -0.0453648 0 0 0 15 14 12
-0.264916 0.046583 -0.0151362 0 0 0 254 254 247
-0.139508 0.0773631 -0.0274142 0 0 0 140 126 113
-0.222375 0.0701686 -0.0342987 0 0 0 52 19 12
-0.244835 0.0514845 -0.0526693 0 0 0 138 146 164
-0.25843 0.0317797 0.00111263 0 0 0 239 234 92
-0.255725 0.0369025 0.00428461 0 0 0 232 215 27
-0.249411 0.0473547 0.00296535 0 0 0 233 227 60
-0.142318 0.0785944 -0.0102347 0 0 0 137 129 102
-0.238697 0.0651539 -0.00126668 0 0 0 35 33 32
-0.239583 0.0604851 -0.0495578 0 0 0 91 60 77
-0.259623 0.0551175 -0.036169 0 0 0 74 78 82
-0.260964 0.023412 -0.0250459 0 0 0 172 169 137
-0.126002 0.0743812 -0.049178 0 0 0 54 46 32
-0.15816 0.0771654 0.00462985 0 0 0 124 84 77
-0.142206 0.0738657 -0.0476627 0 0 0 46 40 39
-0.0788494 0.0791421 0.0153507 0 0 0 132 117 58
-0.26484 0.0480705 -0.0300475 0 0 0 69 62 83
-0.263133 0.0500002 -0.0329048 0 0 0 60 66 61
-0.0947836 0.0771716 0.00549507 0 0 0 21 19 8
-0.143582 0.0731212 -0.0539148 0 0 0 45 35 13
-0.0790752 0.0735861 -0.0610457 0 0 0 44 50 57
-0.262397 0.0567211 -0.00780509 0 0 0 254 254 231
-0.257015 0.0266356 -0.0480612 0 0 0 48 49 45
-0.150512 0.0785543 0.0241398 0 0 0 130 115 65
-0.211156 0.0682262 -0.0609791 0 0 0 244 244 246
-0.203738 0.0687709 -0.0496611 0 0 0 104 45 12
-0.238256 0.0621258 -0.0237735 0 0 0 170 141 62
-0.206741 0.0686556 -0.0644882 0 0 0 242 245 247
-0.222555 0.0748291 0.00315562 0 0 0 118 113 85
-0.0802097 0.0779781 -0.0158016 0 0 0 92 7 12
-0.254232 0.0667989 -0.0304329 0 0 0 64 68 70
-0.251486 0.037366 -0.0603607 0 0 0 209 212 210
-0.220899 0.0722489 -0.0116223 0 0 0 125 121 100
-0.142611 0.0760016 -0.0301228 0 0 0 141 136 103
-0.112047 0.0771754 -0.0388163 0 0 0 148 147 118
-0.267432 0.0224073 -0.0365185 0 0 0 18 18 13
-0.12572 0.0779404 -0.0248617 0 0 0 133 91 58
-0.134772 0.078695 -0.00766245 0 0 0 144 142 119
-0.219514 0.0721957 -0.0116082 0 0 0 127 122 110
-0.132466 0.0801183 0.0156999 0 0 0 55 43 41
-0.0564505 0.076029 -0.0465647 0 0 0 46 49 52
-0.204512 0.0709664 -0.0217854 0 0 0 69 74 3
-0.058877 0.0769723 -0.0224136 0 0 0 119 81 2
-0.212822 0.0753654 0.023547 0 0 0 35 18 34
-0.214001 0.0707931 -0.0140207 0 0 0 125 118 39
-0.137607 0.0773408 -0.03718 0 0 0 133 122 88
-0.21688 0.0738781 -0.00235449 0 0 0 121 101 23
-0.210606 0.0720284 -0.00699479 0 0 0 84 73 15
-0.0559373 0.08168 0.00228715 0 0 0 69 15 22
-0.0426427 0.0808555 -0.000172304 0 0 0 27 14 18
-0.0640616 0.0807263 0.017531 0 0 0 114 81 2
-0.220886 0.0742227 0.0119175 0 0 0 16 12 17
-0.0418989 0.0785704 -0.0274155 0 0 0 28 24 15
-0.112327 0.0788927 0.0139146 0 0 0 99 78 32
-0.0437882 0.0767704 -0.0277932 0 0 0 40 16 4
-0.268038 0.0241402 0.0127132 0 0 0 43 33 6
-0.102879 0.0781291 -0.0286122 0 0 0 145 145 117
-0.117638 0.0799177 -0.00710657 0 0 0 140 132 67
-0.181654 0.0740903 -0.0268353 0 0 0 125 96 54
-0.252552 0.0439964 0.0209497 0 0 0 82 82 84
-0.241428 0.0618403 0.00570401 0 0 0 31 31 24
-0.0666104 0.0791106 -0.0062963 0 0 0 127 103 19
-0.259146 0.0604478 -0.0285382 0 0 0 64 54 79
-0.117569 0.0800979 -0.00830733 0 0 0 141 135 78
