ply
format ascii 1.0
element vertex 75
property float x
property float y
property float z
property float nx
property float ny
property float nz
property uchar diffuse_red
property uchar diffuse_green
property uchar diffuse_blue
end_header
-0.101903 0.0748533 -0.0590632 0 0 0 221 228 245
-0.0477561 0.0740282 -0.0580579 0 0 0 254 254 254
-0.261366 0.0597133 -0.0151853 0 0 0 252 253 238
-0.244874 0.0600202 0.0223545 0 0 0 183 196 184
-0.175253 0.0725844 -0.0611202 0 0 0 217 224 240
-0.170182 0.0719282 -0.0614405 0 0 0 220 224 240
-0.267309 0.0241782 -0.058743 0 0 0 189 193 188
-0.245011 0.0586034 0.0210664 0 0 0 172 182 171
-0.260151 0.0269241 -0.00770805 0 0 0 250 246 109
-0.257637 0.064266 -0.00997588 0 0 0 252 253 253
-0.269542 0.0252711 -0.0472799 0 0 0 14 13 18
-0.259583 0.0562802 -0.0374078 0 0 0 74 80 82
-0.219404 0.0678164 -0.063139 0 0 0 241 242 243
-0.140943 0.0778833 -0.0280968 0 0 0 136 127 109
-0.243861 0.0533456 -0.0547133 0 0 0 160 172 193
-0.219265 0.0681276 -0.0653241 0 0 0 240 241 243
-0.25549 0.0374775 0.00309545 0 0 0 232 215 18
-0.221416 0.072048 -0.036342 0 0 0 50 20 15
-0.265423 0.0502277 -0.0148604 0 0 0 254 254 252
-0.239592 0.0657322 -0.00260379 0 0 0 31 24 33
-0.257677 0.0314711 -0.000170908 0 0 0 238 234 98
-0.14317 0.0785327 -0.0110893 0 0 0 136 130 101
-0.125786 0.0747562 -0.0497304 0 0 0 52 44 42
-0.249169 0.0477478 0.00281022 0 0 0 238 236 79
-0.239434 0.0614462 -0.0507112 0 0 0 91 62 71
-0.159685 0.0782163 0.00263847 0 0 0 130 108 86
-0.265518 0.048941 -0.017258 0 0 0 254 253 247
-0.228134 0.0692775 -0.0647091 0 0 0 234 235 237
-0.264875 0.0493051 -0.0312677 0 0 0 67 67 67
-0.142002 0.0743356 -0.0483116 0 0 0 43 41 36
-0.0970393 0.079864 0.00537843 0 0 0 17 16 14
-0.0787926 0.0736316 -0.061302 0 0 0 44 46 41
-0.141141 0.0729075 -0.05477 0 0 0 45 41 24
-0.0790067 0.0797428 0.015052 0 0 0 130 116 58
-0.261158 0.0246639 -0.0260635 0 0 0 170 169 143
-0.148609 0.0787482 0.0246002 0 0 0 125 111 61
-0.148683 0.078583 0.0257605 0 0 0 125 112 61
-0.257051 0.0276992 -0.0490767 0 0 0 48 51 76
-0.203546 0.0695452 -0.0506531 0 0 0 104 41 11
-0.237683 0.0624426 -0.0250867 0 0 0 171 141 45
-0.220345 0.073669 -0.00935948 0 0 0 106 92 81
-0.152068 0.0729089 -0.0472585 0 0 0 107 88 38
-0.0809085 0.0790402 -0.0159799 0 0 0 90 8 11
-0.224741 0.0755729 0.000732557 0 0 0 62 73 55
-0.0217987 0.0792603 -0.0204231 0 0 0 68 64 60
-0.142504 0.0766013 -0.0307905 0 0 0 140 134 99
-0.113464 0.0774226 -0.03932 0 0 0 146 144 114
-0.253476 0.0685432 -0.0305293 0 0 0 67 66 55
-0.125635 0.0784909 -0.0254394 0 0 0 128 88 55
-0.267561 0.0236092 -0.0375682 0 0 0 18 15 14
-0.134788 0.0794177 -0.00830231 0 0 0 142 141 119
-0.250893 0.0415093 -0.0606762 0 0 0 211 214 212
-0.132619 0.0809992 0.0150629 0 0 0 51 41 44
-0.056985 0.0767274 -0.0465397 0 0 0 43 46 49
-0.213857 0.0769278 0.0102635 0 0 0 118 93 23
-0.20448 0.0719478 -0.0227994 0 0 0 66 73 5
-0.214203 0.0784623 0.0215142 0 0 0 41 36 25
-0.20154 0.0697186 -0.0632844 0 0 0 217 225 240
-0.0764254 0.0808807 -0.00265223 0 0 0 124 99 11
-0.0595553 0.0778615 -0.0224458 0 0 0 115 80 8
-0.137449 0.0778631 -0.0378262 0 0 0 131 118 92
-0.0417979 0.0786681 -0.0274798 0 0 0 30 17 14
-0.0545053 0.080741 0.00193248 0 0 0 67 12 20
-0.102692 0.0787085 -0.030276 0 0 0 143 145 116
-0.225671 0.0779346 0.0119933 0 0 0 12 13 13
-0.124819 0.0769215 -0.03069 0 0 0 129 87 43
-0.233639 0.0756316 0.0144561 0 0 0 12 12 12
-0.251757 0.0439792 0.0186064 0 0 0 80 75 73
-0.111067 0.0782446 0.0132558 0 0 0 97 77 25
-0.268187 0.0232269 -0.0231324 0 0 0 30 20 39
-0.0665545 0.079671 -0.00778743 0 0 0 127 100 5
-0.116952 0.0798479 -0.00776037 0 0 0 138 133 60
-0.182214 0.0756795 -0.0275789 0 0 0 124 97 56
-0.116875 0.0800193 -0.00896384 0 0 0 138 135 71
-0.197122 0.0760099 0.0143686 0 0 0 55 42 13
