ply
format ascii 1.0
element vertex 76
property float x
property float y
property float z
property float nx
property float ny
property float nz
property uchar diffuse_red
property uchar diffuse_green
property uchar diffuse_blue
end_header
-0.0489504 0.0752847 -0.0578453 0 0 0 254 254 254
-0.10165 0.0741899 -0.058745 0 0 0 222 230 245
-0.244414 0.0574621 0.0239612 0 0 0 185 197 181
-0.261298 0.0572777 -0.0123878 0 0 0 253 249 213
-0.175697 0.0718269 -0.0599709 0 0 0 216 222 237
-0.267195 0.0223852 -0.057374 0 0 0 190 194 189
-0.269283 0.0217488 -0.0574657 0 0 0 187 191 186
-0.245122 0.0568921 0.022747 0 0 0 172 183 168
-0.257385 0.0633653 -0.00685946 0 0 0 253 253 254
-0.264599 0.0428528 -0.0130609 0 0 0 254 254 251
-0.260195 0.0252731 -0.00515135 0 0 0 242 239 101
-0.259533 0.0555471 -0.0332604 0 0 0 69 74 79
-0.269335 0.0233112 -0.0458785 0 0 0 13 13 18
-0.269134 0.0247654 -0.0444331 0 0 0 13 12 16
-0.139615 0.0771922 -0.0271815 0 0 0 140 126 107
-0.254959 0.035045 0.00451756 0 0 0 231 216 23
-0.222402 0.0697258 -0.0349464 0 0 0 53 19 12
-0.126155 0.0744011 -0.0489991 0 0 0 50 47 27
-0.244865 0.0508407 -0.05227 0 0 0 138 147 168
-0.260384 0.0535731 -0.0358628 0 0 0 72 78 82
-0.263642 0.0499989 -0.0322722 0 0 0 59 63 67
-0.248753 0.0453869 0.00430419 0 0 0 239 237 76
-0.213502 0.0670759 -0.0606814 0 0 0 241 243 245
-0.239656 0.059855 -0.0491267 0 0 0 92 67 72
-0.264186 0.0465049 -0.0308487 0 0 0 63 62 72
-0.229996 0.0678673 -0.0619696 0 0 0 232 234 234
-0.158173 0.0767208 0.00491419 0 0 0 127 91 65
-0.0803855 0.0802479 0.0168385 0 0 0 130 116 45
-0.142352 0.0737846 -0.0474402 0 0 0 45 39 24
-0.096965 0.0791401 0.00590925 0 0 0 20 18 10
-0.218421 0.0665665 -0.0617259 0 0 0 241 241 243
-0.140856 0.0717274 -0.0541256 0 0 0 45 42 18
-0.223963 0.0667122 -0.0614315 0 0 0 235 237 238
-0.243367 0.0521689 -0.0508764 0 0 0 152 159 174
-0.146699 0.0776578 0.0233485 0 0 0 126 112 71
-0.256889 0.0258986 -0.0477568 0 0 0 45 50 50
-0.0799422 0.0759995 -0.0330467 0 0 0 58 42 40
-0.203859 0.068347 -0.0492893 0 0 0 104 42 10
-0.237682 0.0605524 -0.0235085 0 0 0 171 138 50
-0.0202273 0.0799757 -0.0205103 0 0 0 60 56 60
-0.153061 0.0729629 -0.0461223 0 0 0 108 84 24
-0.22134 0.0724331 0.00336587 0 0 0 118 113 89
-0.0810213 0.0787592 -0.0156015 0 0 0 91 9 10
-0.254286 0.0659851 -0.0299273 0 0 0 65 68 73
-0.131769 0.0790516 0.015834 0 0 0 52 40 45
-0.142719 0.0758269 -0.0298884 0 0 0 140 135 104
-0.113768 0.0770735 -0.0386671 0 0 0 147 143 115
-0.125823 0.0778354 -0.0246656 0 0 0 130 88 60
-0.167058 0.0760541 0.0220766 0 0 0 132 125 95
-0.26777 0.0224236 -0.0360166 0 0 0 18 17 10
-0.13483 0.0784486 -0.00743679 0 0 0 139 141 120
-0.219545 0.0714832 -0.0111741 0 0 0 127 123 107
-0.245112 0.0472816 -0.0609888 0 0 0 215 219 219
-0.23845 0.0608782 -0.0611576 0 0 0 222 223 224
-0.205188 0.0711709 -0.0212383 0 0 0 65 72 5
-0.0764373 0.0804832 -0.00229266 0 0 0 126 102 11
-0.0589694 0.0772386 -0.0224136 0 0 0 116 81 4
-0.137742 0.0772315 -0.0369527 0 0 0 131 121 88
-0.214644 0.0709125 -0.0134589 0 0 0 125 118 33
-0.104346 0.0766531 -0.0402122 0 0 0 149 146 119
-0.0544761 0.0805277 0.00209311 0 0 0 67 15 25
-0.211183 0.0722966 -0.00753615 0 0 0 83 85 7
-0.258137 0.0269626 0.025277 0 0 0 49 50 49
-0.0437134 0.0787013 -0.0275006 0 0 0 30 15 10
-0.249652 0.0398319 -0.0593079 0 0 0 210 213 208
-0.241165 0.0624708 0.00642096 0 0 0 53 57 33
-0.0614883 0.0761244 -0.0491846 0 0 0 42 34 30
-0.251769 0.0420765 0.0212388 0 0 0 83 82 82
-0.22086 0.07338 0.0123657 0 0 0 14 12 19
-0.0641274 0.0805579 0.0188303 0 0 0 110 78 4
-0.102929 0.0783654 -0.0297047 0 0 0 142 147 114
-0.113036 0.07936 0.0141695 0 0 0 99 77 31
-0.117702 0.0797667 -0.00692352 0 0 0 138 132 64
-0.18174 0.0736744 -0.0264992 0 0 0 122 98 60
-0.269604 0.023869 0.0141617 0 0 0 26 20 15
-0.117638 0.0799536 -0.00812351 0 0 0 139 133 77
