ply
format ascii 1.0
element vertex 81
property float x
property float y
property float z
property float nx
property float ny
property float nz
property uchar diffuse_red
property uchar diffuse_green
property uchar diffuse_blue
end_header
-0.0992813 0.0736919 -0.0593168 0 0 0 226 233 239
-0.0488905 0.0747736 -0.0578996 0 0 0 254 254 254
-0.169937 0.0712412 -0.061321 0 0 0 221 223 240
-0.244464 0.05907 0.0227954 0 0 0 181 193 179
-0.261907 0.0579488 -0.0138709 0 0 0 253 252 231
-0.268994 0.024349 -0.0581729 0 0 0 187 191 186
-0.173731 0.070379 -0.0614013 0 0 0 217 226 241
-0.260979 0.0275831 -0.00599892 0 0 0 237 234 108
-0.265748 0.050031 -0.0132526 0 0 0 254 254 253
-0.257333 0.063368 -0.00954969 0 0 0 253 253 253
-0.259209 0.0568512 -0.035652 0 0 0 67 78 82
-0.269378 0.0244073 -0.0469543 0 0 0 12 14 23
-0.218418 0.0678264 -0.0627435 0 0 0 241 242 245
-0.25736 0.030531 0.000214354 0 0 0 237 233 91
-0.222529 0.0713114 -0.036024 0 0 0 57 19 12
-0.139715 0.0779744 -0.0278228 0 0 0 139 126 111
-0.248578 0.0527289 0.00196621 0 0 0 213 221 127
-0.260128 0.024519 -0.0255681 0 0 0 182 195 167
-0.245087 0.0524851 -0.0532876 0 0 0 141 151 160
-0.255698 0.0374002 0.00359908 0 0 0 226 213 26
-0.239115 0.0662456 -0.000876383 0 0 0 38 34 32
-0.141898 0.0785841 -0.0107819 0 0 0 132 124 97
-0.25991 0.05628 -0.036856 0 0 0 71 76 84
-0.239801 0.061476 -0.0502069 0 0 0 90 67 65
-0.264648 0.0484305 -0.0308858 0 0 0 64 66 73
-0.127712 0.0746987 -0.049518 0 0 0 50 43 31
-0.141021 0.0729252 -0.0484224 0 0 0 45 38 37
-0.158577 0.0766732 0.00274174 0 0 0 124 101 75
-0.0806339 0.0750782 -0.0608573 0 0 0 45 49 57
-0.262983 0.0501872 -0.0326961 0 0 0 58 62 62
-0.141522 0.0729666 -0.0545247 0 0 0 46 43 22
-0.0972497 0.0798166 0.00551065 0 0 0 19 14 5
-0.0768932 0.0789991 0.0164147 0 0 0 126 110 34
-0.149748 0.0775207 0.0270315 0 0 0 126 110 59
-0.257406 0.0277222 -0.0485872 0 0 0 46 47 50
-0.152325 0.0796068 0.0224354 0 0 0 128 112 63
-0.239697 0.0648977 -0.0241112 0 0 0 169 141 57
-0.203914 0.0695827 -0.0502359 0 0 0 106 44 14
-0.220596 0.0736232 -0.00888647 0 0 0 107 92 80
-0.0202663 0.0797444 -0.0217691 0 0 0 55 54 68
-0.15309 0.0736888 -0.0468014 0 0 0 110 86 30
-0.254481 0.067965 -0.0311645 0 0 0 65 68 71
-0.0795417 0.079218 -0.0158376 0 0 0 88 8 9
-0.142142 0.0758855 -0.0306878 0 0 0 139 133 109
-0.267882 0.0236076 -0.0370566 0 0 0 19 14 13
-0.222791 0.0750977 -0.00206629 0 0 0 122 116 87
-0.13511 0.079218 -0.00688211 0 0 0 140 135 114
-0.111519 0.0768858 -0.0392946 0 0 0 145 141 117
-0.125933 0.0784967 -0.0252279 0 0 0 127 87 61
-0.225562 0.0763113 0.00133502 0 0 0 63 69 65
-0.166643 0.0784325 0.0214359 0 0 0 127 115 88
-0.113955 0.0789038 0.0233097 0 0 0 109 99 55
-0.132112 0.0802051 0.0152189 0 0 0 52 35 54
-0.248057 0.0446987 -0.0606408 0 0 0 210 216 213
-0.249703 0.0430489 -0.0598658 0 0 0 210 214 210
-0.205384 0.0727174 -0.022225 0 0 0 73 74 7
-0.05324 0.0765755 -0.0466463 0 0 0 44 47 53
-0.0752714 0.0793173 -0.00152337 0 0 0 123 98 12
-0.0591043 0.0772093 -0.0225535 0 0 0 114 78 2
-0.0506111 0.0776959 -0.0464369 0 0 0 47 46 57
-0.137782 0.0778902 -0.037582 0 0 0 130 115 89
-0.0430507 0.0777998 -0.0276949 0 0 0 33 14 14
-0.0547259 0.0807095 0.00194479 0 0 0 67 13 23
-0.0295373 0.0802027 -0.00141739 0 0 0 42 40 38
-0.0637358 0.0803501 0.0185507 0 0 0 107 73 3
-0.269874 0.0259083 0.0110263 0 0 0 24 13 18
-0.102296 0.0780326 -0.0302764 0 0 0 141 141 111
-0.111254 0.078179 0.013425 0 0 0 96 72 35
-0.260597 0.028241 0.0230285 0 0 0 46 52 51
-0.272011 0.0262866 -0.00115011 0 0 0 23 22 10
-0.182517 0.0756771 -0.0272109 0 0 0 126 97 54
-0.117973 0.0803554 -0.0062554 0 0 0 134 126 60
-0.223111 0.0777014 0.0126076 0 0 0 14 13 16
-0.193081 0.0757555 -0.0169272 0 0 0 130 124 82
-0.198102 0.0763184 0.00124171 0 0 0 102 85 61
-0.168465 0.0754698 -0.013083 0 0 0 125 100 64
-0.241819 0.0631364 0.00504051 0 0 0 24 26 13
-0.237706 0.0695821 0.00843471 0 0 0 24 21 17
-0.117127 0.0799952 -0.0087745 0 0 0 138 131 75
-0.170907 0.0765757 -0.00473213 0 0 0 133 129 108
-0.0645885 0.0776427 -0.00806848 0 0 0 123 98 9
