ply
format ascii 1.0
element vertex 74
property float x
property float y
property float z
property float nx
property float ny
property float nz
property uchar diffuse_red
property uchar diffuse_green
property uchar diffuse_blue
end_header
-0.100713 0.0744191 -0.0583494 0 0 0 228 231 242
-0.0429993 0.0749175 -0.0590732 0 0 0 254 254 254
-0.244466 0.0576248 0.0241709 0 0 0 184 195 189
-0.16916 0.0705533 -0.0590641 0 0 0 233 232 241
-0.260762 0.056339 -0.0123396 0 0 0 253 250 227
-0.267213 0.0219615 -0.0569187 0 0 0 190 194 189
-0.259724 0.0243671 -0.00484199 0 0 0 242 236 98
-0.139872 0.0701445 -0.0628281 0 0 0 80 72 83
-0.175654 0.0712754 -0.0598025 0 0 0 217 222 237
-0.256971 0.0610638 -0.00817423 0 0 0 252 253 252
-0.259038 0.0542958 -0.0321804 0 0 0 66 68 76
-0.269362 0.0229768 -0.0454326 0 0 0 14 13 13
-0.268119 0.0226933 -0.0443944 0 0 0 14 13 12
-0.139596 0.076846 -0.0270206 0 0 0 138 128 103
-0.257174 0.0290623 0.00160878 0 0 0 238 236 101
-0.222987 0.0702137 -0.0346246 0 0 0 55 20 11
-0.244854 0.0504286 -0.0520086 0 0 0 141 142 162
-0.255253 0.033467 0.00462047 0 0 0 233 220 16
-0.143223 0.0772925 -0.0100046 0 0 0 137 130 92
-0.259834 0.0524569 -0.0358257 0 0 0 72 78 81
-0.239637 0.0594604 -0.0489285 0 0 0 92 63 71
-0.219772 0.0660865 -0.0614867 0 0 0 240 242 244
-0.157452 0.076073 0.0038018 0 0 0 127 101 78
-0.263163 0.0487514 -0.0311502 0 0 0 61 62 66
-0.250134 0.045507 0.00456411 0 0 0 232 216 33
-0.126119 0.0738746 -0.0488038 0 0 0 54 47 29
-0.214071 0.0673505 -0.0602897 0 0 0 243 244 247
-0.238678 0.0642464 -0.000650258 0 0 0 31 33 26
-0.259876 0.0244062 -0.0216361 0 0 0 195 201 194
-0.142318 0.0732888 -0.0472555 0 0 0 46 40 31
-0.229365 0.0665619 -0.0620524 0 0 0 231 234 234
-0.0955301 0.0776216 0.00589909 0 0 0 18 14 10
-0.080269 0.0805335 0.014538 0 0 0 131 119 59
-0.143703 0.0725234 -0.0535032 0 0 0 43 34 31
-0.147536 0.0780851 0.0258929 0 0 0 124 109 60
-0.263641 0.0441203 -0.0168427 0 0 0 254 254 233
-0.148865 0.0785237 0.022326 0 0 0 124 116 73
-0.256911 0.0255354 -0.0473186 0 0 0 44 48 50
-0.20383 0.0679091 -0.0491215 0 0 0 100 47 7
-0.237686 0.0603487 -0.0233145 0 0 0 171 138 57
-0.253711 0.064921 -0.0299695 0 0 0 65 64 67
-0.153029 0.0724895 -0.0459416 0 0 0 106 88 37
-0.0810115 0.0784319 -0.0153975 0 0 0 90 8 10
-0.220272 0.0718265 -0.00875018 0 0 0 117 104 100
-0.223343 0.0732637 0.00356618 0 0 0 92 95 60
-0.267286 0.0212868 -0.0357456 0 0 0 16 15 11
-0.0211304 0.0797793 -0.0174724 0 0 0 56 54 72
-0.142019 0.0747425 -0.0298792 0 0 0 141 135 99
-0.113035 0.0759131 -0.0386484 0 0 0 146 145 116
-0.125806 0.077492 -0.0244965 0 0 0 128 89 63
-0.134828 0.0782458 -0.00728137 0 0 0 141 140 127
-0.0236353 0.0801255 -0.0174128 0 0 0 56 54 61
-0.0523937 0.0758658 -0.0477682 0 0 0 39 47 56
-0.131788 0.0790209 0.0159871 0 0 0 51 43 52
-0.205181 0.0709461 -0.0210938 0 0 0 68 72 7
-0.115798 0.0786149 0.0227504 0 0 0 98 77 34
-0.0589551 0.0768342 -0.0221772 0 0 0 117 79 2
-0.137714 0.0768094 -0.03679 0 0 0 132 122 86
-0.104316 0.0761674 -0.0400135 0 0 0 148 144 125
-0.260763 0.0215297 -0.0300762 0 0 0 173 179 114
-0.0544808 0.080303 0.00230824 0 0 0 68 14 14
-0.251837 0.0422276 0.0215577 0 0 0 82 85 85
-0.0641476 0.0804708 0.0190357 0 0 0 110 77 4
-0.102259 0.0770869 -0.028443 0 0 0 143 144 114
-0.22354 0.0749179 0.0136952 0 0 0 11 11 15
-0.0428238 0.0789514 -0.0257732 0 0 0 34 16 14
-0.117699 0.0795478 -0.00676193 0 0 0 139 131 62
-0.181726 0.0733826 -0.0263514 0 0 0 123 98 48
-0.268329 0.0240118 0.0135815 0 0 0 41 34 8
-0.237702 0.0609779 -0.0597379 0 0 0 224 226 225
-0.117634 0.0797255 -0.00796325 0 0 0 140 134 75
-0.0658541 0.0784992 -0.0074333 0 0 0 128 100 4
-0.110855 0.0773783 0.0128668 0 0 0 97 77 23
-0.170158 0.0731673 -0.0229108 0 0 0 135 134 115
