ply
format ascii 1.0
element vertex 69
property float x
property float y
property float z
property float nx
property float ny
property float nz
property uchar diffuse_red
property uchar diffuse_green
property uchar diffuse_blue
end_header
-0.100971 0.0740725 -0.0590991 0 0 0 222 229 246
-0.0440507 0.0742087 -0.0592544 0 0 0 254 254 254
-0.143123 0.0704813 -0.0649512 0 0 0 230 240 249
-0.24465 0.0609572 0.0226695 0 0 0 185 194 178
-0.268228 0.0245291 -0.0585566 0 0 0 189 192 187
-0.176508 0.073008 -0.0608437 0 0 0 218 226 239
-0.263179 0.0583057 -0.00784455 0 0 0 239 245 215
-0.244799 0.0595414 0.0213816 0 0 0 171 182 168
-0.171962 0.074443 -0.0594529 0 0 0 218 220 238
-0.264809 0.0462468 -0.0143271 0 0 0 254 254 250
-0.260854 0.0285377 -0.00507694 0 0 0 228 223 92
-0.269643 0.0263807 -0.0469349 0 0 0 15 13 9
-0.22258 0.0695009 -0.0625106 0 0 0 236 238 239
-0.259454 0.0573189 -0.0370758 0 0 0 73 77 85
-0.139194 0.0779871 -0.0266999 0 0 0 136 126 98
-0.243772 0.0542723 -0.0543991 0 0 0 162 172 190
-0.220583 0.0720107 -0.0362282 0 0 0 51 18 12
-0.255967 0.035279 0.00290263 0 0 0 236 227 44
-0.141999 0.0795467 -0.0107235 0 0 0 136 128 103
-0.262272 0.0274715 -0.0254197 0 0 0 172 168 146
-0.239284 0.0623416 -0.0504024 0 0 0 91 63 77
-0.125543 0.0748468 -0.0495522 0 0 0 53 47 31
-0.263663 0.0488006 -0.032326 0 0 0 55 59 66
-0.239218 0.068034 -0.000965373 0 0 0 38 34 31
-0.249845 0.0521546 0.00253477 0 0 0 233 228 112
-0.156539 0.0770901 0.00272112 0 0 0 127 99 83
-0.14176 0.0745411 -0.0481148 0 0 0 45 41 32
-0.080028 0.0810548 0.0140762 0 0 0 131 120 62
-0.143114 0.0737675 -0.0543682 0 0 0 45 35 19
-0.0785723 0.0733891 -0.0611773 0 0 0 44 51 57
-0.0974097 0.0804521 0.00561296 0 0 0 19 16 13
-0.257138 0.0287202 -0.0487462 0 0 0 50 52 56
-0.20334 0.0701864 -0.0503858 0 0 0 98 46 5
-0.206271 0.0699986 -0.0652266 0 0 0 241 243 246
-0.238064 0.0641559 -0.0246245 0 0 0 172 137 55
-0.219467 0.0736252 -0.00920049 0 0 0 106 92 70
-0.220946 0.0757072 -0.00114806 0 0 0 125 121 107
-0.151835 0.0731858 -0.0470501 0 0 0 109 87 33
-0.0789588 0.0789832 -0.015793 0 0 0 90 8 15
-0.114062 0.0798815 0.0221554 0 0 0 105 102 69
-0.142226 0.0768111 -0.0305932 0 0 0 141 136 104
-0.267663 0.0247051 -0.0372254 0 0 0 16 14 11
-0.112497 0.0767166 -0.0393154 0 0 0 145 145 116
-0.134465 0.0795737 -0.008114 0 0 0 142 141 120
-0.125338 0.0785814 -0.0252615 0 0 0 131 89 63
-0.0518038 0.0756043 -0.048009 0 0 0 42 46 49
-0.131574 0.0804154 0.0151711 0 0 0 52 41 42
-0.244457 0.0527259 -0.0603217 0 0 0 215 220 217
-0.204225 0.0725967 -0.0225311 0 0 0 68 73 5
-0.0592612 0.0774845 -0.0223433 0 0 0 116 81 6
-0.13717 0.0780368 -0.0376347 0 0 0 131 122 87
-0.103766 0.0768174 -0.0406205 0 0 0 147 146 125
-0.0214933 0.078616 -0.0203638 0 0 0 69 64 54
-0.0541631 0.0803292 0.00202905 0 0 0 68 15 27
-0.229219 0.0751131 0.0115242 0 0 0 12 13 8
-0.0639415 0.080744 0.0186872 0 0 0 112 79 3
-0.101696 0.0779349 -0.0302685 0 0 0 144 147 113
-0.250933 0.0455449 0.0201578 0 0 0 86 89 83
-0.275409 0.0256053 -0.00290365 0 0 0 125 124 86
-0.0415042 0.0781651 -0.0273977 0 0 0 26 21 17
-0.224027 0.0785001 0.0134111 0 0 0 11 11 12
-0.110728 0.0782337 0.0134171 0 0 0 98 76 36
-0.116626 0.0798777 -0.00759245 0 0 0 139 131 69
-0.271015 0.0272737 0.0107881 0 0 0 9 13 10
-0.181305 0.0754028 -0.0274885 0 0 0 123 97 57
-0.0663115 0.0791639 -0.00640767 0 0 0 128 98 13
-0.116549 0.0800484 -0.00879602 0 0 0 139 134 78
-0.095079 0.0799632 -0.0120765 0 0 0 116 82 9
-0.241385 0.0641266 0.00483804 0 0 0 30 30 17
