ply
format ascii 1.0
element vertex 78
property float x
property float y
property float z
property float nx
property float ny
property float nz
property uchar diffuse_red
property uchar diffuse_green
property uchar diffuse_blue
end_header
-0.100814 0.0739239 -0.059274 0 0 0 221 229 246
-0.131165 0.0731744 -0.0636742 0 0 0 244 244 247
-0.0471582 0.0748349 -0.0576526 0 0 0 254 254 254
-0.244167 0.0605355 0.0221041 0 0 0 186 195 188
-0.169813 0.0723611 -0.0615507 0 0 0 220 225 240
-0.174878 0.0730672 -0.0612387 0 0 0 218 225 240
-0.268201 0.0248231 -0.0590242 0 0 0 189 192 187
-0.244875 0.059961 0.0208889 0 0 0 171 182 175
-0.262422 0.0594151 -0.00822936 0 0 0 246 245 183
-0.260357 0.0282099 -0.0067412 0 0 0 242 237 102
-0.139098 0.0712192 -0.0639159 0 0 0 80 74 88
-0.264863 0.0506827 -0.0141284 0 0 0 254 254 253
-0.26 0.05835 -0.0363704 0 0 0 69 77 80
-0.269136 0.0258192 -0.0475994 0 0 0 13 12 19
-0.267907 0.0255204 -0.0465454 0 0 0 12 11 12
-0.25993 0.0584965 -0.0374219 0 0 0 72 78 82
-0.139027 0.0781797 -0.0281568 0 0 0 141 129 109
-0.243678 0.0545114 -0.0548766 0 0 0 163 174 196
-0.222528 0.0729615 -0.035425 0 0 0 54 18 10
-0.257776 0.0329024 -0.000300656 0 0 0 238 236 85
-0.151496 0.0772743 -0.00810989 0 0 0 133 122 93
-0.255798 0.0372912 0.00269718 0 0 0 234 225 13
-0.125407 0.0747855 -0.0497889 0 0 0 54 48 25
-0.239178 0.0625781 -0.0508878 0 0 0 94 69 70
-0.158606 0.0781095 0.00127929 0 0 0 130 114 88
-0.264234 0.0498639 -0.0316148 0 0 0 70 62 58
-0.260562 0.0266584 -0.024932 0 0 0 183 187 183
-0.141628 0.0745259 -0.0483905 0 0 0 45 40 39
-0.0800305 0.0810227 0.0139358 0 0 0 131 119 62
-0.0784117 0.0731767 -0.0612958 0 0 0 44 49 53
-0.142969 0.0737412 -0.0546453 0 0 0 43 36 24
-0.0952639 0.0783437 0.00517353 0 0 0 20 15 14
-0.146612 0.0795482 0.022284 0 0 0 127 113 68
-0.23901 0.0699379 -0.00120067 0 0 0 45 49 37
-0.25169 0.0464628 0.00541278 0 0 0 222 227 58
-0.148645 0.0805648 0.0199274 0 0 0 130 117 80
-0.257124 0.029008 -0.0491965 0 0 0 48 49 55
-0.203213 0.0703282 -0.0508017 0 0 0 106 42 10
-0.197446 0.0713094 -0.0644892 0 0 0 225 233 242
-0.209893 0.0702261 -0.0598068 0 0 0 248 246 246
-0.23745 0.0636186 -0.0252635 0 0 0 173 139 39
-0.244525 0.0515247 -0.0622487 0 0 0 217 220 219
-0.078894 0.0788782 -0.0159259 0 0 0 90 9 11
-0.219288 0.0742071 -0.0118234 0 0 0 124 121 104
-0.142131 0.0768382 -0.0308755 0 0 0 141 137 100
-0.125251 0.0785765 -0.0255067 0 0 0 130 89 52
-0.110795 0.0767616 -0.039506 0 0 0 146 144 116
-0.134496 0.0794685 -0.00720268 0 0 0 141 141 118
-0.267688 0.0250477 -0.0376922 0 0 0 20 15 12
-0.0524927 0.0758411 -0.0466127 0 0 0 48 48 54
-0.221854 0.0749813 0.000373695 0 0 0 100 100 74
-0.166228 0.0789603 0.0221244 0 0 0 133 125 91
-0.13158 0.0805218 0.0149062 0 0 0 54 40 45
-0.250281 0.0418741 -0.0610322 0 0 0 211 214 213
-0.168135 0.0801785 0.0186893 0 0 0 134 130 99
-0.220259 0.075353 -0.0028066 0 0 0 125 120 72
-0.204767 0.0735989 -0.0228109 0 0 0 70 73 5
-0.115665 0.0798555 0.0218239 0 0 0 99 78 32
-0.247568 0.0588652 0.00206066 0 0 0 121 117 43
-0.0591845 0.0773122 -0.0224245 0 0 0 118 81 8
-0.210464 0.0761181 -5.90431e-05 0 0 0 54 58 4
-0.213707 0.0728496 -0.0152604 0 0 0 127 118 39
-0.137055 0.078034 -0.0379075 0 0 0 132 122 90
-0.0179264 0.0766837 -0.027505 0 0 0 66 56 54
-0.0215071 0.0781635 -0.0190256 0 0 0 59 59 51
-0.0556223 0.0815413 0.00212813 0 0 0 67 14 20
-0.06322 0.0800028 0.0185231 0 0 0 112 80 5
-0.101599 0.0778559 -0.0304544 0 0 0 144 145 117
-0.0414136 0.0779341 -0.027437 0 0 0 31 18 17
-0.220802 0.0764842 0.0116632 0 0 0 12 11 18
-0.251585 0.0468383 0.019756 0 0 0 86 89 85
-0.0386485 0.0770444 -0.0356873 0 0 0 44 42 42
-0.116578 0.0798912 -0.00781946 0 0 0 138 133 70
-0.18122 0.0755403 -0.0278629 0 0 0 124 95 42
-0.271293 0.0274384 0.0124549 0 0 0 19 15 15
-0.116498 0.080059 -0.00902323 0 0 0 138 135 76
-0.065453 0.0785458 -0.00788231 0 0 0 126 103 3
-0.110736 0.078281 0.0132082 0 0 0 97 76 30
