ply
format ascii 1.0
element vertex 84
property float x
property float y
property float z
property float nx
property float ny
property float nz
property uchar diffuse_red
property uchar diffuse_green
property uchar diffuse_blue
end_header
-0.101473 0.0754902 -0.0680968 0 0 0 220 227 245
-0.0397071 0.0742578 -0.0682169 0 0 0 254 254 254
-0.0397071 0.0742578 -0.0682169 0 0 0 254 254 254
-0.244486 0.0621995 0.0126012 0 0 0 185 195 178
-0.169776 0.0735626 -0.0707993 0 0 0 218 221 238
-0.267608 0.0272575 -0.0684165 0 0 0 191 194 190
-0.174838 0.0742945 -0.0705061 0 0 0 215 222 238
-0.263896 0.0591614 -0.0256948 0 0 0 252 252 230
-0.245193 0.0616271 0.0113841 0 0 0 172 182 168
-0.260735 0.0299244 -0.0162677 0 0 0 242 239 108
-0.257509 0.0675111 -0.0207807 0 0 0 252 252 252
-0.256669 0.0694854 -0.0182699 0 0 0 254 254 254
-0.259348 0.0607418 -0.0457744 0 0 0 69 78 80
-0.26938 0.0275338 -0.0571545 0 0 0 12 15 14
-0.258876 0.0340264 -0.0110658 0 0 0 242 235 82
-0.268156 0.02723 -0.0560958 0 0 0 12 17 14
-0.140615 0.0792021 -0.0373329 0 0 0 138 127 109
-0.219628 0.0709799 -0.0725136 0 0 0 239 240 242
-0.2212 0.0743746 -0.0448717 0 0 0 49 21 13
-0.248853 0.0540822 -0.0074139 0 0 0 227 224 110
-0.243752 0.0560903 -0.0643708 0 0 0 162 173 190
-0.263817 0.0508466 -0.0423996 0 0 0 65 62 69
-0.142914 0.0799431 -0.0203388 0 0 0 136 130 107
-0.260047 0.0601756 -0.0469786 0 0 0 73 78 82
-0.1254 0.0757771 -0.0588811 0 0 0 53 47 33
-0.226449 0.0715197 -0.0733219 0 0 0 233 235 236
-0.238668 0.0633042 -0.0605684 0 0 0 92 67 72
-0.260883 0.0283545 -0.0344575 0 0 0 184 187 174
-0.251944 0.0482948 -0.00517591 0 0 0 231 227 45
-0.159499 0.0799175 -0.00669128 0 0 0 128 111 86
-0.0772256 0.0804542 0.00622841 0 0 0 130 117 39
-0.141627 0.0756003 -0.0575405 0 0 0 45 39 37
-0.263487 0.0525775 -0.0431381 0 0 0 63 63 68
-0.14295 0.0748157 -0.0637993 0 0 0 43 32 13
-0.0975562 0.0813566 -0.00356679 0 0 0 23 17 15
-0.238773 0.0693122 -0.0121288 0 0 0 34 34 36
-0.206067 0.0714923 -0.0750252 0 0 0 242 243 246
-0.255406 0.0644432 -0.0460615 0 0 0 76 83 85
-0.257347 0.0306607 -0.058712 0 0 0 47 54 57
-0.203224 0.0717086 -0.0601678 0 0 0 103 42 10
-0.25731 0.0365053 -0.00615376 0 0 0 233 234 57
-0.253954 0.0709495 -0.0414815 0 0 0 65 66 65
-0.240419 0.0688434 -0.00792952 0 0 0 49 37 26
-0.247872 0.0502453 -0.0556241 0 0 0 99 103 108
-0.239197 0.0678474 -0.0353637 0 0 0 173 141 63
-0.22131 0.0770883 -0.00783437 0 0 0 117 112 69
-0.152371 0.0750741 -0.0563604 0 0 0 108 91 30
-0.078989 0.0796732 -0.0248561 0 0 0 90 11 11
-0.143627 0.0811346 0.0109967 0 0 0 128 122 79
-0.220136 0.0751284 -0.0224878 0 0 0 125 120 99
-0.113091 0.0782979 -0.0484194 0 0 0 147 144 116
-0.142181 0.0779339 -0.0400299 0 0 0 139 133 99
-0.125993 0.0803183 -0.0344689 0 0 0 129 89 63
-0.134534 0.0807143 -0.0175137 0 0 0 141 141 120
-0.218751 0.075049 -0.0224575 0 0 0 128 120 107
-0.131776 0.0816137 0.00578541 0 0 0 50 42 47
-0.0205232 0.0797507 -0.0288859 0 0 0 60 57 74
-0.0199511 0.0787315 -0.0263349 0 0 0 57 56 60
-0.166296 0.0805475 0.0106055 0 0 0 133 127 100
-0.0291319 0.0821768 -0.00293525 0 0 0 53 50 55
-0.052402 0.0766497 -0.0567407 0 0 0 44 48 55
-0.204257 0.0742212 -0.0323273 0 0 0 65 72 11
-0.165161 0.0787116 0.0127573 0 0 0 131 124 92
-0.0762729 0.0811643 -0.0103278 0 0 0 126 102 12
-0.0585329 0.0773232 -0.0314022 0 0 0 118 80 4
-0.018579 0.0748005 -0.0491114 0 0 0 58 61 51
-0.246726 0.0588252 -0.0076571 0 0 0 117 117 43
-0.137074 0.0790967 -0.0470449 0 0 0 133 121 85
-0.213832 0.0743207 -0.024667 0 0 0 125 118 40
-0.21049 0.0755644 -0.0176173 0 0 0 77 71 15
-0.0542911 0.0808908 -0.00688958 0 0 0 67 13 20
-0.222704 0.0806016 0.00141421 0 0 0 14 12 19
-0.0634327 0.0807562 0.00964752 0 0 0 112 77 6
-0.0414728 0.0785291 -0.036232 0 0 0 28 21 14
-0.112327 0.0806996 0.00430786 0 0 0 100 78 30
-0.0433935 0.076763 -0.0366115 0 0 0 42 13 6
-0.102346 0.0794564 -0.0393271 0 0 0 144 146 113
-0.117386 0.081602 -0.0167807 0 0 0 140 132 71
-0.181915 0.077608 -0.0370101 0 0 0 123 96 57
-0.117301 0.0817678 -0.0179824 0 0 0 141 135 80
-0.271592 0.0295246 0.000742136 0 0 0 10 12 14
-0.0655786 0.0792821 -0.0167641 0 0 0 127 102 7
-0.259503 0.0281182 -0.0513556 0 0 0 142 139 163
-0.253825 0.049541 0.0102265 0 0 0 81 83 84
