ply
format ascii 1.0
element vertex 78
property float x
property float y
property float z
property float nx
property float ny
property float nz
property uchar diffuse_red
property uchar diffuse_green
property uchar diffuse_blue
end_header
-0.10146 0.0750057 -0.0678525 0 0 0 222 230 244
-0.0396871 0.0741663 -0.0680279 0 0 0 254 254 254
-0.0365767 0.0729004 -0.0670232 0 0 0 254 254 254
-0.169751 0.0726408 -0.0704907 0 0 0 219 222 238
-0.2448 0.0618738 0.0119947 0 0 0 185 199 179
-0.175453 0.0741039 -0.069995 0 0 0 217 223 239
-0.261361 0.061106 -0.0224603 0 0 0 252 250 219
-0.257471 0.0659373 -0.019344 0 0 0 252 253 253
-0.260105 0.030098 -0.015562 0 0 0 239 243 103
-0.266702 0.0249827 -0.0692689 0 0 0 189 193 189
-0.265354 0.0519431 -0.0241981 0 0 0 254 254 250
-0.259757 0.0601301 -0.0451999 0 0 0 69 77 77
-0.257299 0.0323138 -0.00949937 0 0 0 238 235 85
-0.269554 0.0268787 -0.0565239 0 0 0 13 13 18
-0.268329 0.0265828 -0.0554682 0 0 0 14 14 13
-0.219588 0.0697392 -0.0721569 0 0 0 240 240 241
-0.141349 0.0790702 -0.0357409 0 0 0 136 128 120
-0.221947 0.0724143 -0.0446728 0 0 0 53 19 10
-0.248333 0.0502849 -0.00737111 0 0 0 230 226 112
-0.142885 0.0792419 -0.0200611 0 0 0 135 131 108
-0.260453 0.0595593 -0.0464007 0 0 0 72 77 80
-0.243684 0.0545561 -0.0628978 0 0 0 141 159 174
-0.239131 0.0627854 -0.0599932 0 0 0 93 67 65
-0.12538 0.0751494 -0.0586153 0 0 0 52 48 35
-0.0779033 0.0808836 0.00651185 0 0 0 130 115 39
-0.262529 0.0518072 -0.0425711 0 0 0 62 64 67
-0.256317 0.0364307 -0.0154805 0 0 0 212 207 36
-0.159456 0.0791242 -0.00639839 0 0 0 129 109 86
-0.260536 0.0268896 -0.0340214 0 0 0 182 186 176
-0.141604 0.0748707 -0.0572596 0 0 0 46 41 33
-0.0975216 0.0809605 -0.00333188 0 0 0 21 18 12
-0.142927 0.0740714 -0.0635164 0 0 0 42 35 21
-0.078352 0.073581 -0.0699933 0 0 0 46 48 44
-0.238667 0.0680093 -0.0117531 0 0 0 33 34 34
-0.256196 0.035829 -0.00557291 0 0 0 235 234 47
-0.257036 0.0291944 -0.0582813 0 0 0 45 53 71
-0.151334 0.079886 0.0130714 0 0 0 131 118 70
-0.203177 0.0705844 -0.0598268 0 0 0 104 45 6
-0.239176 0.0663723 -0.0339196 0 0 0 170 139 57
-0.152343 0.0742773 -0.0560692 0 0 0 107 90 43
-0.0789634 0.0793743 -0.0246365 0 0 0 90 9 10
-0.221175 0.0760482 -0.00855634 0 0 0 123 116 94
-0.220316 0.0769275 -0.00947575 0 0 0 127 123 109
-0.141488 0.0764829 -0.0398951 0 0 0 141 136 104
-0.13087 0.0818138 0.00622143 0 0 0 48 38 36
-0.218691 0.0738631 -0.0221057 0 0 0 127 123 103
-0.267626 0.0252432 -0.0467972 0 0 0 20 15 12
-0.112384 0.0770474 -0.0483201 0 0 0 148 145 118
-0.125979 0.0797108 -0.034207 0 0 0 131 89 56
-0.134507 0.0800691 -0.0172444 0 0 0 144 142 122
-0.0228193 0.0805752 -0.0313389 0 0 0 66 64 52
-0.167725 0.0797104 0.0108059 0 0 0 133 128 102
-0.253193 0.0700887 -0.0398991 0 0 0 68 66 50
-0.0523866 0.0764887 -0.0565424 0 0 0 43 50 43
-0.0280886 0.0809202 -0.00968988 0 0 0 48 45 40
-0.204201 0.0731179 -0.0319879 0 0 0 68 73 5
-0.0762437 0.080897 -0.0101122 0 0 0 126 101 11
-0.0240835 0.0778481 -0.0482964 0 0 0 52 56 60
-0.0592344 0.0778219 -0.0310792 0 0 0 116 81 6
-0.137064 0.0784063 -0.0467716 0 0 0 133 119 88
-0.213769 0.073164 -0.0243189 0 0 0 125 118 35
-0.0557436 0.0821058 -0.00652585 0 0 0 68 13 18
-0.041541 0.0782784 -0.03474 0 0 0 34 16 14
-0.261429 0.0296078 0.0120664 0 0 0 49 53 54
-0.221538 0.0776517 0.00266238 0 0 0 12 13 16
-0.102331 0.0789947 -0.039086 0 0 0 143 146 113
-0.209851 0.0770591 -0.00787181 0 0 0 64 60 8
-0.0433609 0.0766791 -0.0364215 0 0 0 40 14 8
-0.210354 0.0745858 -0.0183646 0 0 0 82 84 10
-0.11228 0.0802174 0.00455689 0 0 0 98 78 36
-0.0633831 0.0805904 0.00985182 0 0 0 111 78 5
-0.116671 0.0803527 -0.0166329 0 0 0 141 132 64
-0.0642077 0.0810928 0.01118 0 0 0 111 80 5
-0.116588 0.0805181 -0.0178368 0 0 0 142 134 77
-0.181253 0.0758731 -0.0368401 0 0 0 124 97 54
-0.066364 0.0795801 -0.0151874 0 0 0 127 100 8
-0.202918 0.0777469 -0.00295102 0 0 0 97 82 6
-0.258359 0.0624069 -0.0393368 0 0 0 63 53 77
