ply
format ascii 1.0
element vertex 73
property float x
property float y
property float z
property float nx
property float ny
property float nz
property uchar diffuse_red
property uchar diffuse_green
property uchar diffuse_blue
end_header
-0.101487 0.0744557 -0.0591715 0 0 0 214 224 244
-0.13192 0.0733199 -0.0622857 0 0 0 242 248 248
-0.143624 0.070664 -0.0650069 0 0 0 225 235 250
-0.244427 0.0598473 0.0215162 0 0 0 180 197 181
-0.170479 0.0723785 -0.0612514 0 0 0 214 220 241
-0.033862 0.073955 -0.0584991 0 0 0 254 254 254
-0.267704 0.0248343 -0.0584487 0 0 0 187 193 193
-0.17491 0.0722872 -0.0611284 0 0 0 212 221 242
-0.257865 0.0648449 -0.00965138 0 0 0 253 253 253
-0.180779 0.0722015 -0.0609569 0 0 0 210 223 241
-0.259783 0.0581657 -0.0346544 0 0 0 62 75 81
-0.269405 0.0250369 -0.0471743 0 0 0 10 12 19
-0.214005 0.0695753 -0.0616441 0 0 0 239 241 245
-0.257429 0.0311689 4.0838e-06 0 0 0 234 235 90
-0.22312 0.0724876 -0.0349691 0 0 0 50 16 13
-0.139639 0.0783121 -0.0279275 0 0 0 137 124 114
-0.24504 0.0530522 -0.0535 0 0 0 136 150 163
-0.264638 0.0490614 -0.0311188 0 0 0 66 60 66
-0.260641 0.0561735 -0.0372406 0 0 0 69 76 82
-0.14184 0.0789403 -0.0108898 0 0 0 129 123 99
-0.239736 0.0620331 -0.0504199 0 0 0 89 66 68
-0.264038 0.0525322 -0.0325813 0 0 0 59 61 66
-0.256006 0.0364319 0.00312342 0 0 0 228 223 13
-0.239673 0.0676662 -0.000976035 0 0 0 35 31 32
-0.126742 0.0758145 -0.0494329 0 0 0 51 46 28
-0.142272 0.0747102 -0.0481662 0 0 0 44 37 39
-0.251959 0.0456247 0.00585955 0 0 0 219 226 37
-0.156966 0.0772907 0.00152556 0 0 0 123 106 78
-0.0972095 0.0800798 0.00545586 0 0 0 17 11 12
-0.141425 0.0732878 -0.0546277 0 0 0 43 37 27
-0.260249 0.0249865 -0.0246827 0 0 0 177 184 175
-0.0767899 0.0794025 0.015131 0 0 0 122 109 43
-0.256928 0.0353809 0.00513033 0 0 0 200 218 66
-0.257423 0.0283222 -0.0487953 0 0 0 43 49 56
-0.149205 0.0802883 0.0213512 0 0 0 121 108 72
-0.203831 0.0700548 -0.0504117 0 0 0 100 39 12
-0.240228 0.0663011 -0.0241699 0 0 0 166 140 45
-0.255184 0.0678564 -0.0315503 0 0 0 58 66 79
-0.153001 0.0740434 -0.0469189 0 0 0 101 86 30
-0.220257 0.0749008 0.0021075 0 0 0 117 111 87
-0.0794772 0.0794227 -0.0158705 0 0 0 86 9 5
-0.131223 0.0813675 0.0152914 0 0 0 43 36 37
-0.142068 0.0762267 -0.0307939 0 0 0 134 130 102
-0.267922 0.0242414 -0.0372741 0 0 0 20 14 14
-0.113016 0.0770192 -0.0393789 0 0 0 140 141 117
-0.134299 0.0790072 -0.00827891 0 0 0 135 135 123
-0.219152 0.0730273 -0.0125864 0 0 0 123 119 107
-0.169419 0.0803532 0.0213502 0 0 0 124 117 91
-0.250713 0.0412815 -0.0606052 0 0 0 206 212 215
-0.126548 0.0795195 -0.0251749 0 0 0 127 85 70
-0.205327 0.0732148 -0.0224051 0 0 0 63 72 4
-0.023546 0.0806302 -0.0202299 0 0 0 63 62 59
-0.0530637 0.0768799 -0.0479408 0 0 0 39 46 53
-0.0751454 0.0797035 -0.00280912 0 0 0 123 96 12
-0.0590365 0.0773604 -0.0225601 0 0 0 111 79 6
-0.0233133 0.0776706 -0.0153441 0 0 0 54 52 52
-0.261433 0.0244285 -0.0315634 0 0 0 167 172 115
-0.260699 0.0289044 0.022816 0 0 0 44 52 51
-0.137695 0.0782158 -0.0376843 0 0 0 126 116 85
-0.0561729 0.0821981 0.00212447 0 0 0 65 10 17
-0.110144 0.078578 0.024601 0 0 0 91 53 36
-0.251881 0.0457966 0.0212754 0 0 0 83 89 91
-0.210866 0.0736247 -0.0077976 0 0 0 88 71 12
-0.0438074 0.0783792 -0.0262465 0 0 0 34 12 18
-0.102924 0.0789777 -0.0301905 0 0 0 138 141 115
-0.220612 0.0752071 0.0109603 0 0 0 16 12 17
-0.0637103 0.0805443 0.018536 0 0 0 104 74 6
-0.0439258 0.0770148 -0.0278701 0 0 0 37 17 10
-0.221949 0.0765071 0.013288 0 0 0 14 12 7
-0.24111 0.0643168 0.00603885 0 0 0 84 78 31
-0.113336 0.0806033 0.0135932 0 0 0 91 70 32
-0.18181 0.0753522 -0.0275192 0 0 0 120 94 50
-0.028365 0.0815799 -0.00383374 0 0 0 45 48 49
