ply
format ascii 1.0
element vertex 73
property float x
property float y
property float z
property float nx
property float ny
property float nz
property uchar diffuse_red
property uchar diffuse_green
property uchar diffuse_blue
end_header
-0.101983 0.0747334 -0.0589409 0 0 0 223 229 246
-0.170296 0.0708739 -0.0607412 0 0 0 218 221 238
-0.245242 0.0581436 0.0238571 0 0 0 186 196 167
-0.261512 0.0574089 -0.0136174 0 0 0 252 253 241
-0.175376 0.0714526 -0.0603631 0 0 0 216 222 238
-0.266879 0.0216572 -0.0579356 0 0 0 190 193 191
-0.245371 0.0567477 0.022549 0 0 0 170 187 157
-0.259658 0.0257909 -0.00422814 0 0 0 240 246 99
-0.257611 0.063482 -0.00806171 0 0 0 253 252 253
-0.140243 0.0712303 -0.0632296 0 0 0 82 75 104
-0.259807 0.0556036 -0.0334564 0 0 0 69 76 80
-0.266081 0.0431041 -0.0143621 0 0 0 254 254 234
-0.257303 0.0289736 0.000887097 0 0 0 239 237 84
-0.269016 0.0225267 -0.0464165 0 0 0 14 13 20
-0.218737 0.0668415 -0.0618957 0 0 0 240 241 243
-0.268293 0.0231064 -0.0451722 0 0 0 14 13 14
-0.140687 0.0780371 -0.0260073 0 0 0 138 127 110
-0.255885 0.0343771 0.00299488 0 0 0 217 209 13
-0.221992 0.0704563 -0.0338612 0 0 0 48 20 15
-0.245138 0.0510124 -0.0524929 0 0 0 141 141 173
-0.142701 0.0785583 -0.0101467 0 0 0 134 129 106
-0.127177 0.075548 -0.0489872 0 0 0 52 46 28
-0.249285 0.0479054 0.00340148 0 0 0 232 229 104
-0.260453 0.0552099 -0.035711 0 0 0 73 78 84
-0.239949 0.060026 -0.0493143 0 0 0 93 65 71
-0.264493 0.0463713 -0.0300257 0 0 0 68 62 83
-0.238936 0.0642479 -0.00098458 0 0 0 34 33 39
-0.15848 0.0768605 0.00475646 0 0 0 127 89 58
-0.142678 0.0741826 -0.0476177 0 0 0 46 41 40
-0.0806295 0.0807239 0.0154125 0 0 0 131 117 55
-0.0980017 0.0801054 0.00583814 0 0 0 22 16 8
-0.0788647 0.0738758 -0.061416 0 0 0 42 49 58
-0.144069 0.0734857 -0.053872 0 0 0 44 36 21
-0.14876 0.0769241 0.0277326 0 0 0 126 115 56
-0.261534 0.0232415 -0.0238201 0 0 0 167 169 139
-0.147895 0.0767551 0.0241757 0 0 0 124 111 67
-0.2571 0.0260228 -0.0480787 0 0 0 46 50 53
-0.220809 0.0733443 0.00230971 0 0 0 126 122 96
-0.204173 0.0686047 -0.049459 0 0 0 103 41 13
-0.210833 0.0688708 -0.0605929 0 0 0 244 244 246
-0.237381 0.0598056 -0.0238685 0 0 0 174 136 48
-0.246 0.048144 -0.0599085 0 0 0 216 219 218
-0.153384 0.0733296 -0.0462979 0 0 0 106 87 32
-0.0813433 0.0791708 -0.0157889 0 0 0 91 8 14
-0.132075 0.0792089 0.0156729 0 0 0 54 44 51
-0.267967 0.0224723 -0.0363477 0 0 0 18 16 14
-0.143041 0.0761502 -0.0300572 0 0 0 139 134 105
-0.112517 0.0776551 -0.0388411 0 0 0 147 145 119
-0.251467 0.0385104 -0.0598987 0 0 0 209 213 210
-0.219847 0.0715429 -0.0113231 0 0 0 124 124 110
-0.0218633 0.0785791 -0.040444 0 0 0 60 60 44
-0.135147 0.0786963 -0.00759876 0 0 0 141 140 122
-0.126148 0.0781772 -0.0248345 0 0 0 129 89 58
-0.253888 0.0665976 -0.0288852 0 0 0 68 64 61
-0.0190015 0.0792988 -0.0209948 0 0 0 56 60 67
-0.0535822 0.07753 -0.0467558 0 0 0 47 48 48
-0.167354 0.0761002 0.0219203 0 0 0 133 124 96
-0.0592913 0.0777319 -0.0226183 0 0 0 116 82 7
-0.138071 0.0775964 -0.0371181 0 0 0 132 121 90
-0.214946 0.0709936 -0.0136128 0 0 0 129 117 36
-0.0538718 0.081819 0.00209061 0 0 0 57 11 18
-0.0644363 0.0808654 0.0186418 0 0 0 112 79 4
-0.210865 0.0715793 -0.00782973 0 0 0 82 85 11
-0.224538 0.0752581 0.0156977 0 0 0 11 12 9
-0.0424121 0.0793068 -0.0263591 0 0 0 32 16 4
-0.112631 0.0788745 0.0139043 0 0 0 97 77 30
-0.103258 0.0787836 -0.0298827 0 0 0 145 144 113
-0.258879 0.0587945 -0.0284175 0 0 0 62 55 76
-0.066241 0.0789957 -0.00657739 0 0 0 128 101 12
-0.117314 0.0793572 -0.00721779 0 0 0 139 132 61
-0.182702 0.0746414 -0.0264874 0 0 0 123 97 58
-0.117251 0.0795496 -0.0084189 0 0 0 140 135 75
-0.235072 0.0732788 0.015973 0 0 0 12 12 8
