ply
format ascii 1.0
element vertex 76
property float x
property float y
property float z
property float nx
property float ny
property float nz
property uchar diffuse_red
property uchar diffuse_green
property uchar diffuse_blue
end_header
-0.100436 0.0750803 -0.0590022 0 0 0 230 234 239
-0.131694 0.0732006 -0.0634732 0 0 0 246 245 247
-0.0427171 0.0750545 -0.0594069 0 0 0 254 254 254
-0.261591 0.0578627 -0.0150879 0 0 0 253 253 235
-0.170323 0.0719681 -0.0612087 0 0 0 224 225 239
-0.176034 0.0733744 -0.0606612 0 0 0 219 226 239
-0.268202 0.0233901 -0.0586878 0 0 0 189 190 185
-0.24493 0.0581296 0.021415 0 0 0 171 182 171
-0.260189 0.0264408 -0.0064097 0 0 0 241 234 103
-0.260108 0.0582336 -0.0344113 0 0 0 67 75 81
-0.25099 0.0526622 0.00169712 0 0 0 235 223 31
-0.269102 0.0242851 -0.047252 0 0 0 14 15 18
-0.267866 0.0239908 -0.0462051 0 0 0 14 15 11
-0.219413 0.068156 -0.0649869 0 0 0 241 242 244
-0.140325 0.0770304 -0.0280593 0 0 0 138 129 103
-0.219547 0.0678325 -0.0628032 0 0 0 241 242 244
-0.25626 0.0342653 -0.00492098 0 0 0 213 207 28
-0.222343 0.0710098 -0.0350553 0 0 0 54 19 17
-0.257099 0.0302404 -5.77188e-05 0 0 0 239 235 94
-0.244038 0.0531382 -0.0533172 0 0 0 142 156 175
-0.260261 0.0568186 -0.0357972 0 0 0 70 76 82
-0.143185 0.0783082 -0.010891 0 0 0 139 133 103
-0.23897 0.0605551 -0.0505653 0 0 0 93 66 54
-0.125899 0.0747605 -0.0495976 0 0 0 54 48 42
-0.215172 0.069246 -0.0626094 0 0 0 245 245 247
-0.159664 0.0779036 0.00287728 0 0 0 129 110 87
-0.255441 0.0370978 0.00335277 0 0 0 233 214 21
-0.261699 0.0253175 -0.025703 0 0 0 174 168 138
-0.14211 0.074321 -0.0481392 0 0 0 47 42 39
-0.264922 0.0491117 -0.0309191 0 0 0 72 61 78
-0.253093 0.0435288 0.00339729 0 0 0 217 205 43
-0.097013 0.0795785 0.00546475 0 0 0 19 16 11
-0.078047 0.0802739 0.0152737 0 0 0 129 117 39
-0.239066 0.0644116 -0.00128774 0 0 0 35 24 36
-0.143467 0.0735724 -0.054395 0 0 0 44 38 25
-0.0789345 0.0737328 -0.0612964 0 0 0 44 49 55
-0.205194 0.0693521 -0.0652486 0 0 0 241 245 248
-0.221837 0.075408 -0.000936668 0 0 0 125 123 104
-0.25713 0.0276114 -0.0488693 0 0 0 46 53 76
-0.245604 0.0496179 -0.0619467 0 0 0 216 218 219
-0.203658 0.069502 -0.0503488 0 0 0 106 43 7
-0.152765 0.0800185 0.0224461 0 0 0 134 118 78
-0.20472 0.0682391 -0.0632517 0 0 0 244 246 248
-0.238297 0.0630567 -0.0245736 0 0 0 172 140 60
-0.220418 0.073223 -0.00791265 0 0 0 105 87 77
-0.152173 0.0728815 -0.0470682 0 0 0 110 86 33
-0.0809369 0.0788856 -0.0159394 0 0 0 92 8 15
-0.21582 0.0773835 0.0106741 0 0 0 108 106 32
-0.142569 0.076488 -0.0306045 0 0 0 141 135 100
-0.111969 0.0775087 -0.0391908 0 0 0 148 147 119
-0.252973 0.0675179 -0.0302772 0 0 0 65 67 55
-0.267608 0.0234497 -0.0373568 0 0 0 17 14 12
-0.125687 0.0783589 -0.0252864 0 0 0 130 90 62
-0.134797 0.0791833 -0.0081208 0 0 0 143 141 123
-0.0223312 0.0815578 -0.0214172 0 0 0 59 54 66
-0.052165 0.0760808 -0.0481532 0 0 0 44 48 46
-0.132568 0.0806351 0.0152473 0 0 0 52 43 37
-0.0218389 0.0791708 -0.0205339 0 0 0 71 61 63
-0.204521 0.0717475 -0.0224797 0 0 0 69 73 4
-0.238247 0.0623068 -0.0623892 0 0 0 224 225 225
-0.0764206 0.0806543 -0.00261324 0 0 0 127 100 22
-0.210788 0.0769508 0.0230544 0 0 0 39 34 52
-0.0588587 0.0770919 -0.0225982 0 0 0 116 80 3
-0.137533 0.0777927 -0.037646 0 0 0 135 122 90
-0.213432 0.0708353 -0.0148899 0 0 0 127 119 40
-0.104124 0.0768492 -0.0406853 0 0 0 147 146 124
-0.0544886 0.0805037 0.00191403 0 0 0 68 13 18
-0.102757 0.0786193 -0.0301809 0 0 0 144 146 113
-0.043752 0.0768125 -0.0279236 0 0 0 40 15 7
-0.225025 0.0767203 0.0123039 0 0 0 11 13 11
-0.112429 0.0793152 0.0135358 0 0 0 98 77 32
-0.11766 0.0803292 -0.0075058 0 0 0 140 133 62
-0.18227 0.0755211 -0.0272956 0 0 0 124 98 54
-0.268381 0.0252675 0.0118694 0 0 0 42 33 6
-0.0658238 0.0788098 -0.00789148 0 0 0 128 101 4
-0.116886 0.0798007 -0.00882518 0 0 0 142 136 73
