ply
format ascii 1.0
element vertex 79
property float x
property float y
property float z
property float nx
property float ny
property float nz
property uchar diffuse_red
property uchar diffuse_green
property uchar diffuse_blue
end_header
-0.101887 0.0746223 -0.058972 0 0 0 219 227 243
-0.170815 0.0724882 -0.0610502 0 0 0 220 223 239
-0.244119 0.0591421 0.0215027 0 0 0 185 198 184
-0.174482 0.0730152 -0.0596201 0 0 0 217 224 237
-0.143386 0.0698914 -0.0638143 0 0 0 221 229 244
-0.266807 0.0231571 -0.0586552 0 0 0 188 192 188
-0.260157 0.0265991 -0.00632854 0 0 0 240 235 106
-0.264594 0.0507859 -0.0144009 0 0 0 254 254 253
-0.25977 0.0545486 -0.0374367 0 0 0 72 76 82
-0.269536 0.0251247 -0.0469767 0 0 0 16 11 16
-0.26779 0.023953 -0.0461198 0 0 0 14 13 10
-0.139423 0.0775732 -0.0267486 0 0 0 138 127 112
-0.222156 0.0711285 -0.0362401 0 0 0 53 21 13
-0.243918 0.0530345 -0.053354 0 0 0 142 159 179
-0.257793 0.0298369 -0.00123542 0 0 0 240 235 84
-0.259547 0.0561239 -0.0371045 0 0 0 72 79 84
-0.141556 0.0783781 -0.0108909 0 0 0 137 128 102
-0.219398 0.0676503 -0.0628867 0 0 0 240 241 243
-0.215022 0.0690595 -0.0626949 0 0 0 243 244 246
-0.255408 0.0373007 0.00338443 0 0 0 232 215 26
-0.261645 0.0253781 -0.0256176 0 0 0 168 166 140
-0.249894 0.0510027 0.00250099 0 0 0 232 227 115
-0.239414 0.0612852 -0.0504337 0 0 0 93 69 66
-0.125757 0.0745338 -0.0496059 0 0 0 55 46 30
-0.228981 0.0682216 -0.0635193 0 0 0 232 234 235
-0.158847 0.0774083 0.00156068 0 0 0 130 113 90
-0.141971 0.0741212 -0.0481646 0 0 0 45 37 40
-0.23873 0.0662788 -0.00217181 0 0 0 34 34 33
-0.0788848 0.0794659 0.0151133 0 0 0 130 116 59
-0.0969308 0.0796012 0.00546504 0 0 0 22 16 8
-0.2643 0.0482868 -0.0311298 0 0 0 70 63 63
-0.14112 0.0726956 -0.0546248 0 0 0 45 39 31
-0.0787806 0.0733892 -0.0612436 0 0 0 44 49 56
-0.256509 0.0347985 0.00404957 0 0 0 234 237 55
-0.264668 0.0463956 -0.0293338 0 0 0 79 86 91
-0.257047 0.0275469 -0.0487899 0 0 0 47 48 65
-0.147485 0.0796322 0.0226044 0 0 0 127 113 65
-0.194937 0.0704198 -0.0642326 0 0 0 224 230 241
-0.203522 0.0693649 -0.0504222 0 0 0 104 42 10
-0.148858 0.0799023 0.0201888 0 0 0 130 118 78
-0.250286 0.0406642 -0.061696 0 0 0 209 212 213
-0.237053 0.0614435 -0.0249673 0 0 0 170 138 65
-0.152037 0.0726995 -0.047098 0 0 0 107 88 33
-0.0791921 0.0789578 -0.0158564 0 0 0 91 8 11
-0.220261 0.073479 -0.00910324 0 0 0 106 93 78
-0.224464 0.0769178 0.00125996 0 0 0 100 103 70
-0.142448 0.0763793 -0.0306418 0 0 0 140 134 105
-0.254117 0.0678132 -0.0314224 0 0 0 66 71 63
-0.111137 0.0766149 -0.0393567 0 0 0 146 146 122
-0.267543 0.0234572 -0.0372686 0 0 0 19 14 12
-0.12557 0.0782573 -0.0253134 0 0 0 129 89 59
-0.134699 0.0791813 -0.00816309 0 0 0 143 140 121
-0.132496 0.080751 0.0151998 0 0 0 51 43 45
-0.0528474 0.0762501 -0.0466226 0 0 0 47 47 50
-0.167077 0.0788815 0.0224976 0 0 0 133 123 91
-0.204415 0.0717553 -0.0225661 0 0 0 66 74 4
-0.0587464 0.0769238 -0.0225394 0 0 0 116 81 4
-0.137402 0.0776415 -0.0376839 0 0 0 132 122 83
-0.240172 0.0573858 -0.0624491 0 0 0 219 221 221
-0.0544011 0.0804569 0.00196002 0 0 0 68 15 20
-0.260342 0.0281739 0.0228201 0 0 0 46 52 51
-0.127698 0.0780148 -0.0302917 0 0 0 127 78 33
-0.101926 0.0777681 -0.0303267 0 0 0 144 146 112
-0.0417359 0.0783905 -0.027471 0 0 0 28 21 13
-0.22418 0.0776629 0.0123197 0 0 0 12 11 15
-0.0207599 0.0798815 -0.0202512 0 0 0 56 55 51
-0.199342 0.075882 0.00320385 0 0 0 98 87 55
-0.256293 0.0292692 -0.0608494 0 0 0 201 203 201
-0.116862 0.0796017 -0.00764591 0 0 0 139 132 64
-0.182154 0.0754773 -0.027375 0 0 0 124 99 55
-0.110948 0.0779858 0.0133613 0 0 0 97 77 32
-0.0198481 0.0741169 -0.0407002 0 0 0 55 55 66
-0.258526 0.0606558 -0.0296765 0 0 0 65 53 78
-0.0634356 0.0801288 0.0185533 0 0 0 111 76 3
-0.116787 0.0797736 -0.00884941 0 0 0 140 133 77
-0.270701 0.0274499 0.0120663 0 0 0 26 17 16
-0.0665438 0.0792165 -0.00647421 0 0 0 125 100 8
-0.268888 0.0264152 0.0120378 0 0 0 43 32 22
-0.252263 0.0444966 0.0200443 0 0 0 80 81 84
