ply
format ascii 1.0
element vertex 74
property float x
property float y
property float z
property float nx
property float ny
property float nz
property uchar diffuse_red
property uchar diffuse_green
property uchar diffuse_blue
end_header
-0.101582 0.0749886 -0.0591794 0 0 0 220 227 242
-0.0455361 0.075904 -0.0577778 0 0 0 254 254 254
-0.169863 0.0721326 -0.0615861 0 0 0 223 224 239
-0.174176 0.0734101 -0.0599549 0 0 0 218 223 237
-0.261353 0.0581311 -0.0146489 0 0 0 253 252 210
-0.244591 0.0600253 0.0221486 0 0 0 184 194 177
-0.267035 0.0244619 -0.0590693 0 0 0 191 193 190
-0.245294 0.0594523 0.0209331 0 0 0 171 183 164
-0.260484 0.0277545 -0.00681221 0 0 0 242 238 97
-0.256787 0.0635397 -0.0103065 0 0 0 253 253 253
-0.264602 0.0495065 -0.0152456 0 0 0 254 254 251
-0.26927 0.0255204 -0.0476033 0 0 0 12 12 23
-0.267525 0.0243457 -0.0467467 0 0 0 11 14 17
-0.139171 0.0778653 -0.0270117 0 0 0 139 130 105
-0.244415 0.0526979 -0.0540192 0 0 0 141 147 169
-0.221104 0.0722188 -0.0365025 0 0 0 49 20 16
-0.261345 0.0258713 -0.0273204 0 0 0 182 185 150
-0.254908 0.0393124 0.00200301 0 0 0 216 206 10
-0.228671 0.0686473 -0.0639595 0 0 0 233 235 236
-0.222451 0.0689805 -0.0629712 0 0 0 239 240 241
-0.143537 0.0792818 -0.0110848 0 0 0 138 132 103
-0.257157 0.0331714 -0.000200174 0 0 0 230 219 58
-0.239872 0.0666388 -0.00267086 0 0 0 31 26 33
-0.125469 0.0748833 -0.0498541 0 0 0 54 47 45
-0.239128 0.0616791 -0.0509105 0 0 0 91 61 74
-0.249443 0.0486687 0.0026724 0 0 0 239 236 84
-0.259831 0.0573397 -0.0374474 0 0 0 72 76 84
-0.15938 0.0782072 0.00251565 0 0 0 130 109 87
-0.264052 0.0486373 -0.0316843 0 0 0 70 60 82
-0.141685 0.0744728 -0.0484413 0 0 0 46 39 34
-0.0769829 0.0799808 0.0138151 0 0 0 129 119 45
-0.0784726 0.0737531 -0.0614153 0 0 0 44 49 56
-0.0967336 0.0797896 0.00527925 0 0 0 22 14 13
-0.143025 0.0737111 -0.0546991 0 0 0 44 36 30
-0.262848 0.0514065 -0.0343673 0 0 0 59 64 63
-0.148235 0.078828 0.0233226 0 0 0 127 111 64
-0.256776 0.027943 -0.0493888 0 0 0 48 50 57
-0.14876 0.0799012 0.0210736 0 0 0 125 116 71
-0.250532 0.0419425 -0.0620288 0 0 0 211 213 211
-0.203233 0.0697454 -0.0508162 0 0 0 106 42 20
-0.239104 0.0650679 -0.0248104 0 0 0 172 140 56
-0.152415 0.0737901 -0.0472162 0 0 0 108 91 36
-0.220686 0.0733275 -0.0118264 0 0 0 128 124 98
-0.078959 0.0791979 -0.0160138 0 0 0 92 8 11
-0.253861 0.0681606 -0.0319064 0 0 0 64 68 82
-0.0230209 0.0804838 -0.0202618 0 0 0 70 63 52
-0.14219 0.0766832 -0.0309133 0 0 0 141 133 104
-0.267293 0.0238257 -0.0378964 0 0 0 19 14 16
-0.112449 0.0768004 -0.0395923 0 0 0 148 145 112
-0.20061 0.0691751 -0.0636623 0 0 0 217 224 241
-0.134479 0.079421 -0.00841392 0 0 0 143 140 131
-0.125321 0.0785405 -0.0255512 0 0 0 129 89 64
-0.225065 0.0775042 0.00415443 0 0 0 64 69 28
-0.131626 0.0802051 0.014878 0 0 0 51 41 46
-0.166909 0.0790494 0.0221909 0 0 0 132 125 92
-0.204788 0.0728467 -0.0228061 0 0 0 70 75 4
-0.05248 0.076753 -0.0480376 0 0 0 45 49 61
-0.0585853 0.0769878 -0.021384 0 0 0 118 82 6
-0.137132 0.0779628 -0.0379434 0 0 0 133 122 86
-0.255735 0.0313117 -0.0610659 0 0 0 203 206 205
-0.222017 0.0770042 0.0118841 0 0 0 11 12 12
-0.0556933 0.0819658 0.00203212 0 0 0 67 12 22
-0.124506 0.0769871 -0.0308065 0 0 0 129 86 44
-0.0414834 0.0786486 -0.0275664 0 0 0 30 18 13
-0.0632604 0.0802692 0.0184256 0 0 0 111 77 4
-0.101669 0.0780561 -0.0305258 0 0 0 144 145 118
-0.113831 0.0792745 0.0144143 0 0 0 93 76 25
-0.252103 0.0447028 0.0194995 0 0 0 82 82 86
-0.268721 0.0266496 0.0114155 0 0 0 42 30 12
-0.117342 0.0805413 -0.00775243 0 0 0 139 132 62
-0.181902 0.075787 -0.0277162 0 0 0 124 99 54
-0.117265 0.0807162 -0.00895345 0 0 0 141 135 74
-0.0663265 0.0794263 -0.00660952 0 0 0 126 100 14
-0.191798 0.0752529 -0.018717 0 0 0 132 127 88
