ply
format ascii 1.0
element vertex 68
property float x
property float y
property float z
property float nx
property float ny
property float nz
property uchar diffuse_red
property uchar diffuse_green
property uchar diffuse_blue
end_header
-0.0423536 0.0764244 -0.0591331 0 0 0 254 254 254
-0.102609 0.074587 -0.0586539 0 0 0 222 228 245
-0.24415 0.0564034 0.0224717 0 0 0 187 198 187
-0.170918 0.0705458 -0.059437 0 0 0 223 224 239
-0.267282 0.0215864 -0.0576207 0 0 0 192 193 188
-0.176645 0.0718754 -0.0588707 0 0 0 221 227 240
-0.262128 0.054162 -0.00680126 0 0 0 246 244 199
-0.259867 0.0238476 -0.0055271 0 0 0 241 238 118
-0.264729 0.0523607 -0.0147199 0 0 0 254 253 248
-0.264361 0.0455888 -0.0138377 0 0 0 254 254 251
-0.268926 0.0216813 -0.0463365 0 0 0 14 14 19
-0.267682 0.0214007 -0.0452957 0 0 0 16 13 11
-0.139939 0.0769164 -0.0273819 0 0 0 144 129 106
-0.223291 0.0699521 -0.0351098 0 0 0 54 20 14
-0.257344 0.0285318 0.000942611 0 0 0 240 236 86
-0.244846 0.0517094 -0.0522164 0 0 0 143 161 175
-0.255548 0.0369986 0.0046309 0 0 0 229 212 21
-0.144274 0.0780083 -0.0102389 0 0 0 138 130 102
-0.126423 0.0740767 -0.0491586 0 0 0 54 46 40
-0.239877 0.0591759 -0.0494702 0 0 0 92 62 77
-0.264463 0.0456653 -0.0301337 0 0 0 70 62 61
-0.157153 0.07523 0.00330634 0 0 0 129 99 82
-0.238997 0.0638025 -0.00117492 0 0 0 34 35 26
-0.259859 0.0536173 -0.0360724 0 0 0 73 78 85
-0.0783694 0.0800584 0.0155218 0 0 0 130 118 43
-0.142621 0.0734161 -0.0476321 0 0 0 47 42 33
-0.0973666 0.079135 0.00579232 0 0 0 21 15 15
-0.260851 0.0220552 -0.0260729 0 0 0 181 182 150
-0.143995 0.072666 -0.053884 0 0 0 45 34 18
-0.14589 0.0757688 0.0253065 0 0 0 125 111 63
-0.248839 0.0464883 0.00427271 0 0 0 221 227 135
-0.263378 0.048306 -0.0317568 0 0 0 62 64 70
-0.0787707 0.0730398 -0.0612567 0 0 0 47 50 51
-0.149274 0.0783871 0.0219588 0 0 0 128 116 73
-0.257007 0.0251719 -0.0479961 0 0 0 45 49 55
-0.204107 0.0677788 -0.049591 0 0 0 106 47 15
-0.211472 0.0683935 -0.058322 0 0 0 249 247 247
-0.25526 0.0647719 -0.0315221 0 0 0 72 72 82
-0.23913 0.0616174 -0.0235195 0 0 0 173 139 51
-0.251124 0.0391624 -0.0595221 0 0 0 212 214 213
-0.245055 0.0481192 -0.0609061 0 0 0 216 220 222
-0.0813753 0.0787144 -0.0156823 0 0 0 92 8 11
-0.15333 0.0725664 -0.0463338 0 0 0 109 86 36
-0.220555 0.0716521 -0.0103034 0 0 0 125 121 106
-0.143032 0.0755302 -0.0300897 0 0 0 142 135 100
-0.114067 0.0768306 -0.0388111 0 0 0 147 145 114
-0.126155 0.077613 -0.0248389 0 0 0 131 89 69
-0.267378 0.0208396 -0.0364501 0 0 0 19 16 12
-0.1352 0.0782697 -0.00763228 0 0 0 144 141 119
-0.13289 0.0796892 0.0157299 0 0 0 52 41 40
-0.20488 0.0699387 -0.0217125 0 0 0 67 74 6
-0.0753436 0.0791754 -0.00258969 0 0 0 127 99 8
-0.0227621 0.0823869 -0.0227284 0 0 0 53 59 50
-0.059304 0.0772343 -0.0224404 0 0 0 118 80 1
-0.138045 0.076921 -0.0371491 0 0 0 133 122 88
-0.0548742 0.0806393 0.002062 0 0 0 68 14 17
-0.2389 0.0584272 -0.0608131 0 0 0 223 224 224
-0.0543182 0.0763256 -0.0493369 0 0 0 35 38 26
-0.0645617 0.080709 0.0187781 0 0 0 112 78 3
-0.103252 0.0781936 -0.0298309 0 0 0 145 146 114
-0.0442181 0.0771715 -0.0278313 0 0 0 40 13 8
-0.224593 0.0751234 0.0143897 0 0 0 12 13 8
-0.210913 0.0710966 -0.00800609 0 0 0 82 85 10
-0.111315 0.0772535 0.013752 0 0 0 100 77 35
-0.267963 0.0225162 0.0127837 0 0 0 43 32 26
-0.118077 0.0796435 -0.0070876 0 0 0 140 132 63
-0.182702 0.0740228 -0.0266134 0 0 0 125 99 55
-0.117303 0.0791289 -0.00841169 0 0 0 141 135 74
