ply
format ascii 1.0
element vertex 69
property float x
property float y
property float z
property float nx
property float ny
property float nz
property uchar diffuse_red
property uchar diffuse_green
property uchar diffuse_blue
end_header
-0.101189 0.074129 -0.0592584 0 0 0 223 229 244
-0.131541 0.0731048 -0.0635977 0 0 0 244 244 247
-0.244729 0.0599522 0.0213739 0 0 0 188 199 187
-0.0458467 0.0757936 -0.0577333 0 0 0 254 254 254
-0.170175 0.0719051 -0.0613961 0 0 0 221 224 239
-0.266786 0.0232695 -0.0589416 0 0 0 192 195 188
-0.175246 0.0725605 -0.06107 0 0 0 217 224 238
-0.263296 0.0570894 -0.00809182 0 0 0 239 245 214
-0.139455 0.0710736 -0.0638319 0 0 0 82 76 109
-0.260889 0.0260258 -0.00785129 0 0 0 218 227 129
-0.265539 0.0486601 -0.016134 0 0 0 254 254 245
-0.26901 0.0243328 -0.0474552 0 0 0 15 13 14
-0.260101 0.0570498 -0.0371421 0 0 0 75 79 83
-0.139374 0.0778653 -0.0280404 0 0 0 140 127 110
-0.22079 0.0711642 -0.0364294 0 0 0 49 20 10
-0.243848 0.0533057 -0.05465 0 0 0 164 175 195
-0.250145 0.0494257 0.00201158 0 0 0 236 229 59
-0.255428 0.0373014 0.00313113 0 0 0 234 215 21
-0.14312 0.0783914 -0.0110524 0 0 0 137 129 96
-0.238763 0.0662991 -0.00236084 0 0 0 33 35 31
-0.125769 0.0747062 -0.0497172 0 0 0 53 46 43
-0.239418 0.0613969 -0.0506325 0 0 0 93 64 56
-0.15896 0.0772986 0.00258709 0 0 0 128 110 85
-0.0773729 0.0795384 0.0163961 0 0 0 128 116 41
-0.264307 0.0483482 -0.031367 0 0 0 70 64 78
-0.141984 0.074282 -0.0482855 0 0 0 46 41 32
-0.0969755 0.0796845 0.00537906 0 0 0 20 16 13
-0.261643 0.0254306 -0.0258969 0 0 0 172 171 142
-0.14333 0.0735139 -0.0545412 0 0 0 44 36 13
-0.149518 0.0773903 0.0267934 0 0 0 129 115 55
-0.149225 0.0780621 0.0221539 0 0 0 129 116 68
-0.257033 0.0276459 -0.0490626 0 0 0 49 50 54
-0.20353 0.0694963 -0.050586 0 0 0 105 46 4
-0.210229 0.0693718 -0.0595772 0 0 0 247 247 247
-0.239366 0.0648074 -0.0245352 0 0 0 174 139 57
-0.152712 0.0735905 -0.0470476 0 0 0 110 89 29
-0.077769 0.077732 -0.0161756 0 0 0 91 8 12
-0.221993 0.0751098 0.0019897 0 0 0 119 111 70
-0.142471 0.0765065 -0.0307587 0 0 0 146 136 99
-0.219489 0.0731904 -0.0126347 0 0 0 128 124 108
-0.267533 0.0235286 -0.0375548 0 0 0 20 15 15
-0.125597 0.0783836 -0.0254176 0 0 0 130 88 63
-0.112739 0.0766437 -0.039472 0 0 0 146 145 111
-0.134736 0.0792699 -0.00827054 0 0 0 142 140 119
-0.167646 0.0799733 0.0201746 0 0 0 133 127 98
-0.132547 0.0807964 0.0150965 0 0 0 50 41 54
-0.0537218 0.0757548 -0.0481741 0 0 0 42 45 58
-0.166472 0.0781432 0.0223017 0 0 0 133 123 92
-0.20444 0.0718332 -0.0227259 0 0 0 69 76 8
-0.0763684 0.0807205 -0.00266672 0 0 0 127 102 11
-0.252229 0.0446224 0.0187348 0 0 0 81 78 80
-0.0588552 0.0768955 -0.0213256 0 0 0 118 81 4
-0.259025 0.033253 0.0266234 0 0 0 44 46 55
-0.213365 0.0709516 -0.0151485 0 0 0 127 119 39
-0.137422 0.0777849 -0.0377957 0 0 0 133 121 87
-0.0544444 0.0805703 0.00189899 0 0 0 70 12 25
-0.26959 0.0269392 -0.00253475 0 0 0 43 38 8
-0.0427104 0.0776708 -0.0277184 0 0 0 34 17 14
-0.220975 0.0753404 0.0108732 0 0 0 16 12 26
-0.210607 0.0729997 -0.00797321 0 0 0 84 74 10
-0.112405 0.0794578 0.0134242 0 0 0 100 77 38
-0.10195 0.0779169 -0.0304188 0 0 0 145 148 115
-0.0643101 0.0806922 0.0198221 0 0 0 116 77 3
-0.1169 0.0796991 -0.00774278 0 0 0 141 131 66
-0.116824 0.0798733 -0.00894591 0 0 0 142 134 77
-0.182178 0.0755765 -0.0275155 0 0 0 124 98 48
-0.26839 0.0255073 0.0116639 0 0 0 44 34 12
-0.193392 0.0764257 -0.0171144 0 0 0 130 127 83
-0.242119 0.063865 0.00471774 0 0 0 30 29 18
