ply
format ascii 1.0
element vertex 75
property float x
property float y
property float z
property float nx
property float ny
property float nz
property uchar diffuse_red
property uchar diffuse_green
property uchar diffuse_blue
end_header
-0.101161 0.0745556 -0.0590223 0 0 0 219 228 243
-0.0359213 0.0747582 -0.0596559 0 0 0 254 254 254
-0.038462 0.0749616 -0.0581672 0 0 0 254 254 254
-0.170153 0.0723696 -0.0609602 0 0 0 220 221 240
-0.243961 0.059164 0.0229718 0 0 0 186 196 183
-0.173819 0.0728856 -0.0595169 0 0 0 216 221 233
-0.263881 0.0546272 -0.0154838 0 0 0 254 252 248
-0.261378 0.0583534 -0.014726 0 0 0 253 253 238
-0.268083 0.0238989 -0.0583259 0 0 0 188 190 188
-0.265223 0.0504366 -0.0141407 0 0 0 254 254 251
-0.26 0.0269278 -0.00605737 0 0 0 240 237 100
-0.256655 0.0651571 -0.00905264 0 0 0 253 252 253
-0.259919 0.0587274 -0.0340513 0 0 0 68 74 79
-0.248164 0.0527493 0.00318932 0 0 0 192 200 107
-0.268967 0.0247921 -0.0468887 0 0 0 14 13 19
-0.258154 0.0310077 -0.000833503 0 0 0 240 234 85
-0.139321 0.0780244 -0.0264983 0 0 0 137 128 113
-0.222077 0.0716224 -0.0358211 0 0 0 54 21 11
-0.244664 0.0528788 -0.0531359 0 0 0 139 143 172
-0.142945 0.0786674 -0.0106758 0 0 0 136 130 102
-0.263609 0.0480447 -0.0319642 0 0 0 54 64 74
-0.125712 0.0751101 -0.0494053 0 0 0 54 46 29
-0.260235 0.0558965 -0.0368277 0 0 0 72 77 82
-0.2388 0.0610296 -0.0502317 0 0 0 93 63 71
-0.262478 0.0506683 -0.0335918 0 0 0 60 64 62
-0.260285 0.0255244 -0.0242591 0 0 0 180 186 179
-0.23799 0.0657617 -0.00186209 0 0 0 34 34 32
-0.157907 0.0783229 0.00317477 0 0 0 127 98 82
-0.141922 0.0746881 -0.0479263 0 0 0 45 38 37
-0.0770395 0.0798749 0.0153271 0 0 0 129 115 40
-0.0953188 0.0784959 0.0054304 0 0 0 23 16 9
-0.253722 0.0388976 0.00509417 0 0 0 233 231 71
-0.0802038 0.0753945 -0.0607815 0 0 0 44 48 53
-0.143288 0.0739425 -0.0541805 0 0 0 43 33 19
-0.147711 0.0775956 0.0272884 0 0 0 125 112 57
-0.148176 0.0788479 0.0238756 0 0 0 126 111 67
-0.205033 0.069793 -0.0649562 0 0 0 237 243 247
-0.256994 0.0281056 -0.0485205 0 0 0 45 54 72
-0.203477 0.0699375 -0.0500582 0 0 0 105 47 5
-0.188345 0.0718386 -0.0639483 0 0 0 226 229 240
-0.257179 0.0341696 0.0052793 0 0 0 190 196 59
-0.211607 0.0698829 -0.0589729 0 0 0 245 245 246
-0.239237 0.0651731 -0.0239163 0 0 0 175 140 45
-0.219602 0.0749862 -0.000705551 0 0 0 125 121 103
-0.152646 0.073997 -0.0466585 0 0 0 108 89 26
-0.0797913 0.0800362 -0.0156216 0 0 0 90 9 11
-0.254026 0.0682776 -0.0309427 0 0 0 64 68 70
-0.218785 0.0725452 -0.0111051 0 0 0 124 122 106
-0.141682 0.0761231 -0.0305475 0 0 0 139 134 98
-0.130054 0.0803464 0.0154541 0 0 0 47 36 50
-0.166956 0.0777009 0.021445 0 0 0 132 126 97
-0.126155 0.0794161 -0.0249473 0 0 0 132 88 57
-0.11265 0.077006 -0.0391926 0 0 0 145 144 109
-0.23809 0.0627834 -0.0620561 0 0 0 223 225 226
-0.134552 0.0795325 -0.00791606 0 0 0 141 139 118
-0.0519748 0.0763488 -0.048055 0 0 0 40 49 54
-0.0762422 0.0807518 -0.00122941 0 0 0 126 101 9
-0.0586346 0.0773609 -0.0224912 0 0 0 116 81 10
-0.137327 0.0781521 -0.0374381 0 0 0 131 122 85
-0.21381 0.0720684 -0.0144442 0 0 0 127 116 34
-0.113997 0.0799754 0.0210972 0 0 0 96 93 60
-0.0548713 0.0827745 0.00367334 0 0 0 60 12 17
-0.103924 0.0771726 -0.0405204 0 0 0 146 145 119
-0.213484 0.0771272 0.00986128 0 0 0 81 67 26
-0.251199 0.0455771 0.019477 0 0 0 86 80 82
-0.223382 0.0770904 0.0126809 0 0 0 14 13 8
-0.102541 0.0789387 -0.0300173 0 0 0 143 146 113
-0.0631469 0.0805313 0.0173612 0 0 0 113 82 3
-0.0416365 0.0788561 -0.0274565 0 0 0 29 17 12
-0.110748 0.0782231 0.0135431 0 0 0 98 77 30
-0.0188056 0.0755758 -0.0405675 0 0 0 63 60 52
-0.117413 0.0806594 -0.00732274 0 0 0 139 131 67
-0.181415 0.0751649 -0.0271895 0 0 0 123 99 54
-0.0663927 0.0795658 -0.00639465 0 0 0 126 99 20
-0.116641 0.0801304 -0.00864322 0 0 0 140 134 78
