ply
format ascii 1.0
element vertex 71
property float x
property float y
property float z
property float nx
property float ny
property float nz
property uchar diffuse_red
property uchar diffuse_green
property uchar diffuse_blue
end_header
-0.100208 0.0747129 -0.0587101 0 0 0 229 234 243
-0.0400381 0.074122 -0.0592974 0 0 0 254 254 254
-0.245082 0.0609727 0.0221356 0 0 0 188 202 190
-0.170103 0.0717712 -0.0608826 0 0 0 220 223 239
-0.175173 0.0724371 -0.0605478 0 0 0 217 224 238
-0.268108 0.0234627 -0.0580794 0 0 0 190 194 189
-0.263367 0.0556721 -0.00764283 0 0 0 245 249 252
-0.260074 0.02677 -0.0058202 0 0 0 241 239 102
-0.257286 0.0656742 -0.00785079 0 0 0 254 254 254
-0.265254 0.0502413 -0.0140394 0 0 0 254 254 253
-0.269003 0.0244207 -0.0466482 0 0 0 16 12 19
-0.269069 0.024266 -0.0455631 0 0 0 14 13 17
-0.260617 0.0578436 -0.0351891 0 0 0 69 76 79
-0.243799 0.0533296 -0.0539524 0 0 0 164 175 194
-0.221332 0.0718286 -0.0345577 0 0 0 50 18 10
-0.139225 0.0777395 -0.0276003 0 0 0 139 125 99
-0.257503 0.0314651 0.000622378 0 0 0 240 237 84
-0.255832 0.0383303 0.00399087 0 0 0 232 217 22
-0.142936 0.0783077 -0.0106061 0 0 0 137 129 108
-0.238585 0.0664201 -0.00170014 0 0 0 35 33 34
-0.238778 0.0605938 -0.0501617 0 0 0 94 67 69
-0.125669 0.0745094 -0.0492975 0 0 0 56 47 27
-0.219931 0.0685569 -0.0622235 0 0 0 242 244 245
-0.231859 0.0669346 -0.0632988 0 0 0 230 232 232
-0.158681 0.077438 0.00191607 0 0 0 130 112 87
-0.215027 0.0690023 -0.0611612 0 0 0 244 245 247
-0.260409 0.0251101 -0.0229215 0 0 0 179 189 169
-0.228922 0.0683402 -0.0630619 0 0 0 234 237 236
-0.141882 0.0741199 -0.0478328 0 0 0 45 40 39
-0.0777862 0.0802425 0.0155317 0 0 0 128 115 43
-0.264222 0.0484598 -0.0306187 0 0 0 67 70 81
-0.143242 0.0733416 -0.0540842 0 0 0 44 36 16
-0.0779916 0.0726146 -0.0611894 0 0 0 44 49 56
-0.0974714 0.0802395 0.00582208 0 0 0 19 14 9
-0.26459 0.0465694 -0.0288219 0 0 0 80 86 90
-0.257023 0.0277072 -0.0482862 0 0 0 49 52 58
-0.203442 0.0694497 -0.0500015 0 0 0 104 43 9
-0.239235 0.0648842 -0.0238702 0 0 0 171 139 51
-0.150921 0.0804369 0.0216644 0 0 0 129 115 74
-0.152608 0.0734518 -0.0465722 0 0 0 109 90 40
-0.22119 0.0744032 0.00248953 0 0 0 119 110 86
-0.0790495 0.078873 -0.0156156 0 0 0 90 9 10
-0.267508 0.023634 -0.0367491 0 0 0 20 14 15
-0.14233 0.0763812 -0.0303097 0 0 0 139 133 104
-0.112615 0.0764425 -0.0390821 0 0 0 146 144 115
-0.218718 0.072451 -0.0121605 0 0 0 129 123 112
-0.126131 0.078952 -0.0248643 0 0 0 129 89 63
-0.134545 0.0791756 -0.00784261 0 0 0 142 138 126
-0.132306 0.0807457 0.0155169 0 0 0 48 37 57
-0.0526734 0.0763085 -0.0477149 0 0 0 42 47 58
-0.0202995 0.0761503 -0.0400573 0 0 0 62 61 52
-0.204292 0.0718455 -0.0221445 0 0 0 67 74 7
-0.0747022 0.0791658 -0.00255953 0 0 0 125 100 12
-0.0586162 0.0768094 -0.0223276 0 0 0 116 81 3
-0.213808 0.071794 -0.0144105 0 0 0 127 118 48
-0.137292 0.0776353 -0.0373593 0 0 0 132 119 87
-0.210427 0.0730542 -0.00738205 0 0 0 79 71 16
-0.0525487 0.0805561 0.0022557 0 0 0 56 14 22
-0.269489 0.0271202 -0.00173217 0 0 0 42 36 10
-0.259954 0.0299673 0.0235548 0 0 0 49 53 53
-0.222021 0.0769083 0.0127361 0 0 0 13 12 18
-0.0646224 0.0827279 0.0204206 0 0 0 108 78 1
-0.101806 0.0777131 -0.030053 0 0 0 143 145 111
-0.044261 0.0771207 -0.0275216 0 0 0 40 13 13
-0.112171 0.0793643 0.0138075 0 0 0 97 76 29
-0.197177 0.0772899 0.0106884 0 0 0 62 44 39
-0.0656508 0.0784423 -0.00635712 0 0 0 126 99 22
-0.180758 0.0740068 -0.0272931 0 0 0 123 97 49
-0.116707 0.079571 -0.00735107 0 0 0 139 132 60
-0.252663 0.0455176 0.0206166 0 0 0 81 88 88
-0.116633 0.0797426 -0.00855471 0 0 0 139 134 72
