ply
format ascii 1.0
element vertex 68
property float x
property float y
property float z
property float nx
property float ny
property float nz
property uchar diffuse_red
property uchar diffuse_green
property uchar diffuse_blue
end_header
-0.101342 0.0741857 -0.0592542 0 0 0 222 229 245
-0.0469481 0.0749185 -0.0579427 0 0 0 254 254 254
-0.17033 0.0720056 -0.0613619 0 0 0 220 226 240
-0.1754 0.0726641 -0.0610334 0 0 0 219 225 241
-0.26697 0.0234303 -0.0588741 0 0 0 190 193 189
-0.245061 0.0585165 0.0212075 0 0 0 170 182 164
-0.139612 0.0711552 -0.0638114 0 0 0 82 73 89
-0.269188 0.0244927 -0.0473865 0 0 0 14 13 18
-0.25901 0.0569212 -0.0360482 0 0 0 70 79 77
-0.141045 0.0778578 -0.0280409 0 0 0 138 131 111
-0.220151 0.0687285 -0.062787 0 0 0 239 240 242
-0.23896 0.065184 -0.00469887 0 0 0 26 26 37
-0.256543 0.0352529 0.00169419 0 0 0 218 214 11
-0.222912 0.0721536 -0.0361775 0 0 0 53 18 12
-0.258302 0.0323151 3.02131e-05 0 0 0 239 233 93
-0.214581 0.0685418 -0.0630313 0 0 0 244 244 246
-0.244637 0.0541301 -0.0533014 0 0 0 143 159 174
-0.247885 0.0519216 0.00147245 0 0 0 213 220 115
-0.239575 0.0615388 -0.0505698 0 0 0 90 67 69
-0.156919 0.0766836 0.00258098 0 0 0 128 99 76
-0.264464 0.0485021 -0.0312958 0 0 0 69 55 67
-0.125917 0.0747765 -0.049702 0 0 0 56 47 34
-0.265055 0.0492291 -0.013804 0 0 0 254 254 253
-0.142131 0.0743622 -0.0482633 0 0 0 48 43 34
-0.0789729 0.0797505 0.0137823 0 0 0 132 121 61
-0.0789393 0.0736525 -0.0613371 0 0 0 46 49 57
-0.143481 0.0735962 -0.0545185 0 0 0 44 34 17
-0.262402 0.0262985 -0.0245863 0 0 0 166 165 132
-0.147049 0.0788226 0.0236094 0 0 0 127 114 60
-0.264021 0.0463724 -0.0175547 0 0 0 254 254 244
-0.0970962 0.0797262 0.00538246 0 0 0 23 14 10
-0.149098 0.0798327 0.0212593 0 0 0 128 117 73
-0.256683 0.0269324 -0.0491941 0 0 0 47 51 55
-0.238869 0.0642739 -0.0256974 0 0 0 170 140 71
-0.203682 0.0696156 -0.0505375 0 0 0 106 43 13
-0.152859 0.0736772 -0.0470208 0 0 0 110 89 41
-0.219689 0.073156 -0.0114994 0 0 0 122 122 109
-0.142609 0.0765836 -0.0307359 0 0 0 140 137 109
-0.11358 0.0774088 -0.0393008 0 0 0 147 147 117
-0.268221 0.0245665 -0.0373097 0 0 0 19 14 12
-0.125732 0.0784492 -0.0254018 0 0 0 131 90 53
-0.134863 0.0793379 -0.00825056 0 0 0 143 142 125
-0.224873 0.0753705 0.0019585 0 0 0 62 67 49
-0.0793552 0.079126 -0.0159384 0 0 0 90 11 12
-0.0253202 0.0797751 -0.0177 0 0 0 58 54 48
-0.0530075 0.0764806 -0.0467074 0 0 0 49 49 46
-0.132663 0.0808585 0.0151158 0 0 0 52 46 46
-0.22185 0.0758519 -0.00223876 0 0 0 129 119 81
-0.058909 0.0771044 -0.0226235 0 0 0 116 82 6
-0.0791235 0.0795284 -0.00168191 0 0 0 127 101 13
-0.261221 0.0238747 -0.0317736 0 0 0 174 178 123
-0.137563 0.0778602 -0.0377748 0 0 0 132 122 88
-0.252981 0.0454602 0.0199506 0 0 0 83 84 79
-0.0418979 0.0785801 -0.0275501 0 0 0 28 18 16
-0.0946876 0.0794796 -0.0135683 0 0 0 122 84 7
-0.0545661 0.0805859 0.0018838 0 0 0 67 15 25
-0.221765 0.0761062 0.0120949 0 0 0 12 12 18
-0.102796 0.0786651 -0.0302675 0 0 0 146 147 113
-0.0437958 0.0767893 -0.0279285 0 0 0 41 13 8
-0.27261 0.0237594 -0.0119817 0 0 0 57 60 52
-0.0666284 0.079548 -0.00782323 0 0 0 130 101 4
-0.1178 0.0802895 -0.00641573 0 0 0 138 131 58
-0.114179 0.0792119 0.014545 0 0 0 94 76 31
-0.181678 0.0749148 -0.0276296 0 0 0 125 99 51
-0.116951 0.0799301 -0.00893372 0 0 0 142 136 80
-0.168214 0.0756159 -0.0144684 0 0 0 132 115 76
-0.241679 0.0631667 0.00467541 0 0 0 27 31 27
-0.10338 0.0784276 -0.0177059 0 0 0 119 94 65
