ply
format ascii 1.0
element vertex 72
property float x
property float y
property float z
property float nx
property float ny
property float nz
property uchar diffuse_red
property uchar diffuse_green
property uchar diffuse_blue
end_header
-0.101228 0.0740135 -0.0590878 0 0 0 222 228 245
-0.244581 0.058994 0.0229244 0 0 0 183 192 173
-0.26126 0.058664 -0.013518 0 0 0 252 250 211
-0.170211 0.0715661 -0.0610595 0 0 0 222 223 240
-0.175283 0.0722038 -0.0607191 0 0 0 218 224 238
-0.267169 0.0234793 -0.0582747 0 0 0 189 193 187
-0.139495 0.0708429 -0.063574 0 0 0 83 72 107
-0.244718 0.0575831 0.0216298 0 0 0 169 181 160
-0.260443 0.0267073 -0.00603596 0 0 0 239 235 107
-0.22417 0.068246 -0.0621927 0 0 0 235 237 237
-0.264684 0.0484566 -0.0144156 0 0 0 254 254 250
-0.268852 0.0236297 -0.0469967 0 0 0 11 13 18
-0.267615 0.0233393 -0.0459506 0 0 0 12 13 13
-0.140881 0.0774535 -0.0277846 0 0 0 138 126 106
-0.244431 0.053378 -0.0528902 0 0 0 141 157 173
-0.259696 0.0539262 -0.0371451 0 0 0 72 77 80
-0.222144 0.070646 -0.0359467 0 0 0 54 18 13
-0.257365 0.0305142 0.000300438 0 0 0 237 235 86
-0.143731 0.0787375 -0.0106415 0 0 0 136 131 105
-0.255187 0.0365117 0.00358925 0 0 0 229 213 20
-0.249947 0.0486564 0.00248819 0 0 0 233 225 65
-0.259658 0.0235438 -0.0245209 0 0 0 181 185 178
-0.239392 0.0608 -0.0501511 0 0 0 91 64 67
-0.15952 0.0775717 0.00301443 0 0 0 129 110 87
-0.125786 0.0744842 -0.049484 0 0 0 54 47 45
-0.141995 0.0740025 -0.0480131 0 0 0 46 41 40
-0.0771655 0.07949 0.0152693 0 0 0 129 117 43
-0.143355 0.0732462 -0.0542673 0 0 0 42 32 24
-0.0968711 0.0794149 0.0055532 0 0 0 19 16 11
-0.205078 0.0688547 -0.0650713 0 0 0 237 242 246
-0.148371 0.0780318 0.0249414 0 0 0 124 111 50
-0.256891 0.0269868 -0.0486253 0 0 0 46 49 57
-0.203531 0.0690184 -0.0501727 0 0 0 104 47 8
-0.211656 0.0689252 -0.0590916 0 0 0 243 243 245
-0.222356 0.0755497 0.000437979 0 0 0 125 124 97
-0.223798 0.0754562 0.00146781 0 0 0 96 105 73
-0.239286 0.0641428 -0.0240451 0 0 0 170 132 53
-0.220205 0.0728815 -0.00880321 0 0 0 107 91 81
-0.152717 0.0732721 -0.0467502 0 0 0 107 90 34
-0.0777121 0.0775822 -0.0160542 0 0 0 90 9 11
-0.142446 0.0761797 -0.0304794 0 0 0 141 134 102
-0.253389 0.0677501 -0.0298874 0 0 0 65 65 55
-0.112737 0.0764384 -0.0392662 0 0 0 147 144 115
-0.267865 0.023683 -0.0369217 0 0 0 19 16 11
-0.134664 0.0789104 -0.00800337 0 0 0 143 140 124
-0.125565 0.0780991 -0.0251754 0 0 0 130 89 56
-0.167505 0.0794305 0.0205254 0 0 0 135 127 103
-0.13173 0.0796655 0.0152794 0 0 0 52 41 54
-0.0527994 0.0766602 -0.0479295 0 0 0 42 47 56
-0.115775 0.0791566 0.0221189 0 0 0 100 78 45
-0.204996 0.0720635 -0.0221517 0 0 0 66 74 4
-0.0194864 0.0770781 -0.01954 0 0 0 59 59 51
-0.0594742 0.0776755 -0.0224057 0 0 0 116 81 3
-0.0469085 0.0769099 -0.0493329 0 0 0 33 28 36
-0.137419 0.0774932 -0.0375255 0 0 0 133 121 88
-0.259611 0.030353 0.0245388 0 0 0 45 49 55
-0.256432 0.0271494 -0.061057 0 0 0 199 203 200
-0.054352 0.080451 0.00196956 0 0 0 68 14 20
-0.22487 0.0762208 0.0124915 0 0 0 13 12 12
-0.0640972 0.0806806 0.0186507 0 0 0 111 78 5
-0.233955 0.0756497 0.0141065 0 0 0 11 11 13
-0.0417365 0.0785662 -0.027495 0 0 0 26 21 19
-0.110866 0.0777098 0.0134693 0 0 0 98 78 31
-0.0436282 0.0767689 -0.0278738 0 0 0 38 17 19
-0.101929 0.0777238 -0.0302367 0 0 0 143 146 116
-0.117602 0.079925 -0.00620119 0 0 0 137 130 58
-0.181501 0.0743492 -0.0272972 0 0 0 124 95 46
-0.116756 0.079575 -0.00872176 0 0 0 140 134 77
-0.168668 0.0758208 -0.0140281 0 0 0 132 117 66
-0.252589 0.0444987 0.0203576 0 0 0 80 81 83
-0.0665062 0.0792016 -0.0064466 0 0 0 127 100 15
-0.241963 0.0631151 0.00521202 0 0 0 27 30 24
