ply
format ascii 1.0
element vertex 77
property float x
property float y
property float z
property float nx
property float ny
property float nz
property uchar diffuse_red
property uchar diffuse_green
property uchar diffuse_blue
end_header
-0.102172 0.0750622 -0.0587306 0 0 0 221 228 245
-0.0470718 0.0755415 -0.0578709 0 0 0 254 254 254
-0.243952 0.0575769 0.0233319 0 0 0 184 195 176
-0.169675 0.072262 -0.0594021 0 0 0 233 232 241
-0.267974 0.0223821 -0.058026 0 0 0 187 192 187
-0.176984 0.0722177 -0.0603142 0 0 0 221 226 239
-0.139729 0.0710584 -0.0633215 0 0 0 79 72 83
-0.264686 0.0479415 -0.0139124 0 0 0 254 254 252
-0.259737 0.0254726 -0.00685366 0 0 0 248 246 107
-0.269358 0.0241068 -0.0463811 0 0 0 12 12 24
-0.267598 0.0229419 -0.0455425 0 0 0 15 12 15
-0.259573 0.0550998 -0.036288 0 0 0 72 78 80
-0.139577 0.0774314 -0.026308 0 0 0 137 126 114
-0.243996 0.0522771 -0.0526364 0 0 0 141 156 171
-0.2223 0.0703988 -0.0354685 0 0 0 53 18 17
-0.221027 0.0672126 -0.0620876 0 0 0 240 240 242
-0.260051 0.0241261 -0.0250629 0 0 0 186 198 176
-0.143171 0.0779945 -0.0104755 0 0 0 135 132 94
-0.254856 0.0375653 0.00429007 0 0 0 228 212 50
-0.228451 0.0684175 -0.0625821 0 0 0 234 235 235
-0.248848 0.0462829 0.00378673 0 0 0 238 236 77
-0.0346936 0.0759208 -0.0527151 0 0 0 57 90 113
-0.239545 0.0605385 -0.0496659 0 0 0 93 66 71
-0.159598 0.0774288 0.0033488 0 0 0 130 109 87
-0.125306 0.0739908 -0.0494414 0 0 0 54 46 29
-0.238673 0.0651219 -0.00136639 0 0 0 35 34 30
-0.257973 0.0293848 -0.000532991 0 0 0 239 234 86
-0.142199 0.0741434 -0.0477409 0 0 0 45 41 35
-0.0764826 0.0789707 0.0153026 0 0 0 127 116 42
-0.264234 0.0471733 -0.0303591 0 0 0 65 64 66
-0.141368 0.0727805 -0.0542171 0 0 0 45 35 31
-0.0790677 0.0740359 -0.0611207 0 0 0 42 48 48
-0.0976721 0.0802135 0.00582242 0 0 0 22 16 10
-0.147712 0.0771156 0.0251735 0 0 0 124 110 60
-0.264578 0.0452638 -0.0285779 0 0 0 79 87 87
-0.256898 0.0266456 -0.0482316 0 0 0 44 49 57
-0.148875 0.0791039 0.0218486 0 0 0 127 116 70
-0.203719 0.0689083 -0.0497522 0 0 0 105 43 13
-0.246687 0.0504413 -0.060815 0 0 0 218 219 217
-0.275687 0.0211275 -0.00706334 0 0 0 132 126 80
-0.237644 0.0613161 -0.0240445 0 0 0 171 138 38
-0.274277 0.0213094 -0.0091913 0 0 0 124 127 87
-0.220234 0.0726945 -0.0093979 0 0 0 117 106 95
-0.0177738 0.079262 -0.0178681 0 0 0 56 47 43
-0.079309 0.07921 -0.0156856 0 0 0 90 7 10
-0.02036 0.0794048 -0.0164834 0 0 0 55 55 57
-0.224643 0.0743099 0.00181398 0 0 0 74 75 64
-0.141932 0.0755244 -0.0303581 0 0 0 139 135 105
-0.111345 0.0768109 -0.0390559 0 0 0 146 145 119
-0.117816 0.0767289 0.0267903 0 0 0 89 80 12
-0.134779 0.0789177 -0.00773156 0 0 0 141 140 119
-0.250366 0.0397625 -0.0599675 0 0 0 211 213 210
-0.125724 0.0782154 -0.0249316 0 0 0 129 88 63
-0.115169 0.078234 0.0234664 0 0 0 105 74 39
-0.131784 0.0795895 0.015546 0 0 0 52 42 45
-0.0530894 0.0769808 -0.0465968 0 0 0 48 50 50
-0.20512 0.0718319 -0.0217149 0 0 0 69 72 5
-0.164922 0.0772152 0.0242239 0 0 0 131 124 87
-0.0749928 0.0792384 -0.00138484 0 0 0 125 101 6
-0.0588795 0.0773994 -0.0224814 0 0 0 116 81 3
-0.238564 0.0597922 -0.0610086 0 0 0 222 223 223
-0.225263 0.0761591 0.00540115 0 0 0 65 69 33
-0.137609 0.0776103 -0.0372517 0 0 0 132 121 88
-0.255169 0.0308478 -0.0597352 0 0 0 204 206 204
-0.0544468 0.0807565 0.00202717 0 0 0 67 12 22
-0.259859 0.0266294 0.0233958 0 0 0 48 53 50
-0.102101 0.0779609 -0.0300594 0 0 0 143 146 111
-0.0437901 0.0772425 -0.0278605 0 0 0 39 14 5
-0.221553 0.0748427 0.0130071 0 0 0 12 11 11
-0.0288725 0.0789562 -0.0398279 0 0 0 67 64 72
-0.116943 0.0794781 -0.00729405 0 0 0 139 132 67
-0.110917 0.0777294 0.0136706 0 0 0 97 75 37
-0.0641467 0.0808764 0.0187358 0 0 0 111 77 3
-0.0658045 0.0790185 -0.00774452 0 0 0 127 101 8
-0.182292 0.0749949 -0.026753 0 0 0 125 99 53
-0.116875 0.0796609 -0.00849636 0 0 0 140 133 78
-0.251925 0.0430403 0.0207235 0 0 0 80 85 86
