ply
format ascii 1.0
element vertex 77
property float x
property float y
property float z
property float nx
property float ny
property float nz
property uchar diffuse_red
property uchar diffuse_green
property uchar diffuse_blue
end_header
-0.101661 0.0758322 -0.059334 0 0 0 219 225 244
-0.0465706 0.0752098 -0.058051 0 0 0 254 254 254
-0.142462 0.0710425 -0.0657033 0 0 0 230 237 248
-0.175031 0.07449 -0.0615155 0 0 0 216 223 240
-0.244942 0.0625864 0.0218136 0 0 0 184 193 171
-0.261606 0.0610161 -0.0160499 0 0 0 253 253 238
-0.170603 0.0745316 -0.0616247 0 0 0 222 226 240
-0.268492 0.0265002 -0.059573 0 0 0 188 190 187
-0.260583 0.0297621 -0.00835936 0 0 0 248 245 114
-0.259502 0.0604514 -0.0355449 0 0 0 69 74 81
-0.269929 0.0283292 -0.0479505 0 0 0 14 12 18
-0.21982 0.0710893 -0.0633995 0 0 0 241 242 243
-0.219673 0.0714037 -0.0655797 0 0 0 241 241 243
-0.264251 0.0529922 -0.0154459 0 0 0 254 254 253
-0.139177 0.0793364 -0.0283962 0 0 0 139 128 111
-0.221237 0.0744696 -0.0368135 0 0 0 51 18 16
-0.244751 0.0552112 -0.0543495 0 0 0 140 146 163
-0.255473 0.041983 0.00166669 0 0 0 214 206 38
-0.249358 0.0504192 0.00223066 0 0 0 238 237 84
-0.240113 0.0691293 -0.00300346 0 0 0 29 25 34
-0.143626 0.0806434 -0.0112974 0 0 0 137 131 105
-0.258586 0.0351335 -0.000695198 0 0 0 239 234 99
-0.125559 0.076011 -0.0500401 0 0 0 54 46 35
-0.239364 0.064132 -0.0512392 0 0 0 90 70 67
-0.259598 0.0591852 -0.0379819 0 0 0 72 77 83
-0.262101 0.0284428 -0.0265671 0 0 0 170 168 134
-0.159499 0.0797618 0.00228268 0 0 0 129 110 86
-0.264987 0.0522613 -0.0318684 0 0 0 68 61 78
-0.141781 0.0757905 -0.0486486 0 0 0 46 39 23
-0.0771857 0.0804011 0.0149418 0 0 0 129 116 41
-0.263751 0.0550114 -0.0345464 0 0 0 59 63 68
-0.140928 0.0743684 -0.0551093 0 0 0 47 43 24
-0.0968418 0.0806155 0.00512821 0 0 0 21 13 10
-0.276543 0.025892 -0.00973765 0 0 0 132 126 83
-0.257406 0.0306048 -0.0497208 0 0 0 46 51 75
-0.150478 0.0811364 0.0219085 0 0 0 128 115 63
-0.203377 0.0717795 -0.0511021 0 0 0 104 43 13
-0.23877 0.0667042 -0.0252971 0 0 0 171 138 57
-0.15252 0.0752336 -0.0474373 0 0 0 110 91 28
-0.222274 0.0788864 -0.00167048 0 0 0 124 123 83
-0.223204 0.0778532 0.000310999 0 0 0 95 96 82
-0.254046 0.0707964 -0.0322584 0 0 0 64 68 63
-0.219455 0.0755104 -0.0121106 0 0 0 125 121 109
-0.117035 0.0791911 0.0262276 0 0 0 96 94 29
-0.0790474 0.0798037 -0.016141 0 0 0 90 9 11
-0.0204601 0.0780408 -0.011161 0 0 0 56 53 50
-0.141618 0.0772805 -0.0312735 0 0 0 139 134 96
-0.112532 0.0777825 -0.0397623 0 0 0 145 144 115
-0.125402 0.079681 -0.0257393 0 0 0 129 90 55
-0.134571 0.0806786 -0.00861466 0 0 0 141 140 117
-0.268489 0.0275043 -0.0380641 0 0 0 19 15 15
-0.13174 0.0814436 0.0146805 0 0 0 50 40 42
-0.0526436 0.0768441 -0.0468333 0 0 0 48 47 53
-0.204932 0.0749156 -0.023096 0 0 0 67 74 5
-0.259392 0.032432 0.0232815 0 0 0 46 49 52
-0.0586074 0.0775381 -0.0227666 0 0 0 117 80 4
-0.0747558 0.0800211 -0.00306509 0 0 0 126 99 25
-0.213877 0.0741542 -0.0155524 0 0 0 129 119 43
-0.137202 0.0792336 -0.0381467 0 0 0 131 121 86
-0.0242291 0.0782144 -0.039939 0 0 0 55 61 67
-0.0214828 0.079325 -0.0218819 0 0 0 63 63 57
-0.257983 0.0283689 -0.0626891 0 0 0 198 203 200
-0.0542945 0.0809672 0.00175334 0 0 0 68 15 21
-0.222158 0.0792948 0.011569 0 0 0 12 12 15
-0.0423987 0.0792861 -0.02621 0 0 0 34 18 14
-0.0434837 0.0770425 -0.0280277 0 0 0 40 15 8
-0.0633827 0.0807128 0.0183185 0 0 0 111 76 5
-0.10175 0.0789179 -0.0306823 0 0 0 143 147 115
-0.110901 0.0791522 0.0129787 0 0 0 98 78 34
-0.251841 0.0480769 0.0193213 0 0 0 85 87 94
-0.238081 0.0648505 -0.0621908 0 0 0 222 224 224
-0.116732 0.0808833 -0.00804278 0 0 0 138 131 71
-0.0656102 0.0793933 -0.00809453 0 0 0 127 102 11
-0.116651 0.0810568 -0.00924568 0 0 0 139 134 78
-0.182008 0.0775859 -0.0279775 0 0 0 122 97 55
-0.0273738 0.0803777 -0.00139511 0 0 0 47 45 40
-0.192541 0.0779533 -0.018852 0 0 0 132 126 84
