ply
format ascii 1.0
element vertex 71
property float x
property float y
property float z
property float nx
property float ny
property float nz
property uchar diffuse_red
property uchar diffuse_green
property uchar diffuse_blue
end_header
-0.102076 0.0746532 -0.0589946 0 0 0 223 230 244
-0.0427536 0.0749229 -0.0593844 0 0 0 254 254 254
-0.244191 0.0584364 0.0215421 0 0 0 185 195 187
-0.169704 0.0707754 -0.0614427 0 0 0 223 224 239
-0.260912 0.0578785 -0.0139247 0 0 0 253 251 214
-0.175423 0.0721654 -0.0609019 0 0 0 219 225 240
-0.266809 0.0225927 -0.0586989 0 0 0 191 194 188
-0.264576 0.0460709 -0.0151057 0 0 0 254 254 247
-0.260727 0.0266268 -0.00515666 0 0 0 229 224 102
-0.269536 0.0245181 -0.0470129 0 0 0 11 12 12
-0.269334 0.0259839 -0.0455797 0 0 0 10 14 12
-0.140278 0.0781022 -0.0265878 0 0 0 140 129 110
-0.221596 0.0712494 -0.034946 0 0 0 48 20 7
-0.254873 0.0357438 0.00326274 0 0 0 232 216 16
-0.24474 0.0519518 -0.0545668 0 0 0 160 171 193
-0.260415 0.0548003 -0.0372144 0 0 0 72 77 80
-0.257589 0.0306023 9.03392e-05 0 0 0 239 235 89
-0.262581 0.0497268 -0.0350251 0 0 0 60 64 63
-0.218967 0.0664705 -0.063063 0 0 0 241 242 243
-0.264307 0.0478089 -0.0321619 0 0 0 60 61 74
-0.125939 0.0744525 -0.0496111 0 0 0 54 47 26
-0.239547 0.0607964 -0.0503916 0 0 0 94 66 74
-0.158306 0.0775223 0.00405533 0 0 0 126 87 82
-0.228367 0.0685501 -0.0633092 0 0 0 234 236 236
-0.14215 0.0739775 -0.0481589 0 0 0 47 41 42
-0.238845 0.0656582 -0.00211649 0 0 0 34 33 35
-0.0790355 0.0793738 0.0150869 0 0 0 133 116 56
-0.215259 0.0685329 -0.0615533 0 0 0 244 245 246
-0.148008 0.0772312 0.0258761 0 0 0 127 113 61
-0.141298 0.072573 -0.0546237 0 0 0 46 42 22
-0.0789668 0.0735098 -0.0612868 0 0 0 45 49 54
-0.0956526 0.0780885 0.00526765 0 0 0 22 16 12
-0.26163 0.0247405 -0.025659 0 0 0 171 169 136
-0.150663 0.0791424 0.022434 0 0 0 131 117 73
-0.257057 0.0269903 -0.0488287 0 0 0 48 50 50
-0.203684 0.0690055 -0.0503842 0 0 0 106 40 8
-0.23832 0.0625383 -0.024609 0 0 0 170 137 54
-0.244726 0.0498971 -0.0628792 0 0 0 215 220 214
-0.170484 0.0765262 0.0243807 0 0 0 128 100 70
-0.219871 0.0753515 0.00134636 0 0 0 129 123 91
-0.152874 0.0732521 -0.0469078 0 0 0 110 86 28
-0.0793643 0.0789506 -0.015884 0 0 0 92 9 8
-0.113805 0.0784869 0.0232382 0 0 0 115 107 42
-0.220388 0.0718741 -0.0125654 0 0 0 128 121 94
-0.142621 0.0761851 -0.0306296 0 0 0 141 136 103
-0.111318 0.0765579 -0.039367 0 0 0 148 146 120
-0.134866 0.0789525 -0.00814892 0 0 0 144 141 123
-0.219606 0.0726174 -0.0124091 0 0 0 129 124 100
-0.125747 0.0781092 -0.0253085 0 0 0 132 93 64
-0.251209 0.0392592 -0.0607725 0 0 0 210 212 208
-0.132651 0.0804652 0.0152166 0 0 0 55 43 44
-0.0539721 0.0755313 -0.0468648 0 0 0 48 47 51
-0.204566 0.0713152 -0.0225209 0 0 0 65 74 7
-0.0589164 0.077009 -0.0225878 0 0 0 119 81 7
-0.213478 0.0703996 -0.0149328 0 0 0 127 118 49
-0.137585 0.0774851 -0.0376719 0 0 0 133 121 90
-0.252283 0.0437656 0.0200489 0 0 0 81 84 83
-0.210717 0.0724499 -0.00775928 0 0 0 80 74 17
-0.0536361 0.0813729 0.00210396 0 0 0 57 13 19
-0.221068 0.0747423 0.0111025 0 0 0 16 12 20
-0.041915 0.0785508 -0.0275278 0 0 0 29 20 14
-0.238459 0.0601365 -0.0628029 0 0 0 221 223 223
-0.102815 0.078413 -0.0301935 0 0 0 146 148 115
-0.0634898 0.0814386 0.0200377 0 0 0 109 76 2
-0.111095 0.0777828 0.0133545 0 0 0 98 78 33
-0.117732 0.080141 -0.00752909 0 0 0 141 133 68
-0.06671 0.0792289 -0.00651044 0 0 0 127 100 9
-0.182321 0.0751308 -0.0273359 0 0 0 125 97 58
-0.117658 0.0803162 -0.00873028 0 0 0 142 136 78
-0.268849 0.0256468 0.0120044 0 0 0 43 36 12
-0.0255813 0.0773179 -0.040081 0 0 0 63 64 83
