ply
format ascii 1.0
element vertex 78
property float x
property float y
property float z
property float nx
property float ny
property float nz
property uchar diffuse_red
property uchar diffuse_green
property uchar diffuse_blue
end_header
-0.102412 0.0747269 -0.0585354 0 0 0 222 229 244
-0.170035 0.0705547 -0.0605919 0 0 0 221 223 239
-0.0406406 0.0748802 -0.0594695 0 0 0 254 254 254
-0.244589 0.0581262 0.0239257 0 0 0 183 192 174
-0.268209 0.0220383 -0.0574396 0 0 0 186 191 185
-0.2635 0.0538845 -0.00676997 0 0 0 243 249 252
-0.175758 0.0719159 -0.0600092 0 0 0 217 223 236
-0.245298 0.0575535 0.0227133 0 0 0 169 181 164
-0.260395 0.0260348 -0.006153 0 0 0 246 246 112
-0.264829 0.0476296 -0.0133515 0 0 0 254 254 251
-0.269568 0.0237713 -0.045793 0 0 0 15 13 19
-0.219887 0.0668283 -0.0617055 0 0 0 240 241 242
-0.220367 0.0679521 -0.0636562 0 0 0 240 240 242
-0.269627 0.0236076 -0.0447107 0 0 0 14 12 21
-0.139748 0.0771174 -0.0260349 0 0 0 139 126 108
-0.22231 0.0716164 -0.0346736 0 0 0 49 20 9
-0.245001 0.0511925 -0.052278 0 0 0 139 144 162
-0.141842 0.0776024 -0.00898464 0 0 0 139 131 105
-0.249669 0.0454048 0.00308754 0 0 0 220 207 10
-0.255193 0.0356644 0.00456594 0 0 0 230 214 30
-0.240138 0.0649073 -0.000898094 0 0 0 32 28 31
-0.260313 0.0556173 -0.0355518 0 0 0 73 80 79
-0.239764 0.0602023 -0.0491676 0 0 0 90 69 68
-0.252338 0.0412603 0.00449816 0 0 0 214 203 45
-0.126216 0.0743699 -0.049008 0 0 0 55 45 41
-0.264951 0.0477059 -0.0296185 0 0 0 70 65 60
-0.257302 0.029833 0.000183136 0 0 0 225 212 68
-0.142416 0.0738139 -0.0474597 0 0 0 46 43 41
-0.260275 0.0236413 -0.023403 0 0 0 180 184 176
-0.0765649 0.0786901 0.0154401 0 0 0 129 116 43
-0.0970537 0.0792375 0.00590396 0 0 0 22 17 8
-0.143803 0.073073 -0.0537098 0 0 0 45 35 20
-0.263311 0.0494833 -0.0314231 0 0 0 59 60 62
-0.257112 0.0263095 -0.0476719 0 0 0 46 48 52
-0.149069 0.0784737 0.0244552 0 0 0 123 113 64
-0.251575 0.0372314 -0.0610609 0 0 0 207 210 207
-0.203939 0.068574 -0.0493361 0 0 0 103 43 11
-0.238967 0.0626374 -0.0232178 0 0 0 170 135 58
-0.152462 0.0723017 -0.046336 0 0 0 106 91 33
-0.0794573 0.0789069 -0.0155422 0 0 0 90 8 13
-0.219703 0.0717562 -0.0101683 0 0 0 125 121 101
-0.14279 0.0759296 -0.0299167 0 0 0 141 134 100
-0.113126 0.0763452 -0.0388474 0 0 0 146 145 111
-0.224645 0.0753868 0.00361113 0 0 0 92 92 70
-0.268014 0.0229192 -0.0359263 0 0 0 18 16 12
-0.125892 0.0779032 -0.0246886 0 0 0 130 88 60
-0.13491 0.0786173 -0.00746973 0 0 0 143 141 120
-0.0524861 0.0761978 -0.0479751 0 0 0 41 48 46
-0.0211384 0.0801406 -0.0189986 0 0 0 56 57 48
-0.167613 0.0789002 0.0212205 0 0 0 133 128 101
-0.131865 0.079306 0.0158009 0 0 0 50 43 52
-0.205281 0.0715177 -0.0212981 0 0 0 65 73 5
-0.0750421 0.0791361 -0.00250769 0 0 0 125 99 11
-0.166252 0.0785969 0.0235707 0 0 0 133 125 92
-0.0220989 0.0792216 -0.01919 0 0 0 57 57 47
-0.0590422 0.0770925 -0.0223801 0 0 0 118 80 3
-0.115875 0.0788422 0.0225607 0 0 0 96 78 38
-0.184199 0.0752299 0.022111 0 0 0 110 93 65
-0.137803 0.0772885 -0.0369828 0 0 0 132 121 90
-0.221821 0.0743806 -0.000877324 0 0 0 124 118 85
-0.239382 0.0602657 -0.0602816 0 0 0 220 221 220
-0.213684 0.0756964 0.00956578 0 0 0 32 57 16
-0.0560625 0.0817803 0.00231963 0 0 0 67 13 22
-0.223684 0.0752486 0.0145722 0 0 0 12 13 7
-0.261761 0.0214965 -0.0306004 0 0 0 107 79 70
-0.25817 0.0292945 0.0255914 0 0 0 47 50 50
-0.10228 0.0776462 -0.0298664 0 0 0 147 145 116
-0.0453604 0.0795846 -0.0258771 0 0 0 36 14 13
-0.112421 0.0788453 0.0140609 0 0 0 98 79 36
-0.199265 0.0752007 0.00101261 0 0 0 103 84 56
-0.117074 0.079179 -0.00707062 0 0 0 139 133 60
-0.182464 0.0746783 -0.0263871 0 0 0 124 99 53
-0.0627276 0.079271 0.0186898 0 0 0 110 76 4
-0.117008 0.079361 -0.00827321 0 0 0 141 134 71
-0.0667473 0.0791947 -0.00624448 0 0 0 127 98 6
-0.252547 0.0436056 0.0213486 0 0 0 80 84 85
-0.268526 0.0246016 0.0132241 0 0 0 44 33 10
-0.168272 0.074657 -0.0134786 0 0 0 130 118 70
