ply
format ascii 1.0
element vertex 77
property float x
property float y
property float z
property float nx
property float ny
property float nz
property uchar diffuse_red
property uchar diffuse_green
property uchar diffuse_blue
end_header
-0.100344 0.0746231 -0.0584983 0 0 0 230 232 238
-0.0362112 0.0726065 -0.0597347 0 0 0 254 254 254
-0.244489 0.0591605 0.0235984 0 0 0 187 196 180
-0.170229 0.0713674 -0.0605376 0 0 0 219 221 239
-0.175943 0.0727651 -0.0599837 0 0 0 217 223 237
-0.262886 0.0558476 -0.0144515 0 0 0 253 252 237
-0.267219 0.0233631 -0.0574366 0 0 0 189 193 190
-0.259888 0.0259064 -0.00534406 0 0 0 241 237 110
-0.256861 0.06257 -0.00880097 0 0 0 252 253 253
-0.258557 0.0576038 -0.0345653 0 0 0 69 77 79
-0.268886 0.0235562 -0.0461569 0 0 0 14 13 13
-0.26412 0.0477532 -0.0311701 0 0 0 66 63 72
-0.267647 0.0232688 -0.0451114 0 0 0 14 12 12
-0.260567 0.0571566 -0.0357308 0 0 0 72 77 82
-0.223537 0.0674371 -0.0628905 0 0 0 237 238 238
-0.221406 0.0711676 -0.0341129 0 0 0 50 17 13
-0.141526 0.0780808 -0.0271765 0 0 0 138 127 103
-0.25157 0.0469701 0.00504541 0 0 0 232 231 56
-0.243827 0.0525859 -0.0534819 0 0 0 162 170 195
-0.260185 0.0244187 -0.0235389 0 0 0 182 184 177
-0.125786 0.0742954 -0.0490363 0 0 0 54 47 44
-0.142994 0.0779781 -0.0103077 0 0 0 136 129 103
-0.239403 0.0606929 -0.0494905 0 0 0 94 69 61
-0.254361 0.0415716 0.00406903 0 0 0 214 204 4
-0.15871 0.077025 0.00224425 0 0 0 130 114 82
-0.141993 0.0738311 -0.0475405 0 0 0 45 41 35
-0.0787099 0.0793211 0.015528 0 0 0 130 115 58
-0.0967888 0.0794079 0.00594091 0 0 0 23 15 10
-0.0788453 0.0733069 -0.0608339 0 0 0 46 48 54
-0.143363 0.0730527 -0.05379 0 0 0 42 34 25
-0.0856919 0.0750326 -0.0446354 0 0 0 42 43 33
-0.238571 0.0656493 -0.00122713 0 0 0 32 36 40
-0.255693 0.0332445 0.00492132 0 0 0 237 238 52
-0.148262 0.0781344 0.0254077 0 0 0 126 111 56
-0.256924 0.0268984 -0.0478149 0 0 0 46 51 56
-0.15025 0.0793053 0.0219077 0 0 0 129 117 74
-0.203536 0.0688846 -0.0495938 0 0 0 104 46 9
-0.211673 0.0687645 -0.0585007 0 0 0 246 245 246
-0.239833 0.0649555 -0.0232386 0 0 0 171 139 51
-0.240168 0.0651326 0.00298547 0 0 0 51 41 26
-0.152714 0.0731133 -0.0462597 0 0 0 108 87 37
-0.221204 0.0737069 0.00293645 0 0 0 117 111 73
-0.0791205 0.0788372 -0.015441 0 0 0 90 7 6
-0.251039 0.0392976 -0.0608871 0 0 0 209 213 210
-0.142417 0.0760734 -0.0300143 0 0 0 139 132 103
-0.267884 0.0236461 -0.0360836 0 0 0 18 14 15
-0.12622 0.0787121 -0.0245979 0 0 0 129 89 62
-0.112721 0.0762776 -0.0388445 0 0 0 145 143 113
-0.134602 0.0788813 -0.00755971 0 0 0 143 140 121
-0.219355 0.0725789 -0.0115841 0 0 0 128 123 108
-0.166081 0.0780334 0.0208627 0 0 0 133 128 97
-0.131634 0.0797201 0.0157159 0 0 0 53 42 50
-0.0520516 0.0757632 -0.0477599 0 0 0 42 48 45
-0.0244377 0.0780463 -0.0395882 0 0 0 54 58 69
-0.274174 0.0234285 -0.00740003 0 0 0 102 112 77
-0.0747492 0.079137 -0.00239318 0 0 0 125 100 14
-0.246798 0.0559981 0.00231758 0 0 0 122 128 54
-0.204343 0.0712495 -0.0217329 0 0 0 68 74 3
-0.0586913 0.0768725 -0.0221948 0 0 0 118 80 2
-0.137399 0.0773571 -0.0370725 0 0 0 132 121 89
-0.213843 0.0711475 -0.0139804 0 0 0 126 117 39
-0.238981 0.0606755 -0.0606033 0 0 0 222 224 226
-0.0533438 0.0812823 0.00247428 0 0 0 57 12 22
-0.210454 0.0724162 -0.00695739 0 0 0 78 72 15
-0.261656 0.0222302 -0.030726 0 0 0 110 73 70
-0.0417023 0.0783963 -0.0271826 0 0 0 26 24 16
-0.221359 0.0755514 0.012023 0 0 0 15 10 21
-0.102609 0.0782829 -0.0296876 0 0 0 142 145 113
-0.112186 0.0791502 0.0140469 0 0 0 96 75 33
-0.116764 0.0793569 -0.00710253 0 0 0 139 131 66
-0.0632513 0.0800294 0.0189162 0 0 0 110 79 2
-0.181469 0.0742835 -0.0267696 0 0 0 124 97 51
-0.0641486 0.0773025 -0.00769956 0 0 0 129 101 3
-0.116694 0.07953 -0.00830613 0 0 0 140 133 74
-0.258349 0.0238792 -0.0609322 0 0 0 197 201 201
-0.251961 0.0438069 0.0210166 0 0 0 82 84 89
-0.189248 0.0710489 -0.05991 0 0 0 237 242 244
