ply
format ascii 1.0
element vertex 76
property float x
property float y
property float z
property float nx
property float ny
property float nz
property uchar diffuse_red
property uchar diffuse_green
property uchar diffuse_blue
end_header
-0.101222 0.0745559 -0.0594211 0 0 0 222 229 246
-0.0411129 0.0735249 -0.0596906 0 0 0 254 254 254
-0.245224 0.061779 0.021833 0 0 0 185 195 175
-0.261079 0.0606791 -0.0158874 0 0 0 253 253 235
-0.175283 0.0735986 -0.0614831 0 0 0 216 223 239
-0.170216 0.0728995 -0.0617888 0 0 0 220 221 238
-0.26535 0.0242163 -0.0608126 0 0 0 191 195 189
-0.258414 0.0669186 -0.0104098 0 0 0 252 253 253
-0.260771 0.0286005 -0.00711667 0 0 0 241 235 106
-0.259108 0.0586151 -0.0367547 0 0 0 69 78 79
-0.269494 0.0262154 -0.0479874 0 0 0 13 13 21
-0.258206 0.0332938 -0.000670726 0 0 0 239 235 90
-0.268266 0.0259178 -0.0469318 0 0 0 14 13 14
-0.22609 0.0712349 -0.0640295 0 0 0 234 235 237
-0.224861 0.070859 -0.0619236 0 0 0 235 236 237
-0.141688 0.0794081 -0.0282374 0 0 0 138 131 108
-0.220922 0.0726893 -0.036995 0 0 0 51 19 10
-0.244928 0.0540594 -0.0542957 0 0 0 139 148 160
-0.265856 0.0507951 -0.017812 0 0 0 254 253 249
-0.260579 0.0573279 -0.0381127 0 0 0 73 77 81
-0.143953 0.0801116 -0.0112637 0 0 0 136 131 104
-0.23983 0.067398 -0.00312234 0 0 0 32 26 33
-0.262884 0.0521431 -0.0348508 0 0 0 58 64 63
-0.239582 0.0630169 -0.0512208 0 0 0 94 66 68
-0.261677 0.0264654 -0.0265591 0 0 0 171 168 145
-0.157676 0.0785105 0.00228012 0 0 0 123 101 73
-0.125829 0.0753797 -0.0499679 0 0 0 54 48 41
-0.264574 0.0504077 -0.0330429 0 0 0 63 63 66
-0.0782637 0.0809539 0.0151082 0 0 0 129 119 44
-0.142052 0.0750972 -0.0485907 0 0 0 46 41 34
-0.0950523 0.0782557 0.0049501 0 0 0 21 18 16
-0.254217 0.0422066 0.00423689 0 0 0 233 225 74
-0.141186 0.0736494 -0.0550441 0 0 0 46 45 30
-0.257484 0.0294214 -0.0495674 0 0 0 45 51 63
-0.257175 0.036645 0.00433777 0 0 0 199 219 70
-0.0149814 0.0777608 -0.0260626 0 0 0 26 34 51
-0.203628 0.0708161 -0.0510843 0 0 0 103 47 5
-0.2117 0.0707558 -0.0600508 0 0 0 244 244 245
-0.238456 0.0648789 -0.0254419 0 0 0 172 137 57
-0.0810056 0.0793549 -0.0161081 0 0 0 92 6 11
-0.152789 0.0745007 -0.0473871 0 0 0 110 88 31
-0.222224 0.0768106 0.00140238 0 0 0 116 111 73
-0.220476 0.074072 -0.0133611 0 0 0 125 121 99
-0.111234 0.0773714 -0.039665 0 0 0 147 145 121
-0.14258 0.0774012 -0.0310754 0 0 0 144 133 106
-0.268058 0.0254416 -0.0380785 0 0 0 18 14 12
-0.17145 0.077733 0.0225004 0 0 0 127 109 86
-0.12571 0.0791604 -0.0256838 0 0 0 132 89 58
-0.254451 0.068297 -0.0336493 0 0 0 72 73 68
-0.1349 0.080197 -0.00857257 0 0 0 143 141 122
-0.141649 0.0800038 0.0188264 0 0 0 128 121 83
-0.219686 0.0748072 -0.0132048 0 0 0 126 123 107
-0.132779 0.081806 0.0147952 0 0 0 54 40 44
-0.0528332 0.0767152 -0.0479916 0 0 0 40 47 56
-0.0765421 0.0811839 -0.00277237 0 0 0 126 101 7
-0.240093 0.0606614 -0.0628574 0 0 0 220 221 220
-0.214172 0.0733078 -0.0155557 0 0 0 126 117 38
-0.137497 0.0786071 -0.0381003 0 0 0 132 121 92
-0.212467 0.0789478 0.0221336 0 0 0 39 29 46
-0.0562083 0.0820298 0.00332209 0 0 0 69 14 21
-0.210821 0.0745624 -0.00851181 0 0 0 88 68 13
-0.25223 0.0457887 0.0180979 0 0 0 81 76 78
-0.04378 0.0768561 -0.0278826 0 0 0 40 12 13
-0.221234 0.077071 0.0102883 0 0 0 16 12 22
-0.102754 0.0791771 -0.0304607 0 0 0 143 147 116
-0.217109 0.0765397 -0.00394411 0 0 0 119 98 23
-0.117757 0.0811932 -0.00787701 0 0 0 139 132 70
-0.112643 0.0802918 0.0131986 0 0 0 100 77 16
-0.0644761 0.0813292 0.0184906 0 0 0 111 78 4
-0.241887 0.0649101 0.00400792 0 0 0 27 30 17
-0.259325 0.0634392 -0.0303748 0 0 0 65 52 70
-0.181672 0.0760485 -0.0281146 0 0 0 122 97 48
-0.0660213 0.0790262 -0.00671002 0 0 0 126 101 16
-0.117676 0.0813613 -0.00907873 0 0 0 140 134 79
-0.168902 0.0774624 -0.0147793 0 0 0 129 114 79
-0.271659 0.027956 0.0109909 0 0 0 17 12 23
