ply
format ascii 1.0
element vertex 71
property float x
property float y
property float z
property float nx
property float ny
property float nz
property uchar diffuse_red
property uchar diffuse_green
property uchar diffuse_blue
end_header
-0.101614 0.0746917 -0.0590839 0 0 0 223 231 247
-0.169253 0.0711084 -0.0616778 0 0 0 223 226 240
-0.244054 0.0591887 0.0222313 0 0 0 185 195 190
-0.173494 0.0725531 -0.0611934 0 0 0 216 223 238
-0.267883 0.0234995 -0.0589678 0 0 0 187 192 185
-0.260007 0.0268084 -0.0066845 0 0 0 240 235 102
-0.259324 0.0563298 -0.0374622 0 0 0 72 77 84
-0.218984 0.0681313 -0.0653673 0 0 0 241 242 243
-0.269324 0.0253382 -0.0473472 0 0 0 17 12 24
-0.219124 0.0678195 -0.0631824 0 0 0 243 243 243
-0.259324 0.0563298 -0.0374622 0 0 0 72 77 84
-0.243603 0.0533796 -0.0547661 0 0 0 162 173 196
-0.139122 0.0778458 -0.0280987 0 0 0 140 128 103
-0.257458 0.0315046 -0.000233985 0 0 0 238 234 98
-0.220538 0.0712422 -0.0365575 0 0 0 51 21 11
-0.26015 0.025461 -0.0259717 0 0 0 185 194 174
-0.141355 0.0784858 -0.0110655 0 0 0 136 131 109
-0.249116 0.050508 0.000981379 0 0 0 234 219 42
-0.239165 0.0614726 -0.0507602 0 0 0 91 72 65
-0.125499 0.0746244 -0.0497553 0 0 0 53 46 24
-0.263491 0.0477858 -0.0327214 0 0 0 54 64 72
-0.265272 0.0489915 -0.0173161 0 0 0 254 254 245
-0.159402 0.0781126 0.00260911 0 0 0 130 112 90
-0.237977 0.065644 -0.00261421 0 0 0 35 34 32
-0.141716 0.0742258 -0.0483393 0 0 0 45 40 36
-0.14546 0.0772104 0.0245533 0 0 0 126 110 64
-0.0785051 0.0734387 -0.0613191 0 0 0 43 49 53
-0.143726 0.0741781 -0.0544074 0 0 0 45 36 19
-0.0770029 0.079878 0.0138932 0 0 0 129 119 46
-0.0966759 0.0798475 0.00413255 0 0 0 18 16 14
-0.276497 0.0235004 -0.00684906 0 0 0 133 126 82
-0.25683 0.0277496 -0.049141 0 0 0 46 50 53
-0.203266 0.0695218 -0.0506931 0 0 0 105 46 12
-0.275005 0.0238021 -0.0100379 0 0 0 125 128 86
-0.237417 0.0624573 -0.0251351 0 0 0 171 137 52
-0.219467 0.0728519 -0.00952772 0 0 0 108 91 83
-0.152446 0.0735518 -0.047111 0 0 0 110 88 35
-0.0199456 0.0788641 -0.017692 0 0 0 55 56 53
-0.0183232 0.077771 -0.0192557 0 0 0 57 57 53
-0.0789831 0.0790118 -0.0159332 0 0 0 90 10 12
-0.22168 0.0743389 -0.00270526 0 0 0 123 119 90
-0.142218 0.0764859 -0.0308175 0 0 0 140 137 107
-0.223795 0.0749072 -0.000488992 0 0 0 81 80 70
-0.112477 0.0765641 -0.0395006 0 0 0 146 145 116
-0.125347 0.0783501 -0.0254628 0 0 0 129 89 59
-0.134502 0.0792834 -0.00832697 0 0 0 144 142 123
-0.267347 0.02367 -0.0376358 0 0 0 19 14 16
-0.131646 0.0801319 0.0149623 0 0 0 52 43 48
-0.0525094 0.0764637 -0.0479533 0 0 0 44 47 46
-0.167367 0.0802514 0.0189493 0 0 0 135 131 104
-0.213508 0.0770506 0.00914512 0 0 0 81 61 14
-0.166928 0.0790141 0.0222829 0 0 0 132 127 88
-0.076138 0.0806633 -0.00266637 0 0 0 127 99 6
-0.0585288 0.0769598 -0.0225839 0 0 0 116 80 11
-0.13716 0.0777432 -0.0378519 0 0 0 133 122 89
-0.0557138 0.0818193 0.00210199 0 0 0 68 14 18
-0.102335 0.075317 -0.0411129 0 0 0 148 146 119
-0.103295 0.0776967 -0.0304727 0 0 0 146 147 114
-0.0432101 0.0781732 -0.0275464 0 0 0 34 16 10
-0.0632797 0.0801727 0.0185011 0 0 0 111 78 4
-0.224017 0.0778432 0.0120155 0 0 0 11 12 10
-0.0966238 0.0811076 -0.010779 0 0 0 115 83 2
-0.0441581 0.0772794 -0.0277348 0 0 0 41 14 6
-0.110786 0.0780696 0.0132348 0 0 0 99 77 27
-0.255616 0.0650254 -0.0323973 0 0 0 58 66 69
-0.260237 0.0283861 0.0224637 0 0 0 51 52 51
-0.181929 0.0756181 -0.027613 0 0 0 125 99 41
-0.25214 0.0447015 0.019699 0 0 0 80 83 85
-0.116665 0.0796886 -0.00778182 0 0 0 140 133 61
-0.116588 0.0798603 -0.00898521 0 0 0 140 136 72
-0.0656122 0.078588 -0.00663455 0 0 0 126 100 11
