ply
format ascii 1.0
element vertex 75
property float x
property float y
property float z
property float nx
property float ny
property float nz
property uchar diffuse_red
property uchar diffuse_green
property uchar diffuse_blue
end_header
-0.101262 0.0741643 -0.0591689 0 0 0 220 229 246
-0.0392343 0.0754499 -0.0592797 0 0 0 254 254 254
-0.172182 0.0741913 -0.0606756 0 0 0 221 226 238
-0.143387 0.0702799 -0.0650314 0 0 0 227 236 249
-0.244786 0.0600497 0.0215025 0 0 0 188 199 185
-0.17596 0.0733449 -0.0607593 0 0 0 218 224 238
-0.263358 0.0571586 -0.00795728 0 0 0 238 244 228
-0.268159 0.0234226 -0.0587204 0 0 0 189 192 190
-0.260226 0.0266865 -0.0064431 0 0 0 241 237 107
-0.256957 0.0647541 -0.00855606 0 0 0 254 254 254
-0.260611 0.0539426 -0.0376757 0 0 0 74 77 80
-0.269589 0.0252466 -0.0470962 0 0 0 13 11 19
-0.258924 0.056814 -0.0359846 0 0 0 72 79 82
-0.267842 0.0240751 -0.0462397 0 0 0 15 13 11
-0.139442 0.077926 -0.0279473 0 0 0 142 128 105
-0.243918 0.0533341 -0.0545156 0 0 0 162 173 197
-0.221456 0.0720119 -0.0361404 0 0 0 51 21 10
-0.255487 0.0373813 0.00328222 0 0 0 233 217 34
-0.257676 0.0313795 9.4408e-06 0 0 0 239 238 91
-0.141655 0.0785442 -0.0109108 0 0 0 136 129 98
-0.220066 0.0686193 -0.0627263 0 0 0 241 242 244
-0.125154 0.0740328 -0.049802 0 0 0 54 46 51
-0.239488 0.0614293 -0.0505062 0 0 0 91 63 64
-0.22964 0.069194 -0.0633581 0 0 0 233 235 235
-0.215165 0.0690734 -0.0616547 0 0 0 245 245 247
-0.159685 0.0781295 0.00278513 0 0 0 128 112 86
-0.264439 0.0482442 -0.0301676 0 0 0 76 72 75
-0.142054 0.0743241 -0.0481887 0 0 0 45 40 33
-0.249166 0.0476526 0.00300531 0 0 0 239 235 77
-0.0767006 0.0789642 0.0164043 0 0 0 129 117 37
-0.1412 0.0729055 -0.0546501 0 0 0 45 42 25
-0.260982 0.0260759 -0.0244859 0 0 0 183 186 169
-0.0970371 0.0797789 0.00546271 0 0 0 21 18 9
-0.0788587 0.0736446 -0.0612455 0 0 0 44 49 56
-0.263933 0.0462819 -0.0174807 0 0 0 254 254 247
-0.149261 0.0793664 0.0248005 0 0 0 125 112 62
-0.149043 0.0798663 0.021326 0 0 0 128 116 75
-0.257101 0.0276784 -0.0489024 0 0 0 47 51 54
-0.203601 0.0695315 -0.0504736 0 0 0 105 42 12
-0.275868 0.0232332 -0.0120839 0 0 0 135 128 84
-0.238858 0.0640386 -0.0245687 0 0 0 173 141 54
-0.219689 0.0729483 -0.0103643 0 0 0 116 106 77
-0.15212 0.072895 -0.0471273 0 0 0 107 90 35
-0.275936 0.0230787 -0.0110103 0 0 0 136 127 80
-0.0200876 0.0794925 -0.0203452 0 0 0 59 61 54
-0.0792902 0.0791678 -0.0158529 0 0 0 91 9 12
-0.142539 0.0765645 -0.0306639 0 0 0 139 135 104
-0.223232 0.0757208 -0.00115424 0 0 0 114 113 96
-0.113507 0.0774007 -0.0392222 0 0 0 146 145 112
-0.125664 0.0784478 -0.0253275 0 0 0 130 89 54
-0.267598 0.0235707 -0.0373889 0 0 0 20 14 13
-0.224743 0.0754829 0.000942652 0 0 0 73 71 65
-0.1348 0.079349 -0.00817963 0 0 0 142 140 119
-0.0521082 0.0760319 -0.0480707 0 0 0 44 47 56
-0.131917 0.0801765 0.0151071 0 0 0 52 43 54
-0.205121 0.0726799 -0.0224669 0 0 0 67 75 5
-0.0595816 0.0778202 -0.0224031 0 0 0 117 83 2
-0.0749671 0.0794545 -0.00278877 0 0 0 125 102 20
-0.261113 0.0237706 -0.0316741 0 0 0 174 179 126
-0.137491 0.0778369 -0.037703 0 0 0 132 122 83
-0.0426648 0.0791022 -0.026019 0 0 0 33 16 14
-0.102018 0.0779783 -0.0303327 0 0 0 143 147 114
-0.0535748 0.0815456 0.00215927 0 0 0 57 14 18
-0.223686 0.0769507 0.0121768 0 0 0 12 12 11
-0.251574 0.0452988 0.0201051 0 0 0 86 89 87
-0.0658277 0.0789366 -0.00784185 0 0 0 129 102 2
-0.112465 0.0795582 0.0135109 0 0 0 99 76 38
-0.0636266 0.080132 0.0198328 0 0 0 111 78 4
-0.116963 0.07978 -0.00765551 0 0 0 139 132 67
-0.238311 0.0619967 -0.0603866 0 0 0 223 226 225
-0.182245 0.0756344 -0.0274125 0 0 0 123 98 54
-0.240836 0.0638462 0.00489002 0 0 0 53 57 33
-0.116888 0.0799531 -0.00885881 0 0 0 140 135 77
-0.27071 0.0276666 0.010877 0 0 0 17 14 23
-0.197813 0.0764498 -9.04935e-05 0 0 0 104 90 64
