ply
format ascii 1.0
element vertex 77
property float x
property float y
property float z
property float nx
property float ny
property float nz
property uchar diffuse_red
property uchar diffuse_green
property uchar diffuse_blue
end_header
-0.100656 0.0752313 -0.0588698 0 0 0 230 232 239
-0.043765 0.0758236 -0.0578958 0 0 0 254 254 254
-0.263621 0.055039 -0.00762662 0 0 0 245 250 252
-0.171185 0.0726752 -0.0607276 0 0 0 222 227 239
-0.244805 0.059285 0.0231268 0 0 0 186 196 184
-0.268277 0.0230761 -0.0582276 0 0 0 189 192 187
-0.17561 0.0725624 -0.0605914 0 0 0 219 225 239
-0.244943 0.0578751 0.0218314 0 0 0 172 180 171
-0.140498 0.0719323 -0.0632832 0 0 0 82 72 83
-0.255306 0.030967 -0.00719593 0 0 0 216 212 28
-0.260106 0.0263072 -0.00705342 0 0 0 250 247 113
-0.25831 0.0571271 -0.0352308 0 0 0 70 77 80
-0.264952 0.048772 -0.0141962 0 0 0 254 254 252
-0.269157 0.0239679 -0.04679 0 0 0 13 13 19
-0.259622 0.0572489 -0.0351984 0 0 0 71 79 81
-0.267918 0.0236769 -0.0457455 0 0 0 13 13 15
-0.139704 0.077706 -0.026499 0 0 0 139 127 113
-0.221657 0.0717262 -0.0356066 0 0 0 49 21 18
-0.239657 0.0651566 -0.00182238 0 0 0 32 25 38
-0.244185 0.0528907 -0.0529027 0 0 0 143 158 173
-0.143319 0.0783378 -0.0106741 0 0 0 138 131 103
-0.255432 0.0368153 0.00378855 0 0 0 234 214 19
-0.239704 0.0611438 -0.0499536 0 0 0 93 65 71
-0.257802 0.0293663 -0.000862754 0 0 0 242 235 77
-0.126099 0.0748404 -0.0494149 0 0 0 54 47 45
-0.15977 0.0778865 0.00312671 0 0 0 129 112 83
-0.249084 0.047268 0.00245976 0 0 0 235 227 54
-0.259935 0.0238671 -0.0243254 0 0 0 183 184 180
-0.142307 0.0743558 -0.0479246 0 0 0 47 41 32
-0.264539 0.0477892 -0.0295832 0 0 0 74 75 82
-0.0775763 0.0782646 0.0150219 0 0 0 131 117 50
-0.0978368 0.0804257 0.00568639 0 0 0 23 14 13
-0.14147 0.0729673 -0.0543949 0 0 0 45 39 33
-0.0791555 0.0739436 -0.0612065 0 0 0 45 50 52
-0.147008 0.0785716 0.0239774 0 0 0 126 111 66
-0.276518 0.0230767 -0.00821213 0 0 0 133 127 81
-0.257198 0.0273275 -0.0484307 0 0 0 49 49 59
-0.148391 0.0788484 0.0215617 0 0 0 124 117 74
-0.203845 0.0693662 -0.050013 0 0 0 105 47 10
-0.211183 0.070036 -0.0587628 0 0 0 247 246 246
-0.238991 0.0636457 -0.0240076 0 0 0 172 138 64
-0.251076 0.0413855 -0.0610657 0 0 0 211 214 214
-0.219802 0.0725595 -0.00983318 0 0 0 117 106 99
-0.079445 0.0792735 -0.0157898 0 0 0 90 10 10
-0.267641 0.023136 -0.0368979 0 0 0 19 15 11
-0.142736 0.0765204 -0.0303888 0 0 0 140 135 100
-0.113038 0.0767887 -0.0392116 0 0 0 147 146 114
-0.12585 0.0784378 -0.025104 0 0 0 130 89 65
-0.134928 0.0792359 -0.00792035 0 0 0 143 141 120
-0.132657 0.0806924 0.0154434 0 0 0 50 40 41
-0.224223 0.0742271 0.00138484 0 0 0 72 75 70
-0.221275 0.0745789 -0.00175831 0 0 0 125 119 87
-0.167867 0.0793956 0.0229153 0 0 0 134 125 90
-0.241897 0.0572273 -0.0608391 0 0 0 221 222 222
-0.205276 0.0723911 -0.021988 0 0 0 68 75 6
-0.0540507 0.0761313 -0.0481351 0 0 0 42 48 51
-0.0597554 0.0780197 -0.022415 0 0 0 116 80 5
-0.204597 0.0759888 0.00687535 0 0 0 94 70 4
-0.0239907 0.077996 -0.0400813 0 0 0 55 56 71
-0.137718 0.0778395 -0.0374402 0 0 0 132 120 92
-0.0216943 0.0777147 -0.0126982 0 0 0 41 49 62
-0.261136 0.0233336 -0.0312051 0 0 0 172 177 123
-0.0546038 0.0807784 0.001956 0 0 0 68 11 27
-0.0643288 0.080995 0.0186491 0 0 0 111 77 4
-0.10222 0.0780689 -0.0301943 0 0 0 144 146 118
-0.042024 0.0789161 -0.0275252 0 0 0 29 20 18
-0.251713 0.0430826 0.0203922 0 0 0 82 86 86
-0.0439159 0.0771188 -0.027903 0 0 0 38 16 6
-0.111104 0.0780226 0.0135225 0 0 0 98 76 34
-0.182428 0.0754433 -0.0270016 0 0 0 126 99 56
-0.224337 0.0772544 0.0128364 0 0 0 13 13 16
-0.117091 0.0797246 -0.00745723 0 0 0 140 133 61
-0.268842 0.0258313 0.0124273 0 0 0 40 32 7
-0.11702 0.0799031 -0.00866005 0 0 0 141 136 71
-0.168938 0.0761468 -0.0139059 0 0 0 132 116 72
-0.192909 0.0756139 -0.0178105 0 0 0 133 128 86
-0.0660282 0.0788652 -0.00655676 0 0 0 126 100 13
