ply
format ascii 1.0
element vertex 82
property float x
property float y
property float z
property float nx
property float ny
property float nz
property uchar diffuse_red
property uchar diffuse_green
property uchar diffuse_blue
end_header
-0.0462699 0.0766799 -0.0578788 0 0 0 254 254 254
-0.10231 0.0752627 -0.0591117 0 0 0 220 230 245
-0.131267 0.0726174 -0.0638001 0 0 0 243 243 246
-0.170569 0.0717997 -0.0613233 0 0 0 218 222 239
-0.175713 0.0722374 -0.0598407 0 0 0 217 222 237
-0.261516 0.0584111 -0.0149259 0 0 0 252 253 237
-0.26808 0.0224789 -0.0589552 0 0 0 188 192 189
-0.244281 0.0578356 0.0214254 0 0 0 187 200 178
-0.260076 0.0253997 -0.0066683 0 0 0 241 237 112
-0.259136 0.0556057 -0.0349243 0 0 0 68 75 80
-0.258092 0.0309262 -6.45211e-05 0 0 0 239 236 78
-0.268984 0.0233256 -0.047516 0 0 0 14 14 13
-0.267745 0.0230367 -0.0464704 0 0 0 15 13 10
-0.139751 0.0777821 -0.027988 0 0 0 141 121 112
-0.232796 0.0673302 -0.0646275 0 0 0 227 230 229
-0.222509 0.0705201 -0.0362408 0 0 0 55 17 15
-0.244704 0.053217 -0.0532695 0 0 0 144 161 174
-0.229941 0.0685957 -0.0633045 0 0 0 231 233 234
-0.25977 0.055198 -0.0371842 0 0 0 73 77 84
-0.126856 0.075592 -0.0495279 0 0 0 53 48 29
-0.248473 0.0512905 0.00267817 0 0 0 193 201 92
-0.239702 0.0606516 -0.050496 0 0 0 92 66 70
-0.265107 0.0466059 -0.016186 0 0 0 254 253 244
-0.23899 0.0652267 -0.00219302 0 0 0 33 34 38
-0.158371 0.0778154 0.00169476 0 0 0 130 112 80
-0.260331 0.0240558 -0.024875 0 0 0 184 187 183
-0.142372 0.0743169 -0.0482522 0 0 0 45 39 39
-0.264445 0.0472675 -0.0312718 0 0 0 69 63 81
-0.0792398 0.0796558 0.0149807 0 0 0 132 119 50
-0.0791969 0.0742512 -0.0614269 0 0 0 43 51 55
-0.141518 0.0729557 -0.054726 0 0 0 45 43 23
-0.149553 0.0785557 0.0259439 0 0 0 126 112 59
-0.25246 0.0429205 0.00550333 0 0 0 231 230 69
-0.0875306 0.0771659 -0.0448869 0 0 0 43 42 44
-0.0973008 0.0797183 0.00535953 0 0 0 17 16 12
-0.220427 0.0679277 -0.061605 0 0 0 239 240 241
-0.149345 0.0790844 0.022473 0 0 0 124 111 67
-0.257038 0.0267476 -0.0491241 0 0 0 46 51 57
-0.256723 0.0319298 0.00350262 0 0 0 236 237 58
-0.21413 0.0683829 -0.0605916 0 0 0 242 244 246
-0.203882 0.0690438 -0.0504643 0 0 0 104 43 12
-0.237885 0.0614258 -0.0248684 0 0 0 170 139 61
-0.152423 0.0727981 -0.047184 0 0 0 110 84 42
-0.246866 0.0503877 -0.0605918 0 0 0 216 219 220
-0.219315 0.0712227 -0.0104385 0 0 0 115 104 86
-0.201294 0.068575 -0.0633217 0 0 0 215 224 240
-0.079589 0.079417 -0.0159919 0 0 0 91 8 15
-0.142842 0.0764167 -0.0307096 0 0 0 139 134 105
-0.11313 0.0768571 -0.0394802 0 0 0 146 145 113
-0.224371 0.073624 0.000915412 0 0 0 63 77 66
-0.252608 0.0657861 -0.0305662 0 0 0 65 66 55
-0.125973 0.0783951 -0.0253889 0 0 0 130 90 61
-0.135084 0.0790886 -0.00821816 0 0 0 143 141 120
-0.268002 0.0233405 -0.0374403 0 0 0 21 15 16
-0.167277 0.0785826 0.0202157 0 0 0 132 127 97
-0.221419 0.074001 -0.00222139 0 0 0 123 117 82
-0.132165 0.079758 0.0150691 0 0 0 50 41 38
-0.141747 0.0783005 0.0203808 0 0 0 126 119 72
-0.204755 0.0711815 -0.022587 0 0 0 67 75 8
-0.0591364 0.0776203 -0.0227216 0 0 0 118 80 2
-0.0767941 0.0807872 -0.00146675 0 0 0 126 101 13
-0.137818 0.0777848 -0.0377475 0 0 0 131 121 86
-0.104404 0.0771034 -0.0407984 0 0 0 147 146 124
-0.0205584 0.0798512 -0.0179279 0 0 0 55 56 57
-0.0208765 0.079041 -0.0126089 0 0 0 46 50 46
-0.0533451 0.0770126 -0.045524 0 0 0 49 47 48
-0.251462 0.0440372 0.0189383 0 0 0 86 85 78
-0.0547855 0.0809759 0.00180184 0 0 0 68 12 20
-0.221923 0.0749557 0.0122378 0 0 0 13 12 13
-0.103047 0.0788455 -0.030288 0 0 0 142 145 117
-0.0646155 0.0808937 0.0197448 0 0 0 114 77 2
-0.0440295 0.0774739 -0.0280516 0 0 0 39 14 11
-0.204697 0.0756251 0.00535471 0 0 0 99 90 5
-0.0507253 0.0781521 -0.0453045 0 0 0 48 49 49
-0.115072 0.0796931 0.0146289 0 0 0 92 74 35
-0.117251 0.0796601 -0.0077226 0 0 0 139 132 70
-0.0661102 0.0792325 -0.008007 0 0 0 126 100 6
-0.181889 0.0743832 -0.027555 0 0 0 123 98 51
-0.117179 0.0798432 -0.00892465 0 0 0 140 134 80
-0.270916 0.0242099 0.0125613 0 0 0 18 14 13
-0.16907 0.07586 -0.0142732 0 0 0 129 111 82
-0.157884 0.0777357 0.00761289 0 0 0 131 128 97
