ply
format ascii 1.0
element vertex 80
property float x
property float y
property float z
property float nx
property float ny
property float nz
property uchar diffuse_red
property uchar diffuse_green
property uchar diffuse_blue
end_header
-0.101006 0.0743372 -0.0596824 0 0 0 224 228 245
-0.0466171 0.0747549 -0.0580769 0 0 0 254 254 254
-0.142462 0.0699732 -0.0659488 0 0 0 229 236 248
-0.244548 0.0604827 0.0212833 0 0 0 185 192 187
-0.169993 0.0725547 -0.062157 0 0 0 221 224 239
-0.261447 0.0610404 -0.0162561 0 0 0 252 253 237
-0.175062 0.0732447 -0.0618594 0 0 0 217 224 239
-0.245251 0.059906 0.0200661 0 0 0 171 181 171
-0.260478 0.028261 -0.00870037 0 0 0 248 246 110
-0.268237 0.024703 -0.0599171 0 0 0 189 191 192
-0.25771 0.0655805 -0.0110414 0 0 0 252 253 253
-0.264506 0.0498481 -0.0161979 0 0 0 254 254 251
-0.261061 0.0562551 -0.0398231 0 0 0 73 78 87
-0.269207 0.0256948 -0.048495 0 0 0 14 13 19
-0.139322 0.0784676 -0.0286744 0 0 0 141 125 111
-0.258533 0.0336814 -0.00105748 0 0 0 239 232 97
-0.220737 0.0722604 -0.0374421 0 0 0 51 21 13
-0.244683 0.0535814 -0.0547741 0 0 0 138 144 166
-0.261133 0.0561079 -0.03877 0 0 0 71 77 81
-0.262665 0.0516387 -0.0353566 0 0 0 59 64 66
-0.142293 0.0798964 -0.0115375 0 0 0 135 128 105
-0.256327 0.039675 0.00219939 0 0 0 231 215 34
-0.238339 0.0668413 -0.0035544 0 0 0 35 33 34
-0.261424 0.0259659 -0.0270547 0 0 0 174 168 136
-0.249718 0.0514733 0.00217603 0 0 0 220 225 137
-0.125629 0.0751193 -0.0502678 0 0 0 53 47 44
-0.239357 0.0625495 -0.0516938 0 0 0 92 68 66
-0.158223 0.0789563 0.00202401 0 0 0 127 101 79
-0.141853 0.0748078 -0.0489158 0 0 0 47 41 39
-0.0785964 0.0736616 -0.0616402 0 0 0 45 47 56
-0.0790887 0.0799473 0.0146984 0 0 0 130 116 54
-0.0949431 0.0780688 0.00469715 0 0 0 19 17 12
-0.143174 0.0740196 -0.0551745 0 0 0 44 35 16
-0.257201 0.0289221 -0.0500574 0 0 0 46 51 71
-0.170539 0.0781869 0.0222938 0 0 0 130 114 66
-0.203417 0.0704141 -0.0515039 0 0 0 104 41 8
-0.211476 0.0703362 -0.0604829 0 0 0 246 245 246
-0.238275 0.0644218 -0.0259138 0 0 0 172 139 59
-0.152592 0.0741922 -0.0477287 0 0 0 108 83 38
-0.222703 0.0771985 0.00105516 0 0 0 117 110 76
-0.0808657 0.0791868 -0.0163395 0 0 0 91 9 12
-0.254817 0.0686509 -0.0339781 0 0 0 71 72 72
-0.220926 0.0744574 -0.0136797 0 0 0 126 124 97
-0.0217377 0.0790108 -0.0205361 0 0 0 69 65 62
-0.142413 0.0771165 -0.0314021 0 0 0 140 134 100
-0.1111 0.077789 0.0250583 0 0 0 92 78 15
-0.112639 0.077019 -0.0399661 0 0 0 147 144 110
-0.268294 0.0258116 -0.0384135 0 0 0 21 20 13
-0.219542 0.0743881 -0.0136507 0 0 0 128 125 107
-0.134773 0.0799335 -0.00888817 0 0 0 140 141 116
-0.126241 0.0796271 -0.0258498 0 0 0 131 90 61
-0.132691 0.0815537 0.0144823 0 0 0 50 40 53
-0.0526389 0.076588 -0.0481782 0 0 0 42 48 54
-0.184158 0.0781811 0.0156417 0 0 0 128 119 69
-0.186956 0.079581 0.0168143 0 0 0 119 108 56
-0.0587569 0.0771818 -0.0228345 0 0 0 116 82 8
-0.0764263 0.0810282 -0.00299744 0 0 0 125 99 11
-0.21342 0.0720978 -0.0161234 0 0 0 126 117 46
-0.137321 0.0783293 -0.0384194 0 0 0 132 121 83
-0.216983 0.0761284 -0.00438655 0 0 0 121 100 20
-0.210684 0.0741609 -0.00894381 0 0 0 84 73 24
-0.0560154 0.0820916 0.00184967 0 0 0 68 12 20
-0.0178171 0.0759224 -0.0403798 0 0 0 63 66 54
-0.124042 0.076602 -0.031371 0 0 0 128 86 47
-0.221131 0.0766567 0.00983922 0 0 0 17 13 14
-0.102676 0.0787936 -0.0294998 0 0 0 139 145 120
-0.0417108 0.0785331 -0.027675 0 0 0 29 19 13
-0.0389465 0.0764661 -0.0388712 0 0 0 44 44 51
-0.114913 0.0805073 0.0140919 0 0 0 92 75 34
-0.268875 0.0271389 0.0106204 0 0 0 42 32 9
-0.0666296 0.079565 -0.00681927 0 0 0 125 100 16
-0.0635678 0.0807044 0.0169533 0 0 0 113 80 5
-0.182142 0.0764613 -0.0283544 0 0 0 125 97 48
-0.117633 0.080961 -0.00816626 0 0 0 138 132 66
-0.25246 0.047621 0.0189844 0 0 0 86 87 90
-0.242319 0.0652914 0.00363028 0 0 0 30 30 16
-0.256125 0.0281214 -0.0626955 0 0 0 201 204 199
-0.271542 0.0273004 0.011553 0 0 0 20 14 19
-0.251826 0.0480523 0.0212802 0 0 0 88 96 92
-0.116854 0.0804165 -0.00947617 0 0 0 139 133 77
