ply
format ascii 1.0
element vertex 69
property float x
property float y
property float z
property float nx
property float ny
property float nz
property uchar diffuse_red
property uchar diffuse_green
property uchar diffuse_blue
end_header
-0.102093 0.0748091 -0.0588237 0 0 0 222 228 244
-0.0346444 0.0731129 -0.059993 0 0 0 254 254 254
-0.0354762 0.0735693 -0.0584895 0 0 0 254 254 254
-0.244754 0.0594846 0.0230475 0 0 0 183 194 175
-0.267443 0.0239532 -0.058116 0 0 0 188 191 188
-0.171022 0.0725711 -0.0607575 0 0 0 219 225 238
-0.175448 0.0724689 -0.0606253 0 0 0 218 224 240
-0.262032 0.0566721 -0.00741539 0 0 0 246 243 181
-0.260103 0.0264962 -0.00709627 0 0 0 248 245 111
-0.259583 0.057239 -0.0342379 0 0 0 66 76 77
-0.269635 0.0249965 -0.0466404 0 0 0 16 13 19
-0.218807 0.068412 -0.0623468 0 0 0 241 242 243
-0.2697 0.0248377 -0.0455577 0 0 0 15 13 16
-0.259738 0.0558209 -0.0356237 0 0 0 69 75 81
-0.244012 0.0531293 -0.0540505 0 0 0 161 174 195
-0.139562 0.0775807 -0.0265068 0 0 0 138 128 112
-0.22152 0.0717801 -0.0356832 0 0 0 49 19 12
-0.255713 0.0394729 0.00410966 0 0 0 227 215 25
-0.257798 0.0295595 -0.000908158 0 0 0 240 235 78
-0.143868 0.0789735 -0.0105616 0 0 0 138 131 105
-0.260381 0.0250615 -0.0252994 0 0 0 183 195 177
-0.238796 0.0660354 -0.00175252 0 0 0 31 34 30
-0.125943 0.0746475 -0.0494053 0 0 0 54 47 48
-0.239579 0.0612181 -0.0500308 0 0 0 91 70 62
-0.158923 0.0772803 0.00184448 0 0 0 132 114 88
-0.264763 0.0492701 -0.0163837 0 0 0 253 253 247
-0.142152 0.0742035 -0.0479296 0 0 0 45 40 38
-0.264338 0.0482635 -0.0317763 0 0 0 61 62 61
-0.0789899 0.0736217 -0.0611508 0 0 0 45 50 52
-0.0789349 0.0794176 0.015228 0 0 0 131 115 57
-0.0977193 0.0802516 0.00571419 0 0 0 22 16 8
-0.143516 0.073445 -0.0541829 0 0 0 43 35 18
-0.24888 0.0488732 0.0037343 0 0 0 219 226 139
-0.146912 0.0785418 0.0239612 0 0 0 126 110 65
-0.148292 0.0788181 0.0215438 0 0 0 128 117 75
-0.257154 0.0274456 -0.0484723 0 0 0 45 51 45
-0.2037 0.0693558 -0.0500689 0 0 0 103 43 10
-0.237736 0.0621106 -0.0244089 0 0 0 170 137 49
-0.251052 0.0413101 -0.0600367 0 0 0 210 212 209
-0.0793099 0.0790228 -0.0157427 0 0 0 91 9 9
-0.219623 0.0728073 -0.0109882 0 0 0 124 120 103
-0.268132 0.0241762 -0.0367631 0 0 0 17 15 6
-0.141919 0.0756689 -0.0305533 0 0 0 141 136 100
-0.111303 0.0767146 -0.0391808 0 0 0 147 146 122
-0.125708 0.0782821 -0.0250997 0 0 0 130 88 54
-0.1348 0.0791282 -0.00792599 0 0 0 142 141 120
-0.0193123 0.0799427 -0.0175326 0 0 0 57 48 44
-0.167178 0.0784968 0.0239401 0 0 0 132 123 87
-0.223403 0.0749228 0.00252599 0 0 0 92 92 54
-0.052208 0.0760002 -0.0480386 0 0 0 44 48 46
-0.131858 0.0798961 0.0153553 0 0 0 53 44 50
-0.0588758 0.0770465 -0.0224782 0 0 0 116 80 3
-0.0764187 0.0806313 -0.00248056 0 0 0 126 99 9
-0.137566 0.0776926 -0.0374462 0 0 0 133 119 87
-0.114958 0.0803588 0.0211634 0 0 0 97 93 50
-0.0559794 0.0818199 0.002215 0 0 0 67 14 24
-0.252017 0.0457404 0.0206493 0 0 0 85 89 83
-0.220982 0.0750723 0.0114484 0 0 0 15 12 20
-0.0635553 0.0799068 0.0199051 0 0 0 111 78 5
-0.0437745 0.0767655 -0.0278187 0 0 0 41 14 18
-0.102074 0.0778495 -0.030167 0 0 0 144 145 109
-0.251419 0.0441143 -0.00156505 0 0 0 207 203 29
-0.113115 0.0800062 0.0137905 0 0 0 98 76 32
-0.182291 0.075418 -0.0270466 0 0 0 124 95 45
-0.270609 0.0272598 0.0113417 0 0 0 26 14 17
-0.117663 0.080282 -0.00733031 0 0 0 139 132 64
-0.117591 0.0804582 -0.00853144 0 0 0 140 134 78
-0.240786 0.0634851 0.00537497 0 0 0 51 54 46
-0.0673797 0.0799378 -0.00627875 0 0 0 126 99 5
