ply
format ascii 1.0
element vertex 77
property float x
property float y
property float z
property float nx
property float ny
property float nz
property uchar diffuse_red
property uchar diffuse_green
property uchar diffuse_blue
end_header
-0.101867 0.0749547 -0.0592685 0 0 0 221 227 245
-0.0458197 0.0755491 -0.0577518 0 0 0 254 254 254
-0.130836 0.0726874 -0.0640809 0 0 0 243 243 247
-0.169518 0.071728 -0.0620057 0 0 0 219 221 238
-0.244571 0.0604489 0.0217668 0 0 0 185 193 175
-0.261605 0.0608574 -0.0146995 0 0 0 252 249 212
-0.17383 0.0730371 -0.0603896 0 0 0 215 221 236
-0.268409 0.0246583 -0.059385 0 0 0 188 192 190
-0.257577 0.0671026 -0.0102573 0 0 0 252 252 253
-0.260433 0.0295409 -0.00573253 0 0 0 239 244 111
-0.138566 0.0722479 -0.063964 0 0 0 95 83 134
-0.259635 0.058782 -0.0355223 0 0 0 69 74 76
-0.258601 0.0336464 -0.000544174 0 0 0 239 236 92
-0.269359 0.0256526 -0.0479614 0 0 0 14 13 10
-0.269432 0.0255013 -0.0468762 0 0 0 15 13 15
-0.139507 0.0782339 -0.0271982 0 0 0 138 127 110
-0.26554 0.0476494 -0.0171756 0 0 0 254 253 231
-0.222905 0.0729334 -0.035739 0 0 0 53 19 10
-0.244839 0.0535321 -0.0542888 0 0 0 141 143 171
-0.260262 0.058358 -0.0377766 0 0 0 73 78 80
-0.125773 0.0750423 -0.0499939 0 0 0 55 47 40
-0.248692 0.0538956 0.00201233 0 0 0 196 200 104
-0.218014 0.0686452 -0.0636703 0 0 0 240 241 243
-0.239506 0.0624996 -0.0512196 0 0 0 91 61 74
-0.238976 0.0676305 -0.00297018 0 0 0 36 33 25
-0.214498 0.0691328 -0.0625243 0 0 0 242 243 245
-0.229561 0.070146 -0.0640674 0 0 0 232 234 234
-0.158353 0.0787373 0.0035047 0 0 0 126 83 57
-0.141995 0.074735 -0.0486137 0 0 0 43 37 39
-0.261539 0.0259262 -0.0265348 0 0 0 172 171 145
-0.0957028 0.0786944 0.00500207 0 0 0 22 15 14
-0.264546 0.0497132 -0.0319736 0 0 0 70 63 81
-0.0791187 0.0798725 0.0148902 0 0 0 132 118 60
-0.141128 0.0732853 -0.0550664 0 0 0 45 42 19
-0.251721 0.0480915 0.00424851 0 0 0 229 239 63
-0.264933 0.0478296 -0.0301736 0 0 0 79 86 89
-0.147308 0.0792628 0.0255416 0 0 0 123 108 43
-0.149263 0.0804363 0.0220128 0 0 0 125 113 64
-0.257356 0.0288767 -0.0495453 0 0 0 49 51 76
-0.203565 0.0703556 -0.0510938 0 0 0 104 43 11
-0.237811 0.0635474 -0.0255935 0 0 0 171 138 36
-0.152731 0.0741223 -0.0474078 0 0 0 105 86 40
-0.0809498 0.079106 -0.0161444 0 0 0 89 7 13
-0.221564 0.0755413 0.00128899 0 0 0 117 110 70
-0.0201816 0.0789907 -0.019035 0 0 0 56 58 65
-0.2212 0.0728682 -0.0135249 0 0 0 123 118 84
-0.142524 0.0770474 -0.0310995 0 0 0 138 134 108
-0.111875 0.0777712 -0.0395398 0 0 0 147 145 120
-0.26843 0.0257712 -0.0378815 0 0 0 18 16 10
-0.125656 0.078836 -0.0257118 0 0 0 130 89 57
-0.219026 0.0735363 -0.0133424 0 0 0 128 122 112
-0.134844 0.0798671 -0.00859948 0 0 0 143 140 120
-0.132036 0.0807663 0.0146937 0 0 0 52 40 38
-0.0517451 0.0775588 -0.0491405 0 0 0 28 32 26
-0.0764867 0.080949 -0.00281043 0 0 0 126 102 21
-0.0561455 0.0760657 -0.0480885 0 0 0 42 46 54
-0.0588528 0.0770944 -0.0226774 0 0 0 117 83 2
-0.252115 0.0452878 0.0181104 0 0 0 81 76 76
-0.137444 0.0782576 -0.0381259 0 0 0 132 120 88
-0.214707 0.0736498 -0.0154328 0 0 0 126 116 41
-0.210756 0.0741128 -0.00852196 0 0 0 78 72 16
-0.0560673 0.0820086 0.00200096 0 0 0 69 15 26
-0.260129 0.0304736 0.0222057 0 0 0 49 51 54
-0.0418148 0.0784407 -0.0275478 0 0 0 29 19 14
-0.0437224 0.0766597 -0.0279244 0 0 0 40 14 6
-0.112584 0.0800084 0.0131676 0 0 0 98 77 36
-0.251148 0.0424645 -0.0600765 0 0 0 210 214 212
-0.22117 0.0766149 0.0102787 0 0 0 16 11 23
-0.251406 0.0408671 -0.0604426 0 0 0 209 213 212
-0.0214243 0.0752888 -0.0403959 0 0 0 55 55 69
-0.240315 0.0584191 -0.0621468 0 0 0 220 223 221
-0.102701 0.0788864 -0.0304929 0 0 0 144 146 113
-0.117007 0.0801779 -0.00801503 0 0 0 139 131 65
-0.181613 0.0756345 -0.0281308 0 0 0 123 97 50
-0.116926 0.0803458 -0.00921872 0 0 0 140 135 74
-0.270805 0.0280037 0.0122451 0 0 0 25 18 16
-0.0644101 0.0776301 -0.00822373 0 0 0 129 101 3
