ply
format ascii 1.0
element vertex 80
property float x
property float y
property float z
property float nx
property float ny
property float nz
property uchar diffuse_red
property uchar diffuse_green
property uchar diffuse_blue
end_header
-0.101265 0.0743932 -0.0591941 0 0 0 220 228 245
-0.0416911 0.0760129 -0.0591549 0 0 0 254 254 254
-0.0416911 0.0760129 -0.0591549 0 0 0 254 254 254
-0.244786 0.060417 0.0215069 0 0 0 183 196 186
-0.268734 0.0247293 -0.0585115 0 0 0 187 192 186
-0.170898 0.0729981 -0.0610953 0 0 0 220 222 239
-0.260633 0.0607602 -0.0148011 0 0 0 253 252 244
-0.176795 0.0728802 -0.0609314 0 0 0 219 226 241
-0.260272 0.0270832 -0.00644808 0 0 0 240 236 104
-0.21994 0.069305 -0.0649055 0 0 0 241 241 243
-0.259335 0.0594895 -0.0344177 0 0 0 66 74 81
-0.220077 0.0689905 -0.0627246 0 0 0 241 242 243
-0.264925 0.0496991 -0.0147813 0 0 0 254 254 251
-0.257715 0.0317706 5.68571e-06 0 0 0 239 232 94
-0.265327 0.0466745 -0.0164272 0 0 0 254 253 227
-0.269647 0.0256705 -0.0470994 0 0 0 13 14 16
-0.255518 0.0377686 0.00328029 0 0 0 231 215 19
-0.269715 0.0255143 -0.0460165 0 0 0 14 13 18
-0.244798 0.0528345 -0.0535908 0 0 0 138 147 163
-0.139433 0.0781878 -0.0279617 0 0 0 142 130 94
-0.222242 0.0716328 -0.0362933 0 0 0 52 19 12
-0.259642 0.0566503 -0.037183 0 0 0 70 78 84
-0.143847 0.0794565 -0.010851 0 0 0 135 131 103
-0.12584 0.0750025 -0.0496427 0 0 0 54 45 24
-0.239504 0.0618188 -0.0505026 0 0 0 93 69 68
-0.261169 0.0251725 -0.0269872 0 0 0 181 181 147
-0.159669 0.0784032 0.00277578 0 0 0 128 110 86
-0.252211 0.0463679 0.00479258 0 0 0 230 230 36
-0.142055 0.0745971 -0.0482039 0 0 0 43 40 32
-0.0977334 0.0806716 0.00552941 0 0 0 21 14 8
-0.0766011 0.0793149 0.0151209 0 0 0 129 117 45
-0.238824 0.066745 -0.00223372 0 0 0 34 34 30
-0.143405 0.0738273 -0.0544586 0 0 0 43 32 30
-0.14772 0.0796783 0.024892 0 0 0 124 109 56
-0.2644 0.0488076 -0.0312197 0 0 0 69 65 80
-0.14902 0.0801201 0.0213147 0 0 0 126 116 70
-0.266136 0.0469009 -0.0283553 0 0 0 74 85 98
-0.257156 0.0280882 -0.0489078 0 0 0 43 48 46
-0.203607 0.0698784 -0.0504756 0 0 0 103 40 13
-0.238865 0.0644171 -0.0245642 0 0 0 171 138 51
-0.222196 0.0751211 -0.0111973 0 0 0 129 122 94
-0.152122 0.0731795 -0.0471406 0 0 0 108 85 39
-0.0792769 0.0793536 -0.0158816 0 0 0 90 9 10
-0.0191065 0.0805229 -0.0201959 0 0 0 38 38 39
-0.24534 0.0516054 -0.0616767 0 0 0 216 220 217
-0.141858 0.0761018 -0.0308304 0 0 0 139 133 107
-0.167238 0.0791096 0.0235973 0 0 0 131 123 83
-0.111919 0.0777653 -0.0392283 0 0 0 146 144 123
-0.268682 0.0257508 -0.03704 0 0 0 19 14 13
-0.253512 0.068894 -0.0302897 0 0 0 64 66 57
-0.125654 0.0786923 -0.0253451 0 0 0 128 87 61
-0.167753 0.0801886 0.021398 0 0 0 133 127 94
-0.134785 0.0795975 -0.0081946 0 0 0 142 141 118
-0.0528488 0.0768606 -0.0479437 0 0 0 42 47 59
-0.131895 0.0804124 0.0150917 0 0 0 51 41 47
-0.116906 0.078857 0.0229936 0 0 0 79 47 31
-0.223488 0.0754545 0.0031301 0 0 0 81 84 34
-0.250207 0.0426583 -0.0603326 0 0 0 211 214 214
-0.205117 0.0730175 -0.0224673 0 0 0 68 75 6
-0.273715 0.0245436 -0.0140608 0 0 0 68 88 73
-0.251757 0.0442376 0.0187984 0 0 0 82 77 77
-0.0764131 0.0809863 -0.00261649 0 0 0 124 101 11
-0.0588316 0.0773175 -0.0225649 0 0 0 116 81 4
-0.213764 0.0773156 0.00938856 0 0 0 80 60 28
-0.139022 0.078014 -0.0377257 0 0 0 130 122 93
-0.255336 0.0321916 -0.0604328 0 0 0 202 206 204
-0.0559822 0.0821412 0.002124 0 0 0 67 12 20
-0.0418197 0.0787815 -0.0274924 0 0 0 31 18 16
-0.0437185 0.0769913 -0.0278696 0 0 0 40 14 6
-0.0214595 0.0758009 -0.0404292 0 0 0 54 58 73
-0.10201 0.0781967 -0.0303562 0 0 0 143 145 110
-0.112444 0.0797718 0.0134905 0 0 0 97 77 28
-0.260201 0.0302355 0.0229319 0 0 0 49 53 59
-0.238262 0.0625437 -0.0614584 0 0 0 222 224 226
-0.182239 0.0759468 -0.0274173 0 0 0 124 98 57
-0.116947 0.0800072 -0.00767469 0 0 0 142 131 64
-0.116872 0.0801807 -0.00887794 0 0 0 140 134 75
-0.0658924 0.0789199 -0.00660297 0 0 0 125 101 10
-0.192749 0.0762002 -0.0182615 0 0 0 131 126 83
-0.269073 0.0267236 0.0129923 0 0 0 33 38 15
