ply
format ascii 1.0
element vertex 67
property float x
property float y
property float z
property float nx
property float ny
property float nz
property uchar diffuse_red
property uchar diffuse_green
property uchar diffuse_blue
end_header
-0.101187 0.0755521 -0.0683812 0 0 0 224 231 244
-0.0461032 0.0749409 -0.0668373 0 0 0 254 254 254
-0.169481 0.073474 -0.0711901 0 0 0 220 223 239
-0.261332 0.0608689 -0.0257973 0 0 0 253 253 235
-0.268009 0.0261998 -0.0692309 0 0 0 191 192 189
-0.175261 0.074798 -0.0695618 0 0 0 221 224 240
-0.244993 0.0611577 0.0108506 0 0 0 174 184 167
-0.260937 0.0303697 -0.0167875 0 0 0 244 239 114
-0.264828 0.0519848 -0.0242809 0 0 0 254 254 254
-0.268999 0.0271817 -0.0578096 0 0 0 14 14 19
-0.267776 0.0268781 -0.0567498 0 0 0 14 14 14
-0.243427 0.0558153 -0.0649158 0 0 0 163 173 194
-0.138849 0.0791604 -0.0376325 0 0 0 140 124 102
-0.259757 0.0598192 -0.0475376 0 0 0 73 80 86
-0.221661 0.0735213 -0.0465783 0 0 0 53 19 9
-0.258382 0.0350407 -0.0103379 0 0 0 239 237 90
-0.143378 0.0805267 -0.0205595 0 0 0 137 131 105
-0.255013 0.0394294 -0.00835008 0 0 0 218 206 14
-0.250798 0.0529069 -0.00711773 0 0 0 242 237 86
-0.238364 0.0630313 -0.0610876 0 0 0 95 62 73
-0.125129 0.0757607 -0.0592004 0 0 0 54 46 31
-0.159314 0.0796909 -0.00705112 0 0 0 129 109 83
-0.0777852 0.0810735 0.0060592 0 0 0 131 118 47
-0.141357 0.0755431 -0.0578844 0 0 0 47 38 40
-0.261261 0.0273777 -0.036352 0 0 0 174 172 143
-0.264113 0.0511897 -0.0417651 0 0 0 69 55 69
-0.142669 0.0747712 -0.0641471 0 0 0 45 36 15
-0.239767 0.0704331 -0.0113512 0 0 0 39 37 36
-0.0780804 0.074041 -0.0704719 0 0 0 45 50 55
-0.146769 0.0803125 0.013933 0 0 0 127 110 69
-0.264517 0.0493056 -0.0399695 0 0 0 80 84 86
-0.0952547 0.079157 -0.00408112 0 0 0 24 15 9
-0.256971 0.0303403 -0.0593413 0 0 0 48 52 77
-0.20294 0.0715162 -0.0606131 0 0 0 106 42 11
-0.237889 0.0656949 -0.0351076 0 0 0 172 140 62
-0.219279 0.0752301 -0.0206319 0 0 0 118 103 83
-0.152102 0.0749892 -0.0567216 0 0 0 110 90 27
-0.222778 0.0782193 -0.0125243 0 0 0 120 121 94
-0.0227078 0.0804874 -0.0303359 0 0 0 74 65 60
-0.0787769 0.0796778 -0.0250967 0 0 0 91 8 7
-0.11215 0.0775697 -0.0488678 0 0 0 149 145 110
-0.141942 0.0778312 -0.0403688 0 0 0 141 133 108
-0.267604 0.0263919 -0.0478963 0 0 0 19 17 11
-0.252454 0.0703103 -0.040971 0 0 0 70 67 61
-0.125085 0.0795159 -0.0349121 0 0 0 130 89 59
-0.134335 0.0805724 -0.0178344 0 0 0 143 141 118
-0.0521358 0.076796 -0.0569492 0 0 0 44 48 59
-0.131614 0.0814195 0.00547103 0 0 0 53 42 52
-0.204021 0.0739562 -0.032768 0 0 0 69 73 4
-0.237288 0.0662533 -0.0725407 0 0 0 225 226 227
-0.0583058 0.0773914 -0.0316182 0 0 0 119 81 2
-0.0760858 0.0811384 -0.0105607 0 0 0 127 102 12
-0.213339 0.0798305 0.011409 0 0 0 41 35 28
-0.136828 0.0790235 -0.0473732 0 0 0 133 121 87
-0.104107 0.0783297 -0.0499534 0 0 0 148 147 125
-0.252519 0.0473283 0.0095057 0 0 0 84 82 86
-0.0555897 0.0822513 -0.00692136 0 0 0 69 11 27
-0.0632744 0.0807096 0.00943266 0 0 0 112 78 8
-0.0421994 0.0777639 -0.036613 0 0 0 36 16 11
-0.101411 0.0787383 -0.0397413 0 0 0 145 146 113
-0.0431575 0.0768792 -0.0368064 0 0 0 41 13 9
-0.223392 0.0793362 0.00186987 0 0 0 12 12 14
-0.11216 0.0805539 0.00402014 0 0 0 100 78 33
-0.0964248 0.081975 -0.0200543 0 0 0 116 82 4
-0.117191 0.0814978 -0.0170736 0 0 0 140 132 67
-0.117104 0.0816668 -0.0182748 0 0 0 141 135 79
-0.18168 0.0774063 -0.0374089 0 0 0 125 96 51
