ply
format ascii 1.0
element vertex 73
property float x
property float y
property float z
property float nx
property float ny
property float nz
property uchar diffuse_red
property uchar diffuse_green
property uchar diffuse_blue
end_header
-0.101597 0.0740924 -0.0590357 0 0 0 223 230 244
-0.0430591 0.0748299 -0.0580343 0 0 0 254 254 254
-0.244336 0.0583559 0.0229998 0 0 0 185 196 182
-0.261548 0.0590295 -0.014395 0 0 0 253 253 238
-0.170583 0.0717019 -0.0609583 0 0 0 221 221 239
-0.267064 0.0228191 -0.0583208 0 0 0 192 195 191
-0.175655 0.0723438 -0.0606142 0 0 0 218 224 237
-0.260285 0.0260463 -0.00599693 0 0 0 245 239 105
-0.257618 0.057729 -0.0351318 0 0 0 71 77 80
-0.269768 0.024726 -0.0466263 0 0 0 14 14 19
-0.259847 0.0557108 -0.0366413 0 0 0 75 78 82
-0.268532 0.0244336 -0.0455832 0 0 0 16 13 12
-0.255543 0.0367185 0.00375147 0 0 0 234 215 19
-0.139761 0.0774786 -0.0265075 0 0 0 139 126 115
-0.265806 0.0479465 -0.0143991 0 0 0 254 254 249
-0.221715 0.071569 -0.0356521 0 0 0 50 20 12
-0.244188 0.0529012 -0.0540247 0 0 0 164 176 194
-0.257193 0.0298559 0.00034798 0 0 0 240 236 92
-0.143384 0.0781253 -0.0106848 0 0 0 140 130 102
-0.249802 0.0478535 0.00360371 0 0 0 240 235 76
-0.126148 0.0745835 -0.0494144 0 0 0 54 48 41
-0.239765 0.060993 -0.0500004 0 0 0 93 65 73
-0.0768185 0.0786873 0.0164794 0 0 0 130 116 39
-0.238968 0.0657719 -0.00171852 0 0 0 34 34 30
-0.159245 0.076788 0.00415274 0 0 0 129 104 80
-0.263961 0.047129 -0.0319223 0 0 0 64 64 73
-0.142356 0.0741152 -0.0479319 0 0 0 47 42 36
-0.0979076 0.0801826 0.00569709 0 0 0 22 16 14
-0.26057 0.0246255 -0.0241973 0 0 0 182 188 172
-0.0791988 0.0736342 -0.0611817 0 0 0 46 49 50
-0.143721 0.0733599 -0.0541852 0 0 0 46 35 33
-0.26498 0.0457759 -0.0278426 0 0 0 83 90 84
-0.205456 0.0690192 -0.0649452 0 0 0 240 242 247
-0.257291 0.0271943 -0.0484617 0 0 0 46 53 57
-0.149423 0.0787139 0.0262538 0 0 0 127 113 60
-0.150732 0.0791641 0.0226859 0 0 0 129 116 65
-0.203898 0.0691818 -0.0500477 0 0 0 105 43 8
-0.207002 0.0687134 -0.0626667 0 0 0 245 247 249
-0.239063 0.0635132 -0.024056 0 0 0 172 139 55
-0.0178879 0.0789273 -0.0191599 0 0 0 55 44 42
-0.249815 0.0411391 -0.0611691 0 0 0 212 216 214
-0.0804161 0.0781345 -0.0159503 0 0 0 91 8 15
-0.153078 0.0733937 -0.0466615 0 0 0 108 87 37
-0.220475 0.0732182 -0.00974341 0 0 0 117 105 94
-0.142793 0.076293 -0.0303979 0 0 0 141 134 101
-0.26826 0.0238998 -0.0367503 0 0 0 20 15 17
-0.126599 0.0789104 -0.0249602 0 0 0 130 89 53
-0.11309 0.0765271 -0.0392059 0 0 0 148 145 112
-0.134993 0.0790176 -0.00792751 0 0 0 144 141 121
-0.118741 0.0777739 0.0255028 0 0 0 87 60 38
-0.025584 0.0791597 0.00396655 0 0 0 60 51 56
-0.132042 0.0797706 0.0153531 0 0 0 51 45 35
-0.224298 0.0740994 0.00133623 0 0 0 79 74 56
-0.0540985 0.0758079 -0.0480992 0 0 0 42 47 54
-0.0248061 0.0782905 -0.0398796 0 0 0 59 55 65
-0.0751442 0.0792489 -0.00271696 0 0 0 127 99 11
-0.204724 0.0714444 -0.0221789 0 0 0 68 75 5
-0.223331 0.075309 -0.00171741 0 0 0 119 115 93
-0.0598143 0.0777204 -0.0223833 0 0 0 120 81 5
-0.139307 0.0775105 -0.0374515 0 0 0 130 120 92
-0.252701 0.0411807 0.000178069 0 0 0 212 208 34
-0.0553199 0.0825043 0.00364365 0 0 0 61 12 17
-0.221828 0.0754658 0.0126498 0 0 0 13 13 14
-0.102985 0.0784977 -0.0300344 0 0 0 150 145 112
-0.043973 0.0768006 -0.0278627 0 0 0 40 15 4
-0.0635615 0.081415 0.0201264 0 0 0 109 76 3
-0.0668337 0.0792526 -0.00641921 0 0 0 129 101 21
-0.238556 0.0617565 -0.0609573 0 0 0 224 225 226
-0.251535 0.0447446 0.0195188 0 0 0 85 80 85
-0.182487 0.0752556 -0.02703 0 0 0 124 98 60
-0.117857 0.0801954 -0.00733849 0 0 0 140 133 64
-0.117786 0.0803726 -0.00853953 0 0 0 141 136 76
-0.199895 0.0770592 -0.00178306 0 0 0 104 91 68
