ply
format ascii 1.0
element vertex 73
property float x
property float y
property float z
property float nx
property float ny
property float nz
property uchar diffuse_red
property uchar diffuse_green
property uchar diffuse_blue
end_header
-0.10211 0.0749875 -0.0587724 0 0 0 220 227 244
-0.245634 0.0606129 0.0224162 0 0 0 185 199 181
-0.171031 0.0724349 -0.0605903 0 0 0 219 221 239
-0.0403359 0.0750233 -0.0595309 0 0 0 254 254 254
-0.269311 0.0227375 -0.0580025 0 0 0 189 190 186
-0.176166 0.072893 -0.0590969 0 0 0 218 224 239
-0.0354873 0.0740559 -0.0585593 0 0 0 254 254 254
-0.259802 0.0258062 -0.0068936 0 0 0 248 246 104
-0.264705 0.0482677 -0.0140079 0 0 0 254 254 251
-0.260324 0.054638 -0.036549 0 0 0 73 76 79
-0.220977 0.0673472 -0.0621964 0 0 0 238 238 239
-0.269397 0.0243664 -0.0464247 0 0 0 15 14 19
-0.243917 0.0526371 -0.0538057 0 0 0 161 175 194
-0.260112 0.0562113 -0.036208 0 0 0 74 77 81
-0.139533 0.0775002 -0.0263822 0 0 0 138 127 112
-0.222924 0.0712341 -0.0343249 0 0 0 53 18 10
-0.254907 0.0379158 0.00422558 0 0 0 229 212 18
-0.14229 0.0789149 -0.0103838 0 0 0 135 128 99
-0.260106 0.0244181 -0.0250999 0 0 0 186 196 184
-0.257313 0.0303164 0.000660778 0 0 0 239 235 77
-0.125941 0.0746905 -0.0493123 0 0 0 54 49 41
-0.238942 0.059915 -0.0499807 0 0 0 91 67 61
-0.248602 0.0483667 0.00290506 0 0 0 232 225 109
-0.142146 0.0741673 -0.0478092 0 0 0 46 42 29
-0.263703 0.0466029 -0.0306296 0 0 0 64 59 62
-0.145505 0.0766599 0.0251206 0 0 0 125 109 60
-0.0969264 0.0795913 0.00567463 0 0 0 22 14 5
-0.238669 0.0654295 -0.00148309 0 0 0 30 36 32
-0.0764658 0.0790206 0.01527 0 0 0 130 117 43
-0.141312 0.0727878 -0.0542817 0 0 0 42 41 30
-0.256931 0.0268781 -0.0482721 0 0 0 48 49 73
-0.203674 0.0690399 -0.0498525 0 0 0 104 45 8
-0.211021 0.0697025 -0.0585955 0 0 0 244 245 245
-0.238209 0.0623902 -0.0239881 0 0 0 170 134 44
-0.152865 0.073409 -0.0465259 0 0 0 108 86 34
-0.0778073 0.0778432 -0.0159751 0 0 0 90 11 10
-0.222535 0.0751153 0.00294671 0 0 0 117 110 77
-0.274347 0.0216641 -0.009232 0 0 0 126 128 88
-0.220424 0.0745804 0.000723783 0 0 0 124 123 101
-0.141889 0.0755881 -0.0304295 0 0 0 140 133 98
-0.219482 0.0724759 -0.0118134 0 0 0 127 123 105
-0.112876 0.0766574 -0.0391177 0 0 0 146 143 115
-0.12568 0.0782621 -0.0249977 0 0 0 127 89 61
-0.134746 0.0790208 -0.00780579 0 0 0 142 139 120
-0.112001 0.0786301 0.0236148 0 0 0 93 96 37
-0.267355 0.0226503 -0.0367353 0 0 0 21 17 14
-0.131766 0.079741 0.0154723 0 0 0 51 40 31
-0.166401 0.0774081 0.0240413 0 0 0 130 123 88
-0.167529 0.079411 0.0207908 0 0 0 133 128 100
-0.184125 0.0757733 0.0216399 0 0 0 109 92 73
-0.204471 0.0712492 -0.0219785 0 0 0 68 74 8
-0.0763623 0.0807803 -0.0024596 0 0 0 126 102 11
-0.0522115 0.0763816 -0.0480724 0 0 0 41 48 54
-0.0246763 0.0785072 -0.0385765 0 0 0 62 63 60
-0.0588387 0.0773296 -0.0224977 0 0 0 117 81 5
-0.0264836 0.0817585 -0.00245769 0 0 0 51 45 44
-0.137557 0.0776501 -0.0373248 0 0 0 132 121 87
-0.213966 0.071075 -0.0142209 0 0 0 126 115 35
-0.0246709 0.0801165 -0.0108934 0 0 0 51 50 62
-0.0544173 0.0807355 0.00200621 0 0 0 67 13 21
-0.221542 0.0751524 0.0128801 0 0 0 12 12 16
-0.102054 0.0779525 -0.0301079 0 0 0 144 148 111
-0.0418576 0.0789339 -0.0274873 0 0 0 29 18 18
-0.210577 0.0723156 -0.00719308 0 0 0 84 72 14
-0.110901 0.0778384 0.0136161 0 0 0 99 78 31
-0.0626368 0.0795807 0.018558 0 0 0 112 78 5
-0.11691 0.0795496 -0.00735679 0 0 0 140 133 67
-0.184288 0.0709327 -0.0628018 0 0 0 217 222 237
-0.11684 0.0797295 -0.00855947 0 0 0 140 136 77
-0.251977 0.0434235 0.0206484 0 0 0 81 82 84
-0.182253 0.0751407 -0.0268521 0 0 0 124 96 50
-0.0658443 0.0788054 -0.00649923 0 0 0 126 100 18
-0.270658 0.0245281 0.0134544 0 0 0 19 16 19
