ply
format ascii 1.0
element vertex 73
property float x
property float y
property float z
property float nx
property float ny
property float nz
property uchar diffuse_red
property uchar diffuse_green
property uchar diffuse_blue
end_header
-0.101072 0.076036 -0.0587591 0 0 0 228 233 244
-0.0476172 0.0758351 -0.0576668 0 0 0 254 254 254
-0.244751 0.0604691 0.021632 0 0 0 187 198 191
-0.168848 0.0722428 -0.0600884 0 0 0 231 231 241
-0.267453 0.024761 -0.0584764 0 0 0 190 194 189
-0.26079 0.0280522 -0.00623343 0 0 0 242 235 103
-0.176799 0.0730115 -0.0608266 0 0 0 220 226 241
-0.26468 0.047201 -0.0140427 0 0 0 254 254 253
-0.256874 0.0653952 -0.00945042 0 0 0 253 252 253
-0.259865 0.0552101 -0.037391 0 0 0 73 78 83
-0.269152 0.0249401 -0.0472013 0 0 0 13 13 15
-0.258939 0.057353 -0.0358493 0 0 0 71 77 85
-0.26922 0.0247824 -0.0461167 0 0 0 13 13 16
-0.139418 0.0782614 -0.0278701 0 0 0 139 122 98
-0.220084 0.0691416 -0.0626016 0 0 0 241 241 242
-0.221447 0.0724916 -0.0360089 0 0 0 48 20 11
-0.244511 0.054716 -0.0541888 0 0 0 161 174 192
-0.258235 0.032725 0.000214257 0 0 0 239 233 95
-0.256333 0.0411748 0.00386287 0 0 0 229 211 17
-0.143219 0.0786095 -0.00970702 0 0 0 134 131 106
-0.239508 0.0619619 -0.0503784 0 0 0 90 64 77
-0.249947 0.0473744 0.00296168 0 0 0 232 219 24
-0.24887 0.0498508 0.00231077 0 0 0 231 227 115
-0.159637 0.0784452 0.00287854 0 0 0 128 110 87
-0.125838 0.0750986 -0.0495625 0 0 0 54 47 42
-0.238865 0.0666709 -0.00104149 0 0 0 39 37 40
-0.142052 0.0746979 -0.0481155 0 0 0 46 41 32
-0.077293 0.0799882 0.0152559 0 0 0 129 116 41
-0.264464 0.0487822 -0.0300425 0 0 0 76 74 77
-0.0788673 0.0739399 -0.0612228 0 0 0 45 49 52
-0.143406 0.0739367 -0.0543704 0 0 0 43 36 20
-0.147846 0.0781549 0.0247556 0 0 0 125 110 67
-0.0976991 0.0806849 0.00560187 0 0 0 23 16 8
-0.261763 0.02601 -0.0256493 0 0 0 170 168 144
-0.264767 0.0470402 -0.0293079 0 0 0 78 86 89
-0.257172 0.0282365 -0.0488177 0 0 0 46 50 77
-0.203608 0.070007 -0.0503602 0 0 0 104 43 13
-0.223324 0.075833 0.00112408 0 0 0 99 102 63
-0.238853 0.0645265 -0.024437 0 0 0 172 137 35
-0.220326 0.0740264 -0.00902337 0 0 0 108 90 79
-0.0792546 0.0793872 -0.0158207 0 0 0 90 8 14
-0.111211 0.0771381 -0.0393138 0 0 0 146 145 121
-0.142519 0.0769094 -0.0305865 0 0 0 137 134 102
-0.26818 0.0250072 -0.037125 0 0 0 19 15 12
-0.126327 0.0794718 -0.0251173 0 0 0 129 89 59
-0.204414 0.0769373 0.00541668 0 0 0 101 88 7
-0.134758 0.0796436 -0.00810364 0 0 0 142 140 121
-0.16764 0.0803746 0.0203739 0 0 0 133 127 99
-0.166467 0.0785409 0.0224983 0 0 0 131 123 91
-0.244634 0.0523492 -0.060325 0 0 0 217 219 220
-0.131856 0.0804272 0.0151822 0 0 0 51 41 29
-0.0511584 0.0771517 -0.0478768 0 0 0 42 45 54
-0.238204 0.062857 -0.0624092 0 0 0 222 225 226
-0.0302786 0.0786582 -0.042429 0 0 0 59 54 54
-0.0222774 0.081741 -0.0213198 0 0 0 59 65 57
-0.076461 0.0808191 -0.00130123 0 0 0 127 100 15
-0.205101 0.0731105 -0.0223471 0 0 0 69 73 3
-0.0588137 0.0773514 -0.0225177 0 0 0 116 82 4
-0.0239271 0.0816669 -0.0227118 0 0 0 67 65 55
-0.0396124 0.080196 -0.0352357 0 0 0 44 43 42
-0.200754 0.0765646 0.00213091 0 0 0 101 88 44
-0.139012 0.0781 -0.0376344 0 0 0 129 120 96
-0.252891 0.0458538 0.0201396 0 0 0 80 82 86
-0.104066 0.0771621 -0.0406388 0 0 0 146 147 119
-0.225073 0.0772724 0.013322 0 0 0 11 10 13
-0.0435048 0.0785769 -0.0275072 0 0 0 34 14 12
-0.0560286 0.0819561 0.00345422 0 0 0 70 14 22
-0.0626621 0.0799645 0.017245 0 0 0 112 81 3
-0.230197 0.0750956 0.0137981 0 0 0 13 12 8
-0.101996 0.0782582 -0.0302846 0 0 0 142 145 116
-0.182224 0.0760369 -0.0273056 0 0 0 123 96 54
-0.117619 0.0807538 -0.00747837 0 0 0 138 131 68
-0.110999 0.0783674 0.0134076 0 0 0 96 76 32
