ply
format ascii 1.0
element vertex 78
property float x
property float y
property float z
property float nx
property float ny
property float nz
property uchar diffuse_red
property uchar diffuse_green
property uchar diffuse_blue
end_header
-0.100829 0.0736034 -0.0592677 0 0 0 221 227 244
-0.0412507 0.0750388 -0.0590298 0 0 0 254 254 254
-0.244181 0.0596073 0.0220112 0 0 0 186 195 187
-0.169817 0.0716551 -0.0616031 0 0 0 221 223 238
-0.262135 0.0577504 -0.0159307 0 0 0 253 253 236
-0.263955 0.0545976 -0.0154676 0 0 0 253 251 241
-0.244884 0.0590261 0.0207967 0 0 0 173 184 175
-0.267944 0.0235812 -0.0590582 0 0 0 189 192 187
-0.175524 0.0730946 -0.0610976 0 0 0 216 224 238
-0.260761 0.0278556 -0.00557315 0 0 0 227 222 107
-0.255967 0.0658812 -0.0089602 0 0 0 254 254 254
-0.257899 0.0655899 -0.0112131 0 0 0 252 252 252
-0.258416 0.0586426 -0.0361727 0 0 0 71 77 82
-0.269404 0.0254818 -0.04745 0 0 0 13 13 20
-0.258675 0.0335926 -0.000134366 0 0 0 239 235 93
-0.268686 0.0260743 -0.0462119 0 0 0 13 13 16
-0.248288 0.053001 0.00227172 0 0 0 193 200 95
-0.222558 0.0720235 -0.0355262 0 0 0 55 19 11
-0.141302 0.0783715 -0.0280808 0 0 0 136 127 103
-0.244447 0.0525262 -0.0540294 0 0 0 141 142 168
-0.264069 0.0488501 -0.032759 0 0 0 65 62 75
-0.263158 0.0498641 -0.0347229 0 0 0 59 64 61
-0.151576 0.076789 -0.00815695 0 0 0 132 120 97
-0.125436 0.0743506 -0.0498068 0 0 0 54 46 37
-0.260872 0.0550523 -0.0379991 0 0 0 69 76 84
-0.255163 0.0394649 0.00315307 0 0 0 229 210 25
-0.239136 0.0615138 -0.0509806 0 0 0 92 69 72
-0.158776 0.0774477 0.00237534 0 0 0 128 109 84
-0.141656 0.0740047 -0.0484223 0 0 0 44 39 31
-0.0778679 0.080296 0.0152349 0 0 0 129 115 40
-0.261589 0.0258149 -0.0260639 0 0 0 171 167 140
-0.238035 0.0659216 -0.00285359 0 0 0 35 34 37
-0.0967901 0.0795922 0.00534218 0 0 0 20 16 14
-0.206095 0.0691981 -0.0657291 0 0 0 243 246 248
-0.142987 0.0731986 -0.0546766 0 0 0 44 33 22
-0.149999 0.0785687 0.0255048 0 0 0 128 116 70
-0.257314 0.0346268 0.00341942 0 0 0 234 237 55
-0.256899 0.0278491 -0.0492301 0 0 0 49 51 46
-0.150439 0.0797864 0.0220898 0 0 0 127 116 64
-0.203215 0.0694622 -0.0508796 0 0 0 105 42 12
-0.238009 0.0634495 -0.0252073 0 0 0 171 139 61
-0.221815 0.0755202 0.0015984 0 0 0 118 111 95
-0.152391 0.073367 -0.0472128 0 0 0 109 86 36
-0.0797023 0.0794593 -0.0157973 0 0 0 90 8 13
-0.253884 0.0681921 -0.0320562 0 0 0 65 69 82
-0.220061 0.0727493 -0.0131584 0 0 0 127 123 106
-0.142188 0.0763535 -0.0309131 0 0 0 138 136 102
-0.267451 0.0238564 -0.0377264 0 0 0 18 15 15
-0.167752 0.0785944 0.0208247 0 0 0 132 126 93
-0.126011 0.0789147 -0.0253984 0 0 0 128 89 61
-0.112429 0.0763048 -0.0395351 0 0 0 144 143 112
-0.13451 0.0792413 -0.00842085 0 0 0 141 140 121
-0.219274 0.0734881 -0.0130044 0 0 0 128 123 117
-0.1317 0.0801978 0.0148697 0 0 0 50 40 47
-0.143453 0.0797606 0.018947 0 0 0 128 124 85
-0.0524449 0.0759935 -0.0478635 0 0 0 41 49 56
-0.204201 0.0719973 -0.0230394 0 0 0 68 71 5
-0.0761542 0.0804852 -0.0026469 0 0 0 125 100 14
-0.262226 0.024343 -0.0330824 0 0 0 114 108 77
-0.0585148 0.076633 -0.0225094 0 0 0 116 81 3
-0.0208739 0.0764459 -0.0399007 0 0 0 58 61 47
-0.137112 0.0775615 -0.0379431 0 0 0 132 121 89
-0.259009 0.0252929 -0.0418649 0 0 0 139 141 166
-0.213755 0.0720054 -0.0153535 0 0 0 126 119 38
-0.0548894 0.0823069 0.00361944 0 0 0 58 12 18
-0.210407 0.0732926 -0.00831434 0 0 0 79 71 14
-0.222094 0.077272 0.0117257 0 0 0 12 12 17
-0.0431826 0.0777786 -0.0274463 0 0 0 35 16 14
-0.252302 0.0451305 0.0195343 0 0 0 82 83 82
-0.102369 0.0782958 -0.0303191 0 0 0 141 144 115
-0.0275821 0.0793434 0.00281419 0 0 0 60 58 48
-0.110842 0.0780682 0.0131955 0 0 0 95 77 29
-0.181272 0.0748468 -0.0279328 0 0 0 122 98 57
-0.0633407 0.0800638 0.0185492 0 0 0 112 77 5
-0.116674 0.079599 -0.00784096 0 0 0 138 132 65
-0.0640703 0.0771856 -0.00805567 0 0 0 126 100 15
-0.116593 0.0797645 -0.00904504 0 0 0 139 135 73
-0.205534 0.078254 0.00611754 0 0 0 94 68 4
