ply
format ascii 1.0
element vertex 77
property float x
property float y
property float z
property float nx
property float ny
property float nz
property uchar diffuse_red
property uchar diffuse_green
property uchar diffuse_blue
end_header
-0.102076 0.0743683 -0.0587355 0 0 0 221 228 244
-0.0361325 0.0742755 -0.0596187 0 0 0 254 254 254
-0.0394267 0.0751157 -0.0579493 0 0 0 254 254 254
-0.175422 0.0716901 -0.0604529 0 0 0 217 224 237
-0.170349 0.0710638 -0.0607995 0 0 0 219 221 238
-0.244573 0.0584426 0.0233065 0 0 0 185 196 189
-0.268494 0.0228783 -0.0577475 0 0 0 188 193 190
-0.261996 0.057451 -0.014305 0 0 0 253 253 236
-0.259805 0.0253643 -0.00679838 0 0 0 249 247 113
-0.259456 0.0560912 -0.0339606 0 0 0 68 74 79
-0.269374 0.0237948 -0.0463308 0 0 0 13 13 19
-0.220153 0.0674747 -0.062056 0 0 0 239 240 241
-0.269438 0.0236364 -0.0452479 0 0 0 12 12 17
-0.139521 0.076989 -0.0263783 0 0 0 139 125 96
-0.244732 0.0511369 -0.0528634 0 0 0 139 143 166
-0.222907 0.0707002 -0.0343549 0 0 0 53 18 9
-0.25757 0.0282832 0.000471779 0 0 0 248 244 92
-0.141606 0.077733 -0.0105112 0 0 0 136 129 103
-0.248673 0.0477997 0.00400493 0 0 0 220 227 134
-0.255696 0.0367661 0.00412988 0 0 0 233 213 28
-0.125914 0.0741034 -0.0492901 0 0 0 55 47 43
-0.239489 0.0601518 -0.0497787 0 0 0 94 68 70
-0.238674 0.0650043 -0.00150447 0 0 0 32 34 39
-0.254832 0.0314883 -0.00558149 0 0 0 214 208 36
-0.260094 0.0556727 -0.0362129 0 0 0 75 77 84
-0.264229 0.0469411 -0.0304313 0 0 0 66 64 82
-0.157415 0.0765062 0.00320574 0 0 0 128 101 83
-0.0771435 0.0795028 0.0141358 0 0 0 129 119 40
-0.14212 0.0735858 -0.0477959 0 0 0 46 38 33
-0.146886 0.0777796 0.0252593 0 0 0 125 109 59
-0.0976551 0.0798732 0.00579377 0 0 0 23 16 8
-0.0782468 0.0726091 -0.0612785 0 0 0 43 48 55
-0.259632 0.0228865 -0.024065 0 0 0 184 189 172
-0.143487 0.072817 -0.0540472 0 0 0 41 36 18
-0.263118 0.0495647 -0.0320648 0 0 0 61 63 64
-0.251123 0.0452658 0.00568796 0 0 0 227 238 75
-0.25684 0.0341003 0.00586891 0 0 0 203 220 69
-0.256907 0.0262999 -0.0481783 0 0 0 46 51 60
-0.203647 0.0684542 -0.0498625 0 0 0 104 41 5
-0.237621 0.0610696 -0.0241595 0 0 0 170 138 50
-0.15284 0.0728322 -0.0465171 0 0 0 105 91 31
-0.0801718 0.0778488 -0.0158626 0 0 0 91 6 11
-0.202443 0.0680766 -0.0637748 0 0 0 222 229 239
-0.254923 0.0658105 -0.0308481 0 0 0 61 65 62
-0.109018 0.0770126 0.0236022 0 0 0 87 59 46
-0.223317 0.0739652 0.00275087 0 0 0 91 92 70
-0.141874 0.0750637 -0.0304208 0 0 0 138 133 111
-0.113558 0.0768037 -0.038929 0 0 0 146 145 110
-0.219479 0.0720159 -0.0118454 0 0 0 127 121 107
-0.267857 0.0229879 -0.0364546 0 0 0 21 15 14
-0.125669 0.0777549 -0.0249872 0 0 0 129 89 62
-0.134746 0.0785706 -0.00780383 0 0 0 142 141 120
-0.118467 0.0774276 0.0256172 0 0 0 86 59 34
-0.0250098 0.0802861 -0.0216008 0 0 0 63 60 50
-0.0250219 0.0798503 -0.00127118 0 0 0 49 45 46
-0.0521853 0.0757956 -0.0480075 0 0 0 42 47 41
-0.131781 0.0793672 0.0154737 0 0 0 50 41 53
-0.0546232 0.0740563 -0.0550507 0 0 0 225 236 238
-0.205081 0.0715376 -0.0218441 0 0 0 64 74 5
-0.058904 0.0766403 -0.0211563 0 0 0 116 83 2
-0.213962 0.0706068 -0.0142446 0 0 0 125 118 37
-0.137538 0.0771029 -0.03732 0 0 0 133 120 88
-0.262149 0.0224517 -0.0309308 0 0 0 112 79 70
-0.25906 0.0287406 0.0259916 0 0 0 45 50 53
-0.220886 0.0741317 0.0116705 0 0 0 16 12 18
-0.0559269 0.0816309 0.00224647 0 0 0 68 14 18
-0.102039 0.0774276 -0.0300809 0 0 0 143 147 115
-0.0419208 0.0782244 -0.0261194 0 0 0 34 19 15
-0.112332 0.0788609 0.0138042 0 0 0 98 77 37
-0.187354 0.0697693 -0.0593075 0 0 0 226 233 240
-0.268536 0.0249118 0.0126849 0 0 0 44 32 26
-0.210578 0.0718704 -0.00721869 0 0 0 78 72 14
-0.11691 0.0791002 -0.0073449 0 0 0 139 131 67
-0.0634002 0.0798802 0.0186773 0 0 0 112 79 3
-0.18224 0.0746298 -0.0268684 0 0 0 123 99 55
-0.0657712 0.0785427 -0.00772238 0 0 0 126 100 22
-0.11684 0.0792761 -0.00854812 0 0 0 140 134 79
