ply
format ascii 1.0
element vertex 70
property float x
property float y
property float z
property float nx
property float ny
property float nz
property uchar diffuse_red
property uchar diffuse_green
property uchar diffuse_blue
end_header
-0.0473744 0.0747238 -0.057535 0 0 0 254 254 254
-0.100872 0.0739986 -0.058161 0 0 0 230 233 241
-0.131447 0.0709648 -0.0625921 0 0 0 245 244 246
-0.171434 0.0704433 -0.0584384 0 0 0 220 221 238
-0.244311 0.0561998 0.0246953 0 0 0 183 192 180
-0.267861 0.0198743 -0.0565845 0 0 0 188 191 184
-0.261766 0.0532492 -0.00565326 0 0 0 246 243 191
-0.175799 0.0704515 -0.0594234 0 0 0 217 222 239
-0.140019 0.0695234 -0.0625472 0 0 0 81 72 84
-0.24444 0.0547908 0.0233979 0 0 0 170 179 168
-0.259465 0.0229383 -0.00436731 0 0 0 240 235 104
-0.260621 0.0502166 -0.0343691 0 0 0 67 73 73
-0.26868 0.0207337 -0.0451398 0 0 0 14 13 13
-0.267432 0.0204552 -0.0441037 0 0 0 14 12 10
-0.138996 0.0754155 -0.0268809 0 0 0 139 125 112
-0.222452 0.0682722 -0.0343087 0 0 0 52 20 14
-0.244088 0.0499599 -0.0513493 0 0 0 142 157 173
-0.260568 0.0503757 -0.0354235 0 0 0 70 76 78
-0.262451 0.0468444 -0.0328964 0 0 0 59 65 59
-0.256186 0.0316719 -0.00276328 0 0 0 211 206 27
-0.141739 0.0766099 -0.00966163 0 0 0 134 129 103
-0.257159 0.0260126 0.0018132 0 0 0 248 243 84
-0.25541 0.0324253 -0.00261012 0 0 0 210 206 27
-0.239687 0.0582594 -0.0484115 0 0 0 92 63 56
-0.159568 0.0760122 0.00305749 0 0 0 131 114 87
-0.127113 0.0724517 -0.0487198 0 0 0 52 46 42
-0.14244 0.0726121 -0.0469596 0 0 0 46 41 36
-0.238625 0.06292 -0.000123077 0 0 0 33 34 31
-0.0793726 0.0729685 -0.0606335 0 0 0 45 49 56
-0.0802667 0.0800269 0.0146882 0 0 0 131 119 61
-0.0969864 0.0784194 0.00628518 0 0 0 23 17 9
-0.141628 0.0712461 -0.0534378 0 0 0 46 43 22
-0.148947 0.0772735 0.0249685 0 0 0 125 113 67
-0.24817 0.0473441 0.0045745 0 0 0 229 224 111
-0.0868689 0.0751786 -0.0442082 0 0 0 43 44 40
-0.259854 0.0215622 -0.0225692 0 0 0 183 186 183
-0.148771 0.0777979 0.0214953 0 0 0 128 119 81
-0.223165 0.0724933 0.000868801 0 0 0 114 114 83
-0.256772 0.0242368 -0.0468479 0 0 0 45 49 74
-0.21978 0.0695053 -0.00623478 0 0 0 103 88 76
-0.203927 0.0669032 -0.0486766 0 0 0 103 48 3
-0.260212 0.054864 -0.00640207 0 0 0 254 254 253
-0.240011 0.0623498 -0.0221306 0 0 0 169 137 55
-0.152472 0.0710245 -0.0458095 0 0 0 108 87 39
-0.0794422 0.078207 -0.0152052 0 0 0 91 9 7
-0.251612 0.0422873 0.0069097 0 0 0 228 227 39
-0.267619 0.0207722 -0.0350723 0 0 0 17 14 14
-0.142786 0.0747377 -0.0294172 0 0 0 140 134 103
-0.113149 0.0753724 -0.0384233 0 0 0 147 145 114
-0.253687 0.0637499 -0.0304453 0 0 0 75 71 78
-0.134871 0.0775016 -0.00699221 0 0 0 143 141 119
-0.116097 0.0758119 0.0263502 0 0 0 98 86 41
-0.125891 0.0768435 -0.0242333 0 0 0 133 90 60
-0.115111 0.0770136 0.0241149 0 0 0 105 76 42
-0.0246013 0.0792896 -0.018927 0 0 0 55 52 48
-0.131773 0.0782303 0.0162701 0 0 0 52 41 54
-0.0590312 0.0765429 -0.0220935 0 0 0 117 81 3
-0.137828 0.0761294 -0.0364969 0 0 0 132 119 89
-0.230123 0.0698799 0.0144257 0 0 0 12 11 11
-0.0558454 0.0763376 -0.0447818 0 0 0 47 46 59
-0.0437904 0.0780462 -0.0272137 0 0 0 35 15 14
-0.260556 0.0201636 -0.0296063 0 0 0 173 177 125
-0.0560249 0.0812712 0.00259529 0 0 0 68 14 21
-0.237601 0.0613759 -0.0588391 0 0 0 221 225 224
-0.10229 0.0767623 -0.0294707 0 0 0 145 147 110
-0.110901 0.0765273 0.0143001 0 0 0 98 78 29
-0.182441 0.0731873 -0.0257863 0 0 0 125 98 53
-0.117038 0.0781992 -0.00663865 0 0 0 139 133 62
-0.243924 0.0504485 -0.0545858 0 0 0 216 222 220
-0.116977 0.0783808 -0.00784152 0 0 0 140 136 75
