ply
format ascii 1.0
element vertex 68
property float x
property float y
property float z
property float nx
property float ny
property float nz
property uchar diffuse_red
property uchar diffuse_green
property uchar diffuse_blue
end_header
-0.100695 0.0743987 -0.0682047 0 0 0 221 228 245
-0.24422 0.061089 0.0116646 0 0 0 187 198 190
-0.169684 0.0727268 -0.0707049 0 0 0 220 222 238
-0.267212 0.0257862 -0.0682556 0 0 0 190 194 189
-0.2614 0.0598853 -0.0251067 0 0 0 253 253 231
-0.174751 0.0734259 -0.0704108 0 0 0 216 223 238
-0.260065 0.0301589 -0.0158393 0 0 0 239 245 115
-0.257434 0.0659994 -0.0196128 0 0 0 252 253 253
-0.265074 0.0535882 -0.024189 0 0 0 254 254 253
-0.0462149 0.0749085 -0.0678843 0 0 0 254 254 254
-0.258394 0.0600581 -0.0454906 0 0 0 71 78 78
-0.268981 0.0260599 -0.0569933 0 0 0 13 13 19
-0.260471 0.0594816 -0.045623 0 0 0 70 78 76
-0.267756 0.0257649 -0.0559347 0 0 0 14 13 19
-0.219519 0.0698175 -0.072402 0 0 0 238 240 241
-0.257187 0.0325236 -0.0108617 0 0 0 227 212 70
-0.139098 0.0784916 -0.0360417 0 0 0 139 127 92
-0.22182 0.0726358 -0.0460003 0 0 0 54 18 12
-0.243618 0.0546287 -0.0631604 0 0 0 142 158 172
-0.14285 0.0793227 -0.0202577 0 0 0 138 130 111
-0.248923 0.0510516 -0.00646394 0 0 0 219 224 132
-0.125321 0.0752404 -0.058802 0 0 0 54 48 18
-0.239069 0.0628582 -0.0602515 0 0 0 94 67 58
-0.253735 0.0423206 -0.00585336 0 0 0 229 212 44
-0.260484 0.0269541 -0.0342995 0 0 0 184 188 176
-0.0771577 0.0802836 0.00628915 0 0 0 129 116 40
-0.263566 0.0494203 -0.0422586 0 0 0 62 62 67
-0.141545 0.0749588 -0.0574563 0 0 0 47 39 32
-0.238635 0.068073 -0.0120101 0 0 0 34 33 36
-0.14 0.0727613 -0.0640854 0 0 0 45 39 37
-0.0967856 0.0803456 -0.00358293 0 0 0 19 17 10
-0.256969 0.029264 -0.0585569 0 0 0 49 51 54
-0.146688 0.080264 0.0120296 0 0 0 127 118 80
-0.203116 0.070663 -0.0600618 0 0 0 104 43 20
-0.23913 0.0664402 -0.0341772 0 0 0 170 136 49
-0.250569 0.0431235 -0.0712728 0 0 0 209 213 211
-0.130933 0.0817291 0.00721385 0 0 0 46 39 31
-0.221816 0.0767744 -0.00762571 0 0 0 118 108 82
-0.0789253 0.0794664 -0.0247942 0 0 0 91 8 5
-0.0197903 0.079092 -0.0276219 0 0 0 56 57 62
-0.220039 0.0740024 -0.0223794 0 0 0 126 121 100
-0.14144 0.0765678 -0.0400913 0 0 0 140 135 105
-0.113025 0.0778498 -0.0483461 0 0 0 146 145 113
-0.125935 0.0797971 -0.0343932 0 0 0 131 88 60
-0.134474 0.0801508 -0.0174358 0 0 0 142 141 116
-0.237682 0.0636558 -0.0722799 0 0 0 221 224 223
-0.219249 0.074738 -0.0222233 0 0 0 129 122 111
-0.0532764 0.0757081 -0.0568719 0 0 0 42 47 59
-0.0762147 0.0809867 -0.0102679 0 0 0 127 101 9
-0.204158 0.073191 -0.032223 0 0 0 66 71 5
-0.018492 0.0749687 -0.049064 0 0 0 59 62 46
-0.214029 0.0799724 0.0120176 0 0 0 36 36 29
-0.0584562 0.0772447 -0.0313446 0 0 0 117 81 2
-0.137012 0.0784932 -0.0469648 0 0 0 131 116 89
-0.251609 0.0473776 0.00930816 0 0 0 83 85 81
-0.0542304 0.0808594 -0.00683615 0 0 0 69 11 18
-0.210394 0.0745052 -0.0175122 0 0 0 77 73 9
-0.222635 0.0794778 0.00151905 0 0 0 16 10 18
-0.0414058 0.078558 -0.0361806 0 0 0 31 19 14
-0.102284 0.0790857 -0.039258 0 0 0 144 147 116
-0.0625403 0.0801768 0.00837231 0 0 0 115 81 6
-0.195901 0.0785559 0.00181395 0 0 0 62 41 30
-0.261405 0.0296633 0.0117883 0 0 0 50 57 53
-0.11226 0.0802985 0.00437909 0 0 0 98 79 27
-0.0655986 0.0789943 -0.0154345 0 0 0 126 101 17
-0.181206 0.0759509 -0.0370606 0 0 0 124 96 59
-0.116554 0.0806028 -0.0180171 0 0 0 140 135 79
-0.116637 0.0804371 -0.0168133 0 0 0 140 132 67
