ply
format ascii 1.0
element vertex 66
property float x
property float y
property float z
property float nx
property float ny
property float nz
property uchar diffuse_red
property uchar diffuse_green
property uchar diffuse_blue
end_header
-0.0379965 0.074231 -0.0681795 0 0 0 254 254 254
-0.101476 0.0750715 -0.0682447 0 0 0 223 229 246
-0.13052 0.07278 -0.071993 0 0 0 249 251 249
-0.244581 0.0617306 0.0110577 0 0 0 186 196 188
-0.26097 0.0611088 -0.0245624 0 0 0 253 252 223
-0.174831 0.0736781 -0.0708372 0 0 0 217 225 240
-0.267483 0.0264029 -0.0688771 0 0 0 189 193 189
-0.259362 0.0638107 -0.0218877 0 0 0 254 254 253
-0.26067 0.0293522 -0.0178063 0 0 0 248 246 105
-0.269284 0.0266997 -0.0576203 0 0 0 11 13 18
-0.268062 0.0264015 -0.0565578 0 0 0 12 12 14
-0.141375 0.0794852 -0.0374517 0 0 0 139 129 110
-0.262563 0.0527947 -0.0456053 0 0 0 60 65 67
-0.221179 0.0738409 -0.0464021 0 0 0 49 19 14
-0.244505 0.0545743 -0.064993 0 0 0 161 169 197
-0.257674 0.0330359 -0.0103774 0 0 0 239 236 94
-0.256413 0.0409262 -0.00800935 0 0 0 216 205 5
-0.219021 0.069433 -0.0731592 0 0 0 242 243 244
-0.238333 0.0678256 -0.0127182 0 0 0 33 34 30
-0.125427 0.0753163 -0.0590903 0 0 0 55 48 30
-0.156857 0.0780101 -0.0070982 0 0 0 125 98 74
-0.239218 0.0633762 -0.0608459 0 0 0 92 66 70
-0.19156 0.0720229 -0.0755123 0 0 0 228 230 242
-0.140327 0.073624 -0.0581268 0 0 0 43 39 34
-0.261569 0.0270001 -0.0361558 0 0 0 174 168 144
-0.0781542 0.0809542 0.00619325 0 0 0 129 118 38
-0.251464 0.0509427 -0.0062148 0 0 0 232 227 89
-0.097738 0.0810922 -0.00371828 0 0 0 20 19 9
-0.140765 0.0736249 -0.0642341 0 0 0 48 43 18
-0.257098 0.0374247 -0.00635698 0 0 0 234 237 55
-0.257255 0.0298545 -0.0591543 0 0 0 46 50 57
-0.203236 0.0710408 -0.060565 0 0 0 105 42 13
-0.23821 0.06533 -0.035069 0 0 0 172 139 52
-0.152402 0.0745482 -0.0566364 0 0 0 109 89 35
-0.080752 0.0792492 -0.0250298 0 0 0 92 9 11
-0.219618 0.0749398 -0.0206191 0 0 0 117 104 97
-0.254011 0.0701905 -0.0420056 0 0 0 66 68 66
-0.224146 0.0768037 -0.00947467 0 0 0 74 77 55
-0.142261 0.0774712 -0.0402865 0 0 0 141 138 108
-0.268403 0.0268455 -0.0475363 0 0 0 18 14 12
-0.125411 0.079187 -0.0348201 0 0 0 131 89 65
-0.112459 0.0771785 -0.0487527 0 0 0 147 145 115
-0.221827 0.0777377 -0.0114075 0 0 0 125 123 96
-0.134679 0.0803218 -0.0177574 0 0 0 142 142 123
-0.142904 0.081732 0.00973271 0 0 0 128 122 80
-0.169909 0.0781171 0.0132557 0 0 0 130 116 74
-0.0245777 0.0803246 -0.0328709 0 0 0 57 55 58
-0.132663 0.0820098 0.00561423 0 0 0 53 42 48
-0.24951 0.0434045 -0.0708313 0 0 0 209 214 213
-0.0533875 0.0755054 -0.0569559 0 0 0 40 46 57
-0.204347 0.0736129 -0.0327329 0 0 0 69 74 5
-0.0586337 0.077099 -0.0314456 0 0 0 118 80 2
-0.137139 0.0786317 -0.0472911 0 0 0 134 122 91
-0.251476 0.0471829 0.00863087 0 0 0 85 77 83
-0.0425222 0.0774528 -0.0364251 0 0 0 34 14 11
-0.0535224 0.0816031 -0.00674352 0 0 0 59 12 21
-0.237794 0.064151 -0.0728714 0 0 0 223 225 225
-0.102432 0.0790997 -0.0394863 0 0 0 144 144 115
-0.22238 0.0790652 0.0019328 0 0 0 12 12 14
-0.0643817 0.0812904 0.00964064 0 0 0 111 78 3
-0.112526 0.0804142 0.00412039 0 0 0 100 77 26
-0.117535 0.0812562 -0.0169829 0 0 0 140 133 65
-0.181371 0.0762762 -0.0375091 0 0 0 124 97 55
-0.0657217 0.0790721 -0.0168299 0 0 0 128 100 3
-0.117447 0.0814195 -0.0181848 0 0 0 142 136 75
-0.269643 0.0292343 0.00157177 0 0 0 41 34 11
