ply
format ascii 1.0
element vertex 72
property float x
property float y
property float z
property float nx
property float ny
property float nz
property uchar diffuse_red
property uchar diffuse_green
property uchar diffuse_blue
end_header
-0.101833 0.0752757 -0.058857 0 0 0 221 228 244
-0.243941 0.0597287 0.0218254 0 0 0 186 198 184
-0.170771 0.0733302 -0.060805 0 0 0 222 224 240
-0.175197 0.0732464 -0.0606737 0 0 0 217 225 239
-0.268189 0.0243683 -0.0584192 0 0 0 188 192 187
-0.25985 0.0289955 -0.00586162 0 0 0 240 244 98
-0.0391804 0.0754705 -0.0579895 0 0 0 254 254 254
-0.25667 0.0655974 -0.00914262 0 0 0 253 253 254
-0.219237 0.0689507 -0.0647514 0 0 0 242 242 244
-0.219961 0.0694281 -0.0623435 0 0 0 242 243 244
-0.269076 0.0252643 -0.0469824 0 0 0 16 13 19
-0.258792 0.0576298 -0.0355597 0 0 0 71 78 81
-0.268351 0.0258456 -0.04574 0 0 0 13 13 16
-0.257539 0.0320337 0.000319377 0 0 0 240 235 90
-0.140829 0.0780717 -0.0265623 0 0 0 136 126 112
-0.221276 0.0727085 -0.0357397 0 0 0 51 17 17
-0.255575 0.0364108 0.00334398 0 0 0 236 222 15
-0.243842 0.0541834 -0.0541421 0 0 0 163 173 195
-0.142924 0.0788029 -0.0107201 0 0 0 137 131 106
-0.261635 0.059293 -0.0072165 0 0 0 254 254 217
-0.264626 0.0461521 -0.0161863 0 0 0 254 253 230
-0.239377 0.0622467 -0.050108 0 0 0 92 63 71
-0.125002 0.0744814 -0.0496255 0 0 0 54 48 44
-0.159392 0.0784576 0.00306253 0 0 0 129 110 87
-0.238581 0.0669788 -0.0018215 0 0 0 35 32 38
-0.141897 0.0748197 -0.0479701 0 0 0 46 41 34
-0.264321 0.0490523 -0.029767 0 0 0 77 74 76
-0.0780167 0.073313 -0.0613739 0 0 0 44 49 50
-0.0974469 0.0805903 0.00569065 0 0 0 20 14 12
-0.0776798 0.0807016 0.0141384 0 0 0 129 118 46
-0.141062 0.0734267 -0.0544397 0 0 0 46 39 30
-0.260921 0.0268484 -0.0241909 0 0 0 184 188 174
-0.256569 0.0276787 -0.0488089 0 0 0 50 48 55
-0.250865 0.0425649 -0.0612356 0 0 0 212 214 214
-0.151869 0.0796317 0.023706 0 0 0 136 117 70
-0.150497 0.0793402 0.0261143 0 0 0 130 114 62
-0.203464 0.0702339 -0.0501268 0 0 0 105 46 9
-0.238676 0.0647401 -0.024161 0 0 0 173 141 42
-0.22297 0.0773298 0.0027446 0 0 0 119 112 80
-0.151964 0.0734181 -0.0468905 0 0 0 108 88 31
-0.0806783 0.0791459 -0.0158228 0 0 0 93 7 10
-0.2201 0.0731075 -0.0122787 0 0 0 128 121 101
-0.142332 0.0769845 -0.0304345 0 0 0 141 135 104
-0.275349 0.0229465 -0.0108296 0 0 0 135 126 83
-0.112622 0.0770594 -0.0392246 0 0 0 146 145 114
-0.267576 0.024421 -0.0370887 0 0 0 20 17 13
-0.13453 0.0796456 -0.00795702 0 0 0 143 141 117
-0.125439 0.0787905 -0.0251308 0 0 0 130 88 63
-0.0199281 0.0792787 -0.0190692 0 0 0 58 58 68
-0.218714 0.073044 -0.0122605 0 0 0 129 123 112
-0.238374 0.0614529 -0.0614456 0 0 0 223 224 225
-0.131589 0.0803617 0.015326 0 0 0 54 41 48
-0.0536308 0.0760167 -0.0480834 0 0 0 41 44 60
-0.0207759 0.0797241 -0.017618 0 0 0 58 56 58
-0.0235593 0.0804755 -0.00931817 0 0 0 57 52 49
-0.058691 0.07708 -0.0212178 0 0 0 116 82 7
-0.138835 0.0781886 -0.0374849 0 0 0 130 121 94
-0.214474 0.07303 -0.0132889 0 0 0 125 117 43
-0.0433102 0.0784844 -0.0275125 0 0 0 35 15 11
-0.211027 0.0744047 -0.00735428 0 0 0 85 75 22
-0.0632099 0.080266 0.0186176 0 0 0 112 79 5
-0.101806 0.0782674 -0.0301952 0 0 0 144 146 112
-0.252671 0.0459698 0.020388 0 0 0 82 83 86
-0.221396 0.0765636 0.0125655 0 0 0 12 12 15
-0.0542085 0.0806602 0.00200783 0 0 0 68 12 27
-0.043512 0.0769348 -0.02784 0 0 0 40 14 8
-0.268813 0.0271171 0.0122355 0 0 0 44 32 11
-0.215955 0.0750411 -0.00514721 0 0 0 121 91 8
-0.110738 0.0782732 0.0135118 0 0 0 97 77 33
-0.182033 0.0761672 -0.0270911 0 0 0 126 98 43
-0.0640871 0.0776653 -0.00801143 0 0 0 129 100 9
-0.19259 0.0762407 -0.0168008 0 0 0 132 128 84
