ply
format ascii 1.0
element vertex 81
property float x
property float y
property float z
property float nx
property float ny
property float nz
property uchar diffuse_red
property uchar diffuse_green
property uchar diffuse_blue
end_header
-0.101084 0.0732372 -0.0589401 0 0 0 221 229 245
-0.0359253 0.0734137 -0.058176 0 0 0 254 254 254
-0.169423 0.0701101 -0.0611466 0 0 0 219 221 239
-0.244447 0.0590924 0.0220118 0 0 0 184 197 184
-0.173738 0.0713798 -0.0595075 0 0 0 215 221 232
-0.267879 0.0221655 -0.0580564 0 0 0 188 192 187
-0.244447 0.0590924 0.0220118 0 0 0 184 197 184
-0.261526 0.0553917 -0.0150001 0 0 0 252 252 235
-0.262368 0.056643 -0.00621678 0 0 0 233 213 151
-0.2598 0.0257637 -0.00689202 0 0 0 249 246 114
-0.264538 0.0483299 -0.0152632 0 0 0 254 253 251
-0.259071 0.0579198 -0.0338886 0 0 0 68 77 82
-0.257862 0.064098 -0.0101386 0 0 0 252 252 252
-0.255882 0.0336037 -0.0054554 0 0 0 213 206 38
-0.268779 0.0231429 -0.0466273 0 0 0 14 13 16
-0.268573 0.0246167 -0.0451993 0 0 0 16 12 12
-0.139292 0.0768556 -0.0264882 0 0 0 138 126 115
-0.221301 0.0707664 -0.0346253 0 0 0 48 19 15
-0.217897 0.0665995 -0.0625653 0 0 0 240 241 243
-0.257504 0.0288653 -0.000719762 0 0 0 239 235 88
-0.244474 0.0513949 -0.0541382 0 0 0 159 170 193
-0.143614 0.0783371 -0.0105554 0 0 0 137 131 102
-0.260178 0.0575225 -0.00814023 0 0 0 254 254 253
-0.25992 0.05592 -0.0364637 0 0 0 73 78 83
-0.238699 0.0594302 -0.0502092 0 0 0 92 62 69
-0.125648 0.0738025 -0.0493564 0 0 0 55 47 31
-0.254891 0.0379493 0.00413755 0 0 0 229 211 22
-0.248324 0.0499497 0.00300418 0 0 0 225 223 106
-0.157914 0.0773317 0.00315993 0 0 0 123 98 81
-0.141859 0.0733506 -0.0478933 0 0 0 47 37 34
-0.0777986 0.0798586 0.0154682 0 0 0 130 118 42
-0.0786835 0.0727555 -0.0610519 0 0 0 45 50 52
-0.0967645 0.0790645 0.00566639 0 0 0 21 19 10
-0.14034 0.0711856 -0.0545391 0 0 0 45 41 26
-0.251366 0.0439562 0.00632926 0 0 0 219 226 59
-0.263561 0.0463723 -0.0308139 0 0 0 71 57 65
-0.145406 0.0764738 0.0250033 0 0 0 125 108 49
-0.147462 0.0774673 0.02264 0 0 0 124 113 64
-0.237187 0.0652634 -0.00172571 0 0 0 40 44 32
-0.256475 0.032231 0.00429671 0 0 0 235 236 55
-0.256813 0.0264742 -0.0482701 0 0 0 48 51 54
-0.0172663 0.0786793 -0.0216526 0 0 0 26 35 44
-0.203399 0.0684285 -0.0500616 0 0 0 104 44 15
-0.019857 0.0788495 -0.0202673 0 0 0 54 63 65
-0.236877 0.0604746 -0.0245466 0 0 0 170 138 48
-0.152583 0.072642 -0.046633 0 0 0 108 90 34
-0.221778 0.0742178 0.0025245 0 0 0 118 111 79
-0.0790515 0.0784213 -0.0156764 0 0 0 91 10 6
-0.25466 0.0662138 -0.0321848 0 0 0 64 69 83
-0.22008 0.0715007 -0.0122487 0 0 0 125 121 98
-0.142319 0.0756454 -0.0303749 0 0 0 141 134 102
-0.113303 0.0765123 -0.0389836 0 0 0 147 146 115
-0.13163 0.0794232 0.0153669 0 0 0 51 41 52
-0.12544 0.0775791 -0.0250723 0 0 0 130 88 58
-0.267799 0.0232623 -0.0365522 0 0 0 19 15 14
-0.219297 0.072244 -0.0120965 0 0 0 126 123 110
-0.134549 0.0785164 -0.00791228 0 0 0 141 142 122
-0.164908 0.0759487 0.0225859 0 0 0 133 125 90
-0.0536004 0.0750061 -0.0479494 0 0 0 41 45 57
-0.204264 0.0708769 -0.0222096 0 0 0 65 73 8
-0.0761743 0.0801103 -0.00242124 0 0 0 127 100 13
-0.251986 0.0435855 0.0205211 0 0 0 81 83 81
-0.214388 0.0715978 -0.0143414 0 0 0 125 119 49
-0.0586091 0.0764264 -0.0223813 0 0 0 118 81 7
-0.137286 0.0769056 -0.0374262 0 0 0 133 119 87
-0.0542418 0.080024 0.0021049 0 0 0 67 14 21
-0.210406 0.0720907 -0.00745058 0 0 0 79 73 19
-0.124635 0.0760024 -0.0303223 0 0 0 129 84 49
-0.043309 0.0776825 -0.02739 0 0 0 34 17 12
-0.102511 0.0778361 -0.0299708 0 0 0 143 146 116
-0.220745 0.0744867 0.0114051 0 0 0 16 12 18
-0.237059 0.0632457 -0.0604483 0 0 0 222 225 225
-0.112179 0.0788386 0.0137407 0 0 0 99 77 30
-0.063998 0.0803769 0.0187775 0 0 0 112 77 6
-0.0656527 0.0780632 -0.00641516 0 0 0 127 101 13
-0.268573 0.0254434 0.0125751 0 0 0 41 30 10
-0.116712 0.0789846 -0.00741892 0 0 0 139 132 68
-0.181378 0.0738845 -0.0272072 0 0 0 122 98 48
-0.269871 0.025588 0.0125135 0 0 0 25 14 8
-0.116639 0.079154 -0.00862288 0 0 0 141 135 77
-0.233267 0.0747127 0.0140622 0 0 0 12 11 10
