ply
format ascii 1.0
element vertex 70
property float x
property float y
property float z
property float nx
property float ny
property float nz
property uchar diffuse_red
property uchar diffuse_green
property uchar diffuse_blue
end_header
-0.100375 0.0753815 -0.0589366 0 0 0 229 234 239
-0.0416977 0.0758875 -0.0590719 0 0 0 254 254 254
-0.244305 0.0604507 0.0215125 0 0 0 185 198 184
-0.260997 0.0599519 -0.0139688 0 0 0 252 249 213
-0.260229 0.0296184 -0.00605552 0 0 0 239 245 107
-0.267667 0.0254912 -0.0584512 0 0 0 191 194 190
-0.17099 0.0732901 -0.0598715 0 0 0 220 220 237
-0.176814 0.0733631 -0.0608569 0 0 0 217 224 236
-0.139563 0.0716896 -0.0636704 0 0 0 82 75 101
-0.257162 0.0646354 -0.00979645 0 0 0 252 253 253
-0.259033 0.0581004 -0.0358946 0 0 0 69 77 82
-0.26988 0.0265873 -0.0469845 0 0 0 14 15 19
-0.268649 0.0262893 -0.0459366 0 0 0 15 14 14
-0.257924 0.0326819 0.000115336 0 0 0 239 233 98
-0.139431 0.0785358 -0.0278894 0 0 0 139 127 107
-0.244908 0.0536322 -0.0535017 0 0 0 139 142 159
-0.222269 0.0723462 -0.0362215 0 0 0 53 16 16
-0.259966 0.0559578 -0.0374319 0 0 0 72 79 82
-0.141639 0.0791774 -0.0108529 0 0 0 135 128 99
-0.249086 0.0504925 0.00336091 0 0 0 220 226 139
-0.125852 0.0752669 -0.049566 0 0 0 55 47 41
-0.261475 0.0259157 -0.0257786 0 0 0 176 169 139
-0.239574 0.0625957 -0.0504222 0 0 0 91 66 72
-0.238942 0.0674166 -0.00109594 0 0 0 40 35 37
-0.158937 0.0782909 0.00159474 0 0 0 130 114 85
-0.142068 0.0749361 -0.0481282 0 0 0 46 38 38
-0.264561 0.0486267 -0.018295 0 0 0 254 254 232
-0.146896 0.0797117 0.0225741 0 0 0 127 114 74
-0.0970114 0.0801681 0.00551275 0 0 0 22 15 12
-0.0803425 0.0814865 0.0140658 0 0 0 132 120 58
-0.143421 0.074166 -0.0543822 0 0 0 42 32 22
-0.265059 0.0505816 -0.0309583 0 0 0 65 64 64
-0.264907 0.0478269 -0.0293329 0 0 0 78 85 93
-0.257378 0.0289468 -0.0487942 0 0 0 47 50 56
-0.203641 0.0704931 -0.0504003 0 0 0 104 45 7
-0.211747 0.0704354 -0.0593363 0 0 0 244 244 245
-0.220368 0.0746773 -0.00908334 0 0 0 107 90 73
-0.236648 0.0619046 -0.0251116 0 0 0 170 138 58
-0.222633 0.076019 -0.00119669 0 0 0 116 111 103
-0.152799 0.0743069 -0.0468855 0 0 0 107 89 36
-0.0792717 0.0794423 -0.0158053 0 0 0 91 8 12
-0.142536 0.0771902 -0.0306047 0 0 0 140 134 103
-0.112808 0.0771469 -0.0393282 0 0 0 147 145 115
-0.254248 0.0691914 -0.0314116 0 0 0 64 68 82
-0.126337 0.0796988 -0.0251313 0 0 0 129 88 55
-0.134779 0.0799448 -0.00812338 0 0 0 142 140 122
-0.131887 0.0807706 0.0151623 0 0 0 51 40 46
-0.267897 0.0249063 -0.0372765 0 0 0 20 16 12
-0.0537991 0.0759126 -0.0480489 0 0 0 42 45 56
-0.205139 0.0736678 -0.0223954 0 0 0 66 73 4
-0.0589167 0.0771236 -0.0212005 0 0 0 117 80 3
-0.238548 0.0617423 -0.0617533 0 0 0 221 222 223
-0.137483 0.0784294 -0.0376453 0 0 0 132 118 89
-0.23161 0.0759326 0.0136667 0 0 0 11 11 12
-0.0544772 0.0808092 0.00201686 0 0 0 69 14 21
-0.0232506 0.0806441 -0.021465 0 0 0 75 64 57
-0.104077 0.0772617 -0.0406336 0 0 0 147 146 127
-0.252455 0.0460003 0.0189753 0 0 0 81 79 74
-0.0228615 0.0780657 -0.0192407 0 0 0 55 52 51
-0.024511 0.0781917 -0.0397556 0 0 0 55 59 67
-0.225644 0.0789551 0.0122792 0 0 0 11 12 12
-0.0437234 0.0769072 -0.0277877 0 0 0 41 13 9
-0.111038 0.078621 0.0134055 0 0 0 97 78 31
-0.0658094 0.0791394 -0.00779619 0 0 0 128 102 23
-0.182247 0.0764886 -0.0273465 0 0 0 123 96 54
-0.11694 0.0802745 -0.00760233 0 0 0 139 132 67
-0.261999 0.0297052 0.0227318 0 0 0 48 52 46
-0.102008 0.0783732 -0.0302807 0 0 0 143 145 114
-0.197875 0.0772527 0.00107936 0 0 0 99 85 59
-0.117559 0.0811577 -0.00869156 0 0 0 140 134 76
