ply
format ascii 1.0
element vertex 83
property float x
property float y
property float z
property float nx
property float ny
property float nz
property uchar diffuse_red
property uchar diffuse_green
property uchar diffuse_blue
end_header
-0.100546 0.0753945 -0.0590189 0 0 0 228 233 243
-0.046103 0.0763735 -0.0577676 0 0 0 254 254 254
-0.170425 0.0721123 -0.0612216 0 0 0 220 222 238
-0.244289 0.0586865 0.0226254 0 0 0 185 194 178
-0.175497 0.072751 -0.0608845 0 0 0 218 223 238
-0.268186 0.0232976 -0.058685 0 0 0 189 193 191
-0.263404 0.0568483 -0.00779737 0 0 0 239 245 217
-0.244994 0.0581124 0.0214085 0 0 0 172 184 166
-0.259389 0.0271295 -0.00624909 0 0 0 240 245 101
-0.14038 0.072108 -0.0635083 0 0 0 83 69 88
-0.25647 0.0636231 -0.00851244 0 0 0 254 254 254
-0.252406 0.037104 -0.0422908 0 0 0 71 74 82
-0.269602 0.0250717 -0.0470514 0 0 0 15 14 20
-0.219506 0.0681802 -0.0649968 0 0 0 241 242 244
-0.219639 0.0678569 -0.0628131 0 0 0 242 243 244
-0.259014 0.0566271 -0.0358328 0 0 0 71 79 82
-0.267851 0.0239021 -0.0462024 0 0 0 14 12 11
-0.257632 0.0310553 5.88828e-05 0 0 0 239 237 94
-0.244028 0.0532652 -0.0544012 0 0 0 163 175 199
-0.221592 0.0719383 -0.0359885 0 0 0 49 20 12
-0.139583 0.0780668 -0.0279027 0 0 0 139 125 101
-0.256173 0.0364675 0.00211551 0 0 0 218 209 1
-0.141771 0.0786115 -0.0108604 0 0 0 134 129 101
-0.265001 0.0488497 -0.0136025 0 0 0 254 254 253
-0.239616 0.0613579 -0.0503671 0 0 0 93 66 73
-0.126007 0.0750152 -0.0496131 0 0 0 54 46 42
-0.23889 0.0661164 -0.00208207 0 0 0 32 36 34
-0.159043 0.0775176 0.00160747 0 0 0 130 114 86
-0.264495 0.048018 -0.0300408 0 0 0 77 73 78
-0.142218 0.0745367 -0.048154 0 0 0 45 41 35
-0.0774323 0.0799826 0.0151771 0 0 0 129 119 41
-0.0978493 0.0806071 0.00554104 0 0 0 21 17 15
-0.148646 0.0785371 0.0247977 0 0 0 126 112 58
-0.141369 0.073146 -0.0546222 0 0 0 47 41 20
-0.251118 0.0481417 0.00424192 0 0 0 232 227 81
-0.0790411 0.0740986 -0.0613138 0 0 0 44 50 58
-0.0873633 0.0771196 -0.0447871 0 0 0 43 43 42
-0.248168 0.049665 0.00352987 0 0 0 201 211 118
-0.257124 0.0275481 -0.048868 0 0 0 47 52 76
-0.255377 0.0310382 -0.00654263 0 0 0 216 212 33
-0.149111 0.0797847 0.0213931 0 0 0 127 116 74
-0.203753 0.0695679 -0.0503597 0 0 0 104 41 11
-0.238952 0.0638672 -0.0244206 0 0 0 172 141 56
-0.22214 0.0749657 0.00226535 0 0 0 117 107 81
-0.152277 0.0730731 -0.0470821 0 0 0 108 90 29
-0.0794165 0.0794422 -0.0158992 0 0 0 91 8 10
-0.118709 0.0781776 0.0253159 0 0 0 87 60 33
-0.221041 0.0731542 -0.0123883 0 0 0 126 122 96
-0.167322 0.0786898 0.0236965 0 0 0 131 123 88
-0.275819 0.0229019 -0.0120374 0 0 0 133 128 86
-0.142681 0.0767067 -0.0306197 0 0 0 140 136 104
-0.112965 0.0769621 -0.0393852 0 0 0 147 146 114
-0.125804 0.0786198 -0.0253028 0 0 0 130 89 52
-0.267591 0.0233637 -0.0373541 0 0 0 16 15 13
-0.250494 0.0405922 -0.0606295 0 0 0 211 214 211
-0.134914 0.0794262 -0.00813698 0 0 0 141 141 122
-0.219656 0.0730981 -0.0123692 0 0 0 125 124 110
-0.0203032 0.0797657 -0.0191539 0 0 0 58 57 69
-0.02228 0.0788978 -0.0152404 0 0 0 51 53 55
-0.0531003 0.0769817 -0.0467106 0 0 0 49 48 57
-0.131997 0.0801709 0.0151482 0 0 0 51 42 44
-0.205238 0.0726016 -0.0223385 0 0 0 67 75 5
-0.0765415 0.08104 -0.00263229 0 0 0 127 101 7
-0.0589719 0.0775155 -0.0226172 0 0 0 117 82 8
-0.137648 0.0780219 -0.0376617 0 0 0 132 122 86
-0.104238 0.0771588 -0.0407023 0 0 0 149 147 121
-0.261097 0.0235607 -0.0316488 0 0 0 174 176 124
-0.255597 0.0300871 -0.0607597 0 0 0 203 208 201
-0.221777 0.0758142 0.0123149 0 0 0 12 12 16
-0.0561093 0.0822638 0.00208484 0 0 0 69 14 23
-0.210765 0.0729208 -0.00772409 0 0 0 79 75 14
-0.259614 0.0283961 0.0239888 0 0 0 47 50 54
-0.268366 0.0251912 0.0118718 0 0 0 42 33 7
-0.102874 0.0789347 -0.0301984 0 0 0 146 145 116
-0.045562 0.0770284 -0.0279966 0 0 0 46 16 15
-0.112546 0.0796175 0.0135187 0 0 0 99 75 37
-0.117078 0.0799088 -0.00763954 0 0 0 139 132 73
-0.182379 0.0756443 -0.0273089 0 0 0 124 96 50
-0.0628771 0.0798336 0.0184248 0 0 0 111 78 5
-0.030952 0.0818084 -0.00126844 0 0 0 43 42 36
-0.117005 0.0800869 -0.00884227 0 0 0 139 134 80
-0.252868 0.0450303 0.0201253 0 0 0 82 86 86
-0.0666805 0.0798885 -0.0077998 0 0 0 128 102 7
