ply
format ascii 1.0
element vertex 76
property float x
property float y
property float z
property float nx
property float ny
property float nz
property uchar diffuse_red
property uchar diffuse_green
property uchar diffuse_blue
end_header
-0.102023 0.0752548 -0.0591347 0 0 0 221 229 244
-0.131 0.072901 -0.0638573 0 0 0 246 245 248
-0.0454387 0.0738598 -0.0583677 0 0 0 254 254 254
-0.244298 0.0597117 0.0212533 0 0 0 187 198 187
-0.26756 0.0250056 -0.0588498 0 0 0 191 193 188
-0.170385 0.0723481 -0.060289 0 0 0 223 223 238
-0.139596 0.0716122 -0.06389 0 0 0 83 73 97
-0.176852 0.0731616 -0.0610675 0 0 0 223 228 240
-0.265557 0.0466426 -0.0145309 0 0 0 254 254 249
-0.181246 0.0731065 -0.0609391 0 0 0 220 227 242
-0.25928 0.0601225 -0.036692 0 0 0 72 79 84
-0.269265 0.0251671 -0.0475754 0 0 0 13 13 12
-0.268031 0.0248695 -0.0465267 0 0 0 13 12 12
-0.139483 0.078314 -0.0280816 0 0 0 143 129 102
-0.257835 0.0319887 -0.000255278 0 0 0 239 235 73
-0.261325 0.0553873 -0.036625 0 0 0 68 74 77
-0.244817 0.0533538 -0.0548665 0 0 0 162 169 192
-0.255628 0.0379735 0.00303745 0 0 0 232 214 17
-0.222302 0.0719074 -0.0364335 0 0 0 54 18 10
-0.264427 0.0492853 -0.0324852 0 0 0 62 60 64
-0.263223 0.0520568 -0.0351636 0 0 0 61 67 69
-0.14322 0.0788072 -0.0110908 0 0 0 140 130 105
-0.249831 0.0490791 0.0029047 0 0 0 239 236 76
-0.239578 0.0621621 -0.0506725 0 0 0 95 66 76
-0.125895 0.0751739 -0.0497721 0 0 0 54 49 38
-0.157557 0.077765 0.002618 0 0 0 124 99 85
-0.218158 0.0684892 -0.0631565 0 0 0 243 244 245
-0.215237 0.0697791 -0.0618007 0 0 0 244 245 248
-0.229712 0.0699443 -0.0635001 0 0 0 233 235 235
-0.238957 0.0667853 -0.00132715 0 0 0 40 35 33
-0.14211 0.0747883 -0.0483346 0 0 0 46 42 35
-0.0790211 0.0797247 0.0149741 0 0 0 131 117 51
-0.0970655 0.0799394 0.00532425 0 0 0 20 15 9
-0.260639 0.0259035 -0.0249242 0 0 0 181 184 177
-0.143461 0.0740393 -0.0545916 0 0 0 44 34 18
-0.147941 0.0781259 0.0245392 0 0 0 127 112 61
-0.14914 0.0799413 0.022358 0 0 0 127 113 64
-0.257281 0.0284532 -0.0491796 0 0 0 47 51 50
-0.20367 0.0701681 -0.0506209 0 0 0 107 43 15
-0.238935 0.0646812 -0.0247264 0 0 0 173 137 64
-0.219807 0.0733322 -0.00941757 0 0 0 107 90 74
-0.25056 0.0414532 -0.0609388 0 0 0 212 214 212
-0.246149 0.0514103 -0.0631165 0 0 0 217 221 218
-0.152839 0.0741215 -0.0470938 0 0 0 106 87 27
-0.0809638 0.0791779 -0.0160583 0 0 0 90 8 12
-0.0160318 0.0769188 -0.0251335 0 0 0 49 57 61
-0.224187 0.0751945 0.000705835 0 0 0 72 72 62
-0.142584 0.07697 -0.0308021 0 0 0 140 135 103
-0.168555 0.0795986 0.0199843 0 0 0 134 128 96
-0.125704 0.07879 -0.0254634 0 0 0 131 89 60
-0.112856 0.0770519 -0.0395276 0 0 0 146 145 114
-0.134833 0.079657 -0.00831031 0 0 0 144 141 119
-0.268298 0.0252157 -0.0374984 0 0 0 19 16 15
-0.13263 0.0811193 0.0150596 0 0 0 51 41 45
-0.0554055 0.0771703 -0.0466343 0 0 0 48 49 52
-0.204562 0.0724376 -0.0227546 0 0 0 70 75 5
-0.059622 0.0779756 -0.0225572 0 0 0 116 81 4
-0.256251 0.0318397 -0.0608526 0 0 0 204 206 204
-0.137535 0.078253 -0.037838 0 0 0 132 123 86
-0.20139 0.0775762 0.000897156 0 0 0 103 87 42
-0.0560267 0.0820522 0.00201642 0 0 0 68 11 26
-0.263133 0.0255011 -0.0317872 0 0 0 111 68 69
-0.252472 0.0450894 0.0197292 0 0 0 82 87 82
-0.10206 0.0782744 -0.0304759 0 0 0 145 147 112
-0.0635711 0.0803407 0.0184189 0 0 0 111 77 2
-0.0418689 0.0787609 -0.0276099 0 0 0 25 21 16
-0.0428196 0.0778678 -0.0278012 0 0 0 30 17 11
-0.237483 0.0638126 -0.0625433 0 0 0 224 225 225
-0.110384 0.0776107 0.0131297 0 0 0 100 77 29
-0.181655 0.075371 -0.0277004 0 0 0 126 98 50
-0.117693 0.0807476 -0.00767381 0 0 0 140 133 63
-0.0406238 0.0792586 -0.0355812 0 0 0 42 43 42
-0.26855 0.0263504 0.0104693 0 0 0 47 22 12
-0.0658616 0.0790591 -0.00799067 0 0 0 128 102 1
-0.117617 0.0809244 -0.00887465 0 0 0 141 135 75
-0.168842 0.0767681 -0.014405 0 0 0 131 117 80
