ply
format ascii 1.0
element vertex 78
property float x
property float y
property float z
property float nx
property float ny
property float nz
property uchar diffuse_red
property uchar diffuse_green
property uchar diffuse_blue
end_header
-0.101472 0.0739499 -0.0589062 0 0 0 222 229 243
-0.0470822 0.0752077 -0.0578527 0 0 0 254 254 254
-0.261225 0.0576713 -0.0139856 0 0 0 253 253 238
-0.24393 0.0569856 0.0233709 0 0 0 185 198 184
-0.170445 0.0711067 -0.060694 0 0 0 222 227 240
-0.17552 0.0717136 -0.0603372 0 0 0 218 225 240
-0.267899 0.0216921 -0.05796 0 0 0 191 192 189
-0.244637 0.0564107 0.0221549 0 0 0 173 183 170
-0.259726 0.024669 -0.00570244 0 0 0 243 236 105
-0.139732 0.0705712 -0.0632964 0 0 0 85 70 89
-0.259343 0.0560115 -0.0359035 0 0 0 73 78 86
-0.268765 0.0225484 -0.0465187 0 0 0 15 13 14
-0.250219 0.0499427 0.00338919 0 0 0 234 229 105
-0.267523 0.0222617 -0.045477 0 0 0 15 14 14
-0.257968 0.0285893 0.000611507 0 0 0 249 245 92
-0.140373 0.0763338 -0.0276372 0 0 0 136 127 109
-0.221521 0.0705476 -0.0352825 0 0 0 48 21 16
-0.244473 0.0526214 -0.053456 0 0 0 163 174 197
-0.265291 0.0468789 -0.0161228 0 0 0 254 254 251
-0.26528 0.0482207 -0.0299538 0 0 0 71 63 80
-0.126005 0.074245 -0.0492325 0 0 0 55 47 46
-0.238724 0.0643602 -0.000271575 0 0 0 40 34 38
-0.239531 0.0599005 -0.0496292 0 0 0 95 70 65
-0.157439 0.0762827 0.00331875 0 0 0 128 101 84
-0.142207 0.0736638 -0.047718 0 0 0 43 40 35
-0.0802753 0.0806595 0.0142216 0 0 0 133 121 63
-0.265302 0.043868 -0.0286829 0 0 0 79 85 96
-0.260765 0.0227168 -0.0251575 0 0 0 173 170 145
-0.0790758 0.0736481 -0.0611002 0 0 0 46 50 46
-0.14358 0.0729206 -0.053971 0 0 0 44 37 16
-0.0955212 0.0777864 0.00554283 0 0 0 24 14 12
-0.206721 0.0682167 -0.0645503 0 0 0 245 246 247
-0.256294 0.0251208 -0.0483723 0 0 0 49 49 57
-0.148402 0.07741 0.0252672 0 0 0 126 112 64
-0.205432 0.0678698 -0.0624007 0 0 0 244 246 248
-0.151148 0.0791474 0.0230107 0 0 0 130 115 69
-0.203719 0.068328 -0.049723 0 0 0 106 44 11
-0.221771 0.0739453 -0.000230889 0 0 0 125 122 99
-0.23763 0.0607001 -0.0240085 0 0 0 176 139 56
-0.152922 0.0728666 -0.0464278 0 0 0 108 93 25
-0.0234299 0.0807273 -0.0202684 0 0 0 71 65 50
-0.220846 0.0729117 -0.00923202 0 0 0 118 103 81
-0.0778569 0.0775108 -0.0159265 0 0 0 92 9 10
-0.267229 0.0216989 -0.0366312 0 0 0 19 15 20
-0.141941 0.0750579 -0.0303362 0 0 0 141 135 103
-0.112939 0.0762409 -0.0390445 0 0 0 147 144 114
-0.21567 0.0761031 0.0102893 0 0 0 89 88 20
-0.125738 0.0777791 -0.0249124 0 0 0 129 89 58
-0.168374 0.0779268 0.0207443 0 0 0 135 127 97
-0.134793 0.0784796 -0.00771251 0 0 0 142 141 121
-0.14426 0.0790737 0.0209775 0 0 0 129 123 76
-0.0530287 0.0768416 -0.047874 0 0 0 43 48 56
-0.131798 0.0791733 0.0155644 0 0 0 53 43 55
-0.115821 0.0787345 0.0223577 0 0 0 99 77 40
-0.212769 0.0749713 0.0224136 0 0 0 41 35 29
-0.204502 0.0704905 -0.021845 0 0 0 70 74 4
-0.261972 0.0221957 -0.0320248 0 0 0 118 112 82
-0.24088 0.0569094 -0.0614416 0 0 0 221 224 223
-0.0596377 0.0777319 -0.0223284 0 0 0 119 81 9
-0.137622 0.0771458 -0.0372315 0 0 0 133 121 91
-0.212766 0.0686927 -0.0143718 0 0 0 125 118 40
-0.104218 0.0764945 -0.0403916 0 0 0 148 147 124
-0.0648193 0.0825809 0.0203498 0 0 0 109 77 4
-0.0436184 0.0784873 -0.0275129 0 0 0 34 15 12
-0.0544633 0.0804551 0.00204173 0 0 0 69 11 21
-0.12494 0.0762609 -0.0301808 0 0 0 129 86 47
-0.259006 0.0267626 0.0236159 0 0 0 50 51 55
-0.258113 0.0238949 -0.0395659 0 0 0 111 118 150
-0.200423 0.0765092 0.00087318 0 0 0 103 84 57
-0.241381 0.0611891 0.00563399 0 0 0 31 30 13
-0.0355834 0.0748954 -0.0542108 0 0 0 139 185 225
-0.102183 0.0773731 -0.028814 0 0 0 144 143 113
-0.223548 0.075134 0.0130785 0 0 0 13 12 12
-0.11235 0.0787428 0.0138651 0 0 0 98 76 37
-0.182301 0.0744661 -0.0267292 0 0 0 125 97 61
-0.0658185 0.0786915 -0.00772823 0 0 0 129 102 6
-0.11689 0.0792511 -0.00847855 0 0 0 142 134 77
-0.269082 0.0236739 0.0114717 0 0 0 31 14 24
