ply
format ascii 1.0
element vertex 71
property float x
property float y
property float z
property float nx
property float ny
property float nz
property uchar diffuse_red
property uchar diffuse_green
property uchar diffuse_blue
end_header
-0.101937 0.0746105 -0.0586843 0 0 0 220 227 245
-0.0468362 0.0747477 -0.0577142 0 0 0 254 254 254
-0.244495 0.0595001 0.0222062 0 0 0 186 197 191
-0.170221 0.0716082 -0.0607934 0 0 0 220 223 238
-0.259957 0.0588508 -0.0131577 0 0 0 253 251 230
-0.259718 0.0277864 -0.00546733 0 0 0 237 245 101
-0.267278 0.0237296 -0.057851 0 0 0 189 194 189
-0.175292 0.0722571 -0.0604505 0 0 0 217 224 241
-0.259505 0.0557743 -0.0364469 0 0 0 73 79 82
-0.268953 0.0239041 -0.0465722 0 0 0 14 13 10
-0.268229 0.024492 -0.0453319 0 0 0 13 13 14
-0.257417 0.0308513 0.000704043 0 0 0 239 234 92
-0.244075 0.0513362 -0.0541906 0 0 0 160 170 198
-0.139321 0.0775803 -0.0275321 0 0 0 139 129 103
-0.25547 0.035245 0.00371563 0 0 0 234 223 22
-0.222799 0.071487 -0.0343843 0 0 0 53 19 6
-0.259505 0.0557743 -0.0364469 0 0 0 73 79 82
-0.220832 0.06749 -0.0622388 0 0 0 240 241 242
-0.260202 0.0248718 -0.0250387 0 0 0 187 196 175
-0.220702 0.0678076 -0.0644197 0 0 0 240 241 242
-0.141484 0.0781673 -0.0104879 0 0 0 135 128 95
-0.265286 0.0485181 -0.0173491 0 0 0 254 254 232
-0.239417 0.0610069 -0.0498157 0 0 0 93 66 72
-0.158739 0.0771335 0.00200701 0 0 0 130 115 87
-0.125782 0.0744546 -0.049255 0 0 0 53 47 47
-0.238676 0.0657178 -0.0004804 0 0 0 39 36 39
-0.264763 0.0487735 -0.0303072 0 0 0 71 62 63
-0.0369329 0.0754724 -0.0523845 0 0 0 53 87 108
-0.141991 0.0740095 -0.0477716 0 0 0 47 42 35
-0.0786712 0.0794787 0.014102 0 0 0 131 118 69
-0.0968176 0.0794256 0.00575239 0 0 0 19 16 10
-0.146718 0.078419 0.024117 0 0 0 125 111 65
-0.141155 0.0726027 -0.0542379 0 0 0 47 40 32
-0.148706 0.0795953 0.0206151 0 0 0 129 119 73
-0.256985 0.0272332 -0.0482155 0 0 0 46 49 75
-0.21167 0.0690576 -0.058791 0 0 0 246 246 247
-0.203539 0.0691501 -0.0498781 0 0 0 104 43 13
-0.237562 0.0619253 -0.0241956 0 0 0 171 139 45
-0.220175 0.073124 -0.00850387 0 0 0 108 88 79
-0.223155 0.0749224 0.00165029 0 0 0 98 99 77
-0.0791347 0.0788707 -0.0156179 0 0 0 90 8 15
-0.251388 0.0378904 -0.0605477 0 0 0 208 211 211
-0.14175 0.0754923 -0.0303968 0 0 0 138 134 110
-0.112722 0.0764002 -0.0390502 0 0 0 145 144 115
-0.125537 0.0781135 -0.0249532 0 0 0 128 88 64
-0.133936 0.0782546 -0.00789515 0 0 0 141 140 121
-0.0528673 0.0762921 -0.0464613 0 0 0 48 47 52
-0.0232184 0.0802762 -0.0201095 0 0 0 68 65 59
-0.131669 0.079767 0.015503 0 0 0 51 43 52
-0.0242603 0.0791719 -0.0189741 0 0 0 54 54 51
-0.0587798 0.0767039 -0.0210766 0 0 0 115 80 13
-0.1374 0.0775098 -0.0372938 0 0 0 131 123 84
-0.114061 0.0795318 0.0212316 0 0 0 96 93 51
-0.25127 0.0447438 0.0208046 0 0 0 86 90 90
-0.054299 0.0803661 0.00213647 0 0 0 67 13 20
-0.104212 0.0782284 -0.0299093 0 0 0 145 146 116
-0.264607 0.0500606 -0.0116425 0 0 0 254 253 254
-0.0417087 0.078401 -0.0273336 0 0 0 31 17 16
-0.259562 0.0267879 0.023329 0 0 0 46 52 52
-0.233903 0.075963 0.0144106 0 0 0 12 12 9
-0.110811 0.0777643 0.0136816 0 0 0 96 74 36
-0.223443 0.0764409 0.0128453 0 0 0 12 11 12
-0.0281389 0.0804779 -0.0446003 0 0 0 56 53 51
-0.0641072 0.0804622 0.0200913 0 0 0 110 77 2
-0.181481 0.0744768 -0.0270282 0 0 0 124 99 54
-0.27074 0.0253258 0.0124273 0 0 0 15 11 28
-0.116784 0.079426 -0.0073054 0 0 0 139 132 67
-0.116712 0.0796012 -0.00850862 0 0 0 139 134 77
-0.0656476 0.0786415 -0.00764802 0 0 0 126 100 5
-0.193301 0.0760661 -0.0164339 0 0 0 131 128 85
-0.167983 0.0751952 -0.0139039 0 0 0 130 118 66
