ply
format ascii 1.0
element vertex 47
property float x
property float y
property float z
property float nx
property float ny
property float nz
property uchar diffuse_red
property uchar diffuse_green
property uchar diffuse_blue
end_header
-0.0185769 -0.0516194 -0.0597623 0 0 0 240 244 247
-0.15084 -0.0530315 -0.0527561 0 0 0 232 231 234
-0.110082 -0.0521389 -0.0597666 0 0 0 219 221 232
-0.194117 -0.0513895 -0.0543257 0 0 0 217 220 220
-0.133517 -0.0503572 -0.0586025 0 0 0 241 241 242
-0.19994 -0.0440028 0.00839891 0 0 0 108 100 112
-0.234947 -0.00389532 -0.0555424 0 0 0 151 143 125
-0.192103 -0.0395897 -0.0620707 0 0 0 67 94 66
-0.0776913 -0.0397401 -0.066852 0 0 0 67 92 62
-0.133223 -0.023127 -0.0669722 0 0 0 80 86 87
-0.209079 -0.00187649 0.00862434 0 0 0 91 97 108
-0.162901 0.0050483 -0.0490001 0 0 0 97 95 87
-0.230988 -0.0104467 0.0141087 0 0 0 87 92 99
-0.175571 -0.0186697 -0.0648395 0 0 0 71 33 32
-0.226776 -0.0112678 0.0140153 0 0 0 93 96 101
-0.184311 0.00829064 -0.0425531 0 0 0 69 64 57
-0.0780415 -0.00661832 -0.0623707 0 0 0 97 103 95
-0.195331 -0.00939243 -0.0578884 0 0 0 115 116 104
-0.188947 0.00429515 -0.0526559 0 0 0 108 114 103
-0.218613 -0.00991666 -0.0585996 0 0 0 83 82 79
-0.0346863 -0.00720574 -0.06648 0 0 0 63 87 58
-0.191731 -0.0199252 -0.0628658 0 0 0 73 54 25
-0.121894 0.00439903 -0.0550234 0 0 0 80 86 82
-0.22353 -0.0310317 -0.0605198 0 0 0 92 92 69
-0.0170684 -0.0206688 -0.0703383 0 0 0 92 106 64
-0.12391 -0.0391888 -0.0641296 0 0 0 72 91 40
-0.165513 -0.00485296 -0.0576014 0 0 0 80 34 22
-0.0997415 -0.00688683 -0.061796 0 0 0 87 97 88
-0.184133 -0.0248604 -0.0654873 0 0 0 108 100 107
-0.0639292 -0.0339495 -0.0672515 0 0 0 107 122 101
-0.0290709 -0.0383248 -0.0660449 0 0 0 89 116 79
-0.0226579 -0.0359344 -0.0708453 0 0 0 114 119 119
-0.0597128 -0.0130069 -0.0646393 0 0 0 39 33 57
-0.0357006 -0.0397971 -0.0666403 0 0 0 84 116 85
-0.181061 -0.00260505 -0.0572478 0 0 0 73 52 26
-0.0460041 -0.04753 -0.0628414 0 0 0 145 173 178
-0.205698 -0.024962 -0.0650291 0 0 0 102 103 108
-0.0650537 -0.0195263 -0.0671756 0 0 0 29 21 43
-0.0944793 -0.0137189 -0.0651402 0 0 0 56 58 65
-0.190595 -0.0370298 -0.0632876 0 0 0 66 92 45
-0.110406 -0.0122673 -0.0645004 0 0 0 95 103 93
-0.0869431 -0.0220304 -0.0666864 0 0 0 108 113 108
-0.0247896 -0.0253829 -0.0687932 0 0 0 67 100 50
-0.188515 -0.00725726 -0.0616983 0 0 0 71 48 25
-0.11616 -0.0234444 -0.0671958 0 0 0 57 51 58
-0.137375 -0.00357367 -0.0603091 0 0 0 75 82 76
-0.211557 -0.036075 -0.0604462 0 0 0 56 87 48
