ply
format ascii 1.0
element vertex 60
property float x
property float y
property float z
property float nx
property float ny
property float nz
property uchar diffuse_red
property uchar diffuse_green
property uchar diffuse_blue
end_header
-0.211178 -0.0509943 -0.0543223 0 0 0 215 217 218
-0.215338 -0.0550779 -0.00198058 0 0 0 187 204 205
-0.20977 -0.0509529 -0.0543171 0 0 0 215 218 219
-0.0961382 -0.0522924 -0.0568529 0 0 0 226 234 239
-0.0608547 -0.0545579 -0.0543213 0 0 0 247 246 247
-0.0247514 -0.0573676 -0.0498256 0 0 0 253 250 251
-0.128348 -0.0532775 -0.0557275 0 0 0 239 241 244
-0.0431892 -0.0454362 -0.0654867 0 0 0 118 151 143
-0.220522 -0.0446936 0.00732055 0 0 0 81 85 92
-0.209664 -0.025908 0.0170244 0 0 0 88 94 101
-0.191306 -0.0427326 0.0122026 0 0 0 172 176 164
-0.188403 -0.0528189 -0.0533418 0 0 0 218 220 220
-0.236425 -0.018146 -0.0592624 0 0 0 167 203 183
-0.161539 0.0051274 -0.049695 0 0 0 103 92 76
-0.153935 -0.054661 -0.0513632 0 0 0 233 235 239
-0.15151 -0.038037 -0.0633613 0 0 0 59 61 81
-0.0793408 -0.0384752 -0.0666022 0 0 0 68 81 69
-0.168972 -0.0478866 -0.0582018 0 0 0 218 222 221
-0.0407762 0.00584241 -0.0535148 0 0 0 84 106 91
-0.151607 -0.0356884 -0.0629947 0 0 0 54 55 68
-0.196866 0.00233487 -0.0541882 0 0 0 68 51 49
-0.229283 -0.00905675 0.0145549 0 0 0 90 90 95
-0.0809634 -0.00888458 -0.06587 0 0 0 99 106 103
-0.187787 0.00407767 -0.0517679 0 0 0 108 112 102
-0.0380769 -0.0409117 -0.0672993 0 0 0 86 116 78
-0.187923 -6.43272e-05 -0.0563886 0 0 0 83 72 32
-0.199243 -0.00936804 -0.0631137 0 0 0 115 115 110
-0.182832 0.00851848 -0.0448556 0 0 0 89 102 84
-0.227844 -0.0101042 0.0144052 0 0 0 91 93 97
-0.224753 -0.0312117 -0.0625894 0 0 0 93 94 72
-0.119747 0.00456071 -0.0550019 0 0 0 81 85 80
-0.123874 -0.0392298 -0.0643816 0 0 0 74 89 38
-0.193052 -0.02006 -0.064897 0 0 0 74 51 25
-0.168937 -0.0404239 -0.0602446 0 0 0 75 103 73
-0.109125 -0.0060146 -0.0641248 0 0 0 91 96 90
-0.166268 -0.00495311 -0.0589085 0 0 0 79 33 22
-0.183487 -0.0251785 -0.0651816 0 0 0 109 101 108
-0.176263 -0.0188289 -0.0660698 0 0 0 72 34 38
-0.0657267 -0.0300708 -0.066594 0 0 0 85 106 85
-0.125573 -0.0241213 -0.0666518 0 0 0 84 93 88
-0.0583664 -0.0103354 -0.0632369 0 0 0 32 26 43
-0.0597626 -0.0128403 -0.0649641 0 0 0 39 33 57
-0.180476 -0.0114732 -0.0623863 0 0 0 99 96 98
-0.205707 -0.0252794 -0.0655159 0 0 0 103 103 105
-0.159371 -0.00660396 -0.0603774 0 0 0 110 106 9
-0.063959 -0.0325291 -0.0672386 0 0 0 99 109 100
-0.0937979 -0.0137154 -0.0648326 0 0 0 58 60 69
-0.0643282 -0.0194466 -0.0668017 0 0 0 33 22 32
-0.189921 -0.0373744 -0.0629027 0 0 0 66 93 55
-0.111173 -0.0122236 -0.0656133 0 0 0 96 102 94
-0.185177 -0.00391726 -0.0610432 0 0 0 74 53 16
-0.187938 -0.007535 -0.0615125 0 0 0 72 49 26
-0.027122 -0.0249553 -0.0708776 0 0 0 68 98 48
-0.0837594 -0.0244804 -0.0662404 0 0 0 104 111 111
-0.107551 -0.0347642 -0.0647121 0 0 0 113 122 124
-0.115458 -0.0235426 -0.0668436 0 0 0 59 52 59
-0.0226774 -0.0343518 -0.0707415 0 0 0 106 115 88
-0.209642 -0.0331027 -0.0595569 0 0 0 62 53 64
-0.037187 0.00170277 -0.061915 0 0 0 89 107 105
-0.163132 -0.0206459 -0.0638784 0 0 0 91 80 30
