ply
format ascii 1.0
element vertex 51
property float x
property float y
property float z
property float nx
property float ny
property float nz
property uchar diffuse_red
property uchar diffuse_green
property uchar diffuse_blue
end_header
-0.0615095 -0.0534896 -0.056657 0 0 0 245 251 252
-0.210001 -0.0525306 -0.0532206 0 0 0 215 218 215
-0.177086 -0.0529179 -0.0580457 0 0 0 220 222 224
-0.107404 -0.0536288 -0.0558811 0 0 0 217 222 236
-0.110004 -0.0554199 -0.0534521 0 0 0 233 240 246
-0.0924246 -0.0532921 -0.055308 0 0 0 239 242 242
-0.0756695 -0.0298502 -0.0667437 0 0 0 57 55 27
-0.0432277 -0.0346122 -0.0687331 0 0 0 73 106 61
-0.204145 -0.0041246 0.0092087 0 0 0 95 107 113
-0.162576 0.00520751 -0.0503915 0 0 0 99 96 72
-0.0809155 -0.0389659 -0.0681836 0 0 0 67 80 73
-0.230399 -0.0121257 0.0148958 0 0 0 87 92 94
-0.227346 -0.0116563 0.0132851 0 0 0 92 95 100
-0.123891 0.00336628 -0.0555154 0 0 0 81 84 81
-0.0804616 -0.00958586 -0.0652856 0 0 0 99 105 103
-0.186211 0.00565368 -0.0435366 0 0 0 43 34 49
-0.200119 -0.0105345 -0.0641426 0 0 0 116 115 106
-0.189383 0.00290376 -0.0534897 0 0 0 108 113 104
-0.198494 -0.00128255 -0.0547354 0 0 0 56 46 50
-0.18676 -0.00111965 -0.0566056 0 0 0 76 49 44
-0.166529 -0.00603602 -0.0590959 0 0 0 80 34 20
-0.193289 -0.0201205 -0.0650156 0 0 0 72 51 20
-0.122514 -0.0414787 -0.0634628 0 0 0 76 89 55
-0.105422 -0.00778585 -0.0640734 0 0 0 91 98 94
-0.220894 -0.0290719 -0.0623538 0 0 0 82 72 55
-0.183648 -0.0263075 -0.0654921 0 0 0 108 100 109
-0.175791 -0.0199795 -0.065588 0 0 0 71 34 33
-0.21044 -0.0411574 0.00849673 0 0 0 82 85 90
-0.0212362 -0.0348696 -0.0696181 0 0 0 107 114 86
-0.180048 -0.0126492 -0.0618664 0 0 0 101 99 97
-0.0585992 -0.0109107 -0.0633061 0 0 0 34 29 51
-0.205679 -0.00805548 0.0103132 0 0 0 122 123 120
-0.205867 -0.0265068 -0.0658567 0 0 0 101 104 108
-0.0599818 -0.0134133 -0.0650476 0 0 0 41 34 50
-0.0249883 -0.00400703 -0.0665742 0 0 0 56 85 26
-0.065264 -0.019979 -0.0675874 0 0 0 33 22 45
-0.187938 -0.0385588 -0.0625477 0 0 0 66 93 49
-0.0640864 -0.0331093 -0.0674251 0 0 0 101 110 97
-0.0940131 -0.0144423 -0.0649661 0 0 0 58 62 65
-0.207104 -0.0168019 -0.0634949 0 0 0 47 22 7
-0.111394 -0.013025 -0.0657627 0 0 0 95 101 100
-0.0348748 -0.0385023 -0.0676425 0 0 0 82 112 81
-0.184737 -0.00623699 -0.060668 0 0 0 78 51 30
-0.0265031 -0.0254094 -0.070342 0 0 0 73 101 48
-0.162096 -0.04077 -0.0632719 0 0 0 86 101 82
-0.115626 -0.0243569 -0.0670547 0 0 0 58 51 59
-0.0839242 -0.0251549 -0.0664137 0 0 0 106 110 104
-0.145864 -0.0062231 -0.0629141 0 0 0 90 112 91
-0.188833 -0.00866227 -0.0625082 0 0 0 73 48 26
-0.107671 -0.0355532 -0.0649681 0 0 0 115 122 120
-0.217443 -0.0230997 -0.0637378 0 0 0 56 40 37
