ply
format ascii 1.0
element vertex 61
property float x
property float y
property float z
property float nx
property float ny
property float nz
property uchar diffuse_red
property uchar diffuse_green
property uchar diffuse_blue
end_header
-0.20434 -0.051174 -0.0510221 0 0 0 215 219 221
-0.210445 -0.050922 -0.0533752 0 0 0 215 217 216
-0.153571 -0.0517357 -0.0540071 0 0 0 234 234 237
-0.183638 -0.024155 0.0143402 0 0 0 198 222 176
-0.10819 -0.0506149 -0.0613229 0 0 0 235 244 247
-0.195548 -0.041037 -0.0615383 0 0 0 64 91 59
-0.0914105 -0.0512769 -0.055555 0 0 0 242 245 248
-0.169143 -0.0482886 -0.0620824 0 0 0 224 228 226
-0.223488 -0.0442004 0.00936654 0 0 0 85 89 108
-0.0655947 -0.0289831 -0.0660926 0 0 0 80 105 78
-0.235289 -0.0060398 -0.056837 0 0 0 162 168 146
-0.23533 -0.00497577 -0.056662 0 0 0 153 150 132
-0.213027 -0.00760972 0.0119297 0 0 0 97 101 111
-0.235769 -0.00917806 -0.0581757 0 0 0 195 200 174
-0.140535 -0.0246125 -0.0681277 0 0 0 79 85 86
-0.228978 0.00683262 -0.00439385 0 0 0 92 99 106
-0.123386 -0.0528815 -0.0576218 0 0 0 205 220 238
-0.151444 -0.0356234 -0.0627258 0 0 0 50 51 67
-0.0782875 -0.038442 -0.0672688 0 0 0 67 91 71
-0.230627 -0.0108715 0.0165169 0 0 0 88 91 102
-0.0800209 -0.00781833 -0.0645179 0 0 0 95 104 95
-0.122418 0.00435529 -0.0556975 0 0 0 82 86 78
-0.181872 0.00851658 -0.0434394 0 0 0 89 100 86
-0.203102 0.00109487 0.00723674 0 0 0 87 93 104
-0.0162499 -0.000912239 -0.0640291 0 0 0 61 84 36
-0.188773 0.004227 -0.0527095 0 0 0 109 114 103
-0.198991 -0.00914301 -0.0626144 0 0 0 118 114 105
-0.186792 -0.000899405 -0.0567971 0 0 0 77 50 36
-0.184401 0.00745711 -0.046728 0 0 0 96 104 90
-0.197166 0.00139299 -0.0545575 0 0 0 72 58 67
-0.0429283 0.00531092 -0.0533208 0 0 0 88 102 82
-0.0426431 0.00288049 -0.055347 0 0 0 99 117 115
-0.192191 -0.01991 -0.0637216 0 0 0 73 54 17
-0.122974 -0.0405507 -0.0636432 0 0 0 76 89 48
-0.107274 -0.00595065 -0.0637901 0 0 0 91 98 89
-0.0427426 -0.0396256 -0.069178 0 0 0 84 113 82
-0.166 -0.00487363 -0.0583825 0 0 0 81 36 25
-0.183288 -0.0249888 -0.0648169 0 0 0 109 100 107
-0.175381 -0.0187225 -0.064905 0 0 0 71 31 37
-0.0574653 -0.00803911 -0.0616985 0 0 0 32 22 33
-0.0225123 -0.0346561 -0.0704985 0 0 0 106 116 76
-0.0622886 -0.0328816 -0.0656481 0 0 0 96 110 96
-0.0565654 -0.0119718 -0.0616764 0 0 0 35 33 45
-0.205509 -0.0250123 -0.0651456 0 0 0 96 105 105
-0.180231 -0.0113171 -0.0619098 0 0 0 101 96 93
-0.0641116 -0.019644 -0.0664241 0 0 0 34 21 37
-0.190409 -0.0370835 -0.063399 0 0 0 67 93 53
-0.110932 -0.0122737 -0.0651628 0 0 0 96 100 99
-0.145342 -0.00521056 -0.0622353 0 0 0 90 110 96
-0.220118 -0.0441773 0.0102388 0 0 0 80 86 93
-0.0935615 -0.0138302 -0.0643994 0 0 0 58 63 68
-0.188329 -0.00731328 -0.0617667 0 0 0 73 48 27
-0.0844382 -0.0207821 -0.0659547 0 0 0 102 109 107
-0.154839 -0.00404232 -0.0581667 0 0 0 75 77 17
-0.210678 -0.0337822 -0.0609981 0 0 0 60 73 47
-0.115967 -0.0234984 -0.0671838 0 0 0 57 52 55
-0.184863 -0.0048827 -0.0606885 0 0 0 78 49 34
-0.0599005 -0.0274345 -0.0659576 0 0 0 92 110 93
-0.110403 -0.0347511 -0.0656655 0 0 0 110 121 112
-0.0261486 -0.0253098 -0.0699222 0 0 0 71 100 48
-0.149043 -0.0103213 -0.0619817 0 0 0 60 56 41
