ply
format ascii 1.0
element vertex 53
property float x
property float y
property float z
property float nx
property float ny
property float nz
property uchar diffuse_red
property uchar diffuse_green
property uchar diffuse_blue
end_header
-0.209649 -0.052242 -0.0524773 0 0 0 213 215 215
-0.152493 -0.05237 -0.0547268 0 0 0 232 232 238
-0.108913 -0.0528361 -0.0589641 0 0 0 219 221 233
-0.154007 -0.0524341 -0.0546278 0 0 0 231 232 237
-0.0407891 -0.0396093 -0.0694089 0 0 0 84 116 78
-0.191618 -0.0537476 -0.053785 0 0 0 217 217 222
-0.220668 -0.0449312 0.00950577 0 0 0 78 86 93
-0.192126 -0.0437707 -0.0650069 0 0 0 86 114 100
-0.148481 -0.0353391 -0.0611716 0 0 0 50 51 61
-0.237277 -0.0233241 -0.0612245 0 0 0 119 124 171
-0.0750045 -0.0375571 -0.0659172 0 0 0 71 93 67
-0.229302 0.00590565 -0.00461522 0 0 0 91 97 104
-0.21389 -0.00711956 0.0111552 0 0 0 96 101 110
-0.164288 0.0054248 -0.0505801 0 0 0 84 89 64
-0.132174 -0.0482499 -0.0605802 0 0 0 197 222 240
-0.185019 0.00736571 -0.04363 0 0 0 65 63 56
-0.0415844 0.00333083 -0.0580791 0 0 0 77 91 89
-0.229745 -0.0148338 -0.0636239 0 0 0 17 7 19
-0.13692 -0.0460728 -0.0598108 0 0 0 117 123 164
-0.198438 -0.0103025 -0.0620013 0 0 0 112 110 99
-0.190246 0.00330568 -0.0544979 0 0 0 101 105 96
-0.0407891 -0.0396093 -0.0694089 0 0 0 84 116 78
-0.222645 -0.0335665 -0.0600644 0 0 0 86 85 47
-0.0312697 -0.00581466 -0.0652751 0 0 0 52 78 47
-0.204592 -0.0099235 0.0114135 0 0 0 113 121 122
-0.0935409 0.002414 -0.0540753 0 0 0 85 90 76
-0.0787165 -0.0043673 -0.0627214 0 0 0 95 99 89
-0.124183 -0.0410099 -0.0650137 0 0 0 76 91 67
-0.183247 -0.0260345 -0.0648799 0 0 0 108 100 116
-0.0628484 -0.0330136 -0.0663045 0 0 0 96 109 98
-0.0802968 -0.00578661 -0.0627067 0 0 0 94 99 91
-0.186986 -0.000748568 -0.0568281 0 0 0 75 48 37
-0.19284 -0.0209439 -0.064583 0 0 0 76 48 30
-0.166761 -0.00568967 -0.0593163 0 0 0 80 31 25
-0.0621831 -0.00687763 -0.0640513 0 0 0 22 18 19
-0.0862845 -0.0420648 -0.0649856 0 0 0 93 101 72
-0.0979733 -0.00720751 -0.0620867 0 0 0 78 85 77
-0.216387 -0.0458905 0.0093427 0 0 0 78 85 86
-0.208761 0.000385961 -0.0546245 0 0 0 71 60 41
-0.0609751 -0.0131342 -0.0659768 0 0 0 39 29 57
-0.200515 -0.0423687 0.0079309 0 0 0 82 84 84
-0.206121 -0.0261488 -0.0659866 0 0 0 103 102 107
-0.0655129 -0.019744 -0.0678305 0 0 0 32 16 43
-0.0847014 0.00321567 -0.0543763 0 0 0 95 100 94
-0.207348 -0.0164354 -0.0636546 0 0 0 47 24 7
-0.191584 -0.0380137 -0.064912 0 0 0 64 90 50
-0.0881188 -0.0223425 -0.0680587 0 0 0 105 114 113
-0.111636 -0.0127456 -0.0659973 0 0 0 92 99 95
-0.0942556 -0.014175 -0.0652077 0 0 0 55 60 64
-0.18842 -0.00834645 -0.0619394 0 0 0 71 45 24
-0.0260932 -0.0268527 -0.0685944 0 0 0 71 100 53
-0.110078 -0.0350458 -0.067218 0 0 0 115 118 117
-0.18497 -0.00588037 -0.0608757 0 0 0 75 47 34
