ply
format ascii 1.0
element vertex 55
property float x
property float y
property float z
property float nx
property float ny
property float nz
property uchar diffuse_red
property uchar diffuse_green
property uchar diffuse_blue
end_header
-0.151462 -0.052173 -0.0530635 0 0 0 234 234 239
-0.191945 -0.0520705 -0.0532529 0 0 0 218 220 219
-0.0323214 -0.0382735 -0.0671053 0 0 0 83 112 81
-0.185265 -0.0267025 0.0118586 0 0 0 193 209 169
-0.192676 -0.0412294 -0.0627013 0 0 0 68 93 61
-0.211705 -0.0252213 0.014689 0 0 0 89 93 99
-0.143188 -0.024085 -0.0668029 0 0 0 78 86 89
-0.070671 -0.0278785 -0.0668174 0 0 0 52 50 62
-0.130979 -0.0478126 -0.0605882 0 0 0 196 226 240
-0.16568 0.0046506 -0.0518431 0 0 0 97 93 91
-0.223849 -0.000265016 0.00855329 0 0 0 91 96 99
-0.184421 0.00773647 -0.0423435 0 0 0 70 65 45
-0.121209 0.00545554 -0.0556273 0 0 0 82 86 81
-0.0393158 0.00215158 -0.0580017 0 0 0 85 101 73
-0.0201579 -0.0358719 -0.0706547 0 0 0 135 140 132
-0.189067 0.00370543 -0.0524278 0 0 0 109 114 103
-0.199914 -0.00968855 -0.0630233 0 0 0 115 116 103
-0.195428 0.00205747 -0.0532919 0 0 0 97 86 70
-0.174161 -0.0191266 -0.0646626 0 0 0 64 34 50
-0.0781442 -0.00679645 -0.0623998 0 0 0 96 102 97
-0.0341339 -0.00461599 -0.0655485 0 0 0 49 82 55
-0.203193 -0.00971825 0.013567 0 0 0 114 119 123
-0.208237 0.000866946 -0.0532456 0 0 0 74 67 40
-0.218737 -0.00954623 -0.0580975 0 0 0 82 83 69
-0.187881 -0.00158796 -0.0557084 0 0 0 80 66 49
-0.165658 -0.00420433 -0.0572289 0 0 0 71 35 22
-0.0913938 0.00269447 -0.0534499 0 0 0 93 98 81
-0.12389 -0.039547 -0.0639877 0 0 0 70 90 47
-0.193081 -0.0204144 -0.0641155 0 0 0 74 52 26
-0.0609775 -0.00685514 -0.062748 0 0 0 20 19 21
-0.0624881 -0.0329454 -0.0657455 0 0 0 100 109 97
-0.183514 -0.025526 -0.0644664 0 0 0 108 101 112
-0.221517 -0.0282999 -0.0603571 0 0 0 80 81 64
-0.0598501 -0.0118285 -0.0644945 0 0 0 35 31 49
-0.181166 -0.00317228 -0.0570273 0 0 0 72 54 22
-0.205735 -0.0256378 -0.0647082 0 0 0 103 103 96
-0.0818982 -0.0349844 -0.0662227 0 0 0 55 41 53
-0.20692 -0.0159286 -0.0623381 0 0 0 46 23 10
-0.0938307 -0.0140134 -0.0644336 0 0 0 56 61 64
-0.0651186 -0.0196626 -0.0672145 0 0 0 31 23 44
-0.11121 -0.0125275 -0.0651339 0 0 0 96 101 95
-0.0858401 -0.0404007 -0.0657046 0 0 0 74 93 92
-0.180499 -0.0118334 -0.0616134 0 0 0 100 99 95
-0.188485 -0.0376682 -0.0622591 0 0 0 67 94 53
-0.187959 -0.00790403 -0.0606882 0 0 0 74 48 25
-0.0877333 -0.0221903 -0.0673414 0 0 0 105 116 116
-0.0461544 -0.039564 -0.0703304 0 0 0 84 114 80
-0.0248362 -0.0253664 -0.0689222 0 0 0 69 100 46
-0.13902 -0.00411392 -0.0600745 0 0 0 74 82 70
-0.0837922 -0.0247652 -0.0659385 0 0 0 106 109 109
-0.109009 -0.034909 -0.0657452 0 0 0 110 122 126
-0.0566745 -0.0298368 -0.0670185 0 0 0 96 111 99
-0.184496 -0.00545221 -0.059633 0 0 0 76 51 35
-0.210854 -0.0344151 -0.0605135 0 0 0 60 73 49
-0.0388187 -0.0381759 -0.0690585 0 0 0 82 113 79
