ply
format ascii 1.0
element vertex 60
property float x
property float y
property float z
property float nx
property float ny
property float nz
property uchar diffuse_red
property uchar diffuse_green
property uchar diffuse_blue
end_header
-0.198653 -0.0521964 -0.0551223 0 0 0 219 220 222
-0.154415 -0.0525495 -0.0570637 0 0 0 233 233 238
-0.154415 -0.0525495 -0.0570637 0 0 0 233 233 238
-0.104095 -0.0515939 -0.0593125 0 0 0 232 242 245
-0.0917002 -0.0529608 -0.05629 0 0 0 245 244 245
-0.217276 -0.0477154 0.00968071 0 0 0 82 86 96
-0.183567 -0.0271809 0.0119156 0 0 0 141 154 174
-0.151249 -0.0343668 -0.0641266 0 0 0 43 50 54
-0.213617 -0.0248911 0.013979 0 0 0 88 92 102
-0.129748 -0.0238536 -0.0690953 0 0 0 79 89 87
-0.212528 -0.0072257 0.00895956 0 0 0 98 100 112
-0.230797 0.00529822 -0.00695184 0 0 0 92 98 104
-0.236701 -0.000460593 -0.0499901 0 0 0 92 94 102
-0.12979 -0.0498613 -0.0602741 0 0 0 237 241 246
-0.0771879 -0.037458 -0.0679474 0 0 0 72 91 58
-0.186258 -0.0264797 0.0147006 0 0 0 104 109 128
-0.151106 -0.0404869 -0.0634618 0 0 0 59 66 76
-0.163808 0.00372926 -0.0504765 0 0 0 99 93 87
-0.235981 -0.00916872 -0.0601344 0 0 0 140 166 175
-0.200638 -0.0427579 0.00763436 0 0 0 84 84 87
-0.230395 -0.016808 -0.065113 0 0 0 20 6 11
-0.18447 0.00693685 -0.0449758 0 0 0 86 97 81
-0.0385777 0.00361615 -0.0572007 0 0 0 75 85 75
-0.208964 -0.000400633 -0.0551802 0 0 0 74 66 17
-0.124394 0.00457932 -0.0559748 0 0 0 80 86 88
-0.200478 -0.01097 -0.0648021 0 0 0 117 116 111
-0.124332 0.00336353 -0.0561597 0 0 0 80 85 87
-0.189825 0.00261122 -0.0542482 0 0 0 108 114 105
-0.223926 -0.0332275 -0.0618975 0 0 0 92 94 76
-0.0780745 -0.00576987 -0.0624446 0 0 0 95 103 92
-0.187178 -0.00142695 -0.0573239 0 0 0 78 49 37
-0.0923202 0.00224745 -0.0529645 0 0 0 89 94 82
-0.192958 -0.0205813 -0.0648099 0 0 0 71 52 21
-0.124195 -0.0401751 -0.0649449 0 0 0 71 90 38
-0.215355 -0.0465357 0.0107088 0 0 0 80 85 89
-0.0628408 -0.0330569 -0.0663141 0 0 0 98 109 93
-0.061577 -0.00692898 -0.0635393 0 0 0 20 23 22
-0.16692 -0.00626989 -0.0597346 0 0 0 81 37 29
-0.10182 -0.0087358 -0.0644209 0 0 0 88 99 90
-0.206126 -0.00906047 0.00943711 0 0 0 117 124 119
-0.136062 -0.0451163 -0.0605911 0 0 0 76 87 124
-0.231429 -0.0180231 0.0141257 0 0 0 86 90 100
-0.206149 -0.0269836 -0.0663866 0 0 0 103 105 104
-0.135268 -0.0437433 -0.0612532 0 0 0 86 95 92
-0.094354 -0.0143867 -0.0654002 0 0 0 56 56 68
-0.188815 -0.0388416 -0.0637042 0 0 0 65 93 54
-0.206861 -0.0162103 -0.0631616 0 0 0 56 28 12
-0.188321 -0.0294493 -0.0646822 0 0 0 111 105 108
-0.111026 -0.0130922 -0.0655399 0 0 0 94 102 94
-0.0655746 -0.019811 -0.067921 0 0 0 32 22 45
-0.0850747 -0.0224985 -0.0670321 0 0 0 103 111 118
-0.188557 -0.00906116 -0.062396 0 0 0 73 48 26
-0.115917 -0.0244205 -0.0674408 0 0 0 58 53 54
-0.185181 -0.00544075 -0.0611659 0 0 0 72 53 37
-0.0261827 -0.0253715 -0.0683452 0 0 0 69 99 43
-0.153471 -0.0141201 -0.0641223 0 0 0 43 55 22
-0.162249 -0.0195215 -0.0643537 0 0 0 111 89 45
-0.164649 -0.0149785 -0.0643247 0 0 0 100 94 37
-0.13897 -0.00486348 -0.0607325 0 0 0 75 83 81
-0.209975 -0.0359213 -0.0605774 0 0 0 59 74 54
