ply
format ascii 1.0
element vertex 52
property float x
property float y
property float z
property float nx
property float ny
property float nz
property uchar diffuse_red
property uchar diffuse_green
property uchar diffuse_blue
end_header
-0.210484 -0.0514987 -0.0533409 0 0 0 216 218 219
-0.103331 -0.0545135 -0.055401 0 0 0 211 222 234
-0.153064 -0.0537832 -0.0519355 0 0 0 231 232 237
-0.106766 -0.0524152 -0.060236 0 0 0 226 230 237
-0.191223 -0.0533266 -0.0531297 0 0 0 219 220 219
-0.192853 -0.0428382 -0.0601802 0 0 0 76 104 47
-0.0664446 -0.0291537 -0.0668581 0 0 0 82 104 74
-0.168738 -0.0480003 -0.0596015 0 0 0 217 223 221
-0.213263 -0.0244458 0.0145173 0 0 0 88 93 98
-0.237258 -0.00989947 -0.0580887 0 0 0 167 167 122
-0.136231 -0.0237714 -0.0667394 0 0 0 80 87 89
-0.183824 -0.0275235 0.0156663 0 0 0 179 187 170
-0.21106 -0.00282289 0.00782969 0 0 0 93 95 107
-0.162765 0.00585224 -0.0503102 0 0 0 99 98 83
-0.14806 -0.0338883 -0.0602611 0 0 0 45 47 53
-0.189731 0.0035296 -0.0517929 0 0 0 108 111 100
-0.187847 0.00457796 -0.0492807 0 0 0 104 106 87
-0.154249 0.00615372 -0.0460506 0 0 0 105 114 108
-0.0792696 -0.0388953 -0.0664834 0 0 0 67 84 72
-0.199771 -0.00962489 -0.0632828 0 0 0 117 117 104
-0.151433 -0.0384009 -0.0631257 0 0 0 57 59 79
-0.229832 -0.0114627 0.0158343 0 0 0 86 92 98
-0.228126 -0.0122884 0.0139922 0 0 0 89 94 101
-0.0801651 -0.00809623 -0.0645606 0 0 0 95 103 98
-0.121875 0.00394344 -0.0549474 0 0 0 80 85 81
-0.222934 -0.0330993 -0.058404 0 0 0 82 82 64
-0.198066 -0.000432621 -0.0538315 0 0 0 60 44 41
-0.192352 -0.0193129 -0.0634615 0 0 0 71 51 20
-0.208057 -0.00020739 -0.0536566 0 0 0 81 71 28
-0.123097 -0.0397114 -0.0634966 0 0 0 73 90 41
-0.165521 -0.00423331 -0.0573705 0 0 0 71 36 21
-0.186292 -0.00145633 -0.0559233 0 0 0 75 50 43
-0.10506 -0.00742005 -0.0634759 0 0 0 90 99 93
-0.0576056 -0.00827497 -0.0617702 0 0 0 28 22 47
-0.0582028 -0.01211 -0.0630776 0 0 0 39 29 45
-0.175503 -0.0192015 -0.0648494 0 0 0 71 37 34
-0.0638812 -0.0329621 -0.0670827 0 0 0 100 110 100
-0.179564 -0.00304747 -0.0572453 0 0 0 67 50 23
-0.204981 -0.0256341 -0.0642892 0 0 0 104 102 106
-0.179707 -0.0118668 -0.0610765 0 0 0 101 96 96
-0.190489 -0.0375974 -0.0633619 0 0 0 66 94 53
-0.0936928 -0.014137 -0.0644373 0 0 0 58 58 62
-0.0649838 -0.0198246 -0.067172 0 0 0 34 20 36
-0.111067 -0.0126158 -0.0651755 0 0 0 95 101 99
-0.183441 -0.0243593 -0.0645765 0 0 0 111 111 108
-0.0247076 -0.0255935 -0.0688034 0 0 0 69 100 41
-0.0838211 -0.0211291 -0.0653427 0 0 0 102 111 102
-0.187214 -0.00679879 -0.0599556 0 0 0 79 47 25
-0.08367 -0.0248994 -0.0659712 0 0 0 104 111 105
-0.210136 -0.0344384 -0.060146 0 0 0 60 75 42
-0.139887 -0.0426944 -0.063964 0 0 0 81 91 89
-0.108905 -0.0349978 -0.0658959 0 0 0 115 119 122
