ply
format ascii 1.0
element vertex 58
property float x
property float y
property float z
property float nx
property float ny
property float nz
property uchar diffuse_red
property uchar diffuse_green
property uchar diffuse_blue
end_header
-0.197695 -0.0513381 -0.0554193 0 0 0 218 221 220
-0.109908 -0.0536524 -0.0546583 0 0 0 213 222 240
-0.215248 -0.054289 0.000591542 0 0 0 166 172 180
-0.154609 -0.0526624 -0.0535254 0 0 0 232 235 239
-0.153766 -0.0524909 -0.0543601 0 0 0 233 233 238
-0.0439989 -0.0344041 -0.0692482 0 0 0 71 104 67
-0.0650706 -0.0277446 -0.0671283 0 0 0 87 91 92
-0.212977 -0.0287773 0.0183547 0 0 0 89 92 103
-0.18457 -0.0457598 -0.0580809 0 0 0 123 148 155
-0.206315 -0.00521051 0.0100215 0 0 0 110 114 120
-0.150271 -0.0351403 -0.0630537 0 0 0 50 51 66
-0.151523 -0.0410956 -0.0638962 0 0 0 77 82 73
-0.0794551 -0.0389427 -0.0666909 0 0 0 68 83 67
-0.231181 -0.0118344 0.0158912 0 0 0 88 93 99
-0.161146 0.00431003 -0.0489393 0 0 0 103 93 76
-0.184754 0.00729918 -0.043242 0 0 0 69 67 39
-0.156467 0.00495503 -0.0507498 0 0 0 104 110 86
-0.189337 0.00324442 -0.0533456 0 0 0 109 111 103
-0.0406162 0.00453488 -0.0567852 0 0 0 74 86 90
-0.198175 -0.0103227 -0.0616561 0 0 0 116 115 105
-0.195689 0.00157869 -0.0542407 0 0 0 95 87 73
-0.12228 0.00377726 -0.0555331 0 0 0 80 86 83
-0.0353165 -0.00355275 -0.0645109 0 0 0 72 92 64
-0.0916575 0.00249005 -0.0538604 0 0 0 93 97 82
-0.0790742 -0.00694234 -0.0634077 0 0 0 94 103 97
-0.128244 -0.0497405 -0.0584821 0 0 0 235 241 245
-0.136674 -0.0461262 -0.0595236 0 0 0 120 125 163
-0.223055 -0.0324127 -0.0604018 0 0 0 94 92 69
-0.197137 -0.041518 0.0108412 0 0 0 73 84 96
-0.192581 -0.0209611 -0.0642592 0 0 0 73 53 23
-0.166497 -0.00573048 -0.0589508 0 0 0 79 33 23
-0.123988 -0.039849 -0.0645178 0 0 0 69 92 50
-0.0721362 -0.0427053 -0.0659689 0 0 0 44 79 21
-0.216163 -0.0460578 0.00960436 0 0 0 81 85 92
-0.103798 -0.00742183 -0.0641189 0 0 0 90 97 92
-0.135764 -0.043287 -0.0615482 0 0 0 86 93 90
-0.0611684 -0.00698985 -0.0629898 0 0 0 19 24 15
-0.183644 -0.0259859 -0.0653215 0 0 0 108 100 106
-0.175779 -0.0196682 -0.0654261 0 0 0 72 34 34
-0.0585164 -0.012043 -0.0633999 0 0 0 36 34 51
-0.205864 -0.0261567 -0.0656784 0 0 0 89 103 108
-0.181394 -0.00361766 -0.0578961 0 0 0 71 53 25
-0.0648403 -0.0328736 -0.0679498 0 0 0 96 109 98
-0.180025 -0.0123287 -0.0617103 0 0 0 97 96 98
-0.0939934 -0.0142366 -0.0648373 0 0 0 56 58 67
-0.207087 -0.0164479 -0.0633256 0 0 0 48 26 8
-0.0264995 -0.0252966 -0.0702253 0 0 0 69 100 43
-0.111372 -0.0127975 -0.0656294 0 0 0 97 100 95
-0.187949 -0.0382288 -0.0623637 0 0 0 66 93 55
-0.0675838 -0.029332 -0.066192 0 0 0 73 74 85
-0.188206 -0.0072488 -0.0614069 0 0 0 78 46 18
-0.208085 -0.0291783 0.0147801 0 0 0 89 94 108
-0.0848227 -0.0211349 -0.0663513 0 0 0 103 110 110
-0.218347 -0.0161775 -0.0633105 0 0 0 56 53 38
-0.0227413 -0.035956 -0.0709709 0 0 0 116 122 104
-0.116332 -0.0240635 -0.067609 0 0 0 63 50 60
-0.210356 -0.0350295 -0.0607154 0 0 0 59 73 49
-0.110696 -0.0352729 -0.0660357 0 0 0 113 120 115
