ply
format ascii 1.0
element vertex 46
property float x
property float y
property float z
property float nx
property float ny
property float nz
property uchar diffuse_red
property uchar diffuse_green
property uchar diffuse_blue
end_header
-0.209703 -0.0493169 -0.0528189 0 0 0 214 218 220
-0.153405 -0.0511939 -0.0543085 0 0 0 233 233 238
-0.230027 -0.0462974 0.0109229 0 0 0 171 183 198
-0.107474 -0.0505466 -0.0592793 0 0 0 227 232 238
-0.192365 -0.0389945 -0.0633801 0 0 0 67 94 72
-0.0912411 -0.0508165 -0.0557434 0 0 0 242 246 249
-0.190257 -0.0509053 -0.0541203 0 0 0 218 220 219
-0.137433 -0.0230121 -0.0670141 0 0 0 80 87 80
-0.203337 -0.00319835 0.00918599 0 0 0 101 115 103
-0.0782477 -0.0383126 -0.0659265 0 0 0 67 83 69
-0.0398138 0.004951 -0.0566803 0 0 0 73 87 81
-0.0813296 0.0052849 -0.0531987 0 0 0 100 106 96
-0.229988 -0.00997097 0.0167511 0 0 0 87 90 99
-0.184572 0.00885603 -0.0439999 0 0 0 68 67 58
-0.188542 0.00481615 -0.0533262 0 0 0 111 113 103
-0.199396 -0.00853681 -0.0639657 0 0 0 115 115 107
-0.123791 0.00591994 -0.0558609 0 0 0 81 87 82
-0.0776192 -0.00626797 -0.062645 0 0 0 97 102 92
-0.0197862 -0.0343126 -0.0703121 0 0 0 128 112 94
-0.183249 0.00196251 -0.0547447 0 0 0 78 51 28
-0.175155 -0.0182037 -0.0653942 0 0 0 72 34 35
-0.123523 -0.0387858 -0.0644516 0 0 0 71 92 35
-0.192613 -0.0192991 -0.0650039 0 0 0 74 52 30
-0.165769 -0.00433704 -0.0589163 0 0 0 80 37 25
-0.0604513 -0.00641512 -0.0628942 0 0 0 20 20 21
-0.18307 -0.0244601 -0.0652927 0 0 0 108 102 108
-0.0978801 -0.00658835 -0.0607526 0 0 0 86 96 85
-0.0286774 -0.0380477 -0.0660602 0 0 0 89 116 84
-0.0377791 -0.0395275 -0.0670293 0 0 0 84 115 81
-0.221035 -0.0246414 -0.0626097 0 0 0 86 69 51
-0.180001 -0.0107792 -0.0624411 0 0 0 99 98 89
-0.20529 -0.0244584 -0.0656624 0 0 0 103 103 106
-0.0620785 -0.0325014 -0.0658648 0 0 0 95 110 93
-0.20648 -0.0136431 -0.0631371 0 0 0 55 27 21
-0.0933306 -0.0134072 -0.0647592 0 0 0 54 60 63
-0.190852 -0.0364446 -0.0645981 0 0 0 67 91 49
-0.184019 -0.00324612 -0.0603121 0 0 0 77 51 29
-0.110697 -0.0118333 -0.0655617 0 0 0 97 101 93
-0.188095 -0.00676505 -0.0623309 0 0 0 74 47 27
-0.0842129 -0.0203768 -0.0662665 0 0 0 103 110 107
-0.136955 -0.00314183 -0.0607864 0 0 0 75 83 75
-0.0833389 -0.0242124 -0.0661917 0 0 0 106 111 108
-0.0604332 -0.0269897 -0.0668548 0 0 0 95 110 98
-0.108608 -0.0342265 -0.0661297 0 0 0 113 121 114
-0.209854 -0.033295 -0.0607002 0 0 0 59 76 43
-0.0268201 -0.0265066 -0.0693825 0 0 0 70 101 47
