ply
format ascii 1.0
element vertex 55
property float x
property float y
property float z
property float nx
property float ny
property float nz
property uchar diffuse_red
property uchar diffuse_green
property uchar diffuse_blue
end_header
-0.151282 -0.05151 -0.0533796 0 0 0 231 232 235
-0.108924 -0.051777 -0.0606887 0 0 0 222 224 228
-0.154807 -0.0512215 -0.0554857 0 0 0 231 232 236
-0.191128 -0.0513501 -0.0529319 0 0 0 218 220 221
-0.0898214 -0.0525021 -0.0544329 0 0 0 243 242 242
-0.230217 -0.0463453 0.0088903 0 0 0 147 157 184
-0.213236 -0.0270395 0.0154816 0 0 0 90 93 101
-0.193856 -0.0404393 -0.0631242 0 0 0 65 93 55
-0.0662854 -0.0274141 -0.0666716 0 0 0 74 76 79
-0.20762 -0.00280272 0.00990357 0 0 0 99 101 105
-0.13601 -0.0231354 -0.066831 0 0 0 80 87 87
-0.0905882 -0.0272583 -0.06628 0 0 0 101 109 102
-0.127072 -0.0487002 -0.0590358 0 0 0 219 239 242
-0.134798 -0.04513 -0.059329 0 0 0 116 124 160
-0.162602 0.00527687 -0.0491723 0 0 0 97 92 86
-0.11784 0.00731453 -0.0543467 0 0 0 81 85 79
-0.0393995 0.00588449 -0.0541074 0 0 0 78 97 86
-0.184656 0.00855817 -0.0435242 0 0 0 74 68 61
-0.175228 -0.0195931 -0.065172 0 0 0 78 52 40
-0.19565 0.00294067 -0.0545116 0 0 0 95 85 68
-0.226579 -0.00974996 0.0140049 0 0 0 93 97 97
-0.199516 -0.0088119 -0.0634832 0 0 0 113 116 109
-0.0822907 -0.0357976 -0.0671815 0 0 0 34 35 50
-0.188646 0.00453122 -0.0528475 0 0 0 109 112 99
-0.0399268 0.00478862 -0.0565693 0 0 0 71 88 90
-0.187515 0.000362189 -0.0559436 0 0 0 85 75 40
-0.0329379 -0.0044951 -0.06482 0 0 0 45 82 55
-0.0805147 -0.000439285 -0.0603263 0 0 0 67 88 82
-0.192727 -0.019567 -0.0645567 0 0 0 77 48 25
-0.123621 -0.0390004 -0.0642089 0 0 0 73 89 74
-0.16588 -0.00459443 -0.0585098 0 0 0 79 33 24
-0.0606192 -0.00529315 -0.0625432 0 0 0 23 24 10
-0.183181 -0.02472 -0.064878 0 0 0 108 101 111
-0.134609 -0.040994 -0.0618735 0 0 0 94 105 94
-0.0636835 -0.0325104 -0.0670834 0 0 0 99 110 96
-0.0522634 -0.0335923 -0.0659442 0 0 0 88 100 83
-0.0594592 -0.0115606 -0.0644964 0 0 0 35 33 50
-0.221209 -0.02733 -0.0608942 0 0 0 81 83 62
-0.0783337 -0.0102061 -0.0637494 0 0 0 100 107 104
-0.178652 -0.0109342 -0.0620535 0 0 0 115 118 122
-0.205401 -0.0247352 -0.0651927 0 0 0 103 103 104
-0.0647528 -0.0193708 -0.0672363 0 0 0 32 17 42
-0.188212 -0.0070341 -0.0618733 0 0 0 71 47 20
-0.190952 -0.0367119 -0.0641848 0 0 0 66 92 50
-0.20596 -0.0139841 -0.0618652 0 0 0 56 29 20
-0.093449 -0.0135977 -0.0645474 0 0 0 55 62 67
-0.110103 -0.012086 -0.0646069 0 0 0 96 100 94
-0.0873777 -0.0218 -0.0674381 0 0 0 104 115 110
-0.184134 -0.00351544 -0.0598585 0 0 0 73 51 42
-0.0834525 -0.0243926 -0.0660233 0 0 0 104 110 105
-0.115861 -0.0232641 -0.0672911 0 0 0 62 51 47
-0.111015 -0.0344306 -0.0664399 0 0 0 116 119 114
-0.209946 -0.0335839 -0.0602345 0 0 0 59 73 45
-0.139947 -0.00461211 -0.0619723 0 0 0 78 83 79
-0.0269899 -0.0253076 -0.0691428 0 0 0 71 101 45
