ply
format ascii 1.0
element vertex 49
property float x
property float y
property float z
property float nx
property float ny
property float nz
property uchar diffuse_red
property uchar diffuse_green
property uchar diffuse_blue
end_header
-0.21176 -0.0508689 -0.0519364 0 0 0 215 219 221
-0.15573 -0.052649 -0.0521777 0 0 0 233 233 235
-0.109045 -0.0515177 -0.0583002 0 0 0 220 225 238
-0.193103 -0.0536227 -0.0527276 0 0 0 218 220 220
-0.183782 -0.0270762 0.0141521 0 0 0 196 209 180
-0.0410917 -0.0356505 -0.068739 0 0 0 75 107 67
-0.15411 -0.0435022 -0.0628478 0 0 0 91 102 108
-0.213615 -0.0281698 0.0159096 0 0 0 87 94 95
-0.235491 -0.00606961 -0.0554225 0 0 0 154 149 137
-0.236612 -0.00811588 -0.0573865 0 0 0 179 183 170
-0.131367 -0.0234069 -0.0680546 0 0 0 80 87 88
-0.180973 -0.0224514 0.0189972 0 0 0 185 182 174
-0.204729 -0.00365809 0.0110709 0 0 0 101 112 108
-0.0790802 -0.0388998 -0.0660447 0 0 0 66 81 72
-0.163308 0.00338833 -0.0508141 0 0 0 104 96 89
-0.230114 -0.0114266 0.0161118 0 0 0 86 92 94
-0.0418142 0.00443615 -0.0561369 0 0 0 87 108 100
-0.184915 0.00750685 -0.0425168 0 0 0 74 70 58
-0.227848 -0.0123034 0.0151201 0 0 0 90 93 97
-0.0793374 -0.00808364 -0.0636315 0 0 0 96 103 96
-0.0911729 0.00260287 -0.0531023 0 0 0 93 96 85
-0.124096 0.00377946 -0.055098 0 0 0 81 85 81
-0.189572 0.00345683 -0.0525882 0 0 0 109 113 102
-0.19848 -0.0101023 -0.0608375 0 0 0 116 116 105
-0.223368 -0.0321723 -0.05941 0 0 0 95 93 73
-0.19231 -0.0196903 -0.0625393 0 0 0 70 50 25
-0.12358 -0.0409863 -0.0637173 0 0 0 68 94 49
-0.10412 -0.00727764 -0.0639653 0 0 0 90 98 89
-0.16678 -0.005536 -0.0583551 0 0 0 81 33 24
-0.183988 -0.0257769 -0.0646068 0 0 0 109 100 115
-0.176118 -0.0194655 -0.0647663 0 0 0 70 31 38
-0.0295154 -0.0382902 -0.0665563 0 0 0 87 115 82
-0.0580826 -0.0119766 -0.0629088 0 0 0 35 32 46
-0.178868 -0.0120063 -0.061072 0 0 0 110 117 120
-0.20621 -0.0259296 -0.0648071 0 0 0 102 103 97
-0.181667 -0.00341121 -0.0571953 0 0 0 73 55 23
-0.0644581 -0.0328325 -0.0674169 0 0 0 101 109 95
-0.0656094 -0.0196999 -0.0675821 0 0 0 35 23 43
-0.0943265 -0.0141003 -0.0647534 0 0 0 54 58 66
-0.0669795 -0.0303126 -0.0674097 0 0 0 87 105 84
-0.19103 -0.0379064 -0.0630981 0 0 0 66 94 49
-0.113149 -0.0125577 -0.0668102 0 0 0 97 100 96
-0.146784 -0.00690996 -0.0632385 0 0 0 97 113 99
-0.159066 -0.00699665 -0.0606971 0 0 0 105 91 36
-0.187853 -0.00707561 -0.0598964 0 0 0 80 48 23
-0.0285432 -0.0266745 -0.0705189 0 0 0 72 101 47
-0.210674 -0.0347993 -0.0598134 0 0 0 60 73 52
-0.0842712 -0.0248354 -0.066266 0 0 0 103 110 110
-0.109469 -0.035025 -0.066015 0 0 0 116 121 123
