ply
format ascii 1.0
element vertex 52
property float x
property float y
property float z
property float nx
property float ny
property float nz
property uchar diffuse_red
property uchar diffuse_green
property uchar diffuse_blue
end_header
-0.208455 -0.0507802 -0.0530534 0 0 0 214 218 217
-0.151425 -0.051655 -0.0536695 0 0 0 230 230 236
-0.204385 -0.0509537 -0.0514778 0 0 0 215 219 217
-0.211453 -0.0511315 -0.0514982 0 0 0 215 216 219
-0.22896 -0.0451031 0.0068855 0 0 0 99 110 96
-0.19798 -0.0401864 -0.0594254 0 0 0 67 94 68
-0.0663544 -0.0276099 -0.0665787 0 0 0 75 78 86
-0.206692 -0.0055462 0.0108407 0 0 0 112 118 118
-0.221921 -0.0240877 0.0138672 0 0 0 90 96 96
-0.134531 -0.0231583 -0.0670956 0 0 0 81 86 88
-0.170796 -0.048445 -0.0608117 0 0 0 222 225 223
-0.147923 -0.034499 -0.0607272 0 0 0 49 50 63
-0.0791685 -0.0385843 -0.0664532 0 0 0 70 82 68
-0.232188 -0.0414821 0.0134576 0 0 0 159 164 180
-0.0368236 0.00597545 -0.0550224 0 0 0 55 78 67
-0.0785358 -0.00660351 -0.0630217 0 0 0 95 102 98
-0.16336 0.00515819 -0.050083 0 0 0 96 93 88
-0.186046 0.00846356 -0.0453085 0 0 0 72 69 61
-0.191285 -0.00956152 -0.0537265 0 0 0 113 114 103
-0.18873 0.00442459 -0.0530993 0 0 0 109 113 104
-0.0888975 0.00279939 -0.0513657 0 0 0 93 97 82
-0.0337086 -0.0060156 -0.0653992 0 0 0 56 81 65
-0.187592 0.000263917 -0.0562041 0 0 0 84 74 38
-0.193479 -0.0184514 -0.0654824 0 0 0 71 51 20
-0.222682 -0.0320079 -0.0605552 0 0 0 86 83 55
-0.210052 -0.0308159 0.0152956 0 0 0 89 92 98
-0.123711 -0.0391419 -0.0643597 0 0 0 70 90 75
-0.0321167 -0.0383558 -0.0668423 0 0 0 84 111 83
-0.101824 -0.00696932 -0.0623856 0 0 0 90 97 91
-0.165996 -0.00355398 -0.058517 0 0 0 71 36 41
-0.207909 0.00169323 -0.0540588 0 0 0 74 65 19
-0.205472 -0.0247854 -0.0655957 0 0 0 101 103 104
-0.0648112 -0.0195665 -0.0671129 0 0 0 32 17 39
-0.0622628 -0.0328684 -0.0656718 0 0 0 100 109 97
-0.188305 -0.0369178 -0.0630695 0 0 0 66 93 55
-0.0935107 -0.0137708 -0.0645102 0 0 0 57 61 64
-0.184202 -0.00360523 -0.0601188 0 0 0 71 52 34
-0.0570961 -0.0116855 -0.0639116 0 0 0 55 51 67
-0.110876 -0.012188 -0.0653251 0 0 0 94 100 95
-0.137137 -0.00351214 -0.0605383 0 0 0 73 81 83
-0.0874378 -0.0219707 -0.0674043 0 0 0 106 112 111
-0.187629 -0.00716239 -0.061392 0 0 0 72 47 24
-0.186991 -0.0287291 -0.0633535 0 0 0 100 101 103
-0.179571 -0.0100509 -0.0613333 0 0 0 71 68 75
-0.0835205 -0.0245718 -0.0659833 0 0 0 105 110 106
-0.115923 -0.0234045 -0.0673651 0 0 0 62 49 54
-0.210044 -0.0336445 -0.0606813 0 0 0 60 72 45
-0.163137 -0.0134481 -0.0626623 0 0 0 101 95 42
-0.109668 -0.0347533 -0.0651372 0 0 0 114 120 114
-0.0630302 -0.0273906 -0.0670533 0 0 0 99 109 93
-0.161471 -0.0179655 -0.0634929 0 0 0 109 90 39
-0.0255013 -0.0256731 -0.0676262 0 0 0 71 99 44
