ply
format ascii 1.0
element vertex 55
property float x
property float y
property float z
property float nx
property float ny
property float nz
property uchar diffuse_red
property uchar diffuse_green
property uchar diffuse_blue
end_header
-0.210089 -0.0525578 -0.0530935 0 0 0 216 217 213
-0.153278 -0.0543292 -0.0523019 0 0 0 230 232 237
-0.110147 -0.05287 -0.0601381 0 0 0 219 221 238
-0.192125 -0.0528947 -0.0541952 0 0 0 218 220 219
-0.219697 -0.0452429 0.00884601 0 0 0 80 85 94
-0.0492327 -0.0334963 -0.0683027 0 0 0 74 100 45
-0.0667859 -0.0292308 -0.0671822 0 0 0 82 102 82
-0.190448 -0.0463653 -0.0580276 0 0 0 133 155 169
-0.213966 -0.0286887 0.014867 0 0 0 89 94 102
-0.139196 -0.0492836 -0.0574417 0 0 0 213 234 243
-0.171274 -0.0489476 -0.0591759 0 0 0 217 224 222
-0.0893306 -0.0517644 -0.055404 0 0 0 240 245 249
-0.18325 -0.0273255 0.0124571 0 0 0 138 155 165
-0.213773 -0.00877574 0.011163 0 0 0 98 104 111
-0.236995 -0.0109138 -0.0597796 0 0 0 193 199 173
-0.237449 -0.0174333 -0.0600411 0 0 0 188 217 204
-0.0817565 -0.0388208 -0.0687832 0 0 0 68 81 71
-0.162059 0.00522253 -0.0496673 0 0 0 99 95 82
-0.184956 0.0069787 -0.0434116 0 0 0 67 69 40
-0.232459 -0.0120835 0.0140209 0 0 0 89 93 97
-0.121606 0.00375902 -0.0565424 0 0 0 81 86 79
-0.199612 -0.0106214 -0.0633504 0 0 0 115 116 115
-0.0792399 -0.00704952 -0.0635342 0 0 0 96 102 89
-0.188885 0.00287883 -0.0527344 0 0 0 110 112 97
-0.186255 -0.00115664 -0.0558454 0 0 0 77 48 39
-0.0351944 -0.00598348 -0.06663 0 0 0 49 82 66
-0.0203923 -0.0345508 -0.0705076 0 0 0 128 114 99
-0.123317 -0.041357 -0.0640841 0 0 0 78 89 44
-0.166 -0.0060661 -0.0583462 0 0 0 79 35 26
-0.192714 -0.0213337 -0.0643844 0 0 0 73 52 28
-0.217393 -0.0461748 0.00783678 0 0 0 82 86 90
-0.197824 -0.0416933 0.00992533 0 0 0 73 86 98
-0.0581639 -0.00695746 -0.0620302 0 0 0 29 26 44
-0.184419 -0.0262726 -0.0661946 0 0 0 109 102 106
-0.104682 -0.00755511 -0.0649441 0 0 0 88 98 91
-0.175914 -0.0200037 -0.0655503 0 0 0 71 38 33
-0.0586703 -0.0121023 -0.0635142 0 0 0 40 33 47
-0.0709445 -0.030938 -0.0660139 0 0 0 63 54 74
-0.205984 -0.0265625 -0.0657977 0 0 0 104 102 110
-0.0641963 -0.0330234 -0.0673697 0 0 0 99 109 97
-0.180178 -0.0126681 -0.0618471 0 0 0 98 96 97
-0.20723 -0.0168528 -0.0634609 0 0 0 49 22 9
-0.19078 -0.0384885 -0.0639583 0 0 0 65 94 52
-0.111524 -0.0129834 -0.0657525 0 0 0 94 102 95
-0.188967 -0.00869189 -0.062498 0 0 0 72 47 25
-0.184927 -0.00512916 -0.0604858 0 0 0 72 53 35
-0.0250688 -0.0254028 -0.0690415 0 0 0 71 100 43
-0.0299017 -0.0367 -0.0682512 0 0 0 86 117 73
-0.211082 -0.0353536 -0.0616062 0 0 0 60 73 45
-0.0849548 -0.0212602 -0.0664559 0 0 0 102 111 104
-0.0840422 -0.0250867 -0.066376 0 0 0 106 109 105
-0.109209 -0.0353552 -0.0662898 0 0 0 109 120 120
-0.0408522 0.00120534 -0.0629587 0 0 0 103 108 97
-0.094083 -0.0156257 -0.065152 0 0 0 48 57 83
-0.140727 -0.00582079 -0.0625043 0 0 0 75 83 75
