ply
format ascii 1.0
element vertex 55
property float x
property float y
property float z
property float nx
property float ny
property float nz
property uchar diffuse_red
property uchar diffuse_green
property uchar diffuse_blue
end_header
-0.198682 -0.051394 -0.0543961 0 0 0 220 222 221
-0.0444795 -0.054513 -0.0557139 0 0 0 222 231 242
-0.153283 -0.0525599 -0.0535113 0 0 0 232 233 236
-0.0431526 -0.0411089 -0.0697963 0 0 0 84 114 73
-0.109467 -0.0512888 -0.0607513 0 0 0 233 235 243
-0.0910786 -0.0517772 -0.0551897 0 0 0 240 243 249
-0.184022 -0.0261263 0.0138884 0 0 0 201 222 173
-0.210848 -0.0244045 0.0142041 0 0 0 89 93 95
-0.128174 -0.024748 -0.0671883 0 0 0 84 91 86
-0.149774 -0.0351666 -0.0621801 0 0 0 49 51 53
-0.208332 -0.0041614 0.00975039 0 0 0 99 99 112
-0.161954 0.00554151 -0.0492315 0 0 0 98 98 79
-0.237068 -0.00815094 -0.0588553 0 0 0 179 184 163
-0.15245 -0.0397691 -0.0642983 0 0 0 60 66 76
-0.0811325 -0.0388103 -0.0680772 0 0 0 67 81 71
-0.22803 -0.0125567 0.0144935 0 0 0 92 95 95
-0.157616 0.00580747 -0.0478886 0 0 0 106 118 108
-0.189441 0.00333484 -0.0530066 0 0 0 110 114 100
-0.198962 -0.0101525 -0.0621003 0 0 0 115 116 104
-0.185642 0.00719151 -0.0420939 0 0 0 36 31 41
-0.12239 0.00377646 -0.0553659 0 0 0 79 86 78
-0.196924 -0.0400947 0.00961419 0 0 0 90 90 85
-0.0325831 -0.00859459 -0.0666711 0 0 0 52 81 48
-0.07922 -0.00698628 -0.0633777 0 0 0 93 103 93
-0.0308939 -0.0383252 -0.0676287 0 0 0 88 116 83
-0.186839 -0.000691236 -0.0561359 0 0 0 76 48 33
-0.123428 -0.0411251 -0.0639431 0 0 0 78 92 52
-0.192101 -0.0209043 -0.0632049 0 0 0 72 53 25
-0.043209 -0.0397989 -0.0695831 0 0 0 83 114 75
-0.166629 -0.00565938 -0.0586923 0 0 0 82 35 26
-0.0613131 -0.00706056 -0.063006 0 0 0 18 23 13
-0.102348 -0.00728715 -0.0642044 0 0 0 85 96 85
-0.183822 -0.0258747 -0.0650675 0 0 0 109 100 114
-0.175948 -0.0195681 -0.0651772 0 0 0 72 32 38
-0.0475113 0.0037284 -0.0557291 0 0 0 86 98 58
-0.0608727 -0.0132747 -0.0656258 0 0 0 31 33 44
-0.206042 -0.0260126 -0.0653674 0 0 0 99 102 109
-0.0642852 -0.0330009 -0.0673594 0 0 0 100 110 96
-0.180174 -0.0122315 -0.0614327 0 0 0 102 98 99
-0.207246 -0.0163078 -0.0629882 0 0 0 48 22 8
-0.0941533 -0.0142556 -0.0647863 0 0 0 56 61 62
-0.064451 -0.0291498 -0.0667327 0 0 0 85 107 66
-0.111532 -0.0127896 -0.0655301 0 0 0 95 101 93
-0.116513 -0.0240436 -0.067524 0 0 0 56 49 56
-0.0849965 -0.0211635 -0.0663406 0 0 0 102 109 111
-0.188949 -0.00821966 -0.0620432 0 0 0 74 49 28
-0.0840981 -0.0249937 -0.0662787 0 0 0 104 110 107
-0.0415088 -0.000168711 -0.0637393 0 0 0 107 105 87
-0.184841 -0.00580825 -0.0602114 0 0 0 77 50 39
-0.186735 -0.0369192 -0.0619806 0 0 0 66 92 47
-0.110174 -0.0353459 -0.0652983 0 0 0 113 120 116
-0.0275762 -0.0269218 -0.0696528 0 0 0 72 100 54
-0.112809 -0.0163446 -0.0675174 0 0 0 94 99 98
-0.140699 -0.00553021 -0.062172 0 0 0 78 82 75
-0.209489 -0.029326 0.0150997 0 0 0 90 95 106
