ply
format ascii 1.0
element vertex 43
property float x
property float y
property float z
property float nx
property float ny
property float nz
property uchar diffuse_red
property uchar diffuse_green
property uchar diffuse_blue
end_header
-0.203806 -0.0508589 -0.0520188 0 0 0 213 216 213
-0.209471 -0.051015 -0.0519988 0 0 0 214 216 215
-0.155178 -0.0513362 -0.0557534 0 0 0 231 232 235
-0.107924 -0.05083 -0.0594025 0 0 0 230 234 235
-0.215884 -0.026183 0.0162577 0 0 0 88 94 103
-0.0916793 -0.0510719 -0.0559198 0 0 0 241 244 247
-0.215577 -0.00584968 0.00838276 0 0 0 97 100 106
-0.133332 -0.0230474 -0.0674068 0 0 0 78 86 84
-0.152352 -0.0328043 -0.0649795 0 0 0 42 48 47
-0.165683 0.00525383 -0.0525259 0 0 0 95 94 85
-0.0762972 -0.0357318 -0.0668574 0 0 0 73 77 62
-0.153003 -0.0376483 -0.0649033 0 0 0 55 58 79
-0.18362 0.00857416 -0.043888 0 0 0 83 95 73
-0.0781108 -0.00776466 -0.0630556 0 0 0 96 104 98
-0.18907 0.00438617 -0.0531677 0 0 0 109 112 101
-0.199936 -0.008983 -0.0637757 0 0 0 117 113 103
-0.0348548 -0.00575353 -0.0667487 0 0 0 55 81 54
-0.186487 0.00034102 -0.0562879 0 0 0 77 52 46
-0.12272 0.00454097 -0.0562505 0 0 0 80 85 82
-0.193179 -0.0186193 -0.0646608 0 0 0 69 51 17
-0.124011 -0.0390963 -0.0645188 0 0 0 71 90 48
-0.0307157 -0.0380266 -0.0677109 0 0 0 89 116 79
-0.165632 -0.00476372 -0.0580874 0 0 0 79 34 22
-0.0625826 -0.0327018 -0.066131 0 0 0 97 110 97
-0.0438026 -0.0393649 -0.0703035 0 0 0 85 115 77
-0.0185685 -0.0343231 -0.0710359 0 0 0 153 153 132
-0.0982068 -0.00788154 -0.062661 0 0 0 81 91 86
-0.0598275 -0.0128826 -0.065103 0 0 0 40 30 56
-0.178454 -0.00999647 -0.0614222 0 0 0 97 94 101
-0.205806 -0.0249146 -0.0654579 0 0 0 103 102 104
-0.065165 -0.0194119 -0.0676208 0 0 0 35 23 35
-0.0938649 -0.0136638 -0.0649174 0 0 0 54 59 69
-0.206965 -0.0151988 -0.0631012 0 0 0 47 24 8
-0.189252 -0.0369059 -0.0637136 0 0 0 67 92 57
-0.187982 -0.00723589 -0.0614128 0 0 0 73 47 25
-0.111237 -0.0121206 -0.0656626 0 0 0 96 100 94
-0.0846915 -0.0218729 -0.066658 0 0 0 103 110 108
-0.0666399 -0.0287367 -0.0672488 0 0 0 82 104 98
-0.0257938 -0.0267728 -0.0684941 0 0 0 72 102 45
-0.136847 -0.00232096 -0.0598857 0 0 0 68 82 78
-0.206501 -0.0108637 -0.061617 0 0 0 46 38 48
-0.184557 -0.00366594 -0.0601708 0 0 0 75 49 22
-0.110696 -0.0345997 -0.0660722 0 0 0 110 118 118
