ply
format ascii 1.0
element vertex 55
property float x
property float y
property float z
property float nx
property float ny
property float nz
property uchar diffuse_red
property uchar diffuse_green
property uchar diffuse_blue
end_header
-0.209033 -0.0509506 -0.0515244 0 0 0 213 216 215
-0.154739 -0.0513562 -0.0552643 0 0 0 231 231 236
-0.0911935 -0.0524691 -0.0556184 0 0 0 244 244 244
-0.229039 -0.0455862 0.0110494 0 0 0 134 143 173
-0.0343975 -0.0396745 -0.0674021 0 0 0 86 115 85
-0.235145 -0.00366978 -0.0562287 0 0 0 152 143 133
-0.197043 -0.0389297 -0.0593455 0 0 0 63 92 55
-0.0645451 -0.0274878 -0.0666962 0 0 0 89 93 88
-0.145121 -0.0238384 -0.0658788 0 0 0 78 87 80
-0.206855 -0.00423952 0.0108755 0 0 0 105 108 113
-0.21688 -0.0252279 0.0169981 0 0 0 89 96 98
-0.173711 -0.018465 -0.0647533 0 0 0 65 38 43
-0.146427 -0.0334972 -0.0586067 0 0 0 42 46 50
-0.154028 -0.0426519 -0.063484 0 0 0 90 99 107
-0.206855 -0.00423952 0.0108755 0 0 0 105 108 113
-0.217588 -0.00646559 0.0114905 0 0 0 97 99 102
-0.0387779 0.00210838 -0.0576752 0 0 0 84 102 81
-0.165102 0.00408002 -0.0520508 0 0 0 100 104 99
-0.13627 -0.045339 -0.0589773 0 0 0 120 125 167
-0.19942 -0.00889855 -0.0631655 0 0 0 115 115 101
-0.188534 0.00441772 -0.0525121 0 0 0 109 113 97
-0.0783316 -0.00785498 -0.0630814 0 0 0 97 105 98
-0.223274 -0.0321883 -0.0590153 0 0 0 82 80 65
-0.218369 -0.00996282 -0.0569066 0 0 0 82 85 77
-0.123746 0.00431923 -0.055434 0 0 0 80 85 78
-0.186563 -0.000715143 -0.0565968 0 0 0 74 51 37
-0.209606 -0.0295391 0.0162136 0 0 0 90 93 98
-0.139534 -0.0407124 -0.0650987 0 0 0 95 100 94
-0.165153 -0.00360188 -0.057265 0 0 0 70 36 24
-0.207716 0.00167917 -0.0533888 0 0 0 75 62 16
-0.123548 -0.0391439 -0.0639819 0 0 0 71 90 44
-0.0433385 -0.0395364 -0.0697444 0 0 0 84 115 82
-0.192639 -0.019657 -0.0642611 0 0 0 73 52 25
-0.10074 -0.0080222 -0.0632156 0 0 0 88 99 88
-0.183097 -0.0248167 -0.0645962 0 0 0 107 100 107
-0.0589704 -0.00685966 -0.0611741 0 0 0 20 22 21
-0.0319163 -0.0396601 -0.0670607 0 0 0 89 116 84
-0.03025 -0.0382295 -0.0671437 0 0 0 88 116 80
-0.0635598 -0.0339788 -0.0670852 0 0 0 104 124 103
-0.0593179 -0.0130423 -0.0644647 0 0 0 42 32 59
-0.0838938 -0.0348025 -0.0665484 0 0 0 50 28 52
-0.205318 -0.0248143 -0.0648998 0 0 0 102 102 109
-0.0646663 -0.0195542 -0.0670047 0 0 0 32 21 36
-0.20646 -0.015104 -0.0625127 0 0 0 45 22 8
-0.0854978 -0.040189 -0.0655954 0 0 0 75 93 91
-0.11001 -0.0122393 -0.0643399 0 0 0 94 103 97
-0.190189 -0.0380221 -0.0633413 0 0 0 69 92 60
-0.0842434 -0.0207279 -0.06585 0 0 0 101 112 106
-0.187504 -0.00605768 -0.0606101 0 0 0 79 47 15
-0.136969 -0.00351319 -0.0601533 0 0 0 73 84 80
-0.0833692 -0.0245637 -0.0657911 0 0 0 104 111 110
-0.163647 -0.0134032 -0.0628977 0 0 0 97 93 37
-0.025308 -0.0269821 -0.06789 0 0 0 73 102 51
-0.225159 -0.0262955 -0.0620827 0 0 0 66 72 61
-0.110224 -0.034666 -0.0655173 0 0 0 114 119 123
