ply
format ascii 1.0
element vertex 65
property float x
property float y
property float z
property float nx
property float ny
property float nz
property uchar diffuse_red
property uchar diffuse_green
property uchar diffuse_blue
end_header
-0.211551 -0.0506749 -0.052272 0 0 0 215 219 221
-0.213672 -0.0540102 0.00116339 0 0 0 165 166 175
-0.153844 -0.0522344 -0.0540493 0 0 0 233 233 239
-0.102905 -0.0533473 -0.0545937 0 0 0 226 228 235
-0.107943 -0.0513479 -0.0592466 0 0 0 234 237 242
-0.0383402 -0.0399653 -0.067298 0 0 0 84 115 80
-0.230575 -0.0447449 0.0138374 0 0 0 154 166 192
-0.192779 -0.0520509 -0.0544083 0 0 0 219 219 220
-0.091691 -0.0515553 -0.0557929 0 0 0 242 246 250
-0.214107 -0.0281574 0.0148163 0 0 0 88 92 100
-0.169654 -0.0479696 -0.0603291 0 0 0 216 226 219
-0.237561 -0.010073 -0.0580333 0 0 0 169 166 135
-0.191568 -0.041504 -0.0615347 0 0 0 66 95 62
-0.128283 -0.0507567 -0.0584731 0 0 0 243 243 243
-0.208027 -0.00395954 0.0101232 0 0 0 100 100 108
-0.13499 -0.0237152 -0.0669688 0 0 0 82 87 86
-0.0810268 -0.0386892 -0.0679942 0 0 0 68 85 66
-0.236373 -0.0205205 -0.060526 0 0 0 99 101 139
-0.165189 0.00451408 -0.0513008 0 0 0 98 95 85
-0.201707 -0.00344535 0.0109016 0 0 0 93 97 109
-0.229995 -0.011453 0.0158791 0 0 0 86 91 101
-0.228291 -0.0122805 0.0140357 0 0 0 91 94 99
-0.187125 0.00653897 -0.045849 0 0 0 79 68 67
-0.200085 -0.00975668 -0.0632983 0 0 0 115 116 102
-0.189241 0.00360335 -0.0526573 0 0 0 107 113 100
-0.123758 0.00378973 -0.0549951 0 0 0 80 86 89
-0.145609 0.00685389 -0.0451967 0 0 0 102 91 41
-0.222437 -0.0330953 -0.0590874 0 0 0 85 84 57
-0.034247 -0.0060632 -0.0659026 0 0 0 51 81 62
-0.0969654 0.00231691 -0.0552964 0 0 0 87 93 82
-0.0791073 -0.00561083 -0.0630416 0 0 0 95 103 90
-0.197629 0.00073899 -0.0544781 0 0 0 72 55 65
-0.186604 -0.00155162 -0.0559833 0 0 0 73 51 40
-0.0821694 -0.00694288 -0.0643798 0 0 0 96 105 96
-0.208412 0.000774693 -0.0534973 0 0 0 74 64 17
-0.192004 -0.0194993 -0.0627043 0 0 0 70 51 19
-0.123368 -0.0397334 -0.0635859 0 0 0 70 91 52
-0.0976831 -0.00715805 -0.0614626 0 0 0 79 87 81
-0.165784 -0.00545803 -0.057653 0 0 0 82 35 26
-0.0611479 -0.00697862 -0.0629113 0 0 0 21 24 17
-0.18369 -0.0255964 -0.0647734 0 0 0 111 102 106
-0.175806 -0.0193021 -0.0648881 0 0 0 69 33 39
-0.0307868 -0.038284 -0.0676385 0 0 0 87 115 82
-0.0607222 -0.0131894 -0.0655414 0 0 0 41 32 43
-0.0358664 -0.039941 -0.0669536 0 0 0 85 115 80
-0.0652907 -0.0197719 -0.0674167 0 0 0 33 20 34
-0.205911 -0.0256989 -0.0650322 0 0 0 103 103 110
-0.214838 -0.0448845 0.012084 0 0 0 79 84 88
-0.180013 -0.0119646 -0.0611245 0 0 0 98 97 99
-0.211684 -0.045656 0.0101997 0 0 0 80 85 88
-0.064169 -0.0329075 -0.0672988 0 0 0 100 109 95
-0.190763 -0.0377159 -0.0633297 0 0 0 67 93 51
-0.0205571 -0.0349216 -0.0690743 0 0 0 104 116 72
-0.0947327 -0.014069 -0.0653242 0 0 0 60 63 70
-0.0242304 -0.0255496 -0.0684789 0 0 0 69 100 46
-0.188784 -0.00793801 -0.0617125 0 0 0 73 49 26
-0.185323 -0.00549482 -0.0606459 0 0 0 67 53 34
-0.0848597 -0.021039 -0.0662234 0 0 0 101 110 104
-0.0839672 -0.0248707 -0.0661689 0 0 0 105 110 106
-0.0634699 -0.0275869 -0.067363 0 0 0 100 107 91
-0.211082 -0.03339 -0.0606858 0 0 0 64 57 61
-0.107752 -0.035171 -0.0646406 0 0 0 117 120 115
-0.112666 -0.0161746 -0.067341 0 0 0 95 102 95
-0.217021 -0.0401183 0.0120275 0 0 0 83 88 93
-0.109796 -0.0124957 -0.0655195 0 0 0 98 102 95
