ply
format ascii 1.0
element vertex 50
property float x
property float y
property float z
property float nx
property float ny
property float nz
property uchar diffuse_red
property uchar diffuse_green
property uchar diffuse_blue
end_header
-0.0639628 -0.0528333 -0.0571275 0 0 0 246 250 252
-0.210031 -0.0508133 -0.0530687 0 0 0 214 216 217
-0.154618 -0.0516444 -0.0536378 0 0 0 234 235 239
-0.110153 -0.050712 -0.060043 0 0 0 222 226 239
-0.191393 -0.052551 -0.0536045 0 0 0 218 218 219
-0.160157 -0.0522479 -0.0509495 0 0 0 221 223 225
-0.212823 -0.0256298 0.0142728 0 0 0 88 94 98
-0.13758 -0.0480599 -0.0576277 0 0 0 212 239 247
-0.192197 -0.0419508 -0.0615204 0 0 0 76 102 55
-0.237574 -0.0230312 -0.0603799 0 0 0 160 154 184
-0.0724286 -0.0291663 -0.0657052 0 0 0 50 43 46
-0.23608 -0.00686355 -0.0585209 0 0 0 177 182 161
-0.136336 -0.0231725 -0.0673336 0 0 0 80 89 86
-0.148144 -0.0344084 -0.0609928 0 0 0 50 52 62
-0.163634 0.00527051 -0.0505075 0 0 0 98 96 93
-0.122001 0.00581684 -0.0555144 0 0 0 80 88 86
-0.194823 0.00505982 -0.0531984 0 0 0 74 59 48
-0.184571 0.00832277 -0.0417623 0 0 0 38 29 44
-0.0762152 -0.0356566 -0.0669331 0 0 0 70 79 61
-0.225191 0.000775573 0.00569591 0 0 0 91 96 100
-0.0402889 0.0048686 -0.057049 0 0 0 69 88 92
-0.017091 -0.0204653 -0.0707696 0 0 0 93 105 73
-0.078822 -0.00638174 -0.0636244 0 0 0 97 103 95
-0.199859 -0.00890622 -0.0640666 0 0 0 117 115 109
-0.188367 0.00444481 -0.0526746 0 0 0 108 112 100
-0.0419386 0.00338139 -0.0569837 0 0 0 101 114 103
-0.126684 -0.0488176 -0.0587677 0 0 0 223 243 247
-0.122481 -0.0404134 -0.0634507 0 0 0 65 93 53
-0.193058 -0.0196566 -0.0651129 0 0 0 73 51 29
-0.107456 -0.00693943 -0.0646608 0 0 0 93 99 93
-0.166276 -0.00349 -0.0588896 0 0 0 70 38 26
-0.0211666 -0.0345507 -0.0697588 0 0 0 106 114 83
-0.0593346 -0.0326709 -0.0651163 0 0 0 97 116 101
-0.183506 -0.0248007 -0.0654161 0 0 0 107 101 108
-0.0577441 -0.00646644 -0.0621469 0 0 0 29 30 39
-0.175603 -0.0185302 -0.0655324 0 0 0 72 35 32
-0.0597984 -0.0115161 -0.0649593 0 0 0 37 33 55
-0.205726 -0.0248388 -0.065749 0 0 0 102 103 112
-0.179145 -0.0112137 -0.0610578 0 0 0 99 94 96
-0.206889 -0.0151217 -0.0633998 0 0 0 46 25 8
-0.0650818 -0.019337 -0.0676879 0 0 0 32 23 44
-0.111157 -0.0120448 -0.0658083 0 0 0 96 101 96
-0.187303 -0.0060767 -0.0607401 0 0 0 80 48 21
-0.0846584 -0.0205412 -0.0665547 0 0 0 102 111 107
-0.184442 -0.00471572 -0.06062 0 0 0 77 50 17
-0.18788 -0.0370161 -0.0624475 0 0 0 66 93 53
-0.0248122 -0.0251781 -0.0692208 0 0 0 69 99 47
-0.210266 -0.0336821 -0.0607767 0 0 0 60 73 50
-0.107598 -0.0345983 -0.0649858 0 0 0 116 120 121
-0.143669 -0.0105456 -0.0655217 0 0 0 89 92 93
