ply
format ascii 1.0
element vertex 54
property float x
property float y
property float z
property float nx
property float ny
property float nz
property uchar diffuse_red
property uchar diffuse_green
property uchar diffuse_blue
end_header
-0.199943 -0.0515463 -0.0525157 0 0 0 217 221 219
-0.198346 -0.0512177 -0.0541028 0 0 0 219 220 220
-0.154961 -0.0521023 -0.055422 0 0 0 235 235 239
-0.105166 -0.0536817 -0.053326 0 0 0 216 222 237
-0.220638 -0.0461252 0.00933977 0 0 0 80 87 96
-0.0898424 -0.0515489 -0.0557794 0 0 0 242 246 251
-0.21283 -0.0296597 0.0162953 0 0 0 89 92 98
-0.215622 -0.00475234 0.00929269 0 0 0 92 98 110
-0.131658 -0.0235829 -0.0670713 0 0 0 76 86 82
-0.148053 -0.0352077 -0.0603907 0 0 0 49 50 68
-0.160832 0.00446593 -0.0482508 0 0 0 102 92 77
-0.150737 -0.0398178 -0.062519 0 0 0 63 66 75
-0.081517 -0.0386652 -0.0684132 0 0 0 68 83 73
-0.184417 0.00749226 -0.0424816 0 0 0 73 64 57
-0.23075 -0.0117885 0.0166775 0 0 0 88 91 97
-0.215791 -0.0472067 0.0100011 0 0 0 81 85 95
-0.0347848 -0.00607583 -0.0661806 0 0 0 50 81 50
-0.122035 0.00507483 -0.0547426 0 0 0 81 86 81
-0.189036 0.0034964 -0.0525924 0 0 0 110 115 104
-0.0788268 -0.00694027 -0.0629737 0 0 0 96 103 95
-0.197932 -0.0100085 -0.0609432 0 0 0 116 116 110
-0.091361 0.00248185 -0.053352 0 0 0 93 97 86
-0.187889 -0.000658124 -0.0557019 0 0 0 85 74 55
-0.191772 -0.0196006 -0.0626599 0 0 0 71 52 20
-0.13561 -0.0431405 -0.0611412 0 0 0 87 94 93
-0.0990638 -0.00737127 -0.0610382 0 0 0 86 96 86
-0.123831 -0.0397206 -0.064124 0 0 0 74 89 33
-0.0577467 -0.00696325 -0.0615255 0 0 0 29 26 39
-0.165567 -0.00555419 -0.0575476 0 0 0 81 35 30
-0.0597344 -0.0132941 -0.0645735 0 0 0 39 36 55
-0.178934 -0.0130306 -0.0620386 0 0 0 117 124 119
-0.158513 -0.00697879 -0.0606083 0 0 0 106 94 31
-0.205673 -0.0258031 -0.0650193 0 0 0 103 103 106
-0.188431 -0.0378431 -0.0625648 0 0 0 66 93 52
-0.03562 -0.0399894 -0.0666142 0 0 0 85 113 80
-0.0646742 -0.0328885 -0.0676701 0 0 0 95 110 97
-0.207374 -0.000279757 -0.054433 0 0 0 76 74 49
-0.0329101 -0.0367638 -0.0689797 0 0 0 82 113 72
-0.206864 -0.016102 -0.0626189 0 0 0 50 23 9
-0.11043 -0.0127474 -0.0644457 0 0 0 95 102 92
-0.0650499 -0.0198294 -0.0671222 0 0 0 33 19 38
-0.188558 -0.00803888 -0.0616542 0 0 0 73 46 24
-0.137433 -0.0041634 -0.0602463 0 0 0 74 83 77
-0.139223 -0.00213221 -0.058174 0 0 0 82 92 51
-0.184494 -0.00450906 -0.0596307 0 0 0 76 52 32
-0.0846208 -0.0211037 -0.0659683 0 0 0 101 110 106
-0.0837272 -0.0249351 -0.0659147 0 0 0 104 111 105
-0.187162 -0.0296476 -0.0628541 0 0 0 102 100 107
-0.112427 -0.0162474 -0.0671377 0 0 0 96 102 103
-0.0247634 -0.0255303 -0.0687399 0 0 0 72 99 45
-0.137778 -0.00865929 -0.06331 0 0 0 79 85 82
-0.107512 -0.0352439 -0.06444 0 0 0 116 120 116
-0.0937691 -0.0141878 -0.0643999 0 0 0 56 57 66
-0.0623146 -0.0274563 -0.0679762 0 0 0 86 110 91
