ply
format ascii 1.0
element vertex 54
property float x
property float y
property float z
property float nx
property float ny
property float nz
property uchar diffuse_red
property uchar diffuse_green
property uchar diffuse_blue
end_header
-0.0185671 -0.0497787 -0.061317 0 0 0 241 254 251
-0.209536 -0.0516409 -0.0525777 0 0 0 215 218 218
-0.203872 -0.0514645 -0.0525756 0 0 0 215 219 220
-0.130797 -0.0534674 -0.0567477 0 0 0 237 239 243
-0.152505 -0.0533978 -0.0533493 0 0 0 232 232 236
-0.230635 -0.0462103 0.0107144 0 0 0 158 173 195
-0.10295 -0.0530763 -0.0548859 0 0 0 222 221 228
-0.199561 -0.0428274 0.00680795 0 0 0 115 109 114
-0.106195 -0.0507579 -0.0613242 0 0 0 234 240 240
-0.0366153 -0.039624 -0.0675889 0 0 0 82 116 81
-0.224629 -0.0363743 0.0114805 0 0 0 85 86 92
-0.216411 -0.00420595 0.00972202 0 0 0 93 98 103
-0.204925 -0.00550409 0.00937846 0 0 0 117 124 120
-0.220876 -0.0254925 0.0132156 0 0 0 89 95 99
-0.196785 -0.0394404 -0.0612064 0 0 0 67 93 60
-0.144192 -0.0241631 -0.0669486 0 0 0 80 87 84
-0.171364 -0.046948 -0.059227 0 0 0 178 207 215
-0.0886406 0.00422492 -0.0527843 0 0 0 96 100 88
-0.0336012 -0.00320189 -0.0650287 0 0 0 58 79 59
-0.231575 -0.0107447 0.0128811 0 0 0 87 92 100
-0.185388 0.00790969 -0.0444702 0 0 0 73 63 37
-0.0782885 -0.00794517 -0.0632121 0 0 0 95 103 98
-0.16656 0.00364097 -0.0539975 0 0 0 102 103 96
-0.200105 -0.00960159 -0.0644119 0 0 0 116 116 106
-0.175811 -0.0191411 -0.0658046 0 0 0 72 34 33
-0.189329 0.00383025 -0.0537912 0 0 0 110 112 101
-0.0899774 0.00173637 -0.0545714 0 0 0 93 98 79
-0.186122 0.000892541 -0.0559426 0 0 0 81 62 45
-0.193263 -0.0203293 -0.0654242 0 0 0 72 53 23
-0.0225337 0.00720205 -0.0536244 0 0 0 51 82 33
-0.12407 -0.0394443 -0.0647861 0 0 0 74 89 49
-0.223078 -0.0328429 -0.0609837 0 0 0 87 82 57
-0.208494 0.000984325 -0.0547232 0 0 0 76 66 14
-0.166504 -0.00521169 -0.0593477 0 0 0 81 34 24
-0.183692 -0.0254397 -0.0656963 0 0 0 108 100 105
-0.0617411 -0.0326511 -0.0670762 0 0 0 104 114 103
-0.0586993 -0.007911 -0.0630322 0 0 0 32 25 42
-0.0607294 -0.0129595 -0.0658387 0 0 0 40 31 55
-0.205911 -0.0255578 -0.0660812 0 0 0 104 103 109
-0.0827997 -0.0348027 -0.0674408 0 0 0 54 38 52
-0.0860094 -0.0402943 -0.0662546 0 0 0 72 92 88
-0.184759 -0.00422137 -0.0607581 0 0 0 71 52 39
-0.20653 -0.0147973 -0.0627951 0 0 0 58 26 21
-0.0652832 -0.0195562 -0.0676997 0 0 0 31 23 45
-0.18803 -0.0376657 -0.0627174 0 0 0 67 93 54
-0.0940139 -0.0139049 -0.0651229 0 0 0 58 59 66
-0.111389 -0.0124257 -0.0659404 0 0 0 94 100 92
-0.140561 -0.00512319 -0.0627281 0 0 0 76 83 83
-0.188166 -0.00780636 -0.0620056 0 0 0 73 50 24
-0.084858 -0.0208285 -0.0666103 0 0 0 101 111 106
-0.210431 -0.034409 -0.0611047 0 0 0 58 74 45
-0.027431 -0.0266566 -0.0696748 0 0 0 71 101 50
-0.109179 -0.0348085 -0.0664629 0 0 0 115 120 117
-0.0560855 -0.0297944 -0.0667573 0 0 0 94 114 100
