ply
format ascii 1.0
element vertex 50
property float x
property float y
property float z
property float nx
property float ny
property float nz
property uchar diffuse_red
property uchar diffuse_green
property uchar diffuse_blue
end_header
-0.200322 -0.0518559 -0.0544367 0 0 0 218 221 220
-0.110301 -0.0537393 -0.0546929 0 0 0 213 223 240
-0.154161 -0.0526832 -0.0542925 0 0 0 233 234 238
-0.235738 -0.00671486 -0.0563572 0 0 0 154 152 137
-0.0378237 -0.0383584 -0.0681106 0 0 0 82 111 77
-0.187896 -0.0461684 -0.0578753 0 0 0 131 149 158
-0.137147 -0.0489614 -0.0583242 0 0 0 209 233 244
-0.215547 -0.0224803 0.0143892 0 0 0 87 93 98
-0.213996 -0.00746155 0.0115978 0 0 0 97 101 113
-0.135436 -0.0241458 -0.0673585 0 0 0 80 87 84
-0.0837597 -0.0388579 -0.0686298 0 0 0 65 70 75
-0.163717 0.00532589 -0.0510699 0 0 0 99 95 77
-0.231505 -0.0120351 0.0160404 0 0 0 90 93 97
-0.228404 -0.0127382 0.0142364 0 0 0 92 94 99
-0.185266 0.00705981 -0.0432524 0 0 0 69 68 44
-0.122814 0.00365781 -0.0556842 0 0 0 79 86 82
-0.19933 -0.0106008 -0.0623631 0 0 0 115 115 106
-0.189864 0.0029682 -0.0533346 0 0 0 110 114 97
-0.185197 0.00018716 -0.0555295 0 0 0 78 53 30
-0.0788622 -0.00700741 -0.0629595 0 0 0 95 102 95
-0.192481 -0.0202138 -0.0632371 0 0 0 71 51 18
-0.223512 -0.0327883 -0.0602193 0 0 0 93 93 74
-0.166402 -0.00484029 -0.0580414 0 0 0 70 35 26
-0.123733 -0.0400781 -0.0638481 0 0 0 73 89 40
-0.104325 -0.00751836 -0.0642857 0 0 0 89 98 90
-0.0163211 -0.017962 -0.0691547 0 0 0 84 96 56
-0.0616339 -0.00827043 -0.0634632 0 0 0 22 23 12
-0.0604765 -0.0132444 -0.0651882 0 0 0 39 33 57
-0.179676 -0.0135738 -0.062662 0 0 0 123 124 118
-0.0199881 -0.0345466 -0.0701063 0 0 0 127 115 105
-0.206349 -0.0265042 -0.0655529 0 0 0 103 102 103
-0.0645652 -0.0329532 -0.0674852 0 0 0 99 109 94
-0.0657582 -0.0198249 -0.0676905 0 0 0 32 17 45
-0.20759 -0.0167924 -0.063222 0 0 0 48 24 8
-0.186947 -0.0384476 -0.0622867 0 0 0 66 91 51
-0.228149 -0.0479075 0.00868091 0 0 0 107 109 126
-0.18528 -0.00506393 -0.0603154 0 0 0 75 51 36
-0.0974559 -0.0168441 -0.0665793 0 0 0 41 49 68
-0.0967864 -0.0156486 -0.0656982 0 0 0 45 53 81
-0.111891 -0.0129162 -0.0657644 0 0 0 98 100 94
-0.0254428 -0.0253305 -0.0692651 0 0 0 68 100 48
-0.113153 -0.016486 -0.0677342 0 0 0 96 101 96
-0.0852635 -0.0224475 -0.0667268 0 0 0 104 111 109
-0.189174 -0.0289714 -0.0647036 0 0 0 111 104 107
-0.188675 -0.00866579 -0.061549 0 0 0 73 48 28
-0.0844092 -0.0250175 -0.0664476 0 0 0 104 110 109
-0.0835756 -0.0235772 -0.0671381 0 0 0 104 110 112
-0.0673159 -0.0294087 -0.0657263 0 0 0 73 74 86
-0.210808 -0.0353752 -0.0605566 0 0 0 60 74 46
-0.108141 -0.0354373 -0.0649006 0 0 0 110 120 121
