ply
format ascii 1.0
element vertex 50
property float x
property float y
property float z
property float nx
property float ny
property float nz
property uchar diffuse_red
property uchar diffuse_green
property uchar diffuse_blue
end_header
-0.209857 -0.0516746 -0.0520552 0 0 0 214 216 212
-0.153605 -0.0522496 -0.0536574 0 0 0 233 234 238
-0.229351 -0.0482176 0.0128466 0 0 0 171 186 206
-0.0428503 -0.0398692 -0.0691443 0 0 0 84 116 81
-0.19398 -0.0520476 -0.053981 0 0 0 218 220 219
-0.170273 -0.0469535 -0.0589106 0 0 0 176 202 211
-0.195671 -0.0404935 -0.0608306 0 0 0 63 91 71
-0.132415 -0.0248724 -0.0660957 0 0 0 82 88 87
-0.133324 -0.0481861 -0.0595224 0 0 0 201 230 242
-0.14802 -0.0351198 -0.0600579 0 0 0 50 53 61
-0.157285 0.0069661 -0.0452119 0 0 0 110 111 92
-0.0807675 -0.0387691 -0.0675593 0 0 0 67 85 73
-0.226279 -0.000716948 0.00714609 0 0 0 91 99 104
-0.0193415 -0.034896 -0.0695781 0 0 0 130 120 117
-0.232189 -0.011612 0.0146741 0 0 0 90 92 98
-0.187602 0.00637849 -0.0444357 0 0 0 46 36 34
-0.12343 0.00373003 -0.0544035 0 0 0 81 85 83
-0.187667 0.00471192 -0.0503271 0 0 0 104 109 89
-0.0786954 -0.00823987 -0.0629124 0 0 0 96 104 98
-0.219227 -0.0094645 -0.0586289 0 0 0 81 85 68
-0.0761099 -0.0362193 -0.0662537 0 0 0 72 79 73
-0.199137 -0.00971898 -0.0619773 0 0 0 117 115 111
-0.017073 -0.0195759 -0.0699443 0 0 0 88 98 63
-0.222827 -0.0318098 -0.0592329 0 0 0 92 93 71
-0.197307 0.000793881 -0.0538914 0 0 0 71 57 59
-0.191714 -0.0194235 -0.0621911 0 0 0 70 53 28
-0.18427 0.000847014 -0.0542939 0 0 0 78 50 36
-0.123814 -0.0396675 -0.0638545 0 0 0 75 90 49
-0.165471 -0.00544181 -0.0570912 0 0 0 80 35 24
-0.0582116 -0.0121703 -0.062824 0 0 0 40 32 44
-0.178202 -0.0129365 -0.0608234 0 0 0 117 125 106
-0.205631 -0.0255927 -0.0645402 0 0 0 102 103 104
-0.0650016 -0.0198787 -0.0669149 0 0 0 35 21 36
-0.0623982 -0.0331758 -0.0655293 0 0 0 96 109 97
-0.206799 -0.0158965 -0.0621087 0 0 0 46 24 8
-0.0371992 -0.0386026 -0.0675824 0 0 0 82 114 81
-0.187757 -0.0377713 -0.061398 0 0 0 67 93 51
-0.114812 -0.0165057 -0.0657997 0 0 0 94 100 93
-0.0328979 -0.0368682 -0.0688885 0 0 0 83 116 71
-0.187823 -0.00792005 -0.0603948 0 0 0 74 48 22
-0.181589 -0.00544992 -0.0578402 0 0 0 71 48 14
-0.0247294 -0.0256509 -0.0686323 0 0 0 73 100 49
-0.0697225 -0.0307097 -0.0663399 0 0 0 74 74 77
-0.107329 -0.0310136 -0.0666875 0 0 0 108 118 111
-0.108005 -0.00996628 -0.064748 0 0 0 95 100 97
-0.109792 -0.0352277 -0.064706 0 0 0 118 120 116
-0.0828438 -0.0235114 -0.0663617 0 0 0 103 111 111
-0.188472 -0.0281888 -0.0637529 0 0 0 107 105 105
-0.0462645 -0.00098278 -0.0606919 0 0 0 94 101 80
-0.140217 -0.00533261 -0.061367 0 0 0 77 83 77
