ply
format ascii 1.0
element vertex 51
property float x
property float y
property float z
property float nx
property float ny
property float nz
property uchar diffuse_red
property uchar diffuse_green
property uchar diffuse_blue
end_header
-0.210956 -0.0514521 -0.0521437 0 0 0 215 217 218
-0.155254 -0.0516045 -0.0559109 0 0 0 231 233 237
-0.109425 -0.0507785 -0.0609635 0 0 0 231 233 241
-0.194287 -0.0516663 -0.0548273 0 0 0 219 220 221
-0.151726 -0.0518775 -0.053808 0 0 0 231 233 238
-0.185048 -0.0263528 0.0118159 0 0 0 196 209 176
-0.194347 -0.0409674 -0.0635268 0 0 0 65 91 61
-0.135022 -0.0233712 -0.0674499 0 0 0 80 87 89
-0.214505 -0.021474 0.0151882 0 0 0 87 94 99
-0.147018 -0.0337228 -0.0593196 0 0 0 43 48 58
-0.175839 -0.018926 -0.0654482 0 0 0 73 31 33
-0.235015 -0.00623358 -0.0580887 0 0 0 133 157 164
-0.227923 -0.0104223 0.0144104 0 0 0 91 93 102
-0.0826995 -0.0384758 -0.0681128 0 0 0 66 68 71
-0.0424986 0.00573915 -0.0551291 0 0 0 84 105 92
-0.183835 0.00824171 -0.0440558 0 0 0 88 97 75
-0.161737 0.00502356 -0.0497614 0 0 0 103 93 80
-0.0775529 -0.00789032 -0.0625712 0 0 0 94 103 98
-0.200115 -0.00936 -0.0639342 0 0 0 117 115 113
-0.122929 0.00434948 -0.0564328 0 0 0 80 87 81
-0.189278 0.00403806 -0.0533329 0 0 0 109 111 93
-0.220913 -0.0103343 -0.0600497 0 0 0 83 88 76
-0.185233 0.000129271 -0.0564848 0 0 0 74 46 23
-0.0737614 -0.0340059 -0.0695274 0 0 0 85 103 75
-0.122661 -0.0406837 -0.0634722 0 0 0 64 94 47
-0.223101 -0.0325804 -0.0604545 0 0 0 88 83 58
-0.192642 -0.020158 -0.0642313 0 0 0 73 53 31
-0.165867 -0.00390092 -0.0580709 0 0 0 69 36 30
-0.197073 0.00226203 -0.0541961 0 0 0 68 52 49
-0.183727 -0.0252152 -0.0653189 0 0 0 111 99 103
-0.103811 -0.00693897 -0.0643561 0 0 0 89 97 93
-0.0609609 -0.00772995 -0.0651319 0 0 0 30 26 44
-0.0577446 -0.0228809 -0.0687708 0 0 0 78 97 82
-0.205947 -0.025306 -0.0656101 0 0 0 103 103 108
-0.178583 -0.0114578 -0.0617676 0 0 0 112 115 124
-0.0473482 -0.0382744 -0.0697263 0 0 0 79 106 83
-0.207129 -0.0155923 -0.063256 0 0 0 47 23 7
-0.087151 -0.0232883 -0.0675086 0 0 0 105 113 108
-0.0660203 -0.0247744 -0.0677259 0 0 0 66 56 88
-0.111409 -0.0122876 -0.065843 0 0 0 96 101 95
-0.0940329 -0.0137893 -0.0651018 0 0 0 56 60 69
-0.0518494 -0.0251604 -0.069317 0 0 0 99 114 92
-0.184094 -0.00404179 -0.0595722 0 0 0 75 51 35
-0.185471 -0.0378106 -0.0593035 0 0 0 67 92 51
-0.0250397 -0.0252151 -0.0694209 0 0 0 71 100 47
-0.0519024 -0.0238628 -0.0691094 0 0 0 94 122 104
-0.188815 -0.00754125 -0.0623392 0 0 0 73 49 19
-0.211084 -0.0340725 -0.0614148 0 0 0 60 74 45
-0.110814 -0.0347654 -0.0662462 0 0 0 113 119 118
-0.0213728 -0.0345788 -0.0699684 0 0 0 107 114 79
-0.139866 -0.00499259 -0.0617703 0 0 0 79 82 78
