ply
format ascii 1.0
element vertex 45
property float x
property float y
property float z
property float nx
property float ny
property float nz
property uchar diffuse_red
property uchar diffuse_green
property uchar diffuse_blue
end_header
-0.0648341 -0.0532196 -0.0561743 0 0 0 246 248 251
-0.212038 -0.0499337 -0.0531625 0 0 0 219 220 222
-0.132115 -0.0506354 -0.0574243 0 0 0 240 240 242
-0.0947441 -0.0526232 -0.0556739 0 0 0 224 231 239
-0.0715659 -0.0278947 -0.0662781 0 0 0 48 43 40
-0.12075 -0.0442014 -0.0639426 0 0 0 97 111 128
-0.220424 -0.0206194 0.0149645 0 0 0 93 99 103
-0.2051 -0.00555419 0.0112002 0 0 0 120 125 117
-0.158023 0.00753666 -0.0467742 0 0 0 105 114 94
-0.225855 -0.0112119 0.0130586 0 0 0 95 99 102
-0.0738202 -0.0358236 -0.0663825 0 0 0 77 94 68
-0.0786747 -0.0103717 -0.0640395 0 0 0 99 106 100
-0.185151 0.00802007 -0.0419558 0 0 0 36 30 41
-0.0409864 0.00338294 -0.0578122 0 0 0 86 99 91
-0.119711 0.00570266 -0.0545767 0 0 0 81 86 79
-0.188984 0.00417446 -0.0528604 0 0 0 111 113 103
-0.199216 -0.00922987 -0.062705 0 0 0 116 113 109
-0.185147 0.00120599 -0.0542752 0 0 0 81 64 49
-0.199601 0.00103905 -0.053877 0 0 0 52 44 24
-0.222922 -0.0312885 -0.0598434 0 0 0 94 95 76
-0.192448 -0.0188756 -0.0636286 0 0 0 71 51 24
-0.123163 -0.040544 -0.0638985 0 0 0 63 90 49
-0.107459 -0.00715032 -0.0643676 0 0 0 91 99 89
-0.166217 -0.00490976 -0.0585834 0 0 0 81 37 23
-0.0171055 -0.0205997 -0.0708057 0 0 0 95 108 66
-0.0608773 -0.031406 -0.0661505 0 0 0 98 103 73
-0.058292 -0.0117857 -0.0635151 0 0 0 36 32 52
-0.0429495 -0.0395298 -0.0696809 0 0 0 83 114 81
-0.178943 -0.0124026 -0.0622838 0 0 0 122 124 109
-0.0470079 0.00270262 -0.0560479 0 0 0 87 97 47
-0.205084 -0.0251896 -0.0644072 0 0 0 102 102 105
-0.0597496 -0.0129838 -0.0650426 0 0 0 40 34 56
-0.0650868 -0.0195116 -0.0675648 0 0 0 29 20 41
-0.0923263 -0.0138893 -0.0634368 0 0 0 57 57 65
-0.0203879 -0.0347667 -0.06919 0 0 0 106 115 74
-0.187856 -0.0372866 -0.06197 0 0 0 67 94 48
-0.184477 -0.00386057 -0.0598871 0 0 0 77 52 20
-0.111161 -0.0122552 -0.0655162 0 0 0 94 101 93
-0.159998 -0.0362024 -0.0616021 0 0 0 100 110 99
-0.187901 -0.00743032 -0.0611306 0 0 0 71 48 24
-0.0306254 -0.038103 -0.0677487 0 0 0 86 116 81
-0.0248185 -0.0253217 -0.0692439 0 0 0 71 99 45
-0.0837752 -0.0245654 -0.0663092 0 0 0 104 109 105
-0.187115 -0.0276362 -0.0644125 0 0 0 109 100 103
-0.145571 -0.00522904 -0.0624986 0 0 0 90 112 103
