ply
format ascii 1.0
element vertex 46
property float x
property float y
property float z
property float nx
property float ny
property float nz
property uchar diffuse_red
property uchar diffuse_green
property uchar diffuse_blue
end_header
-0.204268 -0.0523564 -0.0519281 0 0 0 212 217 218
-0.152895 -0.0541697 -0.0524157 0 0 0 229 233 240
-0.0599796 -0.0529425 -0.0586267 0 0 0 242 249 251
-0.110431 -0.0514698 -0.0605161 0 0 0 218 225 235
-0.222217 -0.0471094 0.00630173 0 0 0 83 90 103
-0.0447479 -0.0354089 -0.0718942 0 0 0 74 107 62
-0.195274 -0.041959 -0.0640113 0 0 0 59 93 63
-0.127533 -0.0248733 -0.0674056 0 0 0 83 89 88
-0.0755634 -0.0373104 -0.0682556 0 0 0 74 93 59
-0.237252 -0.00187301 -0.0502109 0 0 0 87 93 95
-0.15127 -0.0376786 -0.0635466 0 0 0 56 56 75
-0.151378 -0.0353272 -0.0631765 0 0 0 45 50 61
-0.0770237 -0.00557078 -0.0632591 0 0 0 91 95 85
-0.188509 0.00720966 -0.0468561 0 0 0 33 27 36
-0.0321878 -0.0149003 -0.0693971 0 0 0 56 87 42
-0.190306 0.00326523 -0.0554271 0 0 0 100 104 92
-0.19845 -0.010341 -0.0629863 0 0 0 108 106 102
-0.0160998 -0.0167466 -0.0686627 0 0 0 78 98 83
-0.0987611 -0.00601223 -0.0628573 0 0 0 72 78 71
-0.0493883 -0.0124354 -0.0661148 0 0 0 82 99 91
-0.123491 -0.0411657 -0.064752 0 0 0 63 92 53
-0.0506039 -0.014728 -0.0694098 0 0 0 77 91 18
-0.165523 -0.00464812 -0.0583858 0 0 0 67 32 23
-0.0559568 -0.0334785 -0.0618959 0 0 0 105 115 103
-0.0870168 -0.0420647 -0.0658485 0 0 0 94 102 82
-0.204606 -0.00878483 0.0114088 0 0 0 115 122 120
-0.182648 -0.0250169 -0.0648136 0 0 0 104 110 107
-0.175372 -0.0197508 -0.0658261 0 0 0 68 28 37
-0.192838 -0.0209851 -0.0655262 0 0 0 71 51 29
-0.224851 -0.0452628 0.00914004 0 0 0 87 97 112
-0.0367745 -0.0398347 -0.0675924 0 0 0 84 115 78
-0.206161 -0.025088 -0.0668509 0 0 0 95 94 106
-0.0316966 -0.038169 -0.0682269 0 0 0 87 116 78
-0.206774 -0.0154252 -0.063743 0 0 0 50 23 19
-0.188432 -0.00838897 -0.0628533 0 0 0 65 40 15
-0.0654906 -0.0198375 -0.0678656 0 0 0 29 20 42
-0.0214695 -0.0347895 -0.0695617 0 0 0 104 118 75
-0.191587 -0.0380554 -0.0658432 0 0 0 64 91 48
-0.0949715 -0.0142128 -0.0661402 0 0 0 56 58 66
-0.110202 -0.0129047 -0.0649554 0 0 0 92 95 96
-0.0850101 -0.0224142 -0.067082 0 0 0 102 108 109
-0.0841645 -0.0249862 -0.0667955 0 0 0 105 106 108
-0.137454 -0.000776229 -0.0604779 0 0 0 65 73 67
-0.110942 -0.0352964 -0.0667114 0 0 0 113 120 115
-0.209447 -0.0341137 -0.0603184 0 0 0 62 56 55
-0.0284425 -0.0254587 -0.0700624 0 0 0 69 99 48
