ply
format ascii 1.0
element vertex 48
property float x
property float y
property float z
property float nx
property float ny
property float nz
property uchar diffuse_red
property uchar diffuse_green
property uchar diffuse_blue
end_header
-0.211034 -0.0505463 -0.0516526 0 0 0 215 217 214
-0.15267 -0.0527472 -0.0528459 0 0 0 229 231 235
-0.104053 -0.0530101 -0.0538447 0 0 0 219 221 231
-0.192442 -0.0523721 -0.0522737 0 0 0 217 219 216
-0.22058 -0.047248 0.00898548 0 0 0 83 92 110
-0.235522 -0.0053252 -0.0563341 0 0 0 163 168 151
-0.193271 -0.0405827 -0.059891 0 0 0 63 95 55
-0.0905487 -0.0500863 -0.0543533 0 0 0 224 242 245
-0.0661243 -0.0289163 -0.0664624 0 0 0 82 98 86
-0.134332 -0.0229951 -0.066173 0 0 0 79 87 85
-0.151161 -0.0326821 -0.063174 0 0 0 42 46 62
-0.205796 -0.00558466 0.0124483 0 0 0 114 118 112
-0.0790097 -0.0385769 -0.066069 0 0 0 67 81 70
-0.165571 0.00428683 -0.051975 0 0 0 101 103 102
-0.228233 -0.0102974 0.0161245 0 0 0 89 92 97
-0.226013 -0.0100189 0.0153231 0 0 0 94 96 101
-0.186992 0.00738044 -0.0439583 0 0 0 46 35 51
-0.0190456 -0.0348928 -0.0695414 0 0 0 130 114 101
-0.121293 0.00449334 -0.0542145 0 0 0 79 85 82
-0.0797003 -0.00777956 -0.0640376 0 0 0 96 103 99
-0.196147 0.00295416 -0.0524389 0 0 0 68 50 48
-0.198664 -0.00860685 -0.0615099 0 0 0 116 114 104
-0.188336 0.00466499 -0.0515867 0 0 0 109 112 93
-0.0341381 -0.00873057 -0.0663139 0 0 0 55 82 52
-0.217233 -0.0460793 0.0100273 0 0 0 79 87 96
-0.187235 0.000517215 -0.054722 0 0 0 85 72 40
-0.191952 -0.0182827 -0.0625222 0 0 0 70 52 17
-0.122829 -0.0391232 -0.0629074 0 0 0 71 91 45
-0.20166 -0.0476697 -0.0536853 0 0 0 216 224 223
-0.164962 -0.00455105 -0.0566854 0 0 0 80 35 24
-0.103715 -0.00677104 -0.0637202 0 0 0 89 98 89
-0.057174 -0.00681817 -0.0611189 0 0 0 30 26 44
-0.0577583 -0.0119387 -0.0626573 0 0 0 36 32 51
-0.205262 -0.024434 -0.064093 0 0 0 102 102 105
-0.0638523 -0.0196624 -0.0660927 0 0 0 29 21 42
-0.0635863 -0.0327402 -0.0667104 0 0 0 96 111 93
-0.179872 -0.0119955 -0.0611093 0 0 0 118 117 99
-0.206364 -0.014736 -0.0616384 0 0 0 45 24 9
-0.0939969 -0.0136744 -0.064561 0 0 0 56 61 70
-0.187336 -0.0068822 -0.0599473 0 0 0 70 46 23
-0.187459 -0.036731 -0.0610142 0 0 0 67 93 47
-0.110633 -0.0120994 -0.0645428 0 0 0 93 101 97
-0.183851 -0.00446808 -0.0588763 0 0 0 77 50 31
-0.186015 -0.0271552 -0.0626291 0 0 0 108 103 102
-0.0419795 -0.00138523 -0.0644598 0 0 0 95 101 63
-0.10718 -0.0346772 -0.0639699 0 0 0 114 120 123
-0.209818 -0.0333056 -0.0591862 0 0 0 59 73 47
-0.0693925 -0.030398 -0.0661886 0 0 0 74 73 73
