ply
format ascii 1.0
element vertex 48
property float x
property float y
property float z
property float nx
property float ny
property float nz
property uchar diffuse_red
property uchar diffuse_green
property uchar diffuse_blue
end_header
-0.199938 -0.0512031 -0.054076 0 0 0 216 219 219
-0.154625 -0.0525176 -0.0531103 0 0 0 232 235 240
-0.0962437 -0.0529322 -0.056745 0 0 0 223 232 241
-0.230512 -0.0478318 0.00902936 0 0 0 150 159 186
-0.192168 -0.0403112 -0.0620402 0 0 0 66 93 70
-0.0439759 -0.0346154 -0.0689682 0 0 0 73 105 62
-0.0642123 -0.0292366 -0.0663002 0 0 0 90 107 63
-0.202731 -0.00652211 0.0132098 0 0 0 118 124 114
-0.136057 -0.0488049 -0.0572228 0 0 0 209 233 244
-0.22051 -0.0252069 0.0146151 0 0 0 91 95 102
-0.148871 -0.0351215 -0.0610603 0 0 0 48 50 59
-0.160904 0.00444557 -0.0480717 0 0 0 102 93 84
-0.0809213 -0.0388418 -0.067697 0 0 0 69 83 69
-0.224949 -0.000495544 0.00508031 0 0 0 91 96 101
-0.0403943 0.00421193 -0.0562159 0 0 0 75 88 91
-0.155771 0.00603839 -0.0473655 0 0 0 103 114 107
-0.0785967 -0.0375707 -0.0670373 0 0 0 67 80 73
-0.187815 0.00627472 -0.0447877 0 0 0 43 40 42
-0.119835 0.00514057 -0.0539928 0 0 0 81 86 81
-0.196906 0.00177154 -0.0532969 0 0 0 69 48 53
-0.0789178 -0.00704858 -0.0628303 0 0 0 94 103 97
-0.198027 -0.00992978 -0.060808 0 0 0 114 114 102
-0.188466 0.00350555 -0.0516429 0 0 0 108 110 95
-0.0914367 0.00236438 -0.0531797 0 0 0 94 98 85
-0.208683 -0.0295046 0.0163519 0 0 0 90 93 100
-0.222956 -0.0330017 -0.0598426 0 0 0 86 82 55
-0.123976 -0.0397522 -0.0640804 0 0 0 72 90 50
-0.192486 -0.0205718 -0.0635065 0 0 0 73 51 22
-0.166991 -0.00545116 -0.0588939 0 0 0 80 34 26
-0.10524 -0.00755332 -0.0633089 0 0 0 93 98 93
-0.0323964 -0.0386145 -0.0669414 0 0 0 83 113 78
-0.0212242 -0.0350703 -0.0692733 0 0 0 106 114 81
-0.183574 -0.0256268 -0.0646295 0 0 0 108 101 106
-0.176299 -0.0204079 -0.0656446 0 0 0 79 54 41
-0.0583822 -0.0122375 -0.0629127 0 0 0 36 33 47
-0.205794 -0.0256992 -0.0649323 0 0 0 101 105 105
-0.0640575 -0.0330848 -0.0669471 0 0 0 97 111 99
-0.179886 -0.0120134 -0.0609228 0 0 0 97 96 94
-0.0938718 -0.0142674 -0.0642785 0 0 0 57 63 67
-0.111246 -0.0127475 -0.0650163 0 0 0 95 102 98
-0.18865 -0.00797317 -0.061513 0 0 0 72 47 20
-0.187924 -0.0378733 -0.0617548 0 0 0 65 93 51
-0.0847348 -0.0211933 -0.0658682 0 0 0 104 111 109
-0.0248846 -0.0257085 -0.0686538 0 0 0 71 100 46
-0.185189 -0.00553848 -0.0604305 0 0 0 78 50 15
-0.0642123 -0.0292366 -0.0663002 0 0 0 90 107 63
-0.0838474 -0.0250264 -0.0658263 0 0 0 106 111 107
-0.210313 -0.0345904 -0.0600263 0 0 0 59 72 45
