ply
format ascii 1.0
element vertex 50
property float x
property float y
property float z
property float nx
property float ny
property float nz
property uchar diffuse_red
property uchar diffuse_green
property uchar diffuse_blue
end_header
-0.152407 -0.0523255 -0.0546472 0 0 0 231 231 236
-0.194294 -0.0523449 -0.0551068 0 0 0 216 219 218
-0.153921 -0.052388 -0.0545507 0 0 0 232 232 237
-0.175089 -0.0536869 -0.0575557 0 0 0 218 221 221
-0.203103 -0.0517878 -0.0532716 0 0 0 213 217 218
-0.112051 -0.0517438 -0.0582807 0 0 0 204 215 239
-0.194505 -0.0418987 -0.062243 0 0 0 63 93 62
-0.224248 -0.0403366 0.00937447 0 0 0 82 86 96
-0.197667 -0.00285933 0.00824555 0 0 0 88 93 96
-0.211424 -0.00430154 0.00914558 0 0 0 95 93 106
-0.13814 -0.0240842 -0.0672235 0 0 0 78 87 87
-0.136934 -0.0475058 -0.0583163 0 0 0 177 201 209
-0.226944 0.00583273 -0.00109789 0 0 0 93 97 105
-0.164087 0.00430391 -0.0505461 0 0 0 95 92 89
-0.188195 0.00617048 -0.0459331 0 0 0 46 34 53
-0.200206 -0.0100482 -0.0642036 0 0 0 113 114 105
-0.189452 0.00337236 -0.0535465 0 0 0 109 110 101
-0.120178 0.00521591 -0.05488 0 0 0 81 86 82
-0.146672 0.00537736 -0.0452001 0 0 0 56 69 50
-0.041427 0.00325272 -0.0576745 0 0 0 88 98 92
-0.0791851 -0.00688809 -0.0634805 0 0 0 96 103 95
-0.202061 -0.0488403 -0.0568357 0 0 0 216 227 221
-0.091052 0.00252697 -0.0532476 0 0 0 93 97 87
-0.192751 -0.0197092 -0.0642991 0 0 0 71 51 21
-0.212138 -0.0457278 0.00934806 0 0 0 80 83 91
-0.124121 -0.0397616 -0.0646647 0 0 0 71 90 45
-0.103854 -0.00858078 -0.06442 0 0 0 92 98 92
-0.165998 -0.00449523 -0.0581932 0 0 0 69 36 22
-0.0588605 -0.0068298 -0.0626193 0 0 0 33 28 36
-0.0642168 -0.0328991 -0.0673582 0 0 0 98 109 98
-0.205774 -0.00872362 0.0100544 0 0 0 116 123 121
-0.0299327 -0.0366784 -0.0682128 0 0 0 86 117 76
-0.21906 -0.00993915 -0.0593985 0 0 0 82 83 65
-0.180857 -0.00352574 -0.0573272 0 0 0 73 53 21
-0.180142 -0.0122026 -0.061909 0 0 0 98 96 96
-0.205986 -0.0260095 -0.0659168 0 0 0 101 102 108
-0.174525 -0.0244521 -0.0632992 0 0 0 76 64 80
-0.0957198 -0.0143044 -0.0647451 0 0 0 60 66 78
-0.188729 -0.0380055 -0.0633506 0 0 0 65 92 47
-0.174474 -0.0255935 -0.0634826 0 0 0 84 70 88
-0.111485 -0.0127186 -0.0657449 0 0 0 95 102 98
-0.0835929 -0.0349664 -0.0679842 0 0 0 55 38 32
-0.0879763 -0.0223376 -0.0677967 0 0 0 107 114 118
-0.187672 -0.00715634 -0.0608453 0 0 0 80 48 25
-0.0275037 -0.0267977 -0.0695233 0 0 0 73 102 50
-0.0840394 -0.0249042 -0.0663672 0 0 0 105 112 108
-0.11645 -0.0239798 -0.0677372 0 0 0 60 52 53
-0.145258 -0.00588159 -0.0621994 0 0 0 89 110 94
-0.109237 -0.0350961 -0.0663295 0 0 0 119 121 120
-0.185469 -0.00574345 -0.0614822 0 0 0 77 48 38
