ply
format ascii 1.0
element vertex 51
property float x
property float y
property float z
property float nx
property float ny
property float nz
property uchar diffuse_red
property uchar diffuse_green
property uchar diffuse_blue
end_header
-0.0655683 -0.0531164 -0.0583015 0 0 0 245 247 250
-0.209545 -0.0525977 -0.0520261 0 0 0 215 217 218
-0.205301 -0.0524465 -0.0520334 0 0 0 216 220 219
-0.154747 -0.0528618 -0.053419 0 0 0 233 235 240
-0.100647 -0.0535565 -0.0541504 0 0 0 226 231 238
-0.22246 -0.0452997 0.00911864 0 0 0 82 85 95
-0.195979 -0.0424092 -0.0618333 0 0 0 63 90 60
-0.132779 -0.0238635 -0.0682607 0 0 0 75 86 86
-0.147057 -0.0357409 -0.0593468 0 0 0 51 52 56
-0.211516 -0.00718342 0.0107857 0 0 0 98 102 110
-0.233016 -0.0164392 -0.0642159 0 0 0 41 52 46
-0.0818619 -0.038765 -0.0687561 0 0 0 66 84 69
-0.165557 0.00401293 -0.051875 0 0 0 99 92 86
-0.15176 -0.0401353 -0.0636326 0 0 0 63 65 77
-0.185009 0.00705236 -0.0432033 0 0 0 71 63 58
-0.200345 -0.010513 -0.0638812 0 0 0 116 115 104
-0.1896 0.00296704 -0.0532907 0 0 0 110 114 106
-0.0327495 -0.00711843 -0.0665621 0 0 0 57 81 49
-0.0785941 -0.00702267 -0.0628483 0 0 0 94 102 96
-0.0919206 0.00243124 -0.0539739 0 0 0 92 98 82
-0.223865 -0.0326992 -0.0610135 0 0 0 92 93 64
-0.192861 -0.0201522 -0.0639737 0 0 0 71 50 27
-0.187576 -0.00216716 -0.0573472 0 0 0 76 52 47
-0.189313 -0.0527151 -0.0540164 0 0 0 219 221 221
-0.146239 0.00750706 -0.0439536 0 0 0 104 91 30
-0.122549 0.00364625 -0.055596 0 0 0 80 85 79
-0.124174 -0.0400017 -0.0644902 0 0 0 70 91 76
-0.166137 -0.00484298 -0.0579864 0 0 0 71 37 30
-0.059006 -0.00687113 -0.0627232 0 0 0 31 28 36
-0.0995688 -0.0075104 -0.0616004 0 0 0 87 96 82
-0.135938 -0.0434601 -0.0614933 0 0 0 86 96 92
-0.179409 -0.0135717 -0.0626205 0 0 0 120 125 110
-0.0602683 -0.0119716 -0.0648643 0 0 0 36 31 50
-0.18165 -0.00388627 -0.0578413 0 0 0 73 54 24
-0.206082 -0.0264958 -0.0655359 0 0 0 104 104 107
-0.0627988 -0.033105 -0.0660578 0 0 0 100 109 102
-0.188783 -0.0384339 -0.0629896 0 0 0 67 92 55
-0.0454413 0.000515747 -0.0599649 0 0 0 98 95 77
-0.0942379 -0.0143226 -0.0649132 0 0 0 56 59 68
-0.188258 -0.029038 -0.0639154 0 0 0 111 103 108
-0.220112 -0.0474074 0.00792762 0 0 0 82 88 98
-0.110905 -0.0129651 -0.0649804 0 0 0 95 101 94
-0.188408 -0.00866268 -0.0615107 0 0 0 74 46 26
-0.0850544 -0.0212033 -0.0664294 0 0 0 101 111 108
-0.214903 -0.0438184 0.0101803 0 0 0 80 86 89
-0.0841419 -0.0250299 -0.0663498 0 0 0 104 110 105
-0.137954 -0.00448744 -0.060857 0 0 0 75 84 78
-0.185613 -0.00615754 -0.0612145 0 0 0 77 51 36
-0.110895 -0.0353988 -0.0660404 0 0 0 115 120 116
-0.211173 -0.0352849 -0.0613312 0 0 0 60 73 50
-0.0276104 -0.0267638 -0.0696682 0 0 0 73 100 50
