ply
format ascii 1.0
element vertex 60
property float x
property float y
property float z
property float nx
property float ny
property float nz
property uchar diffuse_red
property uchar diffuse_green
property uchar diffuse_blue
end_header
-0.204275 -0.0511039 -0.0515068 0 0 0 216 218 219
-0.210375 -0.0508755 -0.0538733 0 0 0 214 216 217
-0.0538294 -0.0526622 -0.0568313 0 0 0 214 232 248
-0.130457 -0.0519202 -0.0563201 0 0 0 238 239 243
-0.09798 -0.0516264 -0.0534495 0 0 0 235 243 242
-0.154835 -0.0513803 -0.0558658 0 0 0 234 234 239
-0.221314 -0.043581 0.00799396 0 0 0 81 85 96
-0.0538612 -0.0321281 -0.0672184 0 0 0 99 118 107
-0.194 -0.0527947 -0.0535334 0 0 0 218 220 217
-0.160546 -0.0522615 -0.0516219 0 0 0 220 222 223
-0.236645 -0.0209746 -0.0608834 0 0 0 127 141 170
-0.126878 -0.0241081 -0.0666457 0 0 0 83 91 89
-0.235327 -0.00498916 -0.0574749 0 0 0 154 152 134
-0.149232 -0.034365 -0.0623769 0 0 0 43 49 67
-0.211124 -0.00172204 0.00691237 0 0 0 91 94 105
-0.163963 0.006511 -0.0526455 0 0 0 97 99 72
-0.188793 0.00431139 -0.0534849 0 0 0 109 113 100
-0.15631 0.00667448 -0.0475213 0 0 0 105 121 117
-0.0774733 -0.0383466 -0.0669092 0 0 0 71 92 72
-0.199609 -0.00908607 -0.0641078 0 0 0 115 114 105
-0.22631 -0.00988813 0.0141692 0 0 0 93 95 101
-0.229973 -0.00912136 0.0151088 0 0 0 88 91 97
-0.197445 -0.0402226 0.00994184 0 0 0 73 86 94
-0.120603 -0.0455632 -0.0626801 0 0 0 131 152 173
-0.121733 0.00450842 -0.0556269 0 0 0 81 87 80
-0.0799985 -0.00762683 -0.0650107 0 0 0 96 103 98
-0.201456 -0.0413995 0.00815066 0 0 0 81 86 91
-0.0199263 -0.034366 -0.0704016 0 0 0 127 117 109
-0.197929 0.000179053 -0.0547233 0 0 0 56 45 38
-0.092686 0.00165957 -0.0539396 0 0 0 85 91 76
-0.186149 -0.000866848 -0.056769 0 0 0 75 52 28
-0.19215 -0.0198945 -0.0643635 0 0 0 73 52 22
-0.215907 -0.0447604 0.00952217 0 0 0 80 84 86
-0.123651 -0.0391226 -0.0645458 0 0 0 71 92 41
-0.16604 -0.00363012 -0.0588774 0 0 0 71 36 40
-0.0574482 -0.00779493 -0.0621461 0 0 0 30 24 45
-0.10402 -0.00675746 -0.064878 0 0 0 90 97 92
-0.176001 -0.018626 -0.0662725 0 0 0 70 31 33
-0.0580432 -0.0116398 -0.0634254 0 0 0 36 31 50
-0.179553 -0.0113206 -0.0618192 0 0 0 99 98 92
-0.0648149 -0.0193828 -0.0674812 0 0 0 33 17 38
-0.0695429 -0.0302064 -0.0668321 0 0 0 73 70 85
-0.0637195 -0.0325198 -0.0672855 0 0 0 99 111 96
-0.183283 -0.0238382 -0.0652334 0 0 0 113 111 108
-0.199698 -0.00306657 -0.0575991 0 0 0 78 69 40
-0.205457 -0.0250264 -0.0657839 0 0 0 103 102 107
-0.0460359 -0.0354203 -0.0698115 0 0 0 75 106 64
-0.113051 -0.0158646 -0.0668108 0 0 0 95 102 97
-0.187604 -0.037182 -0.0624384 0 0 0 66 93 55
-0.109266 -0.0132336 -0.0660456 0 0 0 96 103 99
-0.188312 -0.00728043 -0.0624742 0 0 0 71 47 26
-0.0826612 -0.0230041 -0.0669875 0 0 0 106 111 110
-0.0826108 -0.0242625 -0.067187 0 0 0 105 110 108
-0.110335 -0.0346148 -0.0660616 0 0 0 117 121 119
-0.0843419 -0.0218623 -0.0665803 0 0 0 105 113 109
-0.184202 -0.00487622 -0.0606385 0 0 0 78 51 36
-0.0270354 -0.0252488 -0.0692722 0 0 0 70 100 50
-0.109561 -0.031994 -0.0665355 0 0 0 107 119 122
-0.143802 -0.00498287 -0.0629718 0 0 0 84 88 81
-0.14469 -0.0039686 -0.0619545 0 0 0 84 105 97
