ply
format ascii 1.0
element vertex 46
property float x
property float y
property float z
property float nx
property float ny
property float nz
property uchar diffuse_red
property uchar diffuse_green
property uchar diffuse_blue
end_header
-0.20008 -0.0511385 -0.0540686 0 0 0 217 218 219
-0.103335 -0.0536108 -0.0513696 0 0 0 215 220 237
-0.155266 -0.0518764 -0.0554807 0 0 0 233 232 238
-0.155266 -0.0518764 -0.0554807 0 0 0 233 232 238
-0.0618044 -0.050434 -0.063334 0 0 0 215 231 248
-0.0668798 -0.0288254 -0.0672451 0 0 0 82 101 85
-0.209368 -0.00450118 0.00785288 0 0 0 104 108 106
-0.13599 -0.023801 -0.0663512 0 0 0 82 88 85
-0.151144 -0.0347046 -0.0635392 0 0 0 50 51 65
-0.0818813 -0.0383837 -0.0687426 0 0 0 67 83 71
-0.227929 -0.0117529 0.0145464 0 0 0 91 96 99
-0.122432 0.00417027 -0.0556222 0 0 0 81 85 82
-0.164098 0.00462433 -0.0502883 0 0 0 97 94 95
-0.184851 0.00776958 -0.0430809 0 0 0 68 66 62
-0.0918025 0.0028866 -0.0540745 0 0 0 93 97 85
-0.136 -0.0455824 -0.0601313 0 0 0 118 124 157
-0.197712 -0.00998901 -0.060569 0 0 0 115 114 110
-0.185626 0.000702155 -0.0545352 0 0 0 80 63 39
-0.0784658 -0.00789788 -0.0631473 0 0 0 97 104 98
-0.175976 -0.0193186 -0.0651579 0 0 0 71 35 32
-0.189478 0.00366126 -0.0531426 0 0 0 109 113 108
-0.192174 -0.019542 -0.062974 0 0 0 70 52 21
-0.221124 -0.0272412 -0.061489 0 0 0 83 63 60
-0.166046 -0.00422142 -0.0578719 0 0 0 71 34 25
-0.124185 -0.0395034 -0.0643641 0 0 0 73 90 51
-0.100218 -0.00703077 -0.0623379 0 0 0 87 96 87
-0.058933 -0.00652503 -0.0628767 0 0 0 28 29 37
-0.212475 -0.0357894 0.0133242 0 0 0 82 88 95
-0.0587051 -0.0117035 -0.0636784 0 0 0 37 33 43
-0.206063 -0.0258029 -0.0652454 0 0 0 102 103 107
-0.179402 -0.0117987 -0.0622666 0 0 0 111 120 123
-0.0643005 -0.0326251 -0.0674299 0 0 0 97 111 98
-0.188786 -0.0377741 -0.062703 0 0 0 66 94 53
-0.0941883 -0.0138986 -0.064951 0 0 0 57 60 69
-0.207275 -0.0160814 -0.0629398 0 0 0 44 24 8
-0.184929 -0.00440255 -0.0601092 0 0 0 75 50 31
-0.0677872 -0.0290058 -0.0663381 0 0 0 69 76 93
-0.11157 -0.0124606 -0.0656759 0 0 0 95 102 99
-0.0415603 0.000263436 -0.0641056 0 0 0 106 105 84
-0.187733 -0.00690997 -0.0603882 0 0 0 80 47 22
-0.0850253 -0.0208066 -0.0664673 0 0 0 104 110 109
-0.0841218 -0.024635 -0.0663771 0 0 0 105 111 112
-0.027662 -0.0251867 -0.0696286 0 0 0 70 101 50
-0.107877 -0.0349888 -0.0647552 0 0 0 112 120 118
-0.186841 -0.0271693 -0.0635247 0 0 0 112 116 110
-0.210387 -0.0344109 -0.0617745 0 0 0 63 83 43
