ply
format ascii 1.0
element vertex 52
property float x
property float y
property float z
property float nx
property float ny
property float nz
property uchar diffuse_red
property uchar diffuse_green
property uchar diffuse_blue
end_header
-0.210291 -0.0508625 -0.0557799 0 0 0 214 218 221
-0.131418 -0.0545446 -0.0541708 0 0 0 235 238 244
-0.220831 -0.0483356 0.00608226 0 0 0 80 89 96
-0.152959 -0.0542489 -0.0524671 0 0 0 230 233 239
-0.23563 -0.0225647 -0.0599113 0 0 0 120 138 172
-0.126738 -0.0247694 -0.068277 0 0 0 84 89 84
-0.215402 -0.00624399 0.0110409 0 0 0 93 101 115
-0.237289 -0.00842166 -0.0609247 0 0 0 178 184 162
-0.153684 -0.0342363 -0.0636838 0 0 0 52 52 62
-0.224129 0.00485001 -0.00168732 0 0 0 88 95 103
-0.23346 -0.042929 0.0136336 0 0 0 179 191 210
-0.236187 -0.0156964 -0.0628405 0 0 0 114 119 182
-0.171013 -0.0465101 -0.0590873 0 0 0 141 168 170
-0.168229 0.00191499 -0.0564502 0 0 0 97 103 94
-0.232059 -0.0117959 0.0143 0 0 0 86 92 100
-0.187879 0.00424282 -0.0521544 0 0 0 97 102 83
-0.189793 0.00601117 -0.0486264 0 0 0 48 30 43
-0.197466 0.000238819 -0.055786 0 0 0 67 50 52
-0.198517 -0.0104186 -0.063019 0 0 0 110 108 97
-0.0161651 -0.0168036 -0.0686758 0 0 0 78 98 69
-0.0808142 -0.0082208 -0.0655146 0 0 0 92 99 94
-0.0165086 -0.0347385 -0.0689216 0 0 0 152 149 139
-0.0322786 -0.00617282 -0.0641486 0 0 0 54 77 52
-0.124307 -0.0399389 -0.065313 0 0 0 68 90 35
-0.224585 -0.0462924 0.00722637 0 0 0 86 95 110
-0.166251 -0.00469356 -0.0591655 0 0 0 67 33 20
-0.22125 -0.0113369 -0.0616778 0 0 0 82 84 70
-0.0564569 -0.0275233 -0.0664866 0 0 0 88 96 86
-0.192263 -0.0211212 -0.0647927 0 0 0 72 51 27
-0.219763 -0.0133939 -0.061976 0 0 0 91 89 87
-0.182064 -0.0251583 -0.0640902 0 0 0 102 110 110
-0.123363 0.00372078 -0.0571165 0 0 0 76 80 78
-0.196813 -0.041658 0.0111934 0 0 0 70 85 96
-0.0994315 -0.00852769 -0.0639639 0 0 0 78 86 81
-0.175437 -0.0198247 -0.0658612 0 0 0 69 31 37
-0.029462 -0.0384529 -0.066321 0 0 0 86 115 84
-0.0400059 -0.0411666 -0.0688521 0 0 0 84 117 81
-0.205597 -0.0252327 -0.0661104 0 0 0 98 93 112
-0.207467 -0.0154514 -0.0645661 0 0 0 51 23 19
-0.188923 -0.0382358 -0.0643726 0 0 0 64 91 55
-0.184462 -0.00490532 -0.0608466 0 0 0 67 46 24
-0.0233896 0.00109364 -0.0622907 0 0 0 48 77 31
-0.187907 -0.00737983 -0.0619352 0 0 0 74 40 13
-0.111688 -0.0128876 -0.0663858 0 0 0 92 97 92
-0.0846653 -0.039333 -0.0665665 0 0 0 59 54 72
-0.058849 -0.0121212 -0.0637911 0 0 0 34 29 50
-0.111006 -0.0353636 -0.066747 0 0 0 110 121 115
-0.0276749 -0.0269027 -0.0696502 0 0 0 68 101 45
-0.138098 -0.00320601 -0.0616034 0 0 0 65 78 77
-0.208892 -0.0342774 -0.0595763 0 0 0 63 69 49
-0.208047 -0.000675412 -0.0566603 0 0 0 72 69 34
-0.200026 0.0031144 -0.0529062 0 0 0 47 33 35
