ply
format ascii 1.0
element vertex 49
property float x
property float y
property float z
property float nx
property float ny
property float nz
property uchar diffuse_red
property uchar diffuse_green
property uchar diffuse_blue
end_header
-0.0170552 -0.051607 -0.0587344 0 0 0 241 248 247
-0.153769 -0.0519759 -0.0543001 0 0 0 232 232 235
-0.192067 -0.0519265 -0.0539955 0 0 0 217 219 218
-0.0429417 -0.0408093 -0.0697906 0 0 0 85 114 80
-0.106973 -0.0509161 -0.0602516 0 0 0 235 246 247
-0.184688 -0.0268062 0.0143966 0 0 0 178 186 167
-0.066638 -0.028865 -0.0672023 0 0 0 83 102 78
-0.193715 -0.0415206 -0.0611207 0 0 0 62 92 54
-0.23683 -0.00760015 -0.0591218 0 0 0 180 182 164
-0.237539 -0.00881217 -0.0585422 0 0 0 164 158 133
-0.21438 -0.024029 0.0148561 0 0 0 88 93 102
-0.1326 -0.0246601 -0.0669077 0 0 0 81 87 87
-0.153705 -0.0405762 -0.0644803 0 0 0 75 75 78
-0.190641 0.00371241 -0.0532464 0 0 0 107 110 92
-0.199364 -0.00960945 -0.0631019 0 0 0 113 115 113
-0.0809204 -0.0384628 -0.0681115 0 0 0 68 85 73
-0.166426 0.00365864 -0.0535438 0 0 0 105 102 93
-0.184584 0.00790226 -0.0431767 0 0 0 67 69 61
-0.123706 0.00405727 -0.0554301 0 0 0 82 85 80
-0.125943 -0.050543 -0.0580948 0 0 0 227 238 243
-0.0789231 -0.00789172 -0.0637142 0 0 0 97 104 98
-0.231292 -0.00964489 0.0136947 0 0 0 86 94 99
-0.185946 -0.000216356 -0.0556147 0 0 0 77 48 43
-0.191873 -0.0204175 -0.0633919 0 0 0 72 52 24
-0.0429968 -0.0394986 -0.0695817 0 0 0 83 114 81
-0.123976 -0.0394184 -0.064519 0 0 0 70 91 37
-0.202075 -0.0486118 -0.0548813 0 0 0 216 226 223
-0.165721 -0.00522274 -0.0581581 0 0 0 79 35 23
-0.101382 -0.00694019 -0.0636659 0 0 0 86 95 87
-0.183598 -0.0254031 -0.0652314 0 0 0 107 100 105
-0.175716 -0.0191057 -0.0653546 0 0 0 72 32 33
-0.044758 0.00290867 -0.0556916 0 0 0 100 117 85
-0.0606342 -0.0129421 -0.0657246 0 0 0 40 32 63
-0.0651946 -0.0195355 -0.0675811 0 0 0 32 20 33
-0.205818 -0.0255173 -0.06555 0 0 0 88 103 108
-0.180594 -0.0117048 -0.0623946 0 0 0 97 95 95
-0.207013 -0.0158035 -0.0632029 0 0 0 48 22 9
-0.0939166 -0.0138832 -0.0649105 0 0 0 57 60 66
-0.0648168 -0.0325973 -0.0680582 0 0 0 97 111 93
-0.111293 -0.0124002 -0.065674 0 0 0 97 101 95
-0.187929 -0.0376326 -0.0622564 0 0 0 66 91 54
-0.0227871 -0.0344548 -0.0709363 0 0 0 105 115 89
-0.145681 -0.00663766 -0.0629543 0 0 0 95 114 102
-0.0610646 -0.028834 -0.0657104 0 0 0 94 110 77
-0.0847134 -0.0220625 -0.0666351 0 0 0 104 111 108
-0.183994 -0.00422678 -0.0594973 0 0 0 73 52 33
-0.116285 -0.023655 -0.067636 0 0 0 58 51 56
-0.107656 -0.0349412 -0.0648471 0 0 0 113 121 120
-0.0249062 -0.0252394 -0.0691381 0 0 0 72 100 50
