ply
format ascii 1.0
element vertex 54
property float x
property float y
property float z
property float nx
property float ny
property float nz
property uchar diffuse_red
property uchar diffuse_green
property uchar diffuse_blue
end_header
-0.211269 -0.0511547 -0.0529267 0 0 0 215 216 216
-0.0548707 -0.0528735 -0.0558891 0 0 0 225 238 246
-0.0548707 -0.0528735 -0.0558891 0 0 0 225 238 246
-0.130563 -0.0519927 -0.0562315 0 0 0 237 238 240
-0.191854 -0.0527053 -0.0542111 0 0 0 217 219 220
-0.107678 -0.0508877 -0.0592884 0 0 0 232 235 242
-0.183202 -0.0238975 0.0147137 0 0 0 199 222 179
-0.047811 -0.0410202 -0.0687818 0 0 0 82 115 84
-0.0480752 -0.0344943 -0.0677418 0 0 0 71 101 60
-0.219864 -0.0460468 0.00781264 0 0 0 83 85 98
-0.0625065 -0.0288264 -0.0653055 0 0 0 86 107 73
-0.212128 -0.0271831 0.0150633 0 0 0 91 94 101
-0.190181 -0.0450495 -0.0578577 0 0 0 131 152 165
-0.090723 -0.051203 -0.0550776 0 0 0 243 246 249
-0.236447 -0.0103474 -0.0597272 0 0 0 197 200 173
-0.149354 -0.034444 -0.0622567 0 0 0 50 53 60
-0.209149 -0.00297456 0.00776764 0 0 0 99 100 110
-0.215213 -0.00745169 0.0105252 0 0 0 97 102 108
-0.153503 -0.0402889 -0.0644583 0 0 0 75 75 82
-0.160733 0.00514758 -0.0488985 0 0 0 102 92 90
-0.0776995 -0.0358435 -0.0664556 0 0 0 65 59 60
-0.0349793 0.00268911 -0.0580399 0 0 0 89 105 79
-0.195335 0.00368388 -0.0540105 0 0 0 88 80 58
-0.226982 -0.00885918 0.0137117 0 0 0 94 97 103
-0.199108 -0.0092405 -0.0631452 0 0 0 117 115 106
-0.0801388 -0.00766196 -0.0649345 0 0 0 96 103 94
-0.188287 0.0041784 -0.0525222 0 0 0 109 114 103
-0.121871 0.00444066 -0.0555019 0 0 0 81 85 82
-0.185685 0.000128173 -0.0556378 0 0 0 76 49 43
-0.123771 -0.0391844 -0.0644535 0 0 0 69 91 46
-0.222148 -0.0324831 -0.0596932 0 0 0 85 84 59
-0.192282 -0.0199978 -0.0641916 0 0 0 73 51 29
-0.165511 -0.0037575 -0.0579676 0 0 0 71 37 28
-0.104161 -0.00680719 -0.0647785 0 0 0 90 97 92
-0.183368 -0.0250623 -0.0652525 0 0 0 107 102 109
-0.0638469 -0.0325432 -0.0672443 0 0 0 96 110 96
-0.175474 -0.018779 -0.0653638 0 0 0 70 37 37
-0.0581795 -0.0116629 -0.063373 0 0 0 36 33 47
-0.205587 -0.0251366 -0.0656036 0 0 0 102 102 107
-0.179688 -0.0114183 -0.0616523 0 0 0 97 100 95
-0.23576 -0.0273241 -0.0624327 0 0 0 81 88 89
-0.190463 -0.0371655 -0.0637814 0 0 0 65 91 48
-0.111039 -0.0121889 -0.0655885 0 0 0 96 101 94
-0.0649505 -0.0194068 -0.0674285 0 0 0 33 18 41
-0.206768 -0.0154208 -0.0632577 0 0 0 47 23 9
-0.184385 -0.00384906 -0.0602823 0 0 0 74 51 37
-0.084526 -0.0206425 -0.066311 0 0 0 103 112 107
-0.18845 -0.00738295 -0.0622958 0 0 0 73 46 27
-0.113901 -0.0158658 -0.067409 0 0 0 95 101 94
-0.0827431 -0.0242975 -0.0671215 0 0 0 103 110 107
-0.210117 -0.0339861 -0.0606329 0 0 0 59 74 46
-0.107444 -0.0347365 -0.0647574 0 0 0 114 120 120
-0.0959539 -0.0150238 -0.0654951 0 0 0 47 56 71
-0.027169 -0.0252486 -0.0692597 0 0 0 70 101 46
