ply
format ascii 1.0
element vertex 46
property float x
property float y
property float z
property float nx
property float ny
property float nz
property uchar diffuse_red
property uchar diffuse_green
property uchar diffuse_blue
end_header
-0.107708 -0.0534352 -0.0519544 0 0 0 213 221 240
-0.175574 -0.0514593 -0.0568796 0 0 0 220 222 222
-0.204429 -0.0509758 -0.0502321 0 0 0 215 218 219
-0.211208 -0.0494842 -0.0531556 0 0 0 216 220 219
-0.230711 -0.0465435 0.0089356 0 0 0 149 156 189
-0.0674382 -0.0277636 -0.0655123 0 0 0 64 56 81
-0.236817 -0.0196357 -0.0590112 0 0 0 141 156 165
-0.235393 -0.00473688 -0.0556826 0 0 0 154 150 134
-0.164748 0.00520389 -0.0506395 0 0 0 97 93 87
-0.184129 0.00837647 -0.0418586 0 0 0 68 69 60
-0.1209 0.00460743 -0.0554196 0 0 0 80 86 80
-0.0785354 -0.0358491 -0.0666743 0 0 0 63 57 73
-0.0786449 -0.00784453 -0.0629655 0 0 0 95 105 98
-0.188159 0.00437857 -0.0511828 0 0 0 108 115 104
-0.230629 -0.0104232 0.0149281 0 0 0 86 92 100
-0.199733 -0.00888895 -0.0625891 0 0 0 114 114 103
-0.222187 -0.0321262 -0.0583625 0 0 0 87 83 57
-0.206213 -0.006788 0.0119256 0 0 0 118 126 116
-0.166072 -0.00471456 -0.0577463 0 0 0 79 33 23
-0.192306 -0.0197161 -0.0629673 0 0 0 74 52 26
-0.123158 -0.0392276 -0.0630474 0 0 0 73 88 33
-0.0615184 -0.0326543 -0.0664593 0 0 0 98 114 96
-0.182757 -0.0248829 -0.0633577 0 0 0 108 101 110
-0.102504 -0.00791957 -0.0643911 0 0 0 87 99 84
-0.175502 -0.0185473 -0.0642329 0 0 0 71 33 33
-0.0575588 -0.0080045 -0.0616021 0 0 0 31 25 43
-0.0581734 -0.0118392 -0.0629025 0 0 0 36 32 38
-0.179667 -0.011194 -0.060454 0 0 0 99 96 92
-0.204999 -0.0248822 -0.0635561 0 0 0 102 102 103
-0.180288 -0.00253293 -0.0558287 0 0 0 74 52 25
-0.206174 -0.0140619 -0.0609615 0 0 0 53 23 22
-0.0649947 -0.0195366 -0.066962 0 0 0 33 20 35
-0.125786 -0.0475701 -0.0585472 0 0 0 176 208 229
-0.0952411 -0.0151166 -0.0641355 0 0 0 44 55 82
-0.162107 -0.0359909 -0.061515 0 0 0 99 110 92
-0.0837838 -0.022034 -0.0652698 0 0 0 105 110 108
-0.113214 -0.0158893 -0.0659351 0 0 0 94 100 94
-0.189098 -0.0368307 -0.0627029 0 0 0 65 94 49
-0.18842 -0.00712541 -0.0610217 0 0 0 73 50 13
-0.0247439 -0.0254398 -0.0687345 0 0 0 71 99 52
-0.111047 -0.0121738 -0.0648049 0 0 0 94 102 96
-0.0820621 -0.0244384 -0.0659062 0 0 0 107 110 103
-0.210167 -0.0336644 -0.0593828 0 0 0 61 70 54
-0.140069 -0.0347692 -0.0638266 0 0 0 101 105 78
-0.108961 -0.0345636 -0.0655049 0 0 0 116 118 120
-0.184946 -0.00469974 -0.0599588 0 0 0 78 52 29
