ply
format ascii 1.0
element vertex 55
property float x
property float y
property float z
property float nx
property float ny
property float nz
property uchar diffuse_red
property uchar diffuse_green
property uchar diffuse_blue
end_header
-0.154087 -0.0529391 -0.0546438 0 0 0 233 233 239
-0.204066 -0.0527459 -0.0525098 0 0 0 215 218 225
-0.210348 -0.052851 -0.0532925 0 0 0 213 217 215
-0.105528 -0.0512103 -0.0622719 0 0 0 226 231 241
-0.0336704 -0.0398222 -0.0667824 0 0 0 86 116 86
-0.21504 -0.0302404 0.0152824 0 0 0 88 93 97
-0.215361 -0.0467502 0.0109862 0 0 0 81 84 85
-0.215101 -0.00633746 0.00790396 0 0 0 94 99 107
-0.196169 -0.0427564 -0.0623025 0 0 0 63 90 57
-0.147323 -0.0347973 -0.0595606 0 0 0 45 47 51
-0.164535 0.0037159 -0.0508471 0 0 0 98 94 92
-0.0411856 0.00456916 -0.0572743 0 0 0 75 88 92
-0.204381 0.00219064 0.00651636 0 0 0 87 93 100
-0.185972 0.00676091 -0.0444986 0 0 0 69 68 60
-0.0411205 0.00324517 -0.0574818 0 0 0 85 99 97
-0.199959 -0.010911 -0.063624 0 0 0 115 116 107
-0.0795943 -0.00709689 -0.0638532 0 0 0 96 103 97
-0.189899 0.00264425 -0.0538093 0 0 0 106 111 92
-0.198258 -0.000295096 -0.0556451 0 0 0 71 58 59
-0.0948517 0.00447716 -0.0528613 0 0 0 92 95 81
-0.190106 -0.00279483 -0.0570366 0 0 0 89 85 59
-0.224076 -0.0331038 -0.0615401 0 0 0 92 91 72
-0.193094 -0.0204957 -0.0644672 0 0 0 71 51 23
-0.0959344 0.00093504 -0.0564262 0 0 0 87 89 76
-0.124364 -0.0402018 -0.0648476 0 0 0 70 91 77
-0.213944 -0.0466697 0.0109862 0 0 0 81 84 88
-0.166355 -0.00627954 -0.0586385 0 0 0 80 33 26
-0.209044 -0.000331928 -0.0547108 0 0 0 73 65 43
-0.0561969 -0.0350758 -0.0605753 0 0 0 107 124 99
-0.101936 -0.00880194 -0.0642348 0 0 0 88 99 85
-0.176243 -0.0202493 -0.0658157 0 0 0 72 34 37
-0.180677 -0.0031118 -0.0566324 0 0 0 73 54 22
-0.0605174 -0.0120383 -0.0651562 0 0 0 38 34 47
-0.198084 -0.0418547 0.00970384 0 0 0 72 83 98
-0.0465992 -0.0397029 -0.070799 0 0 0 82 114 76
-0.0831302 -0.035285 -0.0675664 0 0 0 51 42 40
-0.0310776 -0.038179 -0.0678071 0 0 0 89 117 82
-0.181176 -0.0128748 -0.062882 0 0 0 98 99 94
-0.225228 -0.0466738 0.00671747 0 0 0 87 95 108
-0.0854068 -0.0406137 -0.0672562 0 0 0 74 93 105
-0.206299 -0.0268691 -0.0660422 0 0 0 100 103 104
-0.0944818 -0.0144606 -0.0652564 0 0 0 58 62 67
-0.207565 -0.017158 -0.0637214 0 0 0 47 24 9
-0.188979 -0.0387675 -0.0634525 0 0 0 66 93 52
-0.111152 -0.0131381 -0.0653521 0 0 0 98 101 96
-0.186224 -0.0291136 -0.0652134 0 0 0 106 102 100
-0.0852815 -0.021324 -0.0667488 0 0 0 103 112 107
-0.188669 -0.0089937 -0.062012 0 0 0 71 46 26
-0.138224 -0.00471181 -0.0612831 0 0 0 74 83 76
-0.0278209 -0.0267682 -0.0698884 0 0 0 72 102 44
-0.211432 -0.0345666 -0.0616621 0 0 0 63 57 59
-0.185284 -0.00538438 -0.0607735 0 0 0 76 50 34
-0.18268 -0.025372 -0.06555 0 0 0 103 110 104
-0.111093 -0.0355731 -0.0663826 0 0 0 117 120 117
-0.231381 -0.0182267 0.0145673 0 0 0 88 91 96
