ply
format ascii 1.0
element vertex 49
property float x
property float y
property float z
property float nx
property float ny
property float nz
property uchar diffuse_red
property uchar diffuse_green
property uchar diffuse_blue
end_header
-0.210553 -0.0506773 -0.0534597 0 0 0 215 218 219
-0.204446 -0.0509198 -0.0511119 0 0 0 217 219 220
-0.0573258 -0.0541491 -0.0565667 0 0 0 242 244 246
-0.0581197 -0.0527344 -0.0570179 0 0 0 239 247 249
-0.108598 -0.0521784 -0.0585728 0 0 0 217 219 229
-0.108306 -0.0503768 -0.0615122 0 0 0 235 243 245
-0.153009 -0.0515945 -0.0534104 0 0 0 232 233 238
-0.153852 -0.0517616 -0.0525726 0 0 0 232 234 239
-0.229609 -0.0456951 0.0123492 0 0 0 157 172 197
-0.192835 -0.0395848 -0.0615387 0 0 0 64 92 67
-0.23541 -0.0058124 -0.057052 0 0 0 163 170 152
-0.222223 -0.0413261 0.0096648 0 0 0 80 87 93
-0.06572 -0.0287529 -0.0664 0 0 0 82 102 80
-0.212547 -0.00599529 0.0127285 0 0 0 95 103 107
-0.132413 -0.0242266 -0.0667232 0 0 0 82 86 87
-0.162726 0.00659841 -0.0507323 0 0 0 99 97 81
-0.150839 -0.0366629 -0.0623833 0 0 0 54 55 73
-0.229887 -0.00905629 0.0156771 0 0 0 89 93 102
-0.15421 0.0069071 -0.0464723 0 0 0 103 114 108
-0.185673 0.00720554 -0.0430632 0 0 0 46 33 53
-0.0761281 -0.0356734 -0.0666795 0 0 0 71 77 59
-0.199758 -0.00887933 -0.0636291 0 0 0 115 117 108
-0.188248 0.00445266 -0.0522339 0 0 0 108 112 98
-0.119613 0.00593134 -0.0545836 0 0 0 81 86 82
-0.078623 -0.00893295 -0.0637376 0 0 0 98 103 97
-0.223467 -0.0308699 -0.0608098 0 0 0 93 93 72
-0.186308 0.000434247 -0.0561293 0 0 0 79 48 35
-0.192315 -0.0196976 -0.0639322 0 0 0 72 53 25
-0.208697 0.0017417 -0.0546697 0 0 0 74 66 29
-0.166122 -0.00463741 -0.0586718 0 0 0 81 33 20
-0.123844 -0.0390212 -0.0643626 0 0 0 70 91 39
-0.183413 -0.0247783 -0.0650189 0 0 0 107 99 113
-0.104169 -0.00668301 -0.064678 0 0 0 89 97 89
-0.175508 -0.0185107 -0.0651367 0 0 0 71 34 32
-0.0624127 -0.0326492 -0.0659454 0 0 0 96 111 94
-0.0581947 -0.0116332 -0.0633734 0 0 0 36 32 51
-0.0688231 -0.0299959 -0.0676904 0 0 0 81 86 82
-0.205634 -0.0248075 -0.0653249 0 0 0 103 103 106
-0.0210825 -0.034585 -0.0695705 0 0 0 106 115 77
-0.180356 -0.011096 -0.0621623 0 0 0 96 96 94
-0.0642392 -0.0194147 -0.0667655 0 0 0 29 22 43
-0.20679 -0.0150929 -0.0629618 0 0 0 48 24 9
-0.0936882 -0.0136 -0.0647311 0 0 0 56 61 59
-0.11106 -0.0120497 -0.0654823 0 0 0 93 100 95
-0.191284 -0.0381482 -0.062941 0 0 0 66 94 61
-0.184988 -0.00465834 -0.0609586 0 0 0 76 49 16
-0.0247239 -0.0252118 -0.069016 0 0 0 71 100 46
-0.210213 -0.032557 -0.0601817 0 0 0 64 57 59
-0.187197 -0.0060589 -0.0603143 0 0 0 79 49 20
