ply
format ascii 1.0
element vertex 56
property float x
property float y
property float z
property float nx
property float ny
property float nz
property uchar diffuse_red
property uchar diffuse_green
property uchar diffuse_blue
end_header
-0.198723 -0.051787 -0.0542573 0 0 0 220 221 220
-0.153991 -0.0526536 -0.0541485 0 0 0 233 234 239
-0.153991 -0.0526536 -0.0541485 0 0 0 233 234 239
-0.109458 -0.0525848 -0.0609 0 0 0 224 224 235
-0.10864 -0.0511711 -0.0615811 0 0 0 234 245 246
-0.0468466 -0.0330745 -0.0696669 0 0 0 72 102 45
-0.218996 -0.0462883 0.0100121 0 0 0 80 86 93
-0.237448 -0.0216223 -0.060192 0 0 0 142 156 176
-0.235586 -0.00671403 -0.0561805 0 0 0 152 149 132
-0.151996 -0.0340033 -0.0641959 0 0 0 43 48 59
-0.123723 -0.0233814 -0.0675401 0 0 0 67 85 85
-0.0812417 -0.038799 -0.0681423 0 0 0 68 82 71
-0.20909 -0.00415846 0.00876137 0 0 0 98 100 108
-0.184288 0.00726097 -0.0439707 0 0 0 85 94 77
-0.22923 -0.0152909 -0.0621617 0 0 0 19 10 38
-0.198542 -0.0106366 -0.0614522 0 0 0 117 115 106
-0.189711 0.00298788 -0.0532281 0 0 0 109 115 91
-0.0794578 -0.00693782 -0.0636488 0 0 0 96 102 94
-0.1859 -0.0251445 0.0157811 0 0 0 104 103 108
-0.216119 -0.0473198 0.00983014 0 0 0 77 85 94
-0.0328803 -0.00704764 -0.066774 0 0 0 56 80 30
-0.0455789 0.00524373 -0.0539176 0 0 0 85 93 71
-0.223305 -0.0338712 -0.0601885 0 0 0 87 82 56
-0.0173271 -0.0344363 -0.0698486 0 0 0 152 149 125
-0.185849 4.19197e-05 -0.0546222 0 0 0 87 60 39
-0.125694 -0.039808 -0.065874 0 0 0 69 91 41
-0.193577 -0.021213 -0.0647978 0 0 0 72 52 22
-0.167536 -0.00591682 -0.0596271 0 0 0 81 32 22
-0.0731747 -0.0426103 -0.0667571 0 0 0 44 80 18
-0.185436 -0.0263716 -0.0650671 0 0 0 109 102 106
-0.0429371 0.000955164 -0.0613764 0 0 0 89 104 73
-0.197747 -0.0414539 0.0103441 0 0 0 75 83 97
-0.0934224 0.00127187 -0.0556738 0 0 0 90 95 68
-0.0583153 -0.00812969 -0.0624277 0 0 0 31 25 44
-0.217237 -0.0415641 0.0115944 0 0 0 81 87 93
-0.0980853 -0.00731378 -0.0618746 0 0 0 81 87 78
-0.0161809 -0.0179108 -0.0692299 0 0 0 83 97 46
-0.217036 -0.0123547 -0.059959 0 0 0 85 77 41
-0.0588862 -0.0119822 -0.063695 0 0 0 36 31 48
-0.138813 -0.0430782 -0.064303 0 0 0 89 96 91
-0.0629159 -0.0330478 -0.0661612 0 0 0 100 111 96
-0.206201 -0.0265075 -0.0653833 0 0 0 103 103 106
-0.207443 -0.0167927 -0.063065 0 0 0 50 23 8
-0.094362 -0.0142785 -0.0649951 0 0 0 54 59 68
-0.0671188 -0.0196921 -0.069024 0 0 0 29 21 43
-0.11103 -0.0129293 -0.0650337 0 0 0 96 101 94
-0.188241 -0.0385172 -0.0620852 0 0 0 66 94 55
-0.188528 -0.0086577 -0.061427 0 0 0 74 47 22
-0.184479 -0.00508236 -0.0594405 0 0 0 73 53 31
-0.085178 -0.0211578 -0.0665147 0 0 0 101 111 106
-0.0252377 -0.0266159 -0.0695268 0 0 0 72 102 45
-0.135953 -0.0019493 -0.0599051 0 0 0 73 81 75
-0.111011 -0.035365 -0.0660489 0 0 0 114 120 120
-0.212391 -0.0348876 -0.064272 0 0 0 63 88 45
-0.163671 -0.0179396 -0.0648723 0 0 0 91 104 30
-0.164596 -0.0157989 -0.0636961 0 0 0 80 77 42
