ply
format ascii 1.0
element vertex 45
property float x
property float y
property float z
property float nx
property float ny
property float nz
property uchar diffuse_red
property uchar diffuse_green
property uchar diffuse_blue
end_header
-0.107912 -0.0532114 -0.0597163 0 0 0 224 225 236
-0.195709 -0.0533083 -0.0551555 0 0 0 218 220 219
-0.176532 -0.0545764 -0.0575596 0 0 0 220 222 222
-0.129184 -0.0516868 -0.0580184 0 0 0 244 243 243
-0.192339 -0.0414541 -0.062942 0 0 0 67 90 53
-0.221237 -0.0292391 0.0103887 0 0 0 85 92 100
-0.213566 -0.00655878 0.00801846 0 0 0 93 96 103
-0.0917415 -0.0520642 -0.0559633 0 0 0 243 246 249
-0.132848 -0.0256778 -0.0671031 0 0 0 80 89 86
-0.0740095 -0.0378125 -0.0665854 0 0 0 73 93 56
-0.149088 -0.035926 -0.0618194 0 0 0 50 51 65
-0.223147 0.00277295 0.000201073 0 0 0 89 94 102
-0.231569 -0.0127599 0.0155333 0 0 0 88 92 100
-0.161477 0.00364142 -0.0491712 0 0 0 101 92 78
-0.0357239 -0.00115299 -0.0641058 0 0 0 67 85 59
-0.197435 0.000653742 -0.0545268 0 0 0 68 47 50
-0.122598 0.00324072 -0.0556986 0 0 0 81 86 80
-0.189656 0.00248332 -0.0536263 0 0 0 109 112 92
-0.199712 -0.0110256 -0.0635093 0 0 0 118 114 106
-0.0808164 -0.00726878 -0.0648597 0 0 0 96 101 90
-0.223244 -0.0332836 -0.0607529 0 0 0 91 91 78
-0.187827 -0.00170325 -0.0559412 0 0 0 85 74 50
-0.20875 -0.00157393 -0.054751 0 0 0 80 71 25
-0.135168 -0.045156 -0.0612264 0 0 0 78 97 123
-0.166112 -0.00644633 -0.0584449 0 0 0 82 31 23
-0.124145 -0.0403877 -0.0647017 0 0 0 75 90 48
-0.0181217 -0.0349645 -0.0685466 0 0 0 127 118 98
-0.192157 -0.0217889 -0.063786 0 0 0 73 53 32
-0.0544848 -0.0354879 -0.05896 0 0 0 103 122 107
-0.100306 -0.00784378 -0.0623447 0 0 0 87 96 86
-0.05827 -0.00722142 -0.0619666 0 0 0 29 26 39
-0.183846 -0.0267235 -0.0656028 0 0 0 108 101 108
-0.175341 -0.0204363 -0.0649395 0 0 0 70 34 34
-0.0602068 -0.013577 -0.0649959 0 0 0 26 35 47
-0.206064 -0.0269683 -0.0659978 0 0 0 97 102 105
-0.180933 -0.013011 -0.06274 0 0 0 100 97 97
-0.0942359 -0.0146753 -0.0649606 0 0 0 58 59 67
-0.190851 -0.0388825 -0.0641589 0 0 0 65 93 51
-0.0251456 -0.0256194 -0.0689642 0 0 0 71 100 47
-0.184387 -0.0055566 -0.0598458 0 0 0 77 52 39
-0.0880699 -0.0228179 -0.0678198 0 0 0 105 113 113
-0.188423 -0.0091256 -0.0618695 0 0 0 73 49 22
-0.110904 -0.0133357 -0.0650821 0 0 0 96 102 95
-0.107851 -0.035814 -0.0649685 0 0 0 116 120 120
-0.112869 -0.0168591 -0.0677674 0 0 0 96 101 97
