ply
format ascii 1.0
element vertex 57
property float x
property float y
property float z
property float nx
property float ny
property float nz
property uchar diffuse_red
property uchar diffuse_green
property uchar diffuse_blue
end_header
-0.199999 -0.0508766 -0.0525139 0 0 0 218 222 221
-0.199832 -0.0505969 -0.0540839 0 0 0 218 221 220
-0.155022 -0.0515605 -0.0554763 0 0 0 233 234 238
-0.106892 -0.0508405 -0.0600478 0 0 0 230 235 241
-0.230367 -0.0457521 0.00923523 0 0 0 135 143 165
-0.199013 -0.0428228 0.00771698 0 0 0 113 111 115
-0.0658078 -0.0276683 -0.0661184 0 0 0 75 77 88
-0.235455 -0.0061867 -0.0566806 0 0 0 163 169 153
-0.128111 -0.0503767 -0.0584134 0 0 0 242 242 243
-0.136288 -0.0234254 -0.0668049 0 0 0 82 86 83
-0.216093 -0.0027456 0.00860515 0 0 0 91 96 103
-0.14812 -0.033511 -0.0602826 0 0 0 44 50 59
-0.223714 0.00712398 -0.00247219 0 0 0 91 97 109
-0.216993 -0.0217787 0.0157685 0 0 0 89 95 103
-0.159273 0.00635169 -0.048259 0 0 0 106 112 101
-0.136572 -0.0455007 -0.0592132 0 0 0 119 124 164
-0.12189 0.0043101 -0.0551122 0 0 0 81 85 79
-0.185113 0.00796731 -0.0417644 0 0 0 36 29 40
-0.0391864 0.00216987 -0.0580352 0 0 0 85 102 74
-0.197241 -0.00940573 -0.0602255 0 0 0 116 117 104
-0.18894 0.00413566 -0.0526761 0 0 0 110 113 105
-0.222879 -0.0313135 -0.0597237 0 0 0 92 95 74
-0.0347332 -0.00588012 -0.066447 0 0 0 51 82 66
-0.186358 0.000101949 -0.0558119 0 0 0 77 49 33
-0.0787733 -0.00661877 -0.0631833 0 0 0 95 101 92
-0.207067 -0.00694767 0.0103454 0 0 0 117 122 114
-0.0412036 -0.000169855 -0.0620036 0 0 0 97 100 73
-0.12387 -0.0392762 -0.064234 0 0 0 74 89 44
-0.191709 -0.0200835 -0.0628928 0 0 0 74 54 32
-0.104224 -0.00691948 -0.0644956 0 0 0 89 98 89
-0.165502 -0.00498613 -0.0576492 0 0 0 81 35 20
-0.0608665 -0.00676529 -0.0628323 0 0 0 18 23 21
-0.0445119 0.00278462 -0.0553921 0 0 0 99 114 83
-0.0639477 -0.0326896 -0.0672053 0 0 0 96 110 96
-0.0597005 -0.0130274 -0.0647989 0 0 0 40 30 53
-0.17894 -0.0112978 -0.0619281 0 0 0 113 118 127
-0.205673 -0.0251339 -0.0650438 0 0 0 103 103 105
-0.184907 -0.0251708 -0.0647294 0 0 0 109 103 105
-0.158457 -0.00643418 -0.060717 0 0 0 106 92 16
-0.175509 -0.0199459 -0.0650684 0 0 0 80 54 39
-0.0471018 -0.0383822 -0.0693278 0 0 0 78 107 80
-0.0226801 -0.0345795 -0.0708338 0 0 0 104 114 99
-0.206835 -0.0154264 -0.0626545 0 0 0 47 23 8
-0.187813 -0.0373144 -0.0618357 0 0 0 66 93 54
-0.0937374 -0.0138268 -0.0645811 0 0 0 56 62 62
-0.0650372 -0.0195513 -0.0673324 0 0 0 35 23 44
-0.209182 -0.0357836 -0.0627839 0 0 0 52 82 12
-0.184429 -0.00389144 -0.0597098 0 0 0 73 53 38
-0.0239905 -0.0254298 -0.0683618 0 0 0 69 98 46
-0.187854 -0.00745914 -0.0609598 0 0 0 72 49 22
-0.110394 -0.0123405 -0.0646077 0 0 0 97 100 95
-0.145477 -0.00643941 -0.0624914 0 0 0 95 113 106
-0.0845614 -0.0220256 -0.0663576 0 0 0 103 110 110
-0.0837271 -0.0246038 -0.0660947 0 0 0 104 109 108
-0.112404 -0.0158385 -0.0672926 0 0 0 95 101 95
-0.108972 -0.0346765 -0.0659598 0 0 0 115 119 121
-0.139678 -0.0115817 -0.0661784 0 0 0 82 85 82
