ply
format ascii 1.0
element vertex 50
property float x
property float y
property float z
property float nx
property float ny
property float nz
property uchar diffuse_red
property uchar diffuse_green
property uchar diffuse_blue
end_header
-0.204711 -0.0526815 -0.0517884 0 0 0 215 219 217
-0.154776 -0.0529885 -0.0538459 0 0 0 231 233 239
-0.106183 -0.0538276 -0.0546045 0 0 0 213 219 231
-0.232645 -0.0462636 0.0100355 0 0 0 168 179 202
-0.0432048 -0.0356266 -0.0706619 0 0 0 76 106 65
-0.185928 -0.0298529 0.0102415 0 0 0 172 177 191
-0.195349 -0.0426193 -0.0615731 0 0 0 61 90 60
-0.216189 -0.0264369 0.0141377 0 0 0 86 93 98
-0.185503 -0.0262422 0.0116404 0 0 0 200 223 174
-0.151886 -0.0341374 -0.0646645 0 0 0 43 50 48
-0.237348 -0.0090294 -0.0581351 0 0 0 155 149 125
-0.133619 -0.0241516 -0.0677727 0 0 0 78 86 86
-0.212317 -0.00614641 0.00962272 0 0 0 94 96 106
-0.218402 -0.00947569 0.0125576 0 0 0 97 97 101
-0.136852 -0.0464201 -0.059842 0 0 0 118 125 168
-0.0749466 -0.0377928 -0.0658876 0 0 0 70 92 65
-0.23064 -0.0120815 0.0146656 0 0 0 86 90 99
-0.0793352 -0.00711619 -0.0637388 0 0 0 95 102 94
-0.185694 0.00693054 -0.0444211 0 0 0 68 68 40
-0.19779 -0.0107936 -0.0612684 0 0 0 115 115 105
-0.208471 -0.0365947 -0.0604642 0 0 0 56 85 36
-0.190266 0.00286206 -0.0545188 0 0 0 110 112 95
-0.0911625 0.00102003 -0.0537138 0 0 0 89 94 74
-0.0335161 -0.00721391 -0.0673159 0 0 0 51 80 30
-0.219147 -0.0116482 -0.059725 0 0 0 82 84 69
-0.122625 0.00473523 -0.0557042 0 0 0 82 86 77
-0.22244 -0.0303389 -0.0627539 0 0 0 84 88 65
-0.0349054 -0.0381919 -0.0693582 0 0 0 83 113 79
-0.192864 -0.0202654 -0.0644555 0 0 0 71 51 24
-0.183863 -0.0263873 -0.0656853 0 0 0 109 102 107
-0.12412 -0.0413299 -0.0650287 0 0 0 77 90 41
-0.166097 -0.00612091 -0.0585777 0 0 0 79 35 24
-0.186998 -0.00118407 -0.0568508 0 0 0 76 50 49
-0.226983 -0.0185495 -0.062552 0 0 0 28 28 28
-0.062798 -0.0332283 -0.0662598 0 0 0 99 110 96
-0.0473838 0.00131671 -0.058036 0 0 0 102 97 66
-0.0374908 -0.0398218 -0.0683496 0 0 0 83 114 81
-0.0602075 -0.0133862 -0.0652459 0 0 0 29 34 49
-0.2055 -0.0255777 -0.0651006 0 0 0 99 95 107
-0.207379 -0.0158013 -0.0635371 0 0 0 54 29 13
-0.190083 -0.0383728 -0.065005 0 0 0 66 91 54
-0.110905 -0.0130851 -0.0652715 0 0 0 94 101 92
-0.0654836 -0.0199616 -0.0677732 0 0 0 33 20 33
-0.188467 -0.00765594 -0.0617931 0 0 0 81 48 24
-0.0276009 -0.026887 -0.0697852 0 0 0 73 101 49
-0.0850516 -0.0213243 -0.0666701 0 0 0 100 111 105
-0.109308 -0.0354153 -0.0665196 0 0 0 113 120 119
-0.0425212 -0.00166957 -0.0632913 0 0 0 84 92 53
-0.135842 -0.00210559 -0.0602134 0 0 0 71 79 78
-0.165203 -0.0147274 -0.0647232 0 0 0 103 93 41
