ply
format ascii 1.0
element vertex 54
property float x
property float y
property float z
property float nx
property float ny
property float nz
property uchar diffuse_red
property uchar diffuse_green
property uchar diffuse_blue
end_header
-0.21031 -0.0505377 -0.0529565 0 0 0 216 218 218
-0.202778 -0.0507463 -0.0506283 0 0 0 216 220 220
-0.130406 -0.051751 -0.0557493 0 0 0 237 237 241
-0.213317 -0.0527363 0.0014508 0 0 0 165 167 176
-0.154279 -0.0515521 -0.0528811 0 0 0 233 234 237
-0.193991 -0.0406356 -0.0612135 0 0 0 61 94 63
-0.221802 -0.0435239 0.00980439 0 0 0 84 86 97
-0.152617 -0.0412397 -0.0633423 0 0 0 86 83 91
-0.135998 -0.0230848 -0.0665888 0 0 0 81 87 90
-0.218476 -0.0343883 0.014705 0 0 0 87 92 96
-0.219817 -0.00642563 0.0123465 0 0 0 93 98 105
-0.150597 -0.0365702 -0.0619604 0 0 0 57 57 69
-0.2235 0.000815079 0.00839164 0 0 0 92 96 103
-0.079077 -0.0383597 -0.0663092 0 0 0 67 81 75
-0.188787 0.00839113 -0.0447175 0 0 0 20 26 22
-0.229476 -0.0100647 0.0160149 0 0 0 89 92 97
-0.195613 0.00301023 -0.0541876 0 0 0 96 85 66
-0.119328 0.00600035 -0.0542053 0 0 0 81 86 81
-0.198854 -0.00879814 -0.0623704 0 0 0 116 116 111
-0.019117 -0.0344824 -0.0696392 0 0 0 130 116 100
-0.18796 0.00457504 -0.0517643 0 0 0 109 112 94
-0.0798881 -0.00754808 -0.0645573 0 0 0 95 103 101
-0.0758914 -0.035639 -0.066356 0 0 0 71 76 71
-0.205661 0.00141508 0.0074751 0 0 0 89 94 104
-0.0335933 -0.00706762 -0.0658374 0 0 0 63 86 58
-0.192752 -0.0183924 -0.0640406 0 0 0 75 48 20
-0.0865203 -0.0429384 -0.0635823 0 0 0 67 91 73
-0.165894 -0.00337783 -0.058045 0 0 0 71 38 23
-0.206044 -0.00254969 0.0102449 0 0 0 101 106 114
-0.122199 -0.0391334 -0.0625667 0 0 0 72 90 46
-0.202675 -0.00731748 0.0119568 0 0 0 115 122 126
-0.0374714 0.000336265 -0.0624047 0 0 0 94 108 95
-0.175919 -0.0183352 -0.0654309 0 0 0 73 32 28
-0.10478 -0.0067991 -0.0634498 0 0 0 91 99 90
-0.0566213 -0.00651483 -0.0609206 0 0 0 28 28 37
-0.0575908 -0.00539921 -0.0597945 0 0 0 22 23 24
-0.0892696 0.0020395 -0.0538092 0 0 0 95 97 81
-0.183207 -0.0235339 -0.0643722 0 0 0 112 113 110
-0.057887 -0.0129061 -0.0632837 0 0 0 40 33 50
-0.20475 -0.0247494 -0.0640548 0 0 0 103 105 111
-0.179436 -0.0110322 -0.060946 0 0 0 99 96 100
-0.180728 -0.00231429 -0.0571209 0 0 0 72 54 29
-0.117873 -0.000744703 -0.0593868 0 0 0 77 87 71
-0.0647411 -0.0193315 -0.0671194 0 0 0 29 22 35
-0.205939 -0.0139187 -0.06151 0 0 0 55 27 21
-0.187546 -0.0368745 -0.0615886 0 0 0 66 92 53
-0.0934318 -0.0135518 -0.0643858 0 0 0 57 61 70
-0.110803 -0.0119881 -0.065114 0 0 0 95 100 96
-0.188189 -0.0069715 -0.0615541 0 0 0 73 48 17
-0.209924 -0.0335166 -0.059857 0 0 0 60 73 47
-0.10655 -0.0346304 -0.0636358 0 0 0 118 119 119
-0.0834395 -0.0243494 -0.0658703 0 0 0 103 110 108
-0.0254289 -0.0254042 -0.0678191 0 0 0 71 99 48
-0.144514 -0.00493507 -0.0614045 0 0 0 90 107 95
