ply
format ascii 1.0
element vertex 52
property float x
property float y
property float z
property float nx
property float ny
property float nz
property uchar diffuse_red
property uchar diffuse_green
property uchar diffuse_blue
end_header
-0.211161 -0.0504957 -0.0519256 0 0 0 218 220 219
-0.153452 -0.0520528 -0.0536314 0 0 0 234 234 238
-0.1748 -0.0535871 -0.0549739 0 0 0 220 223 226
-0.229893 -0.046411 0.0120867 0 0 0 155 171 194
-0.10276 -0.0509561 -0.0593325 0 0 0 225 230 243
-0.137275 -0.048581 -0.0568178 0 0 0 213 238 244
-0.194048 -0.0414765 -0.0611416 0 0 0 64 92 59
-0.236462 -0.00870497 -0.0584349 0 0 0 190 192 161
-0.0663336 -0.0289528 -0.0666396 0 0 0 81 103 82
-0.212526 -0.0240735 0.0156551 0 0 0 88 92 99
-0.1303 -0.0508275 -0.0570306 0 0 0 241 240 242
-0.133043 -0.0234701 -0.0667556 0 0 0 79 87 87
-0.149886 -0.035883 -0.0625165 0 0 0 53 53 67
-0.163478 0.00466118 -0.0495852 0 0 0 98 95 92
-0.185639 0.00652524 -0.0425309 0 0 0 44 33 54
-0.195218 0.00213723 -0.0533462 0 0 0 96 85 63
-0.0744863 -0.0361368 -0.0649102 0 0 0 75 78 68
-0.0786066 -0.00798021 -0.0631045 0 0 0 97 104 95
-0.198405 -0.00970666 -0.0615326 0 0 0 117 116 112
-0.0345648 -0.00719132 -0.06636 0 0 0 52 87 57
-0.188858 0.00378417 -0.0524712 0 0 0 108 117 100
-0.229737 -0.00987558 0.0162573 0 0 0 88 92 102
-0.186264 -0.000251534 -0.0555947 0 0 0 79 52 35
-0.223317 -0.0316861 -0.0602304 0 0 0 93 92 68
-0.203748 -0.0083542 0.0128665 0 0 0 118 122 128
-0.122966 -0.0395801 -0.0631758 0 0 0 72 90 45
-0.165442 -0.0041343 -0.0572229 0 0 0 69 36 26
-0.19156 -0.0204703 -0.0626218 0 0 0 73 53 29
-0.183289 -0.0254561 -0.0644809 0 0 0 109 102 109
-0.104981 -0.00726087 -0.0633543 0 0 0 91 99 90
-0.0605974 -0.032795 -0.0657785 0 0 0 98 116 99
-0.175406 -0.019161 -0.0646081 0 0 0 69 35 32
-0.0443941 -0.039696 -0.0687878 0 0 0 82 113 77
-0.0379347 -0.0398122 -0.0667896 0 0 0 83 113 78
-0.0201503 -0.0347721 -0.0685627 0 0 0 104 115 78
-0.20551 -0.0255627 -0.0647648 0 0 0 103 104 104
-0.0595691 -0.0130786 -0.0644906 0 0 0 39 33 57
-0.178154 -0.0116976 -0.0609211 0 0 0 110 116 122
-0.0648879 -0.0196233 -0.0670083 0 0 0 34 21 33
-0.206063 -0.0159091 -0.0616235 0 0 0 47 22 7
-0.0936038 -0.0139654 -0.0642853 0 0 0 59 60 62
-0.187619 -0.0376881 -0.0615152 0 0 0 66 93 49
-0.110264 -0.0125221 -0.0643232 0 0 0 95 101 94
-0.0844581 -0.0208892 -0.065833 0 0 0 102 109 105
-0.187738 -0.00783073 -0.0607221 0 0 0 74 48 27
-0.115979 -0.0237264 -0.0669886 0 0 0 57 51 53
-0.184276 -0.00537909 -0.059662 0 0 0 77 50 31
-0.0303811 -0.0381311 -0.0671271 0 0 0 87 115 84
-0.10735 -0.035019 -0.0642281 0 0 0 112 121 120
-0.145412 -0.00552864 -0.0620491 0 0 0 91 112 95
-0.0261602 -0.0252168 -0.0699009 0 0 0 69 100 47
-0.112264 -0.0160327 -0.0669992 0 0 0 95 101 97
