ply
format ascii 1.0
element vertex 54
property float x
property float y
property float z
property float nx
property float ny
property float nz
property uchar diffuse_red
property uchar diffuse_green
property uchar diffuse_blue
end_header
-0.210688 -0.0500652 -0.0536076 0 0 0 215 218 220
-0.204541 -0.0514059 -0.0514253 0 0 0 216 219 220
-0.153767 -0.0518633 -0.0543466 0 0 0 233 234 241
-0.193682 -0.0413234 -0.0612125 0 0 0 65 94 59
-0.222943 -0.0441243 0.00809183 0 0 0 83 83 100
-0.0641653 -0.028838 -0.0666347 0 0 0 88 107 77
-0.137525 -0.0496143 -0.0576722 0 0 0 237 244 249
-0.134958 -0.0491005 -0.0602113 0 0 0 237 240 247
-0.134074 -0.0246613 -0.0667387 0 0 0 83 88 87
-0.215488 -0.00539271 0.0109127 0 0 0 93 100 104
-0.207536 -0.00456702 0.0100998 0 0 0 105 108 113
-0.148837 -0.0346878 -0.0615603 0 0 0 50 50 57
-0.1609 0.00496246 -0.0488563 0 0 0 103 93 89
-0.0738353 -0.035873 -0.0662559 0 0 0 78 95 71
-0.214817 0.00481713 0.00574705 0 0 0 90 94 98
-0.232109 -0.0108614 0.0142364 0 0 0 88 92 98
-0.122086 0.00548582 -0.0552568 0 0 0 81 87 80
-0.187006 0.00697587 -0.0464527 0 0 0 81 67 69
-0.0420179 0.00318452 -0.0566482 0 0 0 92 116 101
-0.189095 0.00402438 -0.0532622 0 0 0 108 112 102
-0.186618 0.0062015 -0.0497959 0 0 0 100 106 83
-0.0803531 -0.00655237 -0.0646974 0 0 0 96 102 95
-0.198632 -0.00944634 -0.0623637 0 0 0 116 114 103
-0.187098 -0.00110999 -0.0573318 0 0 0 75 48 32
-0.0429471 -0.0395519 -0.0694189 0 0 0 85 113 75
-0.191845 -0.0191021 -0.0632579 0 0 0 74 50 21
-0.0306328 -0.0381115 -0.0674352 0 0 0 86 115 86
-0.0914202 0.00284736 -0.0537838 0 0 0 93 98 84
-0.166295 -0.00504259 -0.0588796 0 0 0 81 35 30
-0.123232 -0.0394285 -0.0637839 0 0 0 74 90 50
-0.0615951 -0.0326573 -0.0668407 0 0 0 97 115 99
-0.1052 -0.00713529 -0.063882 0 0 0 93 97 94
-0.0585003 -0.00793698 -0.0627168 0 0 0 32 24 34
-0.0583429 -0.0118175 -0.0633429 0 0 0 36 31 49
-0.205116 -0.0253653 -0.0648522 0 0 0 103 103 107
-0.217746 -0.0472911 0.00673237 0 0 0 84 88 96
-0.178387 -0.0114672 -0.0616881 0 0 0 111 113 124
-0.0203925 -0.0347664 -0.0688355 0 0 0 105 115 78
-0.0651128 -0.0195536 -0.067415 0 0 0 32 20 36
-0.206931 -0.0155787 -0.0632651 0 0 0 48 21 9
-0.0641132 -0.0301221 -0.0668419 0 0 0 89 117 84
-0.205674 -0.00164516 0.00713631 0 0 0 92 95 108
-0.187887 -0.0374434 -0.0623308 0 0 0 66 94 55
-0.174165 -0.0188323 -0.0654219 0 0 0 66 37 49
-0.217272 -0.0450346 0.0079517 0 0 0 80 84 89
-0.0846376 -0.0220478 -0.0665065 0 0 0 103 111 108
-0.111202 -0.0123403 -0.0655702 0 0 0 96 100 99
-0.0938291 -0.0138557 -0.0647809 0 0 0 58 60 67
-0.0248321 -0.0253258 -0.0689166 0 0 0 71 99 45
-0.188614 -0.00754235 -0.0622837 0 0 0 74 48 21
-0.185155 -0.00510078 -0.0612086 0 0 0 78 50 37
-0.210281 -0.0341491 -0.0606773 0 0 0 64 73 45
-0.145632 -0.00534511 -0.0627062 0 0 0 90 113 94
-0.106891 -0.0349713 -0.0640881 0 0 0 112 120 120
