ply
format ascii 1.0
element vertex 58
property float x
property float y
property float z
property float nx
property float ny
property float nz
property uchar diffuse_red
property uchar diffuse_green
property uchar diffuse_blue
end_header
-0.21189 -0.0504599 -0.0524879 0 0 0 215 219 220
-0.0936926 -0.0525358 -0.0558888 0 0 0 239 242 242
-0.153561 -0.0520545 -0.053465 0 0 0 234 235 241
-0.194053 -0.0533865 -0.0523991 0 0 0 218 221 219
-0.1544 -0.0522215 -0.052626 0 0 0 234 236 242
-0.237253 -0.0121786 -0.05811 0 0 0 180 186 113
-0.212662 -0.0288641 0.0167036 0 0 0 88 93 100
-0.220722 -0.0462132 0.00720647 0 0 0 83 86 97
-0.18921 -0.0414717 -0.0603058 0 0 0 71 95 61
-0.134751 -0.0236076 -0.0666066 0 0 0 80 89 84
-0.213046 -0.0023444 0.00717923 0 0 0 91 93 94
-0.237449 -0.0216665 -0.0604139 0 0 0 125 140 169
-0.152856 -0.0407754 -0.062952 0 0 0 74 76 82
-0.148712 -0.0349018 -0.0607871 0 0 0 50 50 64
-0.183768 0.00781227 -0.0416653 0 0 0 68 63 61
-0.121135 0.00433331 -0.0558562 0 0 0 80 85 79
-0.076115 -0.0359262 -0.0662382 0 0 0 73 78 73
-0.194811 0.00317923 -0.0524164 0 0 0 88 80 54
-0.0717065 -0.0406335 -0.0684049 0 0 0 49 79 46
-0.200511 -0.00968009 -0.0638178 0 0 0 115 117 105
-0.188398 0.00371844 -0.0517366 0 0 0 108 114 105
-0.0788425 -0.00665245 -0.0630185 0 0 0 96 103 94
-0.187249 -0.000467821 -0.054817 0 0 0 85 74 51
-0.222951 -0.0332148 -0.0578852 0 0 0 82 82 62
-0.122649 0.00296309 -0.055898 0 0 0 80 84 80
-0.208211 0.000872289 -0.0533266 0 0 0 75 64 21
-0.0173724 -0.00350042 -0.0638011 0 0 0 58 86 30
-0.122347 -0.0408792 -0.0625844 0 0 0 64 91 58
-0.109117 -0.00625569 -0.0635926 0 0 0 91 97 91
-0.0913696 0.0028354 -0.0534521 0 0 0 94 98 84
-0.193022 -0.0204454 -0.0640785 0 0 0 73 51 28
-0.166243 -0.00529321 -0.05818 0 0 0 81 33 32
-0.183448 -0.0255475 -0.0643967 0 0 0 112 101 109
-0.0607475 -0.0327196 -0.0658026 0 0 0 95 115 98
-0.176239 -0.0191853 -0.0653088 0 0 0 72 35 35
-0.197217 -0.0406791 0.0110638 0 0 0 70 85 96
-0.0575383 -0.0118226 -0.0624225 0 0 0 36 32 48
-0.214825 -0.0451148 0.00991013 0 0 0 79 84 89
-0.205669 -0.0256865 -0.0646547 0 0 0 102 103 110
-0.179133 -0.0119265 -0.0600985 0 0 0 99 98 93
-0.0356022 -0.0396785 -0.0664645 0 0 0 83 116 82
-0.0454653 -0.0397955 -0.0678733 0 0 0 82 111 81
-0.064306 -0.0196102 -0.0664248 0 0 0 34 19 38
-0.206868 -0.0159669 -0.0623341 0 0 0 48 23 8
-0.0210816 -0.0345824 -0.0692527 0 0 0 106 113 83
-0.0937787 -0.01393 -0.064354 0 0 0 58 62 69
-0.189853 -0.0377546 -0.0620972 0 0 0 69 93 48
-0.218474 -0.0392622 0.00999608 0 0 0 82 87 92
-0.111159 -0.012468 -0.0650748 0 0 0 97 101 97
-0.21006 -0.0233508 0.0132328 0 0 0 88 93 99
-0.144906 -0.00558924 -0.0613694 0 0 0 91 111 95
-0.187313 -0.00682518 -0.0597705 0 0 0 80 49 22
-0.083834 -0.0221601 -0.0654039 0 0 0 103 110 116
-0.184458 -0.00545097 -0.0596646 0 0 0 77 51 33
-0.116144 -0.0237342 -0.0669889 0 0 0 59 53 52
-0.0263256 -0.0251111 -0.0699973 0 0 0 71 100 42
-0.0617202 -0.027495 -0.0656536 0 0 0 99 108 94
-0.149269 -0.0106836 -0.0617888 0 0 0 60 61 43
