ply
format ascii 1.0
element vertex 54
property float x
property float y
property float z
property float nx
property float ny
property float nz
property uchar diffuse_red
property uchar diffuse_green
property uchar diffuse_blue
end_header
-0.21059 -0.0514991 -0.0533954 0 0 0 215 217 215
-0.210261 -0.0509673 -0.0565346 0 0 0 216 219 218
-0.109096 -0.0545166 -0.0540138 0 0 0 232 235 242
-0.104548 -0.0533246 -0.0527879 0 0 0 216 218 234
-0.153712 -0.0519796 -0.0541081 0 0 0 232 233 237
-0.153712 -0.0519796 -0.0541081 0 0 0 232 233 237
-0.193451 -0.0520537 -0.0537309 0 0 0 218 220 220
-0.0945596 -0.0523133 -0.0571222 0 0 0 237 240 241
-0.212705 -0.0278187 0.0186367 0 0 0 87 93 97
-0.220775 -0.0440895 0.00932148 0 0 0 79 86 99
-0.194329 -0.041543 -0.0617026 0 0 0 62 93 58
-0.206053 -0.00430352 0.0101516 0 0 0 111 117 108
-0.134907 -0.0235397 -0.0672705 0 0 0 81 87 88
-0.218198 -0.00673917 0.0108001 0 0 0 97 98 108
-0.151647 -0.0333527 -0.0641849 0 0 0 43 47 63
-0.0785301 -0.038369 -0.0676185 0 0 0 69 92 65
-0.197484 -0.0405268 0.0103295 0 0 0 71 85 97
-0.151541 -0.0394654 -0.0635335 0 0 0 58 66 74
-0.18796 0.00662798 -0.0457191 0 0 0 45 33 52
-0.230906 -0.0108789 0.0161281 0 0 0 89 93 96
-0.0362484 0.00263699 -0.0575003 0 0 0 91 94 65
-0.188602 0.00376534 -0.0525366 0 0 0 109 113 103
-0.0777429 -0.0356583 -0.0681223 0 0 0 73 78 71
-0.200042 -0.0097059 -0.0638395 0 0 0 115 116 101
-0.145811 0.00703202 -0.0442203 0 0 0 93 77 28
-0.0804978 -0.00646771 -0.0649732 0 0 0 96 103 94
-0.123955 -0.0394135 -0.0644206 0 0 0 74 89 74
-0.166428 -0.00523819 -0.0589279 0 0 0 82 32 22
-0.192536 -0.0204828 -0.0640769 0 0 0 72 53 31
-0.127393 -0.0478839 -0.0589874 0 0 0 185 216 236
-0.10534 -0.00713758 -0.0640849 0 0 0 91 98 95
-0.0611123 -0.0065844 -0.0632546 0 0 0 21 22 15
-0.0448692 0.00443244 -0.0556817 0 0 0 96 114 86
-0.136631 -0.0456547 -0.0593555 0 0 0 119 122 166
-0.0640631 -0.0325616 -0.0673978 0 0 0 96 111 100
-0.182293 -0.0256504 -0.0636238 0 0 0 107 101 105
-0.1764 -0.019152 -0.0660478 0 0 0 72 34 36
-0.181321 -0.00311038 -0.0578435 0 0 0 71 55 22
-0.20519 -0.0257461 -0.0646533 0 0 0 103 103 109
-0.179968 -0.0118437 -0.0616121 0 0 0 97 96 101
-0.0212235 -0.0344181 -0.0697131 0 0 0 106 117 89
-0.212414 -0.0474759 0.0104552 0 0 0 83 89 94
-0.0939467 -0.0138216 -0.0649691 0 0 0 56 60 68
-0.209304 -0.0271462 0.0152477 0 0 0 89 96 107
-0.111327 -0.0123764 -0.0657207 0 0 0 95 101 94
-0.187495 -0.00679178 -0.0605497 0 0 0 80 48 14
-0.0870907 -0.0220595 -0.0671297 0 0 0 104 115 111
-0.0675499 -0.0289404 -0.0663122 0 0 0 73 71 100
-0.190004 -0.0377276 -0.0628247 0 0 0 67 94 51
-0.0249187 -0.0250627 -0.069217 0 0 0 68 101 48
-0.181876 -0.00535219 -0.058956 0 0 0 70 50 18
-0.210937 -0.0344373 -0.0611873 0 0 0 60 73 45
-0.116299 -0.0236504 -0.0676225 0 0 0 58 53 57
-0.110665 -0.0348541 -0.0660016 0 0 0 114 119 120
