ply
format ascii 1.0
element vertex 46
property float x
property float y
property float z
property float nx
property float ny
property float nz
property uchar diffuse_red
property uchar diffuse_green
property uchar diffuse_blue
end_header
-0.212476 -0.0518793 -0.0535591 0 0 0 214 217 216
-0.157154 -0.0532567 -0.0541838 0 0 0 231 233 235
-0.110527 -0.0519066 -0.0599777 0 0 0 221 227 240
-0.19307 -0.0532351 -0.0548444 0 0 0 216 219 219
-0.219521 -0.0477251 0.00696244 0 0 0 81 87 92
-0.238136 -0.0242987 -0.0617113 0 0 0 119 118 172
-0.190079 -0.0480461 -0.0573331 0 0 0 186 202 197
-0.135464 -0.0245525 -0.0674591 0 0 0 81 88 86
-0.0911492 -0.0505264 -0.0566526 0 0 0 223 245 247
-0.0919851 -0.0519764 -0.0559572 0 0 0 243 248 249
-0.0813855 -0.0391205 -0.0682253 0 0 0 68 83 70
-0.147384 -0.0349754 -0.0593094 0 0 0 44 49 59
-0.166528 0.00241137 -0.0530207 0 0 0 102 104 98
-0.07967 -0.00725809 -0.0637133 0 0 0 97 103 97
-0.187887 0.00545854 -0.0467083 0 0 0 78 68 67
-0.122911 0.00329015 -0.0558034 0 0 0 83 85 80
-0.189961 0.00245612 -0.0535002 0 0 0 109 112 98
-0.148576 0.0059393 -0.046586 0 0 0 94 72 35
-0.199392 -0.0111425 -0.062522 0 0 0 115 115 107
-0.0906618 0.00231959 -0.0543758 0 0 0 96 101 90
-0.200011 -0.0432456 0.00905379 0 0 0 84 85 81
-0.187332 -0.00157262 -0.0566032 0 0 0 76 52 30
-0.193167 -0.020687 -0.0641479 0 0 0 70 51 18
-0.122966 -0.0417495 -0.0634088 0 0 0 77 90 53
-0.166422 -0.00646251 -0.058364 0 0 0 81 33 21
-0.105114 -0.0078244 -0.0650744 0 0 0 90 97 93
-0.0457966 0.00033509 -0.0601639 0 0 0 99 96 74
-0.0386925 -0.0400646 -0.0674033 0 0 0 84 116 83
-0.217599 -0.046561 0.00799229 0 0 0 79 85 88
-0.061283 -0.0134484 -0.0659079 0 0 0 40 30 59
-0.206373 -0.0270643 -0.065701 0 0 0 102 103 104
-0.181249 -0.0130627 -0.0625831 0 0 0 98 98 98
-0.0645744 -0.0332049 -0.0675273 0 0 0 96 110 96
-0.189694 -0.0388732 -0.0638972 0 0 0 67 92 48
-0.0945577 -0.0146261 -0.0650918 0 0 0 55 63 64
-0.111945 -0.0132698 -0.0658595 0 0 0 97 101 97
-0.185355 -0.00557284 -0.0604698 0 0 0 75 52 35
-0.0270228 -0.0253939 -0.0705551 0 0 0 71 100 45
-0.187892 -0.0296307 -0.0633144 0 0 0 110 105 103
-0.0846222 -0.0215368 -0.0659202 0 0 0 102 111 106
-0.188741 -0.00918333 -0.0617022 0 0 0 71 49 26
-0.0844364 -0.0253116 -0.0665115 0 0 0 104 112 107
-0.109579 -0.0356373 -0.0663583 0 0 0 116 121 121
-0.210816 -0.0359401 -0.0606991 0 0 0 60 74 41
-0.0615631 -0.0265192 -0.0670163 0 0 0 89 109 110
-0.167518 -0.0247944 -0.0634943 0 0 0 99 94 27
