ply
format ascii 1.0
element vertex 49
property float x
property float y
property float z
property float nx
property float ny
property float nz
property uchar diffuse_red
property uchar diffuse_green
property uchar diffuse_blue
end_header
-0.0639841 -0.0533763 -0.0567773 0 0 0 247 249 252
-0.203759 -0.0520807 -0.0514144 0 0 0 214 218 219
-0.208634 -0.0521052 -0.0521705 0 0 0 213 218 214
-0.152953 -0.0523377 -0.0546229 0 0 0 231 231 236
-0.0915863 -0.0529496 -0.0557589 0 0 0 245 243 244
-0.104708 -0.0513691 -0.0593726 0 0 0 234 242 243
-0.215824 -0.027588 0.0169305 0 0 0 90 91 96
-0.133468 -0.0238645 -0.0669035 0 0 0 78 86 87
-0.175033 -0.0194891 -0.0654893 0 0 0 64 32 48
-0.165888 0.00307502 -0.0520932 0 0 0 101 105 95
-0.185332 0.00729413 -0.0431856 0 0 0 72 69 62
-0.0757818 -0.0365856 -0.0642634 0 0 0 64 51 78
-0.0783208 -0.00829274 -0.062643 0 0 0 96 104 107
-0.22836 -0.011423 0.0144329 0 0 0 92 93 98
-0.200139 -0.0101644 -0.0631067 0 0 0 115 113 106
-0.0343114 -0.00607543 -0.0657833 0 0 0 59 81 63
-0.189969 0.00326723 -0.0532703 0 0 0 107 112 100
-0.0916479 0.00243235 -0.0534861 0 0 0 93 97 86
-0.12233 0.00495723 -0.0548115 0 0 0 81 87 81
-0.0395673 0.00199802 -0.0580196 0 0 0 84 102 79
-0.187375 -0.0007519 -0.0563977 0 0 0 75 49 31
-0.223713 -0.032294 -0.0602502 0 0 0 92 93 74
-0.192683 -0.0198245 -0.0632589 0 0 0 71 51 21
-0.123297 -0.0411667 -0.0635561 0 0 0 63 91 49
-0.166516 -0.00573397 -0.05823 0 0 0 80 32 28
-0.147951 0.0076686 -0.0455029 0 0 0 104 88 41
-0.0559003 -0.0337967 -0.0598742 0 0 0 100 110 97
-0.0324876 -0.0384069 -0.0671471 0 0 0 84 110 86
-0.101468 -0.00858301 -0.0633961 0 0 0 87 98 88
-0.058731 -0.00822391 -0.0625823 0 0 0 32 27 46
-0.0398594 -0.0398285 -0.0683845 0 0 0 84 117 83
-0.0447859 -0.0398861 -0.0690926 0 0 0 82 114 84
-0.0600147 -0.0133088 -0.0647381 0 0 0 41 33 44
-0.0150706 -0.00499152 -0.0638105 0 0 0 60 87 36
-0.205927 -0.0261244 -0.0648041 0 0 0 101 101 107
-0.206545 -0.0153781 -0.0614715 0 0 0 54 27 12
-0.0947774 -0.0142263 -0.0651642 0 0 0 59 59 64
-0.111429 -0.0128222 -0.0651873 0 0 0 97 101 95
-0.184781 -0.00477103 -0.0595252 0 0 0 71 53 32
-0.188238 -0.00723481 -0.060584 0 0 0 81 49 19
-0.191399 -0.038009 -0.0638421 0 0 0 67 91 51
-0.0841503 -0.0212311 -0.0653781 0 0 0 103 112 105
-0.185908 -0.027348 -0.063899 0 0 0 108 101 99
-0.0643366 -0.0291436 -0.0664856 0 0 0 86 108 78
-0.137078 -0.00317021 -0.059339 0 0 0 67 82 77
-0.025028 -0.0254834 -0.0689528 0 0 0 69 99 46
-0.107745 -0.0353581 -0.0644302 0 0 0 112 120 120
-0.162842 -0.0142957 -0.0629963 0 0 0 106 80 27
-0.148898 -0.0188443 -0.0663157 0 0 0 100 112 79
