ply
format ascii 1.0
element vertex 58
property float x
property float y
property float z
property float nx
property float ny
property float nz
property uchar diffuse_red
property uchar diffuse_green
property uchar diffuse_blue
end_header
-0.200396 -0.051585 -0.0533564 0 0 0 217 221 220
-0.198796 -0.051263 -0.0549423 0 0 0 218 220 220
-0.108092 -0.0525157 -0.059897 0 0 0 223 225 231
-0.108688 -0.0508981 -0.0619674 0 0 0 234 240 243
-0.156247 -0.0522169 -0.0553301 0 0 0 232 234 236
-0.229659 -0.0456819 0.0126813 0 0 0 143 154 168
-0.200732 -0.0448454 0.00916448 0 0 0 91 80 99
-0.235916 -0.00691409 -0.0594479 0 0 0 135 154 163
-0.214217 -0.025625 0.0150029 0 0 0 88 93 101
-0.205791 -0.00347414 0.00896081 0 0 0 101 112 121
-0.13524 -0.0237671 -0.0677006 0 0 0 80 87 85
-0.139429 -0.0488264 -0.0577113 0 0 0 213 233 244
-0.154119 -0.0423041 -0.0635105 0 0 0 74 82 99
-0.150571 -0.0349295 -0.063418 0 0 0 50 51 62
-0.22979 -0.0111096 0.0138573 0 0 0 89 94 103
-0.189626 0.00348309 -0.0537769 0 0 0 108 112 92
-0.16215 0.00574087 -0.0499497 0 0 0 98 96 69
-0.153338 -0.0409645 -0.0641512 0 0 0 74 74 82
-0.227516 -0.0119869 0.0128816 0 0 0 94 97 101
-0.19911 -0.0100567 -0.0628317 0 0 0 115 115 103
-0.0812315 -0.0385941 -0.068414 0 0 0 68 82 72
-0.185039 0.00755779 -0.0436832 0 0 0 68 70 60
-0.218618 -0.00990245 -0.0587512 0 0 0 83 84 74
-0.0793689 -0.00674699 -0.0638527 0 0 0 97 103 94
-0.224075 -0.0334182 -0.0601573 0 0 0 83 80 62
-0.192233 -0.0208047 -0.0638726 0 0 0 73 51 20
-0.0888804 0.00283327 -0.0531305 0 0 0 95 99 88
-0.16679 -0.00550805 -0.0593708 0 0 0 79 35 26
-0.187012 -0.000553706 -0.0568823 0 0 0 77 46 31
-0.0614629 -0.0067973 -0.0634403 0 0 0 20 21 19
-0.019815 -0.0344698 -0.0702133 0 0 0 127 120 106
-0.124289 -0.0396467 -0.0648806 0 0 0 69 90 33
-0.104813 -0.0071888 -0.0652497 0 0 0 90 97 90
-0.0527903 -0.0418381 -0.0661859 0 0 0 86 114 78
-0.0449985 -0.0396512 -0.0695524 0 0 0 83 113 77
-0.176077 -0.0194572 -0.0658144 0 0 0 72 32 37
-0.183944 -0.0257731 -0.0656942 0 0 0 107 101 108
-0.0603149 -0.0117734 -0.0651654 0 0 0 36 32 55
-0.0655511 -0.0196291 -0.0678857 0 0 0 33 19 34
-0.227458 -0.0186305 -0.0650583 0 0 0 59 59 51
-0.206163 -0.0259401 -0.0660437 0 0 0 103 103 104
-0.0301083 -0.0365244 -0.0685813 0 0 0 88 118 76
-0.0628955 -0.0329006 -0.0663612 0 0 0 97 110 94
-0.18032 -0.0121092 -0.0621123 0 0 0 99 99 95
-0.207951 -0.000351084 -0.0556315 0 0 0 76 75 43
-0.207384 -0.0162262 -0.0637107 0 0 0 49 24 8
-0.0435942 0.00105415 -0.0620988 0 0 0 89 107 79
-0.0252472 -0.0252398 -0.0693791 0 0 0 68 100 45
-0.188897 -0.0379204 -0.0634721 0 0 0 67 93 51
-0.111669 -0.0126001 -0.0660521 0 0 0 96 100 94
-0.0966278 -0.0141308 -0.0657598 0 0 0 58 66 76
-0.0850652 -0.0222009 -0.0669638 0 0 0 102 112 117
-0.0842183 -0.0247732 -0.0666841 0 0 0 104 112 109
-0.185852 -0.00471927 -0.0599564 0 0 0 78 50 34
-0.10798 -0.0351314 -0.0651915 0 0 0 115 120 122
-0.199279 -0.00289776 -0.0561383 0 0 0 69 62 38
-0.0612928 -0.0273785 -0.0673629 0 0 0 94 109 97
-0.140852 -0.00536215 -0.0627925 0 0 0 78 82 76
