ply
format ascii 1.0
element vertex 42
property float x
property float y
property float z
property float nx
property float ny
property float nz
property uchar diffuse_red
property uchar diffuse_green
property uchar diffuse_blue
end_header
-0.206338 -0.0521575 -0.0535532 0 0 0 215 219 220
-0.150786 -0.0540963 -0.0529697 0 0 0 230 230 233
-0.104588 -0.0515799 -0.0595223 0 0 0 231 241 246
-0.229502 -0.0473291 0.0105523 0 0 0 135 143 168
-0.216715 -0.0255183 0.0158845 0 0 0 90 95 100
-0.0666034 -0.0293794 -0.0668476 0 0 0 83 103 79
-0.170974 -0.0485948 -0.0604249 0 0 0 216 224 221
-0.136412 -0.0242931 -0.0668868 0 0 0 80 86 89
-0.0904773 0.00575811 -0.049899 0 0 0 95 99 85
-0.0747415 -0.0365901 -0.0651615 0 0 0 72 78 71
-0.185304 0.00702574 -0.0435878 0 0 0 66 67 42
-0.0782042 -0.008488 -0.0626098 0 0 0 98 103 97
-0.200019 -0.0104065 -0.0636005 0 0 0 113 114 105
-0.189253 0.00298966 -0.0529244 0 0 0 109 109 100
-0.0379522 0.00176679 -0.0564946 0 0 0 85 102 76
-0.0309285 -0.00615319 -0.0645595 0 0 0 56 80 44
-0.18809 -0.00116571 -0.0560268 0 0 0 83 76 37
-0.192559 -0.0200634 -0.0637362 0 0 0 70 51 27
-0.222935 -0.0337172 -0.060261 0 0 0 86 80 60
-0.123163 -0.041378 -0.0637693 0 0 0 67 92 56
-0.16647 -0.0048168 -0.0583832 0 0 0 69 34 23
-0.0306252 -0.0384604 -0.067262 0 0 0 87 116 83
-0.0992382 -0.00766429 -0.0611825 0 0 0 87 97 85
-0.0557275 -0.0352917 -0.0599991 0 0 0 106 123 104
-0.0609262 -0.00701291 -0.0642425 0 0 0 30 28 41
-0.039706 -0.0399994 -0.0682366 0 0 0 83 116 83
-0.0599449 -0.0122045 -0.0644233 0 0 0 35 32 52
-0.187977 -0.0289607 -0.0637204 0 0 0 111 103 104
-0.0651815 -0.0200451 -0.0671854 0 0 0 35 21 35
-0.0218451 -0.03332 -0.0712743 0 0 0 122 121 89
-0.205793 -0.026366 -0.0653485 0 0 0 101 102 110
-0.188526 -0.0383601 -0.0628461 0 0 0 66 92 51
-0.111299 -0.0130262 -0.0653038 0 0 0 95 100 95
-0.024878 -0.0256476 -0.068718 0 0 0 67 100 50
-0.18808 -0.00859837 -0.0612057 0 0 0 73 47 15
-0.0839607 -0.0226814 -0.0655966 0 0 0 104 111 107
-0.136978 -0.00339374 -0.0595504 0 0 0 68 83 69
-0.184678 -0.00501288 -0.0599443 0 0 0 74 51 15
-0.160294 -0.0202449 -0.0636175 0 0 0 92 72 51
-0.109041 -0.0354008 -0.0659552 0 0 0 112 120 123
-0.164265 -0.0134892 -0.0630769 0 0 0 99 92 39
-0.151518 -0.0137322 -0.0631747 0 0 0 63 55 49
