ply
format ascii 1.0
element vertex 50
property float x
property float y
property float z
property float nx
property float ny
property float nz
property uchar diffuse_red
property uchar diffuse_green
property uchar diffuse_blue
end_header
-0.210883 -0.0515786 -0.0521921 0 0 0 215 217 218
-0.0228443 -0.0528954 -0.0602537 0 0 0 240 247 249
-0.153116 -0.053223 -0.0538461 0 0 0 232 232 237
-0.210139 -0.0503088 -0.0527985 0 0 0 216 220 222
-0.109225 -0.0545778 -0.054245 0 0 0 232 235 243
-0.105567 -0.0535823 -0.0521224 0 0 0 214 222 240
-0.192086 -0.0529885 -0.0542863 0 0 0 218 220 219
-0.196051 -0.0405445 -0.0602353 0 0 0 66 94 66
-0.144836 -0.0240146 -0.0673972 0 0 0 79 89 88
-0.204505 -0.00292941 0.00855031 0 0 0 97 107 110
-0.220723 -0.0231416 0.0140603 0 0 0 91 95 101
-0.221951 -0.00729227 0.0114519 0 0 0 93 98 106
-0.151707 -0.033251 -0.0643668 0 0 0 46 50 61
-0.163854 0.00479382 -0.0504138 0 0 0 97 94 87
-0.0389887 0.00470564 -0.0556701 0 0 0 74 86 89
-0.0820197 0.00488464 -0.0534226 0 0 0 99 107 97
-0.18462 0.00796458 -0.0432533 0 0 0 75 62 60
-0.0782211 -0.0079193 -0.0630775 0 0 0 96 103 99
-0.21137 -0.0297401 0.0137962 0 0 0 91 95 99
-0.200041 -0.00948257 -0.0639679 0 0 0 115 114 106
-0.189229 0.00392125 -0.0533497 0 0 0 110 113 105
-0.196179 0.00118174 -0.0551941 0 0 0 99 94 78
-0.188679 -0.00134603 -0.0573878 0 0 0 79 62 43
-0.230248 -0.00967066 0.0153084 0 0 0 88 90 100
-0.192564 -0.0202772 -0.0642518 0 0 0 73 53 31
-0.122574 -0.040771 -0.0633749 0 0 0 66 90 46
-0.165806 -0.00400744 -0.0580482 0 0 0 69 38 23
-0.0626181 -0.0328136 -0.0661217 0 0 0 96 109 99
-0.221049 -0.0281582 -0.0605636 0 0 0 82 83 60
-0.184445 -0.0254908 -0.0645294 0 0 0 109 102 107
-0.027472 -0.0380943 -0.0666828 0 0 0 90 120 82
-0.101366 -0.00815236 -0.0639118 0 0 0 87 99 86
-0.0820273 -0.0348434 -0.0666714 0 0 0 49 38 57
-0.0578797 -0.00793701 -0.0622853 0 0 0 30 25 41
-0.0577183 -0.0118239 -0.0629067 0 0 0 35 33 48
-0.0843459 -0.0401638 -0.0663732 0 0 0 74 94 96
-0.205864 -0.0254313 -0.0656523 0 0 0 103 103 108
-0.0358161 -0.0397021 -0.0669789 0 0 0 85 114 79
-0.0195462 -0.0345029 -0.0700186 0 0 0 127 122 113
-0.0652361 -0.0195316 -0.0676202 0 0 0 29 24 43
-0.19003 -0.0386578 -0.0632676 0 0 0 68 95 61
-0.111331 -0.01237 -0.0657293 0 0 0 96 100 93
-0.024895 -0.0265916 -0.069376 0 0 0 74 100 43
-0.0848089 -0.0207913 -0.0664829 0 0 0 102 111 107
-0.188095 -0.00770078 -0.0615889 0 0 0 73 49 26
-0.13762 -0.00379931 -0.0609057 0 0 0 75 84 74
-0.116329 -0.0236209 -0.067699 0 0 0 58 52 54
-0.0839171 -0.0246228 -0.0664095 0 0 0 104 111 107
-0.107708 -0.0349136 -0.064912 0 0 0 115 121 120
-0.0560437 -0.0297784 -0.0667206 0 0 0 94 112 103
