ply
format ascii 1.0
element vertex 52
property float x
property float y
property float z
property float nx
property float ny
property float nz
property uchar diffuse_red
property uchar diffuse_green
property uchar diffuse_blue
end_header
-0.1549 -0.0527308 -0.0534844 0 0 0 231 233 238
-0.0990207 -0.0532056 -0.0560854 0 0 0 225 224 239
-0.105518 -0.0510169 -0.0620984 0 0 0 226 226 244
-0.230505 -0.047266 0.0114204 0 0 0 156 173 197
-0.183525 -0.0471467 -0.0565836 0 0 0 168 193 189
-0.215517 -0.0301884 0.0167931 0 0 0 88 94 100
-0.209165 -0.00691551 0.0102088 0 0 0 107 111 112
-0.130623 -0.0236729 -0.0676377 0 0 0 79 86 88
-0.21799 -0.012868 0.0127726 0 0 0 99 98 107
-0.152 -0.033842 -0.0642347 0 0 0 44 46 55
-0.155812 0.00681928 -0.0454762 0 0 0 99 114 102
-0.0812611 -0.0388439 -0.0682019 0 0 0 68 80 68
-0.156261 0.00584575 -0.0480016 0 0 0 104 114 107
-0.199111 -0.0102943 -0.0621054 0 0 0 115 115 104
-0.230382 -0.0119086 0.0154968 0 0 0 89 93 94
-0.184975 0.00721478 -0.0429088 0 0 0 71 64 58
-0.22672 -0.0126586 0.014538 0 0 0 93 97 101
-0.13613 -0.0460098 -0.0603708 0 0 0 117 126 159
-0.190346 0.00189921 -0.0523956 0 0 0 115 111 106
-0.121682 0.00387529 -0.0562836 0 0 0 80 87 82
-0.0335683 -0.00722867 -0.0672375 0 0 0 58 79 37
-0.197925 -0.000808329 -0.0550192 0 0 0 73 68 69
-0.226081 -0.0371254 -0.0592761 0 0 0 62 62 41
-0.0803256 -0.00594258 -0.0623791 0 0 0 98 103 98
-0.16611 -0.00581304 -0.0579738 0 0 0 80 31 19
-0.0161312 -0.0181643 -0.0691275 0 0 0 83 99 90
-0.212559 -0.0459708 0.00903025 0 0 0 80 84 95
-0.192242 -0.0210392 -0.0632238 0 0 0 72 51 30
-0.124255 -0.0411082 -0.0647383 0 0 0 66 92 68
-0.0942575 0.00224804 -0.0543563 0 0 0 90 93 81
-0.0622172 -0.00704494 -0.0637855 0 0 0 20 21 17
-0.0963936 -0.00720362 -0.061902 0 0 0 77 75 76
-0.18396 -0.0260009 -0.065097 0 0 0 107 100 107
-0.176755 -0.019626 -0.0659571 0 0 0 69 32 34
-0.0610217 -0.0132924 -0.0657481 0 0 0 39 32 56
-0.0644183 -0.0330203 -0.0674938 0 0 0 96 110 99
-0.20618 -0.0261582 -0.0653786 0 0 0 100 103 105
-0.18032 -0.0123573 -0.061455 0 0 0 97 96 96
-0.181671 -0.00365752 -0.0576087 0 0 0 73 52 32
-0.20739 -0.0164562 -0.062991 0 0 0 46 22 7
-0.0655721 -0.0198875 -0.067623 0 0 0 33 21 33
-0.0950302 -0.0142554 -0.0655652 0 0 0 57 59 67
-0.0851392 -0.0212018 -0.0664488 0 0 0 102 112 105
-0.188261 -0.0382507 -0.0621632 0 0 0 63 93 51
-0.0842374 -0.0250313 -0.0663905 0 0 0 103 112 103
-0.140852 -0.00562071 -0.0622221 0 0 0 79 81 75
-0.187846 -0.00731506 -0.0603434 0 0 0 80 46 15
-0.026832 -0.0253837 -0.0705349 0 0 0 69 100 46
-0.108871 -0.035569 -0.0640097 0 0 0 111 121 121
-0.0679045 -0.029409 -0.0663742 0 0 0 70 77 97
-0.11204 -0.0174442 -0.0686572 0 0 0 97 102 97
-0.182065 -0.0470853 -0.0566323 0 0 0 164 192 185
