ply
format ascii 1.0
element vertex 48
property float x
property float y
property float z
property float nx
property float ny
property float nz
property uchar diffuse_red
property uchar diffuse_green
property uchar diffuse_blue
end_header
-0.211662 -0.0495867 -0.0522322 0 0 0 218 219 217
-0.233696 -0.0585207 -0.00498119 0 0 0 199 200 199
-0.175896 -0.0513084 -0.0574542 0 0 0 221 223 224
-0.110081 -0.0514837 -0.0558716 0 0 0 205 219 239
-0.193439 -0.044751 -0.0573198 0 0 0 134 161 175
-0.234224 -0.00556526 -0.0564276 0 0 0 135 157 171
-0.0751193 -0.0293669 -0.0657729 0 0 0 60 55 35
-0.220305 -0.00943806 0.0136 0 0 0 97 99 110
-0.20805 -0.00335263 0.0119111 0 0 0 95 97 110
-0.0789847 -0.0386056 -0.0658992 0 0 0 67 83 64
-0.160872 0.0052629 -0.0481872 0 0 0 102 92 80
-0.229213 -0.0105667 0.016823 0 0 0 87 91 103
-0.157035 0.00570989 -0.0491813 0 0 0 116 117 99
-0.186288 0.00734697 -0.0448893 0 0 0 78 69 58
-0.122944 0.00426368 -0.0540905 0 0 0 81 85 89
-0.198067 -0.00893824 -0.060829 0 0 0 117 115 111
-0.0775234 -0.00794318 -0.0619456 0 0 0 95 103 95
-0.032726 -0.00610826 -0.0644513 0 0 0 55 80 67
-0.188425 0.00444153 -0.0517038 0 0 0 108 113 101
-0.191327 -0.0186183 -0.0618102 0 0 0 71 51 27
-0.195438 0.00287135 -0.0533531 0 0 0 95 86 66
-0.221834 -0.0320515 -0.0582065 0 0 0 85 83 68
-0.0923779 0.0026955 -0.0525331 0 0 0 89 95 81
-0.122764 -0.040448 -0.0629997 0 0 0 65 90 55
-0.165065 -0.00358342 -0.0565482 0 0 0 70 36 22
-0.103762 -0.00684676 -0.0636832 0 0 0 89 98 91
-0.0571796 -0.00807855 -0.0612328 0 0 0 32 23 36
-0.0592592 -0.0130968 -0.0640717 0 0 0 41 33 41
-0.180566 -0.00245866 -0.0563408 0 0 0 80 51 19
-0.204633 -0.0248153 -0.0633703 0 0 0 103 106 110
-0.178488 -0.0109933 -0.0610214 0 0 0 112 119 119
-0.0646205 -0.0195951 -0.066619 0 0 0 34 23 41
-0.0635732 -0.0327372 -0.066537 0 0 0 97 110 97
-0.187444 -0.0369813 -0.0610024 0 0 0 66 94 50
-0.207573 0.000620541 -0.0527211 0 0 0 80 72 23
-0.173698 -0.0172763 -0.0638733 0 0 0 69 30 48
-0.110668 -0.0121927 -0.0644991 0 0 0 94 100 92
-0.093298 -0.0137875 -0.063807 0 0 0 57 60 69
-0.0391854 -0.000375914 -0.0599632 0 0 0 96 102 78
-0.0693852 -0.0304061 -0.0660306 0 0 0 75 72 78
-0.0841956 -0.0207547 -0.0654142 0 0 0 100 110 113
-0.188877 -0.0286788 -0.0627604 0 0 0 99 105 115
-0.0840623 -0.0245199 -0.0660434 0 0 0 105 110 107
-0.18804 -0.00707804 -0.06079 0 0 0 71 50 22
-0.209853 -0.0325018 -0.059033 0 0 0 62 58 54
-0.145052 -0.0050644 -0.0614209 0 0 0 89 107 92
-0.0259315 -0.0253953 -0.0696193 0 0 0 71 99 53
-0.107166 -0.0347611 -0.0638518 0 0 0 116 120 120
