ply
format ascii 1.0
element vertex 51
property float x
property float y
property float z
property float nx
property float ny
property float nz
property uchar diffuse_red
property uchar diffuse_green
property uchar diffuse_blue
end_header
-0.0641887 -0.0530997 -0.0571489 0 0 0 248 249 251
-0.201807 -0.0504898 -0.0527873 0 0 0 215 221 221
-0.105674 -0.055013 -0.0523623 0 0 0 229 234 241
-0.152491 -0.052184 -0.0544983 0 0 0 232 232 238
-0.229143 -0.0465073 0.0112453 0 0 0 135 142 176
-0.214866 -0.0257135 0.0162262 0 0 0 89 93 102
-0.21107 -0.00451495 0.00329622 0 0 0 108 114 112
-0.1345 -0.0238267 -0.066756 0 0 0 80 87 85
-0.147114 -0.03532 -0.0595065 0 0 0 50 53 60
-0.13772 -0.047274 -0.0589572 0 0 0 178 201 208
-0.136016 -0.0469321 -0.0606524 0 0 0 169 193 203
-0.0828258 -0.0386997 -0.0680525 0 0 0 66 72 80
-0.161354 0.00457207 -0.0491256 0 0 0 101 94 78
-0.227157 -0.00935985 0.0119638 0 0 0 95 97 106
-0.123205 0.00402419 -0.0565182 0 0 0 80 85 81
-0.184948 0.00758544 -0.0433854 0 0 0 68 67 41
-0.0422472 0.002123 -0.0589624 0 0 0 89 101 92
-0.0182175 -0.0346221 -0.0689325 0 0 0 128 114 100
-0.079318 -0.00674891 -0.0637412 0 0 0 96 103 91
-0.199698 -0.0100017 -0.0632662 0 0 0 114 112 105
-0.189555 0.00350261 -0.053467 0 0 0 107 113 106
-0.0335676 -0.00564454 -0.0672338 0 0 0 54 81 54
-0.0451759 0.00419966 -0.0557496 0 0 0 96 113 86
-0.043481 -0.000265219 -0.062268 0 0 0 88 98 74
-0.188397 -0.000672435 -0.0565449 0 0 0 84 70 35
-0.192233 -0.0196759 -0.0633612 0 0 0 68 50 25
-0.221758 -0.0283811 -0.0629199 0 0 0 82 71 55
-0.100277 -0.0071803 -0.0624996 0 0 0 85 94 86
-0.123541 -0.0397288 -0.0639507 0 0 0 69 91 45
-0.166063 -0.00552898 -0.0583479 0 0 0 80 35 21
-0.0582383 -0.00671071 -0.0622875 0 0 0 28 27 39
-0.176031 -0.0194496 -0.0655102 0 0 0 72 36 35
-0.0602101 -0.0130691 -0.0652883 0 0 0 41 34 56
-0.206118 -0.0259291 -0.0656774 0 0 0 101 103 104
-0.179461 -0.0119364 -0.0626076 0 0 0 111 119 123
-0.0643523 -0.0327675 -0.0675785 0 0 0 96 111 99
-0.0655093 -0.019636 -0.0677891 0 0 0 34 21 39
-0.0942426 -0.0140426 -0.0651167 0 0 0 55 62 61
-0.207333 -0.0162131 -0.0633503 0 0 0 44 24 8
-0.188848 -0.0379092 -0.0631279 0 0 0 66 93 57
-0.111623 -0.0126002 -0.0658749 0 0 0 96 101 95
-0.0252089 -0.0252527 -0.0693535 0 0 0 69 101 47
-0.20938 -0.0336106 0.0140512 0 0 0 85 91 96
-0.0850775 -0.0209482 -0.0666307 0 0 0 104 110 108
-0.0849108 -0.0247179 -0.0672235 0 0 0 106 110 107
-0.187502 -0.0283556 -0.0648558 0 0 0 108 103 104
-0.189046 -0.00809935 -0.0624416 0 0 0 71 47 27
-0.184992 -0.00454471 -0.0604437 0 0 0 75 51 34
-0.110239 -0.0351534 -0.0655223 0 0 0 116 121 115
-0.210602 -0.034786 -0.0606786 0 0 0 60 73 50
-0.142131 -0.00647355 -0.0641995 0 0 0 79 85 74
