ply
format ascii 1.0
element vertex 54
property float x
property float y
property float z
property float nx
property float ny
property float nz
property uchar diffuse_red
property uchar diffuse_green
property uchar diffuse_blue
end_header
-0.211635 -0.0524365 -0.0529886 0 0 0 214 217 215
-0.0186601 -0.0499891 -0.0612219 0 0 0 242 254 252
-0.109403 -0.0538927 -0.0539491 0 0 0 214 225 241
-0.0542951 -0.0531391 -0.0568795 0 0 0 211 231 247
-0.156146 -0.0526227 -0.0549842 0 0 0 232 233 236
-0.0476628 -0.0334097 -0.0684987 0 0 0 73 101 57
-0.1929 -0.0526372 -0.0548635 0 0 0 218 220 219
-0.0645481 -0.0279006 -0.0664651 0 0 0 90 91 88
-0.193246 -0.0435617 -0.0606218 0 0 0 74 104 38
-0.0748531 -0.0402734 -0.0659987 0 0 0 64 88 58
-0.211988 -0.0235857 0.0149491 0 0 0 89 94 99
-0.172121 -0.0475664 -0.0596397 0 0 0 177 204 211
-0.23827 -0.00314393 -0.0503642 0 0 0 90 91 94
-0.133626 -0.0240106 -0.0674127 0 0 0 78 87 80
-0.148448 -0.0355534 -0.0608439 0 0 0 49 50 57
-0.214883 -0.0226197 0.0151364 0 0 0 88 93 101
-0.163442 0.00534815 -0.0509786 0 0 0 99 97 77
-0.23542 -0.00763426 -0.0566234 0 0 0 163 170 151
-0.15111 -0.0401824 -0.0629579 0 0 0 71 63 75
-0.231681 -0.0118373 0.0133965 0 0 0 89 92 97
-0.159949 0.00545503 -0.0487928 0 0 0 107 113 98
-0.185507 -0.0249125 0.0122344 0 0 0 200 228 190
-0.0398058 0.00200768 -0.0581412 0 0 0 86 98 84
-0.122531 0.00363041 -0.0555105 0 0 0 82 86 82
-0.228907 -0.0115849 0.0134702 0 0 0 92 95 94
-0.0888404 0.00249669 -0.0526552 0 0 0 95 100 90
-0.185005 0.00709334 -0.0432022 0 0 0 71 70 58
-0.215442 -0.00486542 0.00772705 0 0 0 92 98 107
-0.197372 0.0012259 -0.0541904 0 0 0 70 50 41
-0.0785802 -0.00708173 -0.0627219 0 0 0 96 103 92
-0.199694 -0.0104491 -0.0631666 0 0 0 115 115 109
-0.190229 0.00305708 -0.0540802 0 0 0 109 113 93
-0.210676 -0.00217899 -0.0553755 0 0 0 88 74 19
-0.186968 -0.000990145 -0.0564199 0 0 0 77 51 50
-0.223888 -0.032566 -0.061158 0 0 0 92 90 71
-0.192863 -0.0200543 -0.0640447 0 0 0 69 51 26
-0.16674 -0.00591643 -0.0589186 0 0 0 79 36 26
-0.0642543 -0.0343207 -0.0674949 0 0 0 104 122 104
-0.0582411 -0.00698928 -0.0619042 0 0 0 29 29 37
-0.0601993 -0.0133405 -0.0649288 0 0 0 40 36 42
-0.180867 -0.0136121 -0.0626158 0 0 0 119 121 98
-0.184673 -0.0263499 -0.0644955 0 0 0 108 101 106
-0.206091 -0.0263767 -0.0656404 0 0 0 102 104 104
-0.190903 -0.0383276 -0.0638298 0 0 0 66 92 45
-0.174635 -0.0211169 -0.0640756 0 0 0 78 54 33
-0.0654856 -0.0199061 -0.0674605 0 0 0 32 20 37
-0.188398 -0.00857638 -0.0615495 0 0 0 71 48 18
-0.0889226 -0.0239462 -0.0670156 0 0 0 107 112 115
-0.207322 -0.0166695 -0.0632851 0 0 0 47 23 8
-0.110896 -0.0129758 -0.0649148 0 0 0 94 100 92
-0.1856 -0.00607567 -0.0612436 0 0 0 78 50 33
-0.107898 -0.0354614 -0.064804 0 0 0 113 118 120
-0.027674 -0.0255474 -0.0692975 0 0 0 69 100 49
-0.210574 -0.0352546 -0.0606782 0 0 0 59 72 54
