ply
format ascii 1.0
element vertex 47
property float x
property float y
property float z
property float nx
property float ny
property float nz
property uchar diffuse_red
property uchar diffuse_green
property uchar diffuse_blue
end_header
-0.1979 -0.0516061 -0.0560387 0 0 0 217 221 218
-0.200361 -0.0509704 -0.0534905 0 0 0 215 223 222
-0.131733 -0.0542145 -0.0560551 0 0 0 236 238 242
-0.156509 -0.0531823 -0.0523435 0 0 0 226 226 230
-0.107691 -0.0510211 -0.0628324 0 0 0 232 241 243
-0.0957016 -0.0530158 -0.0566207 0 0 0 226 232 241
-0.215782 -0.0274816 0.0144521 0 0 0 89 93 103
-0.219516 -0.0440332 0.00926819 0 0 0 80 86 95
-0.215713 -0.00480874 0.00692102 0 0 0 90 98 105
-0.128273 -0.0237335 -0.0675635 0 0 0 82 89 85
-0.149808 -0.0354041 -0.0628234 0 0 0 48 53 58
-0.229531 0.0055367 -0.0050678 0 0 0 91 97 106
-0.161485 0.00412842 -0.0495477 0 0 0 102 92 80
-0.0811214 -0.0388331 -0.0683142 0 0 0 67 83 71
-0.234119 -0.0132453 0.0131374 0 0 0 88 92 96
-0.0418768 0.0043932 -0.0560886 0 0 0 88 105 102
-0.18448 0.00706869 -0.0431489 0 0 0 67 63 59
-0.0792861 -0.00824851 -0.0639398 0 0 0 97 104 98
-0.19606 0.00243778 -0.0547744 0 0 0 89 78 61
-0.199719 -0.0105205 -0.0639074 0 0 0 114 113 104
-0.187026 -0.00103311 -0.0571371 0 0 0 77 51 44
-0.18902 0.002979 -0.053263 0 0 0 107 112 104
-0.192231 -0.0201769 -0.0639731 0 0 0 71 50 26
-0.125589 -0.0398159 -0.0663474 0 0 0 70 91 43
-0.166785 -0.00594143 -0.0595573 0 0 0 80 33 21
-0.22257 -0.0349897 -0.0606782 0 0 0 80 78 40
-0.178826 -0.0124516 -0.0623842 0 0 0 110 117 123
-0.10241 -0.00860174 -0.0648917 0 0 0 87 96 89
-0.0602766 -0.0119662 -0.064988 0 0 0 36 30 51
-0.0654856 -0.019833 -0.0677279 0 0 0 33 18 36
-0.206089 -0.0264604 -0.0663698 0 0 0 101 104 105
-0.199017 -0.0417519 0.0102296 0 0 0 80 85 88
-0.189566 -0.028863 -0.0661919 0 0 0 109 104 103
-0.0942459 -0.0143103 -0.0652022 0 0 0 55 58 68
-0.188159 -0.0384897 -0.062977 0 0 0 63 93 53
-0.0300028 -0.0366485 -0.0683056 0 0 0 87 118 74
-0.0642987 -0.0329619 -0.0675253 0 0 0 96 110 99
-0.207339 -0.0167498 -0.0640388 0 0 0 49 22 8
-0.18843 -0.00863152 -0.0622559 0 0 0 73 46 24
-0.111625 -0.0129081 -0.0660511 0 0 0 94 100 94
-0.0850565 -0.0211926 -0.0666749 0 0 0 102 110 108
-0.18569 -0.00500034 -0.0617676 0 0 0 74 52 37
-0.116555 -0.0241878 -0.0680253 0 0 0 60 47 54
-0.0275986 -0.0267644 -0.0696357 0 0 0 73 102 43
-0.110902 -0.0353828 -0.0664138 0 0 0 110 121 118
-0.137979 -0.00446676 -0.0613566 0 0 0 74 84 75
-0.0668272 -0.0304492 -0.0675488 0 0 0 87 106 85
