ply
format ascii 1.0
element vertex 57
property float x
property float y
property float z
property float nx
property float ny
property float nz
property uchar diffuse_red
property uchar diffuse_green
property uchar diffuse_blue
end_header
-0.211687 -0.0507209 -0.0528202 0 0 0 217 218 219
-0.152584 -0.0536752 -0.0530865 0 0 0 232 232 237
-0.192907 -0.0520927 -0.0548805 0 0 0 219 221 222
-0.220849 -0.0456822 0.00710937 0 0 0 81 86 92
-0.213098 -0.0280384 0.0142369 0 0 0 90 95 100
-0.190563 -0.0456714 -0.0579137 0 0 0 133 154 165
-0.148394 -0.0351521 -0.0608233 0 0 0 43 51 66
-0.130437 -0.0234314 -0.0676198 0 0 0 76 88 86
-0.196823 -0.0052367 0.00905242 0 0 0 84 90 98
-0.161911 0.00573481 -0.0493364 0 0 0 103 97 78
-0.0818425 -0.0386222 -0.0687071 0 0 0 66 83 77
-0.235866 -0.00688822 -0.0573234 0 0 0 162 170 157
-0.183977 0.00774352 -0.0438668 0 0 0 84 97 75
-0.236913 -0.0347899 -0.0539042 0 0 0 139 143 158
-0.218992 -0.01076 -0.0591814 0 0 0 82 83 71
-0.121471 0.00410019 -0.0562451 0 0 0 80 86 81
-0.189393 0.0035644 -0.0531708 0 0 0 109 112 104
-0.0900966 0.00270863 -0.0539281 0 0 0 96 98 92
-0.198272 -0.00995437 -0.0615172 0 0 0 115 117 106
-0.0791633 -0.00688828 -0.0633145 0 0 0 97 103 97
-0.235283 -0.0207214 -0.0595808 0 0 0 100 102 141
-0.035115 -0.0060287 -0.0664347 0 0 0 56 82 50
-0.18679 -0.00046322 -0.0562968 0 0 0 78 51 41
-0.0416155 -0.000334861 -0.0620144 0 0 0 96 101 62
-0.215182 -0.0460556 0.0113226 0 0 0 80 84 91
-0.192109 -0.0195492 -0.0632057 0 0 0 71 52 22
-0.204737 -0.0089522 0.013773 0 0 0 115 122 119
-0.123412 -0.0409717 -0.0639919 0 0 0 66 93 51
-0.208263 -0.00136273 0.00825765 0 0 0 90 97 104
-0.165914 -0.00549411 -0.0580642 0 0 0 81 31 27
-0.222552 -0.0331517 -0.0596963 0 0 0 88 84 54
-0.0979611 -0.00739448 -0.060033 0 0 0 85 95 87
-0.0464004 -0.0396811 -0.0704764 0 0 0 82 113 80
-0.0332345 -0.0367212 -0.0691794 0 0 0 83 114 74
-0.0580316 -0.0082036 -0.0620354 0 0 0 31 25 44
-0.236262 -0.0258847 -0.0620679 0 0 0 82 89 98
-0.0600677 -0.0132446 -0.0648656 0 0 0 39 33 56
-0.17932 -0.0118445 -0.0623846 0 0 0 110 118 125
-0.206005 -0.0257557 -0.0655827 0 0 0 102 101 108
-0.09483 -0.014089 -0.0654444 0 0 0 58 57 65
-0.0642525 -0.0329193 -0.0672788 0 0 0 95 110 93
-0.207201 -0.0160506 -0.0632007 0 0 0 48 24 8
-0.065378 -0.0197841 -0.0674141 0 0 0 31 25 30
-0.188121 -0.0378855 -0.0623121 0 0 0 67 93 52
-0.111478 -0.0126502 -0.0655384 0 0 0 96 102 97
-0.219394 -0.0400876 0.0105958 0 0 0 82 89 91
-0.188897 -0.0079858 -0.0622126 0 0 0 75 48 21
-0.0250884 -0.0254872 -0.0689418 0 0 0 69 99 46
-0.0849512 -0.0210567 -0.0662973 0 0 0 103 111 110
-0.185993 -0.0270221 -0.0645917 0 0 0 108 107 104
-0.210519 -0.0346311 -0.0606439 0 0 0 59 73 45
-0.0635549 -0.0275985 -0.0673455 0 0 0 88 109 87
-0.110148 -0.0352083 -0.065316 0 0 0 117 120 115
-0.160491 -0.0197466 -0.0638517 0 0 0 97 73 44
-0.226617 -0.0485606 0.00832423 0 0 0 103 114 121
-0.163677 -0.0153406 -0.0629483 0 0 0 80 78 30
-0.151066 -0.0121355 -0.0624883 0 0 0 66 57 32
