ply
format ascii 1.0
element vertex 50
property float x
property float y
property float z
property float nx
property float ny
property float nz
property uchar diffuse_red
property uchar diffuse_green
property uchar diffuse_blue
end_header
-0.0986825 -0.0526434 -0.0539937 0 0 0 226 231 238
-0.201317 -0.049138 -0.05192 0 0 0 219 222 224
-0.185207 -0.0272208 0.013372 0 0 0 183 188 184
-0.19985 -0.0502229 -0.0521222 0 0 0 219 221 220
-0.155717 -0.0512086 -0.054327 0 0 0 233 234 238
-0.0895868 -0.0505776 -0.0572977 0 0 0 240 247 251
-0.0663643 -0.0273528 -0.066645 0 0 0 76 77 82
-0.190386 -0.0509619 -0.053284 0 0 0 220 220 221
-0.209399 -0.00269449 0.00962939 0 0 0 95 96 107
-0.223655 -0.0457285 0.00873276 0 0 0 90 95 107
-0.13145 -0.0226834 -0.0669474 0 0 0 76 86 85
-0.218734 -0.0108733 0.0109694 0 0 0 99 99 110
-0.149258 -0.0340215 -0.0616424 0 0 0 49 50 63
-0.162451 0.00681898 -0.0501613 0 0 0 99 97 87
-0.157443 0.00703036 -0.0480784 0 0 0 105 119 113
-0.079181 -0.0383222 -0.0664028 0 0 0 67 82 68
-0.0393385 0.00456908 -0.0543643 0 0 0 87 108 105
-0.185413 0.00860821 -0.0422315 0 0 0 37 29 18
-0.199556 -0.00856214 -0.0629645 0 0 0 116 115 108
-0.209778 -0.0299934 0.0137527 0 0 0 88 92 99
-0.12072 0.00490082 -0.0557721 0 0 0 80 85 79
-0.188628 0.00475618 -0.0523563 0 0 0 108 110 99
-0.0785125 -0.0063341 -0.0630472 0 0 0 96 100 94
-0.0909634 0.00318114 -0.0534091 0 0 0 94 97 81
-0.223412 -0.0318323 -0.0587205 0 0 0 84 81 66
-0.186865 0.000553128 -0.0546925 0 0 0 85 74 35
-0.165226 -0.00443962 -0.057362 0 0 0 81 33 21
-0.0192222 -0.0345165 -0.0698377 0 0 0 126 121 104
-0.192176 -0.0182801 -0.0631268 0 0 0 71 51 27
-0.123002 -0.0389529 -0.0632845 0 0 0 75 89 47
-0.107872 -0.00677537 -0.0646527 0 0 0 92 99 93
-0.0574285 -0.00647443 -0.0616628 0 0 0 30 25 43
-0.178029 -0.0107692 -0.0608578 0 0 0 111 118 115
-0.183288 -0.0233661 -0.064248 0 0 0 106 112 108
-0.20547 -0.0244755 -0.0646666 0 0 0 103 103 104
-0.180769 -0.00216166 -0.0569663 0 0 0 72 53 26
-0.0648221 -0.0193112 -0.0672082 0 0 0 34 22 34
-0.185461 -0.025856 -0.0637754 0 0 0 109 106 101
-0.206598 -0.0147623 -0.0622846 0 0 0 49 25 7
-0.189736 -0.0366688 -0.0622007 0 0 0 67 92 49
-0.0935002 -0.0134992 -0.0644119 0 0 0 55 58 69
-0.110871 -0.011912 -0.0651052 0 0 0 96 101 93
-0.0843964 -0.0204708 -0.0659923 0 0 0 102 111 103
-0.0835245 -0.0243072 -0.0659327 0 0 0 104 110 108
-0.188243 -0.00680195 -0.0613934 0 0 0 73 48 23
-0.0672265 -0.028813 -0.0659467 0 0 0 72 72 94
-0.210677 -0.0321316 -0.0603024 0 0 0 65 55 64
-0.106645 -0.0345621 -0.0636723 0 0 0 114 120 118
-0.144566 -0.00482183 -0.0613215 0 0 0 89 112 92
-0.0270748 -0.0253005 -0.0692548 0 0 0 70 99 43
