ply
format ascii 1.0
element vertex 53
property float x
property float y
property float z
property float nx
property float ny
property float nz
property uchar diffuse_red
property uchar diffuse_green
property uchar diffuse_blue
end_header
-0.21084 -0.0522214 -0.0534832 0 0 0 216 218 217
-0.204729 -0.0524138 -0.0511396 0 0 0 217 219 220
-0.152565 -0.0539977 -0.0529297 0 0 0 231 232 237
-0.196186 -0.0425206 -0.0601644 0 0 0 66 94 57
-0.0451909 -0.0345784 -0.0685237 0 0 0 72 104 50
-0.208073 -0.00641552 0.00760194 0 0 0 120 123 120
-0.220963 -0.0217036 0.0147197 0 0 0 94 98 103
-0.154105 -0.0414562 -0.0628356 0 0 0 70 67 89
-0.227229 -0.0136766 0.0134195 0 0 0 94 95 101
-0.0797053 -0.038968 -0.0667797 0 0 0 68 83 65
-0.23033 -0.0129713 0.0152282 0 0 0 88 94 100
-0.151294 -0.0365941 -0.0622872 0 0 0 51 53 70
-0.164221 0.00408224 -0.0502456 0 0 0 98 93 88
-0.184988 0.00716629 -0.0430505 0 0 0 69 70 59
-0.156722 0.00484999 -0.0506422 0 0 0 103 112 90
-0.148812 0.00524214 -0.0472016 0 0 0 59 69 54
-0.12325 0.00372663 -0.0562427 0 0 0 80 86 80
-0.0791801 -0.0107608 -0.0641302 0 0 0 99 107 97
-0.20037 -0.0103594 -0.0637285 0 0 0 117 117 101
-0.0415302 0.00193601 -0.0581051 0 0 0 94 105 86
-0.189597 0.00309731 -0.0531366 0 0 0 109 116 98
-0.137056 -0.0464845 -0.0578649 0 0 0 120 129 170
-0.191224 -0.00359238 -0.0565311 0 0 0 81 77 77
-0.193544 -0.0199477 -0.0646071 0 0 0 71 52 22
-0.166095 -0.00588824 -0.0580561 0 0 0 79 33 28
-0.192897 -0.0525792 -0.0546256 0 0 0 220 221 220
-0.122821 -0.0400963 -0.0630607 0 0 0 70 90 47
-0.034202 -0.038156 -0.0686705 0 0 0 83 111 84
-0.105673 -0.00761892 -0.063984 0 0 0 92 98 91
-0.125257 -0.0222411 -0.0671561 0 0 0 78 84 83
-0.1862 -0.0288795 -0.0630754 0 0 0 108 103 108
-0.178828 -0.0123521 -0.0615626 0 0 0 110 116 121
-0.205489 -0.0264048 -0.0646183 0 0 0 103 104 103
-0.182314 -0.00372839 -0.0584669 0 0 0 73 54 23
-0.060237 -0.0132521 -0.0651012 0 0 0 39 32 57
-0.0643512 -0.0329521 -0.0674288 0 0 0 100 109 93
-0.209332 -0.000893994 -0.0549553 0 0 0 80 71 19
-0.207354 -0.0166251 -0.0630459 0 0 0 48 23 7
-0.0655283 -0.019822 -0.0676112 0 0 0 32 17 47
-0.186086 -0.0383951 -0.0614013 0 0 0 62 93 48
-0.0928093 -0.0143656 -0.0635349 0 0 0 56 64 62
-0.02516 -0.0267069 -0.0694337 0 0 0 75 102 47
-0.111651 -0.0128606 -0.0656436 0 0 0 96 101 95
-0.0630261 -0.0292276 -0.0654941 0 0 0 89 105 77
-0.188427 -0.00852421 -0.0613714 0 0 0 72 47 20
-0.163569 -0.0215179 -0.063829 0 0 0 92 80 35
-0.115889 -0.0241945 -0.0669005 0 0 0 58 49 47
-0.145422 -0.00608376 -0.0619642 0 0 0 89 112 103
-0.210592 -0.0352084 -0.0604099 0 0 0 59 74 54
-0.140473 -0.0357096 -0.0646246 0 0 0 100 105 75
-0.151179 -0.0136601 -0.06268 0 0 0 65 56 43
-0.107928 -0.0353877 -0.0648203 0 0 0 112 120 119
-0.12128 -0.0322183 -0.065175 0 0 0 84 94 78
