ply
format ascii 1.0
element vertex 58
property float x
property float y
property float z
property float nx
property float ny
property float nz
property uchar diffuse_red
property uchar diffuse_green
property uchar diffuse_blue
end_header
-0.211401 -0.0513762 -0.0524366 0 0 0 215 218 217
-0.090751 -0.0530589 -0.0551817 0 0 0 244 245 244
-0.15217 -0.0525991 -0.0541696 0 0 0 231 233 236
-0.15217 -0.0525991 -0.0541696 0 0 0 231 233 236
-0.0315449 -0.0397175 -0.0667179 0 0 0 89 118 84
-0.229348 -0.0482261 0.0105331 0 0 0 151 157 195
-0.193422 -0.0528371 -0.0537208 0 0 0 218 219 218
-0.214501 -0.0287219 0.0161965 0 0 0 88 93 102
-0.195062 -0.0435795 -0.0610401 0 0 0 73 101 41
-0.229023 0.00669826 -0.00372634 0 0 0 93 98 108
-0.216972 -0.00651267 0.011162 0 0 0 96 100 104
-0.140246 -0.0244022 -0.0674604 0 0 0 77 84 82
-0.202677 -0.00630287 0.0109509 0 0 0 110 121 112
-0.148192 -0.0355608 -0.0606161 0 0 0 49 49 63
-0.174255 -0.0209329 -0.0653842 0 0 0 76 59 42
-0.0821508 0.00450407 -0.0532417 0 0 0 98 105 99
-0.162541 0.00533353 -0.0500571 0 0 0 97 97 74
-0.0348219 0.00221534 -0.0558614 0 0 0 91 93 66
-0.184757 0.00708886 -0.0429982 0 0 0 68 69 58
-0.0782958 -0.0082959 -0.0628794 0 0 0 97 104 98
-0.200749 -0.0104258 -0.0644475 0 0 0 115 114 111
-0.0353445 -0.00352981 -0.0645538 0 0 0 71 89 65
-0.189998 0.00302501 -0.0538583 0 0 0 109 113 92
-0.122302 0.00365808 -0.0554111 0 0 0 79 85 80
-0.0900552 0.0025954 -0.053997 0 0 0 96 99 87
-0.193275 -0.0200523 -0.0645356 0 0 0 70 51 20
-0.185545 0.00119448 -0.0542994 0 0 0 85 76 55
-0.166562 -0.004782 -0.0585372 0 0 0 69 34 20
-0.123949 -0.039988 -0.0643105 0 0 0 71 92 78
-0.134918 -0.0420705 -0.0619666 0 0 0 95 104 95
-0.0306629 -0.0381956 -0.0674462 0 0 0 89 115 80
-0.0625714 -0.0331169 -0.0658967 0 0 0 99 109 97
-0.0382088 -0.0399115 -0.0671139 0 0 0 84 116 79
-0.104425 -0.00995043 -0.0650966 0 0 0 92 100 93
-0.0178702 -0.0360783 -0.0687795 0 0 0 136 143 133
-0.125812 -0.0484081 -0.0590582 0 0 0 175 207 230
-0.0585264 -0.0120603 -0.0633793 0 0 0 38 32 51
-0.205852 -0.0264475 -0.0653285 0 0 0 102 103 109
-0.18003 -0.012565 -0.0614394 0 0 0 97 100 100
-0.207088 -0.0167366 -0.0629914 0 0 0 46 23 8
-0.0652566 -0.0198505 -0.0674139 0 0 0 33 17 39
-0.188557 -0.0383932 -0.0627892 0 0 0 66 93 51
-0.111386 -0.0129156 -0.0654987 0 0 0 96 100 92
-0.188773 -0.0302828 -0.0630988 0 0 0 98 104 103
-0.0848221 -0.0212059 -0.0662596 0 0 0 102 110 107
-0.188168 -0.00862235 -0.0613065 0 0 0 72 48 24
-0.0839111 -0.0250328 -0.0661809 0 0 0 104 111 109
-0.0249441 -0.025379 -0.0689786 0 0 0 71 100 48
-0.08589 -0.0406765 -0.0659061 0 0 0 75 92 94
-0.184772 -0.00502335 -0.0600693 0 0 0 75 51 37
-0.20807 -0.0125088 -0.0615225 0 0 0 54 40 38
-0.113366 -0.0164363 -0.0681679 0 0 0 95 101 97
-0.16424 -0.0157805 -0.0635535 0 0 0 80 80 30
-0.0827075 -0.035171 -0.0671014 0 0 0 50 41 41
-0.137712 -0.00446844 -0.0606683 0 0 0 73 83 83
-0.109953 -0.0354662 -0.0651697 0 0 0 114 119 116
-0.162641 -0.0179715 -0.0639933 0 0 0 95 104 25
-0.110629 -0.0326929 -0.0670351 0 0 0 106 115 117
