ply
format ascii 1.0
element vertex 49
property float x
property float y
property float z
property float nx
property float ny
property float nz
property uchar diffuse_red
property uchar diffuse_green
property uchar diffuse_blue
end_header
-0.0187314 -0.0516574 -0.0597974 0 0 0 240 244 247
-0.0624214 -0.0531849 -0.0570756 0 0 0 246 250 252
-0.152513 -0.0536347 -0.052858 0 0 0 230 232 237
-0.107105 -0.051151 -0.060072 0 0 0 235 244 244
-0.194278 -0.0521042 -0.0545889 0 0 0 216 219 218
-0.194535 -0.0405303 -0.0615307 0 0 0 63 92 62
-0.214931 -0.00292562 0.00659623 0 0 0 92 95 107
-0.135022 -0.0237248 -0.067062 0 0 0 81 87 85
-0.151786 -0.0335267 -0.0640731 0 0 0 46 46 63
-0.205291 -0.00713455 0.00917425 0 0 0 120 123 122
-0.175038 -0.0191604 -0.0659159 0 0 0 67 38 50
-0.161792 0.00460763 -0.0493579 0 0 0 102 93 84
-0.0786745 -0.0386648 -0.0674414 0 0 0 69 93 69
-0.230283 -0.0113238 0.0154703 0 0 0 88 93 101
-0.183902 0.00779226 -0.0436802 0 0 0 83 99 72
-0.185779 0.00669913 -0.0461948 0 0 0 93 97 77
-0.198212 -0.00992718 -0.0612967 0 0 0 114 113 102
-0.189327 0.00360194 -0.0529742 0 0 0 109 113 101
-0.122272 0.00396399 -0.0552547 0 0 0 80 85 84
-0.0350046 -0.00731417 -0.0665852 0 0 0 49 88 58
-0.0916507 0.002594 -0.0536271 0 0 0 94 98 85
-0.186678 -0.00155908 -0.0562811 0 0 0 73 52 45
-0.0395558 0.00205529 -0.0579821 0 0 0 86 102 76
-0.0783671 -0.00689083 -0.0625329 0 0 0 96 103 90
-0.0438899 -0.0396297 -0.0699958 0 0 0 84 115 81
-0.137269 -0.0428627 -0.0627695 0 0 0 87 95 91
-0.19265 -0.0205754 -0.0639267 0 0 0 74 52 29
-0.124106 -0.0396414 -0.0643152 0 0 0 75 90 38
-0.0977384 -0.00714036 -0.0614781 0 0 0 80 87 79
-0.183727 -0.0256215 -0.0650105 0 0 0 109 104 104
-0.1659 -0.00430416 -0.0576917 0 0 0 70 37 25
-0.0331798 -0.0366902 -0.0690823 0 0 0 85 116 71
-0.0415016 -0.00161196 -0.0621649 0 0 0 85 95 60
-0.0600107 -0.0132106 -0.0647706 0 0 0 41 33 45
-0.205948 -0.0257338 -0.0653366 0 0 0 103 102 107
-0.0641962 -0.0328884 -0.067157 0 0 0 100 109 95
-0.207142 -0.0160261 -0.0629647 0 0 0 45 26 8
-0.0249782 -0.026788 -0.0690813 0 0 0 74 102 51
-0.188188 -0.00800216 -0.0612378 0 0 0 73 48 25
-0.110706 -0.012668 -0.0646983 0 0 0 95 100 95
-0.1908 -0.0377408 -0.0635622 0 0 0 68 92 50
-0.0947735 -0.0140584 -0.0653158 0 0 0 57 60 63
-0.0619985 -0.0277009 -0.06591 0 0 0 99 106 91
-0.0840011 -0.0248574 -0.0661046 0 0 0 104 112 109
-0.213789 -0.0219019 0.0146164 0 0 0 88 93 97
-0.084895 -0.0210262 -0.06617 0 0 0 103 111 107
-0.116413 -0.0238704 -0.0673888 0 0 0 58 50 62
-0.211082 -0.0345139 -0.061167 0 0 0 59 72 45
-0.137714 -0.00407471 -0.0605517 0 0 0 72 84 82
