ply
format ascii 1.0
element vertex 53
property float x
property float y
property float z
property float nx
property float ny
property float nz
property uchar diffuse_red
property uchar diffuse_green
property uchar diffuse_blue
end_header
-0.211576 -0.0516739 -0.0525069 0 0 0 214 217 215
-0.154084 -0.0523834 -0.0525415 0 0 0 231 232 236
-0.124325 -0.0515283 -0.0599086 0 0 0 202 212 232
-0.111528 -0.0519213 -0.0558194 0 0 0 202 218 237
-0.109303 -0.0547275 -0.0541229 0 0 0 231 235 242
-0.194571 -0.040415 -0.0613813 0 0 0 64 93 70
-0.20747 -0.00489798 0.0105772 0 0 0 106 107 114
-0.0660728 -0.0290344 -0.0665712 0 0 0 82 98 78
-0.153103 -0.0431191 -0.0639245 0 0 0 94 96 103
-0.138157 -0.02382 -0.0668655 0 0 0 80 86 85
-0.128419 -0.0533345 -0.0573723 0 0 0 237 239 242
-0.221213 -0.00882074 0.0126834 0 0 0 97 99 106
-0.149049 -0.0349181 -0.0613529 0 0 0 50 52 63
-0.231187 -0.0110684 0.014004 0 0 0 90 92 96
-0.228363 -0.0119934 0.0138771 0 0 0 92 94 100
-0.163953 0.00460616 -0.050019 0 0 0 97 96 91
-0.0413396 0.00333399 -0.0578728 0 0 0 89 98 96
-0.218455 -0.0478098 0.00809332 0 0 0 84 87 100
-0.157957 0.00519725 -0.0503397 0 0 0 117 118 102
-0.187222 0.00667843 -0.0460704 0 0 0 79 68 59
-0.0749706 -0.0361535 -0.0654951 0 0 0 74 79 71
-0.122291 0.00408672 -0.0553716 0 0 0 82 86 86
-0.0916641 0.00271924 -0.0538441 0 0 0 93 98 86
-0.0790974 -0.00799944 -0.0636656 0 0 0 97 105 98
-0.148535 0.00570173 -0.0469983 0 0 0 61 66 66
-0.198517 0.000688937 -0.05389 0 0 0 51 41 32
-0.198892 -0.00976522 -0.0619266 0 0 0 114 115 104
-0.188045 0.00367612 -0.0513264 0 0 0 108 111 100
-0.192695 -0.0204615 -0.0637961 0 0 0 73 53 23
-0.122692 -0.0409152 -0.0631872 0 0 0 77 91 70
-0.165926 -0.00418507 -0.0576596 0 0 0 71 38 19
-0.104601 -0.00711156 -0.0647482 0 0 0 89 97 94
-0.0580667 -0.00674926 -0.0620601 0 0 0 28 27 42
-0.17656 -0.0191491 -0.0657883 0 0 0 70 34 32
-0.183119 -0.0255801 -0.0641519 0 0 0 108 100 109
-0.0618369 -0.0327331 -0.0670375 0 0 0 106 116 106
-0.0586055 -0.0118874 -0.0635558 0 0 0 35 30 52
-0.223211 -0.0272806 -0.0606701 0 0 0 75 83 71
-0.0646284 -0.0196905 -0.0669364 0 0 0 31 18 36
-0.178641 -0.0117501 -0.0613447 0 0 0 110 114 122
-0.20536 -0.0256958 -0.0643844 0 0 0 101 103 104
-0.0686377 -0.029334 -0.0654191 0 0 0 65 52 48
-0.207185 -0.0159123 -0.0627892 0 0 0 47 22 8
-0.0940943 -0.0139886 -0.0648292 0 0 0 57 63 61
-0.188748 -0.0376506 -0.0627015 0 0 0 67 93 49
-0.188225 -0.00788639 -0.0611299 0 0 0 72 46 22
-0.111473 -0.0125041 -0.0655381 0 0 0 96 102 95
-0.0849486 -0.0209086 -0.0663942 0 0 0 102 110 108
-0.0250969 -0.0253364 -0.0692841 0 0 0 73 100 43
-0.184763 -0.00543433 -0.0600731 0 0 0 77 50 30
-0.210489 -0.0344886 -0.0601852 0 0 0 60 73 44
-0.0840543 -0.0247397 -0.0663294 0 0 0 104 113 111
-0.107834 -0.0350467 -0.0647661 0 0 0 111 120 123
