ply
format ascii 1.0
element vertex 57
property float x
property float y
property float z
property float nx
property float ny
property float nz
property uchar diffuse_red
property uchar diffuse_green
property uchar diffuse_blue
end_header
-0.210151 -0.0526381 -0.0528567 0 0 0 216 218 217
-0.153337 -0.0543743 -0.0521893 0 0 0 232 234 238
-0.192189 -0.0529644 -0.0539977 0 0 0 219 220 220
-0.0442086 -0.0344233 -0.0694579 0 0 0 72 104 68
-0.0661448 -0.0292906 -0.0666062 0 0 0 81 102 85
-0.238879 -0.0357785 -0.0546834 0 0 0 162 177 178
-0.215473 -0.0314783 0.0164102 0 0 0 87 91 97
-0.193745 -0.0423197 -0.062692 0 0 0 66 94 52
-0.216398 -0.00654276 0.0100758 0 0 0 94 99 106
-0.219001 -0.046581 0.00975522 0 0 0 81 86 92
-0.155443 -0.0440954 -0.0632252 0 0 0 94 107 107
-0.129077 -0.0252206 -0.0665157 0 0 0 82 88 86
-0.081123 -0.0389057 -0.0681622 0 0 0 66 83 71
-0.162094 0.00400126 -0.0497424 0 0 0 104 93 81
-0.185674 0.00692779 -0.044029 0 0 0 69 64 36
-0.139391 -0.043115 -0.0651413 0 0 0 86 94 90
-0.0409156 0.00455015 -0.0570788 0 0 0 69 88 86
-0.159094 0.00431338 -0.0498982 0 0 0 115 119 112
-0.122574 0.00355481 -0.0556612 0 0 0 80 86 77
-0.189624 0.00282907 -0.0533379 0 0 0 110 115 96
-0.195974 0.0011429 -0.0542169 0 0 0 97 85 67
-0.199722 -0.010699 -0.0631517 0 0 0 118 116 111
-0.078614 -0.00708347 -0.0629256 0 0 0 95 102 90
-0.19282 -0.0214075 -0.064197 0 0 0 73 52 29
-0.166102 -0.00612125 -0.058223 0 0 0 80 35 20
-0.104798 -0.00757499 -0.0649551 0 0 0 90 97 91
-0.18387 -0.0264081 -0.0652674 0 0 0 110 100 114
-0.21702 -0.0465991 0.0106 0 0 0 81 84 90
-0.124171 -0.040094 -0.064556 0 0 0 72 91 40
-0.223152 -0.031624 -0.0616439 0 0 0 90 94 91
-0.176023 -0.0200675 -0.0654003 0 0 0 71 31 36
-0.0464166 -0.0396962 -0.0706524 0 0 0 82 112 78
-0.222433 -0.0338653 -0.0611906 0 0 0 88 81 50
-0.0160648 -0.0180021 -0.0691029 0 0 0 83 97 58
-0.0384313 -0.0399223 -0.0673553 0 0 0 83 116 79
-0.0602854 -0.0120196 -0.0649466 0 0 0 35 31 45
-0.0308874 -0.038198 -0.0676875 0 0 0 87 115 81
-0.18167 -0.00401862 -0.0578908 0 0 0 74 53 27
-0.206089 -0.0266449 -0.0655793 0 0 0 102 104 106
-0.180284 -0.0127332 -0.0616904 0 0 0 99 98 92
-0.229031 -0.0479043 0.00693723 0 0 0 106 115 111
-0.215261 -0.0418617 0.0121917 0 0 0 80 86 95
-0.0643017 -0.0330192 -0.0674604 0 0 0 98 109 93
-0.0942533 -0.0143942 -0.0649864 0 0 0 56 59 71
-0.0655014 -0.0198915 -0.0676588 0 0 0 34 20 40
-0.188132 -0.0386577 -0.0622767 0 0 0 64 93 53
-0.111638 -0.0130078 -0.0657465 0 0 0 93 100 92
-0.189077 -0.00876265 -0.0623235 0 0 0 74 48 28
-0.0668325 -0.0305088 -0.0674713 0 0 0 86 105 85
-0.0850654 -0.0212685 -0.0665053 0 0 0 103 110 105
-0.116568 -0.0242922 -0.0676938 0 0 0 57 51 63
-0.0841503 -0.0250944 -0.066426 0 0 0 105 110 113
-0.221619 -0.0313099 -0.0631687 0 0 0 89 94 41
-0.216737 -0.0133882 -0.0618744 0 0 0 89 85 30
-0.0267382 -0.0252663 -0.0704881 0 0 0 71 100 43
-0.148395 -0.0192197 -0.0662321 0 0 0 104 111 80
-0.210598 -0.0344226 -0.0604159 0 0 0 65 52 61
