ply
format ascii 1.0
element vertex 54
property float x
property float y
property float z
property float nx
property float ny
property float nz
property uchar diffuse_red
property uchar diffuse_green
property uchar diffuse_blue
end_header
-0.200161 -0.0514766 -0.052244 0 0 0 216 219 218
-0.199998 -0.0511997 -0.0538148 0 0 0 216 219 217
-0.0451272 -0.0542462 -0.0562734 0 0 0 222 234 244
-0.105509 -0.055081 -0.0519666 0 0 0 229 239 243
-0.153286 -0.0538089 -0.051706 0 0 0 230 233 237
-0.230183 -0.0455321 0.0122656 0 0 0 144 153 178
-0.0450512 -0.0345252 -0.0683822 0 0 0 73 104 72
-0.213523 -0.0269037 0.0160778 0 0 0 89 92 100
-0.0667757 -0.0290378 -0.0670215 0 0 0 82 103 76
-0.204174 -0.0050255 0.0133993 0 0 0 109 116 116
-0.171347 -0.0471774 -0.0582738 0 0 0 177 205 211
-0.140063 -0.0489822 -0.0560642 0 0 0 216 235 244
-0.138465 -0.0462371 -0.0573763 0 0 0 124 130 175
-0.0795746 -0.0388097 -0.0665573 0 0 0 69 82 70
-0.228349 -0.00982984 0.0146153 0 0 0 91 94 100
-0.15963 0.00590435 -0.0481904 0 0 0 106 113 91
-0.226859 -0.0120439 0.0142633 0 0 0 94 96 103
-0.183836 0.00777409 -0.0432778 0 0 0 84 96 80
-0.154605 0.00615428 -0.0461258 0 0 0 103 113 105
-0.197685 0.000695246 -0.0543487 0 0 0 71 62 48
-0.198852 -0.00992046 -0.0615934 0 0 0 116 115 100
-0.189297 0.00357392 -0.052546 0 0 0 107 112 93
-0.121392 0.0041555 -0.0559724 0 0 0 80 86 76
-0.0442226 0.00534968 -0.0544519 0 0 0 91 102 80
-0.0784788 -0.00431551 -0.0621581 0 0 0 96 104 93
-0.0350825 -0.0059266 -0.0665899 0 0 0 57 82 67
-0.199992 -0.0422592 0.00901427 0 0 0 83 84 86
-0.0800625 -0.00573107 -0.0621396 0 0 0 97 104 96
-0.208466 0.000721882 -0.0533551 0 0 0 72 66 19
-0.192 -0.0206769 -0.0627051 0 0 0 72 50 32
-0.124096 -0.0396326 -0.0641344 0 0 0 73 90 41
-0.222461 -0.0331791 -0.0588331 0 0 0 86 82 58
-0.166507 -0.0054386 -0.0582898 0 0 0 79 34 24
-0.0612056 -0.0068963 -0.0629234 0 0 0 21 22 23
-0.183071 -0.0257255 -0.0638329 0 0 0 107 100 103
-0.0585658 -0.011954 -0.0633541 0 0 0 39 32 51
-0.175852 -0.0193511 -0.0647284 0 0 0 69 33 35
-0.102918 -0.00829871 -0.0648843 0 0 0 88 97 91
-0.205312 -0.0258552 -0.0640446 0 0 0 102 102 107
-0.0464725 -0.0369855 -0.0700904 0 0 0 78 107 76
-0.180723 -0.011959 -0.0617351 0 0 0 99 98 91
-0.0700308 -0.0305463 -0.066738 0 0 0 75 73 85
-0.0642034 -0.0328407 -0.0672344 0 0 0 96 109 102
-0.181394 -0.00329828 -0.0571489 0 0 0 73 52 26
-0.0653396 -0.0197067 -0.0673878 0 0 0 34 23 40
-0.188041 -0.0378916 -0.0616183 0 0 0 66 93 53
-0.111435 -0.0126042 -0.0652867 0 0 0 97 101 93
-0.188839 -0.00799236 -0.0615693 0 0 0 71 47 27
-0.137712 -0.00407265 -0.0603368 0 0 0 74 83 83
-0.025054 -0.0253821 -0.0691134 0 0 0 68 102 49
-0.0840091 -0.0248225 -0.0661035 0 0 0 104 111 108
-0.0849058 -0.020992 -0.0661675 0 0 0 103 110 115
-0.107781 -0.0351445 -0.0645176 0 0 0 116 120 124
-0.0940544 -0.0140778 -0.0645941 0 0 0 56 62 64
