ply
format ascii 1.0
element vertex 56
property float x
property float y
property float z
property float nx
property float ny
property float nz
property uchar diffuse_red
property uchar diffuse_green
property uchar diffuse_blue
end_header
-0.210302 -0.0528056 -0.0561778 0 0 0 215 219 219
-0.0975443 -0.053126 -0.0578015 0 0 0 225 232 237
-0.155216 -0.0534325 -0.0535821 0 0 0 231 233 239
-0.237168 -0.00852612 -0.0601841 0 0 0 135 155 165
-0.144135 -0.0252276 -0.0677132 0 0 0 77 85 87
-0.135705 -0.0517979 -0.0589352 0 0 0 239 237 241
-0.210848 -0.00341548 0.00502428 0 0 0 97 100 107
-0.218283 -0.0233492 0.0148557 0 0 0 91 95 106
-0.150332 -0.0360176 -0.0625065 0 0 0 50 53 56
-0.0899132 0.00467469 -0.051185 0 0 0 98 101 87
-0.152222 -0.0419165 -0.064036 0 0 0 77 86 71
-0.23038 -0.0123427 0.0139524 0 0 0 89 92 103
-0.22949 -0.0133419 0.012949 0 0 0 92 94 102
-0.0410708 0.00437174 -0.0550752 0 0 0 89 106 103
-0.0790892 -0.0110577 -0.0637446 0 0 0 99 107 102
-0.16692 0.00223883 -0.0532666 0 0 0 100 100 95
-0.15027 0.00465597 -0.0484967 0 0 0 57 74 65
-0.185793 0.00637683 -0.0436979 0 0 0 74 63 58
-0.124867 0.00305963 -0.0558674 0 0 0 82 83 84
-0.157495 0.00418777 -0.0512095 0 0 0 102 112 89
-0.190353 0.0022177 -0.0537695 0 0 0 109 111 94
-0.196752 0.00162077 -0.0544766 0 0 0 88 78 54
-0.200378 -0.0114039 -0.0635283 0 0 0 114 114 105
-0.220426 -0.0124255 -0.0604253 0 0 0 83 82 75
-0.193485 -0.020971 -0.0643399 0 0 0 70 51 26
-0.123994 -0.0405484 -0.063979 0 0 0 74 90 75
-0.166845 -0.00549591 -0.0584017 0 0 0 69 37 25
-0.135692 -0.0452586 -0.0611492 0 0 0 79 93 120
-0.20949 -0.000819215 -0.0546492 0 0 0 73 67 18
-0.0948917 -0.0146431 -0.0652068 0 0 0 56 59 67
-0.0556839 -0.0336309 -0.0611925 0 0 0 97 116 100
-0.189963 -0.0391466 -0.0640225 0 0 0 65 92 55
-0.182363 -0.00461764 -0.0582775 0 0 0 72 53 20
-0.0609346 -0.0121186 -0.0651347 0 0 0 36 31 51
-0.206037 -0.0274515 -0.0651062 0 0 0 102 102 109
-0.0841495 -0.0366348 -0.0683133 0 0 0 38 30 48
-0.0616194 -0.0133772 -0.065994 0 0 0 41 31 59
-0.180068 -0.0143153 -0.0630057 0 0 0 117 124 111
-0.0653624 -0.0200689 -0.0671509 0 0 0 35 23 44
-0.027322 -0.0252448 -0.0705656 0 0 0 71 100 45
-0.0479311 -0.0386455 -0.0695619 0 0 0 80 110 77
-0.0948917 -0.0146431 -0.0652068 0 0 0 56 59 67
-0.207965 -0.017674 -0.0635984 0 0 0 47 23 9
-0.112281 -0.0133372 -0.0659965 0 0 0 96 101 97
-0.217986 -0.0398957 0.0114692 0 0 0 84 89 93
-0.189093 -0.00944678 -0.0619298 0 0 0 71 47 25
-0.0421177 -0.0412348 -0.0685795 0 0 0 87 117 78
-0.175224 -0.0194239 -0.0655769 0 0 0 69 29 40
-0.146789 -0.00672115 -0.0631662 0 0 0 90 110 93
-0.0295994 -0.0364647 -0.0693788 0 0 0 92 119 85
-0.0847396 -0.0253058 -0.0665794 0 0 0 105 111 111
-0.211153 -0.0351612 -0.0606873 0 0 0 63 59 55
-0.190224 -0.0310527 -0.0643748 0 0 0 99 105 106
-0.177116 -0.0363366 -0.0624949 0 0 0 101 90 104
-0.11144 -0.0358093 -0.0662457 0 0 0 113 120 112
-0.180049 -0.0365187 -0.0623934 0 0 0 98 118 99
