ply
format ascii 1.0
element vertex 47
property float x
property float y
property float z
property float nx
property float ny
property float nz
property uchar diffuse_red
property uchar diffuse_green
property uchar diffuse_blue
end_header
-0.210328 -0.0495043 -0.0533656 0 0 0 216 219 219
-0.20418 -0.0508451 -0.0511847 0 0 0 217 221 221
-0.0620679 -0.054223 -0.0556798 0 0 0 246 246 248
-0.109741 -0.0530719 -0.0529186 0 0 0 213 225 242
-0.155589 -0.0513249 -0.0547977 0 0 0 233 235 238
-0.219659 -0.0443657 0.00816544 0 0 0 80 85 96
-0.0478717 -0.0343483 -0.0677371 0 0 0 74 102 56
-0.231597 -0.0401595 0.0164857 0 0 0 171 179 210
-0.235687 -0.00786359 -0.0584598 0 0 0 190 192 165
-0.130599 -0.0240532 -0.0669271 0 0 0 78 86 87
-0.210891 -0.00140263 0.00719919 0 0 0 94 95 99
-0.150617 -0.0354116 -0.0622533 0 0 0 51 53 67
-0.189467 0.00440018 -0.0524456 0 0 0 108 111 100
-0.199464 -0.00994724 -0.0640082 0 0 0 117 116 107
-0.137095 -0.0464934 -0.058697 0 0 0 176 203 208
-0.0790368 -0.0382849 -0.0666011 0 0 0 66 81 69
-0.163287 0.00537255 -0.0503039 0 0 0 98 94 90
-0.226677 -0.0083363 0.0138197 0 0 0 92 96 105
-0.183406 0.00859562 -0.0423767 0 0 0 68 70 58
-0.2289 -0.00861844 0.014612 0 0 0 87 93 100
-0.0374982 0.000484919 -0.0627158 0 0 0 94 107 94
-0.119384 0.00605393 -0.0547412 0 0 0 81 85 84
-0.0783229 -0.0100776 -0.0639969 0 0 0 99 106 101
-0.0879219 0.00335749 -0.052673 0 0 0 95 100 87
-0.191454 -0.0186025 -0.0631502 0 0 0 71 51 25
-0.0191267 -0.0329882 -0.0695808 0 0 0 118 120 89
-0.123571 -0.0389334 -0.0643779 0 0 0 71 91 75
-0.166547 -0.00452394 -0.0595992 0 0 0 80 34 22
-0.104842 -0.00552304 -0.063714 0 0 0 90 98 89
-0.186677 -0.000594807 -0.0572957 0 0 0 76 53 39
-0.183149 -0.0247346 -0.0651521 0 0 0 108 102 106
-0.17591 -0.0184014 -0.0660315 0 0 0 72 35 30
-0.20537 -0.0247804 -0.0654847 0 0 0 102 104 107
-0.0601473 -0.0126559 -0.065588 0 0 0 38 27 60
-0.0636404 -0.0323758 -0.0672299 0 0 0 99 110 101
-0.180105 -0.0110408 -0.0623367 0 0 0 100 98 98
-0.0639775 -0.019293 -0.0667736 0 0 0 33 20 35
-0.214764 -0.0466411 0.00864896 0 0 0 83 88 97
-0.110804 -0.0119567 -0.0655706 0 0 0 95 102 95
-0.0934329 -0.0134924 -0.0647936 0 0 0 57 62 63
-0.189613 -0.0369179 -0.0628907 0 0 0 66 94 49
-0.209281 -0.0337036 -0.0597105 0 0 0 61 74 34
-0.184938 -0.00366822 -0.059422 0 0 0 80 52 32
-0.083421 -0.0242799 -0.0662182 0 0 0 105 110 106
-0.109541 -0.0345172 -0.0652261 0 0 0 113 121 120
-0.139095 -0.0346888 -0.0638513 0 0 0 100 106 76
-0.145222 -0.00490509 -0.0626971 0 0 0 89 111 104
