ply
format ascii 1.0
element vertex 53
property float x
property float y
property float z
property float nx
property float ny
property float nz
property uchar diffuse_red
property uchar diffuse_green
property uchar diffuse_blue
end_header
-0.212147 -0.0513543 -0.053257 0 0 0 216 219 218
-0.152415 -0.0541911 -0.052788 0 0 0 232 233 238
-0.192745 -0.0527709 -0.0545441 0 0 0 219 220 220
-0.184895 -0.026581 0.0148446 0 0 0 173 169 155
-0.197574 -0.0442164 0.00998928 0 0 0 114 109 116
-0.191557 -0.0422449 -0.0617054 0 0 0 66 94 62
-0.21386 -0.0275937 0.0155627 0 0 0 88 92 98
-0.222426 -0.0442973 0.00949338 0 0 0 80 86 93
-0.0660168 -0.0293983 -0.0662659 0 0 0 82 100 87
-0.136581 -0.0243466 -0.0669152 0 0 0 81 87 85
-0.0826437 -0.0390872 -0.0676336 0 0 0 66 69 65
-0.166678 0.00279776 -0.0532559 0 0 0 101 104 96
-0.186257 0.00566032 -0.0430405 0 0 0 44 31 46
-0.211205 -0.000621675 0.00449207 0 0 0 89 95 101
-0.157246 0.00467061 -0.0511862 0 0 0 104 114 89
-0.122395 0.00351936 -0.0552742 0 0 0 81 86 83
-0.196438 0.00125393 -0.0546508 0 0 0 97 86 67
-0.07913 -0.0084103 -0.06342 0 0 0 97 106 99
-0.200204 -0.0105407 -0.0636098 0 0 0 116 115 107
-0.189447 0.00290389 -0.0529859 0 0 0 109 113 93
-0.0426603 0.000682337 -0.0608337 0 0 0 87 107 77
-0.140132 -0.0432731 -0.0640304 0 0 0 83 89 93
-0.0343154 -0.0074735 -0.0659539 0 0 0 52 87 56
-0.0917685 0.0022691 -0.0536479 0 0 0 92 98 83
-0.192083 -0.0202467 -0.0629566 0 0 0 70 51 27
-0.0445391 -0.00427806 -0.0652107 0 0 0 88 95 77
-0.165938 -0.00607581 -0.0578797 0 0 0 80 33 20
-0.124063 -0.0401063 -0.0642692 0 0 0 75 91 38
-0.103912 -0.00765458 -0.0638911 0 0 0 90 100 89
-0.183738 -0.0263159 -0.0649791 0 0 0 108 102 105
-0.053488 -0.0423826 -0.0647453 0 0 0 86 115 79
-0.17588 -0.0199886 -0.0650937 0 0 0 71 36 35
-0.0603061 -0.00827232 -0.063943 0 0 0 28 26 36
-0.0641798 -0.0331281 -0.0671277 0 0 0 96 110 95
-0.0607626 -0.014677 -0.0656388 0 0 0 44 38 65
-0.0298908 -0.036841 -0.0680744 0 0 0 87 116 81
-0.205957 -0.0265138 -0.0653026 0 0 0 103 104 104
-0.18085 -0.00397861 -0.0567879 0 0 0 73 55 27
-0.0620322 -0.00713838 -0.0634897 0 0 0 19 24 18
-0.180129 -0.0126554 -0.0613692 0 0 0 99 96 97
-0.0358487 -0.0400399 -0.0666738 0 0 0 83 114 78
-0.0941005 -0.0144572 -0.0646262 0 0 0 55 61 61
-0.21845 -0.0165505 -0.0629129 0 0 0 59 53 12
-0.0250467 -0.0255476 -0.0688513 0 0 0 71 100 44
-0.190863 -0.0398361 -0.0621371 0 0 0 68 95 50
-0.145946 -0.00623264 -0.0624842 0 0 0 91 114 91
-0.0849237 -0.0213438 -0.0661561 0 0 0 104 110 107
-0.188265 -0.00870811 -0.0612322 0 0 0 74 48 28
-0.0840151 -0.0251715 -0.0660851 0 0 0 107 110 114
-0.112747 -0.0166017 -0.0673729 0 0 0 96 101 96
-0.111482 -0.013039 -0.0653918 0 0 0 95 101 94
-0.0228924 -0.0347529 -0.0706592 0 0 0 105 115 77
-0.211108 -0.0342109 -0.0609433 0 0 0 64 56 67
