ply
format ascii 1.0
element vertex 55
property float x
property float y
property float z
property float nx
property float ny
property float nz
property uchar diffuse_red
property uchar diffuse_green
property uchar diffuse_blue
end_header
-0.211441 -0.0506709 -0.0519163 0 0 0 214 217 217
-0.210655 -0.0505101 -0.0527016 0 0 0 214 217 215
-0.154574 -0.052392 -0.0528908 0 0 0 232 233 237
-0.192031 -0.0521622 -0.053296 0 0 0 217 219 220
-0.10636 -0.0527836 -0.0577721 0 0 0 224 226 236
-0.130704 -0.052481 -0.0557938 0 0 0 238 238 241
-0.16879 -0.0503847 -0.0596378 0 0 0 220 223 225
-0.0899631 -0.0514506 -0.0557255 0 0 0 242 247 251
-0.0397782 -0.0397728 -0.068342 0 0 0 84 116 83
-0.236772 -0.0122546 -0.0572317 0 0 0 179 186 113
-0.194344 -0.0416273 -0.06114 0 0 0 62 92 55
-0.211709 -0.0271922 0.0187056 0 0 0 89 93 100
-0.160926 0.00458432 -0.0480977 0 0 0 102 92 83
-0.136387 -0.0249998 -0.0667512 0 0 0 82 86 84
-0.217923 -0.00858057 0.0115251 0 0 0 98 100 105
-0.211851 -0.00527967 0.0085819 0 0 0 97 97 107
-0.0785526 -0.03866 -0.0672915 0 0 0 69 93 69
-0.187831 0.00638815 -0.0447518 0 0 0 43 37 54
-0.227036 -0.000513053 0.00603434 0 0 0 90 96 101
-0.122958 0.00378611 -0.0540296 0 0 0 82 86 78
-0.18725 0.00467186 -0.0498639 0 0 0 103 109 95
-0.19999 -0.00976013 -0.0629863 0 0 0 114 114 103
-0.0324441 -0.00587864 -0.0659956 0 0 0 54 81 45
-0.218192 -0.00967261 -0.0572685 0 0 0 80 83 68
-0.078657 -0.0361302 -0.0668779 0 0 0 64 55 72
-0.18791 -0.0028037 -0.0558389 0 0 0 75 65 47
-0.222996 -0.0319288 -0.0593575 0 0 0 92 90 68
-0.19251 -0.0205512 -0.0633348 0 0 0 72 54 20
-0.0368669 0.000858301 -0.0577791 0 0 0 97 105 66
-0.0901893 0.00232865 -0.0504098 0 0 0 90 95 80
-0.123217 -0.0409321 -0.0634942 0 0 0 77 92 71
-0.105284 -0.00740092 -0.0634249 0 0 0 92 97 94
-0.0798576 -0.00703786 -0.0621217 0 0 0 98 103 97
-0.166356 -0.00541037 -0.0581125 0 0 0 80 34 19
-0.0618064 -0.00691631 -0.0633514 0 0 0 20 25 13
-0.0599269 -0.0119238 -0.0644463 0 0 0 36 32 48
-0.0640722 -0.032887 -0.0670531 0 0 0 99 110 98
-0.175045 -0.0193648 -0.0638357 0 0 0 71 33 38
-0.179113 -0.0117977 -0.0616259 0 0 0 110 114 124
-0.181242 -0.00325889 -0.0569758 0 0 0 74 53 24
-0.205814 -0.0257051 -0.0647023 0 0 0 102 102 103
-0.0939079 -0.0141024 -0.0643932 0 0 0 58 60 67
-0.182935 -0.0256716 -0.0637039 0 0 0 108 101 108
-0.188036 -0.00798234 -0.0606464 0 0 0 70 48 25
-0.187917 -0.0378376 -0.0615155 0 0 0 67 92 57
-0.112723 -0.0125156 -0.0664826 0 0 0 96 100 97
-0.0689933 -0.0304033 -0.067459 0 0 0 83 88 85
-0.0847128 -0.0222772 -0.0661801 0 0 0 104 111 115
-0.210306 -0.0345804 -0.0597437 0 0 0 58 72 52
-0.0273608 -0.0268569 -0.0694343 0 0 0 73 102 55
-0.10909 -0.0349925 -0.0657465 0 0 0 115 121 125
-0.206657 -0.00110874 -0.0551126 0 0 0 80 84 70
-0.145712 -0.0056744 -0.0620431 0 0 0 89 108 93
-0.149392 -0.0107987 -0.0617695 0 0 0 69 59 45
-0.141389 -0.012101 -0.0658115 0 0 0 81 83 83
