ply
format ascii 1.0
element vertex 52
property float x
property float y
property float z
property float nx
property float ny
property float nz
property uchar diffuse_red
property uchar diffuse_green
property uchar diffuse_blue
end_header
-0.203835 -0.0520874 -0.0508507 0 0 0 215 219 218
-0.210557 -0.0517784 -0.0540059 0 0 0 215 218 213
-0.134247 -0.0522129 -0.0584399 0 0 0 236 235 241
-0.10775 -0.0512675 -0.0594413 0 0 0 231 234 238
-0.211311 -0.026758 0.0165839 0 0 0 89 94 102
-0.222935 -0.0450732 0.00346353 0 0 0 80 85 96
-0.0674733 -0.0291473 -0.0662935 0 0 0 72 76 77
-0.127178 -0.0246435 -0.0667762 0 0 0 83 91 87
-0.213191 -0.00406407 0.00818958 0 0 0 92 96 109
-0.149434 -0.0361752 -0.0626888 0 0 0 53 51 62
-0.23756 -0.0219435 -0.0618824 0 0 0 126 140 170
-0.0808758 -0.0373342 -0.0679267 0 0 0 58 64 66
-0.165798 0.00334685 -0.0531365 0 0 0 101 104 96
-0.0389872 0.00470878 -0.0556382 0 0 0 73 89 90
-0.0389278 0.00338083 -0.0558469 0 0 0 82 101 92
-0.187356 0.00458786 -0.0511774 0 0 0 103 107 86
-0.198346 -0.000668188 -0.0549199 0 0 0 58 46 49
-0.0803195 -0.00920613 -0.0653403 0 0 0 97 107 102
-0.226765 -0.0096002 0.0141572 0 0 0 93 98 101
-0.199979 -0.00995375 -0.0642925 0 0 0 114 115 103
-0.12217 0.00401143 -0.0557941 0 0 0 80 86 81
-0.221068 -0.0334902 -0.0584501 0 0 0 88 81 62
-0.18796 -0.00292474 -0.0571118 0 0 0 77 62 57
-0.193164 -0.0195543 -0.0651229 0 0 0 73 50 20
-0.166386 -0.005491 -0.0592355 0 0 0 79 34 27
-0.123181 -0.0397246 -0.0639463 0 0 0 71 90 44
-0.108303 -0.00743322 -0.0653845 0 0 0 93 98 91
-0.0211323 -0.0346037 -0.0695259 0 0 0 106 116 94
-0.175666 -0.0194442 -0.0656813 0 0 0 71 31 30
-0.183534 -0.0257589 -0.0655675 0 0 0 108 102 105
-0.219831 -0.045291 0.00600633 0 0 0 79 85 91
-0.0939348 -0.0127938 -0.0648175 0 0 0 51 55 55
-0.0584031 -0.0118534 -0.063541 0 0 0 36 32 50
-0.0598463 -0.0130663 -0.0650706 0 0 0 40 31 52
-0.180632 -0.0034001 -0.05744 0 0 0 72 54 28
-0.205119 -0.0259929 -0.0651711 0 0 0 89 105 109
-0.0624857 -0.0329037 -0.0660499 0 0 0 100 111 97
-0.0651371 -0.0196331 -0.0675893 0 0 0 32 16 39
-0.179259 -0.0121372 -0.0612323 0 0 0 98 96 94
-0.0938791 -0.0140391 -0.0650132 0 0 0 55 60 70
-0.206975 -0.0162071 -0.0636264 0 0 0 44 24 8
-0.111257 -0.0125962 -0.0658297 0 0 0 94 100 95
-0.187846 -0.0379917 -0.0625792 0 0 0 66 93 52
-0.0248319 -0.0252506 -0.0690186 0 0 0 72 100 46
-0.116218 -0.0238662 -0.0677823 0 0 0 61 51 54
-0.0838068 -0.0247737 -0.066411 0 0 0 104 111 109
-0.210254 -0.03478 -0.0609662 0 0 0 60 73 45
-0.188691 -0.00809379 -0.0626561 0 0 0 73 47 24
-0.107572 -0.0351273 -0.0649449 0 0 0 116 118 121
-0.145085 -0.00458003 -0.0621207 0 0 0 83 102 97
-0.181182 -0.00564273 -0.0585614 0 0 0 73 48 30
-0.149387 -0.0108585 -0.0627547 0 0 0 68 65 37
