ply
format ascii 1.0
element vertex 45
property float x
property float y
property float z
property float nx
property float ny
property float nz
property uchar diffuse_red
property uchar diffuse_green
property uchar diffuse_blue
end_header
-0.0640286 -0.0532401 -0.0569723 0 0 0 246 249 251
-0.211486 -0.0516374 -0.0521296 0 0 0 216 218 217
-0.153829 -0.0521171 -0.0538372 0 0 0 234 235 238
-0.213549 -0.0537947 0.00149491 0 0 0 166 167 174
-0.111113 -0.0514026 -0.0587603 0 0 0 212 223 240
-0.192124 -0.0520331 -0.0533534 0 0 0 220 220 219
-0.193649 -0.0413383 -0.0619914 0 0 0 65 92 57
-0.220856 -0.0460113 0.0113794 0 0 0 84 90 97
-0.090956 -0.0515739 -0.0550201 0 0 0 243 247 249
-0.235658 -0.00774146 -0.0564941 0 0 0 179 184 160
-0.136528 -0.0237272 -0.0666992 0 0 0 81 87 84
-0.213417 -0.0268063 0.0161487 0 0 0 89 94 97
-0.138397 -0.0473435 -0.0575884 0 0 0 183 193 213
-0.208987 -0.00484814 0.00852253 0 0 0 104 106 113
-0.160974 0.00469447 -0.0482182 0 0 0 103 93 81
-0.185348 0.00758497 -0.0415477 0 0 0 39 26 45
-0.0404438 0.00319678 -0.0570509 0 0 0 90 98 92
-0.122153 0.00404383 -0.0550622 0 0 0 84 85 79
-0.0810835 -0.0373627 -0.0677364 0 0 0 61 66 67
-0.189196 0.00373902 -0.0524467 0 0 0 109 113 100
-0.197491 -0.00982336 -0.0599656 0 0 0 115 115 106
-0.229469 -0.0141745 -0.0621906 0 0 0 18 8 34
-0.0789858 -0.00807022 -0.0634481 0 0 0 95 105 99
-0.0915257 0.00264533 -0.0535889 0 0 0 93 99 84
-0.218885 -0.00947835 -0.0581006 0 0 0 82 83 69
-0.185963 -0.000323399 -0.0548215 0 0 0 78 49 51
-0.123316 -0.0408532 -0.063647 0 0 0 64 93 72
-0.19199 -0.0193751 -0.062459 0 0 0 71 51 28
-0.165754 -0.00533973 -0.0574769 0 0 0 82 32 23
-0.221684 -0.0282262 -0.0603855 0 0 0 81 83 58
-0.0607113 -0.0131307 -0.0655615 0 0 0 41 33 44
-0.205905 -0.0255711 -0.0647517 0 0 0 92 106 108
-0.0645335 -0.0197699 -0.0667612 0 0 0 32 22 28
-0.179993 -0.011844 -0.0609123 0 0 0 99 95 100
-0.0203981 -0.0346179 -0.0707207 0 0 0 127 117 102
-0.207079 -0.0158644 -0.0623653 0 0 0 48 23 10
-0.188663 -0.0376201 -0.0623419 0 0 0 67 93 51
-0.0939904 -0.0140436 -0.0645951 0 0 0 58 58 64
-0.0250113 -0.0254493 -0.0691848 0 0 0 65 100 45
-0.0848538 -0.0209697 -0.0661862 0 0 0 101 111 105
-0.083963 -0.0248018 -0.0661287 0 0 0 105 110 108
-0.0463961 -0.0383219 -0.0703761 0 0 0 80 110 79
-0.107749 -0.0350888 -0.0645405 0 0 0 117 120 122
-0.211026 -0.0343503 -0.0605642 0 0 0 60 73 45
-0.185888 -0.0268533 -0.0638791 0 0 0 108 105 108
