ply
format ascii 1.0
element vertex 54
property float x
property float y
property float z
property float nx
property float ny
property float nz
property uchar diffuse_red
property uchar diffuse_green
property uchar diffuse_blue
end_header
-0.212237 -0.0513636 -0.0540658 0 0 0 216 219 220
-0.15474 -0.0528479 -0.053868 0 0 0 234 235 240
-0.0979529 -0.0529444 -0.0570812 0 0 0 219 224 237
-0.192947 -0.0541506 -0.0538941 0 0 0 218 219 219
-0.0383963 -0.0397893 -0.067388 0 0 0 84 115 80
-0.229301 -0.046464 0.00645771 0 0 0 100 110 99
-0.19601 -0.0413469 -0.0622689 0 0 0 64 93 67
-0.137726 -0.0491225 -0.0578321 0 0 0 214 240 246
-0.13447 -0.0486991 -0.0596509 0 0 0 204 228 244
-0.215226 -0.00611236 0.00935027 0 0 0 94 99 103
-0.213467 -0.0246913 0.0141541 0 0 0 87 92 93
-0.136631 -0.0254548 -0.0678293 0 0 0 81 87 88
-0.226166 0.00303339 0.00141713 0 0 0 91 95 102
-0.153318 -0.0353 -0.0648456 0 0 0 49 50 67
-0.0810853 -0.0387919 -0.0683435 0 0 0 68 80 71
-0.0394154 0.0046917 -0.0559348 0 0 0 75 87 90
-0.205809 -0.000123347 0.00759926 0 0 0 90 91 104
-0.0792818 -0.00819174 -0.0640664 0 0 0 98 103 99
-0.0425687 0.00320988 -0.0571827 0 0 0 100 115 105
-0.187596 0.00595233 -0.0472177 0 0 0 77 66 64
-0.122595 0.00368863 -0.0561086 0 0 0 80 86 78
-0.198434 -0.010694 -0.0622678 0 0 0 115 114 105
-0.189653 0.00294319 -0.0540119 0 0 0 110 112 100
-0.192157 -0.0213823 -0.0640426 0 0 0 73 54 22
-0.123444 -0.0400673 -0.0641723 0 0 0 70 91 34
-0.187019 -0.00109317 -0.0571012 0 0 0 77 48 30
-0.166166 -0.00485493 -0.058611 0 0 0 70 37 25
-0.104064 -0.00749093 -0.0646133 0 0 0 89 98 91
-0.0448469 -0.0397242 -0.0694169 0 0 0 83 113 76
-0.0196807 -0.0344556 -0.0700497 0 0 0 129 113 110
-0.183847 -0.0263266 -0.0658358 0 0 0 108 100 112
-0.0293124 -0.0382042 -0.0664188 0 0 0 88 116 79
-0.0589564 -0.00807463 -0.0632064 0 0 0 28 27 34
-0.176002 -0.0199833 -0.0659606 0 0 0 71 39 31
-0.0587684 -0.0119576 -0.0638085 0 0 0 38 30 43
-0.206065 -0.0265731 -0.0662228 0 0 0 102 103 107
-0.180278 -0.0126398 -0.0622868 0 0 0 99 97 100
-0.0642689 -0.0328969 -0.0676016 0 0 0 97 112 98
-0.017531 -0.0191237 -0.0705939 0 0 0 84 96 59
-0.206693 -0.0169062 -0.0631368 0 0 0 46 23 9
-0.0942359 -0.0142765 -0.0652845 0 0 0 55 60 68
-0.188114 -0.038569 -0.0628237 0 0 0 69 92 51
-0.111619 -0.0128992 -0.0661079 0 0 0 95 101 94
-0.18907 -0.00867463 -0.0629615 0 0 0 72 48 24
-0.182222 -0.00615782 -0.0596339 0 0 0 72 48 30
-0.0849794 -0.0224083 -0.0669466 0 0 0 105 111 109
-0.0266981 -0.0251379 -0.0705239 0 0 0 68 101 43
-0.0841238 -0.0249769 -0.0666582 0 0 0 106 110 104
-0.211159 -0.0353554 -0.0620085 0 0 0 58 73 46
-0.11287 -0.0164747 -0.0680741 0 0 0 97 101 94
-0.110153 -0.0354464 -0.0657052 0 0 0 112 120 117
-0.0661163 -0.0291664 -0.0667646 0 0 0 83 104 84
-0.207907 -0.00206561 -0.0560582 0 0 0 80 75 45
-0.144143 -0.0117016 -0.0659073 0 0 0 88 89 90
