ply
format ascii 1.0
element vertex 52
property float x
property float y
property float z
property float nx
property float ny
property float nz
property uchar diffuse_red
property uchar diffuse_green
property uchar diffuse_blue
end_header
-0.155016 -0.0514802 -0.0555365 0 0 0 232 233 237
-0.211382 -0.0499252 -0.0524732 0 0 0 213 217 214
-0.0331594 -0.0441268 -0.0653077 0 0 0 92 133 97
-0.107755 -0.0510051 -0.0591109 0 0 0 233 235 242
-0.230234 -0.0460355 0.0115162 0 0 0 158 173 192
-0.203518 -0.0495703 -0.0532601 0 0 0 213 220 222
-0.236173 -0.00506907 -0.0559531 0 0 0 132 125 108
-0.194213 -0.0409375 -0.0616146 0 0 0 63 93 58
-0.0679794 -0.0274928 -0.0679044 0 0 0 75 76 84
-0.215004 -0.0252439 0.0158567 0 0 0 89 93 100
-0.144568 -0.0237705 -0.0669248 0 0 0 79 87 85
-0.219388 -0.0068627 0.0111921 0 0 0 95 98 105
-0.207249 -0.00450478 0.0106109 0 0 0 104 108 110
-0.217187 -0.00539477 0.0105737 0 0 0 94 100 103
-0.225125 -0.00384721 0.011676 0 0 0 92 100 104
-0.209838 -0.0045502 0.0089412 0 0 0 100 102 111
-0.161317 0.00513808 -0.0491152 0 0 0 102 91 85
-0.0801544 -0.00656062 -0.0643347 0 0 0 96 103 91
-0.174 -0.0185886 -0.0649985 0 0 0 64 39 48
-0.184872 0.0082603 -0.043401 0 0 0 68 70 61
-0.188855 0.00426405 -0.0527405 0 0 0 109 114 92
-0.199718 -0.00904393 -0.063428 0 0 0 114 115 107
-0.0306035 -0.005937 -0.0644933 0 0 0 55 80 48
-0.186918 0.000266736 -0.0566445 0 0 0 75 51 45
-0.0904617 0.00280121 -0.0526817 0 0 0 93 97 84
-0.0436055 -0.0395544 -0.0698596 0 0 0 85 115 80
-0.165462 -0.00373065 -0.0574766 0 0 0 70 34 23
-0.123074 -0.040536 -0.0636906 0 0 0 65 93 74
-0.193574 -0.0197255 -0.0652976 0 0 0 73 50 30
-0.0305213 -0.0382417 -0.0672406 0 0 0 89 118 77
-0.208034 0.00151246 -0.0536453 0 0 0 74 66 25
-0.0937907 -0.0100955 -0.0638131 0 0 0 52 58 73
-0.0541483 -0.033768 -0.0584208 0 0 0 96 112 99
-0.183381 -0.0249476 -0.0648629 0 0 0 107 100 104
-0.0210521 -0.0348396 -0.0692706 0 0 0 106 117 90
-0.21279 -0.0311884 0.0157166 0 0 0 86 91 100
-0.205602 -0.0249614 -0.0651941 0 0 0 103 101 108
-0.187768 -0.0371741 -0.0619586 0 0 0 65 93 52
-0.184339 -0.00375963 -0.0597745 0 0 0 73 52 20
-0.0943775 -0.0137741 -0.0651143 0 0 0 58 62 67
-0.206754 -0.0152557 -0.0627935 0 0 0 46 23 9
-0.187765 -0.00732019 -0.0610385 0 0 0 71 49 25
-0.0818019 -0.0348442 -0.0662467 0 0 0 50 43 44
-0.111019 -0.0122634 -0.0651937 0 0 0 95 101 96
-0.0875766 -0.0220207 -0.0673423 0 0 0 109 113 114
-0.229948 -0.016751 0.0163686 0 0 0 88 92 96
-0.0246881 -0.0254663 -0.0686828 0 0 0 71 100 44
-0.138813 -0.00374651 -0.0602152 0 0 0 72 83 68
-0.1105 -0.0347408 -0.0657084 0 0 0 117 120 116
-0.0857695 -0.040245 -0.0657641 0 0 0 74 93 89
-0.163942 -0.0135221 -0.0631225 0 0 0 100 93 40
-0.125764 -0.0476691 -0.0590018 0 0 0 177 211 230
