ply
format ascii 1.0
element vertex 56
property float x
property float y
property float z
property float nx
property float ny
property float nz
property uchar diffuse_red
property uchar diffuse_green
property uchar diffuse_blue
end_header
-0.211434 -0.0512783 -0.0525641 0 0 0 216 220 222
-0.0631586 -0.0535512 -0.0561431 0 0 0 245 249 251
-0.107744 -0.0541262 -0.0523935 0 0 0 215 223 240
-0.0617476 -0.0511939 -0.0615928 0 0 0 220 237 246
-0.152204 -0.0525919 -0.0542479 0 0 0 234 233 237
-0.153047 -0.0527653 -0.0534113 0 0 0 233 234 238
-0.230368 -0.0461596 0.0116016 0 0 0 141 156 171
-0.0449008 -0.0347134 -0.0682083 0 0 0 72 105 66
-0.194092 -0.0526494 -0.0546086 0 0 0 219 221 220
-0.211146 -0.0287277 0.0169857 0 0 0 91 94 104
-0.184579 -0.0314316 0.0139963 0 0 0 180 208 197
-0.235947 -0.00665297 -0.0553666 0 0 0 133 125 108
-0.192248 -0.0422279 -0.0609899 0 0 0 65 93 59
-0.236107 -0.00684953 -0.0537971 0 0 0 98 99 101
-0.149554 -0.0353724 -0.0620873 0 0 0 51 53 61
-0.213112 -0.00479902 0.00889405 0 0 0 91 95 101
-0.165253 0.00406166 -0.0515643 0 0 0 97 95 85
-0.0785235 -0.0388873 -0.067433 0 0 0 69 91 64
-0.231343 -0.0118727 0.0137191 0 0 0 89 91 100
-0.184704 0.00710896 -0.0428927 0 0 0 74 65 58
-0.155977 0.00575433 -0.0479185 0 0 0 104 115 106
-0.196289 0.00143004 -0.0546676 0 0 0 96 84 72
-0.198143 -0.0104842 -0.0613213 0 0 0 115 116 107
-0.189297 0.00307049 -0.0529979 0 0 0 109 115 90
-0.121378 0.00379806 -0.0561192 0 0 0 80 85 79
-0.0782494 -0.00837897 -0.0627326 0 0 0 96 103 96
-0.0459139 0.00497802 -0.0539812 0 0 0 85 94 68
-0.0885509 0.00245862 -0.0524375 0 0 0 96 99 85
-0.186633 -0.00208339 -0.0563036 0 0 0 74 52 43
-0.137431 -0.0476538 -0.0586686 0 0 0 178 207 208
-0.0875189 -0.0408344 -0.0656725 0 0 0 74 83 76
-0.19255 -0.0211171 -0.063949 0 0 0 74 51 22
-0.166462 -0.00589034 -0.0586445 0 0 0 81 34 23
-0.222968 -0.0336623 -0.0602512 0 0 0 86 82 58
-0.123953 -0.0399909 -0.0643182 0 0 0 69 91 45
-0.183613 -0.0261383 -0.0650301 0 0 0 108 101 110
-0.175749 -0.0198189 -0.0651329 0 0 0 72 34 32
-0.106803 -0.0076304 -0.0651042 0 0 0 91 97 92
-0.236589 -0.0341046 -0.0550472 0 0 0 116 126 149
-0.0579082 -0.00833021 -0.0619373 0 0 0 31 23 36
-0.139181 -0.0429679 -0.0649276 0 0 0 89 96 92
-0.062505 -0.0345023 -0.0660328 0 0 0 103 123 103
-0.0584857 -0.0121739 -0.063228 0 0 0 36 31 46
-0.205833 -0.0263129 -0.0653618 0 0 0 104 103 107
-0.179992 -0.0124866 -0.0613998 0 0 0 99 97 99
-0.0644752 -0.0199918 -0.0666342 0 0 0 35 19 40
-0.1075 -0.0312748 -0.0671465 0 0 0 107 117 112
-0.0249201 -0.0255275 -0.0688445 0 0 0 69 99 46
-0.190652 -0.0382772 -0.0635824 0 0 0 66 94 47
-0.114191 -0.0166205 -0.0672253 0 0 0 95 99 91
-0.188124 -0.00853113 -0.0612601 0 0 0 73 47 32
-0.0203776 -0.0362881 -0.0689899 0 0 0 109 120 115
-0.217401 -0.0194254 -0.0642503 0 0 0 96 87 9
-0.210318 -0.035195 -0.0604088 0 0 0 60 74 49
-0.185324 -0.00603286 -0.0609531 0 0 0 79 49 34
-0.0830514 -0.0236535 -0.0667822 0 0 0 102 110 107
