ply
format ascii 1.0
element vertex 55
property float x
property float y
property float z
property float nx
property float ny
property float nz
property uchar diffuse_red
property uchar diffuse_green
property uchar diffuse_blue
end_header
-0.214215 -0.0546549 0.00158384 0 0 0 192 204 206
-0.211842 -0.049062 -0.0531191 0 0 0 214 217 220
-0.209438 -0.0497148 -0.0556418 0 0 0 215 218 218
-0.155206 -0.0513541 -0.0523097 0 0 0 231 233 233
-0.105259 -0.0529079 -0.0517663 0 0 0 215 222 238
-0.0594528 -0.0522321 -0.0581949 0 0 0 240 247 249
-0.167228 -0.0493749 -0.0584534 0 0 0 220 223 224
-0.217391 -0.0442456 0.0117899 0 0 0 80 86 95
-0.138011 -0.0475446 -0.0578902 0 0 0 211 237 246
-0.134762 -0.0471547 -0.0597166 0 0 0 202 227 242
-0.0655308 -0.0284792 -0.0663383 0 0 0 83 102 82
-0.194024 -0.0521028 -0.0529984 0 0 0 217 220 218
-0.182505 -0.0252153 0.0129454 0 0 0 140 158 165
-0.214875 -0.00525526 0.0110484 0 0 0 97 101 103
-0.229602 0.0078342 -0.00389245 0 0 0 92 99 106
-0.164596 0.00579114 -0.0516452 0 0 0 96 92 92
-0.0384101 0.00505478 -0.0555433 0 0 0 74 88 91
-0.0768519 -0.035559 -0.0656935 0 0 0 64 56 58
-0.0415845 0.00361103 -0.056782 0 0 0 92 116 107
-0.184009 0.00903518 -0.042962 0 0 0 68 62 55
-0.188649 0.00498779 -0.0530425 0 0 0 107 111 96
-0.0799273 -0.00728479 -0.0648969 0 0 0 97 104 97
-0.198256 -0.00848596 -0.0620657 0 0 0 116 115 102
-0.121596 0.00498525 -0.0553972 0 0 0 83 86 78
-0.196642 -0.0395276 0.0112921 0 0 0 73 84 96
-0.0909805 0.00346127 -0.0537964 0 0 0 94 97 85
-0.214563 -0.0441209 0.0117912 0 0 0 79 85 92
-0.186073 0.000928539 -0.0561501 0 0 0 77 49 32
-0.192112 -0.0192225 -0.0638782 0 0 0 71 53 17
-0.165895 -0.00418305 -0.0586782 0 0 0 81 33 31
-0.14434 0.00806015 -0.0447775 0 0 0 99 89 38
-0.221246 -0.026879 -0.0609305 0 0 0 81 80 55
-0.12367 -0.0386517 -0.0642518 0 0 0 71 90 37
-0.0224612 -0.0342403 -0.0707561 0 0 0 107 116 90
-0.103946 -0.00634478 -0.0646892 0 0 0 91 97 93
-0.183873 -0.0242481 -0.0657042 0 0 0 108 100 108
-0.175302 -0.0180656 -0.0650904 0 0 0 70 38 35
-0.0636816 -0.0335135 -0.0673921 0 0 0 104 124 102
-0.0581683 -0.00618193 -0.0625615 0 0 0 28 25 43
-0.215582 -0.0395267 0.0133792 0 0 0 82 88 92
-0.180772 -0.00194975 -0.0575928 0 0 0 73 51 29
-0.0594839 -0.0112712 -0.0646971 0 0 0 36 34 49
-0.205438 -0.0243172 -0.0652496 0 0 0 98 103 109
-0.180138 -0.0106327 -0.0621421 0 0 0 97 94 93
-0.0647861 -0.0190885 -0.0673997 0 0 0 33 21 34
-0.206579 -0.0145924 -0.0629218 0 0 0 48 24 8
-0.189664 -0.0376124 -0.0628497 0 0 0 69 94 60
-0.224229 -0.0419371 0.010433 0 0 0 86 91 104
-0.110845 -0.0117039 -0.0654726 0 0 0 95 100 100
-0.0370443 -0.0379092 -0.0678156 0 0 0 81 112 81
-0.188231 -0.00661729 -0.0620178 0 0 0 73 46 20
-0.181343 -0.00418436 -0.0587117 0 0 0 73 47 28
-0.0843174 -0.0215095 -0.0664336 0 0 0 103 112 120
-0.160423 -0.0354178 -0.0622675 0 0 0 98 111 105
-0.210614 -0.0330505 -0.0610334 0 0 0 58 73 45
