ply
format ascii 1.0
element vertex 56
property float x
property float y
property float z
property float nx
property float ny
property float nz
property uchar diffuse_red
property uchar diffuse_green
property uchar diffuse_blue
end_header
-0.211266 -0.0514026 -0.0525228 0 0 0 214 216 216
-0.154444 -0.0520813 -0.0531559 0 0 0 232 234 240
-0.0953441 -0.0526056 -0.0560882 0 0 0 225 231 239
-0.125727 -0.0517284 -0.0579962 0 0 0 225 238 243
-0.232092 -0.0450117 0.0109564 0 0 0 170 182 198
-0.193295 -0.0529867 -0.0538189 0 0 0 216 219 221
-0.176257 -0.0531888 -0.0568629 0 0 0 220 223 225
-0.23656 -0.00847179 -0.0588593 0 0 0 188 191 167
-0.192097 -0.0413287 -0.060798 0 0 0 64 92 57
-0.218649 -0.04543 0.0101129 0 0 0 81 86 83
-0.136731 -0.0485612 -0.0564401 0 0 0 211 235 245
-0.0664975 -0.0276208 -0.0666955 0 0 0 77 77 88
-0.236475 -0.0354038 -0.0535862 0 0 0 114 111 129
-0.139165 -0.0235211 -0.0681408 0 0 0 80 86 85
-0.214356 -0.00528139 0.0105599 0 0 0 94 99 110
-0.080742 -0.0384772 -0.0678203 0 0 0 69 81 74
-0.164899 0.00485474 -0.0514361 0 0 0 97 94 92
-0.0192596 -0.0359192 -0.0699438 0 0 0 137 142 130
-0.187656 0.00675362 -0.0452317 0 0 0 44 34 42
-0.229082 -0.00951788 0.0150147 0 0 0 89 91 101
-0.148157 0.00588508 -0.046872 0 0 0 60 69 63
-0.121895 0.00423161 -0.0551817 0 0 0 80 86 86
-0.196744 0.00219057 -0.0537123 0 0 0 67 50 47
-0.188948 0.0039627 -0.0528417 0 0 0 109 112 94
-0.199783 -0.00941852 -0.0634666 0 0 0 115 115 106
-0.0786992 -0.00791689 -0.0633694 0 0 0 97 103 97
-0.0338286 -0.00853271 -0.0661506 0 0 0 54 83 60
-0.187806 -0.000204478 -0.0559361 0 0 0 85 74 50
-0.103477 -0.00703218 -0.0638207 0 0 0 91 98 94
-0.123044 -0.0406793 -0.0636954 0 0 0 66 93 53
-0.191667 -0.0202841 -0.0630064 0 0 0 74 52 31
-0.16549 -0.00513556 -0.05776 0 0 0 81 36 25
-0.22065 -0.0278463 -0.0616236 0 0 0 82 73 55
-0.1834 -0.025278 -0.0648594 0 0 0 109 102 111
-0.176172 -0.0189295 -0.0657252 0 0 0 72 34 31
-0.0583705 -0.00795307 -0.0625838 0 0 0 31 25 42
-0.0582131 -0.0118337 -0.0632095 0 0 0 36 32 48
-0.20562 -0.0253603 -0.0651658 0 0 0 103 104 105
-0.0937017 -0.0138851 -0.0645681 0 0 0 55 57 64
-0.0638803 -0.0327094 -0.0671057 0 0 0 96 111 97
-0.211574 -0.0450892 0.0101123 0 0 0 79 84 91
-0.0649893 -0.0195731 -0.0672648 0 0 0 32 17 44
-0.179718 -0.011639 -0.061243 0 0 0 98 97 95
-0.206799 -0.0156491 -0.0628007 0 0 0 47 22 8
-0.145503 -0.005393 -0.0623802 0 0 0 92 110 93
-0.18984 -0.0374801 -0.0626329 0 0 0 64 92 52
-0.111077 -0.0123762 -0.0653192 0 0 0 96 102 94
-0.187833 -0.00764958 -0.061097 0 0 0 73 47 20
-0.208075 4.57586e-05 -0.0538927 0 0 0 80 70 26
-0.084562 -0.0208183 -0.0661099 0 0 0 103 111 114
-0.0836733 -0.0246506 -0.0660423 0 0 0 104 112 105
-0.18437 -0.00520221 -0.0600322 0 0 0 79 51 35
-0.0402569 4.39324e-05 -0.0628758 0 0 0 107 105 70
-0.0479501 -0.0385679 -0.0682697 0 0 0 79 111 76
-0.109775 -0.0349356 -0.0650549 0 0 0 116 121 120
-0.0262647 -0.0252075 -0.070121 0 0 0 71 100 46
