ply
format ascii 1.0
element vertex 58
property float x
property float y
property float z
property float nx
property float ny
property float nz
property uchar diffuse_red
property uchar diffuse_green
property uchar diffuse_blue
end_header
-0.203767 -0.0507304 -0.0504498 0 0 0 216 219 221
-0.210494 -0.050354 -0.0535867 0 0 0 215 217 219
-0.0593637 -0.0521921 -0.0599109 0 0 0 224 239 246
-0.0632161 -0.0545168 -0.0548594 0 0 0 246 246 247
-0.109957 -0.053072 -0.0530012 0 0 0 214 225 242
-0.156642 -0.0513649 -0.0540281 0 0 0 233 235 234
-0.166618 -0.0508615 -0.0581416 0 0 0 221 222 224
-0.135709 -0.0475385 -0.0590668 0 0 0 204 233 243
-0.193505 -0.0405656 -0.0610302 0 0 0 65 93 60
-0.223128 -0.0388503 0.0107443 0 0 0 81 86 93
-0.0624497 -0.0287281 -0.0652921 0 0 0 85 107 72
-0.169537 -0.0545283 -0.0513446 0 0 0 221 223 221
-0.212107 -0.0231164 0.015824 0 0 0 89 93 96
-0.194125 -0.0523278 -0.0532863 0 0 0 219 221 220
-0.141381 -0.0243644 -0.0675811 0 0 0 76 84 90
-0.219265 -0.0061287 0.0109073 0 0 0 96 96 108
-0.207748 -0.00255965 0.00967392 0 0 0 99 99 106
-0.21565 -0.00454161 0.0102965 0 0 0 95 100 106
-0.0833304 0.00482265 -0.0513479 0 0 0 100 106 99
-0.153617 -0.0363308 -0.0638049 0 0 0 54 55 74
-0.0750795 -0.0366814 -0.0677677 0 0 0 75 92 60
-0.159067 0.00690157 -0.048582 0 0 0 108 114 100
-0.229026 -0.00742607 0.0149338 0 0 0 88 96 100
-0.0192463 -0.0344925 -0.0698205 0 0 0 128 116 108
-0.188087 0.00473303 -0.0522916 0 0 0 110 113 108
-0.119448 0.00608544 -0.0545756 0 0 0 81 86 78
-0.148157 0.00750854 -0.0452783 0 0 0 91 76 49
-0.198972 -0.00861818 -0.0629351 0 0 0 116 116 113
-0.0784309 -0.0101129 -0.063909 0 0 0 99 106 102
-0.185516 0.00747307 -0.043116 0 0 0 46 34 36
-0.197924 0.00177912 -0.0541178 0 0 0 52 43 51
-0.222098 -0.0317796 -0.0595137 0 0 0 88 85 57
-0.12163 0.00352845 -0.0555404 0 0 0 79 85 75
-0.186152 0.000714409 -0.0561886 0 0 0 76 49 31
-0.0337012 -0.00706547 -0.0660255 0 0 0 51 86 62
-0.192835 -0.0193309 -0.0647808 0 0 0 73 53 23
-0.123051 -0.0389439 -0.0636921 0 0 0 71 91 49
-0.165973 -0.00439274 -0.0587167 0 0 0 81 34 24
-0.106331 -0.00663575 -0.065189 0 0 0 93 97 91
-0.208499 0.000960345 -0.0549273 0 0 0 79 73 22
-0.183295 -0.0244957 -0.0650977 0 0 0 109 103 109
-0.175378 -0.0182428 -0.0652025 0 0 0 72 36 31
-0.0583913 -0.0327246 -0.0641894 0 0 0 98 116 101
-0.0580541 -0.0115862 -0.0633231 0 0 0 35 31 54
-0.0648594 -0.019294 -0.0673898 0 0 0 15 21 42
-0.0595106 -0.0127807 -0.0648545 0 0 0 39 33 60
-0.204881 -0.0245614 -0.064648 0 0 0 103 105 103
-0.178093 -0.0107689 -0.0615123 0 0 0 111 115 121
-0.187049 -0.0368043 -0.0613929 0 0 0 67 94 55
-0.184184 -0.00441914 -0.060258 0 0 0 78 50 14
-0.110918 -0.011902 -0.065482 0 0 0 95 101 94
-0.188306 -0.006804 -0.0620929 0 0 0 74 47 27
-0.210074 -0.0333269 -0.0604702 0 0 0 60 72 45
-0.083566 -0.0242926 -0.0661879 0 0 0 104 110 109
-0.115972 -0.0231235 -0.0674734 0 0 0 59 51 59
-0.107409 -0.0344653 -0.0647091 0 0 0 116 119 121
-0.145316 -0.00477404 -0.0625701 0 0 0 89 114 93
-0.0271029 -0.0252777 -0.0692765 0 0 0 69 99 49
