ply
format ascii 1.0
element vertex 53
property float x
property float y
property float z
property float nx
property float ny
property float nz
property uchar diffuse_red
property uchar diffuse_green
property uchar diffuse_blue
end_header
-0.209845 -0.050988 -0.0558719 0 0 0 214 218 218
-0.211589 -0.051591 -0.0527402 0 0 0 214 216 217
-0.0458772 -0.0513315 -0.0580522 0 0 0 205 225 241
-0.154098 -0.0523998 -0.0526189 0 0 0 234 235 239
-0.222984 -0.0445871 0.0084019 0 0 0 82 85 99
-0.19884 -0.0421716 0.00848117 0 0 0 91 80 101
-0.133698 -0.0507514 -0.0588484 0 0 0 241 240 242
-0.196725 -0.0416705 -0.0609047 0 0 0 62 95 56
-0.13769 -0.0498524 -0.05754 0 0 0 236 244 248
-0.135003 -0.0236103 -0.0670468 0 0 0 80 89 88
-0.192983 -0.0532975 -0.0532655 0 0 0 218 219 219
-0.237539 -0.00240688 -0.047456 0 0 0 86 89 97
-0.149691 -0.034826 -0.0620851 0 0 0 51 53 57
-0.228491 -0.0121061 0.0137313 0 0 0 91 93 96
-0.165205 0.00464771 -0.0514373 0 0 0 96 93 93
-0.231313 -0.0111767 0.0138536 0 0 0 87 91 97
-0.235975 0.00131278 -0.0500177 0 0 0 88 95 100
-0.213565 0.000782679 0.00730237 0 0 0 90 96 109
-0.185451 0.00759073 -0.0419312 0 0 0 39 28 41
-0.0787317 -0.0373787 -0.0672894 0 0 0 66 79 73
-0.0380179 0.00326037 -0.0564224 0 0 0 72 85 84
-0.123765 0.00387322 -0.0550285 0 0 0 81 87 79
-0.0790051 -0.00810826 -0.0633861 0 0 0 98 105 96
-0.198167 -0.00972311 -0.0612093 0 0 0 117 114 107
-0.189254 0.00376817 -0.0528544 0 0 0 108 112 106
-0.0434129 0.0051862 -0.0535595 0 0 0 91 103 81
-0.146489 0.00678551 -0.0444382 0 0 0 91 77 37
-0.188112 -0.000388329 -0.0559632 0 0 0 85 75 37
-0.192668 -0.0192588 -0.0636878 0 0 0 71 50 15
-0.12336 -0.0408555 -0.0638441 0 0 0 78 88 55
-0.165797 -0.00531984 -0.0577969 0 0 0 80 31 33
-0.20425 -0.00861198 0.0124137 0 0 0 117 121 130
-0.104504 -0.00717261 -0.0645359 0 0 0 89 97 92
-0.0579768 -0.0068999 -0.0617184 0 0 0 30 25 37
-0.21617 -0.0457051 0.00992295 0 0 0 80 83 84
-0.0585204 -0.012032 -0.063233 0 0 0 40 33 37
-0.0299251 -0.0367893 -0.0681834 0 0 0 85 117 77
-0.0617779 -0.0328602 -0.0667942 0 0 0 97 114 99
-0.180682 -0.0117536 -0.0620649 0 0 0 99 97 98
-0.205931 -0.0255056 -0.0652885 0 0 0 102 103 111
-0.0940091 -0.0140675 -0.0646112 0 0 0 56 61 61
-0.207108 -0.0158025 -0.0628893 0 0 0 47 22 9
-0.190802 -0.0375428 -0.0635553 0 0 0 67 92 49
-0.111383 -0.0125505 -0.065363 0 0 0 98 100 99
-0.0250192 -0.0255195 -0.0689145 0 0 0 72 100 46
-0.184069 -0.00428534 -0.0591269 0 0 0 76 51 19
-0.187535 -0.00673775 -0.0602005 0 0 0 80 48 21
-0.084871 -0.020998 -0.0661745 0 0 0 102 112 106
-0.0839835 -0.0248308 -0.0661202 0 0 0 103 111 107
-0.175772 -0.0202821 -0.0652526 0 0 0 78 53 46
-0.110089 -0.0351111 -0.0651785 0 0 0 111 122 117
-0.211122 -0.0331928 -0.0609597 0 0 0 62 58 57
-0.185919 -0.0268054 -0.0643291 0 0 0 107 106 106
