ply
format ascii 1.0
element vertex 46
property float x
property float y
property float z
property float nx
property float ny
property float nz
property uchar diffuse_red
property uchar diffuse_green
property uchar diffuse_blue
end_header
-0.209106 -0.0516012 -0.0514676 0 0 0 213 216 214
-0.184242 -0.0268438 0.0149669 0 0 0 177 184 169
-0.150564 -0.0533436 -0.0526317 0 0 0 230 230 236
-0.101471 -0.0526532 -0.0567694 0 0 0 229 231 239
-0.192528 -0.0532146 -0.0528051 0 0 0 216 219 217
-0.226573 -0.0456141 0.00863543 0 0 0 90 95 101
-0.0648544 -0.0290642 -0.0655418 0 0 0 83 103 82
-0.195702 -0.0406084 -0.0595453 0 0 0 63 92 62
-0.136146 -0.0236338 -0.0667017 0 0 0 81 88 86
-0.2158 -0.00684906 0.0122576 0 0 0 96 99 104
-0.202979 -0.00566318 0.0122171 0 0 0 117 122 116
-0.150685 -0.0333975 -0.0630544 0 0 0 43 49 63
-0.229768 0.00637907 -0.0034658 0 0 0 92 98 105
-0.0791649 -0.0386831 -0.0664117 0 0 0 67 81 71
-0.16348 0.0047279 -0.0497962 0 0 0 98 95 87
-0.184871 0.00791442 -0.0433623 0 0 0 70 69 40
-0.0391036 0.0022134 -0.058018 0 0 0 86 101 78
-0.188862 0.00385647 -0.0526717 0 0 0 109 111 101
-0.0786701 -0.00668348 -0.0631368 0 0 0 96 102 94
-0.1997 -0.00954597 -0.0632654 0 0 0 115 114 107
-0.18772 -0.000313514 -0.0557627 0 0 0 84 73 41
-0.0348518 -0.00475541 -0.064613 0 0 0 74 96 74
-0.166071 -0.00519226 -0.0583589 0 0 0 81 33 25
-0.192872 -0.020277 -0.0643327 0 0 0 72 54 29
-0.123692 -0.0394471 -0.0640747 0 0 0 72 90 50
-0.0981812 -0.00713262 -0.0604839 0 0 0 87 95 84
-0.0597948 -0.0078943 -0.0639033 0 0 0 31 24 49
-0.183307 -0.0253943 -0.0646622 0 0 0 108 100 109
-0.174757 -0.0191622 -0.0640485 0 0 0 73 30 35
-0.135468 -0.042847 -0.0610611 0 0 0 86 97 92
-0.0596357 -0.0117642 -0.0645227 0 0 0 37 30 49
-0.205528 -0.0254944 -0.0649374 0 0 0 103 102 108
-0.180289 -0.0116995 -0.0618232 0 0 0 99 99 95
-0.0649044 -0.0195991 -0.06724 0 0 0 33 21 47
-0.0622833 -0.0328814 -0.065749 0 0 0 97 112 94
-0.206711 -0.0157812 -0.0625823 0 0 0 48 20 8
-0.0936176 -0.0139305 -0.0645099 0 0 0 58 60 74
-0.190383 -0.0375065 -0.0631735 0 0 0 66 91 47
-0.110995 -0.0124362 -0.0652385 0 0 0 95 102 93
-0.187748 -0.0077648 -0.0609147 0 0 0 70 47 26
-0.18494 -0.00527542 -0.0606195 0 0 0 76 50 32
-0.224662 -0.0444787 0.00968691 0 0 0 88 92 110
-0.0844745 -0.0208583 -0.0660562 0 0 0 103 112 108
-0.137271 -0.00386509 -0.0603514 0 0 0 75 82 78
-0.10737 -0.03498 -0.064432 0 0 0 116 121 115
-0.0271226 -0.0253957 -0.0692035 0 0 0 70 99 49
