ply
format ascii 1.0
element vertex 47
property float x
property float y
property float z
property float nx
property float ny
property float nz
property uchar diffuse_red
property uchar diffuse_green
property uchar diffuse_blue
end_header
-0.210145 -0.0528758 -0.0529498 0 0 0 215 218 218
-0.154058 -0.0533159 -0.0527065 0 0 0 234 234 240
-0.108504 -0.0515064 -0.06153 0 0 0 235 243 241
-0.194514 -0.0426962 -0.0619333 0 0 0 65 93 55
-0.182703 -0.0219704 0.0169599 0 0 0 167 169 163
-0.133606 -0.0488577 -0.0600763 0 0 0 200 231 238
-0.136861 -0.0492903 -0.0582548 0 0 0 209 231 243
-0.215631 -0.0256973 0.0156332 0 0 0 89 94 101
-0.210661 -0.00498768 0.00863733 0 0 0 97 95 100
-0.151118 -0.0355885 -0.063692 0 0 0 50 50 63
-0.140449 -0.0247228 -0.0675712 0 0 0 79 84 84
-0.165582 0.00365349 -0.051775 0 0 0 97 93 90
-0.18587 0.00648656 -0.042325 0 0 0 38 31 40
-0.0788311 -0.0365397 -0.0670677 0 0 0 63 56 54
-0.228945 -0.0121359 0.0135082 0 0 0 89 94 101
-0.0792653 -0.00852191 -0.0634843 0 0 0 96 103 96
-0.122566 0.00332851 -0.0554112 0 0 0 80 86 85
-0.200335 -0.010867 -0.0638883 0 0 0 118 116 108
-0.189621 0.0025934 -0.0532414 0 0 0 109 114 96
-0.0345113 -0.00618347 -0.0657264 0 0 0 48 82 63
-0.146282 0.00714134 -0.043806 0 0 0 108 89 36
-0.223231 -0.0331604 -0.0603276 0 0 0 92 94 74
-0.187796 -0.00159323 -0.05556 0 0 0 85 74 38
-0.192844 -0.0205003 -0.063991 0 0 0 71 52 19
-0.0196799 -0.0347718 -0.069681 0 0 0 127 116 106
-0.166087 -0.0063431 -0.0580964 0 0 0 81 36 22
-0.101729 -0.00769527 -0.0634792 0 0 0 85 95 83
-0.12414 -0.0402973 -0.0644223 0 0 0 74 90 50
-0.0332242 -0.0368422 -0.0690423 0 0 0 81 112 75
-0.0604407 -0.00835038 -0.063974 0 0 0 31 25 41
-0.0642647 -0.033212 -0.067173 0 0 0 100 110 94
-0.176653 -0.0202142 -0.0660833 0 0 0 70 32 36
-0.0448471 -0.0400356 -0.0690484 0 0 0 82 113 81
-0.0609447 -0.0134678 -0.0654655 0 0 0 38 32 56
-0.0383942 -0.040114 -0.0670273 0 0 0 83 116 81
-0.205423 -0.0269201 -0.0648183 0 0 0 103 104 105
-0.183892 -0.0254864 -0.0650522 0 0 0 108 113 109
-0.178797 -0.0128245 -0.0616543 0 0 0 111 116 121
-0.047624 0.00229656 -0.0557735 0 0 0 89 96 53
-0.111606 -0.0132074 -0.0655145 0 0 0 94 99 95
-0.0691367 -0.0320343 -0.0678165 0 0 0 87 107 72
-0.0250783 -0.0268942 -0.0690396 0 0 0 74 101 48
-0.188403 -0.00901398 -0.0614891 0 0 0 70 51 18
-0.0850311 -0.0214649 -0.0662345 0 0 0 100 109 112
-0.210524 -0.0357389 -0.0606395 0 0 0 60 73 54
-0.185611 -0.00650753 -0.0611809 0 0 0 74 50 37
-0.109276 -0.0355764 -0.0661013 0 0 0 115 118 123
