ply
format ascii 1.0
element vertex 45
property float x
property float y
property float z
property float nx
property float ny
property float nz
property uchar diffuse_red
property uchar diffuse_green
property uchar diffuse_blue
end_header
-0.211303 -0.0502642 -0.054241 0 0 0 216 220 219
-0.203111 -0.0516561 -0.05128 0 0 0 215 220 218
-0.0938837 -0.052588 -0.0564452 0 0 0 236 238 242
-0.124096 -0.0527113 -0.0601081 0 0 0 208 220 239
-0.15309 -0.0521721 -0.0534964 0 0 0 232 234 239
-0.183869 -0.0267143 0.013565 0 0 0 196 210 175
-0.153934 -0.0523411 -0.0526595 0 0 0 232 235 239
-0.112655 -0.0501542 -0.0585562 0 0 0 213 229 234
-0.212853 -0.028142 0.0185091 0 0 0 89 93 98
-0.134879 -0.0235943 -0.0672256 0 0 0 80 86 85
-0.218194 -0.00937133 0.010386 0 0 0 101 99 105
-0.14824 -0.0337945 -0.0605715 0 0 0 44 47 52
-0.163213 0.0058017 -0.0493557 0 0 0 88 90 82
-0.231301 -0.0109037 0.0135021 0 0 0 86 92 98
-0.150918 -0.038423 -0.0626794 0 0 0 58 59 77
-0.0738704 -0.0359381 -0.0662422 0 0 0 76 93 68
-0.184599 0.00780949 -0.0431466 0 0 0 68 60 39
-0.19758 0.000876435 -0.055079 0 0 0 73 57 62
-0.0789163 -0.00796251 -0.0635907 0 0 0 96 104 97
-0.199997 -0.00966416 -0.0638563 0 0 0 118 113 103
-0.185948 -0.000311519 -0.0555844 0 0 0 78 48 46
-0.188557 0.00373409 -0.052468 0 0 0 110 115 104
-0.122144 0.00413065 -0.0554879 0 0 0 82 85 80
-0.192557 -0.0193373 -0.0639522 0 0 0 71 52 19
-0.0172431 -0.0192171 -0.0703012 0 0 0 87 95 70
-0.123258 -0.0395874 -0.0637226 0 0 0 70 90 77
-0.165719 -0.00531346 -0.0581096 0 0 0 81 33 34
-0.0361955 0.00236578 -0.0571407 0 0 0 91 94 76
-0.0610639 -0.00678552 -0.0629866 0 0 0 20 19 17
-0.104416 -0.0070832 -0.0647728 0 0 0 90 96 89
-0.0616918 -0.0314108 -0.0666388 0 0 0 95 103 77
-0.0599275 -0.0117622 -0.0647177 0 0 0 35 30 43
-0.179076 -0.0128198 -0.0625803 0 0 0 122 124 111
-0.205171 -0.0256914 -0.0647555 0 0 0 102 104 107
-0.0939073 -0.0139578 -0.0647989 0 0 0 55 59 69
-0.0644322 -0.019657 -0.0667812 0 0 0 27 22 45
-0.187916 -0.0377293 -0.0622216 0 0 0 66 94 49
-0.184596 -0.00541571 -0.0604084 0 0 0 77 49 33
-0.187947 -0.0293671 -0.0640778 0 0 0 103 101 104
-0.111284 -0.0124791 -0.0655775 0 0 0 96 100 93
-0.084754 -0.0208789 -0.0663142 0 0 0 103 110 111
-0.188053 -0.00787087 -0.0614733 0 0 0 73 48 22
-0.083859 -0.0247096 -0.0662378 0 0 0 104 109 105
-0.026444 -0.0251797 -0.0702341 0 0 0 71 100 48
-0.109945 -0.0350357 -0.0652673 0 0 0 115 119 118
