ply
format ascii 1.0
element vertex 50
property float x
property float y
property float z
property float nx
property float ny
property float nz
property uchar diffuse_red
property uchar diffuse_green
property uchar diffuse_blue
end_header
-0.211805 -0.05311 -0.0528717 0 0 0 215 218 215
-0.211783 -0.0548189 -8.42557e-05 0 0 0 166 154 165
-0.154979 -0.0532912 -0.0535426 0 0 0 233 235 239
-0.10951 -0.0554131 -0.0543035 0 0 0 233 236 244
-0.0919291 -0.0532253 -0.0562374 0 0 0 246 245 246
-0.191742 -0.0545944 -0.0534385 0 0 0 217 219 219
-0.0402505 -0.0398661 -0.068811 0 0 0 85 116 79
-0.194868 -0.0417501 -0.0617475 0 0 0 63 92 67
-0.222883 -0.0467418 0.00638118 0 0 0 80 88 95
-0.202889 -0.00715722 0.0132061 0 0 0 118 122 117
-0.136973 -0.025825 -0.0674915 0 0 0 83 87 86
-0.14734 -0.0361481 -0.0594726 0 0 0 51 53 59
-0.137989 -0.0495274 -0.0575686 0 0 0 211 238 247
-0.127828 -0.0527767 -0.0582554 0 0 0 241 241 245
-0.19142 0.00229875 -0.0533231 0 0 0 107 113 108
-0.195507 -0.0124928 -0.0579213 0 0 0 118 115 106
-0.08141 -0.0390779 -0.068293 0 0 0 65 83 73
-0.184567 0.00670998 -0.0440764 0 0 0 87 97 77
-0.165876 0.00239103 -0.0521459 0 0 0 102 104 96
-0.227667 -0.0120739 0.013589 0 0 0 92 95 100
-0.122928 0.00330006 -0.0557351 0 0 0 80 87 83
-0.079695 -0.0072241 -0.063721 0 0 0 96 103 97
-0.15162 0.00559627 -0.0462818 0 0 0 93 84 67
-0.093911 0.00199303 -0.0539543 0 0 0 90 97 83
-0.209749 -0.000513386 -0.05499 0 0 0 72 64 17
-0.186699 -0.00159715 -0.0556942 0 0 0 77 50 34
-0.192487 -0.0218475 -0.0634485 0 0 0 74 51 22
-0.123688 -0.0416409 -0.0641331 0 0 0 64 93 48
-0.0208017 -0.034579 -0.0708812 0 0 0 126 120 97
-0.167109 -0.00642564 -0.0590065 0 0 0 81 33 23
-0.102098 -0.00770355 -0.0638461 0 0 0 87 97 83
-0.184177 -0.0267734 -0.0652945 0 0 0 108 102 106
-0.0593676 -0.00705156 -0.0629449 0 0 0 28 27 39
-0.176343 -0.0204181 -0.0654324 0 0 0 71 39 37
-0.214657 -0.0471642 0.0122714 0 0 0 80 85 88
-0.0591129 -0.0122258 -0.0637661 0 0 0 36 32 50
-0.206397 -0.0270516 -0.0655852 0 0 0 103 102 105
-0.0343308 -0.0366687 -0.0702033 0 0 0 83 111 73
-0.0658235 -0.0200348 -0.0677969 0 0 0 33 21 33
-0.180613 -0.0130933 -0.0617155 0 0 0 99 96 99
-0.06535 -0.0330938 -0.0682644 0 0 0 97 110 96
-0.094583 -0.0145923 -0.0650947 0 0 0 58 61 67
-0.186176 -0.00573218 -0.0595413 0 0 0 79 52 11
-0.188414 -0.0390321 -0.0623046 0 0 0 66 93 49
-0.0378452 -0.0385012 -0.068251 0 0 0 81 113 78
-0.111971 -0.013238 -0.0658376 0 0 0 99 102 95
-0.027053 -0.0253361 -0.0706656 0 0 0 72 100 46
-0.0853838 -0.0214488 -0.0666252 0 0 0 105 110 107
-0.110471 -0.0357843 -0.0655165 0 0 0 117 121 118
-0.0614617 -0.029051 -0.0674936 0 0 0 88 108 82
