ply
format ascii 1.0
element vertex 53
property float x
property float y
property float z
property float nx
property float ny
property float nz
property uchar diffuse_red
property uchar diffuse_green
property uchar diffuse_blue
end_header
-0.210158 -0.0514544 -0.0521755 0 0 0 216 218 218
-0.133649 -0.0518924 -0.0587479 0 0 0 238 237 241
-0.154747 -0.0522148 -0.0529851 0 0 0 233 234 237
-0.19152 -0.0531663 -0.0528005 0 0 0 218 220 221
-0.106253 -0.050871 -0.0608151 0 0 0 232 242 244
-0.0947643 -0.0525912 -0.0569922 0 0 0 238 242 241
-0.22467 -0.0456527 0.00796207 0 0 0 83 94 110
-0.198201 -0.0405178 -0.0601769 0 0 0 65 94 65
-0.0502309 -0.0323163 -0.0670133 0 0 0 83 102 78
-0.216675 -0.00593472 0.0119391 0 0 0 96 99 105
-0.178036 -0.0325441 -0.0611507 0 0 0 92 111 92
-0.136557 -0.0236433 -0.0665964 0 0 0 80 89 83
-0.208742 -0.00511216 0.011102 0 0 0 102 103 113
-0.204358 -0.0071012 0.0106731 0 0 0 122 124 125
-0.15033 -0.0358388 -0.0626406 0 0 0 54 53 62
-0.164371 0.00605387 -0.0516259 0 0 0 98 98 77
-0.0810795 -0.0386082 -0.0678184 0 0 0 70 80 69
-0.157358 0.00620749 -0.0472943 0 0 0 105 118 97
-0.231043 -0.0111117 0.0145113 0 0 0 88 93 97
-0.185363 0.00766863 -0.0414179 0 0 0 37 27 44
-0.120799 0.00524847 -0.0532478 0 0 0 79 86 85
-0.199439 -0.00952441 -0.0622065 0 0 0 114 116 105
-0.188514 0.00269556 -0.0517467 0 0 0 112 115 102
-0.0771629 -0.0359723 -0.0671886 0 0 0 72 77 64
-0.0789983 -0.00806838 -0.063246 0 0 0 95 103 96
-0.0884614 0.00274164 -0.0521974 0 0 0 95 99 86
-0.0352811 -0.00361667 -0.0643568 0 0 0 71 90 73
-0.223088 -0.0326852 -0.0595687 0 0 0 86 83 58
-0.192018 -0.0192307 -0.0624033 0 0 0 72 52 24
-0.124123 -0.0394903 -0.0640753 0 0 0 72 90 34
-0.165769 -0.00524145 -0.0573588 0 0 0 80 36 20
-0.0737834 -0.0423996 -0.0671453 0 0 0 44 80 16
-0.0579638 -0.00687125 -0.0616493 0 0 0 28 27 42
-0.103777 -0.00716206 -0.0636175 0 0 0 90 97 91
-0.0577604 -0.0120495 -0.0625071 0 0 0 35 32 45
-0.220422 -0.046635 0.00779888 0 0 0 81 86 97
-0.205938 -0.025403 -0.0647261 0 0 0 103 103 106
-0.0649627 -0.0327786 -0.0677886 0 0 0 96 111 93
-0.179165 -0.0126876 -0.0618154 0 0 0 119 124 119
-0.210815 -0.0310771 0.0128429 0 0 0 89 93 98
-0.0653098 -0.0197191 -0.0672321 0 0 0 32 20 39
-0.207102 -0.0157009 -0.0623167 0 0 0 48 25 9
-0.0940092 -0.0140196 -0.0644236 0 0 0 57 60 68
-0.021333 -0.0362049 -0.0697979 0 0 0 115 123 103
-0.02504 -0.0255023 -0.0689695 0 0 0 65 99 50
-0.188714 -0.0374801 -0.0623283 0 0 0 69 93 52
-0.111385 -0.0124937 -0.0651151 0 0 0 96 100 95
-0.0709366 -0.030733 -0.065724 0 0 0 64 51 63
-0.0848799 -0.0209535 -0.0660224 0 0 0 102 110 104
-0.188777 -0.00767622 -0.0614003 0 0 0 74 47 27
-0.109232 -0.0348772 -0.0658167 0 0 0 116 120 123
-0.211075 -0.0341861 -0.0605659 0 0 0 61 73 50
-0.188126 -0.0280817 -0.0631887 0 0 0 110 105 105
