ply
format ascii 1.0
element vertex 50
property float x
property float y
property float z
property float nx
property float ny
property float nz
property uchar diffuse_red
property uchar diffuse_green
property uchar diffuse_blue
end_header
-0.209886 -0.0506986 -0.0523357 0 0 0 215 217 216
-0.154478 -0.0516579 -0.0531152 0 0 0 234 235 239
-0.108281 -0.0504483 -0.0614288 0 0 0 234 241 243
-0.191933 -0.0512204 -0.0535297 0 0 0 219 220 220
-0.195813 -0.0398616 -0.059593 0 0 0 64 93 68
-0.0664134 -0.0288163 -0.067005 0 0 0 81 99 85
-0.220134 -0.0226815 0.01487 0 0 0 94 96 103
-0.137446 -0.0480941 -0.0571508 0 0 0 213 237 246
-0.133894 -0.0243272 -0.066352 0 0 0 82 89 82
-0.148673 -0.034311 -0.0611354 0 0 0 50 53 62
-0.162559 0.00659522 -0.0503056 0 0 0 99 98 82
-0.0816491 -0.0385056 -0.0670273 0 0 0 60 72 68
-0.153361 0.00684699 -0.0453195 0 0 0 105 116 107
-0.187411 0.00729439 -0.0449064 0 0 0 46 34 52
-0.0807991 -0.0370654 -0.0677118 0 0 0 60 66 64
-0.0800468 -0.00770127 -0.0647162 0 0 0 96 105 102
-0.121688 0.00451862 -0.0550315 0 0 0 80 86 78
-0.199012 -0.00881502 -0.0623936 0 0 0 116 116 106
-0.188089 0.00450558 -0.051751 0 0 0 109 114 102
-0.0879962 0.00306167 -0.0523348 0 0 0 95 101 89
-0.2234 -0.0307157 -0.0603664 0 0 0 93 93 75
-0.209663 -0.0294897 0.0162136 0 0 0 92 93 97
-0.0193145 -0.0346904 -0.0699694 0 0 0 129 117 116
-0.191625 -0.0185479 -0.0625789 0 0 0 69 51 29
-0.123803 -0.0390517 -0.0641989 0 0 0 70 91 39
-0.16604 -0.00345078 -0.0580871 0 0 0 70 38 29
-0.101699 -0.0078984 -0.0641401 0 0 0 89 97 90
-0.0396095 -0.0396533 -0.0685201 0 0 0 85 115 80
-0.0281942 -0.0384457 -0.0656785 0 0 0 87 116 82
-0.0596049 -0.0116985 -0.0645924 0 0 0 36 30 49
-0.0638654 -0.032635 -0.0672282 0 0 0 96 110 96
-0.0445363 -0.0396709 -0.0692283 0 0 0 84 111 80
-0.180872 -0.00237266 -0.0571415 0 0 0 72 54 25
-0.205566 -0.0246723 -0.0649043 0 0 0 102 105 109
-0.177469 -0.0110271 -0.060295 0 0 0 112 119 123
-0.206697 -0.0149641 -0.0625031 0 0 0 47 25 9
-0.0935975 -0.0136892 -0.064551 0 0 0 56 59 66
-0.186287 -0.0368464 -0.0617683 0 0 0 66 93 60
-0.11025 -0.0121547 -0.0645578 0 0 0 95 101 92
-0.188343 -0.00700437 -0.0615832 0 0 0 73 49 26
-0.173289 -0.0184091 -0.0640797 0 0 0 66 34 56
-0.0844922 -0.0206569 -0.0661395 0 0 0 102 110 107
-0.207059 -0.000241154 -0.0545011 0 0 0 78 75 49
-0.11603 -0.023317 -0.0672578 0 0 0 59 51 59
-0.184869 -0.00458013 -0.0605168 0 0 0 78 50 29
-0.210109 -0.0335292 -0.0599586 0 0 0 59 73 50
-0.109764 -0.0346672 -0.0650688 0 0 0 113 120 115
-0.140076 -0.00464783 -0.061815 0 0 0 78 83 80
-0.0271681 -0.0254762 -0.0693729 0 0 0 68 98 50
-0.0608263 -0.0438445 -0.0631571 0 0 0 72 99 80
