ply
format ascii 1.0
element vertex 45
property float x
property float y
property float z
property float nx
property float ny
property float nz
property uchar diffuse_red
property uchar diffuse_green
property uchar diffuse_blue
end_header
-0.211587 -0.0519921 -0.0524952 0 0 0 214 217 215
-0.154765 -0.0524441 -0.0532786 0 0 0 232 233 236
-0.098 -0.0527195 -0.0568529 0 0 0 217 221 233
-0.098945 -0.0516425 -0.0557651 0 0 0 225 227 242
-0.190778 -0.0522738 -0.0537257 0 0 0 217 220 221
-0.196199 -0.041043 -0.0598326 0 0 0 61 95 63
-0.216891 -0.00713236 0.0110685 0 0 0 96 101 108
-0.135167 -0.0237844 -0.0672378 0 0 0 79 88 87
-0.211349 -0.00497334 0.00707688 0 0 0 99 102 107
-0.149791 -0.0350273 -0.0621499 0 0 0 50 51 65
-0.137656 -0.047295 -0.0587227 0 0 0 178 203 209
-0.0820513 -0.0387782 -0.0672978 0 0 0 65 70 77
-0.164112 0.00442234 -0.0502399 0 0 0 97 95 85
-0.186741 0.00643523 -0.0455178 0 0 0 79 70 63
-0.0365044 0.00242814 -0.0576038 0 0 0 87 98 69
-0.0792266 -0.0080132 -0.0638602 0 0 0 96 102 100
-0.200303 -0.0100032 -0.0636262 0 0 0 114 114 113
-0.189494 0.00346118 -0.0530804 0 0 0 109 111 89
-0.122449 0.0039916 -0.0556018 0 0 0 80 85 85
-0.192841 -0.0196588 -0.0637355 0 0 0 71 49 27
-0.188293 -0.00184169 -0.0563402 0 0 0 80 65 32
-0.166682 -0.00552788 -0.058774 0 0 0 80 33 22
-0.123493 -0.0397437 -0.0637541 0 0 0 73 92 47
-0.0175548 -0.019133 -0.0708037 0 0 0 86 95 56
-0.0604044 -0.00789873 -0.0644485 0 0 0 31 25 44
-0.104733 -0.00719663 -0.0649393 0 0 0 90 99 92
-0.0601765 -0.01306 -0.0652617 0 0 0 39 33 56
-0.180833 -0.0132226 -0.062382 0 0 0 118 121 100
-0.0654802 -0.0196285 -0.067749 0 0 0 34 22 33
-0.0643178 -0.0327596 -0.0675439 0 0 0 97 111 102
-0.205443 -0.0260443 -0.0644757 0 0 0 104 102 104
-0.206705 -0.0152137 -0.0619664 0 0 0 54 28 21
-0.188148 -0.0380366 -0.0619912 0 0 0 65 93 47
-0.189006 -0.00813901 -0.0620585 0 0 0 72 45 24
-0.112867 -0.0161774 -0.0676722 0 0 0 96 99 98
-0.184948 -0.00458321 -0.0600712 0 0 0 76 50 38
-0.0251821 -0.0252299 -0.0694256 0 0 0 71 101 46
-0.107173 -0.0352161 -0.0641561 0 0 0 113 120 128
-0.0816736 -0.0232154 -0.0673703 0 0 0 102 111 108
-0.211225 -0.0336525 -0.0608498 0 0 0 65 55 57
-0.17656 -0.0216962 -0.0662704 0 0 0 83 84 37
-0.140761 -0.00537761 -0.0623162 0 0 0 79 83 77
-0.109438 -0.0325349 -0.0658436 0 0 0 107 118 121
-0.111645 -0.0113894 -0.0655139 0 0 0 96 100 105
-0.185355 -0.0283774 -0.063763 0 0 0 107 105 99
