ply
format ascii 1.0
element vertex 47
property float x
property float y
property float z
property float nx
property float ny
property float nz
property uchar diffuse_red
property uchar diffuse_green
property uchar diffuse_blue
end_header
-0.200496 -0.0517995 -0.0534883 0 0 0 218 220 218
-0.155503 -0.0522134 -0.0562458 0 0 0 230 231 235
-0.199696 -0.0516381 -0.0542804 0 0 0 217 220 218
-0.107359 -0.051213 -0.0606067 0 0 0 233 240 246
-0.0620636 -0.0493522 -0.0634172 0 0 0 208 224 231
-0.131417 -0.0235253 -0.0688705 0 0 0 80 87 84
-0.127085 -0.0495864 -0.0590198 0 0 0 220 240 241
-0.184789 -0.0267486 0.0104416 0 0 0 139 156 163
-0.166409 0.00431164 -0.053217 0 0 0 95 90 89
-0.0789563 -0.0386602 -0.0679722 0 0 0 70 94 69
-0.153384 -0.0423054 -0.0644243 0 0 0 87 83 93
-0.236573 -0.0126408 -0.0597375 0 0 0 203 209 172
-0.22991 -0.0148649 -0.06387 0 0 0 18 7 39
-0.185216 0.00736758 -0.0438411 0 0 0 65 66 36
-0.189788 0.00328044 -0.0539368 0 0 0 108 113 97
-0.218859 -0.00796661 -0.0585906 0 0 0 92 89 72
-0.0795086 -0.006832 -0.0638866 0 0 0 96 103 94
-0.199885 -0.0102351 -0.0637678 0 0 0 114 113 103
-0.0329181 -0.00702229 -0.0668079 0 0 0 51 82 52
-0.196775 0.00162737 -0.0556124 0 0 0 94 87 64
-0.221923 -0.0470769 0.00723007 0 0 0 83 90 103
-0.124391 -0.0397833 -0.0649391 0 0 0 70 90 46
-0.0190235 -0.0329586 -0.0708965 0 0 0 139 137 126
-0.12273 0.0038694 -0.0560748 0 0 0 79 82 82
-0.193647 -0.0208993 -0.0655529 0 0 0 71 52 27
-0.122786 0.00508643 -0.0558834 0 0 0 80 83 83
-0.18406 -0.0259778 -0.0658269 0 0 0 108 101 106
-0.16627 -0.00572113 -0.0587496 0 0 0 80 34 21
-0.1762 -0.0196532 -0.0659432 0 0 0 69 33 32
-0.0988664 -0.00714418 -0.0628871 0 0 0 77 88 78
-0.0611391 -0.0130883 -0.0660408 0 0 0 38 31 61
-0.181835 -0.00358691 -0.0584621 0 0 0 72 52 18
-0.0630029 -0.0329687 -0.0663585 0 0 0 99 109 97
-0.0310947 -0.0380775 -0.0678135 0 0 0 88 116 82
-0.0369372 -0.0396734 -0.0677872 0 0 0 84 116 85
-0.206278 -0.0261702 -0.0662002 0 0 0 102 103 107
-0.207512 -0.0164561 -0.0638754 0 0 0 47 22 7
-0.111085 -0.0127646 -0.0654171 0 0 0 97 101 92
-0.189001 -0.0381291 -0.0636014 0 0 0 68 91 47
-0.02536 -0.0252675 -0.0693414 0 0 0 69 100 47
-0.188642 -0.00723414 -0.061968 0 0 0 79 47 18
-0.0852417 -0.0210381 -0.066795 0 0 0 101 111 106
-0.138133 -0.00424807 -0.061368 0 0 0 73 83 75
-0.111102 -0.0351991 -0.0664597 0 0 0 116 120 123
-0.182383 -0.00582635 -0.059583 0 0 0 72 48 9
-0.0638207 -0.0275085 -0.0677796 0 0 0 100 107 91
-0.211391 -0.0349493 -0.0620014 0 0 0 59 74 48
