ply
format ascii 1.0
element vertex 55
property float x
property float y
property float z
property float nx
property float ny
property float nz
property uchar diffuse_red
property uchar diffuse_green
property uchar diffuse_blue
end_header
-0.217048 -0.0556501 -0.0022752 0 0 0 205 208 210
-0.153776 -0.0512415 -0.053823 0 0 0 234 235 239
-0.130058 -0.0517259 -0.0552342 0 0 0 238 238 242
-0.106581 -0.0523185 -0.056411 0 0 0 219 222 233
-0.044919 -0.0341492 -0.0686115 0 0 0 76 102 68
-0.0916263 -0.0508445 -0.0557686 0 0 0 240 245 248
-0.220922 -0.046711 0.00857183 0 0 0 83 91 109
-0.234864 -0.0055283 -0.0554892 0 0 0 163 170 151
-0.128743 -0.0238876 -0.0660961 0 0 0 82 89 85
-0.151503 -0.036082 -0.0643598 0 0 0 57 60 73
-0.0809446 -0.0380671 -0.0680476 0 0 0 68 82 70
-0.229477 -0.0110544 0.0160231 0 0 0 86 92 96
-0.166154 0.00445338 -0.0529164 0 0 0 102 104 95
-0.22726 -0.0107779 0.0152177 0 0 0 91 94 98
-0.212772 -0.00682076 0.0123289 0 0 0 98 102 108
-0.185042 0.008611 -0.0416204 0 0 0 34 29 43
-0.212097 -0.00383774 0.00768586 0 0 0 97 96 110
-0.147455 0.00771171 -0.0458254 0 0 0 90 73 51
-0.12188 0.00479063 -0.0552065 0 0 0 80 87 79
-0.078771 -0.00751229 -0.0636208 0 0 0 95 103 96
-0.18892 0.00475734 -0.0525065 0 0 0 110 115 104
-0.198568 -0.00868904 -0.0615267 0 0 0 117 115 102
-0.193251 0.0043637 -0.0524212 0 0 0 103 106 81
-0.0340142 -0.00564235 -0.0662169 0 0 0 56 82 60
-0.231972 -0.014259 -0.0624224 0 0 0 41 53 48
-0.091983 0.00329937 -0.0544576 0 0 0 92 97 84
-0.191778 -0.0194839 -0.0626461 0 0 0 72 53 21
-0.222918 -0.0317243 -0.059498 0 0 0 86 84 58
-0.16552 -0.00442496 -0.0575467 0 0 0 80 36 24
-0.123982 -0.0388163 -0.0642014 0 0 0 71 92 40
-0.183538 -0.0245075 -0.0645414 0 0 0 109 102 111
-0.21762 -0.0443403 0.00978937 0 0 0 81 83 87
-0.175626 -0.0182487 -0.0647027 0 0 0 69 33 36
-0.101224 -0.00645059 -0.0634382 0 0 0 86 95 84
-0.0569742 -0.00640329 -0.0614203 0 0 0 28 28 39
-0.213378 -0.0441515 0.00977012 0 0 0 79 85 91
-0.0605194 -0.0126496 -0.0657465 0 0 0 40 35 59
-0.20576 -0.0245121 -0.0647284 0 0 0 103 104 106
-0.179789 -0.0108799 -0.0609505 0 0 0 103 99 98
-0.181064 -0.00216115 -0.0571213 0 0 0 73 55 23
-0.0651231 -0.019218 -0.0675848 0 0 0 28 21 36
-0.0625532 -0.0325125 -0.0661144 0 0 0 96 110 96
-0.0689698 -0.0298525 -0.0678255 0 0 0 81 88 85
-0.206893 -0.0147959 -0.0623611 0 0 0 47 23 7
-0.0938006 -0.0134285 -0.0647364 0 0 0 57 60 62
-0.189968 -0.037809 -0.0624559 0 0 0 69 94 63
-0.0248731 -0.0251174 -0.0693884 0 0 0 71 99 48
-0.188543 -0.00681642 -0.061524 0 0 0 74 49 21
-0.0846936 -0.0203942 -0.0663243 0 0 0 100 111 106
-0.0838179 -0.0242296 -0.0662598 0 0 0 103 111 109
-0.116232 -0.0230865 -0.0673425 0 0 0 58 51 49
-0.112482 -0.01541 -0.067369 0 0 0 95 100 96
-0.0211967 -0.0358337 -0.0701759 0 0 0 114 121 108
-0.109083 -0.0342512 -0.0659983 0 0 0 116 119 116
-0.0411823 -0.00118628 -0.0626145 0 0 0 83 93 59
