ply
format ascii 1.0
element vertex 59
property float x
property float y
property float z
property float nx
property float ny
property float nz
property uchar diffuse_red
property uchar diffuse_green
property uchar diffuse_blue
end_header
-0.200065 -0.051557 -0.0544834 0 0 0 216 219 218
-0.153907 -0.0525288 -0.0542803 0 0 0 232 232 236
-0.108817 -0.0529604 -0.0586497 0 0 0 220 222 231
-0.108532 -0.0511509 -0.061585 0 0 0 236 242 243
-0.0430902 -0.0410971 -0.0696502 0 0 0 86 116 80
-0.217026 -0.0475962 0.0104074 0 0 0 79 87 93
-0.210526 -0.0272628 0.0162253 0 0 0 89 93 100
-0.183173 -0.0273115 0.0127533 0 0 0 141 157 166
-0.229342 0.00545573 -0.00226709 0 0 0 93 98 105
-0.123452 -0.024472 -0.0675872 0 0 0 74 90 89
-0.213217 -0.00587556 0.00861838 0 0 0 94 97 110
-0.148366 -0.0354072 -0.060741 0 0 0 49 53 63
-0.161959 0.00545315 -0.049249 0 0 0 101 95 82
-0.0810744 -0.0388281 -0.0679895 0 0 0 67 83 70
-0.182189 -0.0225164 0.0151819 0 0 0 187 216 207
-0.232838 -0.0130433 0.0133955 0 0 0 89 92 95
-0.219011 -0.0111565 -0.0590621 0 0 0 81 83 77
-0.184026 0.00741796 -0.0437676 0 0 0 85 95 79
-0.229467 -0.0179944 -0.0635549 0 0 0 13 11 9
-0.0791376 -0.00826974 -0.0634778 0 0 0 97 104 98
-0.0788111 -0.0362806 -0.0671261 0 0 0 62 59 76
-0.199575 -0.0102158 -0.062958 0 0 0 114 115 103
-0.189439 0.00322747 -0.0530683 0 0 0 108 111 104
-0.0350905 -0.00737651 -0.066631 0 0 0 63 86 62
-0.215612 -0.0475256 0.0104102 0 0 0 78 86 89
-0.223188 -0.0323862 -0.0601938 0 0 0 91 90 74
-0.2086 0.000353145 -0.0539711 0 0 0 74 66 24
-0.0917606 0.00240828 -0.0536842 0 0 0 93 98 84
-0.185583 0.000277943 -0.0544727 0 0 0 80 62 42
-0.197205 -0.0417155 0.0109962 0 0 0 74 84 97
-0.122437 0.00493713 -0.0551238 0 0 0 81 85 80
-0.12413 -0.0398777 -0.0644315 0 0 0 71 90 46
-0.0177828 -0.0024542 -0.0636032 0 0 0 58 85 32
-0.0448427 -0.0398968 -0.0691583 0 0 0 84 113 78
-0.19276 -0.0198294 -0.0638669 0 0 0 69 51 21
-0.185233 -0.0260642 -0.0650987 0 0 0 108 103 102
-0.166611 -0.00574664 -0.0587226 0 0 0 80 35 23
-0.204451 -0.00909898 0.0122061 0 0 0 117 122 128
-0.100154 -0.00743577 -0.0620572 0 0 0 88 96 90
-0.0204373 -0.0346512 -0.0704403 0 0 0 129 120 104
-0.0317236 -0.0398282 -0.0667418 0 0 0 88 117 81
-0.178682 -0.0122107 -0.0615305 0 0 0 110 117 120
-0.0608379 -0.0132784 -0.0654939 0 0 0 39 33 49
-0.137616 -0.0475355 -0.0587928 0 0 0 177 202 210
-0.0642326 -0.0330063 -0.0672425 0 0 0 97 111 98
-0.205998 -0.0261265 -0.0654696 0 0 0 103 103 104
-0.0653846 -0.0198734 -0.0673779 0 0 0 34 23 32
-0.094119 -0.0142849 -0.0647071 0 0 0 58 61 68
-0.0668107 -0.0292069 -0.0670347 0 0 0 82 104 78
-0.190828 -0.0381063 -0.0637025 0 0 0 66 93 52
-0.224399 -0.0463901 0.00802722 0 0 0 88 96 107
-0.207212 -0.0164238 -0.0630875 0 0 0 48 23 9
-0.110782 -0.0128782 -0.0647796 0 0 0 97 102 94
-0.188274 -0.00836529 -0.0613443 0 0 0 74 47 26
-0.0250844 -0.0254958 -0.0689273 0 0 0 69 101 47
-0.137809 -0.00434143 -0.0606341 0 0 0 75 82 80
-0.0849546 -0.021185 -0.0662504 0 0 0 103 111 110
-0.18487 -0.00478078 -0.0600865 0 0 0 74 51 38
-0.0423635 -0.00166449 -0.0628587 0 0 0 86 94 62
