ply
format ascii 1.0
element vertex 54
property float x
property float y
property float z
property float nx
property float ny
property float nz
property uchar diffuse_red
property uchar diffuse_green
property uchar diffuse_blue
end_header
-0.199313 -0.0511687 -0.0536926 0 0 0 217 220 218
-0.0955233 -0.0525286 -0.0563238 0 0 0 225 234 240
-0.153785 -0.0520228 -0.0542794 0 0 0 233 233 237
-0.06595 -0.0288601 -0.0666104 0 0 0 82 103 84
-0.222337 -0.0442064 0.0090464 0 0 0 80 87 98
-0.153742 -0.0406733 -0.0645157 0 0 0 74 73 75
-0.212152 -0.0247772 0.0136969 0 0 0 88 94 98
-0.183025 -0.0262327 0.0125472 0 0 0 140 156 170
-0.132668 -0.0247263 -0.0670163 0 0 0 81 88 87
-0.210338 -0.00219336 0.00861123 0 0 0 92 94 106
-0.137497 -0.0470659 -0.0588421 0 0 0 177 200 204
-0.0794849 -0.0385845 -0.0667956 0 0 0 69 82 67
-0.0933837 -0.0435582 -0.0632317 0 0 0 45 70 56
-0.164004 0.00586024 -0.0504258 0 0 0 88 89 92
-0.1343 -0.0454526 -0.0604819 0 0 0 117 116 153
-0.184725 0.00784631 -0.0434593 0 0 0 69 63 58
-0.120055 0.00558433 -0.0550631 0 0 0 82 86 80
-0.189325 0.00373612 -0.0535328 0 0 0 108 112 105
-0.133392 -0.0426217 -0.0625233 0 0 0 88 103 92
-0.0790826 -0.00656604 -0.0636965 0 0 0 97 103 95
-0.198823 -0.00983372 -0.062527 0 0 0 114 115 103
-0.227859 -0.00793034 0.0129111 0 0 0 92 98 104
-0.112572 -0.0485577 -0.0600172 0 0 0 214 227 225
-0.223686 -0.0318637 -0.0611327 0 0 0 91 94 73
-0.0909241 0.0029113 -0.0534916 0 0 0 94 98 82
-0.186068 -0.000336322 -0.0558574 0 0 0 76 48 50
-0.165882 -0.00415625 -0.0581923 0 0 0 69 36 21
-0.192598 -0.0205298 -0.0643027 0 0 0 73 51 29
-0.123312 -0.0395376 -0.0638462 0 0 0 72 91 43
-0.104528 -0.00700483 -0.0650628 0 0 0 91 98 86
-0.0579469 -0.00782453 -0.0624273 0 0 0 31 25 43
-0.175796 -0.0192525 -0.0655015 0 0 0 72 37 32
-0.218638 -0.0450754 0.00805428 0 0 0 81 85 93
-0.0585275 -0.0116773 -0.0636892 0 0 0 38 33 47
-0.183665 -0.0255653 -0.0653493 0 0 0 108 101 107
-0.0212765 -0.0344515 -0.0697071 0 0 0 107 115 68
-0.205885 -0.0257265 -0.0656729 0 0 0 101 104 104
-0.0641193 -0.0325982 -0.0674496 0 0 0 96 110 98
-0.18069 -0.0118471 -0.0625793 0 0 0 99 97 95
-0.2071 -0.0160038 -0.063374 0 0 0 46 20 8
-0.0652735 -0.0194672 -0.0676979 0 0 0 32 22 38
-0.0940077 -0.0138606 -0.0650625 0 0 0 57 60 69
-0.187972 -0.0377888 -0.062315 0 0 0 67 93 49
-0.111387 -0.0124169 -0.0658376 0 0 0 96 101 96
-0.181946 -0.00539802 -0.0591685 0 0 0 70 50 36
-0.0699521 -0.0303089 -0.0669933 0 0 0 73 74 78
-0.0241959 -0.0251511 -0.0685824 0 0 0 71 100 51
-0.0848428 -0.0207723 -0.0665503 0 0 0 102 111 106
-0.188162 -0.00792743 -0.0617089 0 0 0 72 47 27
-0.228889 -0.0477991 0.00673005 0 0 0 124 130 146
-0.0406126 0.000264293 -0.0634209 0 0 0 109 106 73
-0.116355 -0.0236914 -0.0677454 0 0 0 59 57 57
-0.0839409 -0.024601 -0.0664562 0 0 0 106 111 110
-0.107704 -0.0349461 -0.0648987 0 0 0 112 122 123
