ply
format ascii 1.0
element vertex 51
property float x
property float y
property float z
property float nx
property float ny
property float nz
property uchar diffuse_red
property uchar diffuse_green
property uchar diffuse_blue
end_header
-0.211571 -0.0525101 -0.0522437 0 0 0 215 217 216
-0.156092 -0.0525595 -0.0545192 0 0 0 234 235 239
-0.108573 -0.0510893 -0.0614011 0 0 0 235 245 247
-0.231113 -0.046535 0.00856915 0 0 0 134 142 172
-0.036028 -0.0396495 -0.0670293 0 0 0 83 115 79
-0.194286 -0.0527283 -0.0541788 0 0 0 219 220 217
-0.194589 -0.042335 -0.0613884 0 0 0 64 94 57
-0.137705 -0.050241 -0.0573164 0 0 0 236 243 247
-0.151209 -0.0352135 -0.0634403 0 0 0 50 51 65
-0.136798 -0.0242001 -0.0669939 0 0 0 80 87 87
-0.236656 -0.00879556 -0.057852 0 0 0 178 184 160
-0.203029 -0.0496907 -0.0535187 0 0 0 218 229 222
-0.163631 0.00407081 -0.0494726 0 0 0 98 94 89
-0.225876 0.000318708 0.00812038 0 0 0 91 96 105
-0.187576 0.00604045 -0.046276 0 0 0 79 66 69
-0.197462 0.00118128 -0.0538841 0 0 0 70 48 52
-0.0765592 -0.0361038 -0.0667759 0 0 0 70 79 71
-0.189677 0.00301916 -0.053051 0 0 0 108 116 110
-0.19851 -0.0106346 -0.0612245 0 0 0 115 114 108
-0.0328615 -0.00691224 -0.0668383 0 0 0 52 80 31
-0.078632 -0.00813059 -0.0631554 0 0 0 96 104 98
-0.018858 -0.0341683 -0.0711185 0 0 0 152 149 118
-0.122636 0.00377971 -0.0555999 0 0 0 81 85 83
-0.122694 0.00499731 -0.0554128 0 0 0 81 86 83
-0.0920004 0.00261422 -0.0540821 0 0 0 92 97 86
-0.192242 -0.0213241 -0.0630232 0 0 0 72 53 28
-0.16622 -0.00478026 -0.0577947 0 0 0 72 36 25
-0.124232 -0.0399109 -0.0642869 0 0 0 73 91 76
-0.0987841 -0.00719592 -0.0625153 0 0 0 79 86 78
-0.183942 -0.0262691 -0.0648639 0 0 0 108 104 107
-0.212249 -0.0350016 0.0119898 0 0 0 83 89 96
-0.0161565 -0.0177669 -0.0692944 0 0 0 84 99 52
-0.0651296 -0.0327449 -0.0680805 0 0 0 100 110 94
-0.1761 -0.0199239 -0.0650522 0 0 0 73 31 35
-0.0583498 -0.00670903 -0.0622466 0 0 0 31 27 41
-0.0610608 -0.013051 -0.0658761 0 0 0 42 32 58
-0.179551 -0.0124135 -0.0621665 0 0 0 112 114 125
-0.206162 -0.0265225 -0.065101 0 0 0 102 102 104
-0.181734 -0.00384417 -0.0575985 0 0 0 73 55 22
-0.207409 -0.0168028 -0.062806 0 0 0 47 22 9
-0.188186 -0.0385076 -0.0618023 0 0 0 66 93 52
-0.188498 -0.00864673 -0.0612215 0 0 0 73 49 21
-0.0950644 -0.014155 -0.0656183 0 0 0 55 60 67
-0.0678766 -0.0292016 -0.0663315 0 0 0 73 75 94
-0.085086 -0.0223252 -0.0666462 0 0 0 103 112 119
-0.138048 -0.0043993 -0.060768 0 0 0 76 84 80
-0.0252696 -0.0251467 -0.0693481 0 0 0 68 99 43
-0.10938 -0.0351932 -0.0660828 0 0 0 119 120 121
-0.211081 -0.0350634 -0.062396 0 0 0 61 84 44
-0.113646 -0.0175746 -0.0684773 0 0 0 96 102 101
-0.108669 -0.010096 -0.0656141 0 0 0 95 101 94
