ply
format ascii 1.0
element vertex 47
property float x
property float y
property float z
property float nx
property float ny
property float nz
property uchar diffuse_red
property uchar diffuse_green
property uchar diffuse_blue
end_header
-0.211416 -0.0509903 -0.0526688 0 0 0 214 217 217
-0.134389 -0.0503982 -0.0580414 0 0 0 238 237 241
-0.154595 -0.0517183 -0.053362 0 0 0 232 233 236
-0.105963 -0.0541455 -0.0545063 0 0 0 223 231 239
-0.192689 -0.0513013 -0.0546013 0 0 0 217 219 218
-0.236722 -0.00699303 -0.0589171 0 0 0 178 183 154
-0.229987 -0.0436537 0.0144167 0 0 0 155 168 184
-0.195124 -0.0410698 -0.0609371 0 0 0 64 91 52
-0.0665924 -0.0286466 -0.0672619 0 0 0 80 103 100
-0.134835 -0.0231376 -0.0672548 0 0 0 82 88 86
-0.215766 -0.00601704 0.0101075 0 0 0 97 102 105
-0.214986 -0.0247769 0.0156884 0 0 0 88 93 103
-0.150946 -0.036748 -0.0624737 0 0 0 56 57 70
-0.162887 0.00652138 -0.0509091 0 0 0 99 96 71
-0.211976 -0.00184848 0.00817111 0 0 0 91 96 100
-0.156546 0.00672292 -0.0473189 0 0 0 107 118 113
-0.0794205 -0.0383804 -0.0668008 0 0 0 68 81 70
-0.0381599 0.00752829 -0.0547073 0 0 0 65 84 70
-0.204259 -0.0012021 0.00897815 0 0 0 89 95 107
-0.19685 0.00258755 -0.0540087 0 0 0 66 49 51
-0.184416 0.00840324 -0.0430691 0 0 0 70 68 58
-0.0771853 -0.00750361 -0.0639905 0 0 0 96 101 93
-0.12205 0.00577911 -0.0553714 0 0 0 81 85 83
-0.197984 -0.00918168 -0.061411 0 0 0 114 114 104
-0.188407 0.00433256 -0.0523783 0 0 0 110 111 100
-0.185817 0.00027875 -0.0554989 0 0 0 76 50 35
-0.210263 -0.0290201 0.0132372 0 0 0 90 95 100
-0.0174999 -0.000735143 -0.0638503 0 0 0 60 85 38
-0.222923 -0.0322316 -0.0602111 0 0 0 87 83 59
-0.192494 -0.0187351 -0.0638396 0 0 0 70 51 19
-0.090656 0.00310769 -0.0533007 0 0 0 92 98 82
-0.209594 0.000327141 -0.0541813 0 0 0 82 74 20
-0.123245 -0.0391577 -0.063772 0 0 0 70 90 51
-0.166943 -0.00470084 -0.0595663 0 0 0 80 33 21
-0.108278 -0.00570655 -0.0650388 0 0 0 92 97 93
-0.178334 -0.0123007 -0.0617503 0 0 0 117 123 111
-0.205762 -0.0249845 -0.0653833 0 0 0 89 105 102
-0.0204205 -0.0345589 -0.0691767 0 0 0 107 116 86
-0.187894 -0.0371377 -0.0621103 0 0 0 64 93 52
-0.11116 -0.0133011 -0.0658658 0 0 0 97 101 97
-0.206931 -0.0152664 -0.0630412 0 0 0 48 23 8
-0.181068 -0.00482444 -0.0580783 0 0 0 71 48 29
-0.188606 -0.00723621 -0.0621425 0 0 0 73 47 21
-0.0248559 -0.0251164 -0.0692689 0 0 0 71 100 44
-0.0838157 -0.0243795 -0.0663941 0 0 0 103 111 107
-0.0689461 -0.029966 -0.0678846 0 0 0 81 87 88
-0.144936 -0.00509766 -0.0619865 0 0 0 90 109 93
