ply
format ascii 1.0
element vertex 50
property float x
property float y
property float z
property float nx
property float ny
property float nz
property uchar diffuse_red
property uchar diffuse_green
property uchar diffuse_blue
end_header
-0.198795 -0.0513977 -0.0541919 0 0 0 217 219 218
-0.20039 -0.0517315 -0.0526031 0 0 0 215 218 218
-0.110416 -0.0528087 -0.0600317 0 0 0 220 223 233
-0.158763 -0.05299 -0.052255 0 0 0 222 220 225
-0.236356 -0.00539208 -0.0530422 0 0 0 96 95 99
-0.213919 -0.025241 0.0162718 0 0 0 88 91 100
-0.0919156 -0.0518319 -0.0558528 0 0 0 242 246 249
-0.13367 -0.0238416 -0.0670502 0 0 0 81 86 87
-0.151145 -0.0373656 -0.0638127 0 0 0 56 56 72
-0.162851 0.00644784 -0.0477392 0 0 0 83 90 87
-0.0827287 -0.0387368 -0.0693352 0 0 0 71 85 69
-0.158516 0.00670593 -0.0463956 0 0 0 109 113 93
-0.137042 -0.0488485 -0.0581481 0 0 0 209 233 244
-0.173893 -0.0195094 -0.0641389 0 0 0 65 35 50
-0.227187 -0.011568 0.0143382 0 0 0 92 95 101
-0.184831 0.00726733 -0.0423891 0 0 0 67 64 38
-0.0917953 0.00227071 -0.0534434 0 0 0 93 98 84
-0.189469 0.00330829 -0.0525056 0 0 0 109 113 99
-0.19774 -0.0102172 -0.060116 0 0 0 116 115 110
-0.197264 0.00153454 -0.0533735 0 0 0 68 51 52
-0.0792285 -0.00838462 -0.0633336 0 0 0 96 105 98
-0.185625 0.000357401 -0.0539378 0 0 0 81 60 47
-0.0371897 0.000558825 -0.0578085 0 0 0 97 103 64
-0.0161819 -0.0157018 -0.0684242 0 0 0 78 103 83
-0.223939 -0.032099 -0.060501 0 0 0 91 92 73
-0.192229 -0.0197524 -0.0626494 0 0 0 70 50 26
-0.124296 -0.039885 -0.0643057 0 0 0 70 90 41
-0.166727 -0.00453474 -0.0580863 0 0 0 71 34 25
-0.0581447 -0.00844825 -0.0619283 0 0 0 30 25 47
-0.0587383 -0.0122818 -0.0632418 0 0 0 36 31 52
-0.0643924 -0.0331349 -0.0672757 0 0 0 95 111 99
-0.206181 -0.0248478 -0.0648212 0 0 0 96 94 105
-0.189542 -0.0378979 -0.0633834 0 0 0 66 92 54
-0.180286 -0.0110912 -0.060845 0 0 0 67 67 71
-0.20673 -0.0152164 -0.0616057 0 0 0 52 31 10
-0.113753 -0.0165849 -0.0663978 0 0 0 94 101 95
-0.110021 -0.012733 -0.0654198 0 0 0 97 101 94
-0.184941 -0.00467354 -0.0595802 0 0 0 76 52 17
-0.116607 -0.0240975 -0.0673015 0 0 0 57 51 53
-0.189009 -0.00819516 -0.0616088 0 0 0 73 46 23
-0.214002 -0.0370568 0.0134267 0 0 0 84 88 94
-0.0276781 -0.0270985 -0.069596 0 0 0 73 101 48
-0.0833511 -0.0236609 -0.0667927 0 0 0 104 111 110
-0.164516 -0.0143423 -0.0630231 0 0 0 100 92 42
-0.0832993 -0.0249172 -0.0670046 0 0 0 106 111 111
-0.188274 -0.0297154 -0.0636457 0 0 0 100 100 106
-0.11023 -0.0327091 -0.0662955 0 0 0 107 116 119
-0.0834549 -0.0211482 -0.0663689 0 0 0 101 108 107
-0.211261 -0.0347474 -0.0608772 0 0 0 60 72 50
-0.142093 -0.00667419 -0.0634457 0 0 0 79 84 86
