ply
format ascii 1.0
element vertex 53
property float x
property float y
property float z
property float nx
property float ny
property float nz
property uchar diffuse_red
property uchar diffuse_green
property uchar diffuse_blue
end_header
-0.21134 -0.0507956 -0.0527365 0 0 0 215 218 215
-0.213363 -0.0548099 -0.00114873 0 0 0 185 199 205
-0.11093 -0.0508568 -0.0587972 0 0 0 211 222 239
-0.153138 -0.0530147 -0.0519906 0 0 0 233 234 239
-0.156696 -0.0515436 -0.0539234 0 0 0 235 234 235
-0.220421 -0.0467153 0.00697633 0 0 0 85 89 100
-0.190694 -0.0407258 -0.0610307 0 0 0 67 95 57
-0.049692 -0.0329887 -0.0687265 0 0 0 76 101 29
-0.23565 -0.003846 -0.0553351 0 0 0 133 121 101
-0.132394 -0.0242041 -0.0667125 0 0 0 81 87 90
-0.149444 -0.0330261 -0.0619155 0 0 0 47 47 48
-0.205838 -0.00494524 0.0100562 0 0 0 119 122 118
-0.214074 -0.00595194 0.0125695 0 0 0 97 101 106
-0.188256 0.00449511 -0.0523693 0 0 0 109 112 105
-0.163523 0.00531693 -0.0501938 0 0 0 96 94 92
-0.199704 -0.00996614 -0.0639312 0 0 0 117 116 109
-0.0792906 -0.0383652 -0.0665141 0 0 0 69 83 69
-0.184879 0.00742695 -0.044009 0 0 0 78 68 60
-0.038656 0.00484315 -0.0553769 0 0 0 75 86 88
-0.15078 -0.0378104 -0.0625635 0 0 0 57 58 79
-0.226945 -0.00843883 0.0138883 0 0 0 93 96 104
-0.0786602 -0.00762969 -0.0634719 0 0 0 96 103 98
-0.224183 -0.0320811 -0.0603397 0 0 0 83 79 68
-0.121889 0.00585036 -0.0551857 0 0 0 81 86 79
-0.210025 -0.000549736 -0.055197 0 0 0 92 72 13
-0.128018 -0.0473648 -0.059633 0 0 0 186 217 235
-0.186267 -0.000661527 -0.0564331 0 0 0 78 50 32
-0.192947 -0.0196144 -0.0647917 0 0 0 73 53 22
-0.219061 -0.0454782 0.00717404 0 0 0 81 86 95
-0.123124 -0.0390824 -0.063602 0 0 0 73 90 41
-0.166119 -0.00460427 -0.0587539 0 0 0 81 32 23
-0.106469 -0.00674483 -0.0651819 0 0 0 92 98 95
-0.0912268 0.00315822 -0.0537262 0 0 0 92 97 83
-0.183397 -0.0247608 -0.0650876 0 0 0 109 101 108
-0.223068 -0.0436798 0.0100232 0 0 0 84 89 102
-0.0575817 -0.00774803 -0.0619913 0 0 0 31 25 43
-0.175492 -0.0184921 -0.0652055 0 0 0 72 38 35
-0.0581832 -0.0115917 -0.063271 0 0 0 35 31 46
-0.204983 -0.024869 -0.0646514 0 0 0 103 103 106
-0.0638909 -0.0324635 -0.0671296 0 0 0 96 111 95
-0.178275 -0.00120214 -0.0560257 0 0 0 67 52 30
-0.17969 -0.0111219 -0.0614957 0 0 0 99 98 94
-0.0642211 -0.0193811 -0.066657 0 0 0 29 22 35
-0.0936742 -0.0135671 -0.0646808 0 0 0 58 59 70
-0.111045 -0.0120212 -0.0654625 0 0 0 98 100 98
-0.0656514 -0.0300016 -0.0664789 0 0 0 87 104 84
-0.0347208 -0.0380758 -0.0673655 0 0 0 83 110 82
-0.189868 -0.0369435 -0.062844 0 0 0 71 92 49
-0.185176 -0.00370071 -0.0593315 0 0 0 77 53 36
-0.0845475 -0.020524 -0.0661928 0 0 0 103 109 114
-0.10749 -0.034575 -0.0646221 0 0 0 115 118 120
-0.210161 -0.0336329 -0.0604516 0 0 0 60 73 46
-0.0247012 -0.0251762 -0.0688335 0 0 0 67 99 47
