ply
format ascii 1.0
element vertex 52
property float x
property float y
property float z
property float nx
property float ny
property float nz
property uchar diffuse_red
property uchar diffuse_green
property uchar diffuse_blue
end_header
-0.210961 -0.0517594 -0.0541616 0 0 0 215 218 215
-0.211629 -0.0505399 -0.0547786 0 0 0 216 219 219
-0.102957 -0.0528709 -0.056556 0 0 0 225 231 239
-0.154082 -0.0521951 -0.0546898 0 0 0 234 234 239
-0.196963 -0.0408867 -0.061425 0 0 0 63 95 70
-0.229122 -0.0461243 0.00906732 0 0 0 109 121 134
-0.205662 -0.00188282 0.00731006 0 0 0 92 95 111
-0.147186 -0.0352732 -0.0598091 0 0 0 48 53 63
-0.0812405 -0.0385344 -0.0683943 0 0 0 70 83 70
-0.15121 -0.0397544 -0.0633636 0 0 0 59 65 78
-0.226764 -0.011615 0.0118984 0 0 0 93 98 107
-0.153296 -0.0420936 -0.0643633 0 0 0 88 83 95
-0.163633 0.00449254 -0.0502135 0 0 0 98 93 83
-0.148277 0.00684475 -0.0469449 0 0 0 96 79 54
-0.0793933 -0.00667546 -0.0639105 0 0 0 97 101 92
-0.122604 0.00407248 -0.0561043 0 0 0 80 85 79
-0.185084 0.00763963 -0.0438576 0 0 0 69 60 38
-0.189662 0.00353822 -0.0539447 0 0 0 108 115 92
-0.198494 -0.010068 -0.0621975 0 0 0 117 116 111
-0.223481 -0.0334738 -0.0594608 0 0 0 82 82 57
-0.186993 -0.00163626 -0.0572139 0 0 0 75 48 28
-0.139528 -0.0425748 -0.0655065 0 0 0 86 95 90
-0.192898 -0.0207172 -0.0647497 0 0 0 73 52 28
-0.166205 -0.00433236 -0.058569 0 0 0 70 35 24
-0.123599 -0.0396775 -0.0641837 0 0 0 72 92 47
-0.102519 -0.00701968 -0.0648051 0 0 0 85 96 87
-0.0450063 -0.0395808 -0.0695023 0 0 0 83 113 80
-0.0590098 -0.00788919 -0.0632665 0 0 0 31 24 45
-0.20882 0.000640858 -0.054854 0 0 0 73 65 20
-0.176756 -0.0193717 -0.0666665 0 0 0 70 33 36
-0.0602783 -0.0129887 -0.0653968 0 0 0 43 33 56
-0.0198242 -0.0343916 -0.0701567 0 0 0 128 117 105
-0.205545 -0.0259896 -0.0653731 0 0 0 104 103 105
-0.180344 -0.0120712 -0.0622343 0 0 0 101 97 93
-0.0644048 -0.0326928 -0.067666 0 0 0 97 109 98
-0.18401 -0.024618 -0.0656099 0 0 0 106 113 109
-0.030118 -0.0364461 -0.0685275 0 0 0 87 116 72
-0.225967 -0.0286126 -0.0635458 0 0 0 76 87 59
-0.0943107 -0.0139787 -0.0653137 0 0 0 58 59 69
-0.188263 -0.0379753 -0.0627736 0 0 0 67 91 53
-0.0268126 -0.0250516 -0.0706208 0 0 0 71 100 43
-0.189124 -0.00807799 -0.0628992 0 0 0 74 47 26
-0.184426 -0.00454876 -0.0601314 0 0 0 76 50 39
-0.0851382 -0.0208823 -0.0667923 0 0 0 101 111 112
-0.0842338 -0.0247105 -0.066701 0 0 0 107 111 107
-0.210672 -0.0347724 -0.0611501 0 0 0 60 72 45
-0.110295 -0.035098 -0.0657274 0 0 0 114 122 113
-0.146152 -0.00568969 -0.0633133 0 0 0 89 115 102
-0.185462 -0.0283189 -0.0645476 0 0 0 106 105 97
-0.0637224 -0.0273707 -0.067772 0 0 0 86 108 95
-0.11275 -0.0171141 -0.0698302 0 0 0 97 101 101
-0.141991 -0.0111587 -0.0652704 0 0 0 80 87 78
