ply
format ascii 1.0
element vertex 47
property float x
property float y
property float z
property float nx
property float ny
property float nz
property uchar diffuse_red
property uchar diffuse_green
property uchar diffuse_blue
end_header
-0.154327 -0.0541447 -0.0511522 0 0 0 229 232 234
-0.1078 -0.0508441 -0.0623855 0 0 0 232 243 246
-0.210011 -0.0504055 -0.0555652 0 0 0 216 221 218
-0.194411 -0.0523792 -0.054501 0 0 0 218 221 219
-0.194016 -0.0420393 -0.0608841 0 0 0 66 93 52
-0.215419 -0.0259635 0.0157707 0 0 0 90 92 103
-0.236807 -0.00739672 -0.0562807 0 0 0 141 135 124
-0.138325 -0.0241022 -0.0668907 0 0 0 79 85 87
-0.186129 -0.0271757 0.0129953 0 0 0 180 188 170
-0.150564 -0.0350545 -0.062831 0 0 0 49 51 64
-0.161392 0.00440795 -0.048714 0 0 0 102 93 78
-0.151871 -0.0398368 -0.0634781 0 0 0 58 65 74
-0.205594 -0.00369779 0.00973537 0 0 0 101 110 113
-0.0819765 -0.0386271 -0.0686859 0 0 0 67 81 75
-0.0408859 0.00461016 -0.0569179 0 0 0 75 86 87
-0.23235 -0.0115902 0.0146168 0 0 0 89 92 101
-0.188951 0.00332259 -0.0522629 0 0 0 110 114 101
-0.197819 -0.0102729 -0.0605365 0 0 0 116 114 107
-0.183524 0.00755719 -0.0429856 0 0 0 84 95 78
-0.0415888 0.00330389 -0.0577832 0 0 0 87 98 92
-0.121682 0.00404019 -0.0562827 0 0 0 81 85 83
-0.0793089 -0.00813222 -0.0636194 0 0 0 96 104 94
-0.135309 -0.044494 -0.0608374 0 0 0 78 93 119
-0.18634 -0.000716645 -0.0553856 0 0 0 77 58 39
-0.166774 -0.00563935 -0.058702 0 0 0 77 38 22
-0.0911945 0.00255522 -0.0531477 0 0 0 93 95 84
-0.145985 0.00675465 -0.0455268 0 0 0 98 89 33
-0.192228 -0.0209317 -0.0631565 0 0 0 72 51 30
-0.0582842 -0.00682792 -0.06198 0 0 0 29 24 38
-0.124286 -0.0397679 -0.0643695 0 0 0 72 90 48
-0.104813 -0.00730834 -0.0647475 0 0 0 89 96 91
-0.183943 -0.0258972 -0.0650066 0 0 0 107 99 107
-0.176077 -0.0195807 -0.0651394 0 0 0 70 36 29
-0.0588079 -0.0119702 -0.0634669 0 0 0 35 31 50
-0.206163 -0.0260652 -0.0652974 0 0 0 103 104 103
-0.0643977 -0.0328742 -0.0673229 0 0 0 96 111 99
-0.180311 -0.0122378 -0.0614164 0 0 0 100 98 95
-0.190285 -0.0392428 -0.0629335 0 0 0 70 94 60
-0.0655571 -0.0197426 -0.067504 0 0 0 34 23 36
-0.207378 -0.0163544 -0.0629483 0 0 0 48 26 7
-0.0942893 -0.01416 -0.0647973 0 0 0 58 60 70
-0.110953 -0.0127626 -0.0648423 0 0 0 94 102 95
-0.185837 -0.00485106 -0.0592361 0 0 0 78 53 30
-0.0842207 -0.0248895 -0.0662597 0 0 0 106 110 108
-0.0277565 -0.025425 -0.0694378 0 0 0 69 101 47
-0.107978 -0.0352512 -0.0647177 0 0 0 114 120 119
-0.210691 -0.0338352 -0.0601393 0 0 0 65 55 58
