ply
format ascii 1.0
element vertex 50
property float x
property float y
property float z
property float nx
property float ny
property float nz
property uchar diffuse_red
property uchar diffuse_green
property uchar diffuse_blue
end_header
-0.211499 -0.0522906 -0.0520816 0 0 0 215 217 217
-0.153282 -0.0542105 -0.0516259 0 0 0 230 232 239
-0.109223 -0.0551791 -0.0537899 0 0 0 231 235 243
-0.105382 -0.0538934 -0.0532596 0 0 0 215 221 234
-0.192135 -0.0526357 -0.0532886 0 0 0 218 219 221
-0.231266 -0.0471862 0.0104711 0 0 0 158 170 190
-0.225757 -0.0457471 0.0107479 0 0 0 93 101 108
-0.195954 -0.0410395 -0.0609038 0 0 0 63 93 65
-0.235309 -0.00529673 -0.0550413 0 0 0 153 145 130
-0.137675 -0.0491078 -0.0569453 0 0 0 210 237 244
-0.217162 -0.0229908 0.0161899 0 0 0 91 95 104
-0.138135 -0.0242722 -0.0664011 0 0 0 80 86 84
-0.215885 -0.0077232 0.0109809 0 0 0 97 101 114
-0.161799 0.0041816 -0.0487619 0 0 0 102 92 84
-0.153146 0.00588646 -0.0459282 0 0 0 96 96 95
-0.0796372 -0.0378264 -0.0662052 0 0 0 60 64 67
-0.184704 0.00714487 -0.0421715 0 0 0 73 67 56
-0.0391769 0.00558876 -0.054996 0 0 0 67 83 76
-0.0415831 0.00410689 -0.0555832 0 0 0 85 109 101
-0.123164 0.00343951 -0.0539613 0 0 0 81 84 85
-0.0790971 -0.00837096 -0.063193 0 0 0 94 104 99
-0.199532 -0.0102811 -0.0621361 0 0 0 114 115 106
-0.189347 0.0031417 -0.0522684 0 0 0 108 110 97
-0.223139 -0.032449 -0.0593048 0 0 0 90 93 75
-0.186752 -0.000876163 -0.0554143 0 0 0 82 44 43
-0.103932 -0.00632768 -0.0633583 0 0 0 87 97 89
-0.123398 -0.0400538 -0.0632975 0 0 0 71 91 45
-0.166547 -0.00582945 -0.0580408 0 0 0 80 32 25
-0.192026 -0.0210756 -0.0625134 0 0 0 73 51 35
-0.0641617 -0.0343886 -0.0672799 0 0 0 105 123 107
-0.0580115 -0.0083881 -0.0618136 0 0 0 31 23 43
-0.175878 -0.0197277 -0.0645298 0 0 0 72 32 34
-0.0585992 -0.0122273 -0.0631132 0 0 0 36 30 52
-0.183092 -0.0261119 -0.0636578 0 0 0 109 99 105
-0.019654 -0.0348324 -0.0698395 0 0 0 127 122 100
-0.177972 -0.0123353 -0.0600526 0 0 0 110 120 119
-0.205971 -0.0261854 -0.0646468 0 0 0 97 105 101
-0.190099 -0.0393893 -0.0623943 0 0 0 69 94 59
-0.209142 0.000305383 -0.0538784 0 0 0 75 64 13
-0.0940857 -0.0143794 -0.0643656 0 0 0 58 60 68
-0.0653653 -0.0199719 -0.0671752 0 0 0 32 18 48
-0.0250743 -0.025604 -0.0689152 0 0 0 72 100 46
-0.0849305 -0.0212796 -0.0659621 0 0 0 103 111 105
-0.111467 -0.0129195 -0.0650554 0 0 0 96 100 93
-0.184812 -0.0048556 -0.059321 0 0 0 74 51 35
-0.210445 -0.0350768 -0.0597005 0 0 0 60 73 41
-0.188876 -0.00839224 -0.0613324 0 0 0 71 49 26
-0.110816 -0.0353934 -0.0655699 0 0 0 116 120 122
-0.112748 -0.0164706 -0.0670469 0 0 0 94 100 98
-0.145265 -0.00491016 -0.0610609 0 0 0 83 106 96
