ply
format ascii 1.0
element vertex 50
property float x
property float y
property float z
property float nx
property float ny
property float nz
property uchar diffuse_red
property uchar diffuse_green
property uchar diffuse_blue
end_header
-0.0654669 -0.0528153 -0.0582277 0 0 0 247 249 252
-0.109229 -0.0531301 -0.0536983 0 0 0 214 222 240
-0.15378 -0.0514963 -0.0538561 0 0 0 233 234 238
-0.230056 -0.0457843 0.012048 0 0 0 155 168 196
-0.0365215 -0.0397047 -0.0674863 0 0 0 83 115 82
-0.0665668 -0.0287947 -0.0669262 0 0 0 81 104 78
-0.213095 -0.0246747 0.0146588 0 0 0 87 93 100
-0.236373 -0.0219249 -0.0574343 0 0 0 173 178 192
-0.128699 -0.0240997 -0.0659323 0 0 0 81 88 88
-0.148822 -0.0343079 -0.0610196 0 0 0 46 51 61
-0.0794271 -0.0384878 -0.0665095 0 0 0 68 81 72
-0.162162 0.00519214 -0.0479967 0 0 0 98 94 94
-0.19402 -0.0092478 -0.0560469 0 0 0 115 114 112
-0.225394 0.000580219 0.00609043 0 0 0 92 97 104
-0.188885 0.00452199 -0.0523367 0 0 0 110 111 97
-0.184215 0.00848165 -0.0422352 0 0 0 73 61 58
-0.0809969 -0.035784 -0.0674262 0 0 0 53 45 66
-0.13349 -0.0475173 -0.0597459 0 0 0 201 230 242
-0.123404 0.00437238 -0.0547346 0 0 0 80 85 81
-0.197303 -0.0404402 0.0108188 0 0 0 74 85 96
-0.0787655 -0.00651077 -0.0630482 0 0 0 96 103 95
-0.0339561 -0.00592655 -0.0657413 0 0 0 55 82 63
-0.0912198 0.00297008 -0.0533805 0 0 0 94 98 87
-0.147434 0.0074107 -0.0455448 0 0 0 91 76 40
-0.222933 -0.030817 -0.0594124 0 0 0 92 90 70
-0.0211522 -0.0361072 -0.0698238 0 0 0 114 124 104
-0.123953 -0.0390414 -0.0641023 0 0 0 72 91 34
-0.208071 0.00179434 -0.0531639 0 0 0 73 67 17
-0.186319 0.000488591 -0.0554862 0 0 0 77 48 34
-0.165522 -0.00349673 -0.0571774 0 0 0 71 38 21
-0.0446894 -0.0396436 -0.0691748 0 0 0 84 113 79
-0.191738 -0.0196653 -0.0626058 0 0 0 74 52 31
-0.0306649 -0.0381619 -0.0675351 0 0 0 89 116 77
-0.101898 -0.00665249 -0.0638115 0 0 0 86 94 89
-0.0584359 -0.00660863 -0.0623206 0 0 0 28 27 42
-0.183498 -0.0246855 -0.0645075 0 0 0 108 102 109
-0.175581 -0.018432 -0.0646188 0 0 0 72 31 38
-0.0597132 -0.012968 -0.0647099 0 0 0 30 33 59
-0.205719 -0.0246722 -0.064746 0 0 0 101 103 108
-0.179747 -0.0110792 -0.0608389 0 0 0 100 96 98
-0.190632 -0.0367706 -0.0630778 0 0 0 65 91 51
-0.094482 -0.0136192 -0.0651207 0 0 0 57 58 64
-0.0647699 -0.0325316 -0.0678127 0 0 0 101 110 97
-0.20685 -0.0149672 -0.062332 0 0 0 48 26 8
-0.0665668 -0.0287947 -0.0669262 0 0 0 81 104 78
-0.111122 -0.0120883 -0.0651293 0 0 0 97 101 99
-0.0248224 -0.0253923 -0.0689904 0 0 0 72 100 44
-0.185208 -0.0036622 -0.0585982 0 0 0 79 50 27
-0.0838637 -0.021961 -0.0655761 0 0 0 105 111 109
-0.109046 -0.0344787 -0.0658416 0 0 0 114 120 121
