ply
format ascii 1.0
element vertex 57
property float x
property float y
property float z
property float nx
property float ny
property float nz
property uchar diffuse_red
property uchar diffuse_green
property uchar diffuse_blue
end_header
-0.0628504 -0.0529221 -0.0559575 0 0 0 246 248 252
-0.203542 -0.0510868 -0.0500225 0 0 0 214 218 219
-0.210274 -0.0507375 -0.053153 0 0 0 213 215 214
-0.155084 -0.0518297 -0.0521736 0 0 0 231 233 234
-0.109785 -0.0507187 -0.0594775 0 0 0 221 226 240
-0.166447 -0.0499793 -0.0575703 0 0 0 220 223 224
-0.137164 -0.0492779 -0.0572175 0 0 0 237 242 247
-0.222731 -0.0426046 0.0105974 0 0 0 83 87 101
-0.23726 -0.0220283 -0.0594926 0 0 0 173 178 185
-0.21179 -0.0256883 0.0157992 0 0 0 89 92 101
-0.196231 -0.0411488 0.00957754 0 0 0 118 106 132
-0.0720776 -0.0291624 -0.0652087 0 0 0 50 42 32
-0.231446 -0.0415404 0.0167287 0 0 0 181 190 197
-0.133911 -0.0488787 -0.0590476 0 0 0 234 240 246
-0.13892 -0.0231627 -0.0680634 0 0 0 82 86 86
-0.149102 -0.0354404 -0.0620312 0 0 0 52 52 62
-0.212221 -0.00173155 0.00764343 0 0 0 89 94 103
-0.162492 0.00658144 -0.0505524 0 0 0 98 98 76
-0.156154 0.00677735 -0.0469564 0 0 0 106 118 118
-0.228799 -0.00882489 0.0150754 0 0 0 88 93 94
-0.227363 -0.00987537 0.0149207 0 0 0 90 94 97
-0.197049 0.00158331 -0.0546411 0 0 0 71 55 64
-0.121651 0.00580893 -0.0549776 0 0 0 80 87 79
-0.188012 0.00441244 -0.0520454 0 0 0 110 113 104
-0.187314 0.00610016 -0.0453967 0 0 0 61 57 67
-0.0784281 -0.00764463 -0.0633383 0 0 0 96 104 103
-0.0758632 -0.0356551 -0.0664262 0 0 0 72 78 71
-0.199514 -0.00895227 -0.063411 0 0 0 114 115 106
-0.186026 -0.000743209 -0.0561123 0 0 0 74 49 30
-0.223317 -0.0322749 -0.0591538 0 0 0 82 80 66
-0.0191391 -0.0330751 -0.0694326 0 0 0 121 119 82
-0.192062 -0.0197653 -0.0636927 0 0 0 74 50 29
-0.122826 -0.0403366 -0.0635815 0 0 0 69 93 52
-0.165881 -0.00467352 -0.058468 0 0 0 80 36 23
-0.183156 -0.0248412 -0.0647704 0 0 0 108 102 106
-0.0909354 0.00187575 -0.0537716 0 0 0 89 96 80
-0.107831 -0.00690973 -0.0648294 0 0 0 91 99 93
-0.175256 -0.0185676 -0.0649025 0 0 0 72 35 41
-0.207622 -0.0373077 0.0130364 0 0 0 82 89 92
-0.058049 -0.00900572 -0.0627617 0 0 0 33 30 45
-0.0579483 -0.0115939 -0.0631729 0 0 0 38 32 49
-0.180763 -0.00247629 -0.0573797 0 0 0 73 54 24
-0.205377 -0.0248885 -0.0650727 0 0 0 103 101 103
-0.0621501 -0.0326185 -0.0657006 0 0 0 96 109 99
-0.179452 -0.0111998 -0.0611858 0 0 0 99 97 92
-0.0647376 -0.0193317 -0.0672093 0 0 0 33 17 47
-0.206541 -0.01517 -0.0627296 0 0 0 48 24 9
-0.188925 -0.0382458 -0.0619312 0 0 0 66 94 60
-0.188211 -0.00715405 -0.0618123 0 0 0 71 48 23
-0.110766 -0.0132773 -0.0654662 0 0 0 97 100 96
-0.217799 -0.0148368 -0.0626873 0 0 0 60 57 34
-0.0703776 -0.0303312 -0.0656462 0 0 0 64 50 64
-0.184093 -0.00475284 -0.059989 0 0 0 76 51 19
-0.107243 -0.034608 -0.0644366 0 0 0 116 120 123
-0.210576 -0.0325435 -0.0606962 0 0 0 64 55 56
-0.218636 -0.0467541 0.00736746 0 0 0 84 88 98
-0.0817982 -0.0242642 -0.0661867 0 0 0 105 112 112
