ply
format ascii 1.0
element vertex 50
property float x
property float y
property float z
property float nx
property float ny
property float nz
property uchar diffuse_red
property uchar diffuse_green
property uchar diffuse_blue
end_header
-0.212295 -0.0506011 -0.0534219 0 0 0 215 219 218
-0.153962 -0.0521392 -0.0543006 0 0 0 234 234 238
-0.0971395 -0.0524382 -0.0577976 0 0 0 226 234 240
-0.192897 -0.0520557 -0.0547278 0 0 0 219 220 220
-0.21309 -0.0252579 0.0146693 0 0 0 88 93 97
-0.1917 -0.0415546 -0.0619236 0 0 0 67 94 59
-0.143528 -0.0241326 -0.0674997 0 0 0 79 86 92
-0.236422 -0.0101092 -0.0586521 0 0 0 193 200 164
-0.183883 -0.0291764 0.0131184 0 0 0 174 179 189
-0.206949 -0.00342497 0.00944182 0 0 0 100 106 106
-0.149117 -0.0349746 -0.0615972 0 0 0 48 51 66
-0.228627 -0.01191 0.0133829 0 0 0 91 93 96
-0.231452 -0.0109903 0.0135005 0 0 0 87 90 93
-0.188855 0.00645655 -0.0465288 0 0 0 46 32 52
-0.0784763 -0.00795657 -0.0632048 0 0 0 96 104 97
-0.165453 0.00459805 -0.0519578 0 0 0 97 93 86
-0.122503 0.00532572 -0.0555284 0 0 0 81 86 79
-0.189501 0.00361781 -0.0533494 0 0 0 109 113 109
-0.200293 -0.00984141 -0.063918 0 0 0 115 115 104
-0.222749 -0.033445 -0.0580238 0 0 0 83 79 63
-0.200046 -0.0417247 0.00668999 0 0 0 92 75 99
-0.229637 -0.0155364 -0.0633099 0 0 0 17 7 39
-0.186246 -0.000447973 -0.0556898 0 0 0 76 49 45
-0.145214 0.00701585 -0.0450948 0 0 0 101 89 22
-0.192836 -0.0195014 -0.0640093 0 0 0 75 49 21
-0.123501 -0.039627 -0.0638697 0 0 0 71 92 39
-0.166681 -0.00538527 -0.0589907 0 0 0 78 37 23
-0.0643131 -0.0326781 -0.0675272 0 0 0 96 110 97
-0.0919087 -0.0126075 -0.0643661 0 0 0 63 54 43
-0.0175349 -0.0190793 -0.0706831 0 0 0 87 96 54
-0.0587161 -0.0117681 -0.0637137 0 0 0 40 31 50
-0.0852558 -0.040143 -0.0670836 0 0 0 73 93 104
-0.18017 -0.0131187 -0.0618731 0 0 0 119 121 112
-0.20544 -0.0258796 -0.0647772 0 0 0 101 103 105
-0.082954 -0.0348253 -0.0673973 0 0 0 50 42 58
-0.0554343 -0.0311296 -0.0663728 0 0 0 105 124 128
-0.21827 -0.0431032 0.00934472 0 0 0 80 85 89
-0.094198 -0.0139469 -0.0650489 0 0 0 58 60 59
-0.208663 0.000735454 -0.0542031 0 0 0 73 66 19
-0.206703 -0.015048 -0.0622721 0 0 0 53 28 22
-0.0654673 -0.0195464 -0.0677363 0 0 0 34 21 29
-0.184943 -0.00443002 -0.060329 0 0 0 73 53 39
-0.188999 -0.00798367 -0.0623251 0 0 0 73 48 23
-0.0850351 -0.0208544 -0.066568 0 0 0 103 110 108
-0.0251689 -0.0251716 -0.0693216 0 0 0 68 100 45
-0.0376236 0.00161937 -0.062211 0 0 0 91 107 104
-0.211564 -0.0275405 0.0142895 0 0 0 88 95 101
-0.211235 -0.0334839 -0.0611636 0 0 0 65 59 60
-0.110199 -0.0350543 -0.0654477 0 0 0 113 120 118
-0.187461 -0.0282401 -0.0647414 0 0 0 110 105 105
