ply
format ascii 1.0
element vertex 61
property float x
property float y
property float z
property float nx
property float ny
property float nz
property uchar diffuse_red
property uchar diffuse_green
property uchar diffuse_blue
end_header
-0.211619 -0.0514619 -0.0525833 0 0 0 215 218 217
-0.108818 -0.0530412 -0.0587034 0 0 0 221 222 229
-0.156083 -0.0526843 -0.0548937 0 0 0 233 235 237
-0.107997 -0.0516221 -0.0593829 0 0 0 234 236 239
-0.193587 -0.0540466 -0.0540598 0 0 0 217 219 219
-0.205179 -0.0510926 -0.0533765 0 0 0 215 220 221
-0.0431466 -0.0410342 -0.0698765 0 0 0 85 114 81
-0.196036 -0.0413267 -0.0616122 0 0 0 65 93 62
-0.0678063 -0.0293884 -0.0663707 0 0 0 72 77 96
-0.215363 -0.0263615 0.0155871 0 0 0 88 92 99
-0.0901305 -0.0516359 -0.0561104 0 0 0 242 248 251
-0.208393 -0.00555602 0.00935694 0 0 0 105 108 109
-0.135179 -0.0241794 -0.0673101 0 0 0 81 87 85
-0.175215 -0.0198076 -0.0661253 0 0 0 66 35 48
-0.153811 -0.0399087 -0.0658182 0 0 0 61 64 76
-0.161397 0.00407031 -0.048921 0 0 0 102 92 77
-0.134021 -0.0518115 -0.0557979 0 0 0 241 240 242
-0.0796567 -0.0390273 -0.0668188 0 0 0 68 83 70
-0.187732 0.00688265 -0.0446866 0 0 0 37 27 44
-0.159064 0.00439595 -0.0498307 0 0 0 114 117 112
-0.197382 0.00110801 -0.0541086 0 0 0 67 52 52
-0.230386 -0.0119446 0.0153083 0 0 0 86 92 97
-0.134493 -0.0487497 -0.0592739 0 0 0 204 228 242
-0.200353 -0.0105477 -0.0638282 0 0 0 114 114 105
-0.189598 0.00293152 -0.0532471 0 0 0 108 113 102
-0.122549 0.00361472 -0.0556218 0 0 0 80 86 81
-0.0764969 -0.0362768 -0.0668699 0 0 0 74 79 63
-0.211456 -0.0307451 0.013984 0 0 0 92 94 100
-0.0920901 0.00220125 -0.0524476 0 0 0 89 95 82
-0.0161266 -0.0166642 -0.0689349 0 0 0 79 100 78
-0.0787197 -0.00451584 -0.0625197 0 0 0 100 103 95
-0.124181 -0.0400321 -0.0645203 0 0 0 72 91 41
-0.192817 -0.0213018 -0.0641065 0 0 0 74 52 29
-0.22182 -0.0303393 -0.0613291 0 0 0 84 88 62
-0.183871 -0.026308 -0.0651842 0 0 0 109 103 108
-0.0332769 -0.0366515 -0.0694243 0 0 0 84 115 72
-0.0802974 -0.00593806 -0.0625015 0 0 0 100 103 96
-0.135941 -0.0434916 -0.0615116 0 0 0 88 94 95
-0.166085 -0.00603327 -0.0581513 0 0 0 80 33 20
-0.0995746 -0.00753985 -0.0616516 0 0 0 87 96 86
-0.0587711 -0.0120733 -0.0636361 0 0 0 38 32 43
-0.0464306 -0.0396832 -0.0706764 0 0 0 82 112 81
-0.06024 -0.043958 -0.0642382 0 0 0 83 110 82
-0.039977 -0.0397622 -0.0686694 0 0 0 84 115 82
-0.064309 -0.0329952 -0.0674699 0 0 0 100 110 93
-0.180997 -0.00394988 -0.0570451 0 0 0 74 54 18
-0.206091 -0.0265306 -0.0654791 0 0 0 103 103 108
-0.0655004 -0.0198666 -0.0676659 0 0 0 33 19 44
-0.0942468 -0.0143514 -0.0649709 0 0 0 57 59 69
-0.206748 -0.0157741 -0.0621871 0 0 0 55 28 21
-0.111631 -0.0129537 -0.0657174 0 0 0 96 101 95
-0.0243458 -0.0267661 -0.0688382 0 0 0 74 102 51
-0.192271 -0.0396506 -0.0638303 0 0 0 68 94 62
-0.188413 -0.00869702 -0.0614698 0 0 0 73 48 20
-0.0873669 -0.022561 -0.0671625 0 0 0 105 115 116
-0.0841516 -0.0250578 -0.0664194 0 0 0 105 111 112
-0.162425 -0.0134589 -0.0627033 0 0 0 112 99 16
-0.15116 -0.0137935 -0.0627635 0 0 0 63 57 44
-0.110904 -0.0354282 -0.0660837 0 0 0 116 120 113
-0.141206 -0.00909973 -0.0652265 0 0 0 81 85 85
-0.211177 -0.0353205 -0.0612703 0 0 0 60 74 46
