ply
format ascii 1.0
element vertex 102
property float x
property float y
property float z
property float nx
property float ny
property float nz
property uchar diffuse_red
property uchar diffuse_green
property uchar diffuse_blue
end_header
-0.0228892 0.0601879 0.0774666 0 0 0 254 254 254
-0.242368 -0.0313942 0.0557711 0 0 0 195 217 242
-0.245442 0.0482761 0.0544858 0 0 0 252 254 254
-0.259796 0.0204368 0.0546581 0 0 0 69 84 177
-0.260572 0.0535398 0.0263084 0 0 0 232 237 244
-0.255947 -0.00382544 0.029545 0 0 0 237 247 108
-0.244619 0.046994 0.0551076 0 0 0 249 251 250
-0.25478 0.0320165 0.0359069 0 0 0 49 74 168
-0.0539204 0.0609517 0.0766997 0 0 0 254 254 254
-0.232164 0.0392731 0.0662117 0 0 0 46 50 107
-0.224255 0.0562719 0.0694056 0 0 0 250 253 254
-0.078549 0.0257028 0.0769771 0 0 0 149 126 41
-0.0949229 0.0260458 0.0750409 0 0 0 129 139 144
-0.230517 0.0367089 0.0674551 0 0 0 59 58 113
-0.169754 0.0554759 0.0720759 0 0 0 250 254 254
-0.267707 -0.0272088 0.0188229 0 0 0 110 125 15
-0.135281 0.0603386 0.075632 0 0 0 251 252 253
-0.273688 -0.0279731 0.0156575 0 0 0 148 153 160
-0.259899 -0.0296609 0.0204963 0 0 0 178 198 90
-0.267352 0.0175224 0.0496336 0 0 0 49 65 156
-0.15272 0.0415219 0.0740886 0 0 0 131 65 43
-0.122662 0.0393979 0.075111 0 0 0 67 86 119
-0.276701 0.0381892 0.0181021 0 0 0 153 156 148
-0.139148 -0.0264079 0.0761183 0 0 0 149 167 168
-0.225608 0.0255632 0.0706524 0 0 0 114 151 120
-0.143359 0.00797013 0.0769873 0 0 0 33 23 99
-0.103023 -0.0256338 0.0736563 0 0 0 142 156 155
-0.276253 0.0361778 0.0168397 0 0 0 149 151 147
-0.122046 -0.0158504 0.0733106 0 0 0 167 168 171
-0.037487 -0.0137076 0.0777409 0 0 0 112 108 40
-0.076282 -0.0303146 0.075277 0 0 0 152 137 110
-0.256084 -0.0189113 0.0272151 0 0 0 15 39 148
-0.0794287 -0.0131133 0.077509 0 0 0 152 144 82
-0.25242 -0.0232588 0.0315888 0 0 0 39 60 154
-0.0478852 -0.0289466 0.0737679 0 0 0 152 128 43
-0.216 0.0387205 0.0707289 0 0 0 80 98 128
-0.238326 -0.00892209 0.0616013 0 0 0 8 20 85
-0.132695 0.0408618 0.0753364 0 0 0 22 20 83
-0.0225427 -0.0197901 0.0760294 0 0 0 75 110 87
-0.0675922 0.0478713 0.0768715 0 0 0 71 91 51
-0.0822609 0.0436707 0.075948 0 0 0 137 99 64
-0.216228 0.0131744 0.0710142 0 0 0 51 47 95
-0.239317 0.00527016 0.061285 0 0 0 36 46 107
-0.0478604 -0.0262082 0.0741908 0 0 0 149 127 29
-0.246161 -0.0188063 0.051062 0 0 0 65 88 47
-0.145525 -0.0212945 0.0748285 0 0 0 89 103 135
-0.244435 0.0327515 0.0546245 0 0 0 235 244 252
-0.121954 -0.0056489 0.0748862 0 0 0 34 61 108
-0.206298 -0.0106825 0.0730648 0 0 0 147 146 134
-0.186868 -0.0275204 0.0713732 0 0 0 69 24 30
-0.118467 0.0198216 0.0749722 0 0 0 46 92 105
-0.138102 0.0288046 0.0739096 0 0 0 161 159 152
-0.241387 0.0257748 0.0594193 0 0 0 213 231 254
-0.0436075 0.039142 0.0766057 0 0 0 76 92 39
-0.180439 -0.0307005 0.0701783 0 0 0 105 107 46
-0.0186474 0.00929477 0.077042 0 0 0 127 149 112
-0.180585 0.0401499 0.0718928 0 0 0 145 115 41
-0.0182698 -0.0139594 0.0768462 0 0 0 123 141 90
-0.162517 0.00692592 0.0749333 0 0 0 146 125 113
-0.0554227 0.028757 0.0789928 0 0 0 78 89 25
-0.22073 0.0108593 0.0690747 0 0 0 122 138 150
-0.180662 0.0316713 0.0705834 0 0 0 133 114 52
-0.108611 -0.00749587 0.075037 0 0 0 163 165 160
-0.167577 -0.0170865 0.0735159 0 0 0 27 44 97
-0.210207 0.0237333 0.0700089 0 0 0 128 132 147
-0.148521 -0.0139769 0.0757698 0 0 0 50 69 126
-0.230528 0.00079324 0.0678529 0 0 0 97 111 142
-0.207535 0.00654397 0.0715394 0 0 0 148 144 144
-0.225559 -0.000135966 0.0683691 0 0 0 94 117 134
-0.139739 -0.00287452 0.0747359 0 0 0 138 147 149
-0.153611 0.0429088 0.0734161 0 0 0 133 65 57
-0.115803 0.00525243 0.0754668 0 0 0 141 155 172
-0.197475 0.0409123 0.0709195 0 0 0 136 92 39
-0.156023 0.0190699 0.0746228 0 0 0 147 127 106
-0.202657 0.00950233 0.071123 0 0 0 148 138 120
-0.205882 0.00159817 0.0724418 0 0 0 129 118 74
-0.154936 0.00989525 0.0757637 0 0 0 154 151 138
-0.110708 0.0297931 0.0755867 0 0 0 158 167 163
-0.169905 -0.0121633 0.0733553 0 0 0 29 44 100
-0.0296544 -0.00556385 0.0753446 0 0 0 41 62 29
-0.0605183 0.024408 0.0775837 0 0 0 58 84 29
-0.220773 -0.0239043 0.0696089 0 0 0 13 23 78
-0.208285 0.0481168 0.071217 0 0 0 246 253 253
-0.182307 0.0159622 0.0723177 0 0 0 129 114 42
-0.102043 0.027999 0.0753793 0 0 0 154 165 173
-0.194998 0.00104201 0.0731845 0 0 0 116 101 27
-0.123422 -0.0238742 0.0736104 0 0 0 66 73 127
-0.0738031 0.0331005 0.0770776 0 0 0 145 119 49
-0.100197 0.0224727 0.0763877 0 0 0 146 164 172
-0.10439 0.0198152 0.0747021 0 0 0 156 164 163
-0.205569 -0.0236423 0.0718937 0 0 0 25 33 83
-0.07202 -0.00206875 0.0793453 0 0 0 155 134 83
-0.266329 0.00510548 0.0192433 0 0 0 147 161 38
-0.167925 0.00432095 0.0734721 0 0 0 149 140 95
-0.0417215 -0.0235751 0.0763744 0 0 0 141 125 16
-0.266297 0.00859247 0.0197819 0 0 0 148 166 27
-0.173473 0.0130417 0.0721118 0 0 0 130 62 35
-0.194336 0.037229 0.0720565 0 0 0 138 108 36
-0.156955 -0.00680136 0.0755779 0 0 0 137 132 136
-0.0215977 0.0224719 0.0760633 0 0 0 122 145 145
-0.181316 -0.00139611 0.0721731 0 0 0 128 116 64
-0.0306535 0.0284872 0.0779105 0 0 0 83 96 54
