ply
format ascii 1.0
element vertex 102
property float x
property float y
property float z
property float nx
property float ny
property float nz
property uchar diffuse_red
property uchar diffuse_green
property uchar diffuse_blue
end_header
-0.0223336 0.0602238 0.0768469 0 0 0 254 254 254
-0.242768 -0.0302064 0.0573494 0 0 0 208 221 239
-0.261122 0.0199576 0.05747 0 0 0 67 83 175
-0.2559 -0.00488444 0.0297314 0 0 0 238 248 114
-0.244876 0.0470396 0.0559284 0 0 0 250 252 251
-0.260904 0.0533986 0.0271288 0 0 0 232 237 244
-0.255126 0.0319372 0.0368734 0 0 0 52 73 169
-0.0523871 0.0609025 0.077103 0 0 0 254 254 254
-0.232403 0.0393781 0.067053 0 0 0 46 49 95
-0.1699 0.0591864 0.0731447 0 0 0 250 252 253
-0.0801497 0.0250958 0.0788635 0 0 0 149 127 37
-0.0951622 0.0259384 0.0755655 0 0 0 129 137 140
-0.229669 0.0374149 0.0666467 0 0 0 60 56 111
-0.225241 0.03518 0.0678548 0 0 0 79 83 109
-0.267743 -0.0271981 0.0193728 0 0 0 111 130 16
-0.169943 0.0554978 0.0726039 0 0 0 250 253 253
-0.274095 -0.0265005 0.0146765 0 0 0 150 153 151
-0.276609 0.0394767 0.0183506 0 0 0 156 158 151
-0.267188 0.0178463 0.0498657 0 0 0 50 65 157
-0.260429 -0.0310088 0.0217783 0 0 0 173 187 75
-0.152931 0.0415248 0.0746712 0 0 0 133 68 47
-0.122874 0.0393473 0.0756183 0 0 0 68 85 127
-0.104979 -0.0257641 0.0744301 0 0 0 146 161 154
-0.14236 0.00843899 0.0762891 0 0 0 25 32 93
-0.225861 0.0256891 0.0715782 0 0 0 111 149 130
-0.124329 -0.0164863 0.0764644 0 0 0 165 168 167
-0.0363651 -0.0135527 0.0770334 0 0 0 112 109 48
-0.256061 -0.0188482 0.027684 0 0 0 14 38 148
-0.139489 -0.0264152 0.0771771 0 0 0 150 166 171
-0.0204479 -0.0240744 0.0756936 0 0 0 93 123 146
-0.25289 -0.0233741 0.0329694 0 0 0 39 61 158
-0.216226 0.038827 0.0715252 0 0 0 82 95 127
-0.0492499 -0.030378 0.0734183 0 0 0 150 128 49
-0.132904 0.0408333 0.075863 0 0 0 21 23 97
-0.238676 -0.00883809 0.0628288 0 0 0 7 19 83
-0.067782 0.0477214 0.0771466 0 0 0 68 93 63
-0.0228719 -0.0200362 0.0766832 0 0 0 78 109 91
-0.0506164 -0.0265925 0.0754048 0 0 0 149 125 20
-0.0817838 0.0438097 0.0755937 0 0 0 138 99 54
-0.145874 -0.0225415 0.0756854 0 0 0 96 113 138
-0.273868 -0.00684661 0.0175583 0 0 0 168 176 160
-0.239639 0.00535332 0.0624073 0 0 0 31 46 105
-0.215942 0.0135411 0.0711864 0 0 0 51 47 97
-0.246563 -0.0187863 0.052389 0 0 0 68 87 27
-0.188698 -0.0287116 0.072385 0 0 0 98 58 8
-0.244722 0.0327935 0.0555533 0 0 0 237 240 251
-0.122257 -0.00570131 0.0757344 0 0 0 35 57 110
-0.126056 -0.00603912 0.0761951 0 0 0 55 84 123
-0.206616 -0.0105765 0.0742079 0 0 0 146 144 130
-0.043816 0.0389415 0.0768745 0 0 0 76 92 38
-0.138338 0.0287766 0.0745445 0 0 0 158 160 152
-0.241673 0.0258473 0.0603918 0 0 0 214 231 254
-0.118718 0.019762 0.0756159 0 0 0 48 89 109
-0.180805 0.0401929 0.0725706 0 0 0 147 115 34
-0.0170941 -0.0110335 0.0765192 0 0 0 126 146 95
-0.162179 0.00718993 0.0750383 0 0 0 145 126 123
-0.0556446 0.028599 0.0793765 0 0 0 77 91 21
-0.180807 -0.0306686 0.0713954 0 0 0 103 108 45
-0.108918 -0.0075743 0.0758588 0 0 0 163 165 166
-0.221589 0.00955366 0.0707535 0 0 0 127 135 144
-0.180903 0.0317047 0.071326 0 0 0 129 121 58
-0.210465 0.0238229 0.0709018 0 0 0 128 135 138
-0.167907 -0.0170559 0.0745901 0 0 0 27 43 97
-0.230292 0.0011489 0.0681459 0 0 0 98 112 142
-0.197696 0.0409823 0.0716428 0 0 0 134 93 31
-0.207823 0.00664031 0.0725551 0 0 0 151 146 140
-0.225871 -2.67708e-05 0.0694906 0 0 0 94 119 133
-0.140037 -0.00289188 0.0756171 0 0 0 141 145 149
-0.148838 -0.0139681 0.0767623 0 0 0 48 72 130
-0.116098 0.00390553 0.0760247 0 0 0 111 138 165
-0.156277 0.0190842 0.0753864 0 0 0 148 125 102
-0.203518 0.00933821 0.0729089 0 0 0 148 138 121
-0.154568 0.0113898 0.0760114 0 0 0 154 152 139
-0.110938 0.0297219 0.0761308 0 0 0 159 166 164
-0.18721 0.019641 0.0719623 0 0 0 82 89 4
-0.113581 -0.0209532 0.0751136 0 0 0 26 64 91
-0.0607534 0.0242498 0.078016 0 0 0 56 85 21
-0.0299569 -0.00580109 0.0759116 0 0 0 39 60 42
-0.0198741 0.0148515 0.0773126 0 0 0 117 140 97
-0.127384 0.0528945 0.073055 0 0 0 241 254 254
-0.208491 0.0482109 0.0719183 0 0 0 249 253 253
-0.236561 0.00980311 0.0646082 0 0 0 31 48 133
-0.22307 -0.0229193 0.0719297 0 0 0 13 22 79
-0.102277 0.0279087 0.0759107 0 0 0 155 165 164
-0.194121 0.00159068 0.0726032 0 0 0 117 102 14
-0.274269 0.0557857 0.0214365 0 0 0 99 78 79
-0.270786 0.0327849 0.0231226 0 0 0 107 127 14
-0.100439 0.0223865 0.0769556 0 0 0 147 162 175
-0.0760803 0.0322168 0.0795856 0 0 0 144 122 45
-0.104643 0.0197248 0.075303 0 0 0 154 166 161
-0.0685272 0.00115747 0.0785361 0 0 0 153 132 81
-0.072303 -0.0021892 0.0800143 0 0 0 153 135 78
-0.205918 -0.0235464 0.0731334 0 0 0 26 34 86
-0.195413 0.0386264 0.0721467 0 0 0 136 91 40
-0.275185 0.0246226 0.020534 0 0 0 164 169 149
-0.268103 0.00480848 0.0205476 0 0 0 136 148 13
-0.168212 0.00435126 0.0743842 0 0 0 148 140 93
-0.190363 0.0490004 0.0728622 0 0 0 249 253 254
-0.266739 0.00841462 0.0209624 0 0 0 150 172 19
-0.158772 -0.0068541 0.0764586 0 0 0 136 120 109
-0.0308957 0.0268715 0.0780159 0 0 0 84 98 34
-0.181619 -0.00134819 0.0731695 0 0 0 129 117 58
