ply
format ascii 1.0
element vertex 103
property float x
property float y
property float z
property float nx
property float ny
property float nz
property uchar diffuse_red
property uchar diffuse_green
property uchar diffuse_blue
end_header
-0.0222129 0.0604226 0.0769625 0 0 0 254 254 254
-0.241921 -0.0310357 0.0543178 0 0 0 206 218 237
-0.260048 0.0193091 0.0539121 0 0 0 68 84 174
-0.255239 -0.00163877 0.0256902 0 0 0 236 247 115
-0.244984 0.0458821 0.054522 0 0 0 250 252 251
-0.0539647 0.0607928 0.0766365 0 0 0 254 254 254
-0.253922 0.031547 0.0334971 0 0 0 52 74 173
-0.260233 0.0527772 0.0247869 0 0 0 232 237 244
-0.232599 0.0381876 0.0656727 0 0 0 44 50 109
-0.169743 0.0549122 0.0711908 0 0 0 250 253 253
-0.225062 0.0556504 0.0673319 0 0 0 250 252 252
-0.0948278 0.025744 0.074595 0 0 0 131 140 141
-0.0784666 0.0254547 0.0766442 0 0 0 149 127 35
-0.230404 0.0359392 0.0660948 0 0 0 60 55 88
-0.267517 -0.0293318 0.0177464 0 0 0 102 125 30
-0.259227 -0.0327276 0.0183822 0 0 0 164 181 44
-0.27578 0.0365435 0.0153431 0 0 0 148 149 158
-0.26654 0.0169547 0.0470891 0 0 0 50 65 155
-0.152673 0.0410142 0.0732834 0 0 0 132 71 58
-0.122615 0.0389957 0.0745091 0 0 0 68 85 117
-0.250821 -0.010045 0.0373171 0 0 0 233 237 65
-0.27578 0.0365435 0.0153431 0 0 0 148 149 158
-0.138868 -0.0268717 0.0752182 0 0 0 148 165 167
-0.14321 0.00748833 0.0761536 0 0 0 25 33 99
-0.121786 -0.0162447 0.0725591 0 0 0 165 169 172
-0.102051 -0.0244768 0.0724939 0 0 0 151 166 156
-0.0198336 -0.0238471 0.0749527 0 0 0 94 125 149
-0.0358173 -0.0120457 0.0764597 0 0 0 97 111 43
-0.254982 -0.0194431 0.0246402 0 0 0 14 36 141
-0.251839 -0.024006 0.0299099 0 0 0 39 59 155
-0.216485 0.0376855 0.0702827 0 0 0 83 99 123
-0.131095 0.0405658 0.0748238 0 0 0 38 10 81
-0.0237542 -0.0201912 0.0772864 0 0 0 77 111 75
-0.0682842 0.0473837 0.0773619 0 0 0 70 92 62
-0.238006 -0.00970305 0.0600596 0 0 0 9 17 80
-0.0801858 0.0442428 0.0735499 0 0 0 139 101 57
-0.215485 0.0127149 0.0688766 0 0 0 51 50 96
-0.0465975 -0.0292295 0.0744538 0 0 0 147 130 50
-0.245201 -0.0193656 0.0485807 0 0 0 75 88 31
-0.243698 0.0299696 0.0519484 0 0 0 215 232 248
-0.244222 0.030819 0.0529759 0 0 0 226 239 249
-0.123057 -0.00648164 0.0756267 0 0 0 34 58 111
-0.206052 -0.0113801 0.0717409 0 0 0 148 144 133
-0.239588 0.0042265 0.0606168 0 0 0 21 47 105
-0.138007 0.0283502 0.0731707 0 0 0 161 159 159
-0.0435724 0.0390208 0.0765536 0 0 0 76 92 32
-0.118348 0.0194352 0.074345 0 0 0 57 91 109
-0.186551 -0.028143 0.0701378 0 0 0 67 33 24
-0.242537 0.0248253 0.0579944 0 0 0 241 253 254
-0.180516 0.0395478 0.0708897 0 0 0 144 116 39
-0.181316 -0.0316788 0.0705498 0 0 0 107 109 48
-0.190323 -0.0293216 0.0690411 0 0 0 94 95 8
-0.161727 0.00662597 0.0732012 0 0 0 146 127 124
-0.0199719 0.00882934 0.0783954 0 0 0 127 150 114
-0.055366 0.0285866 0.0788294 0 0 0 78 91 32
-0.108393 -0.00784668 0.0744023 0 0 0 158 166 163
-0.222498 0.00856735 0.0683568 0 0 0 124 128 153
-0.0180384 -0.012583 0.0770438 0 0 0 125 141 86
-0.181755 0.0305002 0.0711107 0 0 0 132 115 67
-0.0719644 -0.0276613 0.0749897 0 0 0 153 139 74
-0.167312 -0.0176456 0.0724439 0 0 0 25 44 97
-0.210065 0.0230298 0.0687538 0 0 0 127 134 140
-0.229733 0.000274814 0.0655639 0 0 0 98 113 142
-0.0180002 0.0239939 0.0770013 0 0 0 131 146 88
-0.186803 0.0177683 0.0698151 0 0 0 69 89 10
-0.197402 0.0402519 0.0698009 0 0 0 136 91 35
-0.225314 0.000258706 0.0671214 0 0 0 101 119 132
-0.148284 -0.0144736 0.074839 0 0 0 48 73 129
-0.153836 0.0428363 0.0709849 0 0 0 132 67 65
-0.207341 0.00584598 0.0702549 0 0 0 148 146 145
-0.113121 0.00481462 0.0758916 0 0 0 146 158 176
-0.139536 -0.00333683 0.0738972 0 0 0 139 146 147
-0.203055 0.00856416 0.0706799 0 0 0 147 138 114
-0.155271 0.0188104 0.0729764 0 0 0 149 125 98
-0.11063 0.0294328 0.0750413 0 0 0 161 167 161
-0.0195049 0.0136524 0.0767597 0 0 0 123 139 78
-0.154786 0.00937511 0.0748547 0 0 0 155 151 142
-0.205095 0.00115146 0.0703529 0 0 0 131 123 121
-0.236561 0.00866341 0.0628893 0 0 0 33 47 129
-0.0604301 0.0255805 0.0775863 0 0 0 62 83 33
-0.0294487 -0.00563068 0.0752651 0 0 0 45 63 33
-0.139099 0.049121 0.073843 0 0 0 190 197 219
-0.220455 -0.0246443 0.0681474 0 0 0 13 23 78
-0.101957 0.0276705 0.0748893 0 0 0 156 165 172
-0.127547 0.0517952 0.0743967 0 0 0 243 254 254
-0.274035 0.0536527 0.0196969 0 0 0 113 108 109
-0.208814 0.047096 0.0708421 0 0 0 246 253 253
-0.194796 0.000384665 0.071972 0 0 0 118 103 13
-0.100098 0.0221482 0.0758951 0 0 0 147 162 177
-0.0758231 0.0320871 0.0788712 0 0 0 144 122 49
-0.269961 0.0309932 0.0202856 0 0 0 112 127 16
-0.10427 0.0194803 0.0741729 0 0 0 154 163 162
-0.205269 -0.0243339 0.0705389 0 0 0 25 34 85
-0.227394 -0.0239124 0.0684493 0 0 0 12 24 80
-0.0718536 -0.00229971 0.0789804 0 0 0 154 134 86
-0.267088 0.00421881 0.0176295 0 0 0 133 148 12
-0.267073 0.00769873 0.0181771 0 0 0 145 164 9
-0.166503 0.00424503 0.0709212 0 0 0 149 138 94
-0.0688288 -0.00985647 0.0765773 0 0 0 153 128 71
-0.173308 0.012465 0.0710827 0 0 0 130 63 40
-0.194257 0.0365769 0.0709495 0 0 0 137 109 28
-0.156743 -0.0073281 0.0746084 0 0 0 137 131 126
-0.0411292 0.0130345 0.077848 0 0 0 70 88 32
