ply
format ascii 1.0
element vertex 125
property float x
property float y
property float z
property float nx
property float ny
property float nz
property uchar diffuse_red
property uchar diffuse_green
property uchar diffuse_blue
end_header
-0.020874 0.0577738 0.080606 0 0 0 254 254 254
-0.0268323 0.0575229 0.0804216 0 0 0 254 254 254
-0.273399 0.0519677 0.0239342 0 0 0 217 222 224
-0.268821 0.0499681 0.0238169 0 0 0 218 224 225
-0.242544 -0.0306371 0.0609638 0 0 0 176 198 224
-0.257994 -0.00370161 0.0337693 0 0 0 217 215 66
-0.261877 0.0220684 0.0580405 0 0 0 46 63 132
-0.253842 0.0299682 0.0391243 0 0 0 42 59 138
-0.107781 0.0550652 0.0789901 0 0 0 254 254 247
-0.244918 0.0445647 0.0599007 0 0 0 223 231 233
-0.234019 0.0374233 0.0720049 0 0 0 35 45 86
-0.0675788 0.0568125 0.0802283 0 0 0 254 254 254
-0.228352 0.0338237 0.0740691 0 0 0 67 77 85
-0.256708 0.000683046 0.0692702 0 0 0 229 224 113
-0.267255 -0.0286447 0.024938 0 0 0 104 112 35
-0.274218 -0.0299252 0.0222189 0 0 0 138 136 122
-0.251617 0.00926122 0.0727877 0 0 0 190 209 219
-0.260923 -0.0326667 0.0275723 0 0 0 137 148 50
-0.157555 0.0391796 0.0801853 0 0 0 125 58 41
-0.124403 0.0360918 0.0780354 0 0 0 76 98 109
-0.250787 -0.0130246 0.0475512 0 0 0 217 211 61
-0.225674 0.0263112 0.0740101 0 0 0 46 51 80
-0.260706 0.00309738 0.0630259 0 0 0 214 214 83
-0.258533 0.0364982 0.0300972 0 0 0 32 51 126
-0.24882 -0.0118771 0.0524284 0 0 0 225 224 80
-0.126968 -0.0175307 0.0806992 0 0 0 153 151 150
-0.244358 0.0305777 0.0595304 0 0 0 223 235 238
-0.242201 0.000813618 0.0678773 0 0 0 88 95 32
-0.268307 0.0145622 0.0492178 0 0 0 20 42 123
-0.232555 0.0538207 0.0719258 0 0 0 225 229 230
-0.140112 -0.0264988 0.0805487 0 0 0 148 148 137
-0.144998 0.00624984 0.0812471 0 0 0 36 38 77
-0.0188602 -0.0205139 0.0808133 0 0 0 112 125 65
-0.107677 -0.0263521 0.0796386 0 0 0 138 148 136
-0.0357197 -0.0135539 0.0811114 0 0 0 37 58 39
-0.0220913 -0.0180622 0.0823012 0 0 0 117 129 74
-0.0808684 0.0398785 0.0786235 0 0 0 118 92 54
-0.276481 0.0340348 0.0208066 0 0 0 136 140 122
-0.241479 0.018001 0.0672137 0 0 0 41 50 150
-0.0489486 -0.00699139 0.0820423 0 0 0 126 90 23
-0.256723 -0.0209809 0.0335402 0 0 0 13 32 110
-0.217697 0.0378936 0.0766081 0 0 0 65 70 94
-0.0569628 0.0347907 0.0812214 0 0 0 76 86 30
-0.126098 -0.00678174 0.080514 0 0 0 47 62 93
-0.135012 0.0378397 0.0792951 0 0 0 21 21 74
-0.0725604 0.0436097 0.0802452 0 0 0 63 86 51
-0.24265 0.029886 0.0624576 0 0 0 217 237 250
-0.252173 -0.0270304 0.0425109 0 0 0 29 51 128
-0.189291 -0.0295864 0.0774389 0 0 0 90 73 50
-0.192898 -0.0327563 0.0776387 0 0 0 126 103 23
-0.112521 -0.0296079 0.0786331 0 0 0 107 129 137
-0.219162 0.0124378 0.0779879 0 0 0 40 39 72
-0.254114 -0.0261687 0.0379897 0 0 0 25 48 123
-0.27404 -0.00662685 0.0234374 0 0 0 160 157 129
-0.0470613 0.040546 0.0805176 0 0 0 80 90 51
-0.238838 -0.0132023 0.0688024 0 0 0 18 25 59
-0.228507 0.0110701 0.0743602 0 0 0 58 75 102
-0.208772 -0.0118646 0.079785 0 0 0 133 131 118
-0.124301 0.0172338 0.0806135 0 0 0 58 89 119
-0.262327 0.022867 0.0269939 0 0 0 143 162 46
-0.0676656 0.0240408 0.0817279 0 0 0 58 77 32
-0.13727 0.00957571 0.0822441 0 0 0 68 102 115
-0.247088 -0.00506362 0.0608084 0 0 0 214 218 83
-0.145706 0.0266631 0.0797405 0 0 0 144 144 127
-0.18424 0.037623 0.0780106 0 0 0 136 103 35
-0.240771 0.0551528 0.0656367 0 0 0 226 230 229
-0.14407 0.0251834 0.08107 0 0 0 149 146 129
-0.114374 -0.00959554 0.0815482 0 0 0 147 151 137
-0.166694 0.00514015 0.0811517 0 0 0 137 119 109
-0.120447 0.002471 0.0818875 0 0 0 127 142 144
-0.143465 -0.00342237 0.0825255 0 0 0 109 112 120
-0.0525593 -0.0260603 0.0810136 0 0 0 136 109 18
-0.213531 0.0212392 0.07787 0 0 0 121 126 127
-0.170042 -0.0184091 0.0796362 0 0 0 32 48 86
-0.205873 0.00686715 0.0786754 0 0 0 141 131 117
-0.237813 0.00766811 0.0704355 0 0 0 25 41 102
-0.0814457 0.0510435 0.0799091 0 0 0 251 254 254
-0.110397 -0.0110424 0.082341 0 0 0 139 147 143
-0.150541 -0.0146006 0.0808611 0 0 0 47 61 95
-0.114974 0.0260874 0.0798684 0 0 0 148 154 140
-0.210136 0.00474547 0.0784166 0 0 0 137 135 121
-0.232628 -0.00192125 0.0752402 0 0 0 100 112 115
-0.105638 0.0264645 0.0791307 0 0 0 145 152 135
-0.200748 0.0382594 0.0776033 0 0 0 130 91 32
-0.22838 -0.00120706 0.0766501 0 0 0 75 97 120
-0.157815 0.00874335 0.0805065 0 0 0 144 139 122
-0.184404 0.026386 0.077397 0 0 0 140 136 25
-0.135158 -0.00457578 0.0819423 0 0 0 65 69 82
-0.158518 0.018156 0.0799842 0 0 0 139 111 69
-0.13109 0.0488941 0.0793027 0 0 0 232 237 239
-0.210228 0.00160742 0.0778107 0 0 0 119 115 112
-0.269419 0.0377662 0.0240242 0 0 0 99 116 17
-0.209944 0.0447862 0.076819 0 0 0 212 230 233
-0.109465 0.0173283 0.0809297 0 0 0 145 152 143
-0.0668318 0.0213939 0.0820937 0 0 0 50 75 9
-0.105657 0.0201886 0.0794751 0 0 0 149 151 144
-0.191586 0.0158384 0.0785297 0 0 0 65 85 17
-0.268738 0.0344556 0.0241339 0 0 0 98 113 7
-0.264418 0.00502554 0.0541829 0 0 0 218 217 96
-0.172854 -0.013969 0.0804582 0 0 0 35 46 88
-0.241827 -0.00616035 0.0656901 0 0 0 115 112 14
-0.185154 0.01717 0.0779503 0 0 0 98 100 34
-0.0768244 -0.00412229 0.0822461 0 0 0 145 129 75
-0.184452 0.0137594 0.0780633 0 0 0 110 108 28
-0.264466 0.0104078 0.053626 0 0 0 240 238 103
-0.0235189 0.0399506 0.080712 0 0 0 126 143 95
-0.268607 0.0298832 0.0249031 0 0 0 97 111 6
-0.206307 -0.0234151 0.0774567 0 0 0 17 29 69
-0.195999 -0.00435645 0.0793378 0 0 0 77 77 30
-0.227836 -0.00852952 0.0759665 0 0 0 76 94 114
-0.0742951 0.000810189 0.0826981 0 0 0 147 133 88
-0.0714272 -0.0242184 0.0813301 0 0 0 130 97 12
-0.222351 -0.0184282 0.0768171 0 0 0 12 20 64
-0.197328 -0.00116579 0.0799828 0 0 0 96 86 21
-0.0356088 -0.00976581 0.0818428 0 0 0 54 71 43
-0.267888 0.00150676 0.0251079 0 0 0 121 131 11
-0.191536 0.045703 0.0765153 0 0 0 213 233 230
-0.221499 0.0285396 0.0742015 0 0 0 73 83 92
-0.267029 0.00447348 0.0264244 0 0 0 135 153 56
-0.170659 0.00346061 0.0784562 0 0 0 142 134 85
-0.0856813 -0.0129894 0.0834417 0 0 0 150 136 82
-0.255837 0.0497212 0.0390648 0 0 0 223 228 229
-0.161681 -0.00861022 0.080912 0 0 0 126 113 108
-0.188801 0.0183772 0.0774351 0 0 0 79 83 24
-0.0840573 -0.0130543 0.0835961 0 0 0 146 130 72
