ply
format ascii 1.0
element vertex 117
property float x
property float y
property float z
property float nx
property float ny
property float nz
property uchar diffuse_red
property uchar diffuse_green
property uchar diffuse_blue
end_header
-0.0203485 0.061408 0.0763904 0 0 0 254 254 254
-0.260183 0.00133648 0.026806 0 0 0 246 254 96
-0.261603 0.023724 0.0574804 0 0 0 49 70 161
-0.266779 0.0556422 0.0241601 0 0 0 222 227 239
-0.0997494 0.0566178 0.0734389 0 0 0 254 254 254
-0.243163 -0.0294191 0.0590787 0 0 0 101 129 199
-0.254672 0.0340668 0.0370841 0 0 0 44 67 164
-0.233105 0.0403633 0.0679052 0 0 0 46 49 94
-0.140868 0.0597905 0.0744488 0 0 0 250 252 253
-0.100109 0.0266467 0.0766116 0 0 0 143 151 151
-0.0755606 0.0266325 0.0793458 0 0 0 140 125 6
-0.24317 0.0476643 0.061521 0 0 0 236 251 248
-0.0460873 0.0612392 0.0780513 0 0 0 254 254 254
-0.258443 0.0576921 0.0350682 0 0 0 249 251 253
-0.233355 0.0561621 0.0701232 0 0 0 250 252 252
-0.201955 0.0557594 0.0724651 0 0 0 251 254 253
-0.233355 0.0561621 0.0701232 0 0 0 250 252 252
-0.268379 -0.0250133 0.0199347 0 0 0 103 131 37
-0.201056 0.0580401 0.0734826 0 0 0 251 253 252
-0.155031 0.0426622 0.0763514 0 0 0 135 71 50
-0.262096 -0.0301258 0.0242273 0 0 0 146 172 18
-0.251826 -0.0104299 0.0451216 0 0 0 239 243 59
-0.258821 0.00947621 0.0619576 0 0 0 243 250 127
-0.122856 0.0405275 0.0765451 0 0 0 81 111 138
-0.266352 0.0213352 0.0499894 0 0 0 42 60 154
-0.103703 -0.0235156 0.0753146 0 0 0 146 156 155
-0.15248 -0.0284649 0.0753649 0 0 0 139 150 151
-0.142201 0.0107617 0.0767841 0 0 0 18 39 102
-0.259804 0.0412313 0.0284862 0 0 0 42 59 149
-0.266037 0.0200537 0.0446558 0 0 0 35 55 145
-0.125261 -0.0140547 0.0774765 0 0 0 166 172 160
-0.256813 -0.0178449 0.0301252 0 0 0 29 46 136
-0.137916 -0.023151 0.0758205 0 0 0 155 164 167
-0.146315 -0.025893 0.0759028 0 0 0 118 147 153
-0.0223775 -0.0187628 0.0759479 0 0 0 91 119 99
-0.0644075 0.0609063 0.0771053 0 0 0 254 254 254
-0.0372859 -0.0123485 0.0773441 0 0 0 97 106 31
-0.215838 0.0415175 0.0706712 0 0 0 77 81 116
-0.225584 0.0275058 0.071472 0 0 0 117 145 147
-0.072255 -0.0269139 0.0761132 0 0 0 154 145 95
-0.216322 0.0151287 0.0725801 0 0 0 50 43 95
-0.0865913 0.0480382 0.0757663 0 0 0 127 102 105
-0.130666 0.04248 0.0761231 0 0 0 41 18 87
-0.125341 -0.0036559 0.0767173 0 0 0 69 102 125
-0.0800772 0.0444914 0.0762243 0 0 0 141 104 61
-0.0686773 0.0482578 0.0763149 0 0 0 72 95 67
-0.166888 0.051051 0.0724846 0 0 0 241 253 235
-0.254719 -0.0234214 0.0373054 0 0 0 36 56 150
-0.114405 -0.0110052 0.0769969 0 0 0 62 90 160
-0.19088 -0.0299961 0.0717275 0 0 0 129 110 36
-0.275702 0.0138437 0.0169323 0 0 0 161 159 137
-0.0547642 0.0356595 0.0763196 0 0 0 76 92 22
-0.23892 -0.00970644 0.0672586 0 0 0 15 32 89
-0.188495 -0.0264779 0.0728656 0 0 0 69 56 51
-0.179538 0.042373 0.0722496 0 0 0 141 106 35
-0.206301 -0.00808053 0.0736819 0 0 0 145 140 139
-0.0454443 0.0418161 0.0773517 0 0 0 79 96 37
-0.263415 0.0287419 0.0241761 0 0 0 159 182 45
-0.239193 0.00671469 0.0653348 0 0 0 21 36 111
-0.0394851 0.0478502 0.077927 0 0 0 90 101 52
-0.243106 0.0347807 0.0620969 0 0 0 214 238 250
-0.13994 0.030124 0.076102 0 0 0 160 161 154
-0.134404 0.0136732 0.0775227 0 0 0 84 115 132
-0.142372 0.0313629 0.075241 0 0 0 157 158 155
-0.0181605 0.0129478 0.075205 0 0 0 124 141 82
-0.0662261 -0.024297 0.0779108 0 0 0 152 125 40
-0.163559 0.0084091 0.0755619 0 0 0 148 137 133
-0.244584 -0.000519111 0.0582877 0 0 0 140 137 16
-0.0491683 -0.0223178 0.0763704 0 0 0 151 129 29
-0.182987 0.0319324 0.073783 0 0 0 143 129 47
-0.211919 0.0247724 0.0732945 0 0 0 126 133 142
-0.168835 -0.0153513 0.0758278 0 0 0 30 45 95
-0.24836 -0.00908591 0.0526982 0 0 0 200 224 115
-0.111144 -0.00705879 0.0776171 0 0 0 159 164 159
-0.225584 0.0122752 0.0718276 0 0 0 92 99 126
-0.244987 -0.00598632 0.0561428 0 0 0 130 141 50
-0.078913 0.055088 0.078059 0 0 0 230 250 254
-0.147841 -0.0107885 0.0754634 0 0 0 48 72 131
-0.232109 0.00281019 0.0704767 0 0 0 105 123 152
-0.110609 0.0313815 0.0751863 0 0 0 160 169 159
-0.139691 -0.000771241 0.0784091 0 0 0 146 146 154
-0.208269 0.00828857 0.0742914 0 0 0 151 145 151
-0.112749 0.00730909 0.0770515 0 0 0 153 161 171
-0.115957 0.00589138 0.0766527 0 0 0 114 148 162
-0.20337 0.0110931 0.0736311 0 0 0 148 135 125
-0.15504 0.0124223 0.0770683 0 0 0 156 152 136
-0.228271 0.00150881 0.0726823 0 0 0 95 114 135
-0.156667 0.0212403 0.0761052 0 0 0 148 124 87
-0.242385 0.0289915 0.062396 0 0 0 158 209 251
-0.206086 0.00361749 0.0746812 0 0 0 130 119 115
-0.199066 0.041534 0.0728851 0 0 0 136 90 21
-0.207781 0.049218 0.0719837 0 0 0 246 246 242
-0.0315673 -0.00636347 0.076298 0 0 0 41 61 9
-0.185185 0.0244003 0.073939 0 0 0 99 92 27
-0.196065 0.00302081 0.074541 0 0 0 127 76 30
-0.186715 0.0206943 0.0736074 0 0 0 85 96 11
-0.102599 0.0305696 0.0758771 0 0 0 155 157 167
-0.208887 0.00577949 0.0749152 0 0 0 141 145 156
-0.182937 0.0196163 0.0743837 0 0 0 102 105 12
-0.125424 -0.0229467 0.0767168 0 0 0 60 73 122
-0.0641841 0.0261408 0.0791253 0 0 0 56 83 44
-0.101104 0.0241248 0.0754865 0 0 0 159 167 164
-0.105712 0.0209873 0.0764033 0 0 0 157 165 169
-0.0700702 0.00128262 0.078732 0 0 0 155 132 80
-0.206292 -0.02233 0.0741121 0 0 0 23 32 82
-0.19258 0.00334818 0.0737437 0 0 0 59 87 14
-0.227038 -0.0215214 0.0723048 0 0 0 14 24 77
-0.159638 -0.00526964 0.0770081 0 0 0 136 119 128
-0.268642 0.00639916 0.0218113 0 0 0 135 150 2
-0.0246804 0.022339 0.0765245 0 0 0 116 142 158
-0.221934 -0.0157143 0.073431 0 0 0 16 26 82
-0.170191 0.00669971 0.0760214 0 0 0 150 138 64
-0.042956 0.013912 0.0778472 0 0 0 70 90 26
-0.17416 0.0153764 0.0741902 0 0 0 128 62 46
-0.246853 -0.0172538 0.0535904 0 0 0 68 74 58
-0.204768 0.0277197 0.0734167 0 0 0 139 106 72
-0.183644 -0.00122008 0.0750681 0 0 0 126 113 60
