ply
format ascii 1.0
element vertex 104
property float x
property float y
property float z
property float nx
property float ny
property float nz
property uchar diffuse_red
property uchar diffuse_green
property uchar diffuse_blue
end_header
-0.0185802 0.0581542 0.0731711 0 0 0 252 254 254
-0.257804 -0.00298477 0.025481 0 0 0 205 204 10
-0.162703 0.0568139 0.0732022 0 0 0 245 247 248
-0.235518 0.0544057 0.0676753 0 0 0 231 235 235
-0.235007 0.0533653 0.0667735 0 0 0 236 240 232
-0.104094 0.025089 0.0746371 0 0 0 151 156 132
-0.0805693 0.0257578 0.076231 0 0 0 138 115 4
-0.102669 0.0521891 0.0734711 0 0 0 193 205 217
-0.233324 0.0398409 0.0668683 0 0 0 34 36 85
-0.186653 0.0567768 0.0712127 0 0 0 225 229 231
-0.243522 -0.0292013 0.0552496 0 0 0 103 111 155
-0.150464 -0.0288999 0.0716266 0 0 0 139 141 136
-0.270589 -0.0249399 0.018712 0 0 0 118 131 63
-0.242386 -0.0281454 0.057707 0 0 0 60 92 153
-0.124501 0.0396053 0.0719956 0 0 0 57 75 108
-0.155648 0.043484 0.0728704 0 0 0 127 58 35
-0.144121 0.011214 0.0752208 0 0 0 31 23 62
-0.125044 -0.0133771 0.0737662 0 0 0 154 153 141
-0.138541 -0.0224317 0.0733168 0 0 0 147 148 131
-0.261325 -0.0303315 0.0219132 0 0 0 144 155 25
-0.267571 0.0184062 0.0453322 0 0 0 29 35 117
-0.225274 0.0349789 0.0703035 0 0 0 47 49 97
-0.0818383 0.0429258 0.0751839 0 0 0 112 85 24
-0.103016 -0.0212326 0.0752464 0 0 0 135 135 119
-0.258007 -0.0213546 0.0306291 0 0 0 13 32 114
-0.271633 0.0493508 0.0197577 0 0 0 85 96 98
-0.180124 0.0447759 0.0731468 0 0 0 134 100 38
-0.195022 0.0497631 0.0701225 0 0 0 193 205 208
-0.105255 -0.0197995 0.0758953 0 0 0 142 148 131
-0.035026 -0.0122558 0.0735215 0 0 0 67 71 4
-0.127809 -0.00317124 0.0739952 0 0 0 77 117 141
-0.193394 -0.0277028 0.0723523 0 0 0 124 105 13
-0.270891 0.0470097 0.0204376 0 0 0 98 99 101
-0.197225 0.0521597 0.0694387 0 0 0 219 232 232
-0.255575 -0.0260738 0.0370124 0 0 0 22 41 123
-0.276561 -0.0164658 0.0145213 0 0 0 149 151 137
-0.216233 0.0154413 0.0690414 0 0 0 45 36 77
-0.058365 0.0347322 0.0752753 0 0 0 64 82 17
-0.0713187 0.0469394 0.0741514 0 0 0 54 79 37
-0.240222 0.0447805 0.0617712 0 0 0 161 167 190
-0.262528 0.0273114 0.0212859 0 0 0 150 163 37
-0.0717119 0.0363448 0.0736865 0 0 0 116 90 11
-0.263896 0.0261972 0.0213588 0 0 0 133 144 28
-0.203591 0.050898 0.0702917 0 0 0 211 222 226
-0.0190104 0.024373 0.0765935 0 0 0 122 136 86
-0.188957 -0.0257278 0.0724341 0 0 0 86 66 28
-0.277011 0.0415921 0.0173598 0 0 0 139 138 111
-0.206404 -0.00699821 0.0726262 0 0 0 137 135 116
-0.0436203 0.0415514 0.0727563 0 0 0 74 86 13
-0.237927 -0.0105035 0.0648269 0 0 0 14 28 67
-0.140205 0.0298012 0.0722064 0 0 0 150 146 127
-0.142993 0.0309972 0.0737103 0 0 0 148 143 125
-0.14739 -0.0180966 0.0746251 0 0 0 81 87 113
-0.0201957 -0.00757242 0.0751916 0 0 0 121 132 67
-0.0489206 -0.0236688 0.0726759 0 0 0 141 119 34
-0.132383 0.0245381 0.0740466 0 0 0 65 79 94
-0.207988 0.0474239 0.0702343 0 0 0 164 163 153
-0.137182 0.0521339 0.0725077 0 0 0 216 229 241
-0.124698 0.0205531 0.0743928 0 0 0 36 67 105
-0.185263 0.0412056 0.0737636 0 0 0 139 111 21
-0.163997 0.0084106 0.0743036 0 0 0 139 120 118
-0.069172 0.026848 0.0760019 0 0 0 74 89 31
-0.248894 0.0388113 0.0521507 0 0 0 34 53 136
-0.110509 -0.00667913 0.0751745 0 0 0 152 151 135
-0.242224 0.0348191 0.0597922 0 0 0 102 130 167
-0.212536 0.0254582 0.0726222 0 0 0 121 126 122
-0.260934 0.0386043 0.024267 0 0 0 24 41 112
-0.168664 -0.0129698 0.0724578 0 0 0 31 46 87
-0.1133 0.0290634 0.0756055 0 0 0 152 155 136
-0.131774 0.0233186 0.0732349 0 0 0 61 69 107
-0.147365 -0.0107124 0.0733391 0 0 0 45 61 94
-0.231439 0.00252841 0.0683198 0 0 0 91 109 125
-0.22701 0.00338339 0.06976 0 0 0 80 101 106
-0.256278 0.0525943 0.0356676 0 0 0 99 110 111
-0.138613 -9.65394e-05 0.0734463 0 0 0 121 125 121
-0.119323 0.00639987 0.0765934 0 0 0 138 138 150
-0.273086 0.0231468 0.0195292 0 0 0 125 138 29
-0.185612 0.0317966 0.0733507 0 0 0 135 121 54
-0.205134 0.0114016 0.0726127 0 0 0 137 124 101
-0.155011 0.0129447 0.0732028 0 0 0 146 141 118
-0.206311 0.00225583 0.0714195 0 0 0 103 89 83
-0.207143 0.00929958 0.0693201 0 0 0 135 130 117
-0.237402 0.0108303 0.064136 0 0 0 21 39 101
-0.205702 -0.0197308 0.0704256 0 0 0 13 25 70
-0.0700566 0.0030101 0.0749559 0 0 0 145 125 77
-0.199599 0.042776 0.0698638 0 0 0 133 95 36
-0.0240753 0.00932565 0.0744272 0 0 0 114 127 111
-0.255537 0.0224656 0.0677415 0 0 0 34 53 129
-0.159578 0.0226873 0.0758532 0 0 0 139 112 84
-0.180953 -0.0240151 0.0717561 0 0 0 120 105 10
-0.0338266 -0.00684667 0.0747023 0 0 0 39 59 30
-0.195405 0.00283561 0.0720974 0 0 0 103 92 31
-0.0676188 -0.0143729 0.0729782 0 0 0 133 104 22
-0.0239436 -0.0143005 0.0743429 0 0 0 106 127 92
-0.0441037 0.0552524 0.0724206 0 0 0 201 217 239
-0.108169 0.0200537 0.0748705 0 0 0 146 151 135
-0.277144 0.00295381 0.0155176 0 0 0 157 153 117
-0.189277 0.0211857 0.0752971 0 0 0 76 87 19
-0.186453 0.0187538 0.0751923 0 0 0 117 103 15
-0.105545 0.0224814 0.0759946 0 0 0 147 155 138
-0.267687 0.00462816 0.0189635 0 0 0 123 135 3
-0.193364 0.00275569 0.071274 0 0 0 81 81 39
-0.160563 -0.00385626 0.0746884 0 0 0 132 116 111
-0.270087 0.0333313 0.0197011 0 0 0 96 110 2
