ply
format ascii 1.0
element vertex 96
property float x
property float y
property float z
property float nx
property float ny
property float nz
property uchar diffuse_red
property uchar diffuse_green
property uchar diffuse_blue
end_header
-0.0229078 0.0601006 0.0774433 0 0 0 254 254 254
-0.241466 -0.0307955 0.0540277 0 0 0 210 220 236
-0.260115 0.0193521 0.0545754 0 0 0 69 85 177
-0.256255 -0.00144601 0.0255114 0 0 0 240 251 109
-0.245042 0.0459205 0.0551478 0 0 0 250 252 251
-0.25406 0.0316017 0.0341463 0 0 0 49 74 169
-0.0522438 0.0609001 0.0768575 0 0 0 254 254 254
-0.260397 0.0528394 0.0254729 0 0 0 233 238 244
-0.232073 0.038529 0.0654208 0 0 0 46 47 109
-0.0798231 0.0249286 0.0780446 0 0 0 149 128 45
-0.0931934 0.0258335 0.0748686 0 0 0 137 153 147
-0.230422 0.035966 0.066661 0 0 0 57 57 91
-0.267729 -0.0292629 0.0184052 0 0 0 101 126 33
-0.17123 0.0547394 0.0714602 0 0 0 250 252 253
-0.246963 0.0558436 0.0533509 0 0 0 253 254 253
-0.275976 0.0377742 0.0162582 0 0 0 153 156 163
-0.266633 0.017004 0.0477746 0 0 0 50 67 156
-0.259432 -0.0314997 0.0191922 0 0 0 173 190 77
-0.152664 0.0410147 0.0735695 0 0 0 131 70 57
-0.122603 0.0389871 0.0746844 0 0 0 65 86 125
-0.275982 0.0366162 0.0160753 0 0 0 152 152 159
-0.250443 -0.00975961 0.0370567 0 0 0 236 241 99
-0.1432 0.00748437 0.0763834 0 0 0 34 21 96
-0.224931 0.025117 0.0690158 0 0 0 119 142 120
-0.257439 0.0387172 0.0248227 0 0 0 45 64 158
-0.123106 -0.016657 0.0741675 0 0 0 166 168 167
-0.138871 -0.0268762 0.0754096 0 0 0 148 166 156
-0.0358196 -0.0134632 0.0760667 0 0 0 113 111 38
-0.255669 -0.0195992 0.0261442 0 0 0 14 43 146
-0.0198376 -0.0238844 0.0747123 0 0 0 94 126 147
-0.101797 -0.0248241 0.0741792 0 0 0 131 151 174
-0.251496 -0.0237393 0.0296363 0 0 0 39 62 154
-0.216487 0.0377057 0.0707992 0 0 0 83 96 127
-0.238059 -0.00967017 0.0606235 0 0 0 7 18 81
-0.131731 0.0390035 0.0755654 0 0 0 79 57 92
-0.146561 -0.0271264 0.0748426 0 0 0 136 150 159
-0.0682592 0.0473582 0.0773447 0 0 0 69 93 63
-0.0815376 0.0436686 0.0749716 0 0 0 139 101 71
-0.239634 0.00425946 0.0611956 0 0 0 36 48 108
-0.215499 0.0127358 0.0693731 0 0 0 49 43 97
-0.077561 0.0428524 0.0745342 0 0 0 134 106 60
-0.244283 0.0320068 0.0537706 0 0 0 238 243 251
-0.187432 -0.0279954 0.0696728 0 0 0 59 24 7
-0.123053 -0.00649083 0.0757738 0 0 0 33 57 110
-0.245826 -0.0195438 0.0500242 0 0 0 68 92 42
-0.125296 0.0560918 0.0746372 0 0 0 248 252 252
-0.0435527 0.038989 0.0764409 0 0 0 78 92 34
-0.138002 0.0283468 0.0733951 0 0 0 161 158 153
-0.206063 -0.0113638 0.0721873 0 0 0 147 145 138
-0.118341 0.0194255 0.074492 0 0 0 49 88 108
-0.241761 0.0247306 0.0593941 0 0 0 213 232 253
-0.180516 0.0395576 0.0712764 0 0 0 142 115 48
-0.0790118 -0.0282948 0.0763685 0 0 0 140 146 114
-0.180128 -0.0312855 0.0693175 0 0 0 105 108 45
-0.161728 0.0066291 0.0734978 0 0 0 145 127 119
-0.055341 0.0285565 0.0787528 0 0 0 78 92 30
-0.108394 -0.00785912 0.0744951 0 0 0 157 166 163
-0.221122 0.00872337 0.0688601 0 0 0 126 134 151
-0.18056 0.0310834 0.0699374 0 0 0 131 115 71
-0.210077 0.0230493 0.0692373 0 0 0 128 133 141
-0.229769 -0.000843026 0.0659234 0 0 0 111 120 145
-0.167323 -0.0176404 0.0727449 0 0 0 25 44 95
-0.197406 0.0402672 0.0702496 0 0 0 134 90 37
-0.207353 0.00586369 0.0707173 0 0 0 148 147 144
-0.148919 -0.0146865 0.0758277 0 0 0 46 72 128
-0.225344 -0.00086514 0.0674641 0 0 0 93 120 130
-0.113113 0.00480249 0.0760098 0 0 0 148 157 180
-0.139537 -0.00334031 0.0741065 0 0 0 141 146 144
-0.202484 0.00883966 0.0703273 0 0 0 146 135 123
-0.155894 0.0185501 0.0740151 0 0 0 147 126 104
-0.15478 0.00937522 0.0751278 0 0 0 153 151 139
-0.110618 0.0294205 0.0751667 0 0 0 159 166 161
-0.186813 0.0177806 0.0702104 0 0 0 68 90 8
-0.0604175 0.0241954 0.0773117 0 0 0 62 83 16
-0.0294464 -0.00566561 0.0750717 0 0 0 40 67 31
-0.153557 0.0424009 0.0728988 0 0 0 132 67 54
-0.208241 0.0474346 0.070536 0 0 0 249 253 253
-0.101946 0.027656 0.0749818 0 0 0 155 166 174
-0.1369 0.049576 0.0734868 0 0 0 198 217 221
-0.222435 -0.0237681 0.0696676 0 0 0 13 24 82
-0.194803 0.000397763 0.072385 0 0 0 117 103 14
-0.0246707 0.023255 0.0771407 0 0 0 123 139 146
-0.100085 0.0221324 0.0759773 0 0 0 146 164 172
-0.270147 0.031061 0.0209929 0 0 0 114 130 3
-0.205287 -0.024317 0.0709738 0 0 0 24 32 87
-0.0711409 -0.00211244 0.0782495 0 0 0 156 134 85
-0.103598 0.0197164 0.0735506 0 0 0 154 163 158
-0.190124 0.0483103 0.0716044 0 0 0 248 253 254
-0.267273 0.00776714 0.0188586 0 0 0 147 164 6
-0.195113 0.0379181 0.0707419 0 0 0 137 92 35
-0.267298 0.00312772 0.0181256 0 0 0 138 154 1
-0.167742 0.00376572 0.0727739 0 0 0 146 138 85
-0.173315 0.0124727 0.0714253 0 0 0 129 62 37
-0.156743 -0.00732728 0.0748778 0 0 0 138 129 124
-0.0411122 0.0130011 0.0777094 0 0 0 69 90 33
-0.0791883 -0.0107374 0.0774633 0 0 0 153 141 95
