ply
format ascii 1.0
element vertex 110
property float x
property float y
property float z
property float nx
property float ny
property float nz
property uchar diffuse_red
property uchar diffuse_green
property uchar diffuse_blue
end_header
-0.0200877 0.0614413 0.0761711 0 0 0 254 254 254
-0.258685 0.000601489 0.0294048 0 0 0 232 241 90
-0.264405 0.0553173 0.0249597 0 0 0 228 235 239
-0.259975 0.0234508 0.0574655 0 0 0 55 71 164
-0.138142 0.0596688 0.075362 0 0 0 250 252 252
-0.231698 0.0571356 0.0702225 0 0 0 250 252 253
-0.254412 0.0336739 0.0371714 0 0 0 44 66 166
-0.23336 0.0397763 0.0688132 0 0 0 44 50 99
-0.24221 -0.0285292 0.0583809 0 0 0 112 141 210
-0.110382 0.0604389 0.0742568 0 0 0 252 253 254
-0.0992194 0.054872 0.0748479 0 0 0 254 254 254
-0.099785 0.0265355 0.0764974 0 0 0 141 151 147
-0.0752327 0.0265658 0.0791996 0 0 0 140 127 4
-0.0458239 0.061226 0.0778655 0 0 0 254 254 254
-0.273717 -0.0288602 0.0185259 0 0 0 151 155 147
-0.25907 0.0573745 0.0343612 0 0 0 248 253 252
-0.242884 0.0484364 0.0616905 0 0 0 243 254 254
-0.268876 -0.0253492 0.0192431 0 0 0 110 138 34
-0.203122 0.0552951 0.0724861 0 0 0 250 252 252
-0.154736 0.0424513 0.0763084 0 0 0 135 69 35
-0.0919792 0.0595968 0.0751732 0 0 0 254 254 254
-0.262206 -0.0294881 0.0253345 0 0 0 150 172 25
-0.121906 0.0405855 0.0757116 0 0 0 84 111 138
-0.102643 -0.0248221 0.0743571 0 0 0 134 146 140
-0.141847 0.0105742 0.0767253 0 0 0 18 38 104
-0.26006 0.0405971 0.0294794 0 0 0 38 59 151
-0.152058 -0.028671 0.0753207 0 0 0 140 147 148
-0.267227 0.0190317 0.047452 0 0 0 34 54 142
-0.124861 -0.0142114 0.0773963 0 0 0 164 166 169
-0.137502 -0.0233307 0.0757572 0 0 0 159 162 164
-0.256967 -0.0183779 0.0311166 0 0 0 24 44 137
-0.0835385 -0.0101588 0.0784061 0 0 0 146 144 122
-0.0368668 -0.0109597 0.0772674 0 0 0 81 104 29
-0.215548 0.0411961 0.0707075 0 0 0 76 81 121
-0.225803 0.0281035 0.0724601 0 0 0 101 108 117
-0.0234973 -0.0231659 0.0767381 0 0 0 94 126 122
-0.145897 -0.026088 0.0758504 0 0 0 122 145 176
-0.0484807 -0.00588672 0.0775954 0 0 0 136 101 42
-0.167223 0.0505831 0.0732427 0 0 0 240 253 235
-0.275393 0.0157291 0.0172455 0 0 0 161 161 140
-0.215982 0.0148066 0.072618 0 0 0 52 44 87
-0.130393 0.041043 0.0759398 0 0 0 94 74 99
-0.0718342 -0.0269746 0.0759642 0 0 0 155 143 92
-0.125612 -0.00395874 0.0773897 0 0 0 72 100 126
-0.0797858 0.0444164 0.0760834 0 0 0 140 103 60
-0.255191 -0.0237324 0.0365998 0 0 0 34 55 150
-0.0683926 0.0482035 0.0761589 0 0 0 72 94 69
-0.112418 -0.0110999 0.077044 0 0 0 106 130 163
-0.239365 -0.00998917 0.066545 0 0 0 12 30 77
-0.188079 -0.0267495 0.0728684 0 0 0 73 61 54
-0.0544567 0.0356305 0.0761459 0 0 0 79 90 24
-0.190439 -0.0290813 0.0718351 0 0 0 131 115 24
-0.160768 0.0579226 0.0716123 0 0 0 252 253 253
-0.263182 0.0271668 0.0241756 0 0 0 156 178 41
-0.0465661 0.0414097 0.0785519 0 0 0 80 96 35
-0.205917 -0.00838438 0.0737073 0 0 0 143 143 142
-0.0176002 -0.0101226 0.0763557 0 0 0 130 144 103
-0.179247 0.0421175 0.0722386 0 0 0 144 107 49
-0.139623 0.0299405 0.0760397 0 0 0 163 161 157
-0.242285 0.0346358 0.0613061 0 0 0 215 238 250
-0.0391977 0.0478489 0.077733 0 0 0 90 102 62
-0.141148 0.031086 0.0760456 0 0 0 160 158 151
-0.240209 0.00625171 0.0654788 0 0 0 29 35 106
-0.163203 0.0081828 0.0755311 0 0 0 145 135 136
-0.0487556 -0.0223366 0.0761911 0 0 0 150 127 36
-0.121023 0.0209964 0.0765829 0 0 0 62 99 143
-0.183273 0.0314607 0.0745767 0 0 0 142 129 47
-0.169049 -0.0157214 0.0765938 0 0 0 29 45 98
-0.211596 0.0244583 0.0733263 0 0 0 127 133 142
-0.110757 -0.00718996 0.0775182 0 0 0 159 165 160
-0.0786384 0.0550152 0.0779163 0 0 0 229 249 254
-0.224407 0.0118549 0.0726683 0 0 0 124 126 140
-0.23175 0.00245941 0.0705355 0 0 0 104 122 146
-0.110295 0.0312511 0.0750856 0 0 0 160 169 160
-0.14745 -0.0109862 0.0754126 0 0 0 50 71 129
-0.209333 0.00788569 0.0743401 0 0 0 145 140 148
-0.112389 0.00717497 0.0769544 0 0 0 154 163 171
-0.154063 0.0123864 0.076251 0 0 0 157 152 141
-0.139315 -0.00095416 0.0783474 0 0 0 147 148 153
-0.115595 0.00575143 0.0765597 0 0 0 115 147 162
-0.203021 0.0107945 0.073652 0 0 0 148 136 123
-0.156333 0.0210265 0.076065 0 0 0 147 124 62
-0.227352 0.00133566 0.071892 0 0 0 92 111 125
-0.205722 0.00331403 0.074706 0 0 0 130 118 109
-0.198754 0.0424281 0.0730007 0 0 0 137 95 35
-0.242083 0.0286218 0.0624674 0 0 0 157 207 251
-0.0311604 -0.00495491 0.0762144 0 0 0 42 61 33
-0.195113 0.00290291 0.07374 0 0 0 127 77 32
-0.207484 0.0500869 0.0721097 0 0 0 249 254 254
-0.18486 0.0241347 0.0739358 0 0 0 101 96 34
-0.182602 0.0193548 0.0743778 0 0 0 105 109 9
-0.102283 0.0304538 0.075766 0 0 0 156 158 171
-0.209945 0.00537918 0.0749663 0 0 0 133 140 142
-0.101445 0.0238295 0.0761075 0 0 0 160 167 178
-0.0638557 0.0260948 0.0789642 0 0 0 57 83 21
-0.12501 -0.0231037 0.0766372 0 0 0 62 74 121
-0.104713 0.0210445 0.0755598 0 0 0 156 166 169
-0.263785 0.0199723 0.0244857 0 0 0 160 178 68
-0.205882 -0.0226338 0.0741379 0 0 0 23 30 85
-0.192217 0.00306919 0.0737508 0 0 0 57 84 10
-0.0696972 0.00122595 0.0785793 0 0 0 151 133 75
-0.159255 -0.00548877 0.0769725 0 0 0 137 117 128
-0.268352 0.00598055 0.0219177 0 0 0 133 149 1
-0.270885 0.0338541 0.0228142 0 0 0 109 126 8
-0.226612 -0.0207196 0.0724553 0 0 0 13 23 77
-0.169831 0.00646139 0.0759993 0 0 0 149 140 80
-0.041894 0.0140633 0.0769665 0 0 0 71 89 21
-0.173818 0.0151308 0.0741729 0 0 0 130 63 10
-0.205876 0.0272935 0.0734511 0 0 0 146 121 70
-0.0308915 0.0288123 0.0774289 0 0 0 82 98 49
