ply
format ascii 1.0
element vertex 116
property float x
property float y
property float z
property float nx
property float ny
property float nz
property uchar diffuse_red
property uchar diffuse_green
property uchar diffuse_blue
end_header
-0.258671 0.00146695 0.0275679 0 0 0 241 247 89
-0.264438 0.0557755 0.0256934 0 0 0 230 235 243
-0.259955 0.0239329 0.0582153 0 0 0 55 72 165
-0.231568 0.0575765 0.0708391 0 0 0 250 252 252
-0.242835 -0.0293391 0.0598955 0 0 0 102 124 200
-0.254444 0.0341253 0.0378916 0 0 0 44 68 165
-0.232706 0.0415985 0.0686986 0 0 0 43 49 99
-0.103193 0.0588293 0.0741052 0 0 0 250 251 250
-0.243633 0.0489719 0.0615713 0 0 0 246 254 254
-0.275687 -0.0273928 0.0205375 0 0 0 148 151 151
-0.0987419 0.0266379 0.0775779 0 0 0 133 135 135
-0.23159 0.0564293 0.0707425 0 0 0 250 252 253
-0.0751314 0.0267178 0.0792966 0 0 0 139 125 9
-0.202967 0.0568651 0.0731037 0 0 0 249 252 253
-0.0456617 0.0613205 0.0778245 0 0 0 254 254 254
-0.268261 -0.0261314 0.0207712 0 0 0 103 126 6
-0.154614 0.0427517 0.0766691 0 0 0 134 67 50
-0.261913 -0.0289173 0.0252345 0 0 0 152 176 22
-0.262378 -0.0278731 0.0262432 0 0 0 157 186 26
-0.122439 0.0406143 0.0767098 0 0 0 86 113 138
-0.265568 0.0216127 0.0499693 0 0 0 42 59 153
-0.103297 -0.0234318 0.0754525 0 0 0 145 155 163
-0.143052 0.0105143 0.0786075 0 0 0 22 38 98
-0.26725 0.0195177 0.0482319 0 0 0 36 55 148
-0.260105 0.0410516 0.0302126 0 0 0 41 60 151
-0.256623 -0.0177932 0.0309963 0 0 0 27 44 142
-0.152051 -0.0271403 0.0758473 0 0 0 139 145 157
-0.124194 -0.013838 0.0769535 0 0 0 167 167 168
-0.139057 -0.0230902 0.0760303 0 0 0 151 161 174
-0.157933 0.057964 0.0745257 0 0 0 250 252 252
-0.0368702 -0.0122687 0.0771502 0 0 0 96 105 39
-0.0295802 -0.0146424 0.0756321 0 0 0 36 65 24
-0.0821439 -0.00973344 0.0771219 0 0 0 146 146 120
-0.145907 -0.0258046 0.0762486 0 0 0 117 142 161
-0.215448 0.0416068 0.0712834 0 0 0 76 82 113
-0.0210263 -0.0230073 0.0762976 0 0 0 91 127 152
-0.22517 0.0287479 0.0722425 0 0 0 99 106 116
-0.276415 -0.00174553 0.0201671 0 0 0 167 170 148
-0.0484469 -0.00578722 0.0776309 0 0 0 137 104 44
-0.215925 0.0152201 0.0732216 0 0 0 50 47 95
-0.130251 0.0425671 0.0763235 0 0 0 42 21 100
-0.167096 0.0509042 0.0736392 0 0 0 236 251 232
-0.127146 -0.00376571 0.0775797 0 0 0 88 111 133
-0.161596 0.0561816 0.0750705 0 0 0 250 252 252
-0.0803431 0.0443687 0.0768985 0 0 0 141 103 67
-0.113331 -0.0107871 0.0764266 0 0 0 61 88 146
-0.191079 -0.0300197 0.0731067 0 0 0 128 108 45
-0.238305 -0.00923468 0.0655317 0 0 0 18 29 78
-0.068261 0.0483394 0.0762104 0 0 0 70 94 70
-0.253655 -0.0234452 0.0389638 0 0 0 33 59 154
-0.0543491 0.0357399 0.0761609 0 0 0 72 91 20
-0.0160957 -0.00842499 0.0750443 0 0 0 128 154 110
-0.263272 0.027622 0.0249332 0 0 0 158 177 58
-0.205901 -0.00798896 0.0742988 0 0 0 145 142 137
-0.046439 0.0415064 0.0785332 0 0 0 79 96 31
-0.17914 0.0424606 0.0726859 0 0 0 141 107 27
-0.0376375 0.0483353 0.0762998 0 0 0 90 103 60
-0.242757 0.0348638 0.0628476 0 0 0 215 240 251
-0.139526 0.0302119 0.0763598 0 0 0 160 159 155
-0.23966 0.00688229 0.065314 0 0 0 33 34 107
-0.141962 0.0314502 0.0755093 0 0 0 157 157 149
-0.163149 0.00849866 0.0759558 0 0 0 145 132 131
-0.120941 0.021233 0.0768465 0 0 0 63 92 146
-0.0487581 -0.0222379 0.0762439 0 0 0 149 128 44
-0.0658084 -0.024214 0.0778687 0 0 0 149 125 46
-0.182583 0.0320219 0.0742466 0 0 0 141 127 49
-0.169037 -0.0153933 0.077063 0 0 0 27 46 93
-0.211518 0.0248641 0.0739049 0 0 0 126 132 145
-0.109404 -0.00669794 0.0762861 0 0 0 161 164 159
-0.180796 -0.0274349 0.0733799 0 0 0 128 117 39
-0.224355 0.0122845 0.0733046 0 0 0 124 128 139
-0.077121 0.0556129 0.0765625 0 0 0 228 249 254
-0.147456 -0.0119443 0.0756963 0 0 0 54 74 124
-0.231723 0.00290085 0.071207 0 0 0 101 120 142
-0.110199 0.0314658 0.0753013 0 0 0 160 167 161
-0.209284 0.00828822 0.0749274 0 0 0 145 141 151
-0.140178 -0.000591406 0.0778392 0 0 0 133 138 157
-0.111015 0.00771177 0.075712 0 0 0 154 164 164
-0.250302 0.0562812 0.0515794 0 0 0 252 253 252
-0.153999 0.0126856 0.0766395 0 0 0 154 151 137
-0.115543 0.00597767 0.0768195 0 0 0 115 141 167
-0.198643 0.0428091 0.0735163 0 0 0 136 93 29
-0.202968 0.0111844 0.0742142 0 0 0 149 136 125
-0.156253 0.0213298 0.0764527 0 0 0 146 122 87
-0.20568 0.00371006 0.0752851 0 0 0 130 115 92
-0.227853 0.00274473 0.0734918 0 0 0 97 118 129
-0.242564 0.0288602 0.0640138 0 0 0 159 209 251
-0.184781 0.0244901 0.0744208 0 0 0 99 94 26
-0.186313 0.020784 0.0741004 0 0 0 86 95 12
-0.207384 0.049308 0.0725492 0 0 0 242 245 239
-0.0311298 -0.00488976 0.076188 0 0 0 42 66 30
-0.063319 0.0598538 0.0761451 0 0 0 254 254 254
-0.0234825 0.00965379 0.0761315 0 0 0 121 138 133
-0.182554 0.0185043 0.0747582 0 0 0 108 112 7
-0.209898 0.0057835 0.0755583 0 0 0 133 139 149
-0.195075 0.00327777 0.0742823 0 0 0 126 83 25
-0.102186 0.0306539 0.0759543 0 0 0 153 156 167
-0.124338 -0.0214718 0.0763099 0 0 0 36 62 104
-0.0637562 0.0262248 0.0790218 0 0 0 57 85 20
-0.100694 0.0242085 0.0755631 0 0 0 159 166 165
-0.205891 -0.0222379 0.0747436 0 0 0 22 30 82
-0.104635 0.021249 0.075766 0 0 0 157 165 175
-0.0696463 0.00136681 0.0786822 0 0 0 152 134 80
-0.245697 -0.0161175 0.0552929 0 0 0 66 87 37
-0.191591 0.00360372 0.0734704 0 0 0 61 81 25
-0.226623 -0.020286 0.0731319 0 0 0 16 22 80
-0.189539 0.0502105 0.0716078 0 0 0 211 241 254
-0.26849 0.00644341 0.0227148 0 0 0 134 150 1
-0.169779 0.00679035 0.0764491 0 0 0 147 141 71
-0.17524 0.0153716 0.0745926 0 0 0 126 63 41
-0.158602 -0.0050322 0.0766146 0 0 0 134 116 123
-0.0418245 0.0141496 0.0769588 0 0 0 66 89 26
-0.187115 0.0550845 0.0728529 0 0 0 250 253 253
-0.183285 0.0565212 0.0738239 0 0 0 250 252 253
-0.20494 0.0276045 0.0748116 0 0 0 141 109 53
-0.183236 -0.00112917 0.0755688 0 0 0 128 114 58
