ply
format ascii 1.0
element vertex 117
property float x
property float y
property float z
property float nx
property float ny
property float nz
property uchar diffuse_red
property uchar diffuse_green
property uchar diffuse_blue
end_header
-0.0227769 0.0601866 0.0775917 0 0 0 254 254 254
-0.242223 -0.0302861 0.0559673 0 0 0 211 219 238
-0.260177 0.0201204 0.055539 0 0 0 68 85 175
-0.245018 0.0466422 0.0559772 0 0 0 250 252 251
-0.0552062 0.0603693 0.0781712 0 0 0 254 254 254
-0.254645 0.0319856 0.0359232 0 0 0 51 74 167
-0.258996 -0.000392157 0.0241087 0 0 0 251 253 79
-0.232587 0.0389353 0.0670688 0 0 0 45 49 94
-0.259946 0.0538355 0.0254417 0 0 0 233 239 244
-0.224979 0.0563761 0.0686304 0 0 0 251 253 252
-0.0798023 0.0251994 0.0784758 0 0 0 148 126 34
-0.0948049 0.026035 0.0751315 0 0 0 129 138 142
-0.229016 0.0368542 0.0674561 0 0 0 74 84 114
-0.170506 0.0580514 0.0716583 0 0 0 250 252 252
-0.171132 0.0552803 0.0720491 0 0 0 251 253 253
-0.0937895 0.0551475 0.0747344 0 0 0 254 254 254
-0.266244 -0.0283294 0.0185523 0 0 0 102 126 46
-0.136099 0.0591973 0.0746263 0 0 0 250 253 252
-0.250325 -0.00944259 0.0397675 0 0 0 235 236 65
-0.259404 0.00433738 0.058227 0 0 0 240 249 129
-0.25722 0.00108067 0.0627172 0 0 0 249 254 149
-0.259758 -0.0308543 0.0203291 0 0 0 172 191 87
-0.266722 0.0177699 0.0487649 0 0 0 51 66 158
-0.151604 -0.0314004 0.0729661 0 0 0 131 140 148
-0.151981 0.0417927 0.0733973 0 0 0 132 65 62
-0.24987 -0.00845942 0.0459968 0 0 0 240 239 113
-0.276099 0.0373032 0.0170251 0 0 0 152 152 148
-0.122546 0.0393835 0.0751891 0 0 0 67 86 105
-0.276099 0.0373032 0.0170251 0 0 0 152 152 148
-0.143239 0.0079529 0.0770549 0 0 0 34 30 86
-0.258018 0.0390709 0.026593 0 0 0 46 63 159
-0.139023 -0.0264246 0.0761869 0 0 0 150 167 168
-0.103567 -0.0258257 0.0744671 0 0 0 137 156 157
-0.121922 -0.0158647 0.0733875 0 0 0 166 166 161
-0.255437 -0.0187299 0.0263429 0 0 0 15 37 141
-0.037365 -0.0137109 0.0778572 0 0 0 111 113 35
-0.0214294 -0.0227531 0.0766933 0 0 0 91 124 133
-0.0189781 -0.0253815 0.0759 0 0 0 92 123 151
-0.0477715 -0.0303204 0.0736673 0 0 0 149 131 39
-0.252275 -0.0232892 0.0316047 0 0 0 38 62 156
-0.216445 0.0383896 0.0715754 0 0 0 82 96 129
-0.239827 -0.00641263 0.0603922 0 0 0 103 109 59
-0.0477473 -0.0275819 0.0740904 0 0 0 149 128 40
-0.131018 0.0409841 0.0755543 0 0 0 39 11 86
-0.0238755 -0.0201407 0.0774895 0 0 0 79 109 91
-0.0681688 0.0475893 0.0776659 0 0 0 69 93 71
-0.259757 0.009054 0.0247383 0 0 0 250 252 75
-0.0814657 0.0439343 0.0753433 0 0 0 137 100 64
-0.274575 -0.0102505 0.0158198 0 0 0 163 165 144
-0.241407 0.00182504 0.0600404 0 0 0 122 122 17
-0.215541 0.0134119 0.0702325 0 0 0 50 45 101
-0.246025 -0.0188365 0.051081 0 0 0 67 88 39
-0.257678 -0.00261541 0.02367 0 0 0 250 254 64
-0.146672 -0.0217017 0.0764073 0 0 0 89 101 140
-0.244308 0.0327215 0.0546457 0 0 0 237 243 252
-0.123139 -0.00608882 0.076436 0 0 0 32 62 109
-0.126281 -0.00622595 0.0761469 0 0 0 53 85 114
-0.186742 -0.0275432 0.0714196 0 0 0 70 26 18
-0.206174 -0.010708 0.0731025 0 0 0 146 146 134
-0.043492 0.039138 0.0767205 0 0 0 72 93 34
-0.118348 0.0198077 0.0750517 0 0 0 49 85 109
-0.241261 0.025745 0.0594417 0 0 0 212 232 254
-0.13862 0.0285218 0.0747256 0 0 0 157 159 150
-0.180467 0.0401279 0.0719439 0 0 0 142 114 42
-0.237382 -0.0102209 0.0622402 0 0 0 16 23 88
-0.0194995 0.0150969 0.077059 0 0 0 120 139 99
-0.142968 0.0289941 0.0761602 0 0 0 158 155 147
-0.0181474 -0.01396 0.0769714 0 0 0 123 139 91
-0.110768 0.0418684 0.0758488 0 0 0 145 163 133
-0.180311 -0.0307224 0.0702275 0 0 0 103 107 54
-0.226465 0.00955155 0.0673929 0 0 0 76 93 130
-0.161778 0.00714711 0.074225 0 0 0 145 124 117
-0.0553068 0.0287513 0.0791018 0 0 0 78 91 23
-0.108488 -0.00750846 0.0751203 0 0 0 158 166 167
-0.181736 0.0310853 0.0721982 0 0 0 134 114 56
-0.167452 -0.0171068 0.0735715 0 0 0 26 43 97
-0.210086 0.0237074 0.0700457 0 0 0 128 133 141
-0.149031 -0.0142014 0.0765917 0 0 0 50 70 119
-0.229853 0.00101257 0.0670468 0 0 0 90 115 155
-0.139617 -0.00289122 0.0748048 0 0 0 138 146 147
-0.115683 0.00523887 0.075547 0 0 0 142 155 163
-0.225435 -0.000163861 0.0683982 0 0 0 95 115 136
-0.197357 0.040888 0.0709627 0 0 0 136 91 27
-0.155904 0.0190511 0.0746848 0 0 0 147 124 102
-0.207412 0.00651837 0.071577 0 0 0 149 144 137
-0.186836 0.0183676 0.0709707 0 0 0 66 91 2
-0.15418 0.0113558 0.075257 0 0 0 153 152 148
-0.153494 0.0428903 0.0734798 0 0 0 132 67 73
-0.110591 0.0297802 0.0756701 0 0 0 158 164 166
-0.203114 0.00922272 0.0719665 0 0 0 147 136 118
-0.205182 0.00181634 0.0716735 0 0 0 128 118 88
-0.0295324 -0.00556599 0.0754647 0 0 0 41 63 32
-0.0604013 0.0244017 0.0776902 0 0 0 63 84 14
-0.0204458 0.023721 0.0773861 0 0 0 126 144 104
-0.113781 -0.0210802 0.0749885 0 0 0 33 64 79
-0.236669 0.00941754 0.0643933 0 0 0 31 49 129
-0.220646 -0.0239316 0.0696395 0 0 0 13 23 80
-0.208739 0.0477748 0.0720589 0 0 0 248 253 253
-0.26305 0.00739827 0.0494517 0 0 0 243 253 115
-0.101926 0.0279873 0.0754666 0 0 0 155 166 160
-0.194876 0.00101802 0.0732278 0 0 0 118 104 9
-0.0736869 0.0330925 0.0771782 0 0 0 143 122 47
-0.273796 0.0547498 0.0204224 0 0 0 114 111 117
-0.100079 0.0224612 0.0764758 0 0 0 147 161 166
-0.0688224 0.00107758 0.0787014 0 0 0 152 134 85
-0.240632 -0.00400344 0.0599522 0 0 0 121 125 34
-0.104271 0.0198032 0.0747881 0 0 0 156 163 163
-0.205443 -0.0236677 0.0719314 0 0 0 26 32 84
-0.267475 0.00843607 0.0198829 0 0 0 145 163 11
-0.252106 0.0528467 0.0442783 0 0 0 252 253 253
-0.267516 0.00379426 0.0191658 0 0 0 136 151 2
-0.194207 0.0383976 0.0722853 0 0 0 139 102 34
-0.167803 0.00430056 0.0735281 0 0 0 149 138 80
-0.173363 0.0118057 0.0719778 0 0 0 130 58 46
-0.159824 -0.0033069 0.0760314 0 0 0 142 123 133
-0.0411308 0.0131469 0.0780714 0 0 0 69 89 29
-0.158346 -0.00690001 0.0755501 0 0 0 136 118 116
