ply
format ascii 1.0
element vertex 112
property float x
property float y
property float z
property float nx
property float ny
property float nz
property uchar diffuse_red
property uchar diffuse_green
property uchar diffuse_blue
end_header
-0.0212905 0.0622771 0.0696731 0 0 0 254 254 254
-0.0230386 0.0622029 0.0694001 0 0 0 254 254 254
-0.257891 -0.00413614 0.0314452 0 0 0 204 214 53
-0.104852 0.0614323 0.0706166 0 0 0 247 251 251
-0.257062 0.0509872 0.0344253 0 0 0 222 232 242
-0.104615 0.0287439 0.0752893 0 0 0 147 158 155
-0.261952 0.0245672 0.053443 0 0 0 28 53 145
-0.103084 0.0548976 0.072349 0 0 0 249 253 254
-0.242946 0.0497218 0.0587412 0 0 0 230 239 246
-0.233266 0.0381393 0.0679825 0 0 0 36 44 95
-0.244613 0.048628 0.0571801 0 0 0 229 241 249
-0.256138 0.0280453 0.0341506 0 0 0 28 49 139
-0.241699 -0.0320425 0.0579825 0 0 0 78 84 151
-0.155616 0.0434008 0.0737901 0 0 0 125 68 46
-0.10304 -0.025588 0.0759416 0 0 0 110 124 135
-0.267455 -0.0304758 0.0199423 0 0 0 90 109 18
-0.151705 0.0571739 0.073217 0 0 0 249 252 252
-0.124427 0.0397552 0.0729937 0 0 0 71 74 110
-0.224779 0.0349796 0.0691431 0 0 0 58 51 118
-0.274454 0.0386703 0.0195264 0 0 0 135 145 119
-0.276819 -0.000300678 0.0176848 0 0 0 148 158 146
-0.14091 0.0103732 0.07424 0 0 0 36 41 72
-0.26097 -0.0318578 0.0219466 0 0 0 125 148 62
-0.123539 -0.0135956 0.0743631 0 0 0 153 160 163
-0.267274 0.016935 0.0471277 0 0 0 25 46 138
-0.135588 -0.0234381 0.0727226 0 0 0 147 159 159
-0.0844348 -0.00895642 0.0754491 0 0 0 124 133 119
-0.256906 -0.0237804 0.0311945 0 0 0 14 30 138
-0.216031 0.0409853 0.0704584 0 0 0 68 81 114
-0.24822 0.0365123 0.049777 0 0 0 33 55 149
-0.0797804 0.0440832 0.0738107 0 0 0 110 93 46
-0.0580574 0.0383016 0.0723579 0 0 0 59 86 32
-0.035304 -0.0094626 0.0736693 0 0 0 63 76 36
-0.142463 -0.0257488 0.0731363 0 0 0 111 136 154
-0.126502 -0.0034202 0.074217 0 0 0 79 117 117
-0.253784 -0.0272945 0.0369216 0 0 0 23 45 140
-0.216236 0.014401 0.0719048 0 0 0 45 45 96
-0.198006 0.0488011 0.070881 0 0 0 207 226 243
-0.172231 0.0524795 0.0717798 0 0 0 233 243 248
-0.0693579 0.0472806 0.0726097 0 0 0 58 87 56
-0.129362 0.0422233 0.0710661 0 0 0 38 21 79
-0.188433 -0.0303701 0.0710752 0 0 0 125 121 50
-0.194976 0.0572113 0.0709055 0 0 0 231 240 245
-0.187505 -0.0268234 0.0719143 0 0 0 70 66 19
-0.0470689 0.0441209 0.0730387 0 0 0 74 93 40
-0.153568 -0.0266459 0.0750452 0 0 0 116 132 135
-0.236089 -0.0117009 0.0644431 0 0 0 15 30 81
-0.0753655 -0.0250329 0.0731645 0 0 0 141 140 102
-0.205073 -0.00878046 0.0730391 0 0 0 134 142 134
-0.248434 0.0535012 0.0507807 0 0 0 226 236 244
-0.263607 0.0237598 0.0244035 0 0 0 139 164 35
-0.144527 -0.0194694 0.0738768 0 0 0 89 97 132
-0.14082 0.0304002 0.0727509 0 0 0 148 154 144
-0.228285 0.0245489 0.070065 0 0 0 96 104 126
-0.173899 0.0573556 0.0701583 0 0 0 231 241 246
-0.0479389 -0.0202823 0.074235 0 0 0 137 124 43
-0.182122 0.0436493 0.0707889 0 0 0 135 106 55
-0.273867 0.0248811 0.0202169 0 0 0 131 152 124
-0.163535 0.00771888 0.0749267 0 0 0 136 131 131
-0.205907 0.0542728 0.0702499 0 0 0 231 241 245
-0.122925 0.0206724 0.0746002 0 0 0 46 70 115
-0.111401 -0.00739136 0.0761244 0 0 0 146 162 165
-0.240739 0.0349183 0.0609691 0 0 0 123 146 197
-0.130055 0.0243785 0.0733392 0 0 0 92 110 128
-0.0701118 0.0283636 0.0748363 0 0 0 96 110 35
-0.167212 -0.015312 0.0730637 0 0 0 34 51 97
-0.211848 0.0237213 0.0718249 0 0 0 116 131 139
-0.109946 0.0300898 0.0716244 0 0 0 149 159 161
-0.231465 0.000654179 0.0700534 0 0 0 90 116 138
-0.146541 -0.0107506 0.0746395 0 0 0 48 69 116
-0.0540544 -0.0215096 0.072605 0 0 0 136 123 64
-0.183557 0.0303514 0.072318 0 0 0 139 143 14
-0.226484 0.00177223 0.0706152 0 0 0 86 104 129
-0.116874 0.00545073 0.0749592 0 0 0 115 129 155
-0.0775018 0.0563086 0.0717138 0 0 0 250 254 254
-0.198717 0.0416599 0.0716565 0 0 0 132 102 59
-0.236285 0.00757948 0.0654406 0 0 0 24 40 111
-0.137355 0.000410652 0.0735678 0 0 0 117 115 139
-0.20709 0.00520853 0.0723721 0 0 0 131 143 148
-0.155275 0.012696 0.0744181 0 0 0 145 149 141
-0.261232 0.0353453 0.0251524 0 0 0 20 43 125
-0.138276 0.0505375 0.0721996 0 0 0 194 205 226
-0.207028 0.00869641 0.0723962 0 0 0 134 137 136
-0.272148 0.0479065 0.0202343 0 0 0 30 36 50
-0.201884 0.00987902 0.0731111 0 0 0 142 144 133
-0.067517 -0.013158 0.0749478 0 0 0 129 110 28
-0.032495 -0.00534811 0.0749022 0 0 0 37 67 18
-0.204724 -0.0216074 0.0721215 0 0 0 17 31 83
-0.223507 0.0132106 0.070559 0 0 0 115 126 130
-0.107297 0.0209903 0.0742124 0 0 0 147 159 159
-0.158753 0.0224016 0.0751655 0 0 0 140 123 99
-0.104592 0.0300359 0.0752982 0 0 0 141 154 152
-0.207433 0.0483642 0.0702441 0 0 0 208 231 246
-0.194844 0.00170042 0.0729571 0 0 0 102 88 46
-0.0709888 0.0028839 0.0770122 0 0 0 140 129 89
-0.194094 -0.00420973 0.073723 0 0 0 126 126 20
-0.186653 0.0207473 0.0722436 0 0 0 88 99 39
-0.182282 0.0196415 0.0722518 0 0 0 102 113 21
-0.20126 0.0122537 0.0723013 0 0 0 136 129 117
-0.103099 0.0236039 0.0753958 0 0 0 142 163 156
-0.0251268 0.0100627 0.0720743 0 0 0 108 132 138
-0.219007 -0.0154823 0.0709641 0 0 0 14 22 77
-0.159213 -0.00325232 0.0749879 0 0 0 132 121 125
-0.159858 -0.00448427 0.0757665 0 0 0 130 118 122
-0.019649 0.0396977 0.0714457 0 0 0 111 134 79
-0.192542 0.00167922 0.0737534 0 0 0 78 85 40
-0.18661 0.0231258 0.0722601 0 0 0 97 112 26
-0.204714 0.026237 0.0716537 0 0 0 134 115 77
-0.0623221 0.0273337 0.0725697 0 0 0 58 84 45
-0.219291 0.0305997 0.0688629 0 0 0 92 93 105
-0.236354 -0.0264688 0.0643409 0 0 0 57 87 144
-0.0424799 0.0140114 0.0735421 0 0 0 64 87 32
