ply
format ascii 1.0
element vertex 103
property float x
property float y
property float z
property float nx
property float ny
property float nz
property uchar diffuse_red
property uchar diffuse_green
property uchar diffuse_blue
end_header
-0.0227824 0.0602505 0.0774674 0 0 0 254 254 254
-0.241672 -0.0324899 0.0547648 0 0 0 192 212 242
-0.259909 0.0189519 0.0547592 0 0 0 68 84 177
-0.052821 0.0606815 0.0775892 0 0 0 254 254 254
-0.255529 -0.00152973 0.0247671 0 0 0 238 248 107
-0.244379 0.0458863 0.0545238 0 0 0 250 251 251
-0.254912 0.0306527 0.0360882 0 0 0 50 72 167
-0.260305 0.0524965 0.025724 0 0 0 231 237 244
-0.231905 0.0381775 0.0656144 0 0 0 43 48 110
-0.0796086 0.0249345 0.0780561 0 0 0 149 128 42
-0.0946096 0.0257026 0.0746887 0 0 0 130 139 140
-0.230246 0.0356162 0.0668477 0 0 0 59 56 111
-0.224943 0.055336 0.0681122 0 0 0 250 254 254
-0.267439 -0.0296097 0.0184996 0 0 0 102 127 33
-0.277162 0.0372284 0.0165921 0 0 0 147 151 160
-0.171097 0.0545286 0.0716244 0 0 0 250 252 253
-0.136091 0.0586312 0.0742874 0 0 0 252 253 253
-0.258638 -0.0304636 0.0185656 0 0 0 177 198 96
-0.152494 0.0408465 0.0736873 0 0 0 132 69 58
-0.265431 0.0171772 0.0462078 0 0 0 49 66 153
-0.122427 0.0388922 0.0747676 0 0 0 65 87 129
-0.250694 -0.0103374 0.0380434 0 0 0 234 239 68
-0.102404 -0.0260149 0.0730033 0 0 0 145 155 159
-0.142943 0.00733446 0.0764245 0 0 0 36 27 97
-0.22528 0.024482 0.0699954 0 0 0 118 145 124
-0.257313 0.0383831 0.0250426 0 0 0 43 67 156
-0.121484 -0.0163409 0.0726671 0 0 0 166 170 171
-0.138529 -0.0270132 0.0753776 0 0 0 150 165 173
-0.0355109 -0.0133426 0.0759568 0 0 0 113 109 54
-0.255396 -0.0199312 0.0262456 0 0 0 15 38 145
-0.251716 -0.024281 0.030604 0 0 0 39 60 153
-0.0788925 -0.0133783 0.0769788 0 0 0 152 144 73
-0.0195042 -0.0237209 0.0745653 0 0 0 95 125 135
-0.216311 0.0373827 0.0709753 0 0 0 80 96 112
-0.13155 0.0401524 0.0758609 0 0 0 38 11 84
-0.0681017 0.0473944 0.0773894 0 0 0 70 92 63
-0.237775 -0.0100268 0.0607268 0 0 0 7 16 83
-0.0813733 0.0436762 0.0750224 0 0 0 139 100 59
-0.0482391 -0.0288514 0.0722719 0 0 0 152 127 57
-0.244111 0.031648 0.0539635 0 0 0 237 242 251
-0.215263 0.0124182 0.0694983 0 0 0 50 42 95
-0.239388 0.00275879 0.061146 0 0 0 45 60 96
-0.245527 -0.0198987 0.0501156 0 0 0 73 89 36
-0.146205 -0.0223353 0.0756095 0 0 0 90 103 136
-0.125903 -0.00674231 0.0754708 0 0 0 56 87 118
-0.122762 -0.00658882 0.0757665 0 0 0 34 59 107
-0.187093 -0.0282429 0.0696879 0 0 0 60 22 6
-0.205763 -0.0116631 0.0722546 0 0 0 147 145 140
-0.137801 0.0282158 0.0734726 0 0 0 162 161 157
-0.0433753 0.0390892 0.0764437 0 0 0 78 93 30
-0.11877 0.0190855 0.0752599 0 0 0 47 92 106
-0.180345 0.039324 0.0714196 0 0 0 145 113 40
-0.241561 0.0255095 0.0597527 0 0 0 207 220 253
-0.0177243 -0.0124584 0.0766779 0 0 0 125 139 87
-0.161472 0.00643839 0.073556 0 0 0 144 124 120
-0.0551349 0.0286225 0.0787467 0 0 0 79 92 29
-0.179781 -0.0315139 0.0693187 0 0 0 109 107 42
-0.180369 0.0308523 0.0700637 0 0 0 132 115 54
-0.108101 -0.00791774 0.0744701 0 0 0 159 167 157
-0.220875 0.00839271 0.068983 0 0 0 127 135 148
-0.167006 -0.0178436 0.0727603 0 0 0 25 43 97
-0.210435 0.0224592 0.0701842 0 0 0 128 132 140
-0.151769 0.0585885 0.071538 0 0 0 249 252 253
-0.229498 -4.50243e-05 0.0662189 0 0 0 95 112 146
-0.197237 0.0399932 0.0704113 0 0 0 135 87 37
-0.115369 0.00478586 0.0749528 0 0 0 143 156 174
-0.148607 -0.0148496 0.0758303 0 0 0 47 73 129
-0.207097 0.00556392 0.0708203 0 0 0 149 146 143
-0.139252 -0.00222484 0.0743225 0 0 0 125 134 135
-0.225075 -0.00120357 0.067572 0 0 0 95 116 136
-0.186588 0.0175334 0.0703164 0 0 0 66 92 9
-0.155667 0.018373 0.0740913 0 0 0 147 126 96
-0.202236 0.00855288 0.0704314 0 0 0 147 137 115
-0.113316 -0.0215185 0.0742548 0 0 0 27 61 88
-0.154529 0.00919871 0.0751845 0 0 0 153 149 140
-0.205418 0.000622979 0.0716996 0 0 0 129 124 117
-0.110418 0.0293548 0.0752185 0 0 0 161 167 161
-0.270594 -0.00773925 0.0160002 0 0 0 169 180 138
-0.0602019 0.0242516 0.0773021 0 0 0 59 84 20
-0.252338 0.0510956 0.0418411 0 0 0 250 252 252
-0.0291584 -0.00552703 0.0749708 0 0 0 41 64 29
-0.153395 0.0409877 0.0728212 0 0 0 131 65 57
-0.20866 0.0468089 0.0715239 0 0 0 248 253 253
-0.220153 -0.02495 0.0686931 0 0 0 13 22 77
-0.10041 0.0281398 0.0735914 0 0 0 155 164 159
-0.194532 0.000126234 0.0724644 0 0 0 116 102 16
-0.087533 -0.020754 0.0771907 0 0 0 57 91 126
-0.274133 0.0533545 0.0207008 0 0 0 116 106 124
-0.270006 0.0307027 0.0212103 0 0 0 105 128 8
-0.0998655 0.0220916 0.0760038 0 0 0 148 163 168
-0.103375 0.0196715 0.073576 0 0 0 155 164 163
-0.196619 0.0534081 0.0717166 0 0 0 250 253 253
-0.0708544 -0.000748837 0.078412 0 0 0 153 136 87
-0.204956 -0.0246119 0.0710145 0 0 0 25 34 86
-0.267086 0.00394192 0.0184698 0 0 0 136 151 14
-0.267076 0.0074204 0.0190265 0 0 0 146 160 19
-0.19466 0.0372089 0.0725151 0 0 0 137 105 27
-0.173075 0.012257 0.0715071 0 0 0 130 63 43
-0.167479 0.00356138 0.0728325 0 0 0 147 137 93
-0.023477 0.0092039 0.0758234 0 0 0 114 149 142
-0.0249298 0.00736247 0.0769276 0 0 0 109 135 134
-0.15645 -0.00750814 0.074903 0 0 0 139 132 131
-0.180834 -0.00222648 0.0714714 0 0 0 128 117 61
