ply
format ascii 1.0
element vertex 121
property float x
property float y
property float z
property float nx
property float ny
property float nz
property uchar diffuse_red
property uchar diffuse_green
property uchar diffuse_blue
end_header
-0.0192708 0.0604629 0.07519 0 0 0 254 254 254
-0.258508 0.00124363 0.0270191 0 0 0 240 246 84
-0.265267 0.0556304 0.0246141 0 0 0 226 233 240
-0.260695 0.0236331 0.0570072 0 0 0 49 70 163
-0.23105 0.0574731 0.0697502 0 0 0 250 253 253
-0.254877 0.0336355 0.0384013 0 0 0 45 66 164
-0.233227 0.0409967 0.0692232 0 0 0 37 50 100
-0.244457 0.0487001 0.0604903 0 0 0 247 254 254
-0.242597 -0.0285435 0.0593059 0 0 0 107 135 207
-0.0996395 0.0266877 0.0763931 0 0 0 141 150 153
-0.0737038 0.0270977 0.0776019 0 0 0 140 124 3
-0.0984355 0.0552606 0.0741248 0 0 0 254 254 254
-0.274971 -0.0275001 0.018902 0 0 0 148 153 140
-0.201501 0.0602802 0.0731922 0 0 0 251 252 253
-0.205278 0.0564755 0.0720807 0 0 0 249 252 253
-0.0457026 0.0614159 0.0777571 0 0 0 254 254 254
-0.202953 0.0589225 0.0730922 0 0 0 251 252 253
-0.269198 0.0574262 0.025154 0 0 0 225 230 235
-0.268476 -0.0253145 0.0210972 0 0 0 101 128 25
-0.138026 0.0597945 0.0754949 0 0 0 249 252 252
-0.153341 0.0442501 0.0749775 0 0 0 130 65 38
-0.251673 -0.00812119 0.0438882 0 0 0 227 230 69
-0.261666 -0.0291371 0.0245295 0 0 0 152 176 19
-0.122423 0.0405089 0.076473 0 0 0 90 109 130
-0.261647 -0.0279752 0.0246334 0 0 0 155 184 25
-0.260024 0.00708659 0.0605671 0 0 0 232 242 101
-0.141755 0.0592405 0.0760531 0 0 0 250 252 252
-0.264982 0.0214677 0.0486206 0 0 0 39 61 154
-0.102462 -0.024663 0.0740525 0 0 0 132 145 145
-0.267153 0.0191666 0.0477667 0 0 0 35 53 143
-0.141688 0.0106918 0.0766691 0 0 0 21 41 99
-0.256411 -0.018028 0.0303519 0 0 0 29 48 142
-0.145099 -0.0270962 0.074773 0 0 0 80 123 152
-0.259562 0.0410462 0.0289626 0 0 0 44 59 151
-0.244328 0.0567004 0.0612056 0 0 0 250 253 252
-0.0643203 0.0613685 0.0752444 0 0 0 254 254 254
-0.151871 -0.0285557 0.075133 0 0 0 140 148 154
-0.138869 -0.0232359 0.0754578 0 0 0 151 161 163
-0.123381 -0.0138143 0.0756864 0 0 0 164 166 167
-0.0359735 -0.010632 0.0761511 0 0 0 80 101 35
-0.183309 0.0562663 0.0736162 0 0 0 251 253 253
-0.27767 0.0131703 0.019345 0 0 0 160 162 145
-0.21599 0.0410422 0.0718045 0 0 0 79 81 116
-0.0218608 -0.0227337 0.0748602 0 0 0 98 126 124
-0.225117 0.0283886 0.0718591 0 0 0 94 110 117
-0.13026 0.0411727 0.0759764 0 0 0 99 74 104
-0.217241 0.0147715 0.0728157 0 0 0 44 42 94
-0.166497 0.050933 0.0726302 0 0 0 236 253 240
-0.254273 -0.0236278 0.0375011 0 0 0 35 56 149
-0.12701 -0.00388743 0.0771148 0 0 0 84 108 127
-0.123867 -0.00377415 0.07735 0 0 0 57 67 112
-0.0803589 0.0430413 0.0765969 0 0 0 141 107 57
-0.0696453 0.0479549 0.0774784 0 0 0 72 94 69
-0.113176 -0.0108657 0.075938 0 0 0 61 90 146
-0.238144 -0.00959477 0.0649455 0 0 0 12 29 78
-0.179722 0.0419941 0.0732085 0 0 0 140 110 34
-0.205751 -0.0083061 0.0737462 0 0 0 145 142 135
-0.0588107 0.0349519 0.0785311 0 0 0 75 91 16
-0.187901 -0.0266533 0.072785 0 0 0 74 66 55
-0.262675 0.0287803 0.0237099 0 0 0 161 184 51
-0.192321 -0.0303214 0.0724543 0 0 0 131 109 41
-0.0450117 0.0419974 0.0769768 0 0 0 79 96 43
-0.0376422 0.0484602 0.0761735 0 0 0 89 102 60
-0.140116 0.0298603 0.0768195 0 0 0 162 159 152
-0.239543 0.00651939 0.064808 0 0 0 31 31 107
-0.14192 0.0312984 0.0752097 0 0 0 158 156 149
-0.16366 0.00811422 0.076307 0 0 0 144 130 134
-0.241847 0.0367032 0.0634674 0 0 0 175 216 247
-0.120873 0.0211313 0.0765131 0 0 0 62 97 139
-0.0158777 -0.00398727 0.0750294 0 0 0 132 151 103
-0.0553651 -0.0221958 0.074814 0 0 0 148 125 38
-0.182541 0.0317672 0.0739156 0 0 0 142 126 45
-0.210889 0.0247422 0.0726862 0 0 0 126 134 140
-0.108598 -0.00662278 0.0750788 0 0 0 159 164 161
-0.167647 -0.015349 0.0749234 0 0 0 29 48 93
-0.147907 -0.0110096 0.0760571 0 0 0 48 70 130
-0.0785118 0.0551786 0.0778707 0 0 0 227 248 254
-0.224259 0.0119223 0.0728387 0 0 0 124 128 137
-0.110815 0.0312027 0.0757703 0 0 0 160 168 165
-0.2316 0.00252962 0.0706876 0 0 0 99 117 131
-0.208608 0.00814053 0.0736283 0 0 0 145 142 152
-0.112227 0.00731539 0.0768055 0 0 0 152 162 172
-0.140031 0.000501363 0.0774912 0 0 0 110 113 137
-0.153907 0.0124961 0.076235 0 0 0 154 150 138
-0.114777 0.00605292 0.0756675 0 0 0 112 146 166
-0.20287 0.0108752 0.0737609 0 0 0 147 135 125
-0.156184 0.021135 0.07609 0 0 0 147 122 72
-0.0310134 -0.00614089 0.0756738 0 0 0 38 59 14
-0.226629 0.00272511 0.0712855 0 0 0 94 114 119
-0.205562 0.00338834 0.0747917 0 0 0 130 112 100
-0.268347 0.0285584 0.022444 0 0 0 138 158 108
-0.19863 0.0425146 0.0732263 0 0 0 136 94 44
-0.241448 0.0289365 0.0618903 0 0 0 157 209 251
-0.207368 0.0501699 0.0723897 0 0 0 247 254 254
-0.184719 0.0242287 0.07405 0 0 0 94 96 28
-0.194956 0.00298968 0.0737956 0 0 0 124 81 29
-0.102142 0.030607 0.0756844 0 0 0 153 156 169
-0.187702 0.0204106 0.0736937 0 0 0 77 94 5
-0.206374 0.0058127 0.0741984 0 0 0 149 149 153
-0.181861 0.0196436 0.0736655 0 0 0 104 110 10
-0.100632 0.0241677 0.0752618 0 0 0 159 167 163
-0.0637034 0.026266 0.0787619 0 0 0 54 86 20
-0.105229 0.0210145 0.0761843 0 0 0 158 166 166
-0.245509 -0.0164457 0.0546659 0 0 0 63 85 45
-0.0695044 0.00273619 0.0784118 0 0 0 154 133 57
-0.204533 -0.0211214 0.0725737 0 0 0 20 31 85
-0.189525 0.0511498 0.0714702 0 0 0 252 254 254
-0.19206 0.00315824 0.0737994 0 0 0 57 81 20
-0.0258492 0.00961409 0.0762248 0 0 0 109 132 145
-0.0695261 0.00139426 0.0782918 0 0 0 155 132 69
-0.220806 -0.0158346 0.0726872 0 0 0 17 26 83
-0.0417375 0.0142605 0.0766565 0 0 0 71 90 23
-0.158463 -0.00523374 0.0761168 0 0 0 136 114 124
-0.169671 0.00655937 0.0760015 0 0 0 147 140 72
-0.174552 0.0153215 0.0733886 0 0 0 127 64 46
-0.270397 0.0354716 0.0223876 0 0 0 106 128 9
-0.204312 0.0274988 0.073619 0 0 0 139 103 65
-0.250326 0.0548096 0.0512114 0 0 0 252 253 252
-0.265391 0.00632847 0.0498755 0 0 0 231 240 97
-0.268298 0.00853801 0.0223903 0 0 0 146 160 49
-0.0285904 0.0295577 0.075093 0 0 0 84 99 51
