ply
format ascii 1.0
element vertex 111
property float x
property float y
property float z
property float nx
property float ny
property float nz
property uchar diffuse_red
property uchar diffuse_green
property uchar diffuse_blue
end_header
-0.0227835 0.0602263 0.0773069 0 0 0 254 254 254
-0.241616 -0.0316375 0.0553282 0 0 0 206 218 238
-0.259889 0.0197779 0.0550763 0 0 0 67 85 170
-0.24438 0.0455968 0.0545282 0 0 0 250 251 251
-0.0538174 0.0607877 0.0764827 0 0 0 254 254 254
-0.253906 0.0308629 0.0344287 0 0 0 52 74 166
-0.257198 -0.0017166 0.0233858 0 0 0 250 253 77
-0.231896 0.0379511 0.065651 0 0 0 44 49 111
-0.260322 0.0520549 0.0257031 0 0 0 230 236 242
-0.0945878 0.0256156 0.074728 0 0 0 131 139 139
-0.0782157 0.0253785 0.0766945 0 0 0 150 128 34
-0.230235 0.035397 0.0668962 0 0 0 57 56 112
-0.225254 0.0335037 0.067276 0 0 0 74 85 94
-0.169599 0.0570142 0.0720212 0 0 0 251 253 252
-0.224104 0.0549993 0.0688693 0 0 0 250 252 253
-0.0937583 0.0547342 0.074348 0 0 0 254 254 254
-0.265597 -0.0298142 0.0178807 0 0 0 101 126 42
-0.256304 -0.000112615 0.0612122 0 0 0 245 253 128
-0.169604 0.0545579 0.0716404 0 0 0 250 253 253
-0.224104 0.0549993 0.0688693 0 0 0 250 252 253
-0.135171 0.0596437 0.0752634 0 0 0 252 253 252
-0.266412 0.0162646 0.0481175 0 0 0 48 66 153
-0.152483 0.0407144 0.073677 0 0 0 132 68 48
-0.276706 0.0370402 0.0157485 0 0 0 148 152 158
-0.259097 -0.0322985 0.0196652 0 0 0 169 188 66
-0.122414 0.0387862 0.0747541 0 0 0 65 86 116
-0.27587 0.0357548 0.0163751 0 0 0 153 150 148
-0.249191 -0.011555 0.0424697 0 0 0 242 244 104
-0.115962 0.0586186 0.0742554 0 0 0 252 253 252
-0.10302 -0.0275956 0.0738226 0 0 0 132 149 151
-0.142908 0.00722281 0.0765742 0 0 0 36 29 95
-0.223313 0.0258915 0.0694352 0 0 0 61 60 120
-0.12274 -0.0168605 0.074399 0 0 0 166 170 167
-0.138471 -0.0271265 0.0756936 0 0 0 149 166 172
-0.255363 -0.0203659 0.0265773 0 0 0 14 34 141
-0.0354584 -0.0119979 0.0763767 0 0 0 98 112 29
-0.0835054 -0.0139494 0.0781812 0 0 0 143 147 124
-0.129866 0.0553799 0.0741876 0 0 0 250 251 252
-0.251678 -0.0246918 0.0309553 0 0 0 37 59 156
-0.0243791 -0.0199533 0.0761877 0 0 0 66 95 58
-0.214613 0.0381181 0.0685758 0 0 0 82 94 122
-0.132457 0.0401844 0.0749616 0 0 0 23 20 88
-0.146161 -0.0274028 0.0751385 0 0 0 139 149 156
-0.0690726 0.0474867 0.0763701 0 0 0 64 90 59
-0.0813638 0.0435998 0.074968 0 0 0 139 99 58
-0.239672 -0.00852745 0.0579506 0 0 0 112 116 29
-0.215234 0.0122226 0.0696539 0 0 0 52 44 97
-0.0454838 -0.0276756 0.0739919 0 0 0 149 131 31
-0.240183 0.00149087 0.0603895 0 0 0 92 104 54
-0.144879 -0.0220541 0.0743948 0 0 0 88 102 139
-0.245484 -0.0202097 0.0504427 0 0 0 67 89 49
-0.120758 -0.00603754 0.0737698 0 0 0 36 57 112
-0.244102 0.0313561 0.0540375 0 0 0 235 242 251
-0.205716 -0.0118384 0.0725241 0 0 0 147 145 132
-0.186174 -0.028548 0.0708592 0 0 0 69 23 25
-0.109992 0.0429283 0.0749118 0 0 0 144 154 144
-0.11809 0.0192378 0.0746121 0 0 0 47 90 117
-0.0433621 0.0390459 0.0763956 0 0 0 77 93 35
-0.137781 0.028093 0.073518 0 0 0 159 158 155
-0.241017 0.0243967 0.058834 0 0 0 213 232 253
-0.180334 0.0391616 0.0714286 0 0 0 146 116 49
-0.236912 -0.0115452 0.0616185 0 0 0 16 21 83
-0.179722 -0.0316853 0.0696744 0 0 0 108 108 50
-0.162055 0.00605462 0.0744839 0 0 0 145 125 121
-0.226128 0.00829395 0.0667971 0 0 0 78 92 129
-0.0551135 0.0285826 0.0787548 0 0 0 78 92 28
-0.108056 -0.00801475 0.0746797 0 0 0 159 165 160
-0.180353 0.0306834 0.0701143 0 0 0 129 123 43
-0.166955 -0.0179895 0.0730436 0 0 0 25 43 99
-0.209844 0.0225529 0.0694804 0 0 0 127 133 142
-0.206489 0.00563616 0.0701989 0 0 0 151 146 139
-0.147924 -0.0147567 0.0753346 0 0 0 48 69 128
-0.229465 -0.0014117 0.0662642 0 0 0 113 117 152
-0.115332 0.00468605 0.0751033 0 0 0 143 153 172
-0.139214 -0.00359669 0.0743234 0 0 0 140 145 148
-0.225038 -0.0014152 0.0677986 0 0 0 94 115 135
-0.197227 0.0398141 0.0704243 0 0 0 136 91 41
-0.15564 0.018241 0.0741924 0 0 0 149 126 95
-0.111716 0.0287285 0.0766916 0 0 0 160 168 161
-0.202783 0.00811211 0.0714031 0 0 0 147 134 120
-0.204803 0.000692806 0.0711032 0 0 0 129 123 117
-0.186562 0.0173615 0.0704349 0 0 0 65 90 12
-0.154495 0.00907295 0.0753301 0 0 0 155 151 140
-0.0601781 0.0242011 0.0773338 0 0 0 62 82 25
-0.0291148 -0.0055671 0.0751352 0 0 0 40 64 34
-0.222052 -0.0243022 0.0700641 0 0 0 13 23 80
-0.0238802 0.00718132 0.0780022 0 0 0 115 143 129
-0.101721 0.0275221 0.0750543 0 0 0 159 165 166
-0.208654 0.0466273 0.0715083 0 0 0 248 253 253
-0.0181957 0.0150043 0.0777362 0 0 0 122 141 88
-0.194494 -4.03759e-05 0.0726714 0 0 0 116 102 13
-0.27001 0.0302326 0.0213003 0 0 0 111 128 6
-0.0735184 0.032807 0.0768079 0 0 0 145 121 45
-0.0998407 0.0220074 0.076063 0 0 0 150 162 169
-0.104013 0.0193235 0.0743681 0 0 0 157 165 164
-0.0684511 0.000823086 0.0783207 0 0 0 154 135 90
-0.0708128 -0.000800902 0.0785707 0 0 0 155 137 89
-0.253186 0.0508654 0.0410172 0 0 0 250 253 253
-0.273683 0.053214 0.0197849 0 0 0 114 106 110
-0.204901 -0.0247925 0.0713471 0 0 0 24 34 82
-0.167443 0.00341523 0.0730112 0 0 0 148 141 95
-0.267075 0.00230036 0.0185098 0 0 0 135 150 4
-0.267065 0.00694193 0.0192293 0 0 0 145 164 9
-0.194926 0.0374738 0.0709201 0 0 0 136 92 41
-0.173043 0.0133153 0.0718339 0 0 0 131 64 40
-0.189969 0.0478844 0.0717452 0 0 0 249 253 254
-0.245596 0.00322733 0.0609729 0 0 0 126 121 46
-0.156405 -0.00763639 0.0751312 0 0 0 138 134 121
-0.180794 -0.00238846 0.0716841 0 0 0 128 114 66
-0.269247 -0.00349118 0.0168981 0 0 0 146 160 57
-0.0439802 0.00841463 0.0781642 0 0 0 76 90 27
