ply
format ascii 1.0
element vertex 107
property float x
property float y
property float z
property float nx
property float ny
property float nz
property uchar diffuse_red
property uchar diffuse_green
property uchar diffuse_blue
end_header
-0.0202071 0.0594434 0.0758106 0 0 0 254 254 254
-0.273072 0.0529439 0.0207984 0 0 0 216 220 221
-0.268439 0.0520107 0.0209751 0 0 0 217 220 222
-0.0411091 0.0621171 0.0768766 0 0 0 254 254 254
-0.257345 -0.00281028 0.0336538 0 0 0 213 212 43
-0.264259 0.0249169 0.0539154 0 0 0 37 52 131
-0.260598 -0.00323962 0.0583493 0 0 0 206 207 46
-0.166031 0.0571148 0.0729292 0 0 0 222 226 224
-0.0967691 0.0261418 0.077563 0 0 0 123 135 135
-0.242374 -0.0285368 0.0618248 0 0 0 114 129 178
-0.232577 0.0385618 0.070723 0 0 0 38 43 77
-0.2426 0.0457382 0.0604986 0 0 0 196 220 234
-0.227034 0.0353464 0.0715108 0 0 0 67 75 53
-0.253631 0.0299901 0.0396617 0 0 0 40 55 134
-0.128632 0.0559573 0.0767963 0 0 0 230 232 234
-0.267817 -0.0269503 0.0221377 0 0 0 97 109 35
-0.100723 0.0527719 0.075457 0 0 0 250 253 254
-0.125642 0.037663 0.0775488 0 0 0 74 88 93
-0.152597 0.0421099 0.0743778 0 0 0 126 62 33
-0.26118 -0.031056 0.0266667 0 0 0 123 147 40
-0.104541 -0.0256536 0.0765833 0 0 0 129 143 130
-0.258593 0.0374831 0.0287788 0 0 0 39 49 123
-0.139986 -0.0247243 0.0787557 0 0 0 151 146 137
-0.240333 0.0061107 0.0650402 0 0 0 47 53 74
-0.143355 0.00822554 0.0793444 0 0 0 30 42 78
-0.124616 -0.0155531 0.077917 0 0 0 153 152 141
-0.240026 0.0559215 0.0641662 0 0 0 224 226 228
-0.267743 0.0153433 0.0480466 0 0 0 18 40 125
-0.276625 0.0126327 0.019648 0 0 0 160 152 114
-0.224312 0.0277381 0.0718561 0 0 0 79 74 101
-0.0792022 0.0435348 0.0756177 0 0 0 123 89 42
-0.256232 -0.0200871 0.0327153 0 0 0 20 35 114
-0.0364254 -0.0126316 0.0796589 0 0 0 45 58 22
-0.215051 0.0567926 0.0716238 0 0 0 223 226 229
-0.220623 0.0553429 0.0716577 0 0 0 223 227 229
-0.242897 0.0341334 0.0588605 0 0 0 193 207 220
-0.0608661 0.0355687 0.0798258 0 0 0 71 80 20
-0.0866385 -0.0115738 0.078758 0 0 0 114 113 136
-0.0179603 -0.018193 0.0786949 0 0 0 112 126 53
-0.128854 -0.0051091 0.0806227 0 0 0 62 86 123
-0.0685236 0.0463631 0.0764864 0 0 0 64 84 45
-0.217879 0.0131119 0.0749625 0 0 0 42 26 74
-0.237597 -0.0134139 0.0667991 0 0 0 15 24 70
-0.195664 0.0538698 0.0746443 0 0 0 223 226 227
-0.187789 -0.0271308 0.075594 0 0 0 79 61 17
-0.147658 -0.0267059 0.0780971 0 0 0 135 141 129
-0.0461441 0.0416804 0.0780056 0 0 0 76 87 28
-0.261216 0.0270997 0.0250391 0 0 0 156 179 53
-0.190722 -0.0292017 0.075312 0 0 0 123 100 26
-0.121791 0.0192318 0.0791157 0 0 0 58 88 102
-0.146828 -0.0209102 0.0781785 0 0 0 87 91 120
-0.208042 -0.00917855 0.0776709 0 0 0 133 121 116
-0.141829 0.0275625 0.0774916 0 0 0 149 144 129
-0.0653389 0.0268745 0.0772881 0 0 0 56 74 19
-0.142644 0.0288574 0.0768567 0 0 0 147 141 128
-0.227805 0.0145401 0.072527 0 0 0 36 70 102
-0.1808 0.0400207 0.0734248 0 0 0 137 105 26
-0.130437 0.0255044 0.0770853 0 0 0 39 12 60
-0.164607 0.00743007 0.0768808 0 0 0 137 122 112
-0.111174 -0.00874103 0.0791266 0 0 0 147 151 131
-0.116591 0.0048349 0.078272 0 0 0 126 143 142
-0.275947 0.0300741 0.019544 0 0 0 146 141 119
-0.212824 0.0240186 0.0755307 0 0 0 115 119 126
-0.018493 0.0429093 0.0769323 0 0 0 127 146 98
-0.0523965 -0.0239771 0.0796649 0 0 0 137 111 9
-0.197288 0.0461121 0.0735691 0 0 0 180 188 169
-0.167204 -0.0165283 0.0757688 0 0 0 37 47 85
-0.110337 -0.0100716 0.0797791 0 0 0 147 151 134
-0.195776 0.0425689 0.0746142 0 0 0 129 97 12
-0.141913 -0.001265 0.0796297 0 0 0 117 102 118
-0.111059 0.0284835 0.0766021 0 0 0 152 154 142
-0.240746 0.019824 0.0662391 0 0 0 35 32 136
-0.203821 0.00979877 0.0755872 0 0 0 138 123 100
-0.151015 -0.0129938 0.0806389 0 0 0 50 58 97
-0.231309 0.000475651 0.0730862 0 0 0 86 98 120
-0.183631 0.029303 0.0750233 0 0 0 137 131 18
-0.20872 0.0074816 0.076169 0 0 0 134 130 112
-0.228399 0.00128328 0.0745929 0 0 0 85 94 105
-0.157575 0.0104241 0.0798288 0 0 0 146 138 117
-0.156953 0.0213385 0.0775172 0 0 0 138 107 75
-0.208576 0.0466215 0.0738949 0 0 0 199 218 223
-0.19931 0.0400681 0.0750972 0 0 0 131 89 42
-0.170705 -0.012062 0.0770945 0 0 0 29 46 90
-0.0782162 0.053696 0.0763578 0 0 0 249 254 254
-0.264603 0.011496 0.052021 0 0 0 244 247 65
-0.208802 0.00426579 0.0757151 0 0 0 124 129 122
-0.238546 0.0458559 0.0658159 0 0 0 218 225 229
-0.0218304 0.0180202 0.0791799 0 0 0 117 130 56
-0.0751146 -0.0018192 0.0798544 0 0 0 146 129 74
-0.196637 0.000647513 0.0772668 0 0 0 121 82 14
-0.184293 0.0153024 0.0769364 0 0 0 123 109 20
-0.0635368 0.0253223 0.0788452 0 0 0 52 78 16
-0.107094 0.0184473 0.0778632 0 0 0 142 149 136
-0.183591 0.0176568 0.0764936 0 0 0 114 108 17
-0.205561 -0.0220812 0.075773 0 0 0 18 27 67
-0.193893 -0.00372058 0.076616 0 0 0 91 86 13
-0.104696 0.0222019 0.0778239 0 0 0 146 149 140
-0.0709523 0.00317684 0.0802679 0 0 0 145 129 80
-0.0362934 -0.00747728 0.0803864 0 0 0 52 61 23
-0.136864 -0.0165344 0.0785381 0 0 0 101 116 129
-0.26765 0.03085 0.0220595 0 0 0 100 109 1
-0.195183 0.00172847 0.0774009 0 0 0 98 91 8
-0.161489 -0.00574093 0.0797476 0 0 0 133 106 112
-0.188646 0.0210273 0.0761936 0 0 0 65 88 19
-0.169769 0.00507146 0.0772045 0 0 0 140 132 69
-0.266206 0.0054387 0.0232808 0 0 0 133 140 5
-0.051946 0.0069229 0.0809097 0 0 0 62 74 9
