ply
format ascii 1.0
element vertex 91
property float x
property float y
property float z
property float nx
property float ny
property float nz
property uchar diffuse_red
property uchar diffuse_green
property uchar diffuse_blue
end_header
-0.0209359 0.0581723 0.0763275 0 0 0 254 254 254
-0.257819 -0.00399934 0.026725 0 0 0 209 206 11
-0.164355 0.0547619 0.0741595 0 0 0 247 248 250
-0.0807291 0.0571519 0.0762155 0 0 0 254 254 254
-0.235401 0.051892 0.0701966 0 0 0 231 233 233
-0.105815 0.0230291 0.0782124 0 0 0 149 154 135
-0.083339 0.0225957 0.0787771 0 0 0 141 118 5
-0.105754 0.0503439 0.0756064 0 0 0 206 212 229
-0.2047 0.054246 0.0731778 0 0 0 226 230 230
-0.234478 0.03738 0.0689121 0 0 0 40 43 85
-0.2428 -0.0302132 0.0587915 0 0 0 66 90 160
-0.156973 0.0413167 0.0749057 0 0 0 128 61 38
-0.269164 -0.0269676 0.0188987 0 0 0 116 129 34
-0.124945 0.0375962 0.0746838 0 0 0 94 97 125
-0.261188 -0.0323094 0.0220195 0 0 0 137 148 25
-0.116399 0.0544469 0.0726501 0 0 0 242 243 247
-0.186587 0.0532763 0.0737216 0 0 0 226 229 231
-0.14307 0.0090944 0.0752995 0 0 0 29 34 65
-0.0182549 -0.0200882 0.0746565 0 0 0 105 126 74
-0.137663 -0.0245411 0.0744715 0 0 0 148 153 143
-0.125549 -0.0154407 0.0767706 0 0 0 154 154 144
-0.106038 -0.0229584 0.0769074 0 0 0 143 147 142
-0.257109 -0.023749 0.031843 0 0 0 24 37 115
-0.268025 0.0166536 0.0457294 0 0 0 22 30 108
-0.271532 0.0473103 0.0220289 0 0 0 86 92 97
-0.0846773 0.0410081 0.0785015 0 0 0 122 88 39
-0.217003 0.0129334 0.0717229 0 0 0 46 39 78
-0.0450578 -0.00769436 0.0747753 0 0 0 131 94 22
-0.19248 -0.0301225 0.0733091 0 0 0 129 106 6
-0.25493 -0.0274785 0.0364566 0 0 0 24 42 121
-0.126399 -0.00526217 0.0751372 0 0 0 64 79 114
-0.0581176 0.0331256 0.0770181 0 0 0 69 84 14
-0.276971 0.0204397 0.0168205 0 0 0 146 143 111
-0.240857 0.0425582 0.0631613 0 0 0 157 171 192
-0.0711529 0.0452801 0.0763666 0 0 0 59 84 45
-0.190078 -0.0268348 0.0743791 0 0 0 42 43 33
-0.263641 0.0241569 0.0227353 0 0 0 131 149 38
-0.046569 0.0400023 0.0759098 0 0 0 76 87 19
-0.263606 0.0253001 0.0228297 0 0 0 137 153 43
-0.205875 -0.009461 0.0727749 0 0 0 133 133 114
-0.237343 -0.0117572 0.0649412 0 0 0 18 28 68
-0.145255 -0.0203342 0.0744062 0 0 0 92 98 123
-0.0496801 -0.0236971 0.0736777 0 0 0 143 120 32
-0.142757 0.0276592 0.0752159 0 0 0 151 148 129
-0.210655 0.0449763 0.0725587 0 0 0 155 156 161
-0.262088 0.0364632 0.026241 0 0 0 22 37 106
-0.125676 0.0184397 0.0770942 0 0 0 39 75 93
-0.165697 0.0061757 0.0757878 0 0 0 142 130 120
-0.0689118 0.0238258 0.0773322 0 0 0 75 84 47
-0.0231383 0.0161386 0.0774955 0 0 0 117 132 71
-0.0188211 0.0188291 0.0775897 0 0 0 124 135 79
-0.209171 0.0472828 0.0727086 0 0 0 210 227 230
-0.241944 0.0336979 0.0616575 0 0 0 114 138 167
-0.169998 -0.0163688 0.0746421 0 0 0 30 45 87
-0.111331 -0.00862435 0.0768053 0 0 0 154 153 133
-0.133412 0.0211327 0.0768122 0 0 0 74 94 99
-0.213054 0.0230194 0.073243 0 0 0 118 123 125
-0.147454 -0.0128115 0.0741097 0 0 0 49 63 103
-0.116574 0.0281719 0.0793354 0 0 0 154 156 137
-0.119552 0.00432401 0.0779932 0 0 0 125 131 143
-0.138743 -0.000933444 0.0747191 0 0 0 120 107 129
-0.226551 0.000885271 0.0703128 0 0 0 73 90 105
-0.155251 0.0107446 0.0748907 0 0 0 148 141 121
-0.230941 0.00117727 0.0689336 0 0 0 80 95 121
-0.187407 0.029357 0.0757924 0 0 0 142 127 30
-0.204141 0.00897669 0.0726507 0 0 0 140 128 100
-0.208473 0.00682795 0.0725713 0 0 0 140 132 114
-0.180136 -0.0286976 0.0726604 0 0 0 98 103 42
-0.199995 0.0403331 0.0727465 0 0 0 134 92 33
-0.207195 0.00218936 0.072153 0 0 0 98 103 103
-0.255775 0.053237 0.0399953 0 0 0 97 109 113
-0.126684 -0.0228161 0.0753017 0 0 0 48 42 75
-0.0710059 0.00130892 0.0768971 0 0 0 146 124 79
-0.206846 -0.0220696 0.0725571 0 0 0 13 25 69
-0.160124 0.0204854 0.0763164 0 0 0 142 118 87
-0.0488449 0.0536525 0.0758691 0 0 0 197 213 240
-0.238091 0.00838704 0.0666934 0 0 0 20 38 101
-0.111403 0.0192948 0.0782375 0 0 0 153 152 143
-0.142697 0.0464757 0.0735287 0 0 0 131 64 100
-0.194943 0.000459236 0.0726246 0 0 0 101 95 11
-0.0333022 -0.00823525 0.0748412 0 0 0 39 58 28
-0.186739 0.0150839 0.0770341 0 0 0 124 118 42
-0.186025 0.0186453 0.0765232 0 0 0 120 107 43
-0.0254006 0.00807469 0.0749238 0 0 0 110 131 145
-0.105892 0.0204848 0.0780023 0 0 0 152 153 139
-0.23782 -0.0273904 0.0636504 0 0 0 63 93 135
-0.158547 -0.00617185 0.0749977 0 0 0 129 105 114
-0.13585 -0.0160103 0.0752663 0 0 0 77 110 130
-0.221013 -0.016507 0.0718587 0 0 0 11 24 65
-0.194061 0.00152995 0.0735154 0 0 0 77 76 28
-0.185101 0.00103655 0.0750733 0 0 0 124 111 42
