ply
format ascii 1.0
element vertex 109
property float x
property float y
property float z
property float nx
property float ny
property float nz
property uchar diffuse_red
property uchar diffuse_green
property uchar diffuse_blue
end_header
-0.0213514 0.065068 0.0691027 0 0 0 254 254 254
-0.0255977 0.063445 0.0693036 0 0 0 254 254 254
-0.257253 -0.00356041 0.028251 0 0 0 203 212 60
-0.257825 0.052724 0.0311815 0 0 0 222 233 242
-0.252817 0.0288079 0.0360316 0 0 0 28 51 144
-0.233499 0.0404453 0.0661724 0 0 0 33 45 95
-0.238998 0.0516205 0.0602503 0 0 0 207 224 243
-0.0684932 0.0638379 0.0712671 0 0 0 254 254 254
-0.269676 0.0571096 0.0182385 0 0 0 191 219 209
-0.241999 -0.0290445 0.0554044 0 0 0 90 129 169
-0.111992 0.0628075 0.0699778 0 0 0 247 252 250
-0.241175 -0.0290275 0.0561888 0 0 0 82 106 160
-0.258615 0.00975036 0.0593243 0 0 0 213 220 62
-0.183582 0.0612783 0.068221 0 0 0 233 241 245
-0.266786 -0.0281554 0.0179044 0 0 0 93 110 7
-0.27464 0.039795 0.0159482 0 0 0 140 145 137
-0.104786 0.0567165 0.0716851 0 0 0 214 231 248
-0.0734867 0.0635887 0.070672 0 0 0 254 254 254
-0.229957 0.0394338 0.0668444 0 0 0 42 54 98
-0.152572 0.0446189 0.0697521 0 0 0 125 66 44
-0.122567 0.0419543 0.0708526 0 0 0 61 80 115
-0.104812 0.0554275 0.0717396 0 0 0 207 217 242
-0.275717 0.00312816 0.0157791 0 0 0 149 153 131
-0.142228 0.0127239 0.0732609 0 0 0 17 35 100
-0.223649 0.0373721 0.0674508 0 0 0 52 69 111
-0.104059 -0.022012 0.0744217 0 0 0 120 141 150
-0.260327 -0.0306126 0.0200608 0 0 0 122 151 73
-0.090087 0.0639176 0.0728083 0 0 0 254 254 254
-0.229622 0.0564297 0.0661258 0 0 0 233 242 246
-0.123643 -0.0125714 0.0731582 0 0 0 150 160 163
-0.134411 -0.02255 0.07042 0 0 0 140 157 152
-0.264327 0.0240263 0.0474783 0 0 0 24 46 134
-0.0801804 0.0460372 0.072279 0 0 0 114 88 31
-0.152572 0.0446189 0.0697521 0 0 0 125 66 44
-0.152481 -0.0280069 0.0728912 0 0 0 121 134 146
-0.267168 0.0183786 0.0437342 0 0 0 21 31 120
-0.249094 0.040198 0.0471803 0 0 0 32 54 152
-0.25628 -0.0220749 0.0289265 0 0 0 14 35 129
-0.0802925 -0.00811526 0.0754796 0 0 0 133 128 66
-0.11615 0.0600665 0.068948 0 0 0 245 252 252
-0.216868 0.0432963 0.0694023 0 0 0 57 73 103
-0.0625153 0.0413327 0.0714248 0 0 0 82 98 58
-0.070185 0.0490519 0.0733235 0 0 0 47 79 40
-0.217411 0.0157835 0.0705656 0 0 0 41 41 85
-0.0491933 -0.00457083 0.0744789 0 0 0 123 95 24
-0.256274 0.0064747 0.0617551 0 0 0 210 218 61
-0.125016 -0.00241323 0.072612 0 0 0 62 100 125
-0.0188493 0.0146568 0.0718006 0 0 0 116 134 85
-0.262485 0.0274769 0.0213697 0 0 0 146 167 66
-0.189383 -0.0279737 0.069527 0 0 0 124 118 60
-0.263289 0.053944 0.0203699 0 0 0 194 225 226
-0.264123 0.0539269 0.0195763 0 0 0 171 200 204
-0.18642 -0.0257057 0.0694469 0 0 0 88 84 26
-0.204549 -0.00626176 0.070341 0 0 0 139 138 132
-0.0520719 -0.0224884 0.0700649 0 0 0 136 119 36
-0.236681 -0.0105386 0.0634895 0 0 0 13 24 78
-0.193956 0.0512726 0.0686254 0 0 0 189 204 208
-0.0545563 -0.0264816 0.0707068 0 0 0 137 118 47
-0.0436254 0.0460691 0.0697782 0 0 0 73 93 36
-0.138386 0.0314374 0.0702484 0 0 0 148 155 148
-0.144612 -0.0171071 0.0728107 0 0 0 85 97 130
-0.130451 0.0265966 0.0725738 0 0 0 80 96 89
-0.0172027 -0.0135746 0.070946 0 0 0 106 129 83
-0.200493 0.0544869 0.0677304 0 0 0 230 242 247
-0.162695 0.0102014 0.0732687 0 0 0 132 122 144
-0.10988 -0.00508297 0.0747542 0 0 0 147 159 161
-0.12205 0.0216845 0.0725839 0 0 0 52 65 102
-0.240127 0.0357941 0.060141 0 0 0 104 139 194
-0.181023 0.0423455 0.0690505 0 0 0 139 117 43
-0.240967 0.0346481 0.059411 0 0 0 94 124 185
-0.130427 0.0278532 0.0725207 0 0 0 62 53 75
-0.166668 -0.0129522 0.0708977 0 0 0 29 51 101
-0.110769 0.0308119 0.0730974 0 0 0 149 161 162
-0.26061 0.0378969 0.0225202 0 0 0 22 39 120
-0.16352 0.0575428 0.0695919 0 0 0 251 253 253
-0.211605 0.0250603 0.0700005 0 0 0 115 125 131
-0.146001 -0.00963262 0.0724133 0 0 0 48 67 111
-0.230672 0.00317589 0.0683776 0 0 0 95 106 134
-0.127546 0.0153121 0.073266 0 0 0 92 132 154
-0.22571 0.00316223 0.0689588 0 0 0 73 100 132
-0.236824 0.00987236 0.0634888 0 0 0 22 36 111
-0.113484 0.00776303 0.0746826 0 0 0 142 153 147
-0.207144 0.00656459 0.069851 0 0 0 123 136 129
-0.0785862 0.0567146 0.0703807 0 0 0 214 239 251
-0.115334 0.00772508 0.0729228 0 0 0 121 151 159
-0.183284 0.0327337 0.0702484 0 0 0 132 131 46
-0.207075 0.0100493 0.0697037 0 0 0 135 138 129
-0.179709 -0.0271035 0.0703961 0 0 0 100 111 56
-0.0311154 -0.00348268 0.0722815 0 0 0 37 65 14
-0.204243 -0.0203109 0.0701081 0 0 0 15 28 83
-0.226847 0.0156778 0.0684938 0 0 0 41 78 119
-0.139645 0.000240798 0.0723368 0 0 0 130 141 132
-0.138073 0.00147928 0.0723762 0 0 0 110 126 131
-0.194056 0.00304186 0.0714761 0 0 0 113 94 40
-0.19989 0.0124025 0.069493 0 0 0 136 136 118
-0.0689533 0.00501252 0.073039 0 0 0 138 130 92
-0.157908 0.0236385 0.0728619 0 0 0 137 122 105
-0.192749 -0.00403907 0.0717716 0 0 0 88 108 14
-0.198442 0.042868 0.0690121 0 0 0 130 98 49
-0.103688 0.0309737 0.0729217 0 0 0 142 158 159
-0.182099 0.0184689 0.0708661 0 0 0 125 120 39
-0.106818 0.0219072 0.0746405 0 0 0 141 156 163
-0.21826 -0.0140944 0.0701986 0 0 0 12 23 76
-0.159089 -0.00439625 0.074831 0 0 0 121 112 114
-0.269857 0.0479387 0.0186262 0 0 0 21 30 44
-0.0432546 0.0145197 0.0720585 0 0 0 63 84 32
-0.179412 0.0364114 0.0709475 0 0 0 120 79 58
-0.267602 0.00433651 0.0192905 0 0 0 120 133 27
-0.175337 0.0185525 0.0717736 0 0 0 122 72 36
