ply
format ascii 1.0
element vertex 104
property float x
property float y
property float z
property float nx
property float ny
property float nz
property uchar diffuse_red
property uchar diffuse_green
property uchar diffuse_blue
end_header
-0.0171199 0.0580685 0.071943 0 0 0 252 254 254
-0.25938 -0.00330621 0.0271516 0 0 0 216 212 6
-0.163593 0.0566766 0.0732062 0 0 0 246 249 250
-0.0815162 0.058578 0.0746884 0 0 0 254 254 254
-0.235554 0.0541869 0.0688606 0 0 0 229 232 232
-0.10545 0.0248392 0.0768018 0 0 0 152 155 133
-0.081957 0.0255116 0.078244 0 0 0 139 115 6
-0.233365 0.0396184 0.068108 0 0 0 33 33 84
-0.186672 0.0565681 0.0721541 0 0 0 226 232 235
-0.260091 0.00955322 0.0607771 0 0 0 211 209 53
-0.219235 0.0552935 0.0704393 0 0 0 226 229 231
-0.103354 0.0519173 0.0747699 0 0 0 193 206 215
-0.0999656 0.0492034 0.076559 0 0 0 149 153 153
-0.242519 -0.0295302 0.0592492 0 0 0 67 88 149
-0.270866 -0.0253722 0.0204194 0 0 0 120 133 64
-0.124519 0.0393932 0.0727168 0 0 0 60 72 106
-0.155661 0.0432793 0.0737231 0 0 0 127 61 30
-0.261587 -0.0307506 0.0236004 0 0 0 145 155 21
-0.252816 -0.0141303 0.0414633 0 0 0 214 212 43
-0.144126 0.0110188 0.0761623 0 0 0 28 27 62
-0.138604 -0.0238729 0.0743331 0 0 0 143 151 140
-0.125058 -0.0135807 0.0747263 0 0 0 152 153 134
-0.249984 -0.0132037 0.045487 0 0 0 214 213 9
-0.105308 -0.0212729 0.0767393 0 0 0 138 143 132
-0.226122 0.0348318 0.0707567 0 0 0 31 46 92
-0.267717 0.0180918 0.0468314 0 0 0 28 32 112
-0.0818411 0.042723 0.0756866 0 0 0 113 85 27
-0.257726 -0.0217864 0.0313594 0 0 0 12 29 108
-0.271897 0.0489225 0.0211388 0 0 0 83 93 97
-0.179306 0.0505616 0.0735427 0 0 0 205 217 211
-0.0364934 -0.0124114 0.0754285 0 0 0 68 70 5
-0.191968 -0.028028 0.0736866 0 0 0 126 103 7
-0.245979 -0.00448003 0.0547489 0 0 0 189 199 44
-0.128477 -0.00335486 0.0756796 0 0 0 76 120 142
-0.0191912 -0.00785677 0.0765725 0 0 0 123 129 62
-0.270673 0.0466472 0.0209058 0 0 0 95 99 104
-0.255257 -0.0264855 0.0377581 0 0 0 22 40 123
-0.216836 0.0152163 0.0711445 0 0 0 45 36 78
-0.240827 0.0444758 0.063886 0 0 0 158 165 189
-0.194195 0.0494875 0.071932 0 0 0 192 205 210
-0.0583182 0.035867 0.0757551 0 0 0 62 83 14
-0.0647772 0.0358918 0.0765592 0 0 0 76 84 41
-0.0696598 0.0467133 0.0747757 0 0 0 55 79 33
-0.263277 0.0268595 0.0236326 0 0 0 148 161 44
-0.188978 -0.0259299 0.0737543 0 0 0 87 63 4
-0.264644 0.0257476 0.0237184 0 0 0 132 142 29
-0.276859 0.0400713 0.0178287 0 0 0 139 137 111
-0.0443539 0.0412883 0.0737798 0 0 0 75 86 14
-0.20584 -0.0072244 0.0731215 0 0 0 136 134 115
-0.147401 -0.0182937 0.0757129 0 0 0 80 86 116
-0.237982 -0.0107341 0.0663131 0 0 0 13 23 68
-0.140865 0.0295603 0.0738141 0 0 0 149 149 129
-0.143003 0.0307949 0.0745581 0 0 0 148 147 124
-0.208056 0.0460618 0.0712741 0 0 0 135 112 120
-0.0479035 -0.0226041 0.0742956 0 0 0 141 121 36
-0.276856 -0.0169162 0.0162196 0 0 0 146 152 137
-0.0691726 0.0266476 0.0765159 0 0 0 72 89 22
-0.255318 0.0520402 0.0394039 0 0 0 100 108 114
-0.124048 0.0203692 0.074446 0 0 0 39 71 101
-0.183809 0.0409964 0.0747665 0 0 0 139 101 32
-0.16463 0.00821481 0.0761383 0 0 0 139 119 110
-0.111857 -0.00683082 0.0775204 0 0 0 150 154 137
-0.0183225 0.0227992 0.076146 0 0 0 124 134 66
-0.0790831 -0.0231212 0.0752487 0 0 0 144 134 76
-0.261672 0.0381465 0.0265523 0 0 0 19 42 111
-0.212551 0.0252591 0.0738267 0 0 0 121 123 119
-0.113301 0.0288662 0.0763203 0 0 0 152 156 141
-0.168729 -0.0143734 0.0735772 0 0 0 30 46 89
-0.241978 0.0355816 0.0627715 0 0 0 107 133 170
-0.130226 0.0230671 0.0741545 0 0 0 117 97 139
-0.14738 -0.0109154 0.0743938 0 0 0 47 59 96
-0.231476 0.00231251 0.0697169 0 0 0 91 109 127
-0.226481 0.00316362 0.0702861 0 0 0 85 97 109
-0.258415 0.00389189 0.0636908 0 0 0 203 200 18
-0.155025 0.0127417 0.0741885 0 0 0 147 143 120
-0.185623 0.0315976 0.0743984 0 0 0 135 124 56
-0.118706 0.00494387 0.0766402 0 0 0 113 120 142
-0.139273 -0.000285925 0.0751775 0 0 0 122 130 122
-0.189745 -0.0235215 0.0730469 0 0 0 58 70 30
-0.203726 0.0111431 0.0738077 0 0 0 142 128 96
-0.2375 0.00947513 0.0654806 0 0 0 20 38 97
-0.207088 0.00441636 0.072003 0 0 0 115 114 110
-0.115488 0.00605894 0.0769164 0 0 0 135 145 133
-0.207176 0.0090853 0.070571 0 0 0 136 131 112
-0.206313 -0.0198924 0.0726245 0 0 0 16 22 73
-0.199626 0.042563 0.0709294 0 0 0 133 96 42
-0.0693631 0.00279649 0.074867 0 0 0 146 124 74
-0.159578 0.0224966 0.0768172 0 0 0 141 112 80
-0.181584 -0.0241679 0.0738327 0 0 0 124 101 11
-0.0331098 -0.00707881 0.0745086 0 0 0 38 59 30
-0.107503 0.019869 0.0748599 0 0 0 147 152 135
-0.0675381 -0.011926 0.073773 0 0 0 133 100 17
-0.243065 0.0502538 0.061816 0 0 0 113 109 107
-0.0250955 0.00918805 0.0738595 0 0 0 110 132 143
-0.105546 0.0222851 0.0767016 0 0 0 147 155 140
-0.144154 0.0481683 0.0735553 0 0 0 128 71 112
-0.188679 0.0210154 0.0756024 0 0 0 79 88 21
-0.185809 0.0197532 0.0755436 0 0 0 116 111 24
-0.193938 0.00372589 0.0733476 0 0 0 89 94 46
-0.268442 0.00420429 0.0214427 0 0 0 123 137 16
-0.160571 -0.0040518 0.0757755 0 0 0 133 119 110
-0.270353 0.0329028 0.0211463 0 0 0 96 109 3
-0.0448784 0.012557 0.0759059 0 0 0 65 82 18
-0.221043 -0.0142125 0.0725611 0 0 0 15 20 66
