ply
format ascii 1.0
element vertex 109
property float x
property float y
property float z
property float nx
property float ny
property float nz
property uchar diffuse_red
property uchar diffuse_green
property uchar diffuse_blue
end_header
-0.021168 0.0602017 0.0779845 0 0 0 254 254 254
-0.242112 -0.0309916 0.0560283 0 0 0 208 218 239
-0.260195 0.0193678 0.0555101 0 0 0 68 83 175
-0.254178 0.0315117 0.0350071 0 0 0 49 73 166
-0.244581 0.0462509 0.0550691 0 0 0 250 251 250
-0.0522505 0.0608937 0.0771335 0 0 0 254 254 254
-0.25894 -0.00119016 0.0241122 0 0 0 250 253 79
-0.260519 0.0527099 0.0262418 0 0 0 232 237 243
-0.232662 0.0382714 0.0670291 0 0 0 45 49 107
-0.169737 0.0586465 0.0726729 0 0 0 251 252 252
-0.0798497 0.0249461 0.0785597 0 0 0 150 127 34
-0.0948521 0.0257379 0.0752041 0 0 0 131 138 134
-0.230466 0.0360228 0.0674482 0 0 0 59 58 109
-0.16976 0.054961 0.0721094 0 0 0 250 253 253
-0.25858 0.00234763 0.0588302 0 0 0 239 248 126
-0.266113 -0.0291545 0.0185942 0 0 0 102 127 41
-0.257195 0.000346877 0.0627195 0 0 0 247 253 140
-0.135304 0.0599223 0.0756972 0 0 0 252 253 252
-0.276136 0.0364501 0.0169589 0 0 0 148 152 154
-0.15269 0.0410562 0.0741627 0 0 0 134 64 61
-0.259615 -0.0304974 0.020557 0 0 0 178 199 90
-0.266231 0.0172704 0.0478565 0 0 0 50 66 153
-0.251926 -0.0099385 0.0381869 0 0 0 232 239 89
-0.149977 -0.0318025 0.073185 0 0 0 144 154 152
-0.248781 -0.009885 0.0441085 0 0 0 240 244 98
-0.122628 0.0390151 0.0752224 0 0 0 66 87 126
-0.276136 0.0364501 0.0169589 0 0 0 148 152 154
-0.143241 0.0075343 0.077123 0 0 0 39 31 93
-0.138936 -0.0268335 0.076311 0 0 0 149 169 179
-0.12186 -0.016234 0.0735067 0 0 0 167 168 171
-0.102803 -0.0246673 0.0740873 0 0 0 152 167 164
-0.255336 -0.0195152 0.0263772 0 0 0 15 41 148
-0.0358747 -0.0134831 0.0766776 0 0 0 110 109 39
-0.0213612 -0.0242604 0.0766762 0 0 0 93 124 144
-0.252165 -0.0240583 0.0316482 0 0 0 39 60 154
-0.079255 -0.0133753 0.0777492 0 0 0 151 145 84
-0.215958 0.0380786 0.0707354 0 0 0 82 97 111
-0.240064 -0.00559991 0.0589503 0 0 0 119 123 16
-0.0692522 0.0475144 0.0767824 0 0 0 66 90 63
-0.131104 0.0405944 0.0755796 0 0 0 38 10 84
-0.0801997 0.0442184 0.0739939 0 0 0 138 99 67
-0.259726 0.00825497 0.0247267 0 0 0 248 252 69
-0.215552 0.0127969 0.0702437 0 0 0 51 46 97
-0.145326 -0.0217393 0.0750062 0 0 0 90 100 140
-0.245941 -0.0195594 0.0511217 0 0 0 67 90 42
-0.123104 -0.00645662 0.0765393 0 0 0 37 57 110
-0.244358 0.0320082 0.0546078 0 0 0 236 243 251
-0.0459617 -0.029114 0.0743347 0 0 0 148 130 43
-0.188106 -0.0281441 0.0714808 0 0 0 62 23 8
-0.190435 -0.0304491 0.0702623 0 0 0 120 107 13
-0.206125 -0.0112944 0.0731573 0 0 0 147 145 130
-0.138037 0.0283782 0.0740196 0 0 0 160 161 157
-0.0435741 0.0389753 0.0768072 0 0 0 77 93 37
-0.180548 0.0396055 0.0719373 0 0 0 145 113 37
-0.118379 0.01945 0.0751182 0 0 0 48 93 110
-0.241297 0.0250471 0.0594167 0 0 0 213 231 254
-0.237867 -0.011135 0.0631182 0 0 0 14 24 87
-0.226471 0.00775265 0.0672268 0 0 0 77 95 129
-0.0188243 -0.0142396 0.0778218 0 0 0 123 140 92
-0.117604 -0.0319306 0.0739778 0 0 0 75 75 112
-0.161776 0.00667649 0.074282 0 0 0 145 124 125
-0.0553638 0.028562 0.0791967 0 0 0 78 92 22
-0.181407 -0.0304246 0.0720932 0 0 0 128 120 30
-0.0209919 0.0117403 0.0780942 0 0 0 123 142 89
-0.108307 -0.0288404 0.0737023 0 0 0 117 135 164
-0.23834 0.0055664 0.0622846 0 0 0 26 42 128
-0.108449 -0.00784061 0.0752356 0 0 0 158 168 164
-0.180601 0.0311247 0.0706407 0 0 0 128 114 65
-0.210123 0.023106 0.0700448 0 0 0 128 135 141
-0.167387 -0.0175929 0.0736622 0 0 0 27 43 97
-0.148976 -0.0146355 0.0766902 0 0 0 46 71 126
-0.115677 0.00488882 0.0756379 0 0 0 142 157 168
-0.22983 0.000355832 0.0670677 0 0 0 97 114 144
-0.206832 0.00617807 0.0707963 0 0 0 152 145 140
-0.139582 -0.00205099 0.0750837 0 0 0 125 136 140
-0.22541 -0.000807144 0.0684238 0 0 0 95 117 131
-0.197439 0.0403207 0.0709437 0 0 0 136 95 39
-0.203115 0.00864231 0.0719926 0 0 0 147 135 119
-0.155933 0.0185962 0.0747272 0 0 0 146 124 108
-0.15419 0.0109063 0.0753125 0 0 0 155 151 143
-0.186861 0.0178274 0.0709936 0 0 0 66 90 9
-0.205165 0.00123017 0.0717096 0 0 0 129 122 110
-0.111967 0.0289205 0.0771734 0 0 0 159 168 165
-0.0604463 0.024197 0.0777884 0 0 0 58 84 18
-0.0204889 0.0236186 0.0775121 0 0 0 126 144 102
-0.113707 -0.0214261 0.0751213 0 0 0 26 63 88
-0.0309418 -0.00608534 0.0769739 0 0 0 39 58 34
-0.220561 -0.0245606 0.0697051 0 0 0 10 23 79
-0.127556 0.0505393 0.0748877 0 0 0 238 248 248
-0.101978 0.0276724 0.0755315 0 0 0 157 165 164
-0.208839 0.0471799 0.0720216 0 0 0 248 253 253
-0.194857 0.000460765 0.0732721 0 0 0 117 100 24
-0.0744416 0.0325958 0.0779501 0 0 0 144 120 53
-0.100118 0.0221527 0.0765504 0 0 0 148 163 176
-0.103637 0.0197268 0.0741434 0 0 0 155 164 161
-0.274351 0.0535763 0.0212285 0 0 0 114 110 133
-0.247831 0.00351148 0.0625212 0 0 0 126 125 39
-0.20536 -0.024254 0.0720068 0 0 0 25 34 86
-0.194284 0.0378405 0.0722722 0 0 0 138 106 23
-0.0718783 -0.00230801 0.0795772 0 0 0 154 135 84
-0.267439 0.00760969 0.0198671 0 0 0 144 162 12
-0.19015 0.0483658 0.0722426 0 0 0 249 253 254
-0.252538 0.0513966 0.0423592 0 0 0 251 253 253
-0.167793 0.00381336 0.0735854 0 0 0 148 140 93
-0.158309 -0.00735969 0.0756311 0 0 0 136 119 134
-0.267468 0.0029667 0.0191572 0 0 0 137 151 1
-0.173363 0.012517 0.0722056 0 0 0 130 62 48
-0.181167 -0.00194187 0.0722799 0 0 0 129 118 67
-0.030593 0.0283575 0.0781429 0 0 0 84 97 56
