ply
format ascii 1.0
element vertex 104
property float x
property float y
property float z
property float nx
property float ny
property float nz
property uchar diffuse_red
property uchar diffuse_green
property uchar diffuse_blue
end_header
-0.019671 0.0608918 0.0766019 0 0 0 254 254 254
-0.241894 -0.0309604 0.054659 0 0 0 208 220 241
-0.258993 0.0199625 0.052561 0 0 0 66 83 171
-0.052902 0.0607012 0.0776129 0 0 0 254 254 254
-0.256939 -0.00129678 0.0244319 0 0 0 242 250 97
-0.244953 0.0459575 0.0548746 0 0 0 250 253 252
-0.253928 0.0316246 0.0338645 0 0 0 53 75 166
-0.260253 0.0528557 0.025167 0 0 0 233 238 245
-0.232002 0.0385749 0.0651763 0 0 0 42 51 111
-0.170556 0.057577 0.0709407 0 0 0 249 252 252
-0.225007 0.0557238 0.0676502 0 0 0 251 253 252
-0.171174 0.0548027 0.0713206 0 0 0 250 252 253
-0.0783972 0.02552 0.0767014 0 0 0 149 128 34
-0.0947619 0.0258103 0.074681 0 0 0 130 140 138
-0.228971 0.0361915 0.0664012 0 0 0 74 84 111
-0.267066 -0.0290501 0.017231 0 0 0 101 124 35
-0.0954699 0.0547812 0.0741542 0 0 0 254 254 254
-0.277118 0.0376027 0.0160255 0 0 0 147 154 149
-0.259258 -0.0314867 0.0189367 0 0 0 165 190 76
-0.266021 0.0173165 0.046602 0 0 0 49 66 158
-0.152608 0.0410835 0.0734727 0 0 0 131 68 52
-0.136167 0.0588323 0.0740748 0 0 0 251 253 252
-0.122549 0.0390635 0.0746453 0 0 0 66 86 117
-0.27629 0.0363154 0.0166509 0 0 0 150 151 156
-0.250822 -0.00996788 0.0376756 0 0 0 232 238 101
-0.103349 -0.0273733 0.0736237 0 0 0 135 143 150
-0.143142 0.00755696 0.0763237 0 0 0 36 26 95
-0.138804 -0.0268032 0.0753778 0 0 0 147 168 168
-0.121726 -0.0161769 0.0726894 0 0 0 165 167 170
-0.0357566 -0.0133662 0.0762209 0 0 0 110 108 40
-0.255511 -0.0195813 0.0258889 0 0 0 16 37 141
-0.0800972 -0.0131501 0.0761915 0 0 0 152 145 95
-0.21586 0.0380667 0.0697759 0 0 0 82 97 111
-0.251854 -0.0239283 0.0302692 0 0 0 41 60 158
-0.237967 -0.00962839 0.0603956 0 0 0 6 16 82
-0.0222246 -0.0197705 0.0759142 0 0 0 80 110 86
-0.0705713 0.0470431 0.0778347 0 0 0 69 87 67
-0.131028 0.040634 0.074975 0 0 0 38 13 81
-0.0475221 -0.0290105 0.0734947 0 0 0 152 130 47
-0.0814855 0.0437545 0.0750069 0 0 0 138 100 66
-0.0475093 -0.0262732 0.0739256 0 0 0 152 127 28
-0.215429 0.0127878 0.0691746 0 0 0 51 48 96
-0.239547 0.00430118 0.0609566 0 0 0 33 44 108
-0.14647 -0.0221073 0.0755755 0 0 0 92 99 133
-0.244189 0.0320432 0.0535068 0 0 0 237 243 251
-0.126132 -0.00656103 0.0754556 0 0 0 56 86 117
-0.245712 -0.0195099 0.0497874 0 0 0 76 90 60
-0.110116 0.0431682 0.074854 0 0 0 144 155 141
-0.137944 0.0284188 0.0733331 0 0 0 160 159 156
-0.186495 -0.0280717 0.0703815 0 0 0 68 25 26
-0.205993 -0.011308 0.0720203 0 0 0 147 143 133
-0.180456 0.0396187 0.0711281 0 0 0 142 114 41
-0.0435025 0.0390845 0.0765503 0 0 0 78 92 37
-0.241141 0.0250635 0.0582974 0 0 0 212 230 254
-0.180048 -0.0312254 0.0692108 0 0 0 105 108 51
-0.273277 -0.00759417 0.015765 0 0 0 173 175 153
-0.118939 0.0192498 0.0751991 0 0 0 45 89 108
-0.0179703 -0.0125207 0.0769914 0 0 0 126 143 92
-0.161665 0.00669577 0.0734038 0 0 0 145 128 121
-0.0552926 0.0286506 0.078846 0 0 0 76 92 29
-0.180496 0.0311437 0.0697939 0 0 0 133 119 52
-0.0179369 0.0226425 0.0767291 0 0 0 129 144 82
-0.10833 -0.00777964 0.0745096 0 0 0 158 166 159
-0.220482 0.0101938 0.0680172 0 0 0 123 138 150
-0.167252 -0.0175755 0.0726544 0 0 0 25 43 97
-0.210581 0.0228194 0.0698488 0 0 0 129 134 143
-0.229689 -0.000796296 0.0657058 0 0 0 114 117 144
-0.197344 0.0403238 0.0700691 0 0 0 136 93 31
-0.148856 -0.0146156 0.0757701 0 0 0 45 72 130
-0.225268 -0.000816532 0.0672549 0 0 0 94 115 137
-0.139472 -0.00326818 0.0740599 0 0 0 138 143 150
-0.207284 0.00591831 0.070538 0 0 0 148 146 139
-0.15472 0.00944444 0.0750453 0 0 0 153 149 143
-0.113054 0.00488176 0.0760082 0 0 0 146 156 174
-0.155834 0.0186184 0.0739252 0 0 0 148 124 96
-0.186746 0.0178396 0.0700629 0 0 0 66 89 10
-0.202415 0.00889516 0.0701555 0 0 0 147 138 120
-0.205618 0.000975824 0.0714348 0 0 0 131 123 122
-0.111887 0.0289695 0.076595 0 0 0 159 167 158
-0.1535 0.0424691 0.0727995 0 0 0 133 66 61
-0.13245 0.0518379 0.0724423 0 0 0 233 252 254
-0.0293834 -0.00556768 0.0752333 0 0 0 39 65 34
-0.220403 -0.0245712 0.0684512 0 0 0 13 23 78
-0.0603654 0.0242876 0.0773979 0 0 0 57 84 15
-0.235972 0.00900452 0.0623875 0 0 0 31 46 131
-0.100553 0.0282579 0.0735606 0 0 0 155 163 174
-0.208181 0.047489 0.0703311 0 0 0 249 253 253
-0.194736 0.000456235 0.0722325 0 0 0 116 101 17
-0.10003 0.0222147 0.0759901 0 0 0 146 163 170
-0.269991 0.0310726 0.0206812 0 0 0 106 128 8
-0.266622 0.00803902 0.0176704 0 0 0 145 162 11
-0.103537 0.0197964 0.0735583 0 0 0 154 165 159
-0.0710845 -0.00202225 0.0783308 0 0 0 155 133 86
-0.274059 0.0548904 0.0202838 0 0 0 98 79 78
-0.205212 -0.0242617 0.0708159 0 0 0 25 34 85
-0.267124 0.00429827 0.018018 0 0 0 137 151 15
-0.194197 0.0366485 0.0712119 0 0 0 139 109 38
-0.025131 0.00731715 0.0771693 0 0 0 110 134 143
-0.166445 0.00431525 0.0711321 0 0 0 147 137 99
-0.0236708 0.0091524 0.0760645 0 0 0 115 145 150
-0.17264 0.012792 0.0705326 0 0 0 130 62 45
-0.156679 -0.00725866 0.0748012 0 0 0 139 132 132
-0.0305175 0.0284721 0.0778918 0 0 0 82 98 58
-0.18104 -0.00193027 0.0712853 0 0 0 127 118 64
