ply
format ascii 1.0
element vertex 99
property float x
property float y
property float z
property float nx
property float ny
property float nz
property uchar diffuse_red
property uchar diffuse_green
property uchar diffuse_blue
end_header
-0.0244601 0.0593794 0.0796747 0 0 0 254 254 254
-0.242288 -0.0308379 0.0562433 0 0 0 218 231 244
-0.259851 0.0198216 0.0554144 0 0 0 73 87 175
-0.256998 -0.00189559 0.0252084 0 0 0 244 252 98
-0.0544556 0.0598933 0.0799324 0 0 0 254 254 254
-0.244738 0.046411 0.0560829 0 0 0 249 251 250
-0.255723 0.0317145 0.0359568 0 0 0 52 75 168
-0.260247 0.0535056 0.0264779 0 0 0 232 237 244
-0.232254 0.0386238 0.0671077 0 0 0 45 53 106
-0.168044 0.0595921 0.0713607 0 0 0 250 252 253
-0.0776285 0.0251793 0.0785408 0 0 0 149 127 35
-0.0949734 0.0256567 0.075697 0 0 0 129 139 138
-0.230056 0.0363662 0.0675012 0 0 0 59 64 114
-0.266365 -0.0286105 0.0188797 0 0 0 110 128 22
-0.265914 0.0178005 0.0477407 0 0 0 50 66 157
-0.153712 0.0411457 0.0740698 0 0 0 132 68 68
-0.276358 0.0393238 0.0183175 0 0 0 153 155 157
-0.122745 0.0389396 0.0759092 0 0 0 74 94 122
-0.246583 0.0116317 0.0643255 0 0 0 223 237 251
-0.223291 0.0551357 0.0686215 0 0 0 251 253 253
-0.142094 0.00793809 0.0760314 0 0 0 40 32 91
-0.258284 0.038736 0.0274976 0 0 0 45 67 160
-0.102939 -0.0247325 0.0740787 0 0 0 149 168 170
-0.139069 -0.0269129 0.0763547 0 0 0 147 167 170
-0.0360032 -0.0135913 0.0766457 0 0 0 110 109 34
-0.123952 -0.0169063 0.0758377 0 0 0 166 168 174
-0.256068 -0.0192754 0.0276244 0 0 0 18 39 145
-0.0214925 -0.0243715 0.0765036 0 0 0 95 127 149
-0.0190362 -0.0269909 0.0756834 0 0 0 95 123 159
-0.215812 0.0388348 0.0691745 0 0 0 94 86 112
-0.131984 0.0558693 0.0737296 0 0 0 250 252 253
-0.132143 0.0406674 0.075419 0 0 0 19 18 89
-0.238303 -0.00954419 0.0620808 0 0 0 9 16 95
-0.252895 -0.0238664 0.0328363 0 0 0 43 61 155
-0.0683838 0.04725 0.0783832 0 0 0 69 93 67
-0.217092 0.0126603 0.0708629 0 0 0 46 39 103
-0.0803187 0.0441452 0.0746466 0 0 0 138 101 52
-0.239329 0.00464781 0.0618897 0 0 0 31 42 104
-0.246429 -0.0189951 0.0498094 0 0 0 74 94 47
-0.123231 -0.00654315 0.0767597 0 0 0 31 61 119
-0.188257 -0.0293492 0.0714188 0 0 0 111 65 10
-0.079346 0.0439867 0.0755758 0 0 0 137 102 57
-0.126374 -0.00668507 0.0764737 0 0 0 52 82 125
-0.243997 0.0324813 0.0546264 0 0 0 243 251 253
-0.205106 -0.0108604 0.0718854 0 0 0 148 148 140
-0.0415681 0.039658 0.0753064 0 0 0 78 92 37
-0.133685 0.0124503 0.0765299 0 0 0 101 135 151
-0.138794 0.028045 0.0753729 0 0 0 161 161 158
-0.120084 0.0192707 0.0754358 0 0 0 44 90 111
-0.24145 0.0251628 0.0602057 0 0 0 192 219 253
-0.180077 0.0398808 0.0719717 0 0 0 144 114 46
-0.162793 0.00676647 0.0738675 0 0 0 145 128 135
-0.0167522 -0.0123871 0.0759845 0 0 0 126 142 89
-0.0554762 0.0284302 0.0796369 0 0 0 77 91 34
-0.107253 -0.00748675 0.0739605 0 0 0 157 166 164
-0.0196403 0.0148775 0.0774259 0 0 0 121 140 86
-0.220757 0.00905902 0.0695227 0 0 0 125 135 146
-0.210256 0.0231053 0.0707489 0 0 0 128 138 147
-0.18073 0.0311104 0.0713663 0 0 0 132 114 54
-0.199006 0.0401375 0.0717679 0 0 0 137 85 33
-0.166909 -0.017425 0.0730857 0 0 0 28 44 97
-0.148473 -0.0145023 0.0761235 0 0 0 49 73 127
-0.20754 0.00590981 0.0721262 0 0 0 150 146 143
-0.139073 -0.00188821 0.0746349 0 0 0 121 138 137
-0.231352 0.000270254 0.0676179 0 0 0 100 135 164
-0.11328 0.0047403 0.0770134 0 0 0 146 158 179
-0.154323 0.00960482 0.0755739 0 0 0 154 151 141
-0.225544 0.000361241 0.0691014 0 0 0 91 109 136
-0.156057 0.0185347 0.075273 0 0 0 148 123 104
-0.187863 0.0179535 0.0707639 0 0 0 63 83 9
-0.20267 0.00888366 0.0717313 0 0 0 148 140 122
-0.110767 0.0293603 0.0762899 0 0 0 160 166 160
-0.205875 0.000960356 0.0729839 0 0 0 130 117 108
-0.250693 0.0532523 0.0470863 0 0 0 252 253 253
-0.0605626 0.0240812 0.0781943 0 0 0 58 83 24
-0.0296274 -0.00579398 0.0756649 0 0 0 40 64 36
-0.183803 0.0152574 0.0729142 0 0 0 106 97 25
-0.208393 0.0474819 0.0721688 0 0 0 247 253 253
-0.236814 0.00880348 0.0650081 0 0 0 33 48 129
-0.102098 0.0275894 0.076059 0 0 0 155 162 168
-0.222661 -0.024847 0.0707968 0 0 0 13 22 79
-0.124003 -0.0245131 0.0745947 0 0 0 66 74 127
-0.193815 0.000921017 0.0721215 0 0 0 105 101 42
-0.100255 0.0194483 0.0765906 0 0 0 152 163 166
-0.104425 0.0194061 0.0753122 0 0 0 154 162 166
-0.205501 -0.0242735 0.0722143 0 0 0 27 33 84
-0.0745554 0.0324812 0.0784712 0 0 0 143 123 48
-0.068234 0.00094909 0.0783193 0 0 0 153 134 85
-0.274576 0.0540908 0.022381 0 0 0 113 109 131
-0.267198 0.00840462 0.0196362 0 0 0 148 164 6
-0.196718 0.0377883 0.0722348 0 0 0 138 83 34
-0.0206157 0.0220875 0.0775994 0 0 0 125 144 108
-0.267702 0.00466241 0.0199649 0 0 0 139 152 5
-0.190279 0.0471381 0.0729691 0 0 0 209 244 250
-0.168799 0.0051283 0.0733581 0 0 0 150 139 87
-0.174367 0.0138428 0.0720813 0 0 0 128 63 40
-0.26991 -0.00226574 0.0181226 0 0 0 144 155 35
-0.158446 -0.00865313 0.0757148 0 0 0 132 118 125
-0.180694 -0.000528389 0.0720788 0 0 0 128 116 77
