ply
format ascii 1.0
element vertex 103
property float x
property float y
property float z
property float nx
property float ny
property float nz
property uchar diffuse_red
property uchar diffuse_green
property uchar diffuse_blue
end_header
-0.0197925 0.0606506 0.076694 0 0 0 254 254 254
-0.241996 -0.0301118 0.0554368 0 0 0 210 222 241
-0.259904 0.0204027 0.0547067 0 0 0 66 85 177
-0.2567 -0.000946272 0.0266884 0 0 0 241 249 114
-0.244695 0.0469432 0.0550395 0 0 0 250 253 251
-0.254339 0.0321656 0.0350289 0 0 0 50 74 171
-0.0530202 0.0606288 0.0778243 0 0 0 254 254 254
-0.260102 0.0536768 0.0252979 0 0 0 233 239 244
-0.232267 0.0392663 0.0662047 0 0 0 44 47 109
-0.22463 0.0567302 0.0676923 0 0 0 251 253 253
-0.0786871 0.0255648 0.0772921 0 0 0 149 127 32
-0.0950573 0.0259176 0.0753274 0 0 0 128 138 137
-0.230626 0.0367067 0.0674646 0 0 0 57 58 112
-0.168609 0.0585084 0.0709117 0 0 0 249 252 252
-0.266506 -0.0285152 0.018841 0 0 0 102 127 43
-0.136305 0.059133 0.0745968 0 0 0 250 252 252
-0.260025 -0.0310394 0.0206389 0 0 0 168 189 78
-0.266955 0.0177459 0.048806 0 0 0 52 65 157
-0.152834 0.0414595 0.0741988 0 0 0 132 68 54
-0.150408 -0.0314126 0.0734997 0 0 0 144 154 147
-0.12278 0.039304 0.0752813 0 0 0 65 86 110
-0.251419 -0.00940872 0.0391705 0 0 0 234 237 103
-0.276751 0.0356656 0.0176843 0 0 0 154 149 146
-0.225736 0.0255722 0.0707291 0 0 0 119 145 115
-0.143519 0.0079121 0.0772913 0 0 0 37 27 98
-0.123539 -0.0163396 0.0752542 0 0 0 164 168 165
-0.0362356 -0.0135295 0.0769797 0 0 0 114 110 47
-0.139992 -0.0266566 0.0773637 0 0 0 147 165 171
-0.256196 -0.0190957 0.0274797 0 0 0 15 39 151
-0.103877 -0.024637 0.0751237 0 0 0 150 167 167
-0.0217647 -0.0243638 0.0770266 0 0 0 93 125 141
-0.216112 0.0387179 0.0707511 0 0 0 80 95 122
-0.252544 -0.0234242 0.0318826 0 0 0 42 58 157
-0.132812 0.0407814 0.0754826 0 0 0 20 23 86
-0.070754 0.0470584 0.0782208 0 0 0 64 90 70
-0.238482 -0.00894516 0.0618411 0 0 0 7 20 73
-0.0463829 -0.0291293 0.0746913 0 0 0 148 130 54
-0.274786 -0.00813204 0.016346 0 0 0 166 170 155
-0.0816939 0.0437995 0.0754589 0 0 0 138 101 50
-0.215805 0.0134331 0.0703558 0 0 0 51 45 93
-0.239992 0.00499602 0.0622933 0 0 0 37 46 107
-0.101543 -0.0192243 0.0753535 0 0 0 154 159 180
-0.0784057 0.0426956 0.0757219 0 0 0 135 104 59
-0.0480582 -0.0263979 0.0748321 0 0 0 150 127 27
-0.246311 -0.0188758 0.0513419 0 0 0 73 88 52
-0.244527 0.0326981 0.0546326 0 0 0 238 243 252
-0.123436 -0.00616013 0.076771 0 0 0 45 57 114
-0.125927 -0.00608613 0.0757396 0 0 0 57 85 117
-0.114021 -0.0134694 0.0765624 0 0 0 28 75 143
-0.187063 -0.0275543 0.0717957 0 0 0 68 25 22
-0.138231 0.0287234 0.0741112 0 0 0 157 159 155
-0.0437284 0.0389589 0.0769059 0 0 0 80 92 40
-0.206474 -0.0106838 0.0733659 0 0 0 147 143 140
-0.241496 0.0257433 0.0594694 0 0 0 211 231 254
-0.118608 0.0197221 0.0752536 0 0 0 57 89 106
-0.0187918 0.0104955 0.0777521 0 0 0 128 146 99
-0.180696 0.04011 0.0719651 0 0 0 144 117 43
-0.162055 0.00711644 0.0744444 0 0 0 147 129 123
-0.0169646 -0.0109936 0.0765614 0 0 0 126 146 91
-0.0555602 0.0286013 0.079329 0 0 0 79 91 36
-0.221446 0.00944216 0.0698875 0 0 0 128 130 146
-0.108787 -0.00760677 0.0754799 0 0 0 158 165 161
-0.167762 -0.0171329 0.0739141 0 0 0 28 42 97
-0.18199 0.0298623 0.0720861 0 0 0 146 135 62
-0.210336 0.02372 0.0701204 0 0 0 127 132 148
-0.148706 -0.0140347 0.0761823 0 0 0 50 68 128
-0.230131 0.0010364 0.0672201 0 0 0 89 112 147
-0.225715 -0.000138798 0.0685829 0 0 0 96 115 134
-0.139909 -0.00294884 0.0751036 0 0 0 141 148 149
-0.207111 0.00678218 0.0709379 0 0 0 147 145 140
-0.113444 0.00508917 0.0768913 0 0 0 148 157 180
-0.197584 0.0408879 0.0709601 0 0 0 135 91 37
-0.187094 0.0183535 0.0711009 0 0 0 67 91 15
-0.156165 0.0190147 0.0748472 0 0 0 148 123 104
-0.155718 0.00960622 0.0767989 0 0 0 153 151 140
-0.206043 0.00159284 0.0726782 0 0 0 129 121 117
-0.202805 0.00948588 0.0713225 0 0 0 147 134 113
-0.22096 -0.0239061 0.0699569 0 0 0 14 22 76
-0.110839 0.0296871 0.0758276 0 0 0 159 166 161
-0.0298286 -0.00577017 0.0759056 0 0 0 40 61 36
-0.060659 0.024251 0.0779348 0 0 0 64 85 20
-0.236401 0.00854916 0.0635025 0 0 0 30 49 127
-0.208957 0.047796 0.0720062 0 0 0 247 253 253
-0.102176 0.0278813 0.0756439 0 0 0 155 165 166
-0.128308 0.0505556 0.0756354 0 0 0 234 247 241
-0.193981 0.00149707 0.0718473 0 0 0 116 102 11
-0.274419 0.0542568 0.0211564 0 0 0 115 109 133
-0.100338 0.0223583 0.0766847 0 0 0 148 162 173
-0.153734 0.0415977 0.0733318 0 0 0 132 67 50
-0.103866 0.0199371 0.0742852 0 0 0 155 164 163
-0.0684163 0.00115136 0.0783658 0 0 0 155 133 91
-0.20576 -0.0236506 0.072265 0 0 0 23 33 83
-0.267687 0.00825856 0.0199734 0 0 0 145 164 8
-0.0721963 -0.00220173 0.0798187 0 0 0 154 135 85
-0.267722 0.00477442 0.0194542 0 0 0 135 150 9
-0.195302 0.0385327 0.0714693 0 0 0 137 95 39
-0.0207184 0.0221025 0.0774704 0 0 0 126 142 108
-0.168083 0.00427443 0.0737557 0 0 0 148 141 84
-0.0715546 -0.00735142 0.0783239 0 0 0 153 133 85
-0.173619 0.0129947 0.07234 0 0 0 130 64 50
-0.157131 -0.00684998 0.0759385 0 0 0 139 130 134
-0.190263 0.0489091 0.0722321 0 0 0 248 253 254
-0.0414044 0.0129723 0.0783986 0 0 0 65 90 33
