ply
format ascii 1.0
element vertex 108
property float x
property float y
property float z
property float nx
property float ny
property float nz
property uchar diffuse_red
property uchar diffuse_green
property uchar diffuse_blue
end_header
-0.242887 -0.0372883 0.0566512 0 0 0 227 240 245
-0.0236318 0.0547595 0.0807045 0 0 0 254 254 254
-0.027834 0.0544318 0.0807733 0 0 0 254 254 254
-0.0987461 0.0519476 0.0775701 0 0 0 254 254 254
-0.0954629 0.054575 0.0786317 0 0 0 253 254 254
-0.256654 -0.00831394 0.0336914 0 0 0 230 242 129
-0.258073 0.0127458 0.0635033 0 0 0 116 137 206
-0.256206 0.0476232 0.0360521 0 0 0 223 233 244
-0.247851 0.0392975 0.0534494 0 0 0 174 198 235
-0.256077 0.024577 0.0358036 0 0 0 46 68 156
-0.234367 0.0326185 0.0706095 0 0 0 34 42 104
-0.0971425 0.017568 0.0814788 0 0 0 129 146 163
-0.0546504 0.054221 0.0800765 0 0 0 254 254 254
-0.231915 0.0492855 0.0717072 0 0 0 232 243 246
-0.264427 -0.0369473 0.022796 0 0 0 118 138 55
-0.26519 -0.0334534 0.0229694 0 0 0 118 134 68
-0.267342 0.0127398 0.0487141 0 0 0 36 56 148
-0.260146 -0.0374269 0.0240169 0 0 0 157 177 85
-0.169379 0.0470498 0.0768548 0 0 0 233 241 246
-0.158274 0.0353575 0.0789595 0 0 0 129 68 61
-0.0186421 -0.0258979 0.0814325 0 0 0 93 126 114
-0.126957 0.0331621 0.0791591 0 0 0 71 80 125
-0.0260863 -0.0262077 0.0826024 0 0 0 100 124 113
-0.14693 -0.0330614 0.0777434 0 0 0 119 141 181
-0.035033 -0.0143936 0.0812205 0 0 0 41 58 24
-0.0289897 -0.0214453 0.0810113 0 0 0 81 109 84
-0.126234 -0.0210287 0.0798316 0 0 0 159 167 177
-0.14319 0.00385142 0.078317 0 0 0 38 36 92
-0.140514 -0.0301401 0.0805294 0 0 0 153 164 168
-0.253556 -0.0278642 0.0358493 0 0 0 37 55 147
-0.107857 -0.0294081 0.0813898 0 0 0 144 161 177
-0.245772 0.0278867 0.0553301 0 0 0 244 254 254
-0.255783 -0.0243306 0.031748 0 0 0 35 50 138
-0.0909366 0.0406574 0.0794003 0 0 0 107 82 64
-0.218349 0.0331573 0.0750562 0 0 0 72 82 116
-0.134728 0.0341377 0.0789226 0 0 0 59 57 104
-0.238715 -0.015376 0.0650935 0 0 0 15 23 74
-0.242477 0.00185814 0.0659489 0 0 0 32 52 128
-0.191229 -0.0337877 0.0782955 0 0 0 76 73 21
-0.125643 -0.0107531 0.0802701 0 0 0 40 50 92
-0.136968 0.0074716 0.0796715 0 0 0 89 127 154
-0.266883 0.0411308 0.0252972 0 0 0 36 29 51
-0.0738174 0.0412505 0.0806655 0 0 0 59 90 49
-0.114043 -0.0332772 0.0814301 0 0 0 122 145 164
-0.219104 0.00786409 0.0747724 0 0 0 49 47 100
-0.0544175 0.0263666 0.0815116 0 0 0 79 97 41
-0.123345 0.0146455 0.079244 0 0 0 82 116 138
-0.0473517 0.0342456 0.0805411 0 0 0 82 101 68
-0.248121 -0.0254019 0.0518029 0 0 0 82 83 78
-0.183809 0.033545 0.0762466 0 0 0 139 115 54
-0.146445 0.022604 0.0800699 0 0 0 152 156 154
-0.142121 0.0220589 0.0784651 0 0 0 156 163 155
-0.207827 -0.014918 0.0755476 0 0 0 143 140 134
-0.141974 -0.00683964 0.0795404 0 0 0 120 133 153
-0.165667 0.00193188 0.0785746 0 0 0 141 137 147
-0.0794728 -0.0315933 0.0787166 0 0 0 132 138 116
-0.132696 0.0157321 0.0789122 0 0 0 89 110 112
-0.224748 0.00218455 0.0734422 0 0 0 88 105 137
-0.265815 0.0336917 0.025809 0 0 0 116 145 56
-0.0898258 -0.0367936 0.0785953 0 0 0 71 102 141
-0.119017 6.05339e-05 0.0796418 0 0 0 139 158 180
-0.0515082 -0.0255145 0.0806612 0 0 0 140 123 32
-0.0712412 -0.018852 0.0815961 0 0 0 147 127 65
-0.170195 -0.0231988 0.07891 0 0 0 35 55 104
-0.243579 0.0241782 0.0593525 0 0 0 206 232 249
-0.0457433 -0.0281296 0.0799237 0 0 0 143 124 26
-0.0176352 0.0396137 0.0783157 0 0 0 138 168 134
-0.151268 -0.0201516 0.0811688 0 0 0 56 73 126
-0.115101 -0.0140068 0.0826231 0 0 0 155 166 168
-0.213615 0.0174362 0.0755531 0 0 0 124 140 157
-0.184308 0.0235425 0.0759703 0 0 0 137 139 10
-0.158502 0.0123739 0.0783769 0 0 0 145 135 113
-0.156846 0.00605008 0.0783333 0 0 0 153 155 148
-0.209711 0.00194169 0.0752949 0 0 0 141 149 146
-0.18317 0.0361536 0.0761364 0 0 0 133 94 42
-0.201981 0.0339351 0.0756333 0 0 0 136 98 56
-0.129106 0.0469315 0.0778322 0 0 0 237 247 249
-0.108989 -0.0136408 0.0815867 0 0 0 151 167 164
-0.113573 0.0246336 0.0786329 0 0 0 155 167 168
-0.232545 -0.00433756 0.0712031 0 0 0 109 132 160
-0.204846 0.00456414 0.0750563 0 0 0 145 139 132
-0.228178 -0.00469317 0.0725403 0 0 0 88 113 137
-0.208107 -0.00182574 0.0758743 0 0 0 135 155 156
-0.0574875 -0.0224766 0.0798748 0 0 0 140 124 50
-0.17331 -0.018161 0.0786084 0 0 0 38 52 106
-0.0674919 0.0150428 0.0799578 0 0 0 86 107 48
-0.0710156 -0.00198662 0.0805636 0 0 0 151 140 107
-0.111384 0.0132686 0.0806324 0 0 0 155 165 170
-0.105651 0.0142721 0.0822429 0 0 0 152 164 162
-0.209502 0.041305 0.0744778 0 0 0 222 239 246
-0.197082 -0.00341488 0.0777147 0 0 0 116 125 41
-0.0189607 0.00656313 0.0797028 0 0 0 127 150 104
-0.222537 -0.0240266 0.0743998 0 0 0 14 24 78
-0.18524 0.0082613 0.0767282 0 0 0 121 129 37
-0.240278 0.041288 0.0656748 0 0 0 231 242 248
-0.0991645 -0.0294718 0.081345 0 0 0 143 155 156
-0.19037 0.0128899 0.0771938 0 0 0 77 93 39
-0.0748897 -0.00896593 0.0806253 0 0 0 147 133 81
-0.194721 -0.0130272 0.0774956 0 0 0 88 104 34
-0.206731 -0.0281517 0.0759836 0 0 0 29 43 94
-0.259865 0.0307432 0.0280146 0 0 0 35 57 147
-0.0318006 -0.0114139 0.0809 0 0 0 56 86 70
-0.267104 0.00195042 0.0233014 0 0 0 136 160 52
-0.195071 -0.00424539 0.0766171 0 0 0 93 96 59
-0.267668 -0.00271118 0.022945 0 0 0 132 146 17
-0.10722 -0.0177956 0.0822256 0 0 0 149 163 165
-0.0235402 0.0181465 0.0796919 0 0 0 126 146 107
-0.0472363 0.00261653 0.0808657 0 0 0 68 88 43
