ply
format ascii 1.0
element vertex 102
property float x
property float y
property float z
property float nx
property float ny
property float nz
property uchar diffuse_red
property uchar diffuse_green
property uchar diffuse_blue
end_header
-0.01839 0.0581023 0.0730729 0 0 0 252 254 254
-0.257677 -0.00431859 0.0257551 0 0 0 206 204 24
-0.163377 0.0559765 0.0720455 0 0 0 245 247 249
-0.233927 0.0531114 0.0671436 0 0 0 227 230 229
-0.233962 0.0519902 0.0670915 0 0 0 231 232 230
-0.105747 0.0244307 0.0765232 0 0 0 153 157 135
-0.0815882 0.0252664 0.0773855 0 0 0 139 117 2
-0.104729 0.051564 0.073813 0 0 0 195 205 220
-0.233012 0.0385368 0.0663863 0 0 0 35 34 86
-0.10066 0.0489311 0.0748691 0 0 0 151 155 155
-0.2665 -0.0312015 0.0183174 0 0 0 104 116 29
-0.243321 -0.0304797 0.0554493 0 0 0 102 107 154
-0.194629 0.0533515 0.0699423 0 0 0 224 230 230
-0.189361 0.055693 0.0708409 0 0 0 226 229 231
-0.242507 -0.0305408 0.0562198 0 0 0 86 99 144
-0.124197 0.0389311 0.0716845 0 0 0 59 74 104
-0.155368 0.0426236 0.0725199 0 0 0 126 63 41
-0.143008 0.010429 0.0740439 0 0 0 27 24 58
-0.123727 0.0540264 0.0723851 0 0 0 242 247 250
-0.12443 -0.0140578 0.0733232 0 0 0 150 153 136
-0.260527 -0.0316879 0.0212136 0 0 0 143 155 37
-0.137911 -0.0244279 0.0727727 0 0 0 144 151 141
-0.249955 -0.0130307 0.04257 0 0 0 205 202 18
-0.252005 -0.0162747 0.039194 0 0 0 213 223 45
-0.103287 -0.0217171 0.0739399 0 0 0 137 144 137
-0.225756 0.0337753 0.0690476 0 0 0 34 43 89
-0.267098 0.0169537 0.0447432 0 0 0 30 34 115
-0.08156 0.0424956 0.0749482 0 0 0 115 84 29
-0.256769 -0.0227551 0.0290589 0 0 0 13 28 117
-0.0990157 0.0580871 0.0738264 0 0 0 254 254 254
-0.271302 0.0479373 0.0192389 0 0 0 84 92 98
-0.179239 0.0438367 0.0719646 0 0 0 134 98 45
-0.0344199 -0.0124043 0.0732231 0 0 0 67 67 10
-0.127916 -0.00385947 0.0743257 0 0 0 76 120 138
-0.254312 -0.0274838 0.0354405 0 0 0 23 40 120
-0.275727 -0.0144794 0.0139905 0 0 0 148 146 129
-0.192091 -0.0288342 0.0709566 0 0 0 125 105 13
-0.216931 0.0141939 0.0701907 0 0 0 42 36 77
-0.0693975 0.046565 0.0741424 0 0 0 56 80 42
-0.0579972 0.0357802 0.0751185 0 0 0 62 83 21
-0.240476 0.0433787 0.0621507 0 0 0 160 166 190
-0.0473053 -0.0253256 0.0731941 0 0 0 142 120 23
-0.0727987 0.035882 0.0748719 0 0 0 117 91 19
-0.262565 0.0259094 0.0216344 0 0 0 149 161 31
-0.18823 -0.0256099 0.0719142 0 0 0 46 43 27
-0.263432 0.0248259 0.0207951 0 0 0 133 141 24
-0.205824 -0.00815667 0.0720706 0 0 0 139 133 114
-0.0440535 0.0412987 0.0732695 0 0 0 75 86 17
-0.047221 -0.0226159 0.0733199 0 0 0 142 121 28
-0.237314 -0.0118287 0.064213 0 0 0 13 25 69
-0.146749 -0.0189112 0.0741351 0 0 0 81 85 113
-0.140491 0.0289931 0.0726097 0 0 0 148 148 128
-0.143933 0.030124 0.0748779 0 0 0 148 143 127
-0.275809 0.0400912 0.0175918 0 0 0 139 141 107
-0.211103 0.0473145 0.070762 0 0 0 187 202 196
-0.248552 0.0374518 0.0516417 0 0 0 31 52 130
-0.164141 0.00749008 0.0746349 0 0 0 139 119 110
-0.0736909 -0.023619 0.0730198 0 0 0 142 113 45
-0.109937 -0.00727762 0.0747709 0 0 0 149 153 138
-0.0688002 0.0264909 0.0757465 0 0 0 75 91 20
-0.0784023 -0.0233262 0.0740713 0 0 0 146 135 78
-0.261876 0.0372474 0.0238576 0 0 0 24 38 97
-0.21273 0.0242266 0.0729637 0 0 0 120 123 120
-0.241566 0.0344858 0.0609672 0 0 0 109 134 167
-0.168049 -0.0139048 0.071947 0 0 0 31 47 86
-0.251052 0.0547793 0.0468103 0 0 0 104 113 119
-0.0804962 0.054354 0.0747791 0 0 0 233 249 254
-0.131376 0.0225987 0.0728721 0 0 0 67 69 104
-0.113612 0.0284076 0.0760259 0 0 0 151 156 136
-0.274319 0.0195768 0.0172786 0 0 0 146 146 126
-0.146765 -0.0115239 0.0728674 0 0 0 50 60 91
-0.225357 0.00210907 0.0675128 0 0 0 84 96 124
-0.230908 0.0012326 0.0677484 0 0 0 90 109 123
-0.138727 -0.000851795 0.0737763 0 0 0 120 125 133
-0.154551 0.0120879 0.0727776 0 0 0 148 140 119
-0.11887 0.0044876 0.0761499 0 0 0 116 121 146
-0.185263 0.0307583 0.072924 0 0 0 135 123 50
-0.023118 0.0160713 0.0761481 0 0 0 119 128 43
-0.204074 0.0102632 0.0712851 0 0 0 136 124 98
-0.25421 0.0518716 0.0410136 0 0 0 100 112 112
-0.206655 0.00814462 0.0688038 0 0 0 136 130 110
-0.236913 0.0095095 0.0635758 0 0 0 23 38 99
-0.205043 -0.0208794 0.0698397 0 0 0 14 25 71
-0.14081 0.0475874 0.0726221 0 0 0 133 77 119
-0.0438947 0.0550516 0.072275 0 0 0 201 220 236
-0.197873 0.0416643 0.0694255 0 0 0 132 92 42
-0.0688365 0.00265118 0.0739311 0 0 0 147 124 77
-0.159179 0.0217968 0.075445 0 0 0 140 114 73
-0.109107 0.0194185 0.0760099 0 0 0 148 152 148
-0.180272 -0.0250208 0.0711986 0 0 0 119 103 13
-0.255274 0.047761 0.0358026 0 0 0 104 108 114
-0.0236415 0.00785388 0.0741352 0 0 0 112 128 93
-0.0683289 -0.0120108 0.074164 0 0 0 133 102 13
-0.0310596 -0.00703025 0.072365 0 0 0 38 58 20
-0.194285 0.00174209 0.0707724 0 0 0 103 96 25
-0.185421 0.017731 0.0739313 0 0 0 116 104 30
-0.106505 0.0218516 0.0771386 0 0 0 149 156 139
-0.160006 -0.00474919 0.0742129 0 0 0 133 118 117
-0.267091 0.00324083 0.0183404 0 0 0 124 137 2
-0.269662 0.0319274 0.0191452 0 0 0 97 109 4
-0.19284 0.00167739 0.0707632 0 0 0 82 82 38
-0.0451423 0.0125365 0.0758844 0 0 0 66 82 7
