ply
format ascii 1.0
element vertex 108
property float x
property float y
property float z
property float nx
property float ny
property float nz
property uchar diffuse_red
property uchar diffuse_green
property uchar diffuse_blue
end_header
-0.0195329 0.0603911 0.0754179 0 0 0 254 254 254
-0.266352 0.0556818 0.0239219 0 0 0 222 228 238
-0.259635 0.00129707 0.0264851 0 0 0 246 250 97
-0.26148 0.0234775 0.0580951 0 0 0 50 68 168
-0.254639 0.0338572 0.0376872 0 0 0 45 66 164
-0.242388 -0.0283709 0.0587952 0 0 0 112 144 212
-0.136715 0.0612292 0.0758765 0 0 0 249 252 253
-0.232688 0.0573622 0.0699304 0 0 0 252 252 252
-0.234061 0.0396871 0.0701413 0 0 0 39 49 105
-0.243364 0.0489227 0.0605499 0 0 0 247 254 254
-0.0999053 0.0279875 0.0767865 0 0 0 133 137 142
-0.103487 0.0587759 0.0741637 0 0 0 249 249 250
-0.0753693 0.0267078 0.079323 0 0 0 139 123 2
-0.200405 0.0557746 0.0729088 0 0 0 252 253 252
-0.0459653 0.0613711 0.0779679 0 0 0 254 254 254
-0.268295 -0.0252282 0.0205152 0 0 0 102 129 36
-0.154879 0.0425925 0.0766212 0 0 0 131 68 46
-0.262455 -0.0292909 0.0257906 0 0 0 154 175 19
-0.1227 0.0405178 0.0767016 0 0 0 81 109 124
-0.252008 -0.01041 0.0439858 0 0 0 239 241 87
-0.259487 0.00819127 0.0616809 0 0 0 238 247 97
-0.103454 -0.0247885 0.0752168 0 0 0 130 142 147
-0.265755 0.0212962 0.0497219 0 0 0 44 60 155
-0.16123 0.0587241 0.0744754 0 0 0 250 253 253
-0.141988 0.0107157 0.076972 0 0 0 24 38 99
-0.266938 0.0194059 0.0470788 0 0 0 37 54 148
-0.260793 0.0405565 0.0309158 0 0 0 43 59 150
-0.257204 -0.0181874 0.0315749 0 0 0 27 45 142
-0.125 -0.0140698 0.0775766 0 0 0 165 166 160
-0.137644 -0.0231878 0.0759536 0 0 0 155 162 171
-0.0370058 -0.0108133 0.0772633 0 0 0 83 104 24
-0.215703 0.0413409 0.0711491 0 0 0 78 81 120
-0.0836749 -0.0100162 0.0785028 0 0 0 146 144 113
-0.225973 0.0270968 0.0728083 0 0 0 119 143 121
-0.130515 0.0424562 0.0763088 0 0 0 41 20 95
-0.216132 0.0149491 0.0730285 0 0 0 52 45 96
-0.166765 0.0509637 0.0728053 0 0 0 237 253 238
-0.0726731 0.0590005 0.0758712 0 0 0 254 254 254
-0.07993 0.044562 0.0762382 0 0 0 139 101 59
-0.246957 -0.0039132 0.0561677 0 0 0 215 224 93
-0.126673 -0.00372619 0.0767118 0 0 0 84 111 127
-0.0685369 0.0483496 0.0762939 0 0 0 72 94 67
-0.114173 -0.0122849 0.076952 0 0 0 39 60 135
-0.23899 -0.00968643 0.0661147 0 0 0 16 29 77
-0.0546003 0.0357773 0.0762358 0 0 0 75 90 16
-0.188819 -0.026726 0.073979 0 0 0 72 60 57
-0.206064 -0.00824271 0.0740683 0 0 0 146 139 140
-0.263436 0.0273653 0.0247023 0 0 0 157 176 41
-0.179399 0.0422624 0.0726035 0 0 0 142 108 28
-0.0467049 0.041554 0.0786319 0 0 0 79 95 39
-0.191198 -0.0302419 0.072848 0 0 0 130 112 25
-0.277081 0.0142026 0.0204586 0 0 0 159 160 149
-0.24246 0.0347905 0.061797 0 0 0 216 240 247
-0.140402 0.0298833 0.0770688 0 0 0 160 159 155
-0.239839 0.0065825 0.0650697 0 0 0 34 35 110
-0.0393619 0.0466069 0.0776849 0 0 0 86 98 54
-0.142836 0.0311165 0.0762202 0 0 0 158 157 151
-0.163961 0.00815344 0.0766052 0 0 0 146 133 130
-0.120513 0.0213219 0.076048 0 0 0 64 94 145
-0.0474801 -0.0219681 0.0747976 0 0 0 148 131 35
-0.0169537 0.0116177 0.0758181 0 0 0 128 149 93
-0.182824 0.0318136 0.0741365 0 0 0 142 128 50
-0.168577 -0.0154459 0.0760766 0 0 0 26 46 95
-0.211744 0.0246001 0.0737392 0 0 0 127 133 141
-0.109572 -0.00676792 0.0761915 0 0 0 162 161 166
-0.147593 -0.0108435 0.0756453 0 0 0 47 69 131
-0.224001 0.0121853 0.0722524 0 0 0 124 127 139
-0.231903 0.00260352 0.0709649 0 0 0 100 124 144
-0.0673391 -0.0244221 0.0792179 0 0 0 150 124 42
-0.141614 0.000215089 0.0793538 0 0 0 110 110 143
-0.11044 0.0313962 0.0752898 0 0 0 158 169 154
-0.112529 0.00731773 0.0771339 0 0 0 151 162 167
-0.209479 0.00802641 0.0747281 0 0 0 147 143 146
-0.248506 -0.00906585 0.0515641 0 0 0 222 243 126
-0.203168 0.0109364 0.0740301 0 0 0 148 136 121
-0.11508 0.00605392 0.0759982 0 0 0 115 145 159
-0.154829 0.0123518 0.0773025 0 0 0 157 151 137
-0.0313253 -0.00620221 0.0760846 0 0 0 39 61 8
-0.227484 0.00262345 0.0724098 0 0 0 102 120 130
-0.205867 0.0034545 0.0750807 0 0 0 131 117 124
-0.198924 0.0413861 0.0733053 0 0 0 133 89 57
-0.242255 0.0287751 0.0629506 0 0 0 158 208 252
-0.156476 0.021168 0.0763554 0 0 0 148 122 86
-0.207656 0.0490549 0.072443 0 0 0 244 246 243
-0.185007 0.0242772 0.0742911 0 0 0 99 102 40
-0.19526 0.00304512 0.0740915 0 0 0 127 83 28
-0.102427 0.0305985 0.0759521 0 0 0 154 158 163
-0.207251 0.00570261 0.0753037 0 0 0 149 150 155
-0.123849 -0.0227247 0.0752969 0 0 0 62 75 117
-0.182749 0.0194969 0.0747224 0 0 0 103 104 18
-0.100921 0.0241569 0.0755487 0 0 0 158 166 163
-0.0639928 0.0262377 0.0790628 0 0 0 57 85 21
-0.0698339 0.00136903 0.0786602 0 0 0 155 132 74
-0.205431 -0.0211935 0.0737578 0 0 0 24 33 85
-0.105521 0.0210098 0.0764776 0 0 0 155 164 163
-0.191776 0.00337965 0.0732852 0 0 0 57 87 12
-0.159395 -0.00534854 0.0772371 0 0 0 135 115 121
-0.0698339 0.00136903 0.0786602 0 0 0 155 132 74
-0.222556 -0.0181207 0.0728746 0 0 0 14 23 77
-0.26861 0.00618152 0.0224299 0 0 0 135 147 1
-0.169364 0.00677197 0.0755109 0 0 0 148 139 76
-0.0420347 0.0142098 0.0770034 0 0 0 71 89 28
-0.206025 0.0274354 0.0738551 0 0 0 145 121 80
-0.268571 0.00850201 0.0226308 0 0 0 147 159 30
-0.175429 0.0163883 0.0745607 0 0 0 128 62 44
-0.18287 0.0122852 0.0740982 0 0 0 120 120 20
-0.0295943 0.0293148 0.0760891 0 0 0 82 98 52
-0.245818 -0.0164068 0.0549896 0 0 0 73 87 22
