ply
format ascii 1.0
element vertex 105
property float x
property float y
property float z
property float nx
property float ny
property float nz
property uchar diffuse_red
property uchar diffuse_green
property uchar diffuse_blue
end_header
-0.0182228 0.0616088 0.0762467 0 0 0 254 254 254
-0.259221 0.00118198 0.0318873 0 0 0 234 245 92
-0.260655 0.0239197 0.0607743 0 0 0 54 70 167
-0.266539 0.0560638 0.0257336 0 0 0 222 229 237
-0.103911 0.0586846 0.0753548 0 0 0 248 248 248
-0.254774 0.0342673 0.0394998 0 0 0 46 67 164
-0.232841 0.0406431 0.070045 0 0 0 49 50 98
-0.0456968 0.0613583 0.0779291 0 0 0 254 254 254
-0.137386 0.0615588 0.0757279 0 0 0 248 252 252
-0.243072 -0.0291576 0.061568 0 0 0 104 130 210
-0.0997665 0.0268173 0.0772371 0 0 0 142 151 154
-0.0751875 0.0267866 0.0796835 0 0 0 139 125 9
-0.141766 0.0595195 0.0769831 0 0 0 250 252 252
-0.275732 -0.027153 0.0215022 0 0 0 151 151 148
-0.242453 0.0481762 0.0628863 0 0 0 238 251 247
-0.203059 0.0558577 0.0742071 0 0 0 251 253 253
-0.258546 0.0578898 0.0374501 0 0 0 249 252 253
-0.268765 -0.0260153 0.0226128 0 0 0 104 126 7
-0.154671 0.0428888 0.0775678 0 0 0 131 69 53
-0.263373 -0.030183 0.0287728 0 0 0 147 174 19
-0.253036 -0.00874604 0.0452866 0 0 0 227 232 85
-0.121855 0.0409276 0.0766354 0 0 0 84 110 135
-0.152204 -0.0282437 0.0767869 0 0 0 140 147 152
-0.259333 0.00804339 0.0610159 0 0 0 234 244 103
-0.103452 -0.0246462 0.0760419 0 0 0 134 146 146
-0.141869 0.0109767 0.0779556 0 0 0 19 39 101
-0.26 0.0414088 0.030939 0 0 0 40 61 153
-0.266064 0.0202911 0.0472505 0 0 0 36 56 146
-0.124947 -0.0138549 0.0785315 0 0 0 163 166 173
-0.257538 -0.0177965 0.0336436 0 0 0 28 46 147
-0.0211214 -0.0215886 0.0765402 0 0 0 90 125 143
-0.13763 -0.0229435 0.0770542 0 0 0 157 163 166
-0.145404 -0.0255655 0.0764659 0 0 0 119 147 153
-0.0369495 -0.0108541 0.0774758 0 0 0 81 102 42
-0.0220932 -0.0186748 0.0758127 0 0 0 91 123 93
-0.215542 0.0417885 0.0726046 0 0 0 77 78 119
-0.225839 0.0275817 0.0744128 0 0 0 116 141 123
-0.130337 0.04141 0.0769504 0 0 0 93 70 101
-0.21603 0.0154067 0.0746064 0 0 0 51 44 99
-0.125669 -0.00360018 0.0784988 0 0 0 66 101 127
-0.167167 0.051046 0.0746055 0 0 0 238 253 235
-0.0803994 0.0444368 0.077281 0 0 0 140 104 57
-0.112525 -0.0120676 0.0779339 0 0 0 92 112 146
-0.254876 -0.0232197 0.0399119 0 0 0 37 57 150
-0.239544 -0.00934219 0.068859 0 0 0 15 32 88
-0.0683187 0.0483947 0.0765005 0 0 0 71 95 59
-0.188243 -0.0262277 0.0747034 0 0 0 72 56 45
-0.0558108 0.0354102 0.0778002 0 0 0 74 92 17
-0.19062 -0.0285561 0.0737024 0 0 0 131 111 28
-0.263698 0.0277428 0.0266175 0 0 0 158 182 50
-0.20602 -0.00780922 0.0756674 0 0 0 145 142 135
-0.179225 0.0426115 0.0737545 0 0 0 142 109 44
-0.0450815 0.0419323 0.0772864 0 0 0 80 95 41
-0.0391099 0.0479622 0.0777717 0 0 0 87 103 56
-0.139597 0.0303342 0.077183 0 0 0 160 160 158
-0.242394 0.0352735 0.0635036 0 0 0 217 240 247
-0.239827 0.00707307 0.0668817 0 0 0 34 36 119
-0.142038 0.0315728 0.0763465 0 0 0 156 158 152
-0.163242 0.00864218 0.0769917 0 0 0 146 133 127
-0.0488809 -0.0222005 0.0765609 0 0 0 150 127 39
-0.0193255 0.0113175 0.0761725 0 0 0 125 143 103
-0.183256 0.0319739 0.0761696 0 0 0 141 128 50
-0.21161 0.0250481 0.0752372 0 0 0 126 133 148
-0.168539 -0.0151117 0.077398 0 0 0 27 46 94
-0.110822 -0.00687323 0.0784835 0 0 0 158 164 159
-0.148169 -0.0107059 0.0775513 0 0 0 48 68 131
-0.0785263 0.0552412 0.0783419 0 0 0 229 250 254
-0.110277 0.0315582 0.0759194 0 0 0 159 168 157
-0.14153 -0.000761995 0.0802794 0 0 0 134 135 155
-0.231853 0.00309765 0.0727289 0 0 0 106 123 145
-0.224462 0.0124791 0.0747541 0 0 0 123 127 139
-0.209383 0.00847251 0.0762821 0 0 0 143 142 145
-0.112419 0.00749436 0.0778892 0 0 0 153 161 167
-0.154702 0.0126514 0.0783849 0 0 0 155 150 139
-0.115634 0.00607867 0.0775327 0 0 0 115 144 163
-0.198745 0.0417948 0.0746216 0 0 0 136 90 35
-0.20307 0.0113611 0.0755187 0 0 0 150 135 123
-0.205781 0.0038918 0.0766254 0 0 0 130 119 94
-0.227445 0.00196582 0.0740434 0 0 0 94 112 133
-0.156332 0.021468 0.0774117 0 0 0 148 121 79
-0.242197 0.0292628 0.0646826 0 0 0 160 207 252
-0.0312374 -0.00486905 0.0763436 0 0 0 38 59 35
-0.186408 0.0209449 0.0752681 0 0 0 84 95 5
-0.195763 0.00328427 0.0763697 0 0 0 128 80 28
-0.18487 0.0246503 0.0755694 0 0 0 101 93 28
-0.208002 0.0504202 0.0747219 0 0 0 249 254 254
-0.102261 0.0307403 0.076519 0 0 0 153 156 170
-0.182621 0.0198655 0.0760036 0 0 0 104 102 20
-0.209996 0.00596981 0.0769228 0 0 0 138 139 148
-0.100777 0.0242927 0.0761322 0 0 0 159 167 163
-0.0638149 0.0262824 0.0793313 0 0 0 55 83 19
-0.192288 0.00360538 0.0755305 0 0 0 58 84 14
-0.104719 0.0213374 0.0763691 0 0 0 156 167 161
-0.20602 -0.0220571 0.0761446 0 0 0 22 31 82
-0.06973 0.00142918 0.0790892 0 0 0 153 132 79
-0.188746 0.0502838 0.0735477 0 0 0 215 249 254
-0.159318 -0.00503579 0.078437 0 0 0 138 114 127
-0.193544 0.0567539 0.0749463 0 0 0 250 252 253
-0.169292 0.00588812 0.0766391 0 0 0 145 134 79
-0.0426155 0.0140275 0.077845 0 0 0 71 90 31
-0.204454 0.0279884 0.0752658 0 0 0 140 106 53
-0.271396 0.0344474 0.0253144 0 0 0 110 126 16
-0.250968 -0.00683899 0.0487152 0 0 0 222 229 47
-0.173827 0.0168296 0.0758206 0 0 0 131 66 46
-0.182769 0.0126515 0.0754129 0 0 0 121 119 23
