ply
format ascii 1.0
element vertex 124
property float x
property float y
property float z
property float nx
property float ny
property float nz
property uchar diffuse_red
property uchar diffuse_green
property uchar diffuse_blue
end_header
-0.0201422 0.0615877 0.0761788 0 0 0 254 254 254
-0.259665 0.00211363 0.0291953 0 0 0 242 247 79
-0.260826 0.0245601 0.0598122 0 0 0 56 72 163
-0.267457 0.055107 0.0265211 0 0 0 221 228 239
-0.243362 -0.0285565 0.0606024 0 0 0 104 131 207
-0.254824 0.0349288 0.0385818 0 0 0 45 68 165
-0.233559 0.0409781 0.070091 0 0 0 46 50 93
-0.103416 0.0591884 0.0744352 0 0 0 250 251 250
-0.10001 0.0270817 0.0770248 0 0 0 141 151 152
-0.0754422 0.0269937 0.079585 0 0 0 140 127 7
-0.243107 0.0485305 0.0629133 0 0 0 236 251 246
-0.274966 -0.0253489 0.0212739 0 0 0 155 156 148
-0.140676 0.0603518 0.0750947 0 0 0 251 253 252
-0.0468436 0.0629856 0.0771936 0 0 0 254 254 254
-0.234577 0.0568387 0.0714994 0 0 0 250 252 252
-0.268867 -0.0252964 0.0215337 0 0 0 106 123 8
-0.258535 0.0585626 0.0365524 0 0 0 250 251 253
-0.258586 0.0562418 0.0363584 0 0 0 249 253 253
-0.260022 0.00962098 0.0610151 0 0 0 235 245 109
-0.15488 0.043272 0.0771268 0 0 0 135 69 45
-0.252393 -0.00933279 0.0449989 0 0 0 239 242 73
-0.263002 -0.028213 0.0268966 0 0 0 151 175 22
-0.122712 0.041035 0.077096 0 0 0 82 110 137
-0.103801 -0.0243717 0.0757302 0 0 0 133 143 145
-0.266453 0.0222563 0.0515913 0 0 0 43 60 152
-0.142149 0.0113316 0.0775229 0 0 0 18 38 100
-0.153188 -0.027972 0.0770239 0 0 0 139 148 148
-0.266671 0.0207658 0.0471588 0 0 0 37 53 138
-0.259994 0.0420952 0.0300083 0 0 0 42 62 152
-0.0196531 -0.0186764 0.0771286 0 0 0 120 134 91
-0.125283 -0.0135376 0.0781374 0 0 0 165 167 165
-0.25718 -0.0169874 0.0317267 0 0 0 26 46 145
-0.0224292 -0.0185768 0.0758874 0 0 0 89 123 94
-0.137979 -0.0225962 0.0765867 0 0 0 158 162 161
-0.258995 0.0104394 0.0289722 0 0 0 247 247 90
-0.146386 -0.0253113 0.0767332 0 0 0 120 147 156
-0.0825725 -0.00943709 0.0774509 0 0 0 145 144 115
-0.0373069 -0.0121126 0.0773783 0 0 0 98 105 36
-0.246747 -0.00266851 0.0562664 0 0 0 216 225 113
-0.215729 0.0423119 0.0718799 0 0 0 75 82 119
-0.0746823 -0.0266724 0.0769446 0 0 0 154 151 111
-0.226065 0.0281247 0.0736177 0 0 0 118 141 125
-0.248832 -0.00683935 0.0526561 0 0 0 238 248 123
-0.0488624 -0.00559493 0.0778807 0 0 0 139 103 37
-0.131188 0.0415327 0.0773788 0 0 0 93 73 102
-0.216284 0.0159281 0.0738372 0 0 0 50 50 97
-0.276416 0.0368359 0.0196614 0 0 0 154 155 150
-0.116543 0.0469386 0.0764101 0 0 0 83 119 162
-0.258946 -0.00379279 0.0295052 0 0 0 244 251 95
-0.276061 0.0147391 0.0186141 0 0 0 161 160 149
-0.127554 -0.00332968 0.0780067 0 0 0 85 114 132
-0.0806047 0.044659 0.0771865 0 0 0 138 104 62
-0.11445 -0.0118092 0.0774682 0 0 0 40 66 143
-0.167344 0.0514611 0.0741197 0 0 0 239 253 233
-0.239825 -0.00876039 0.0679414 0 0 0 11 29 78
-0.255052 -0.0225585 0.0389014 0 0 0 36 57 153
-0.0546392 0.0359492 0.0763959 0 0 0 76 92 19
-0.0685119 0.0485918 0.0764684 0 0 0 72 93 69
-0.263702 0.0284441 0.0256478 0 0 0 156 177 56
-0.206329 -0.00731115 0.0749074 0 0 0 146 142 132
-0.190992 -0.0292791 0.072881 0 0 0 128 110 31
-0.179416 0.0430542 0.0731993 0 0 0 141 110 40
-0.0452927 0.0420777 0.0773515 0 0 0 79 96 36
-0.242553 0.0358699 0.0626443 0 0 0 216 241 251
-0.139832 0.0306853 0.0767918 0 0 0 159 159 154
-0.239233 0.00757497 0.0667685 0 0 0 14 38 108
-0.0393104 0.0480938 0.0778742 0 0 0 88 102 57
-0.132137 0.0144641 0.0775419 0 0 0 93 123 146
-0.142897 0.0317342 0.0767151 0 0 0 157 156 149
-0.163523 0.00904507 0.0764561 0 0 0 145 133 135
-0.0646034 -0.0239623 0.0783788 0 0 0 152 123 35
-0.169482 -0.0148278 0.077593 0 0 0 27 45 96
-0.182306 0.0588258 0.0728323 0 0 0 250 252 252
-0.182888 0.0326273 0.074775 0 0 0 141 129 52
-0.211846 0.0255588 0.0745039 0 0 0 126 133 145
-0.109825 -0.00631772 0.0766749 0 0 0 161 164 159
-0.276861 0.0201437 0.0209509 0 0 0 162 161 150
-0.13063 0.0249493 0.0768682 0 0 0 97 109 141
-0.0773485 0.055893 0.0768356 0 0 0 230 249 254
-0.0351713 0.0613496 0.0771069 0 0 0 254 254 254
-0.110504 0.0318476 0.0756659 0 0 0 160 166 163
-0.148522 -0.0115785 0.0769508 0 0 0 40 75 122
-0.224723 0.0130187 0.0739413 0 0 0 123 128 141
-0.232125 0.00365651 0.0718668 0 0 0 104 121 145
-0.141846 -0.000411512 0.0798294 0 0 0 131 137 161
-0.20966 0.00897684 0.0755326 0 0 0 146 141 150
-0.112707 0.00778534 0.0775873 0 0 0 154 162 166
-0.198916 0.0434636 0.0740739 0 0 0 138 94 34
-0.15498 0.0130335 0.0778953 0 0 0 155 151 141
-0.242374 0.0298569 0.0638145 0 0 0 161 209 251
-0.203337 0.0118529 0.0748031 0 0 0 148 136 122
-0.156586 0.0218551 0.0769287 0 0 0 149 123 88
-0.115923 0.0063772 0.0772137 0 0 0 115 144 157
-0.20607 0.00438778 0.0758852 0 0 0 131 118 100
-0.22825 0.00348994 0.0741428 0 0 0 99 121 131
-0.0315768 -0.00614761 0.0762814 0 0 0 35 60 9
-0.248539 -0.00821751 0.0542243 0 0 0 202 226 115
-0.207613 0.0511645 0.0732204 0 0 0 249 254 254
-0.185109 0.0251024 0.0749594 0 0 0 100 96 29
-0.196052 0.00375888 0.075675 0 0 0 127 77 35
-0.121421 0.0546028 0.0750333 0 0 0 251 254 254
-0.102492 0.0310113 0.0763013 0 0 0 152 157 169
-0.208863 0.00655912 0.0761354 0 0 0 143 149 152
-0.182873 0.0203121 0.0753963 0 0 0 103 102 17
-0.0700072 0.00296788 0.0790876 0 0 0 153 136 100
-0.10102 0.0245611 0.0759111 0 0 0 158 167 164
-0.0640692 0.0264653 0.0792846 0 0 0 57 84 22
-0.0238538 0.00976766 0.0763143 0 0 0 120 139 128
-0.10497 0.021614 0.076125 0 0 0 157 166 169
-0.192572 0.00407377 0.0748524 0 0 0 58 84 12
-0.206363 -0.0215598 0.0753618 0 0 0 23 33 81
-0.070037 0.00162545 0.0789754 0 0 0 153 134 88
-0.188307 0.0521846 0.0722522 0 0 0 252 253 254
-0.26899 0.00728028 0.0234556 0 0 0 134 151 1
-0.159635 -0.00464368 0.0778978 0 0 0 136 118 125
-0.221963 -0.0137463 0.0748765 0 0 0 21 31 84
-0.222014 -0.0160444 0.0746844 0 0 0 15 26 77
-0.170157 0.00735763 0.0769656 0 0 0 147 142 69
-0.239424 0.0501518 0.0678744 0 0 0 253 254 254
-0.246219 -0.0164725 0.0559018 0 0 0 46 71 61
-0.0428898 0.0141667 0.0778769 0 0 0 70 90 27
-0.206112 0.0283656 0.0745908 0 0 0 146 122 75
-0.175596 0.0159545 0.0751157 0 0 0 128 64 49
-0.0311013 0.0290153 0.0775541 0 0 0 84 98 54
