ply
format ascii 1.0
element vertex 98
property float x
property float y
property float z
property float nx
property float ny
property float nz
property uchar diffuse_red
property uchar diffuse_green
property uchar diffuse_blue
end_header
-0.019991 0.0581449 0.0726063 0 0 0 252 254 254
-0.259279 -0.00138484 0.0275739 0 0 0 206 205 27
-0.16248 0.0579862 0.0730499 0 0 0 244 246 247
-0.106114 0.0256861 0.0768607 0 0 0 150 156 130
-0.0826208 0.02617 0.0783756 0 0 0 138 115 6
-0.234079 0.0550284 0.0674595 0 0 0 232 236 235
-0.10379 0.0527413 0.0747728 0 0 0 193 207 221
-0.233876 0.0414886 0.0677287 0 0 0 35 35 84
-0.187059 0.058066 0.0718829 0 0 0 224 229 230
-0.244664 -0.0275437 0.0565944 0 0 0 103 109 156
-0.270496 -0.024577 0.0198927 0 0 0 108 116 24
-0.243567 -0.0276035 0.0590012 0 0 0 73 89 143
-0.12505 0.0403856 0.0726818 0 0 0 59 75 96
-0.156163 0.0445282 0.0735807 0 0 0 126 61 40
-0.144255 0.0121766 0.0753642 0 0 0 26 24 55
-0.138954 -0.0215782 0.0736824 0 0 0 143 147 133
-0.128007 -0.0124533 0.0770697 0 0 0 154 152 143
-0.262532 -0.0287516 0.0232952 0 0 0 143 156 25
-0.225296 0.0366202 0.0703415 0 0 0 44 52 90
-0.268639 0.0202676 0.0447334 0 0 0 22 22 107
-0.0823563 0.0433738 0.0757787 0 0 0 113 84 19
-0.258622 -0.0198011 0.0310456 0 0 0 11 33 108
-0.104995 -0.0205302 0.0754335 0 0 0 135 143 140
-0.272183 0.050997 0.0206166 0 0 0 84 94 99
-0.180016 0.0460751 0.0730891 0 0 0 132 99 43
-0.0373356 -0.00939348 0.0758929 0 0 0 49 56 16
-0.193051 -0.0264802 0.0735946 0 0 0 125 96 11
-0.217557 0.0169596 0.0708738 0 0 0 42 35 74
-0.129366 -0.00232165 0.075731 0 0 0 72 117 141
-0.270096 0.0497846 0.0212152 0 0 0 83 93 102
-0.256212 -0.0245053 0.0374629 0 0 0 23 41 124
-0.241285 0.0463968 0.0634719 0 0 0 160 166 191
-0.0589514 0.0349868 0.0758877 0 0 0 65 82 13
-0.07014 0.0472624 0.0748971 0 0 0 53 79 39
-0.07369 0.036636 0.0757362 0 0 0 116 90 22
-0.263752 0.0288702 0.0231887 0 0 0 149 159 33
-0.190645 -0.0243431 0.0744738 0 0 0 86 68 27
-0.264636 0.0277915 0.0223621 0 0 0 134 142 25
-0.0448762 0.0416287 0.0739936 0 0 0 75 86 12
-0.207335 -0.00553206 0.0737602 0 0 0 137 131 112
-0.238899 -0.00882857 0.0660358 0 0 0 14 26 68
-0.14148 0.0306891 0.0737502 0 0 0 151 146 126
-0.0980333 0.0579011 0.0746694 0 0 0 254 254 254
-0.14361 0.0319429 0.0744847 0 0 0 148 143 122
-0.148412 -0.0171054 0.0757391 0 0 0 80 86 110
-0.211103 0.0476359 0.0726534 0 0 0 130 119 124
-0.0488878 -0.0208766 0.0746963 0 0 0 143 117 26
-0.12474 0.0213625 0.0744565 0 0 0 37 69 105
-0.164799 0.0095357 0.0752648 0 0 0 138 121 122
-0.0194479 -0.00913483 0.0762515 0 0 0 127 131 70
-0.114546 -0.00962008 0.0773661 0 0 0 125 137 134
-0.0698222 0.0271975 0.0766852 0 0 0 73 90 20
-0.249479 0.0404886 0.0530436 0 0 0 35 51 135
-0.111437 -0.00599064 0.0761516 0 0 0 153 150 141
-0.213198 0.0269733 0.0735464 0 0 0 119 123 122
-0.242505 0.0375098 0.0623743 0 0 0 110 134 172
-0.132456 0.0241685 0.0740432 0 0 0 72 69 102
-0.114601 0.0297533 0.0770874 0 0 0 152 157 134
-0.1697 -0.0130161 0.073527 0 0 0 30 47 85
-0.0653719 -0.0223197 0.0756661 0 0 0 143 112 36
-0.147687 -0.00976842 0.0736323 0 0 0 43 60 93
-0.273373 0.0248219 0.0196468 0 0 0 125 138 29
-0.137683 0.0517814 0.0730836 0 0 0 186 193 209
-0.232246 0.00529526 0.0694715 0 0 0 80 96 116
-0.227859 0.00500036 0.0708571 0 0 0 80 98 101
-0.0208485 0.0312097 0.0788214 0 0 0 125 138 76
-0.140135 0.000834143 0.0751878 0 0 0 122 126 130
-0.119531 0.00589927 0.0767033 0 0 0 116 118 143
-0.186221 0.0330931 0.0741885 0 0 0 135 125 47
-0.155778 0.0139876 0.0741189 0 0 0 144 140 117
-0.0670045 -0.015505 0.0740897 0 0 0 134 104 26
-0.204488 0.0127857 0.0735878 0 0 0 138 130 94
-0.207945 0.0107486 0.0703451 0 0 0 135 129 116
-0.206742 -0.0182846 0.0716448 0 0 0 15 26 70
-0.0208161 0.0439167 0.0760318 0 0 0 141 151 90
-0.120491 0.0567793 0.0727595 0 0 0 241 242 246
-0.256053 0.051882 0.0371729 0 0 0 104 105 113
-0.0709057 0.00336125 0.0758021 0 0 0 143 126 72
-0.200713 0.0441161 0.0714682 0 0 0 133 96 41
-0.0462345 0.0553909 0.0726355 0 0 0 199 221 236
-0.127745 -0.0212456 0.0759929 0 0 0 39 56 107
-0.160891 0.0237711 0.0774898 0 0 0 136 113 78
-0.10955 0.0207102 0.0764017 0 0 0 149 151 133
-0.196256 0.00420645 0.0731471 0 0 0 104 95 21
-0.0362173 -0.00673748 0.0769305 0 0 0 38 57 15
-0.237384 0.0124295 0.0659668 0 0 0 19 35 99
-0.197222 -0.00391568 0.0736585 0 0 0 126 114 6
-0.106907 0.02312 0.0775023 0 0 0 148 155 140
-0.243469 0.0521881 0.0613815 0 0 0 116 113 113
-0.189971 0.0225263 0.0762126 0 0 0 78 85 27
-0.186561 0.0200792 0.0753169 0 0 0 118 101 30
-0.23718 0.0169133 0.0661329 0 0 0 30 38 104
-0.0256104 0.00929912 0.0758372 0 0 0 112 125 110
-0.194814 0.00412125 0.0731326 0 0 0 82 80 36
-0.269095 0.00625289 0.021035 0 0 0 124 138 2
-0.160782 -0.00157544 0.0749912 0 0 0 134 117 102
-0.222009 -0.0124305 0.0723453 0 0 0 15 20 68
-0.17725 0.0173494 0.0744854 0 0 0 125 62 42
