ply
format ascii 1.0
element vertex 115
property float x
property float y
property float z
property float nx
property float ny
property float nz
property uchar diffuse_red
property uchar diffuse_green
property uchar diffuse_blue
end_header
-0.0229571 0.0601175 0.0775755 0 0 0 254 254 254
-0.241608 -0.0307618 0.0549737 0 0 0 206 220 240
-0.0553875 0.0602206 0.0781025 0 0 0 254 254 254
-0.25971 0.0196848 0.0543769 0 0 0 67 85 174
-0.244604 0.046283 0.0547908 0 0 0 250 252 251
-0.258938 -0.00118815 0.0238682 0 0 0 251 253 85
-0.254183 0.0315243 0.0347347 0 0 0 52 73 168
-0.260515 0.0527141 0.0259422 0 0 0 231 236 244
-0.232697 0.0383146 0.0667701 0 0 0 46 48 107
-0.224295 0.0556505 0.0691076 0 0 0 250 252 253
-0.0948955 0.0257796 0.0750869 0 0 0 128 139 138
-0.0785248 0.0254847 0.0770579 0 0 0 148 128 36
-0.230501 0.0360662 0.0671935 0 0 0 58 55 114
-0.168571 0.0580979 0.0707295 0 0 0 250 253 252
-0.256708 0.000641264 0.0616132 0 0 0 248 254 135
-0.224302 0.0544895 0.0689312 0 0 0 250 252 253
-0.266107 -0.0291575 0.0183715 0 0 0 104 129 37
-0.169798 0.0550049 0.0718926 0 0 0 250 253 254
-0.276961 0.0365737 0.0158542 0 0 0 148 156 155
-0.259618 -0.0316617 0.0201652 0 0 0 173 191 79
-0.266749 0.0170173 0.0484656 0 0 0 51 64 153
-0.152731 0.041101 0.0739759 0 0 0 134 63 55
-0.24984 -0.0114685 0.0454434 0 0 0 247 249 77
-0.12267 0.0390588 0.0750659 0 0 0 66 84 94
-0.136271 0.0588371 0.0744308 0 0 0 250 252 252
-0.251117 -0.0123567 0.0384107 0 0 0 248 251 83
-0.128491 0.0558417 0.0746015 0 0 0 248 252 253
-0.25992 0.0044866 0.0590104 0 0 0 247 253 137
-0.223617 0.0265416 0.0697635 0 0 0 57 52 126
-0.143288 0.00758136 0.0769787 0 0 0 24 32 97
-0.138984 -0.0267875 0.0762053 0 0 0 148 167 169
-0.257569 0.0385863 0.0253729 0 0 0 44 63 158
-0.121905 -0.0161921 0.0734063 0 0 0 165 168 169
-0.0359138 -0.0120592 0.0768654 0 0 0 96 108 25
-0.255336 -0.0195112 0.0261549 0 0 0 15 40 147
-0.102841 -0.0233279 0.0742104 0 0 0 156 166 170
-0.21656 0.0378208 0.0713041 0 0 0 81 97 125
-0.118379 0.0584 0.0750572 0 0 0 250 253 253
-0.252171 -0.0240491 0.0314335 0 0 0 38 60 157
-0.24063 -0.00580235 0.0595771 0 0 0 120 123 15
-0.0683175 0.0474069 0.0776091 0 0 0 73 92 63
-0.132707 0.0404968 0.0752668 0 0 0 23 26 80
-0.0802406 0.0442578 0.0738719 0 0 0 137 102 52
-0.215592 0.0128421 0.0700263 0 0 0 51 45 99
-0.245964 -0.0195311 0.0509083 0 0 0 77 87 37
-0.0459998 -0.0277049 0.0745268 0 0 0 148 128 31
-0.123151 -0.00641155 0.0764279 0 0 0 34 57 112
-0.244381 0.0320398 0.0543441 0 0 0 235 238 252
-0.146645 -0.0220833 0.0764014 0 0 0 88 100 135
-0.111846 0.0404195 0.0746373 0 0 0 106 116 112
-0.0491079 -0.025326 0.0760457 0 0 0 148 125 24
-0.109686 -0.0291528 0.0750858 0 0 0 118 133 167
-0.18756 -0.0290976 0.0703542 0 0 0 96 50 6
-0.206169 -0.0112469 0.072973 0 0 0 148 147 127
-0.0791325 -0.0295675 0.0768977 0 0 0 135 137 130
-0.0436181 0.039015 0.0767249 0 0 0 78 93 42
-0.0181414 -0.0140187 0.077152 0 0 0 124 142 94
-0.138716 0.0281558 0.0746044 0 0 0 163 158 150
-0.118422 0.0194933 0.0749852 0 0 0 49 92 106
-0.241857 0.0247956 0.060008 0 0 0 214 232 253
-0.180587 0.03965 0.0717259 0 0 0 142 113 47
-0.190478 -0.0304056 0.0701119 0 0 0 119 104 7
-0.237902 -0.0110954 0.0629038 0 0 0 13 24 82
-0.226501 0.00894717 0.0671791 0 0 0 76 95 133
-0.16182 0.00672198 0.0741212 0 0 0 146 127 124
-0.0210389 0.0117797 0.0780603 0 0 0 124 140 93
-0.181459 -0.0315765 0.0717695 0 0 0 108 110 47
-0.0554107 0.0286049 0.0791137 0 0 0 77 92 23
-0.16744 -0.0187631 0.0733358 0 0 0 24 42 95
-0.238373 0.00560526 0.062053 0 0 0 28 45 128
-0.108495 -0.00779789 0.0751394 0 0 0 158 164 165
-0.181834 0.030605 0.0720011 0 0 0 127 113 58
-0.210162 0.0231507 0.0698221 0 0 0 128 135 146
-0.15195 0.0588228 0.0716849 0 0 0 250 252 253
-0.149023 -0.0145884 0.0765628 0 0 0 46 72 126
-0.197478 0.0403654 0.0707156 0 0 0 136 89 26
-0.229868 0.000398896 0.0668494 0 0 0 97 111 145
-0.224885 0.000632889 0.0675581 0 0 0 99 117 134
-0.207448 0.00597236 0.0714014 0 0 0 149 146 133
-0.115722 0.00493244 0.0755221 0 0 0 141 157 173
-0.139635 -0.00325935 0.0747622 0 0 0 136 147 147
-0.155976 0.0186417 0.07456 0 0 0 147 126 104
-0.203157 0.00868844 0.071791 0 0 0 148 137 113
-0.154867 0.00947288 0.0757262 0 0 0 154 150 141
-0.186893 0.0190719 0.0709803 0 0 0 81 87 4
-0.110692 0.0294867 0.0755906 0 0 0 161 166 158
-0.0604921 0.0242389 0.0777051 0 0 0 57 85 16
-0.236166 0.00789773 0.06315 0 0 0 31 48 128
-0.273374 0.0148045 0.0176243 0 0 0 163 173 162
-0.0295448 -0.00565704 0.0756056 0 0 0 43 62 35
-0.208878 0.0472264 0.0717759 0 0 0 249 253 253
-0.222552 -0.0236544 0.0705477 0 0 0 13 21 78
-0.102021 0.0277149 0.0754057 0 0 0 158 164 162
-0.1949 0.000507599 0.0730865 0 0 0 117 100 34
-0.0737986 0.0328951 0.0771495 0 0 0 144 122 46
-0.270286 0.0309163 0.0216046 0 0 0 113 129 7
-0.273869 0.0539071 0.0200174 0 0 0 115 107 112
-0.0205346 0.0236574 0.0774668 0 0 0 125 143 106
-0.100163 0.0221961 0.0764318 0 0 0 147 163 165
-0.252548 0.0514164 0.0420683 0 0 0 252 254 253
-0.104345 0.0195233 0.0747443 0 0 0 154 164 162
-0.205404 -0.0242077 0.0718361 0 0 0 25 33 89
-0.190188 0.0484113 0.0720133 0 0 0 249 253 254
-0.195186 0.0380176 0.0712192 0 0 0 138 92 31
-0.0712246 -0.000717515 0.0790167 0 0 0 154 134 81
-0.267432 0.00760804 0.0196063 0 0 0 148 163 10
-0.26746 0.00296433 0.018901 0 0 0 135 150 3
-0.167836 0.0038586 0.0734218 0 0 0 148 137 96
-0.269647 -0.0016646 0.0174827 0 0 0 144 159 46
-0.246805 0.00406337 0.0605775 0 0 0 128 125 42
-0.174889 0.0124432 0.07196 0 0 0 125 63 36
-0.158355 -0.00731307 0.0754876 0 0 0 136 119 120
-0.0719604 -0.00760716 0.0786982 0 0 0 155 133 54
-0.18121 -0.00189699 0.0721095 0 0 0 128 117 62
-0.0411942 0.0130334 0.078146 0 0 0 68 89 30
