ply
format ascii 1.0
element vertex 111
property float x
property float y
property float z
property float nx
property float ny
property float nz
property uchar diffuse_red
property uchar diffuse_green
property uchar diffuse_blue
end_header
-0.0202119 0.061568 0.076136 0 0 0 254 254 254
-0.259455 0.00145489 0.0285445 0 0 0 239 247 104
-0.26689 0.0558442 0.0250818 0 0 0 222 230 241
-0.261567 0.0239546 0.0584064 0 0 0 50 69 163
-0.23185 0.0577176 0.0709197 0 0 0 250 252 253
-0.254729 0.0342762 0.0379679 0 0 0 45 66 163
-0.243117 -0.0280542 0.060062 0 0 0 110 142 205
-0.233555 0.0403607 0.0695316 0 0 0 46 51 98
-0.0999832 0.026836 0.0767678 0 0 0 142 150 154
-0.0993618 0.0551697 0.0750911 0 0 0 254 254 254
-0.0754218 0.0268153 0.0793855 0 0 0 140 125 3
-0.203271 0.0558169 0.0730866 0 0 0 250 252 253
-0.0483569 0.0610657 0.0783647 0 0 0 254 254 254
-0.275519 -0.0271144 0.019678 0 0 0 148 152 147
-0.243916 0.0491173 0.06165 0 0 0 249 254 254
-0.268539 -0.0248145 0.0209379 0 0 0 105 130 28
-0.1549 0.0428712 0.0767537 0 0 0 134 70 42
-0.262237 -0.0299254 0.0252053 0 0 0 147 172 22
-0.122077 0.0409334 0.0760456 0 0 0 84 110 137
-0.252166 -0.00883245 0.0444533 0 0 0 228 233 79
-0.103601 -0.0233262 0.0755339 0 0 0 146 156 155
-0.259093 0.00885568 0.0611377 0 0 0 236 246 110
-0.142079 0.0109665 0.0771547 0 0 0 18 38 101
-0.259899 0.0414347 0.029388 0 0 0 39 60 150
-0.0195253 -0.020104 0.0769054 0 0 0 108 130 127
-0.152379 -0.0282577 0.0758203 0 0 0 140 146 154
-0.267541 0.019671 0.0483057 0 0 0 37 56 143
-0.125145 -0.0138554 0.0777894 0 0 0 164 168 169
-0.256922 -0.017641 0.0310669 0 0 0 29 44 140
-0.137811 -0.0229486 0.0762019 0 0 0 158 161 167
-0.0364284 -0.0106734 0.0766621 0 0 0 81 103 41
-0.144674 -0.0256638 0.0764074 0 0 0 111 138 158
-0.215733 0.0417435 0.0713633 0 0 0 75 80 116
-0.225481 0.0277361 0.0722233 0 0 0 115 140 125
-0.0721509 -0.0267352 0.0761862 0 0 0 155 143 95
-0.216218 0.0153567 0.0732988 0 0 0 52 44 95
-0.130561 0.0414096 0.0763027 0 0 0 94 70 95
-0.166772 0.0512608 0.0729357 0 0 0 240 253 235
-0.116572 0.0466466 0.0761299 0 0 0 82 119 162
-0.254795 -0.0232117 0.0382421 0 0 0 35 56 152
-0.125873 -0.00360114 0.0777762 0 0 0 64 98 127
-0.1243 -0.00354871 0.0778936 0 0 0 53 72 114
-0.113632 -0.0106788 0.0765086 0 0 0 59 87 151
-0.0685453 0.0484353 0.0763021 0 0 0 71 93 71
-0.0806285 0.0444679 0.0769888 0 0 0 139 103 62
-0.238604 -0.00909119 0.0656046 0 0 0 15 31 79
-0.188405 -0.0262599 0.0734903 0 0 0 70 58 60
-0.0546368 0.035832 0.0762522 0 0 0 71 92 26
-0.20535 -0.00793928 0.0751765 0 0 0 148 149 149
-0.189318 -0.0285595 0.072471 0 0 0 129 111 40
-0.0453098 0.0419861 0.0772345 0 0 0 79 95 41
-0.0675054 -0.0243325 0.0793774 0 0 0 150 125 36
-0.263536 0.0289427 0.0251066 0 0 0 160 182 51
-0.179426 0.0425872 0.0727686 0 0 0 141 105 28
-0.0393458 0.0480186 0.0777758 0 0 0 91 100 52
-0.139815 0.0303273 0.0764442 0 0 0 158 160 159
-0.241686 0.0351508 0.0628439 0 0 0 164 215 250
-0.14225 0.0315663 0.0755937 0 0 0 157 157 152
-0.239955 0.00702618 0.0653885 0 0 0 34 35 118
-0.0180469 0.013106 0.0749847 0 0 0 126 143 80
-0.163444 0.00862054 0.0760362 0 0 0 145 136 128
-0.0466212 -0.0206561 0.0759848 0 0 0 148 126 25
-0.183466 0.0319412 0.0751301 0 0 0 141 126 51
-0.211808 0.0249994 0.0739834 0 0 0 125 131 145
-0.0180741 0.0116896 0.0748651 0 0 0 125 143 96
-0.168727 -0.0151376 0.0763489 0 0 0 27 44 96
-0.111025 -0.00686456 0.0778565 0 0 0 162 166 160
-0.07877 0.0552709 0.0780885 0 0 0 230 249 254
-0.146829 -0.0106722 0.0767336 0 0 0 50 73 128
-0.110488 0.0315732 0.075388 0 0 0 159 166 163
-0.24919 -0.00878237 0.0528074 0 0 0 222 243 101
-0.224649 0.0124233 0.0733808 0 0 0 122 126 139
-0.23202 0.00304194 0.0712817 0 0 0 101 123 146
-0.208159 0.00851512 0.0749781 0 0 0 151 146 140
-0.112627 0.00750339 0.0772855 0 0 0 154 163 167
-0.139566 -0.000565888 0.0787785 0 0 0 145 147 153
-0.115838 0.00608648 0.0769032 0 0 0 115 149 162
-0.198951 0.0417559 0.0734976 0 0 0 135 88 43
-0.203262 0.0113173 0.0742919 0 0 0 149 137 120
-0.154293 0.0128049 0.076721 0 0 0 155 153 148
-0.242324 0.0292196 0.0632258 0 0 0 159 207 252
-0.22762 0.00190983 0.0726241 0 0 0 97 113 133
-0.205976 0.0038436 0.0753618 0 0 0 130 118 92
-0.155924 0.0216363 0.075756 0 0 0 147 123 83
-0.185071 0.0246181 0.0745012 0 0 0 97 95 28
-0.0307097 -0.00467463 0.0755873 0 0 0 40 63 39
-0.207668 0.0494423 0.0726306 0 0 0 247 246 242
-0.195372 0.00340853 0.0743597 0 0 0 127 85 20
-0.186605 0.0209124 0.0741804 0 0 0 86 95 20
-0.103804 0.0303797 0.0775151 0 0 0 154 155 166
-0.182823 0.0198337 0.0749397 0 0 0 103 102 16
-0.124666 -0.0226328 0.0762826 0 0 0 60 74 122
-0.0640467 0.0263193 0.0791115 0 0 0 58 83 20
-0.100984 0.0243134 0.0756497 0 0 0 159 166 167
-0.104926 0.021355 0.0758521 0 0 0 156 165 161
-0.192475 0.00356851 0.0743604 0 0 0 57 87 11
-0.191726 0.0571297 0.0730938 0 0 0 250 252 253
-0.0699436 0.0014629 0.0787688 0 0 0 155 131 72
-0.205619 -0.0219779 0.0739914 0 0 0 21 31 84
-0.159521 -0.0050583 0.0774762 0 0 0 137 118 121
-0.245997 -0.0159709 0.0553645 0 0 0 74 86 45
-0.268781 0.00659971 0.0227871 0 0 0 135 152 1
-0.188363 0.0504911 0.0717062 0 0 0 215 248 254
-0.170074 0.00691398 0.0765287 0 0 0 147 138 80
-0.174931 0.0156776 0.0738762 0 0 0 127 61 40
-0.221837 -0.0154835 0.0742046 0 0 0 16 26 84
-0.0259749 0.0235737 0.0778124 0 0 0 118 143 149
-0.0421182 0.0142383 0.0770488 0 0 0 67 91 23
-0.0717909 -0.00796779 0.0777705 0 0 0 147 126 61
-0.0310822 0.0289637 0.0774602 0 0 0 83 98 46
-0.239736 0.0184217 0.0663504 0 0 0 27 47 146
