ply
format ascii 1.0
element vertex 102
property float x
property float y
property float z
property float nx
property float ny
property float nz
property uchar diffuse_red
property uchar diffuse_green
property uchar diffuse_blue
end_header
-0.0211512 0.0602755 0.0781307 0 0 0 254 254 254
-0.241978 -0.0309408 0.0551095 0 0 0 207 218 240
-0.260091 0.0194093 0.0548025 0 0 0 66 83 175
-0.0553275 0.06023 0.0782713 0 0 0 254 254 254
-0.256217 -0.0013835 0.0257367 0 0 0 238 248 103
-0.244493 0.0463041 0.0545423 0 0 0 250 252 250
-0.254026 0.0316627 0.0343787 0 0 0 51 72 169
-0.260358 0.0529019 0.025706 0 0 0 231 237 240
-0.232601 0.0382703 0.0664931 0 0 0 44 51 107
-0.225053 0.0557296 0.0681433 0 0 0 250 252 253
-0.0784383 0.0254851 0.076972 0 0 0 150 127 33
-0.169704 0.0586552 0.0724112 0 0 0 250 252 253
-0.0948056 0.0257807 0.0749741 0 0 0 130 138 135
-0.229856 0.0363306 0.0660814 0 0 0 58 58 109
-0.169723 0.0549727 0.0718287 0 0 0 250 252 253
-0.267201 -0.0289963 0.0177172 0 0 0 100 126 13
-0.277239 0.0376597 0.0165759 0 0 0 148 159 178
-0.259887 -0.0316335 0.0203044 0 0 0 172 190 78
-0.266606 0.0170625 0.0479979 0 0 0 50 66 154
-0.15265 0.0410682 0.0738562 0 0 0 135 67 58
-0.275939 0.0366805 0.0162973 0 0 0 153 152 150
-0.122589 0.0390403 0.0749863 0 0 0 67 85 121
-0.25041 -0.00969918 0.0372836 0 0 0 233 237 88
-0.152038 -0.0307817 0.0733659 0 0 0 139 146 149
-0.225471 0.02488 0.070082 0 0 0 119 149 120
-0.102715 -0.023326 0.0737809 0 0 0 160 166 172
-0.123093 -0.0166037 0.0744589 0 0 0 166 169 170
-0.143188 0.00753728 0.0766688 0 0 0 40 33 95
-0.0372483 -0.0137913 0.0777502 0 0 0 111 108 39
-0.255128 -0.0193197 0.0254825 0 0 0 14 37 138
-0.138859 -0.0268232 0.075691 0 0 0 148 167 166
-0.0198247 -0.0238316 0.0750559 0 0 0 92 125 145
-0.215907 0.0380688 0.0702432 0 0 0 82 96 126
-0.251969 -0.0238879 0.0307385 0 0 0 35 61 153
-0.0458781 -0.0290355 0.0739533 0 0 0 146 131 40
-0.131068 0.0406125 0.0753287 0 0 0 40 10 78
-0.0706058 0.0470055 0.078111 0 0 0 61 90 68
-0.147449 -0.028169 0.0740618 0 0 0 146 160 158
-0.238039 -0.00961409 0.0608568 0 0 0 8 20 85
-0.0222773 -0.0198178 0.076074 0 0 0 77 112 83
-0.0815246 0.0437215 0.0752955 0 0 0 138 102 58
-0.215484 0.0127902 0.0696221 0 0 0 50 45 99
-0.239614 0.00431544 0.0614305 0 0 0 34 46 109
-0.045864 -0.0262948 0.0743868 0 0 0 149 128 19
-0.078232 0.0426303 0.075556 0 0 0 135 107 69
-0.245272 -0.019265 0.0493924 0 0 0 67 89 40
-0.12173 -0.00600284 0.0746003 0 0 0 32 58 106
-0.24426 0.0320641 0.0540081 0 0 0 237 240 250
-0.186557 -0.0280769 0.0707587 0 0 0 70 25 18
-0.206049 -0.0113099 0.0724367 0 0 0 148 143 137
-0.0435406 0.0390416 0.0767836 0 0 0 77 92 43
-0.137989 0.0284002 0.073687 0 0 0 162 160 154
-0.118328 0.0194787 0.0747924 0 0 0 49 91 106
-0.24174 0.0247869 0.0596317 0 0 0 214 230 254
-0.180501 0.0396116 0.0715484 0 0 0 146 114 45
-0.161715 0.00668258 0.0737735 0 0 0 148 125 128
-0.05533 0.0286087 0.0790875 0 0 0 77 91 24
-0.270777 -0.00616925 0.0162586 0 0 0 165 180 130
-0.108381 -0.007806 0.0747957 0 0 0 158 168 163
-0.220544 0.00904218 0.0682867 0 0 0 126 132 151
-0.166691 -0.0173764 0.0722412 0 0 0 27 46 98
-0.180545 0.0311376 0.0702078 0 0 0 130 119 67
-0.229745 0.00035686 0.0663436 0 0 0 97 111 155
-0.210061 0.0231037 0.069491 0 0 0 127 133 143
-0.224764 0.000589959 0.0670624 0 0 0 100 116 131
-0.19739 0.0403214 0.0705129 0 0 0 135 88 39
-0.139524 -0.00328701 0.0743918 0 0 0 141 145 150
-0.148272 -0.0144222 0.0753516 0 0 0 50 74 125
-0.207338 0.00591782 0.0709692 0 0 0 154 143 143
-0.1131 0.00485535 0.0763104 0 0 0 148 161 178
-0.15588 0.0186035 0.074296 0 0 0 149 126 93
-0.110605 0.0294735 0.0754729 0 0 0 161 168 157
-0.203049 0.00863445 0.071383 0 0 0 147 135 118
-0.205678 -0.000194946 0.0716751 0 0 0 125 109 62
-0.155394 0.00918004 0.0761644 0 0 0 155 150 145
-0.220467 -0.024567 0.0688772 0 0 0 12 18 79
-0.186791 0.019034 0.0706649 0 0 0 80 85 16
-0.0294337 -0.00561284 0.0754136 0 0 0 45 61 25
-0.236579 0.0087496 0.0636973 0 0 0 31 47 129
-0.0604058 0.0242479 0.0776431 0 0 0 57 83 15
-0.128448 0.0507087 0.0738063 0 0 0 235 242 248
-0.101934 0.027709 0.0752923 0 0 0 155 165 164
-0.208226 0.0474888 0.0707951 0 0 0 248 253 253
-0.193608 0.00094103 0.0710552 0 0 0 117 102 11
-0.274176 0.0537855 0.02066 0 0 0 113 105 117
-0.0757859 0.0321149 0.0791962 0 0 0 145 121 42
-0.26962 0.0325839 0.0205066 0 0 0 107 126 10
-0.103584 0.0197697 0.0738588 0 0 0 156 166 159
-0.194237 0.0378363 0.0718371 0 0 0 139 102 46
-0.100073 0.0221853 0.0762877 0 0 0 147 162 175
-0.267231 0.0078309 0.01908 0 0 0 146 162 11
-0.0718189 -0.00093847 0.0794754 0 0 0 151 135 90
-0.0227166 0.00613676 0.0767832 0 0 0 110 135 134
-0.267249 0.00435145 0.0185295 0 0 0 135 150 14
-0.205273 -0.0242629 0.0712214 0 0 0 24 33 87
-0.167728 0.00381935 0.073046 0 0 0 149 139 100
-0.190109 0.0483642 0.071873 0 0 0 249 253 254
-0.0711573 -0.0074062 0.0777248 0 0 0 153 133 78
-0.0414374 -0.0222936 0.0765489 0 0 0 143 123 9
-0.1733 0.0125266 0.0716961 0 0 0 131 64 44
-0.0411008 0.0130534 0.0780487 0 0 0 68 88 30
-0.15673 -0.00727405 0.0751535 0 0 0 139 134 131
