ply
format ascii 1.0
element vertex 117
property float x
property float y
property float z
property float nx
property float ny
property float nz
property uchar diffuse_red
property uchar diffuse_green
property uchar diffuse_blue
end_header
-0.0191368 0.0599607 0.0769205 0 0 0 254 254 254
-0.25952 0.00144669 0.0290656 0 0 0 240 249 85
-0.260733 0.0238632 0.0597025 0 0 0 55 72 164
-0.264771 0.0559241 0.0263106 0 0 0 229 234 240
-0.232628 0.0577793 0.0705931 0 0 0 251 252 252
-0.25476 0.0342655 0.0384804 0 0 0 45 68 162
-0.232967 0.0405726 0.0691397 0 0 0 40 51 96
-0.243136 -0.0292101 0.0604435 0 0 0 103 129 208
-0.136624 0.0614141 0.0761694 0 0 0 250 252 253
-0.198542 0.0594997 0.0753743 0 0 0 252 253 254
-0.0482804 0.0609857 0.0783696 0 0 0 254 254 254
-0.198035 0.056194 0.0742582 0 0 0 252 253 252
-0.23319 0.0563734 0.0713465 0 0 0 251 253 253
-0.0986314 0.0553299 0.074486 0 0 0 254 254 254
-0.0989682 0.0266782 0.0777918 0 0 0 133 136 132
-0.0753536 0.0267438 0.079454 0 0 0 140 123 3
-0.243073 0.0478752 0.0628224 0 0 0 238 251 247
-0.274308 -0.0270802 0.0200972 0 0 0 153 154 152
-0.268654 -0.0259795 0.021381 0 0 0 105 126 16
-0.259732 0.0583173 0.0339863 0 0 0 247 253 251
-0.154833 0.0428252 0.0770202 0 0 0 134 69 37
-0.251357 -0.00892751 0.0457425 0 0 0 234 234 59
-0.122659 0.0406688 0.0769833 0 0 0 81 109 137
-0.262782 -0.0288862 0.0267405 0 0 0 150 174 18
-0.258746 0.0096982 0.0634034 0 0 0 244 251 105
-0.152337 -0.0283044 0.0760738 0 0 0 139 148 149
-0.265862 0.021757 0.0505822 0 0 0 44 59 152
-0.143285 0.0105805 0.0789244 0 0 0 21 41 102
-0.103558 -0.0233884 0.0756673 0 0 0 143 154 157
-0.260436 0.0411967 0.0308163 0 0 0 41 58 153
-0.267061 0.0198645 0.0479474 0 0 0 35 54 145
-0.125093 -0.013911 0.0779769 0 0 0 166 166 169
-0.0194228 -0.0173755 0.0770693 0 0 0 116 135 72
-0.256987 -0.0176503 0.0315799 0 0 0 28 46 143
-0.0211744 -0.0173851 0.0767906 0 0 0 113 136 104
-0.137767 -0.023 0.0764199 0 0 0 158 161 170
-0.0370933 -0.0108788 0.077325 0 0 0 88 102 30
-0.245081 0.0569262 0.0628982 0 0 0 252 253 253
-0.21568 0.0417173 0.07178 0 0 0 78 82 117
-0.225407 0.0288638 0.0727599 0 0 0 100 107 118
-0.216168 0.0153304 0.0737142 0 0 0 51 46 94
-0.129831 0.042839 0.0758574 0 0 0 42 22 92
-0.27604 0.00940644 0.0181062 0 0 0 162 160 132
-0.125819 -0.00365647 0.0779665 0 0 0 68 101 125
-0.116505 0.0465885 0.0763019 0 0 0 82 118 159
-0.166711 0.0512189 0.0732323 0 0 0 239 253 235
-0.254844 -0.0232224 0.0387493 0 0 0 36 56 153
-0.0798806 0.0446032 0.0763505 0 0 0 140 101 57
-0.0507737 -0.0249735 0.0758641 0 0 0 149 128 37
-0.0545735 0.0357542 0.0762702 0 0 0 70 90 18
-0.23882 -0.00949367 0.0685764 0 0 0 15 30 83
-0.190763 -0.0298124 0.072715 0 0 0 131 110 36
-0.114239 -0.0108693 0.0774165 0 0 0 60 92 146
-0.0466544 0.0415156 0.0786248 0 0 0 78 95 41
-0.0501234 -0.0276113 0.0749275 0 0 0 152 127 45
-0.0684778 0.0483619 0.0763556 0 0 0 72 93 66
-0.206155 -0.00788473 0.0747627 0 0 0 145 144 128
-0.179369 0.0425494 0.0730957 0 0 0 142 106 40
-0.263623 0.0277701 0.0255419 0 0 0 154 179 44
-0.039275 0.0479358 0.0777572 0 0 0 87 102 58
-0.242182 0.0349098 0.0641892 0 0 0 163 217 250
-0.139753 0.0302765 0.0766721 0 0 0 159 160 156
-0.14219 0.0315164 0.0758278 0 0 0 157 158 155
-0.239097 0.00692607 0.0666411 0 0 0 25 37 110
-0.163389 0.00857731 0.0763205 0 0 0 147 137 128
-0.0507197 -0.0222355 0.0760954 0 0 0 148 126 30
-0.211754 0.0249717 0.0743889 0 0 0 127 134 146
-0.183406 0.0319045 0.0754661 0 0 0 141 128 55
-0.168679 -0.0151792 0.076644 0 0 0 28 44 96
-0.0179942 0.0130167 0.0749101 0 0 0 124 141 83
-0.110971 -0.00692462 0.0780098 0 0 0 157 165 159
-0.226824 0.0123799 0.073091 0 0 0 66 89 129
-0.147685 -0.010631 0.0761243 0 0 0 47 72 130
-0.129921 0.0234792 0.0758754 0 0 0 88 101 143
-0.180491 -0.0284348 0.0728717 0 0 0 103 109 46
-0.111084 0.0313211 0.0762883 0 0 0 158 168 160
-0.243711 -0.000392154 0.0604198 0 0 0 127 127 30
-0.139508 -0.00061697 0.0790029 0 0 0 144 148 159
-0.0786959 0.0552006 0.078168 0 0 0 230 248 254
-0.231978 0.00302094 0.0717349 0 0 0 102 125 148
-0.11257 0.00744389 0.0774441 0 0 0 153 162 162
-0.198869 0.0429092 0.073973 0 0 0 137 92 45
-0.208107 0.00848619 0.0753729 0 0 0 152 147 142
-0.154856 0.0125859 0.0777621 0 0 0 155 153 138
-0.203211 0.0112869 0.0746749 0 0 0 147 139 119
-0.115129 0.00618431 0.0763205 0 0 0 115 145 162
-0.0314057 -0.0062846 0.0761156 0 0 0 39 62 41
-0.206497 0.00364581 0.076576 0 0 0 130 118 98
-0.228125 0.00171876 0.0739138 0 0 0 91 111 132
-0.156485 0.0214043 0.0768034 0 0 0 150 124 80
-0.242294 0.0292026 0.0637071 0 0 0 160 208 251
-0.207609 0.0494134 0.0730281 0 0 0 247 247 242
-0.121402 0.0542416 0.0749324 0 0 0 251 254 254
-0.185016 0.0245819 0.0748406 0 0 0 100 95 28
-0.186551 0.0208767 0.0745231 0 0 0 83 97 18
-0.195905 0.00321033 0.0755387 0 0 0 129 86 24
-0.208723 0.00597805 0.0760032 0 0 0 142 148 150
-0.102413 0.0306965 0.0761773 0 0 0 153 157 175
-0.182768 0.0197967 0.075273 0 0 0 103 105 15
-0.244943 -0.00463518 0.0575983 0 0 0 142 149 43
-0.100926 0.0242503 0.0757812 0 0 0 158 166 161
-0.0639794 0.0262442 0.0791517 0 0 0 56 85 23
-0.159467 -0.00510292 0.0777496 0 0 0 137 119 132
-0.206153 -0.0221338 0.0752045 0 0 0 22 32 84
-0.0698849 0.00138971 0.0788213 0 0 0 152 132 91
-0.192426 0.00353467 0.074716 0 0 0 61 88 24
-0.253129 0.00465868 0.0683813 0 0 0 199 205 96
-0.104868 0.0212932 0.075993 0 0 0 154 164 166
-0.188306 0.0504562 0.0720561 0 0 0 216 249 254
-0.226887 -0.0201693 0.0736429 0 0 0 13 22 80
-0.0234453 0.0237187 0.07735 0 0 0 127 141 125
-0.17488 0.0156382 0.0741896 0 0 0 129 64 42
-0.268859 0.00659502 0.0233317 0 0 0 134 149 1
-0.170019 0.00687281 0.0768293 0 0 0 148 139 76
-0.0420598 0.0141564 0.0770338 0 0 0 73 88 34
-0.2046 0.0279142 0.0744569 0 0 0 142 106 56
-0.0310182 0.0288783 0.0774193 0 0 0 81 98 51
