ply
format ascii 1.0
element vertex 113
property float x
property float y
property float z
property float nx
property float ny
property float nz
property uchar diffuse_red
property uchar diffuse_green
property uchar diffuse_blue
end_header
-0.0195293 0.0598827 0.0736685 0 0 0 254 254 254
-0.268196 -0.00432547 0.0532488 0 0 0 207 220 76
-0.127121 0.0569779 0.0732237 0 0 0 250 253 254
-0.257491 0.0505111 0.0389813 0 0 0 220 230 241
-0.100536 0.026051 0.0776256 0 0 0 116 135 156
-0.0990219 0.0592499 0.0762897 0 0 0 254 254 254
-0.0493808 0.0606685 0.076065 0 0 0 254 254 254
-0.245115 0.0473282 0.0598109 0 0 0 225 240 249
-0.233617 0.0391508 0.0698353 0 0 0 32 45 97
-0.261671 0.0230137 0.0588302 0 0 0 38 58 149
-0.256796 0.0499398 0.0423177 0 0 0 221 231 243
-0.217442 0.0542969 0.0738126 0 0 0 230 240 245
-0.264883 0.02562 0.0560565 0 0 0 32 55 148
-0.242685 -0.0316051 0.0596878 0 0 0 78 115 181
-0.2268 0.0342507 0.0730378 0 0 0 26 67 107
-0.269549 -0.0275013 0.024088 0 0 0 108 125 23
-0.155642 0.0410501 0.0768527 0 0 0 124 71 52
-0.125098 0.0385087 0.0763236 0 0 0 64 91 131
-0.105455 -0.0260599 0.0783439 0 0 0 116 134 149
-0.261792 -0.0302749 0.0256028 0 0 0 132 158 65
-0.252552 -0.0137833 0.0437646 0 0 0 219 232 81
-0.142694 0.00873632 0.0780314 0 0 0 43 44 96
-0.260287 0.00674637 0.0628853 0 0 0 213 223 83
-0.124292 -0.0153403 0.0781204 0 0 0 157 162 171
-0.0167529 -0.0200207 0.0765246 0 0 0 112 128 96
-0.267705 0.0176386 0.0486695 0 0 0 15 33 136
-0.0737036 -0.0307691 0.0760239 0 0 0 147 145 83
-0.137901 -0.0236018 0.0757273 0 0 0 145 159 158
-0.0209883 -0.0199478 0.0766953 0 0 0 104 131 101
-0.257464 -0.020676 0.0331551 0 0 0 15 33 130
-0.176906 0.0528176 0.0744574 0 0 0 231 240 245
-0.250573 0.0350242 0.0496174 0 0 0 35 61 153
-0.0879198 0.046567 0.0759974 0 0 0 124 99 80
-0.0344117 -0.0113885 0.0772259 0 0 0 48 54 4
-0.0852408 -0.0122302 0.0791295 0 0 0 130 138 114
-0.0480807 -0.00828115 0.0757116 0 0 0 127 101 36
-0.255354 -0.0259957 0.0401535 0 0 0 26 48 138
-0.218033 0.0400746 0.0748302 0 0 0 68 87 110
-0.150944 -0.0281613 0.0755337 0 0 0 137 151 158
-0.0814336 0.0427737 0.0762464 0 0 0 123 100 66
-0.0561515 0.0355621 0.0759122 0 0 0 66 89 33
-0.0700135 0.0472763 0.0762941 0 0 0 66 90 43
-0.144764 -0.0259232 0.0759938 0 0 0 122 152 165
-0.132872 0.0408104 0.0761225 0 0 0 38 18 75
-0.218055 0.0144323 0.075439 0 0 0 42 40 92
-0.128119 -0.00514466 0.0781349 0 0 0 68 100 124
-0.238284 -0.0109739 0.0682149 0 0 0 15 26 84
-0.0446688 0.0430323 0.0748939 0 0 0 77 95 48
-0.191217 -0.0314861 0.074739 0 0 0 120 120 61
-0.187638 -0.0280137 0.0742483 0 0 0 122 91 38
-0.242266 0.0351901 0.0642001 0 0 0 181 208 250
-0.206485 -0.00905579 0.0774299 0 0 0 139 146 139
-0.140643 0.0279 0.0760422 0 0 0 150 161 149
-0.146785 -0.0197948 0.0773534 0 0 0 83 99 132
-0.143069 0.0292199 0.0752613 0 0 0 148 160 156
-0.18161 0.0406472 0.0731856 0 0 0 137 118 43
-0.134871 0.0124634 0.0787748 0 0 0 79 110 149
-0.198057 0.0456832 0.0747186 0 0 0 156 157 173
-0.120526 0.0193753 0.0762675 0 0 0 43 77 94
-0.0682587 0.0254548 0.0775011 0 0 0 64 92 29
-0.164015 0.00749311 0.0772511 0 0 0 140 135 135
-0.23813 0.00832053 0.0685754 0 0 0 21 42 114
-0.130516 0.0229419 0.0768451 0 0 0 113 119 94
-0.274174 0.0268327 0.024252 0 0 0 127 150 62
-0.179203 0.0429923 0.0742499 0 0 0 134 91 42
-0.113695 -0.00809892 0.0803639 0 0 0 151 164 156
-0.169402 -0.0167993 0.077084 0 0 0 33 54 101
-0.0505492 -0.0233688 0.0762798 0 0 0 137 123 35
-0.265833 0.0467025 0.0254348 0 0 0 20 16 40
-0.0144126 0.0128059 0.0745587 0 0 0 119 138 80
-0.148145 -0.0124059 0.0780644 0 0 0 38 69 118
-0.211659 0.0238669 0.0753233 0 0 0 124 136 144
-0.113316 0.0284643 0.0768809 0 0 0 151 166 169
-0.110537 -0.00943043 0.0804563 0 0 0 156 164 163
-0.183608 0.030652 0.0746103 0 0 0 133 141 83
-0.231412 0.00109803 0.071495 0 0 0 91 116 148
-0.0791164 0.0551467 0.0753143 0 0 0 252 254 254
-0.141109 -0.0013509 0.0786769 0 0 0 123 131 160
-0.208079 0.00746902 0.0759375 0 0 0 141 150 140
-0.116471 0.00510508 0.0774989 0 0 0 123 143 174
-0.207365 0.00160552 0.0761191 0 0 0 112 107 93
-0.227518 0.00193778 0.0738187 0 0 0 89 111 130
-0.0521856 -0.0206059 0.0763528 0 0 0 134 121 50
-0.188422 -0.0243792 0.0738181 0 0 0 50 74 43
-0.114196 0.00646537 0.0769903 0 0 0 146 161 173
-0.204333 0.00970556 0.0768695 0 0 0 142 142 128
-0.200179 0.0407674 0.0750771 0 0 0 132 103 61
-0.241127 -0.0263904 0.0643021 0 0 0 110 131 162
-0.157008 0.0110409 0.0785878 0 0 0 148 152 143
-0.0670701 -0.0202526 0.076218 0 0 0 133 109 31
-0.208729 0.0039033 0.0764075 0 0 0 114 138 138
-0.158597 0.0197584 0.077826 0 0 0 142 125 114
-0.197426 0.0482036 0.0741451 0 0 0 218 241 246
-0.0357522 -0.00742296 0.0790413 0 0 0 36 60 43
-0.253548 0.0513458 0.0481911 0 0 0 220 233 243
-0.224514 0.0121553 0.0747164 0 0 0 120 132 145
-0.208858 0.0475947 0.0744059 0 0 0 215 241 248
-0.195924 0.00162131 0.0758174 0 0 0 117 93 43
-0.0201737 0.00975754 0.0757902 0 0 0 128 144 99
-0.0635209 0.0257162 0.076457 0 0 0 54 82 28
-0.106507 0.0216637 0.0799196 0 0 0 149 165 165
-0.204238 -0.0227721 0.074288 0 0 0 20 33 80
-0.192484 0.0497844 0.0733991 0 0 0 231 244 251
-0.192925 -0.0056003 0.0766461 0 0 0 73 120 34
-0.271881 0.0458007 0.022471 0 0 0 70 73 66
-0.109771 0.0190889 0.0794084 0 0 0 152 163 159
-0.184196 0.0184068 0.0757931 0 0 0 113 114 50
-0.186502 0.0196685 0.0751205 0 0 0 81 92 47
-0.0729942 -0.00038735 0.0791813 0 0 0 144 133 92
-0.221005 -0.0166807 0.0756098 0 0 0 14 24 78
-0.188494 0.0218689 0.0761848 0 0 0 91 103 61
-0.159264 -0.00622979 0.0791745 0 0 0 129 125 126
-0.271919 0.0313518 0.0253526 0 0 0 93 119 17
