ply
format ascii 1.0
element vertex 100
property float x
property float y
property float z
property float nx
property float ny
property float nz
property uchar diffuse_red
property uchar diffuse_green
property uchar diffuse_blue
end_header
-0.0198067 0.0607727 0.0766965 0 0 0 254 254 254
-0.242342 -0.0304215 0.0551841 0 0 0 210 220 241
-0.260313 0.019979 0.0547874 0 0 0 66 85 175
-0.257351 -0.0019082 0.0247657 0 0 0 243 252 96
-0.24463 0.0479797 0.0546558 0 0 0 252 254 254
-0.254722 0.0318812 0.0352107 0 0 0 52 76 170
-0.0530366 0.060685 0.0777574 0 0 0 254 254 254
-0.260489 0.0534189 0.0256296 0 0 0 232 238 245
-0.232222 0.0390942 0.065612 0 0 0 45 51 112
-0.169823 0.0577733 0.0721203 0 0 0 250 252 252
-0.169842 0.0553176 0.0717365 0 0 0 249 252 252
-0.0950075 0.0259194 0.0749254 0 0 0 128 138 143
-0.0786408 0.0255812 0.0769217 0 0 0 149 127 19
-0.225171 0.0562243 0.068057 0 0 0 250 253 253
-0.230029 0.0368353 0.0660312 0 0 0 59 55 91
-0.225609 0.0346048 0.0672436 0 0 0 75 79 115
-0.136312 0.0590675 0.0743456 0 0 0 250 252 253
-0.24872 0.0566952 0.0519031 0 0 0 252 253 253
-0.266243 -0.0284072 0.017695 0 0 0 100 128 38
-0.27658 0.0380751 0.017336 0 0 0 155 156 153
-0.152809 0.0413685 0.0737871 0 0 0 133 64 42
-0.266835 0.0176382 0.0479879 0 0 0 52 66 157
-0.259761 -0.0309328 0.0194883 0 0 0 171 191 72
-0.122754 0.0392576 0.074917 0 0 0 69 86 121
-0.103748 -0.0259432 0.0741405 0 0 0 138 158 157
-0.144108 -0.028849 0.073387 0 0 0 89 115 158
-0.244446 0.0325875 0.0539678 0 0 0 237 240 252
-0.1524 -0.0304836 0.0734283 0 0 0 136 145 143
-0.143441 0.00781617 0.0766599 0 0 0 37 30 86
-0.123415 -0.0163856 0.0744916 0 0 0 164 169 165
-0.0361202 -0.013436 0.0764192 0 0 0 111 110 42
-0.255968 -0.0190316 0.0264222 0 0 0 14 39 149
-0.139199 -0.0253115 0.0759394 0 0 0 158 162 168
-0.216075 0.0385416 0.070188 0 0 0 83 95 126
-0.252317 -0.0233851 0.0308016 0 0 0 40 62 157
-0.238342 -0.00909559 0.0608919 0 0 0 7 19 80
-0.132788 0.0407161 0.0751078 0 0 0 21 22 80
-0.069364 0.0476342 0.0766418 0 0 0 65 90 68
-0.0816758 0.0438232 0.0752123 0 0 0 138 100 54
-0.239878 0.00483937 0.0614403 0 0 0 37 43 106
-0.215722 0.0132608 0.0696132 0 0 0 51 48 98
-0.0777013 0.042995 0.0747777 0 0 0 135 106 59
-0.122022 -0.00578838 0.0746134 0 0 0 32 59 114
-0.187781 -0.0287395 0.0698048 0 0 0 96 51 9
-0.0479048 -0.0249405 0.0743693 0 0 0 149 127 17
-0.0753687 -0.0292552 0.0762636 0 0 0 157 150 91
-0.246133 -0.0189647 0.0503058 0 0 0 72 89 43
-0.116155 -0.013765 0.0764041 0 0 0 54 51 137
-0.189247 -0.0299847 0.069584 0 0 0 114 90 13
-0.206355 -0.0108607 0.0724707 0 0 0 146 144 142
-0.118548 0.0196837 0.0747584 0 0 0 46 86 108
-0.0437049 0.0390385 0.0767039 0 0 0 77 93 40
-0.138183 0.0286588 0.0736392 0 0 0 158 159 150
-0.180664 0.0399865 0.0714857 0 0 0 144 116 54
-0.161971 0.00700862 0.0737686 0 0 0 145 128 130
-0.0197047 0.0150056 0.0770772 0 0 0 121 141 98
-0.018319 -0.0112377 0.0773821 0 0 0 127 145 92
-0.0555235 0.0286433 0.0790284 0 0 0 78 90 32
-0.107345 -0.00721126 0.0733624 0 0 0 161 165 165
-0.221356 0.00926348 0.0691046 0 0 0 126 132 149
-0.23002 0.00086186 0.0663592 0 0 0 87 115 153
-0.167016 -0.017039 0.072281 0 0 0 27 45 95
-0.18194 0.029736 0.071531 0 0 0 142 137 56
-0.210271 0.0235586 0.0694625 0 0 0 126 134 146
-0.225038 0.00108219 0.067077 0 0 0 100 119 128
-0.115879 0.00511495 0.0752365 0 0 0 144 154 172
-0.148588 -0.0141312 0.0753836 0 0 0 47 73 126
-0.207596 0.00636784 0.0709718 0 0 0 152 143 146
-0.139808 -0.00302259 0.0744023 0 0 0 140 145 147
-0.155015 0.00973773 0.0753968 0 0 0 154 150 143
-0.156102 0.0189139 0.0742686 0 0 0 148 126 104
-0.197551 0.0407422 0.0704512 0 0 0 135 92 36
-0.187022 0.0182257 0.0704532 0 0 0 67 90 9
-0.203299 0.00907308 0.07138 0 0 0 147 135 114
-0.239777 0.0230506 0.06 0 0 0 76 105 214
-0.110797 0.0296579 0.0754196 0 0 0 159 167 159
-0.23683 0.00926905 0.0636986 0 0 0 29 49 130
-0.0297246 -0.00565811 0.0754138 0 0 0 40 57 34
-0.169349 -0.0121087 0.0721193 0 0 0 23 44 99
-0.0606118 0.0242942 0.0775926 0 0 0 57 84 39
-0.220812 -0.0240835 0.0689374 0 0 0 12 21 81
-0.208366 0.0479408 0.0707216 0 0 0 248 253 253
-0.208769 0.00352996 0.0722189 0 0 0 142 148 153
-0.10213 0.0278685 0.075241 0 0 0 155 165 163
-0.195062 0.000869161 0.0726534 0 0 0 117 104 7
-0.274306 0.0543324 0.0205838 0 0 0 118 105 116
-0.0745891 0.0327232 0.0777465 0 0 0 145 119 53
-0.100285 0.0223414 0.0762463 0 0 0 146 162 170
-0.205616 -0.0238181 0.0712789 0 0 0 24 33 84
-0.10447 0.0196848 0.0745404 0 0 0 154 163 161
-0.0721066 -0.00219136 0.0792639 0 0 0 155 135 85
-0.267006 0.0086139 0.0181906 0 0 0 148 164 9
-0.194414 0.0370585 0.0715931 0 0 0 138 107 34
-0.267043 0.00396584 0.017464 0 0 0 137 153 1
-0.167992 0.0041611 0.0730471 0 0 0 148 141 97
-0.190247 0.0487669 0.0717955 0 0 0 248 253 254
-0.0721599 -0.00886636 0.0782205 0 0 0 155 132 76
-0.158537 -0.00703957 0.0750798 0 0 0 141 118 113
-0.17354 0.0128816 0.0716821 0 0 0 129 62 43
-0.0413385 0.0130459 0.0780162 0 0 0 68 89 35
