ply
format ascii 1.0
element vertex 102
property float x
property float y
property float z
property float nx
property float ny
property float nz
property uchar diffuse_red
property uchar diffuse_green
property uchar diffuse_blue
end_header
-0.0227883 0.0601201 0.0773203 0 0 0 254 254 254
-0.242371 -0.0302522 0.0566794 0 0 0 208 218 239
-0.260293 0.0201651 0.0562092 0 0 0 68 85 173
-0.245418 0.0482785 0.0550639 0 0 0 251 254 254
-0.255867 -0.00210443 0.0278662 0 0 0 239 248 123
-0.245115 0.0466777 0.0565365 0 0 0 249 251 250
-0.260634 0.0534914 0.0269232 0 0 0 231 238 243
-0.254324 0.0322778 0.0356736 0 0 0 49 74 167
-0.0552151 0.0603256 0.0780164 0 0 0 254 254 254
-0.232108 0.039293 0.0667668 0 0 0 42 51 109
-0.0948471 0.0260112 0.0751923 0 0 0 130 140 136
-0.0798331 0.0251728 0.0784843 0 0 0 150 129 44
-0.229915 0.0370333 0.0671798 0 0 0 57 55 113
-0.0954415 0.0549818 0.0745269 0 0 0 254 254 254
-0.169647 0.057932 0.0727751 0 0 0 250 252 252
-0.266525 -0.0283588 0.0193473 0 0 0 101 127 38
-0.169672 0.0554749 0.0724009 0 0 0 250 252 253
-0.276319 0.0395948 0.0180697 0 0 0 153 150 158
-0.260035 -0.0308843 0.021106 0 0 0 172 190 93
-0.152639 0.0415161 0.0743894 0 0 0 131 69 53
-0.266864 0.0178046 0.0494638 0 0 0 50 65 154
-0.122579 0.0393782 0.0753217 0 0 0 67 87 124
-0.251355 -0.00930769 0.0396664 0 0 0 233 239 71
-0.152306 -0.0303372 0.0743079 0 0 0 138 146 148
-0.225546 0.0255889 0.0712155 0 0 0 119 148 107
-0.143286 0.00796542 0.0773288 0 0 0 38 28 94
-0.121998 -0.0158741 0.0736349 0 0 0 167 169 166
-0.256181 -0.0189601 0.0279673 0 0 0 14 36 136
-0.0359911 -0.0133996 0.0764365 0 0 0 113 108 36
-0.139096 -0.0264166 0.0765184 0 0 0 148 167 172
-0.102966 -0.0243686 0.0741389 0 0 0 151 167 165
-0.0478426 -0.0290087 0.0738865 0 0 0 152 130 47
-0.252505 -0.0233003 0.0323386 0 0 0 39 63 154
-0.215931 0.0387413 0.0712343 0 0 0 82 96 126
-0.0674993 0.0478259 0.0768914 0 0 0 69 93 62
-0.02394 -0.0202065 0.0773924 0 0 0 79 110 84
-0.132611 0.0408479 0.0755756 0 0 0 22 25 83
-0.23831 -0.00890844 0.0622766 0 0 0 6 16 72
-0.0814955 0.043902 0.0753182 0 0 0 139 100 61
-0.239828 0.00503013 0.0627812 0 0 0 31 47 104
-0.215608 0.0134581 0.0707557 0 0 0 51 45 95
-0.0785628 -0.029217 0.0761882 0 0 0 138 138 125
-0.246183 -0.0188105 0.0517826 0 0 0 72 87 31
-0.244419 0.0327537 0.0552319 0 0 0 236 242 251
-0.121895 -0.00566936 0.0751888 0 0 0 35 60 114
-0.125693 -0.00601537 0.0756479 0 0 0 57 85 120
-0.187697 -0.0273794 0.0711011 0 0 0 61 26 10
-0.27351 -0.00671922 0.017021 0 0 0 168 177 155
-0.206247 -0.0106619 0.073643 0 0 0 146 143 135
-0.138028 0.0287906 0.0741909 0 0 0 158 161 156
-0.189177 -0.0298149 0.070714 0 0 0 113 93 4
-0.111727 0.0433012 0.0752326 0 0 0 110 108 127
-0.0435202 0.0390834 0.0765685 0 0 0 77 95 33
-0.241359 0.0257854 0.0600317 0 0 0 210 231 254
-0.118394 0.0197994 0.0752107 0 0 0 49 89 104
-0.179917 0.0404473 0.0715013 0 0 0 145 115 53
-0.161836 0.00716596 0.0745675 0 0 0 146 127 128
-0.0553331 0.0287097 0.0790144 0 0 0 78 93 28
-0.221249 0.00946469 0.0703013 0 0 0 125 133 153
-0.108552 -0.0075231 0.0753016 0 0 0 159 168 160
-0.181785 0.0311131 0.0725619 0 0 0 133 115 53
-0.167528 -0.0170855 0.0739859 0 0 0 27 46 92
-0.210147 0.0237495 0.0705275 0 0 0 127 134 142
-0.148464 -0.0139813 0.0761733 0 0 0 50 69 120
-0.229952 -8.42592e-05 0.0674736 0 0 0 107 120 134
-0.139679 -0.00288583 0.0750886 0 0 0 141 145 155
-0.197404 0.0409236 0.0713621 0 0 0 134 90 38
-0.11575 0.00394489 0.0755317 0 0 0 110 137 171
-0.224953 0.00127942 0.0683308 0 0 0 99 117 130
-0.206908 0.0068114 0.0712748 0 0 0 147 144 142
-0.0194572 0.0234934 0.0781606 0 0 0 131 146 94
-0.155952 0.019067 0.0749809 0 0 0 149 125 101
-0.153531 0.042902 0.0737167 0 0 0 133 66 65
-0.154866 0.00989412 0.0761374 0 0 0 155 152 140
-0.110629 0.029768 0.0757799 0 0 0 160 168 161
-0.205827 0.0016172 0.0729931 0 0 0 129 122 117
-0.202602 0.00951686 0.0716475 0 0 0 147 135 122
-0.186898 0.0183962 0.0713799 0 0 0 64 92 12
-0.0604356 0.0243604 0.0776304 0 0 0 58 83 25
-0.0295946 -0.00563239 0.0753571 0 0 0 43 63 33
-0.136843 0.0500156 0.0741574 0 0 0 196 220 223
-0.22074 -0.0238832 0.0702602 0 0 0 12 22 77
-0.101965 0.0279689 0.0755491 0 0 0 158 166 174
-0.208777 0.0478202 0.0724847 0 0 0 247 253 253
-0.193769 0.00153261 0.0721045 0 0 0 116 102 16
-0.100119 0.0224438 0.0765632 0 0 0 148 163 169
-0.0744029 0.0328046 0.0778471 0 0 0 146 122 45
-0.104318 0.019785 0.0748963 0 0 0 154 165 166
-0.267727 0.00841023 0.0206044 0 0 0 145 164 6
-0.205529 -0.0236245 0.0724968 0 0 0 23 32 85
-0.274004 0.05589 0.0212454 0 0 0 98 81 76
-0.0712536 -0.00190012 0.0787838 0 0 0 154 136 85
-0.195698 0.0382732 0.0726485 0 0 0 136 93 37
-0.167865 0.00432195 0.0738984 0 0 0 148 139 105
-0.267762 0.00492777 0.0200742 0 0 0 134 150 6
-0.173401 0.0142582 0.0727224 0 0 0 131 64 44
-0.0720129 -0.00878538 0.0784665 0 0 0 156 131 79
-0.190083 0.0489458 0.0726252 0 0 0 249 253 254
-0.156895 -0.00680176 0.075993 0 0 0 138 133 130
-0.181263 -0.00139069 0.0726534 0 0 0 128 117 62
-0.0305678 0.0284245 0.0778549 0 0 0 84 98 53
-0.267703 0.0107319 0.020958 0 0 0 136 148 36
