ply
format ascii 1.0
element vertex 100
property float x
property float y
property float z
property float nx
property float ny
property float nz
property uchar diffuse_red
property uchar diffuse_green
property uchar diffuse_blue
end_header
-0.0189102 0.0617874 0.0719102 0 0 0 254 254 254
-0.258499 -0.00147703 0.034414 0 0 0 206 219 68
-0.219832 0.0554016 0.0722571 0 0 0 230 242 246
-0.0531867 0.0627256 0.0728972 0 0 0 254 254 254
-0.10398 0.0269076 0.0777503 0 0 0 144 152 155
-0.244391 0.050117 0.0602106 0 0 0 228 239 246
-0.256816 0.0501066 0.039137 0 0 0 226 236 244
-0.128543 0.0574487 0.0737694 0 0 0 247 251 251
-0.2635 0.0248852 0.0579806 0 0 0 34 56 147
-0.2338 0.0401645 0.0696859 0 0 0 32 42 105
-0.256439 0.0510443 0.0408837 0 0 0 223 236 244
-0.183178 0.0561409 0.0721692 0 0 0 230 240 245
-0.255518 0.0295717 0.0368966 0 0 0 31 54 145
-0.243351 -0.0308726 0.0610824 0 0 0 80 90 160
-0.268805 -0.0259715 0.0226388 0 0 0 101 125 74
-0.15517 0.0434432 0.0758728 0 0 0 122 70 61
-0.123995 0.0396417 0.0746383 0 0 0 75 82 129
-0.275178 -0.0221751 0.020953 0 0 0 135 148 136
-0.102305 0.0519077 0.0760816 0 0 0 190 217 247
-0.262044 -0.0310405 0.0260038 0 0 0 136 154 69
-0.251868 -0.013772 0.0442291 0 0 0 216 229 63
-0.14386 0.0098948 0.0783719 0 0 0 35 41 88
-0.126456 -0.0141446 0.0786681 0 0 0 148 163 167
-0.0159259 -0.0192957 0.075946 0 0 0 97 125 87
-0.267461 0.0179163 0.0486077 0 0 0 22 36 140
-0.137277 -0.0237197 0.07512 0 0 0 142 157 171
-0.104048 -0.0236308 0.0772911 0 0 0 120 141 144
-0.257669 -0.0210865 0.0331367 0 0 0 16 36 122
-0.0462635 -0.00752054 0.0755063 0 0 0 126 98 40
-0.0809316 0.0436226 0.0751507 0 0 0 117 97 61
-0.0827906 -0.00982662 0.078386 0 0 0 136 139 89
-0.249551 0.0371979 0.0522463 0 0 0 36 59 152
-0.277762 0.026172 0.0216052 0 0 0 139 150 143
-0.255053 -0.0260849 0.0394814 0 0 0 30 46 141
-0.128043 -0.00392306 0.0775524 0 0 0 50 88 154
-0.0573071 0.0376304 0.075023 0 0 0 66 89 23
-0.21665 0.0147803 0.0737929 0 0 0 46 41 95
-0.187674 -0.0267943 0.0746601 0 0 0 95 88 70
-0.190645 -0.0290476 0.0745545 0 0 0 129 117 66
-0.145351 -0.023559 0.0771883 0 0 0 126 147 152
-0.0688043 0.0482034 0.0742787 0 0 0 61 89 77
-0.167332 0.05052 0.0743901 0 0 0 234 245 247
-0.0791958 0.0584748 0.0745493 0 0 0 254 254 254
-0.0448477 0.0435664 0.0745062 0 0 0 72 93 44
-0.0755382 -0.0270808 0.0749608 0 0 0 146 145 98
-0.205916 -0.0075313 0.0761495 0 0 0 139 145 136
-0.237551 -0.0110039 0.0685176 0 0 0 22 29 85
-0.132415 0.0418522 0.0750926 0 0 0 25 31 101
-0.140191 0.0302111 0.0756614 0 0 0 151 157 154
-0.197362 0.0467131 0.0750572 0 0 0 147 151 135
-0.182975 0.0413733 0.0745716 0 0 0 136 115 44
-0.241134 0.0349002 0.0640653 0 0 0 112 149 213
-0.165164 0.00869537 0.0776728 0 0 0 137 133 139
-0.121043 0.0204429 0.075343 0 0 0 52 79 108
-0.0694247 0.0276333 0.0770796 0 0 0 81 100 45
-0.241995 0.0338329 0.0632301 0 0 0 113 154 219
-0.0473221 -0.0212157 0.0754117 0 0 0 136 123 45
-0.132552 0.025316 0.0757538 0 0 0 20 52 107
-0.112951 -0.00679065 0.0791702 0 0 0 150 168 158
-0.169965 -0.0143215 0.0778757 0 0 0 34 51 100
-0.212725 0.0251371 0.0750653 0 0 0 119 132 142
-0.199888 0.0492713 0.0728044 0 0 0 227 242 245
-0.0565603 -0.0222951 0.0749922 0 0 0 137 124 43
-0.148728 -0.0111641 0.078581 0 0 0 46 67 111
-0.183252 0.0306215 0.0739403 0 0 0 146 151 31
-0.237856 0.0094037 0.0689459 0 0 0 25 42 116
-0.112872 0.0294612 0.076414 0 0 0 153 165 165
-0.0455009 0.0573787 0.0743816 0 0 0 253 254 254
-0.226723 0.0021479 0.0735611 0 0 0 83 101 127
-0.117019 0.0062093 0.0772151 0 0 0 127 150 157
-0.140399 7.25884e-06 0.0771445 0 0 0 122 135 139
-0.1554 0.0124284 0.0773082 0 0 0 145 150 141
-0.204292 0.0111896 0.0755786 0 0 0 139 135 122
-0.206497 0.00298092 0.075976 0 0 0 110 104 88
-0.261049 0.0364182 0.0265477 0 0 0 26 47 130
-0.20805 0.00891939 0.0747435 0 0 0 138 144 135
-0.231145 0.00228702 0.0721932 0 0 0 87 108 143
-0.207288 0.00536992 0.0753257 0 0 0 126 142 141
-0.200358 0.0418963 0.0748398 0 0 0 130 100 63
-0.180976 -0.0282787 0.0753634 0 0 0 102 110 71
-0.0692571 -0.0153397 0.0771022 0 0 0 132 113 33
-0.10486 0.0295664 0.0770264 0 0 0 140 161 162
-0.157561 0.0222821 0.0770111 0 0 0 137 119 87
-0.205703 -0.0214332 0.0744981 0 0 0 16 27 83
-0.207571 0.0499517 0.0738884 0 0 0 234 245 248
-0.20902 0.0487175 0.0738654 0 0 0 225 241 243
-0.183307 0.0173256 0.0747905 0 0 0 126 119 51
-0.107361 0.0204355 0.0771174 0 0 0 146 161 162
-0.0697891 0.00209612 0.0772163 0 0 0 142 131 89
-0.193523 -0.00542954 0.0768016 0 0 0 78 93 63
-0.0637756 0.0250682 0.0767722 0 0 0 59 82 23
-0.195035 0.00293799 0.0756909 0 0 0 93 101 38
-0.191221 0.0496789 0.0726708 0 0 0 227 242 245
-0.239586 -0.0255622 0.066123 0 0 0 90 111 164
-0.0355909 -0.00513514 0.078666 0 0 0 44 69 25
-0.219933 -0.0151802 0.0737973 0 0 0 11 24 79
-0.123956 0.0525544 0.0737605 0 0 0 242 249 254
-0.161337 -0.0048696 0.079385 0 0 0 128 123 136
-0.26935 0.00400474 0.0245417 0 0 0 120 141 29
-0.147503 0.0562901 0.0752454 0 0 0 248 252 252
