ply
format ascii 1.0
element vertex 98
property float x
property float y
property float z
property float nx
property float ny
property float nz
property uchar diffuse_red
property uchar diffuse_green
property uchar diffuse_blue
end_header
-0.0177311 0.0581694 0.0742811 0 0 0 251 254 254
-0.257093 -0.00202872 0.023536 0 0 0 205 205 7
-0.162858 0.0566618 0.0726989 0 0 0 245 247 248
-0.234277 0.0541634 0.0667588 0 0 0 229 233 233
-0.234277 0.0541634 0.0667588 0 0 0 229 233 233
-0.125864 0.0560181 0.0706508 0 0 0 247 248 250
-0.104641 0.0248996 0.0766507 0 0 0 136 146 126
-0.0837296 0.025722 0.0772529 0 0 0 138 112 3
-0.0800273 0.0587722 0.0743149 0 0 0 254 254 254
-0.233979 0.0395264 0.0668474 0 0 0 36 35 85
-0.103747 0.0522135 0.0723413 0 0 0 191 205 216
-0.242633 -0.029506 0.0549141 0 0 0 81 95 160
-0.269867 -0.0251727 0.0165763 0 0 0 113 133 57
-0.188256 0.0565732 0.0705931 0 0 0 226 230 231
-0.156416 0.0432846 0.0731349 0 0 0 127 59 24
-0.125284 0.0394697 0.072365 0 0 0 61 75 98
-0.143558 0.0110984 0.07391 0 0 0 27 24 64
-0.261598 -0.0304495 0.0216257 0 0 0 145 157 22
-0.151348 -0.0289555 0.0700948 0 0 0 125 133 132
-0.127737 -0.0133557 0.0762301 0 0 0 153 153 134
-0.139212 -0.0225004 0.0734592 0 0 0 146 150 135
-0.106062 -0.0223732 0.0760477 0 0 0 131 138 122
-0.0199471 -0.0200182 0.0738891 0 0 0 100 127 99
-0.194986 0.054238 0.0696727 0 0 0 227 230 231
-0.196429 0.0542247 0.0696791 0 0 0 227 231 231
-0.267025 0.0181759 0.043351 0 0 0 29 35 115
-0.226761 0.034742 0.0695195 0 0 0 38 40 85
-0.271533 0.0491625 0.0187431 0 0 0 87 97 102
-0.0819792 0.0429071 0.0750059 0 0 0 113 84 23
-0.215621 0.0415989 0.0677953 0 0 0 63 68 96
-0.257834 -0.0215498 0.0294767 0 0 0 13 33 115
-0.0818825 -0.0082966 0.0744152 0 0 0 134 125 72
-0.146346 -0.0244338 0.0721597 0 0 0 131 137 138
-0.0342359 -0.00946509 0.0728436 0 0 0 53 56 19
-0.25439 -0.0263866 0.0340767 0 0 0 24 42 120
-0.216875 0.0151916 0.069011 0 0 0 45 40 77
-0.0620624 0.0362801 0.0731789 0 0 0 75 85 35
-0.127864 -0.00326529 0.0734802 0 0 0 71 116 141
-0.240304 0.0445276 0.0608848 0 0 0 162 170 194
-0.0705047 0.0468653 0.0749437 0 0 0 49 80 28
-0.0444733 0.0415538 0.0734366 0 0 0 76 86 13
-0.263764 0.0260178 0.0203139 0 0 0 132 140 27
-0.205855 -0.0072431 0.0709268 0 0 0 137 135 113
-0.0447557 -0.0225392 0.0723127 0 0 0 141 122 17
-0.147422 -0.018226 0.0739798 0 0 0 82 87 112
-0.237374 -0.010787 0.06294 0 0 0 14 26 67
-0.189572 -0.0258728 0.0723836 0 0 0 90 64 24
-0.275586 0.0413974 0.016158 0 0 0 139 141 122
-0.140959 0.0296523 0.0724899 0 0 0 148 147 127
-0.143106 0.0308776 0.0732231 0 0 0 147 144 124
-0.258976 0.00614762 0.0232317 0 0 0 240 242 59
-0.212357 0.0471902 0.0695996 0 0 0 144 150 188
-0.0671618 0.0269443 0.0737199 0 0 0 72 89 26
-0.124796 0.0204632 0.0739586 0 0 0 45 69 108
-0.165573 0.00831705 0.0736116 0 0 0 138 134 123
-0.111918 -0.00671262 0.0762005 0 0 0 150 151 136
-0.261664 0.0384878 0.0224817 0 0 0 24 33 104
-0.213459 0.0252882 0.07102 0 0 0 118 123 122
-0.168737 -0.0143285 0.0716749 0 0 0 29 47 84
-0.241976 0.0355722 0.0605535 0 0 0 107 133 169
-0.134504 0.0231066 0.0757929 0 0 0 67 74 103
-0.242824 0.0345177 0.0597307 0 0 0 101 127 166
-0.114723 0.0301801 0.0767818 0 0 0 151 156 132
-0.255129 0.0521767 0.0371835 0 0 0 102 111 116
-0.276826 -0.00747737 0.0129426 0 0 0 161 151 118
-0.274662 0.0208156 0.0167637 0 0 0 144 148 123
-0.148049 -0.0108141 0.0734817 0 0 0 45 61 103
-0.231438 0.00339512 0.0674065 0 0 0 78 95 124
-0.225921 0.00312558 0.0671348 0 0 0 72 95 122
-0.118736 0.00631549 0.0754015 0 0 0 135 136 142
-0.138018 -0.000215123 0.0721317 0 0 0 121 127 131
-0.15509 0.012806 0.0726106 0 0 0 146 139 120
-0.185724 0.0316048 0.0726737 0 0 0 135 127 49
-0.205774 0.00202976 0.069746 0 0 0 115 86 80
-0.207785 0.00907507 0.0693047 0 0 0 136 131 119
-0.204616 0.0111892 0.0709723 0 0 0 138 124 101
-0.207947 0.00446967 0.0690889 0 0 0 115 107 91
-0.237435 0.0105757 0.0631666 0 0 0 21 39 102
-0.206301 -0.0199079 0.0703332 0 0 0 14 25 69
-0.200309 0.0425081 0.0699689 0 0 0 133 97 34
-0.182887 -0.0264109 0.0732232 0 0 0 122 108 42
-0.0701274 0.00301256 0.0747186 0 0 0 144 125 76
-0.159686 0.0225333 0.0752678 0 0 0 140 113 74
-0.110982 0.0198995 0.0774478 0 0 0 147 150 133
-0.195462 0.00263072 0.0712946 0 0 0 102 94 47
-0.0814428 -0.0227716 0.0746413 0 0 0 142 135 86
-0.0331463 -0.00679706 0.073918 0 0 0 40 56 14
-0.0253292 0.0106889 0.0774579 0 0 0 124 122 40
-0.196348 -0.00550519 0.0717225 0 0 0 125 114 4
-0.107017 0.022367 0.0771158 0 0 0 147 153 137
-0.190225 0.0210496 0.0737693 0 0 0 76 88 25
-0.186592 0.0173832 0.0744198 0 0 0 124 113 32
-0.141735 0.047286 0.0692219 0 0 0 124 58 66
-0.159985 -0.00402222 0.0732468 0 0 0 133 114 115
-0.193977 0.00372663 0.0713429 0 0 0 83 83 57
-0.267998 0.0044495 0.0187537 0 0 0 126 136 4
-0.0269838 0.0205034 0.0760116 0 0 0 117 131 98
-0.270448 0.0330985 0.019563 0 0 0 96 111 3
