ply
format ascii 1.0
element vertex 108
property float x
property float y
property float z
property float nx
property float ny
property float nz
property uchar diffuse_red
property uchar diffuse_green
property uchar diffuse_blue
end_header
-0.0205392 0.0574744 0.0753275 0 0 0 254 254 254
-0.25746 -0.00307288 0.0314574 0 0 0 215 227 96
-0.241694 -0.0323736 0.0602347 0 0 0 147 162 209
-0.257647 0.048287 0.0376566 0 0 0 223 233 241
-0.24552 0.0449318 0.0585162 0 0 0 226 244 249
-0.259496 0.0183249 0.0619976 0 0 0 54 77 158
-0.256488 0.047749 0.0400784 0 0 0 222 232 241
-0.264513 0.0238887 0.0566411 0 0 0 40 63 150
-0.104063 0.022485 0.0791788 0 0 0 155 161 160
-0.233849 0.0369303 0.0698785 0 0 0 43 48 91
-0.265621 -0.03036 0.0222974 0 0 0 104 123 14
-0.0700196 0.0566328 0.0779515 0 0 0 254 254 254
-0.101679 0.049869 0.0758553 0 0 0 233 244 248
-0.155504 0.0389984 0.0769795 0 0 0 128 71 48
-0.208814 0.0515041 0.0737762 0 0 0 233 242 246
-0.260202 -0.0333811 0.0256382 0 0 0 147 168 46
-0.272095 -0.0331883 0.0198471 0 0 0 144 151 131
-0.12497 0.0366681 0.0766215 0 0 0 77 86 113
-0.266866 0.0172118 0.0505911 0 0 0 38 56 138
-0.273867 0.0346549 0.0228433 0 0 0 129 154 108
-0.25208 -0.0124826 0.0449383 0 0 0 212 221 82
-0.267713 0.0151631 0.0494697 0 0 0 34 45 133
-0.125072 -0.0163347 0.0782549 0 0 0 157 168 175
-0.142852 0.00756471 0.0787699 0 0 0 27 38 95
-0.106274 -0.0281041 0.077764 0 0 0 128 154 159
-0.151457 0.0549164 0.0749064 0 0 0 233 242 246
-0.138119 -0.0262077 0.0781934 0 0 0 153 166 163
-0.143944 -0.0292792 0.0749353 0 0 0 105 139 156
-0.035413 -0.0144654 0.0780546 0 0 0 67 72 43
-0.021979 -0.0228614 0.0771154 0 0 0 98 120 88
-0.177824 0.0548624 0.0733224 0 0 0 234 242 245
-0.0820353 0.0409488 0.0779988 0 0 0 127 101 68
-0.0887049 -0.0128549 0.0787919 0 0 0 98 111 149
-0.256833 -0.0219692 0.0333779 0 0 0 20 44 132
-0.132742 0.0389307 0.076484 0 0 0 35 21 85
-0.224757 0.0236094 0.0737854 0 0 0 79 105 138
-0.0692763 0.0445744 0.076839 0 0 0 66 93 65
-0.252684 -0.0278455 0.0406422 0 0 0 33 51 143
-0.217804 0.037827 0.0742385 0 0 0 74 85 122
-0.097601 -0.0308315 0.0773013 0 0 0 142 158 169
-0.238044 -0.011954 0.0668206 0 0 0 11 23 84
-0.123561 -0.00617821 0.078453 0 0 0 62 64 94
-0.188513 -0.0294204 0.0754047 0 0 0 78 66 77
-0.180794 0.0535008 0.0730579 0 0 0 233 242 246
-0.216927 0.0121283 0.0739762 0 0 0 48 45 98
-0.0512658 -0.0292735 0.0773449 0 0 0 144 126 44
-0.169158 0.0459968 0.0761029 0 0 0 205 217 223
-0.0543877 0.0328035 0.0767824 0 0 0 73 92 33
-0.133762 0.0116018 0.0783371 0 0 0 105 139 149
-0.190253 -0.0314276 0.0734342 0 0 0 132 119 43
-0.0453772 0.0374458 0.0763649 0 0 0 75 93 39
-0.207073 -0.0117466 0.0770165 0 0 0 138 137 146
-0.181135 0.0383317 0.0746153 0 0 0 139 111 62
-0.141961 0.0284654 0.075821 0 0 0 151 157 143
-0.138899 0.0273069 0.0757932 0 0 0 156 161 157
-0.244663 0.031005 0.058623 0 0 0 194 207 249
-0.121661 0.0173052 0.0768619 0 0 0 29 79 111
-0.164746 0.00607597 0.0784682 0 0 0 142 133 129
-0.112993 -0.0105172 0.0809549 0 0 0 156 165 160
-0.221177 0.00864637 0.0735579 0 0 0 121 128 144
-0.169183 -0.0181631 0.0775153 0 0 0 34 56 103
-0.118669 0.00246443 0.0802676 0 0 0 116 141 166
-0.0665247 0.0212635 0.0773405 0 0 0 69 93 43
-0.139063 -0.00233811 0.0781148 0 0 0 127 128 144
-0.208914 0.00615839 0.0751762 0 0 0 141 145 145
-0.148013 -0.0149439 0.0787788 0 0 0 57 72 116
-0.183123 0.0282959 0.0753712 0 0 0 139 138 63
-0.212522 0.0224383 0.0755767 0 0 0 124 135 145
-0.110891 0.0281709 0.0762853 0 0 0 156 167 169
-0.205222 0.00719993 0.0760848 0 0 0 145 141 136
-0.231014 -0.000472599 0.0725057 0 0 0 100 110 150
-0.241204 0.0244897 0.0623433 0 0 0 188 204 249
-0.155919 0.00885708 0.0775932 0 0 0 151 153 145
-0.0209839 0.0412715 0.0766287 0 0 0 132 155 92
-0.158151 0.0173922 0.078139 0 0 0 144 126 100
-0.0790812 0.0522307 0.0769636 0 0 0 249 252 254
-0.199975 0.0385963 0.0747176 0 0 0 134 100 60
-0.0677161 -0.0235936 0.0777699 0 0 0 134 108 24
-0.227449 -0.000573778 0.0731198 0 0 0 92 114 131
-0.104922 0.0264547 0.0789564 0 0 0 146 160 154
-0.1375 0.0477966 0.076054 0 0 0 207 218 230
-0.208124 0.00374069 0.0755678 0 0 0 146 153 149
-0.068577 -0.0181931 0.0777623 0 0 0 138 116 43
-0.0631519 0.0225838 0.0779849 0 0 0 57 82 9
-0.195087 0.000151498 0.0763681 0 0 0 124 108 34
-0.209808 0.044914 0.0760057 0 0 0 214 240 246
-0.172063 -0.013417 0.0782603 0 0 0 36 54 108
-0.260626 0.0338428 0.0284388 0 0 0 31 53 137
-0.271123 0.0415925 0.0237357 0 0 0 123 134 88
-0.125214 -0.0237413 0.0769985 0 0 0 48 51 106
-0.108709 0.017052 0.0794782 0 0 0 148 166 161
-0.018332 0.0199921 0.0759491 0 0 0 123 145 71
-0.183738 0.0137115 0.0753616 0 0 0 135 122 48
-0.183067 0.0174042 0.0751699 0 0 0 121 122 48
-0.0725622 -0.00226949 0.0791404 0 0 0 148 138 82
-0.0197348 0.00831284 0.0770172 0 0 0 132 147 97
-0.192292 0.0477223 0.0737063 0 0 0 233 245 250
-0.191508 -0.00805207 0.0757695 0 0 0 80 86 73
-0.204474 -0.0242379 0.0748305 0 0 0 23 40 86
-0.239442 0.0457608 0.065857 0 0 0 233 243 247
-0.238179 0.00969588 0.067182 0 0 0 23 43 121
-0.268349 0.00061774 0.0243718 0 0 0 126 143 26
-0.0222419 0.00682612 0.0771766 0 0 0 124 140 108
-0.273752 0.0219043 0.0224169 0 0 0 145 159 117
-0.15937 -0.00747157 0.0787812 0 0 0 133 125 136
-0.188857 0.0195903 0.0755266 0 0 0 87 95 37
-0.0472744 0.00631775 0.0781955 0 0 0 63 86 43
-0.0821323 -0.0117329 0.0796854 0 0 0 148 145 96
