ply
format ascii 1.0
element vertex 115
property float x
property float y
property float z
property float nx
property float ny
property float nz
property uchar diffuse_red
property uchar diffuse_green
property uchar diffuse_blue
end_header
-0.0201993 0.0615528 0.0762963 0 0 0 254 254 254
-0.259673 -0.000545758 0.02894 0 0 0 241 249 69
-0.261405 0.023256 0.0580092 0 0 0 50 71 165
-0.266268 0.0554096 0.0237869 0 0 0 221 225 238
-0.136681 0.0611148 0.0758501 0 0 0 249 252 252
-0.231813 0.0570957 0.0706116 0 0 0 251 253 252
-0.242828 -0.0298401 0.0595716 0 0 0 105 131 211
-0.233465 0.0397349 0.0692076 0 0 0 44 49 99
-0.254213 0.033309 0.0392797 0 0 0 45 68 162
-0.139804 0.0595422 0.0755288 0 0 0 249 252 252
-0.0459333 0.0613195 0.0780228 0 0 0 254 254 254
-0.10026 0.0563333 0.0742815 0 0 0 254 254 254
-0.0982521 0.0266846 0.0768955 0 0 0 133 134 136
-0.0753157 0.0266387 0.0793997 0 0 0 139 123 19
-0.273835 -0.0289395 0.018983 0 0 0 152 155 153
-0.243005 0.0483869 0.0620951 0 0 0 245 254 254
-0.268996 -0.0254249 0.0196935 0 0 0 114 137 29
-0.198645 0.0554476 0.0744617 0 0 0 250 253 252
-0.198607 0.0578177 0.0746635 0 0 0 252 253 252
-0.259197 0.0084274 0.0590809 0 0 0 235 244 104
-0.251898 -0.0106448 0.0439557 0 0 0 239 238 87
-0.154834 0.0424672 0.0766044 0 0 0 134 69 40
-0.262316 -0.0295579 0.0257774 0 0 0 150 176 25
-0.122004 0.0406246 0.0759672 0 0 0 83 111 139
-0.265671 0.0210603 0.0496352 0 0 0 43 56 156
-0.143192 0.0102585 0.078543 0 0 0 20 40 100
-0.103342 -0.0235811 0.0754508 0 0 0 144 155 164
-0.266357 0.0193686 0.0460952 0 0 0 35 55 155
-0.259724 0.0407615 0.0290067 0 0 0 42 59 154
-0.152086 -0.0274172 0.0757318 0 0 0 139 145 155
-0.123615 -0.0139123 0.0761585 0 0 0 165 170 159
-0.256581 -0.0183066 0.0306506 0 0 0 29 42 142
-0.137554 -0.0233027 0.0760438 0 0 0 156 163 163
-0.0210515 -0.0215355 0.0766032 0 0 0 87 125 144
-0.022027 -0.0186229 0.0758758 0 0 0 89 119 94
-0.036948 -0.0122459 0.0773087 0 0 0 97 106 36
-0.215652 0.0411678 0.0710794 0 0 0 76 80 118
-0.0742373 -0.0270181 0.0766836 0 0 0 154 149 107
-0.225361 0.0271318 0.071908 0 0 0 120 144 125
-0.216065 0.0147783 0.0729952 0 0 0 53 46 98
-0.268381 0.00550368 0.0459639 0 0 0 247 247 89
-0.13049 0.0410761 0.0762059 0 0 0 92 72 96
-0.248903 -0.00829778 0.0525117 0 0 0 237 249 94
-0.166721 0.0508252 0.0727662 0 0 0 240 253 233
-0.246863 -0.00412772 0.0561329 0 0 0 216 226 95
-0.127246 -0.0039791 0.0775397 0 0 0 84 109 120
-0.254453 -0.0238762 0.0378266 0 0 0 37 57 153
-0.258412 -0.00511893 0.0284405 0 0 0 247 252 80
-0.0684948 0.0482807 0.0763467 0 0 0 69 93 69
-0.0805681 0.0442779 0.0770041 0 0 0 140 104 55
-0.189055 -0.0302521 0.0720941 0 0 0 127 114 45
-0.05455 0.0357176 0.0763186 0 0 0 77 89 17
-0.239437 -0.0100352 0.0669559 0 0 0 15 27 88
-0.045243 0.0418979 0.0773257 0 0 0 79 96 32
-0.11407 -0.0110973 0.0771577 0 0 0 64 89 139
-0.188132 -0.0267579 0.0732185 0 0 0 72 57 63
-0.205982 -0.00840534 0.0740763 0 0 0 144 146 133
-0.263315 0.0282622 0.0247085 0 0 0 160 183 53
-0.17935 0.0421153 0.0725652 0 0 0 142 110 51
-0.242925 0.0343604 0.0625761 0 0 0 216 240 247
-0.139712 0.029967 0.0763192 0 0 0 160 160 156
-0.0392976 0.0479472 0.0778845 0 0 0 89 98 64
-0.238933 0.00630504 0.0658099 0 0 0 25 34 112
-0.142782 0.0309986 0.0762302 0 0 0 158 156 152
-0.0488519 -0.0249871 0.0761337 0 0 0 150 129 32
-0.0193693 0.0113777 0.0763537 0 0 0 124 143 99
-0.163277 0.00819253 0.0758439 0 0 0 147 134 137
-0.27559 -0.00468836 0.0203854 0 0 0 168 167 154
-0.077353 0.0568713 0.0767987 0 0 0 254 254 254
-0.0641807 -0.0242527 0.0781675 0 0 0 149 124 38
-0.182769 0.0316663 0.0741096 0 0 0 142 130 49
-0.211684 0.0244332 0.0736964 0 0 0 127 134 148
-0.168493 -0.015581 0.0761283 0 0 0 28 45 98
-0.110818 -0.0071426 0.0777687 0 0 0 157 166 165
-0.110386 0.0312984 0.0753285 0 0 0 159 168 168
-0.209409 0.00786244 0.0747104 0 0 0 147 141 143
-0.140287 -0.000839064 0.0777721 0 0 0 129 136 153
-0.147511 -0.0109653 0.0757094 0 0 0 47 71 128
-0.231826 0.00241953 0.0709346 0 0 0 105 122 147
-0.224487 0.0118206 0.0730566 0 0 0 124 129 139
-0.248404 -0.0092878 0.0515352 0 0 0 223 245 110
-0.154764 0.0122275 0.0773278 0 0 0 154 152 138
-0.112461 0.00722108 0.0772042 0 0 0 154 161 169
-0.198855 0.0424121 0.0733516 0 0 0 137 91 34
-0.115667 0.00579517 0.0768138 0 0 0 114 141 165
-0.227979 0.00112832 0.0731307 0 0 0 97 114 133
-0.205794 0.00329341 0.0750726 0 0 0 130 119 85
-0.203099 0.0107756 0.074014 0 0 0 149 138 122
-0.156416 0.0210412 0.0763669 0 0 0 149 123 89
-0.0326872 -0.00650663 0.0776224 0 0 0 39 61 47
-0.207611 0.0488889 0.0723699 0 0 0 248 247 242
-0.195186 0.00288964 0.0740935 0 0 0 127 80 33
-0.184948 0.0241287 0.0742727 0 0 0 98 102 35
-0.102373 0.0305069 0.0759991 0 0 0 153 156 166
-0.2086 0.00544839 0.0753132 0 0 0 144 148 146
-0.182686 0.0193505 0.0747127 0 0 0 104 105 13
-0.125061 -0.0230666 0.0769083 0 0 0 63 74 116
-0.100863 0.0240657 0.075606 0 0 0 158 166 162
-0.0632413 0.0263553 0.0784444 0 0 0 54 83 24
-0.205936 -0.0226546 0.0745095 0 0 0 24 32 84
-0.070457 0.00115692 0.0794886 0 0 0 154 131 67
-0.191701 0.00322535 0.0732898 0 0 0 56 85 25
-0.104796 0.0210958 0.0757976 0 0 0 156 165 164
-0.245732 -0.0177656 0.054876 0 0 0 48 68 61
-0.22667 -0.0207555 0.0728523 0 0 0 14 23 79
-0.159318 -0.00547597 0.077283 0 0 0 139 117 125
-0.268491 0.00590574 0.0223618 0 0 0 133 150 6
-0.0226867 0.0225417 0.0767358 0 0 0 127 141 127
-0.169904 0.0064665 0.0763207 0 0 0 148 142 76
-0.0409679 0.0140624 0.0780774 0 0 0 68 86 23
-0.189767 0.0498388 0.0714698 0 0 0 213 244 254
-0.241378 0.0273515 0.0635619 0 0 0 132 167 239
-0.205967 0.0272725 0.0738135 0 0 0 145 119 77
-0.276037 0.0196016 0.0216548 0 0 0 166 167 154
-0.0309784 0.0289164 0.0775735 0 0 0 84 100 45
